G75*
%MOIN*%
%OFA0B0*%
%FSLAX25Y25*%
%IPPOS*%
%LPD*%
%AMOC8*
5,1,8,0,0,1.08239X$1,22.5*
%
%ADD10R,0.06406X0.06406*%
%ADD11OC8,0.06406*%
%ADD12C,0.08768*%
%ADD13C,0.00500*%
%ADD14OC8,0.06996*%
%ADD15OC8,0.10500*%
%ADD16C,0.12311*%
%ADD17C,0.08177*%
%ADD18C,0.05500*%
D10*
X0345473Y0038461D03*
X0345473Y0282713D03*
D11*
X0335473Y0282713D03*
X0325473Y0282713D03*
X0315473Y0282713D03*
X0305473Y0282713D03*
X0295473Y0282713D03*
X0285473Y0282713D03*
X0275473Y0282713D03*
X0265473Y0282713D03*
X0255473Y0282713D03*
X0245473Y0282713D03*
X0235473Y0282713D03*
X0225473Y0282713D03*
X0215473Y0282713D03*
X0215473Y0272713D03*
X0225473Y0272713D03*
X0235473Y0272713D03*
X0245473Y0272713D03*
X0255473Y0272713D03*
X0265473Y0272713D03*
X0275473Y0272713D03*
X0285473Y0272713D03*
X0295473Y0272713D03*
X0305473Y0272713D03*
X0315473Y0272713D03*
X0325473Y0272713D03*
X0335473Y0272713D03*
X0345473Y0272713D03*
X0335473Y0038461D03*
X0325473Y0038461D03*
X0315473Y0038461D03*
X0305473Y0038461D03*
X0295473Y0038461D03*
X0285473Y0038461D03*
X0275473Y0038461D03*
X0265473Y0038461D03*
X0255473Y0038461D03*
X0245473Y0038461D03*
X0235473Y0038461D03*
X0225473Y0038461D03*
X0215473Y0038461D03*
X0215473Y0028461D03*
X0225473Y0028461D03*
X0235473Y0028461D03*
X0245473Y0028461D03*
X0255473Y0028461D03*
X0265473Y0028461D03*
X0275473Y0028461D03*
X0285473Y0028461D03*
X0295473Y0028461D03*
X0305473Y0028461D03*
X0315473Y0028461D03*
X0325473Y0028461D03*
X0335473Y0028461D03*
X0345473Y0028461D03*
D12*
X0032796Y0045016D03*
X0032796Y0060016D03*
X0032796Y0075016D03*
X0032796Y0090016D03*
X0032796Y0105016D03*
X0032796Y0120016D03*
X0032796Y0135016D03*
X0032796Y0150016D03*
D13*
X0016590Y0024788D02*
X0017304Y0024288D01*
X0018094Y0023920D01*
X0018936Y0023694D01*
X0019804Y0023618D01*
X0020672Y0023694D01*
X0021514Y0023920D01*
X0022304Y0024288D01*
X0023018Y0024788D01*
X0023634Y0025404D01*
X0024134Y0026118D01*
X0024502Y0026908D01*
X0024728Y0027750D01*
X0024804Y0028618D01*
X0024728Y0029486D01*
X0024502Y0030328D01*
X0024134Y0031118D01*
X0023634Y0031832D01*
X0023018Y0032448D01*
X0022304Y0032948D01*
X0021514Y0033317D01*
X0020672Y0033542D01*
X0019804Y0033618D01*
X0018936Y0033542D01*
X0018094Y0033317D01*
X0017304Y0032948D01*
X0016590Y0032448D01*
X0015974Y0031832D01*
X0015474Y0031118D01*
X0015105Y0030328D01*
X0014880Y0029486D01*
X0014804Y0028618D01*
X0014880Y0027750D01*
X0015105Y0026908D01*
X0015474Y0026118D01*
X0015974Y0025404D01*
X0016590Y0024788D01*
X0016743Y0024681D02*
X0022865Y0024681D01*
X0023410Y0025180D02*
X0016198Y0025180D01*
X0015782Y0025678D02*
X0023826Y0025678D01*
X0024161Y0026177D02*
X0015447Y0026177D01*
X0015214Y0026675D02*
X0024394Y0026675D01*
X0024574Y0027174D02*
X0015034Y0027174D01*
X0014901Y0027672D02*
X0024707Y0027672D01*
X0024765Y0028171D02*
X0014843Y0028171D01*
X0014808Y0028669D02*
X0024799Y0028669D01*
X0024756Y0029168D02*
X0014852Y0029168D01*
X0014928Y0029666D02*
X0024680Y0029666D01*
X0024546Y0030165D02*
X0015062Y0030165D01*
X0015262Y0030663D02*
X0024346Y0030663D01*
X0024104Y0031162D02*
X0015504Y0031162D01*
X0015853Y0031660D02*
X0023754Y0031660D01*
X0023307Y0032159D02*
X0016300Y0032159D01*
X0016888Y0032657D02*
X0022719Y0032657D01*
X0021859Y0033156D02*
X0017749Y0033156D01*
X0017530Y0024183D02*
X0022078Y0024183D01*
X0020558Y0023684D02*
X0019050Y0023684D01*
X0515591Y0028618D02*
X0515667Y0029486D01*
X0515893Y0030328D01*
X0516261Y0031118D01*
X0516761Y0031832D01*
X0517377Y0032448D01*
X0518091Y0032948D01*
X0518881Y0033317D01*
X0519723Y0033542D01*
X0520591Y0033618D01*
X0521460Y0033542D01*
X0522301Y0033317D01*
X0523091Y0032948D01*
X0523805Y0032448D01*
X0524422Y0031832D01*
X0524921Y0031118D01*
X0525290Y0030328D01*
X0525515Y0029486D01*
X0525591Y0028618D01*
X0525515Y0027750D01*
X0525290Y0026908D01*
X0524921Y0026118D01*
X0524422Y0025404D01*
X0523805Y0024788D01*
X0523091Y0024288D01*
X0522301Y0023920D01*
X0521460Y0023694D01*
X0520591Y0023618D01*
X0519723Y0023694D01*
X0518881Y0023920D01*
X0518091Y0024288D01*
X0517377Y0024788D01*
X0516761Y0025404D01*
X0516261Y0026118D01*
X0515893Y0026908D01*
X0515667Y0027750D01*
X0515591Y0028618D01*
X0515596Y0028669D02*
X0525587Y0028669D01*
X0525552Y0028171D02*
X0515630Y0028171D01*
X0515688Y0027672D02*
X0525495Y0027672D01*
X0525361Y0027174D02*
X0515822Y0027174D01*
X0516001Y0026675D02*
X0525181Y0026675D01*
X0524949Y0026177D02*
X0516234Y0026177D01*
X0516569Y0025678D02*
X0524613Y0025678D01*
X0524197Y0025180D02*
X0516986Y0025180D01*
X0517530Y0024681D02*
X0523653Y0024681D01*
X0522865Y0024183D02*
X0518317Y0024183D01*
X0519837Y0023684D02*
X0521345Y0023684D01*
X0525543Y0029168D02*
X0515639Y0029168D01*
X0515715Y0029666D02*
X0525467Y0029666D01*
X0525334Y0030165D02*
X0515849Y0030165D01*
X0516049Y0030663D02*
X0525134Y0030663D01*
X0524891Y0031162D02*
X0516292Y0031162D01*
X0516641Y0031660D02*
X0524542Y0031660D01*
X0524095Y0032159D02*
X0517088Y0032159D01*
X0517676Y0032657D02*
X0523507Y0032657D01*
X0522646Y0033156D02*
X0518536Y0033156D01*
X0522560Y0277555D02*
X0521692Y0277631D01*
X0520850Y0277857D01*
X0520060Y0278225D01*
X0519346Y0278725D01*
X0518730Y0279341D01*
X0518230Y0280055D01*
X0517861Y0280845D01*
X0517636Y0281687D01*
X0517560Y0282555D01*
X0517636Y0283423D01*
X0517861Y0284265D01*
X0518230Y0285055D01*
X0518730Y0285769D01*
X0519346Y0286385D01*
X0520060Y0286885D01*
X0520850Y0287254D01*
X0521692Y0287479D01*
X0522560Y0287555D01*
X0523428Y0287479D01*
X0524270Y0287254D01*
X0525060Y0286885D01*
X0525774Y0286385D01*
X0526390Y0285769D01*
X0526890Y0285055D01*
X0527258Y0284265D01*
X0527484Y0283423D01*
X0527560Y0282555D01*
X0527484Y0281687D01*
X0527258Y0280845D01*
X0526890Y0280055D01*
X0526390Y0279341D01*
X0525774Y0278725D01*
X0525060Y0278225D01*
X0524270Y0277857D01*
X0523428Y0277631D01*
X0522560Y0277555D01*
X0524416Y0277925D02*
X0520703Y0277925D01*
X0519777Y0278423D02*
X0525343Y0278423D01*
X0525971Y0278922D02*
X0519149Y0278922D01*
X0518674Y0279420D02*
X0526446Y0279420D01*
X0526795Y0279919D02*
X0518325Y0279919D01*
X0518061Y0280417D02*
X0527059Y0280417D01*
X0527277Y0280916D02*
X0517842Y0280916D01*
X0517709Y0281414D02*
X0527411Y0281414D01*
X0527504Y0281913D02*
X0517616Y0281913D01*
X0517572Y0282411D02*
X0527547Y0282411D01*
X0527529Y0282910D02*
X0517591Y0282910D01*
X0517634Y0283408D02*
X0527485Y0283408D01*
X0527354Y0283907D02*
X0517765Y0283907D01*
X0517927Y0284405D02*
X0527193Y0284405D01*
X0526960Y0284904D02*
X0518159Y0284904D01*
X0518473Y0285403D02*
X0526647Y0285403D01*
X0526258Y0285901D02*
X0518862Y0285901D01*
X0519366Y0286400D02*
X0525753Y0286400D01*
X0525032Y0286898D02*
X0520087Y0286898D01*
X0521383Y0287397D02*
X0523736Y0287397D01*
D14*
X0423999Y0060031D03*
D15*
X0311790Y0209931D03*
X0311740Y0246481D03*
X0223157Y0246481D03*
X0223207Y0209931D03*
X0095699Y0148422D03*
X0059099Y0148422D03*
X0059099Y0059840D03*
X0095699Y0059840D03*
D16*
X0102735Y0190617D03*
X0122578Y0190617D03*
X0142420Y0190617D03*
X0142420Y0220145D03*
X0122578Y0220145D03*
X0102735Y0220145D03*
X0340035Y0225717D03*
X0359878Y0225717D03*
X0379720Y0225717D03*
X0379720Y0255245D03*
X0359878Y0255245D03*
X0340035Y0255245D03*
D17*
X0439799Y0255245D03*
X0439799Y0240481D03*
X0439799Y0225717D03*
X0202499Y0220145D03*
X0202499Y0205381D03*
X0202499Y0190617D03*
D18*
X0382299Y0190368D03*
X0382299Y0182494D03*
X0263636Y0084981D03*
X0255762Y0084981D03*
M02*
