G75*
%MOIN*%
%OFA0B0*%
%FSLAX25Y25*%
%IPPOS*%
%LPD*%
%AMOC8*
5,1,8,0,0,1.08239X$1,22.5*
%
%ADD10C,0.00500*%
%ADD11C,0.00600*%
%ADD12C,0.01000*%
%ADD13C,0.00400*%
%ADD14C,0.00100*%
%ADD15R,0.05512X0.00787*%
%ADD16C,0.00300*%
%ADD17C,0.00200*%
%ADD18R,0.04500X0.02500*%
%ADD19R,0.16000X0.02500*%
%ADD20R,0.02000X0.40000*%
%ADD21R,0.03000X0.19000*%
%ADD22C,0.00800*%
%ADD23R,0.03000X0.01512*%
%ADD24R,0.02500X0.04500*%
%ADD25R,0.02500X0.16000*%
%ADD26R,0.40000X0.02000*%
%ADD27R,0.19000X0.03000*%
%ADD28R,0.01512X0.03000*%
%ADD29R,0.01756X0.05512*%
D10*
X0001300Y0035173D02*
X0037914Y0035173D01*
X0037914Y0159858D01*
X0037340Y0161584D02*
X0034337Y0161584D01*
X0035839Y0161584D02*
X0035839Y0166088D01*
X0034337Y0164586D01*
X0032736Y0166088D02*
X0029733Y0161584D01*
X0032736Y0161584D02*
X0029733Y0166088D01*
X0056799Y0161285D02*
X0056799Y0156781D01*
X0056799Y0159033D02*
X0058300Y0159033D01*
X0056799Y0161285D02*
X0059801Y0161285D01*
X0061403Y0159784D02*
X0062904Y0161285D01*
X0062904Y0156781D01*
X0061403Y0156781D02*
X0064405Y0156781D01*
X0092449Y0156481D02*
X0092449Y0160985D01*
X0095451Y0160985D01*
X0097053Y0160234D02*
X0097803Y0160985D01*
X0099305Y0160985D01*
X0100055Y0160234D01*
X0100055Y0159484D01*
X0097053Y0156481D01*
X0100055Y0156481D01*
X0093950Y0158733D02*
X0092449Y0158733D01*
X0115142Y0149423D02*
X0130756Y0149423D01*
X0130756Y0118139D01*
X0115142Y0118139D01*
X0115142Y0149423D01*
X0116610Y0151395D02*
X0129287Y0151395D01*
X0129287Y0170867D01*
X0116610Y0170867D01*
X0116610Y0151395D01*
X0132281Y0137551D02*
X0132281Y0129811D01*
X0147817Y0129811D01*
X0147817Y0137551D01*
X0132281Y0137551D01*
X0148579Y0137245D02*
X0157819Y0137245D01*
X0157819Y0156717D01*
X0148579Y0156717D01*
X0148579Y0137245D01*
X0151531Y0137251D02*
X0167067Y0137251D01*
X0167067Y0129511D01*
X0151531Y0129511D01*
X0151531Y0137251D01*
X0157829Y0137245D02*
X0167069Y0137245D01*
X0167069Y0156717D01*
X0157829Y0156717D01*
X0157829Y0137245D01*
X0167079Y0137230D02*
X0173819Y0137230D01*
X0173819Y0124632D01*
X0167079Y0124632D01*
X0167079Y0137230D01*
X0167067Y0129501D02*
X0151531Y0129501D01*
X0151531Y0121761D01*
X0167067Y0121761D01*
X0167067Y0129501D01*
X0192156Y0124974D02*
X0202542Y0124974D01*
X0204963Y0126051D02*
X0224435Y0126051D01*
X0224435Y0117311D01*
X0204963Y0117311D01*
X0204963Y0126051D01*
X0202542Y0118388D02*
X0192156Y0118388D01*
X0166069Y0111830D02*
X0159329Y0111830D01*
X0159329Y0099232D01*
X0166069Y0099232D01*
X0166069Y0111830D01*
X0159319Y0111830D02*
X0152579Y0111830D01*
X0152579Y0099232D01*
X0159319Y0099232D01*
X0159319Y0111830D01*
X0159329Y0099230D02*
X0166069Y0099230D01*
X0166069Y0086632D01*
X0159329Y0086632D01*
X0159329Y0099230D01*
X0156829Y0086617D02*
X0166069Y0086617D01*
X0166069Y0067145D01*
X0156829Y0067145D01*
X0156829Y0086617D01*
X0156819Y0086617D02*
X0147579Y0086617D01*
X0147579Y0067145D01*
X0156819Y0067145D01*
X0156819Y0086617D01*
X0154429Y0062767D02*
X0163169Y0062767D01*
X0163169Y0043295D01*
X0154429Y0043295D01*
X0154429Y0062767D01*
X0154369Y0051417D02*
X0145629Y0051417D01*
X0145629Y0031945D01*
X0154369Y0031945D01*
X0154369Y0051417D01*
X0145635Y0040451D02*
X0145635Y0031711D01*
X0126163Y0031711D01*
X0126163Y0040451D01*
X0145635Y0040451D01*
X0126135Y0040451D02*
X0126135Y0031711D01*
X0106663Y0031711D01*
X0106663Y0040451D01*
X0126135Y0040451D01*
X0106685Y0040451D02*
X0106685Y0031711D01*
X0087213Y0031711D01*
X0087213Y0040451D01*
X0106685Y0040451D01*
X0085792Y0039374D02*
X0075406Y0039374D01*
X0075406Y0032788D02*
X0085792Y0032788D01*
X0177149Y0039032D02*
X0177899Y0038281D01*
X0179401Y0038281D01*
X0180151Y0039032D01*
X0180151Y0042034D01*
X0179401Y0042785D01*
X0177899Y0042785D01*
X0177149Y0042034D01*
X0177149Y0039032D01*
X0181753Y0039782D02*
X0184755Y0042785D01*
X0186357Y0041284D02*
X0187858Y0042785D01*
X0187858Y0038281D01*
X0186357Y0038281D02*
X0189359Y0038281D01*
X0184755Y0038281D02*
X0182503Y0040533D01*
X0181753Y0042785D02*
X0181753Y0038281D01*
X0203663Y0036181D02*
X0206665Y0031678D01*
X0208267Y0031678D02*
X0211269Y0034680D01*
X0211269Y0035431D01*
X0210518Y0036181D01*
X0209017Y0036181D01*
X0208267Y0035431D01*
X0206665Y0036181D02*
X0203663Y0031678D01*
X0208267Y0031678D02*
X0211269Y0031678D01*
X0215329Y0046613D02*
X0223069Y0046613D01*
X0223069Y0062149D01*
X0215329Y0062149D01*
X0215329Y0046613D01*
X0251729Y0050613D02*
X0251729Y0066149D01*
X0259469Y0066149D01*
X0259469Y0050613D01*
X0251729Y0050613D01*
X0262229Y0050713D02*
X0269969Y0050713D01*
X0269969Y0066249D01*
X0262229Y0066249D01*
X0262229Y0050713D01*
X0273063Y0047861D02*
X0273063Y0056601D01*
X0292535Y0056601D01*
X0292535Y0047861D01*
X0273063Y0047861D01*
X0273029Y0056495D02*
X0281769Y0056495D01*
X0281769Y0075967D01*
X0273029Y0075967D01*
X0273029Y0056495D01*
X0268235Y0072011D02*
X0248763Y0072011D01*
X0248763Y0080751D01*
X0268235Y0080751D01*
X0268235Y0072011D01*
X0274079Y0078295D02*
X0282819Y0078295D01*
X0282819Y0097767D01*
X0274079Y0097767D01*
X0274079Y0078295D01*
X0274079Y0097845D02*
X0282819Y0097845D01*
X0282819Y0117317D01*
X0274079Y0117317D01*
X0274079Y0097845D01*
X0282835Y0117311D02*
X0263363Y0117311D01*
X0263363Y0126051D01*
X0282835Y0126051D01*
X0282835Y0117311D01*
X0263335Y0117311D02*
X0263335Y0126051D01*
X0243863Y0126051D01*
X0243863Y0117311D01*
X0263335Y0117311D01*
X0243885Y0117311D02*
X0243885Y0126051D01*
X0224413Y0126051D01*
X0224413Y0117311D01*
X0243885Y0117311D01*
X0223019Y0109830D02*
X0216279Y0109830D01*
X0216279Y0097232D01*
X0223019Y0097232D01*
X0223019Y0109830D01*
X0226929Y0104999D02*
X0234669Y0104999D01*
X0234669Y0089463D01*
X0226929Y0089463D01*
X0226929Y0104999D01*
X0226179Y0089417D02*
X0235419Y0089417D01*
X0235419Y0069945D01*
X0226179Y0069945D01*
X0226179Y0089417D01*
X0226169Y0089417D02*
X0216929Y0089417D01*
X0216929Y0069945D01*
X0226169Y0069945D01*
X0226169Y0089417D01*
X0226929Y0134595D02*
X0236169Y0134595D01*
X0236169Y0154067D01*
X0226929Y0154067D01*
X0226929Y0134595D01*
X0236179Y0134595D02*
X0245419Y0134595D01*
X0245419Y0154067D01*
X0236179Y0154067D01*
X0236179Y0134595D01*
X0236979Y0154063D02*
X0236979Y0169599D01*
X0244719Y0169599D01*
X0244719Y0154063D01*
X0236979Y0154063D01*
X0231619Y0163832D02*
X0224879Y0163832D01*
X0224879Y0176430D01*
X0231619Y0176430D01*
X0231619Y0163832D01*
X0251581Y0182761D02*
X0251581Y0190501D01*
X0267117Y0190501D01*
X0267117Y0182761D01*
X0251581Y0182761D01*
X0267113Y0181761D02*
X0267113Y0190501D01*
X0286585Y0190501D01*
X0286585Y0181761D01*
X0267113Y0181761D01*
X0286613Y0181761D02*
X0286613Y0190501D01*
X0306085Y0190501D01*
X0306085Y0181761D01*
X0286613Y0181761D01*
X0306113Y0180361D02*
X0306113Y0189101D01*
X0325585Y0189101D01*
X0325585Y0180361D01*
X0306113Y0180361D01*
X0320879Y0179199D02*
X0328619Y0179199D01*
X0328619Y0163663D01*
X0320879Y0163663D01*
X0320879Y0179199D01*
X0325563Y0180361D02*
X0325563Y0189101D01*
X0345035Y0189101D01*
X0345035Y0180361D01*
X0325563Y0180361D01*
X0328107Y0197974D02*
X0328107Y0213588D01*
X0359391Y0213588D01*
X0359391Y0197974D01*
X0328107Y0197974D01*
X0365163Y0199393D02*
X0365163Y0212070D01*
X0384635Y0212070D01*
X0384635Y0199393D01*
X0365163Y0199393D01*
X0365129Y0193767D02*
X0373869Y0193767D01*
X0373869Y0174295D01*
X0365129Y0174295D01*
X0365129Y0193767D01*
X0386679Y0198117D02*
X0395419Y0198117D01*
X0395419Y0178645D01*
X0386679Y0178645D01*
X0386679Y0198117D01*
X0387979Y0174399D02*
X0395719Y0174399D01*
X0395719Y0158863D01*
X0387979Y0158863D01*
X0387979Y0174399D01*
X0372519Y0165380D02*
X0372519Y0152782D01*
X0365779Y0152782D01*
X0365779Y0165380D01*
X0372519Y0165380D01*
X0387929Y0158799D02*
X0395669Y0158799D01*
X0395669Y0143263D01*
X0387929Y0143263D01*
X0387929Y0158799D01*
X0381398Y0148751D02*
X0368800Y0148751D01*
X0368800Y0142011D01*
X0381398Y0142011D01*
X0381398Y0148751D01*
X0380329Y0138649D02*
X0388069Y0138649D01*
X0388069Y0123113D01*
X0380329Y0123113D01*
X0380329Y0138649D01*
X0388079Y0138649D02*
X0395819Y0138649D01*
X0395819Y0123113D01*
X0388079Y0123113D01*
X0388079Y0138649D01*
X0395850Y0129851D02*
X0408448Y0129851D01*
X0408448Y0123111D01*
X0395850Y0123111D01*
X0395850Y0129851D01*
X0343269Y0121717D02*
X0343269Y0102245D01*
X0334529Y0102245D01*
X0334529Y0121717D01*
X0343269Y0121717D01*
X0342167Y0121811D02*
X0326631Y0121811D01*
X0326631Y0129551D01*
X0342167Y0129551D01*
X0342167Y0121811D01*
X0334569Y0121717D02*
X0325329Y0121717D01*
X0325329Y0102245D01*
X0334569Y0102245D01*
X0334569Y0121717D01*
X0341679Y0093199D02*
X0349419Y0093199D01*
X0349419Y0077663D01*
X0341679Y0077663D01*
X0341679Y0093199D01*
X0341679Y0077649D02*
X0349419Y0077649D01*
X0349419Y0062113D01*
X0341679Y0062113D01*
X0341679Y0077649D01*
X0384650Y0084011D02*
X0384650Y0090751D01*
X0397248Y0090751D01*
X0397248Y0084011D01*
X0384650Y0084011D01*
X0397279Y0090799D02*
X0397279Y0075263D01*
X0405019Y0075263D01*
X0405019Y0090799D01*
X0397279Y0090799D01*
X0405029Y0090799D02*
X0412769Y0090799D01*
X0412769Y0075263D01*
X0405029Y0075263D01*
X0405029Y0090799D01*
X0433556Y0072224D02*
X0433556Y0061838D01*
X0439029Y0058530D02*
X0445769Y0058530D01*
X0445769Y0045932D01*
X0439029Y0045932D01*
X0439029Y0058530D01*
X0441079Y0059782D02*
X0441079Y0072380D01*
X0447819Y0072380D01*
X0447819Y0059782D01*
X0441079Y0059782D01*
X0440142Y0061838D02*
X0440142Y0072224D01*
X0452179Y0070882D02*
X0452179Y0083480D01*
X0458919Y0083480D01*
X0458919Y0070882D01*
X0452179Y0070882D01*
X0458929Y0067813D02*
X0466669Y0067813D01*
X0466669Y0083349D01*
X0458929Y0083349D01*
X0458929Y0067813D01*
X0466679Y0070649D02*
X0474419Y0070649D01*
X0474419Y0055113D01*
X0466679Y0055113D01*
X0466679Y0070649D01*
X0466681Y0070661D02*
X0466681Y0078401D01*
X0482217Y0078401D01*
X0482217Y0070661D01*
X0466681Y0070661D01*
X0474431Y0062851D02*
X0489967Y0062851D01*
X0489967Y0055111D01*
X0474431Y0055111D01*
X0474431Y0062851D01*
X0479167Y0053301D02*
X0463631Y0053301D01*
X0463631Y0045561D01*
X0479167Y0045561D01*
X0479167Y0053301D01*
X0437842Y0052174D02*
X0427456Y0052174D01*
X0427456Y0045588D02*
X0437842Y0045588D01*
X0410775Y0060031D02*
X0410777Y0060168D01*
X0410783Y0060306D01*
X0410793Y0060443D01*
X0410807Y0060579D01*
X0410825Y0060716D01*
X0410847Y0060851D01*
X0410873Y0060986D01*
X0410902Y0061120D01*
X0410936Y0061254D01*
X0410973Y0061386D01*
X0411015Y0061517D01*
X0411060Y0061647D01*
X0411109Y0061775D01*
X0411161Y0061902D01*
X0411218Y0062027D01*
X0411277Y0062151D01*
X0411341Y0062273D01*
X0411408Y0062393D01*
X0411478Y0062511D01*
X0411552Y0062627D01*
X0411629Y0062741D01*
X0411710Y0062852D01*
X0411793Y0062961D01*
X0411880Y0063068D01*
X0411970Y0063171D01*
X0412063Y0063273D01*
X0412159Y0063371D01*
X0412257Y0063467D01*
X0412359Y0063560D01*
X0412462Y0063650D01*
X0412569Y0063737D01*
X0412678Y0063820D01*
X0412789Y0063901D01*
X0412903Y0063978D01*
X0413019Y0064052D01*
X0413137Y0064122D01*
X0413257Y0064189D01*
X0413379Y0064253D01*
X0413503Y0064312D01*
X0413628Y0064369D01*
X0413755Y0064421D01*
X0413883Y0064470D01*
X0414013Y0064515D01*
X0414144Y0064557D01*
X0414276Y0064594D01*
X0414410Y0064628D01*
X0414544Y0064657D01*
X0414679Y0064683D01*
X0414814Y0064705D01*
X0414951Y0064723D01*
X0415087Y0064737D01*
X0415224Y0064747D01*
X0415362Y0064753D01*
X0415499Y0064755D01*
X0415636Y0064753D01*
X0415774Y0064747D01*
X0415911Y0064737D01*
X0416047Y0064723D01*
X0416184Y0064705D01*
X0416319Y0064683D01*
X0416454Y0064657D01*
X0416588Y0064628D01*
X0416722Y0064594D01*
X0416854Y0064557D01*
X0416985Y0064515D01*
X0417115Y0064470D01*
X0417243Y0064421D01*
X0417370Y0064369D01*
X0417495Y0064312D01*
X0417619Y0064253D01*
X0417741Y0064189D01*
X0417861Y0064122D01*
X0417979Y0064052D01*
X0418095Y0063978D01*
X0418209Y0063901D01*
X0418320Y0063820D01*
X0418429Y0063737D01*
X0418536Y0063650D01*
X0418639Y0063560D01*
X0418741Y0063467D01*
X0418839Y0063371D01*
X0418935Y0063273D01*
X0419028Y0063171D01*
X0419118Y0063068D01*
X0419205Y0062961D01*
X0419288Y0062852D01*
X0419369Y0062741D01*
X0419446Y0062627D01*
X0419520Y0062511D01*
X0419590Y0062393D01*
X0419657Y0062273D01*
X0419721Y0062151D01*
X0419780Y0062027D01*
X0419837Y0061902D01*
X0419889Y0061775D01*
X0419938Y0061647D01*
X0419983Y0061517D01*
X0420025Y0061386D01*
X0420062Y0061254D01*
X0420096Y0061120D01*
X0420125Y0060986D01*
X0420151Y0060851D01*
X0420173Y0060716D01*
X0420191Y0060579D01*
X0420205Y0060443D01*
X0420215Y0060306D01*
X0420221Y0060168D01*
X0420223Y0060031D01*
X0420221Y0059894D01*
X0420215Y0059756D01*
X0420205Y0059619D01*
X0420191Y0059483D01*
X0420173Y0059346D01*
X0420151Y0059211D01*
X0420125Y0059076D01*
X0420096Y0058942D01*
X0420062Y0058808D01*
X0420025Y0058676D01*
X0419983Y0058545D01*
X0419938Y0058415D01*
X0419889Y0058287D01*
X0419837Y0058160D01*
X0419780Y0058035D01*
X0419721Y0057911D01*
X0419657Y0057789D01*
X0419590Y0057669D01*
X0419520Y0057551D01*
X0419446Y0057435D01*
X0419369Y0057321D01*
X0419288Y0057210D01*
X0419205Y0057101D01*
X0419118Y0056994D01*
X0419028Y0056891D01*
X0418935Y0056789D01*
X0418839Y0056691D01*
X0418741Y0056595D01*
X0418639Y0056502D01*
X0418536Y0056412D01*
X0418429Y0056325D01*
X0418320Y0056242D01*
X0418209Y0056161D01*
X0418095Y0056084D01*
X0417979Y0056010D01*
X0417861Y0055940D01*
X0417741Y0055873D01*
X0417619Y0055809D01*
X0417495Y0055750D01*
X0417370Y0055693D01*
X0417243Y0055641D01*
X0417115Y0055592D01*
X0416985Y0055547D01*
X0416854Y0055505D01*
X0416722Y0055468D01*
X0416588Y0055434D01*
X0416454Y0055405D01*
X0416319Y0055379D01*
X0416184Y0055357D01*
X0416047Y0055339D01*
X0415911Y0055325D01*
X0415774Y0055315D01*
X0415636Y0055309D01*
X0415499Y0055307D01*
X0415362Y0055309D01*
X0415224Y0055315D01*
X0415087Y0055325D01*
X0414951Y0055339D01*
X0414814Y0055357D01*
X0414679Y0055379D01*
X0414544Y0055405D01*
X0414410Y0055434D01*
X0414276Y0055468D01*
X0414144Y0055505D01*
X0414013Y0055547D01*
X0413883Y0055592D01*
X0413755Y0055641D01*
X0413628Y0055693D01*
X0413503Y0055750D01*
X0413379Y0055809D01*
X0413257Y0055873D01*
X0413137Y0055940D01*
X0413019Y0056010D01*
X0412903Y0056084D01*
X0412789Y0056161D01*
X0412678Y0056242D01*
X0412569Y0056325D01*
X0412462Y0056412D01*
X0412359Y0056502D01*
X0412257Y0056595D01*
X0412159Y0056691D01*
X0412063Y0056789D01*
X0411970Y0056891D01*
X0411880Y0056994D01*
X0411793Y0057101D01*
X0411710Y0057210D01*
X0411629Y0057321D01*
X0411552Y0057435D01*
X0411478Y0057551D01*
X0411408Y0057669D01*
X0411341Y0057789D01*
X0411277Y0057911D01*
X0411218Y0058035D01*
X0411161Y0058160D01*
X0411109Y0058287D01*
X0411060Y0058415D01*
X0411015Y0058545D01*
X0410973Y0058676D01*
X0410936Y0058808D01*
X0410902Y0058942D01*
X0410873Y0059076D01*
X0410847Y0059211D01*
X0410825Y0059346D01*
X0410807Y0059483D01*
X0410793Y0059619D01*
X0410783Y0059756D01*
X0410777Y0059894D01*
X0410775Y0060031D01*
X0451263Y0083511D02*
X0451263Y0092751D01*
X0470735Y0092751D01*
X0470735Y0083511D01*
X0451263Y0083511D01*
X0446100Y0092761D02*
X0446100Y0099501D01*
X0458698Y0099501D01*
X0458698Y0092761D01*
X0446100Y0092761D01*
X0458700Y0092761D02*
X0458700Y0099501D01*
X0471298Y0099501D01*
X0471298Y0092761D01*
X0458700Y0092761D01*
X0471329Y0100399D02*
X0479069Y0100399D01*
X0479069Y0084863D01*
X0471329Y0084863D01*
X0471329Y0100399D01*
X0479079Y0100367D02*
X0488319Y0100367D01*
X0488319Y0080895D01*
X0479079Y0080895D01*
X0479079Y0100367D01*
X0488329Y0100399D02*
X0496069Y0100399D01*
X0496069Y0084863D01*
X0488329Y0084863D01*
X0488329Y0100399D01*
X0496079Y0096649D02*
X0503819Y0096649D01*
X0503819Y0081113D01*
X0496079Y0081113D01*
X0496079Y0096649D01*
X0494395Y0111331D02*
X0494395Y0112832D01*
X0494395Y0112082D02*
X0498899Y0112082D01*
X0498899Y0112832D02*
X0498899Y0111331D01*
X0498148Y0114400D02*
X0495146Y0114400D01*
X0494395Y0115151D01*
X0494395Y0116652D01*
X0495146Y0117403D01*
X0495896Y0119004D02*
X0494395Y0120506D01*
X0498899Y0120506D01*
X0498899Y0122007D02*
X0498899Y0119004D01*
X0498148Y0117403D02*
X0498899Y0116652D01*
X0498899Y0115151D01*
X0498148Y0114400D01*
X0498899Y0123608D02*
X0498899Y0126611D01*
X0498899Y0125110D02*
X0494395Y0125110D01*
X0495896Y0123608D01*
X0495681Y0132261D02*
X0495681Y0140001D01*
X0511217Y0140001D01*
X0511217Y0132261D01*
X0495681Y0132261D01*
X0498600Y0140061D02*
X0498600Y0146801D01*
X0511198Y0146801D01*
X0511198Y0140061D01*
X0498600Y0140061D01*
X0495681Y0146811D02*
X0495681Y0154551D01*
X0511217Y0154551D01*
X0511217Y0146811D01*
X0495681Y0146811D01*
X0499048Y0154561D02*
X0486450Y0154561D01*
X0486450Y0161301D01*
X0499048Y0161301D01*
X0499048Y0154561D01*
X0487641Y0161311D02*
X0487641Y0169051D01*
X0510657Y0169051D01*
X0510657Y0161311D01*
X0487641Y0161311D01*
X0486069Y0161613D02*
X0478329Y0161613D01*
X0478329Y0177149D01*
X0486069Y0177149D01*
X0486069Y0161613D01*
X0478369Y0161613D02*
X0470629Y0161613D01*
X0470629Y0177149D01*
X0478369Y0177149D01*
X0478369Y0161613D01*
X0470648Y0164901D02*
X0470648Y0158161D01*
X0458050Y0158161D01*
X0458050Y0164901D01*
X0470648Y0164901D01*
X0470619Y0164932D02*
X0463879Y0164932D01*
X0463879Y0177530D01*
X0470619Y0177530D01*
X0470619Y0164932D01*
X0463919Y0164932D02*
X0457179Y0164932D01*
X0457179Y0177530D01*
X0463919Y0177530D01*
X0463919Y0164932D01*
X0457219Y0170830D02*
X0450479Y0170830D01*
X0450479Y0158232D01*
X0457219Y0158232D01*
X0457219Y0170830D01*
X0450469Y0177717D02*
X0441229Y0177717D01*
X0441229Y0158245D01*
X0450469Y0158245D01*
X0450469Y0177717D01*
X0460379Y0185513D02*
X0460379Y0201049D01*
X0468119Y0201049D01*
X0468119Y0185513D01*
X0460379Y0185513D01*
X0468129Y0181545D02*
X0477369Y0181545D01*
X0477369Y0201017D01*
X0468129Y0201017D01*
X0468129Y0181545D01*
X0487631Y0176851D02*
X0487631Y0169111D01*
X0503167Y0169111D01*
X0503167Y0176851D01*
X0487631Y0176851D01*
X0504729Y0180345D02*
X0513969Y0180345D01*
X0513969Y0199817D01*
X0504729Y0199817D01*
X0504729Y0180345D01*
X0460869Y0236245D02*
X0451629Y0236245D01*
X0451629Y0255717D01*
X0460869Y0255717D01*
X0460869Y0236245D01*
X0463080Y0272731D02*
X0466082Y0275734D01*
X0466082Y0276484D01*
X0465332Y0277235D01*
X0463831Y0277235D01*
X0463080Y0276484D01*
X0461479Y0277235D02*
X0458476Y0272731D01*
X0456124Y0272731D02*
X0456124Y0277235D01*
X0453872Y0274983D01*
X0456875Y0274983D01*
X0452271Y0273482D02*
X0451520Y0272731D01*
X0450019Y0272731D01*
X0449268Y0273482D01*
X0452271Y0276484D01*
X0452271Y0273482D01*
X0452271Y0276484D02*
X0451520Y0277235D01*
X0450019Y0277235D01*
X0449268Y0276484D01*
X0449268Y0273482D01*
X0447700Y0272731D02*
X0446199Y0274232D01*
X0446199Y0275734D01*
X0447700Y0277235D01*
X0446199Y0280231D02*
X0449201Y0280231D01*
X0450803Y0280231D02*
X0453805Y0280231D01*
X0455407Y0280231D02*
X0458409Y0280231D01*
X0455407Y0280231D02*
X0455407Y0280982D01*
X0458409Y0283984D01*
X0458409Y0284735D01*
X0455407Y0284735D01*
X0453805Y0284735D02*
X0450803Y0284735D01*
X0450803Y0280231D01*
X0450803Y0282483D02*
X0452304Y0282483D01*
X0449201Y0284735D02*
X0446199Y0284735D01*
X0446199Y0280231D01*
X0446199Y0282483D02*
X0447700Y0282483D01*
X0464615Y0280231D02*
X0466866Y0280231D01*
X0467617Y0280982D01*
X0467617Y0283984D01*
X0466866Y0284735D01*
X0464615Y0284735D01*
X0464615Y0280231D01*
X0469218Y0280231D02*
X0470720Y0280231D01*
X0469969Y0280231D02*
X0469969Y0284735D01*
X0469218Y0284735D02*
X0470720Y0284735D01*
X0472288Y0284735D02*
X0474540Y0284735D01*
X0475290Y0283984D01*
X0475290Y0283234D01*
X0474540Y0282483D01*
X0472288Y0282483D01*
X0474540Y0282483D02*
X0475290Y0281732D01*
X0475290Y0280982D01*
X0474540Y0280231D01*
X0472288Y0280231D01*
X0472288Y0284735D01*
X0473038Y0277235D02*
X0472288Y0276484D01*
X0473038Y0277235D02*
X0474540Y0277235D01*
X0475290Y0276484D01*
X0475290Y0275734D01*
X0472288Y0272731D01*
X0475290Y0272731D01*
X0476892Y0272731D02*
X0479894Y0272731D01*
X0478393Y0272731D02*
X0478393Y0277235D01*
X0476892Y0275734D01*
X0470686Y0276484D02*
X0470686Y0273482D01*
X0469936Y0272731D01*
X0468434Y0272731D01*
X0467684Y0273482D01*
X0470686Y0276484D01*
X0469936Y0277235D01*
X0468434Y0277235D01*
X0467684Y0276484D01*
X0467684Y0273482D01*
X0466082Y0272731D02*
X0463080Y0272731D01*
X0481496Y0280231D02*
X0481496Y0283234D01*
X0482997Y0284735D01*
X0484498Y0283234D01*
X0484498Y0280231D01*
X0486099Y0280231D02*
X0486099Y0284735D01*
X0489102Y0284735D01*
X0490703Y0284735D02*
X0490703Y0280231D01*
X0493706Y0280231D01*
X0495307Y0280982D02*
X0496058Y0280231D01*
X0497559Y0280231D01*
X0498310Y0280982D01*
X0498310Y0281732D01*
X0497559Y0282483D01*
X0496809Y0282483D01*
X0497559Y0282483D02*
X0498310Y0283234D01*
X0498310Y0283984D01*
X0497559Y0284735D01*
X0496058Y0284735D01*
X0495307Y0283984D01*
X0493706Y0284735D02*
X0490703Y0284735D01*
X0490703Y0282483D02*
X0492205Y0282483D01*
X0487601Y0282483D02*
X0486099Y0282483D01*
X0484498Y0282483D02*
X0481496Y0282483D01*
X0489936Y0275734D02*
X0491437Y0277235D01*
X0491437Y0272731D01*
X0489936Y0272731D02*
X0492939Y0272731D01*
X0494540Y0272731D02*
X0496792Y0272731D01*
X0497543Y0273482D01*
X0497543Y0274232D01*
X0496792Y0274983D01*
X0494540Y0274983D01*
X0494540Y0272731D02*
X0494540Y0277235D01*
X0496792Y0277235D01*
X0497543Y0276484D01*
X0497543Y0275734D01*
X0496792Y0274983D01*
X0499144Y0276484D02*
X0499895Y0277235D01*
X0501396Y0277235D01*
X0502147Y0276484D01*
X0502147Y0275734D01*
X0499144Y0272731D01*
X0502147Y0272731D01*
X0503748Y0272731D02*
X0505249Y0274232D01*
X0505249Y0275734D01*
X0503748Y0277235D01*
X0488351Y0275734D02*
X0487601Y0275734D01*
X0486099Y0274232D01*
X0486099Y0272731D02*
X0486099Y0275734D01*
X0327405Y0261883D02*
X0324403Y0261883D01*
X0326655Y0264135D01*
X0326655Y0259631D01*
X0321300Y0261883D02*
X0319799Y0261883D01*
X0319799Y0259631D02*
X0319799Y0264135D01*
X0322801Y0264135D01*
X0322751Y0227185D02*
X0319749Y0227185D01*
X0319749Y0222681D01*
X0319749Y0224933D02*
X0321250Y0224933D01*
X0324353Y0224933D02*
X0325854Y0225684D01*
X0326605Y0225684D01*
X0327355Y0224933D01*
X0327355Y0223432D01*
X0326605Y0222681D01*
X0325103Y0222681D01*
X0324353Y0223432D01*
X0324353Y0224933D02*
X0324353Y0227185D01*
X0327355Y0227185D01*
X0174069Y0177880D02*
X0174069Y0165282D01*
X0167329Y0165282D01*
X0167329Y0177880D01*
X0174069Y0177880D01*
X0167319Y0177880D02*
X0160579Y0177880D01*
X0160579Y0165282D01*
X0167319Y0165282D01*
X0167319Y0177880D01*
X0167329Y0165280D02*
X0174069Y0165280D01*
X0174069Y0152682D01*
X0167329Y0152682D01*
X0167329Y0165280D01*
D11*
X0187849Y0172781D02*
X0191099Y0170781D01*
X0191099Y0172781D01*
X0187849Y0172781D01*
X0188284Y0172513D02*
X0191099Y0172513D01*
X0191099Y0171915D02*
X0189256Y0171915D01*
X0190229Y0171316D02*
X0191099Y0171316D01*
X0185099Y0175631D02*
X0198899Y0175631D01*
X0198901Y0175562D01*
X0198907Y0175494D01*
X0198917Y0175426D01*
X0198930Y0175359D01*
X0198948Y0175293D01*
X0198969Y0175228D01*
X0198994Y0175164D01*
X0199022Y0175102D01*
X0199054Y0175041D01*
X0199089Y0174982D01*
X0199128Y0174926D01*
X0199170Y0174871D01*
X0199215Y0174820D01*
X0199263Y0174770D01*
X0199313Y0174724D01*
X0199366Y0174681D01*
X0199422Y0174640D01*
X0199479Y0174603D01*
X0199539Y0174570D01*
X0199601Y0174539D01*
X0199664Y0174513D01*
X0199728Y0174490D01*
X0199794Y0174470D01*
X0199861Y0174455D01*
X0199928Y0174443D01*
X0199996Y0174435D01*
X0200065Y0174431D01*
X0200133Y0174431D01*
X0200202Y0174435D01*
X0200270Y0174443D01*
X0200337Y0174455D01*
X0200404Y0174470D01*
X0200470Y0174490D01*
X0200534Y0174513D01*
X0200597Y0174539D01*
X0200659Y0174570D01*
X0200719Y0174603D01*
X0200776Y0174640D01*
X0200832Y0174681D01*
X0200885Y0174724D01*
X0200935Y0174770D01*
X0200983Y0174820D01*
X0201028Y0174871D01*
X0201070Y0174926D01*
X0201109Y0174982D01*
X0201144Y0175041D01*
X0201176Y0175102D01*
X0201204Y0175164D01*
X0201229Y0175228D01*
X0201250Y0175293D01*
X0201268Y0175359D01*
X0201281Y0175426D01*
X0201291Y0175494D01*
X0201297Y0175562D01*
X0201299Y0175631D01*
X0215099Y0175631D01*
X0216318Y0192215D02*
X0216318Y0205931D01*
X0222499Y0203681D02*
X0223499Y0203681D01*
X0223499Y0197431D01*
X0224999Y0197431D01*
X0224999Y0199931D01*
X0244999Y0199931D01*
X0244999Y0195431D01*
X0224999Y0195431D01*
X0222499Y0195431D01*
X0222499Y0203681D01*
X0224999Y0197431D02*
X0224999Y0195431D01*
X0216318Y0192215D02*
X0318680Y0192215D01*
X0318680Y0205931D01*
X0312499Y0203681D02*
X0311499Y0203681D01*
X0311499Y0197431D01*
X0309999Y0197431D01*
X0309999Y0195431D02*
X0312499Y0195431D01*
X0312499Y0203681D01*
X0309999Y0199931D02*
X0289999Y0199931D01*
X0289999Y0195431D01*
X0309999Y0195431D01*
X0309999Y0199931D01*
X0337162Y0196184D02*
X0345036Y0196184D01*
X0345036Y0190278D02*
X0337162Y0190278D01*
X0351399Y0185481D02*
X0351399Y0182281D01*
X0354899Y0182281D01*
X0359699Y0182281D02*
X0363199Y0182281D01*
X0363199Y0183881D01*
X0363199Y0185481D01*
X0361998Y0185181D02*
X0361994Y0185113D01*
X0361995Y0185044D01*
X0361999Y0184976D01*
X0362007Y0184908D01*
X0362018Y0184840D01*
X0362034Y0184773D01*
X0362054Y0184707D01*
X0362077Y0184643D01*
X0362104Y0184580D01*
X0362134Y0184518D01*
X0362168Y0184459D01*
X0362205Y0184401D01*
X0362246Y0184346D01*
X0362289Y0184293D01*
X0362336Y0184242D01*
X0362385Y0184195D01*
X0362437Y0184150D01*
X0362492Y0184108D01*
X0362548Y0184069D01*
X0362607Y0184034D01*
X0362668Y0184002D01*
X0362730Y0183974D01*
X0362795Y0183949D01*
X0362860Y0183928D01*
X0362926Y0183911D01*
X0362994Y0183898D01*
X0363061Y0183888D01*
X0363130Y0183883D01*
X0363198Y0183881D01*
X0358899Y0187881D02*
X0355699Y0187881D01*
X0355699Y0174581D02*
X0358899Y0174581D01*
X0363199Y0172181D02*
X0363199Y0170581D01*
X0363199Y0168981D01*
X0359699Y0168981D01*
X0361998Y0171881D02*
X0361994Y0171813D01*
X0361995Y0171744D01*
X0361999Y0171676D01*
X0362007Y0171608D01*
X0362018Y0171540D01*
X0362034Y0171473D01*
X0362054Y0171407D01*
X0362077Y0171343D01*
X0362104Y0171280D01*
X0362134Y0171218D01*
X0362168Y0171159D01*
X0362205Y0171101D01*
X0362246Y0171046D01*
X0362289Y0170993D01*
X0362336Y0170942D01*
X0362385Y0170895D01*
X0362437Y0170850D01*
X0362492Y0170808D01*
X0362548Y0170769D01*
X0362607Y0170734D01*
X0362668Y0170702D01*
X0362730Y0170674D01*
X0362795Y0170649D01*
X0362860Y0170628D01*
X0362926Y0170611D01*
X0362994Y0170598D01*
X0363061Y0170588D01*
X0363130Y0170583D01*
X0363198Y0170581D01*
X0354899Y0168981D02*
X0351399Y0168981D01*
X0351399Y0172181D01*
X0373649Y0159131D02*
X0373649Y0150231D01*
X0362699Y0154281D02*
X0323699Y0154281D01*
X0323699Y0149031D01*
X0323768Y0149029D01*
X0323836Y0149023D01*
X0323904Y0149013D01*
X0323971Y0149000D01*
X0324037Y0148982D01*
X0324102Y0148961D01*
X0324166Y0148936D01*
X0324228Y0148908D01*
X0324289Y0148876D01*
X0324348Y0148841D01*
X0324404Y0148802D01*
X0324459Y0148760D01*
X0324510Y0148715D01*
X0324560Y0148667D01*
X0324606Y0148617D01*
X0324649Y0148564D01*
X0324690Y0148508D01*
X0324727Y0148451D01*
X0324760Y0148391D01*
X0324791Y0148329D01*
X0324817Y0148266D01*
X0324840Y0148202D01*
X0324860Y0148136D01*
X0324875Y0148069D01*
X0324887Y0148002D01*
X0324895Y0147934D01*
X0324899Y0147865D01*
X0324899Y0147797D01*
X0324895Y0147728D01*
X0324887Y0147660D01*
X0324875Y0147593D01*
X0324860Y0147526D01*
X0324840Y0147460D01*
X0324817Y0147396D01*
X0324791Y0147333D01*
X0324760Y0147271D01*
X0324727Y0147211D01*
X0324690Y0147154D01*
X0324649Y0147098D01*
X0324606Y0147045D01*
X0324560Y0146995D01*
X0324510Y0146947D01*
X0324459Y0146902D01*
X0324404Y0146860D01*
X0324348Y0146821D01*
X0324289Y0146786D01*
X0324228Y0146754D01*
X0324166Y0146726D01*
X0324102Y0146701D01*
X0324037Y0146680D01*
X0323971Y0146662D01*
X0323904Y0146649D01*
X0323836Y0146639D01*
X0323768Y0146633D01*
X0323699Y0146631D01*
X0323699Y0141381D01*
X0362699Y0141381D01*
X0362699Y0154281D01*
X0378349Y0161331D02*
X0380949Y0161331D01*
X0385649Y0161331D02*
X0385649Y0154531D01*
X0397137Y0155081D02*
X0397949Y0155081D01*
X0397137Y0155081D02*
X0397137Y0135881D01*
X0397949Y0135881D01*
X0407349Y0135881D02*
X0408161Y0135881D01*
X0408161Y0155081D01*
X0407349Y0155081D01*
X0409887Y0155081D02*
X0410699Y0155081D01*
X0409887Y0155081D02*
X0409887Y0135881D01*
X0410699Y0135881D01*
X0420099Y0135881D02*
X0420911Y0135881D01*
X0420911Y0155081D01*
X0420099Y0155081D01*
X0420099Y0162781D02*
X0420911Y0162781D01*
X0420911Y0181981D01*
X0420099Y0181981D01*
X0410699Y0181981D02*
X0409887Y0181981D01*
X0409887Y0162781D01*
X0410699Y0162781D01*
X0408161Y0162781D02*
X0407349Y0162781D01*
X0408161Y0162781D02*
X0408161Y0181981D01*
X0407349Y0181981D01*
X0397949Y0181981D02*
X0397137Y0181981D01*
X0397137Y0162781D01*
X0397949Y0162781D01*
X0447049Y0150131D02*
X0447049Y0146131D01*
X0451049Y0150131D01*
X0447049Y0150131D01*
X0447049Y0149770D02*
X0450688Y0149770D01*
X0450089Y0149171D02*
X0447049Y0149171D01*
X0447049Y0148573D02*
X0449491Y0148573D01*
X0448892Y0147974D02*
X0447049Y0147974D01*
X0447049Y0147376D02*
X0448294Y0147376D01*
X0447695Y0146777D02*
X0447049Y0146777D01*
X0447049Y0146179D02*
X0447097Y0146179D01*
X0484249Y0150131D02*
X0488249Y0150131D01*
X0488249Y0146131D01*
X0490049Y0179831D02*
X0484649Y0179831D01*
X0484649Y0180431D01*
X0490049Y0179831D02*
X0490051Y0179900D01*
X0490057Y0179968D01*
X0490067Y0180036D01*
X0490080Y0180103D01*
X0490098Y0180169D01*
X0490119Y0180234D01*
X0490144Y0180298D01*
X0490172Y0180360D01*
X0490204Y0180421D01*
X0490239Y0180480D01*
X0490278Y0180536D01*
X0490320Y0180591D01*
X0490365Y0180642D01*
X0490413Y0180692D01*
X0490463Y0180738D01*
X0490516Y0180781D01*
X0490572Y0180822D01*
X0490629Y0180859D01*
X0490689Y0180892D01*
X0490751Y0180923D01*
X0490814Y0180949D01*
X0490878Y0180972D01*
X0490944Y0180992D01*
X0491011Y0181007D01*
X0491078Y0181019D01*
X0491146Y0181027D01*
X0491215Y0181031D01*
X0491283Y0181031D01*
X0491352Y0181027D01*
X0491420Y0181019D01*
X0491487Y0181007D01*
X0491554Y0180992D01*
X0491620Y0180972D01*
X0491684Y0180949D01*
X0491747Y0180923D01*
X0491809Y0180892D01*
X0491869Y0180859D01*
X0491926Y0180822D01*
X0491982Y0180781D01*
X0492035Y0180738D01*
X0492085Y0180692D01*
X0492133Y0180642D01*
X0492178Y0180591D01*
X0492220Y0180536D01*
X0492259Y0180480D01*
X0492294Y0180421D01*
X0492326Y0180360D01*
X0492354Y0180298D01*
X0492379Y0180234D01*
X0492400Y0180169D01*
X0492418Y0180103D01*
X0492431Y0180036D01*
X0492441Y0179968D01*
X0492447Y0179900D01*
X0492449Y0179831D01*
X0497849Y0179831D01*
X0497849Y0180431D01*
X0497849Y0192431D02*
X0497849Y0193031D01*
X0484649Y0193031D01*
X0484649Y0192431D01*
X0420911Y0189731D02*
X0420099Y0189731D01*
X0420911Y0189731D02*
X0420911Y0208931D01*
X0420099Y0208931D01*
X0410699Y0208931D02*
X0409887Y0208931D01*
X0409887Y0189731D01*
X0410699Y0189731D01*
X0408161Y0189731D02*
X0407349Y0189731D01*
X0408161Y0189731D02*
X0408161Y0208931D01*
X0407349Y0208931D01*
X0397949Y0208931D02*
X0397137Y0208931D01*
X0397137Y0189731D01*
X0397949Y0189731D01*
X0379799Y0232481D02*
X0379799Y0237981D01*
X0364799Y0237981D01*
X0364799Y0236981D01*
X0359799Y0233481D02*
X0359799Y0232481D01*
X0354799Y0236981D02*
X0354799Y0237981D01*
X0339799Y0237981D01*
X0339799Y0232481D01*
X0339799Y0242981D02*
X0339799Y0248481D01*
X0339799Y0242981D02*
X0354799Y0242981D01*
X0354799Y0243981D01*
X0359799Y0247481D02*
X0359799Y0248481D01*
X0364799Y0243981D02*
X0364799Y0242981D01*
X0379799Y0242981D01*
X0379799Y0248481D01*
X0318630Y0250481D02*
X0318630Y0264198D01*
X0216268Y0264198D01*
X0216268Y0250481D01*
X0222449Y0252731D02*
X0223449Y0252731D01*
X0223449Y0258981D01*
X0224949Y0258981D01*
X0224949Y0260981D02*
X0224949Y0256481D01*
X0244949Y0256481D01*
X0244949Y0260981D01*
X0224949Y0260981D01*
X0222449Y0260981D01*
X0222449Y0252731D01*
X0216268Y0242481D02*
X0216268Y0228765D01*
X0318630Y0228765D01*
X0318630Y0242481D01*
X0312449Y0240231D02*
X0311449Y0240231D01*
X0311449Y0233981D01*
X0309949Y0233981D01*
X0309949Y0231981D02*
X0312449Y0231981D01*
X0312449Y0240231D01*
X0309949Y0236481D02*
X0289949Y0236481D01*
X0289949Y0231981D01*
X0309949Y0231981D01*
X0309949Y0236481D01*
X0318680Y0227648D02*
X0318680Y0213931D01*
X0312499Y0216181D02*
X0311499Y0216181D01*
X0311499Y0222431D01*
X0309999Y0222431D01*
X0309999Y0219931D01*
X0289999Y0219931D01*
X0289999Y0224431D01*
X0309999Y0224431D01*
X0312499Y0224431D01*
X0312499Y0216181D01*
X0309999Y0222431D02*
X0309999Y0224431D01*
X0318680Y0227648D02*
X0216318Y0227648D01*
X0216318Y0213931D01*
X0222499Y0216181D02*
X0223499Y0216181D01*
X0223499Y0222431D01*
X0224999Y0222431D01*
X0224999Y0224431D02*
X0222499Y0224431D01*
X0222499Y0216181D01*
X0224999Y0219931D02*
X0244999Y0219931D01*
X0244999Y0224431D01*
X0224999Y0224431D01*
X0224999Y0219931D01*
X0224949Y0231981D02*
X0222449Y0231981D01*
X0222449Y0240231D01*
X0223449Y0240231D01*
X0223449Y0233981D01*
X0224949Y0233981D01*
X0224949Y0236481D01*
X0244949Y0236481D01*
X0244949Y0231981D01*
X0224949Y0231981D01*
X0224949Y0233981D01*
X0199899Y0236731D02*
X0199899Y0237931D01*
X0199899Y0236731D02*
X0185699Y0236731D01*
X0185697Y0236800D01*
X0185691Y0236868D01*
X0185681Y0236936D01*
X0185668Y0237003D01*
X0185650Y0237069D01*
X0185629Y0237134D01*
X0185604Y0237198D01*
X0185576Y0237260D01*
X0185544Y0237321D01*
X0185509Y0237380D01*
X0185470Y0237436D01*
X0185428Y0237491D01*
X0185383Y0237542D01*
X0185335Y0237592D01*
X0185285Y0237638D01*
X0185232Y0237681D01*
X0185176Y0237722D01*
X0185119Y0237759D01*
X0185059Y0237792D01*
X0184997Y0237823D01*
X0184934Y0237849D01*
X0184870Y0237872D01*
X0184804Y0237892D01*
X0184737Y0237907D01*
X0184670Y0237919D01*
X0184602Y0237927D01*
X0184533Y0237931D01*
X0184465Y0237931D01*
X0184396Y0237927D01*
X0184328Y0237919D01*
X0184261Y0237907D01*
X0184194Y0237892D01*
X0184128Y0237872D01*
X0184064Y0237849D01*
X0184001Y0237823D01*
X0183939Y0237792D01*
X0183879Y0237759D01*
X0183822Y0237722D01*
X0183766Y0237681D01*
X0183713Y0237638D01*
X0183663Y0237592D01*
X0183615Y0237542D01*
X0183570Y0237491D01*
X0183528Y0237436D01*
X0183489Y0237380D01*
X0183454Y0237321D01*
X0183422Y0237260D01*
X0183394Y0237198D01*
X0183369Y0237134D01*
X0183348Y0237069D01*
X0183330Y0237003D01*
X0183317Y0236936D01*
X0183307Y0236868D01*
X0183301Y0236800D01*
X0183299Y0236731D01*
X0169099Y0236731D01*
X0169099Y0237931D01*
X0194049Y0240281D02*
X0194049Y0242781D01*
X0197549Y0240281D01*
X0194049Y0240281D01*
X0194049Y0240744D02*
X0196901Y0240744D01*
X0196063Y0241342D02*
X0194049Y0241342D01*
X0194049Y0241941D02*
X0195225Y0241941D01*
X0194387Y0242539D02*
X0194049Y0242539D01*
X0157099Y0268481D02*
X0152349Y0268481D01*
X0154849Y0271731D01*
X0157099Y0268481D01*
X0156827Y0268874D02*
X0152651Y0268874D01*
X0153111Y0269472D02*
X0156413Y0269472D01*
X0155998Y0270071D02*
X0153572Y0270071D01*
X0154032Y0270669D02*
X0155584Y0270669D01*
X0155170Y0271268D02*
X0154492Y0271268D01*
X0169099Y0282731D02*
X0169099Y0283931D01*
X0199899Y0283931D01*
X0199899Y0282731D01*
X0289949Y0260981D02*
X0289949Y0256481D01*
X0309949Y0256481D01*
X0309949Y0258981D01*
X0311449Y0258981D01*
X0311449Y0252731D01*
X0312449Y0252731D01*
X0312449Y0260981D01*
X0309949Y0260981D01*
X0289949Y0260981D01*
X0309949Y0260981D02*
X0309949Y0258981D01*
X0311928Y0169589D02*
X0297683Y0169589D01*
X0291849Y0169589D02*
X0287762Y0169589D01*
X0282006Y0169589D02*
X0277723Y0169589D01*
X0272006Y0169589D02*
X0267723Y0169589D01*
X0262006Y0169589D02*
X0259337Y0169589D01*
X0259337Y0139274D01*
X0262006Y0139274D01*
X0267723Y0139274D02*
X0272006Y0139274D01*
X0277723Y0139274D02*
X0282006Y0139274D01*
X0287762Y0139274D02*
X0291849Y0139274D01*
X0297683Y0139274D02*
X0311928Y0139274D01*
X0317880Y0139274D02*
X0319180Y0139274D01*
X0319180Y0169589D01*
X0317880Y0169589D01*
X0325699Y0146081D02*
X0328199Y0146081D01*
X0325699Y0142581D01*
X0325699Y0146081D01*
X0325699Y0145580D02*
X0327841Y0145580D01*
X0327414Y0144982D02*
X0325699Y0144982D01*
X0325699Y0144383D02*
X0326986Y0144383D01*
X0326559Y0143785D02*
X0325699Y0143785D01*
X0325699Y0143186D02*
X0326131Y0143186D01*
X0325704Y0142588D02*
X0325699Y0142588D01*
X0314799Y0129931D02*
X0300199Y0129931D01*
X0300199Y0127731D01*
X0314799Y0129931D02*
X0314799Y0103531D01*
X0300199Y0103531D01*
X0300199Y0105731D01*
X0303879Y0095245D02*
X0303879Y0077017D01*
X0328919Y0077017D01*
X0328919Y0095245D01*
X0324919Y0095245D01*
X0303879Y0095245D01*
X0323149Y0083631D02*
X0326649Y0081131D01*
X0323149Y0081131D01*
X0323149Y0083631D01*
X0323149Y0083335D02*
X0323563Y0083335D01*
X0323149Y0082737D02*
X0324401Y0082737D01*
X0325239Y0082138D02*
X0323149Y0082138D01*
X0323149Y0081540D02*
X0326077Y0081540D01*
X0324969Y0075595D02*
X0328969Y0075595D01*
X0328969Y0057367D01*
X0303929Y0057367D01*
X0303929Y0075595D01*
X0324969Y0075595D01*
X0323199Y0063981D02*
X0326699Y0061481D01*
X0323199Y0061481D01*
X0323199Y0063981D01*
X0323199Y0063584D02*
X0323754Y0063584D01*
X0323199Y0062986D02*
X0324592Y0062986D01*
X0325430Y0062387D02*
X0323199Y0062387D01*
X0323199Y0061789D02*
X0326268Y0061789D01*
X0360449Y0053831D02*
X0360449Y0092831D01*
X0365699Y0092831D01*
X0365701Y0092762D01*
X0365707Y0092694D01*
X0365717Y0092626D01*
X0365730Y0092559D01*
X0365748Y0092493D01*
X0365769Y0092428D01*
X0365794Y0092364D01*
X0365822Y0092302D01*
X0365854Y0092241D01*
X0365889Y0092182D01*
X0365928Y0092126D01*
X0365970Y0092071D01*
X0366015Y0092020D01*
X0366063Y0091970D01*
X0366113Y0091924D01*
X0366166Y0091881D01*
X0366222Y0091840D01*
X0366279Y0091803D01*
X0366339Y0091770D01*
X0366401Y0091739D01*
X0366464Y0091713D01*
X0366528Y0091690D01*
X0366594Y0091670D01*
X0366661Y0091655D01*
X0366728Y0091643D01*
X0366796Y0091635D01*
X0366865Y0091631D01*
X0366933Y0091631D01*
X0367002Y0091635D01*
X0367070Y0091643D01*
X0367137Y0091655D01*
X0367204Y0091670D01*
X0367270Y0091690D01*
X0367334Y0091713D01*
X0367397Y0091739D01*
X0367459Y0091770D01*
X0367519Y0091803D01*
X0367576Y0091840D01*
X0367632Y0091881D01*
X0367685Y0091924D01*
X0367735Y0091970D01*
X0367783Y0092020D01*
X0367828Y0092071D01*
X0367870Y0092126D01*
X0367909Y0092182D01*
X0367944Y0092241D01*
X0367976Y0092302D01*
X0368004Y0092364D01*
X0368029Y0092428D01*
X0368050Y0092493D01*
X0368068Y0092559D01*
X0368081Y0092626D01*
X0368091Y0092694D01*
X0368097Y0092762D01*
X0368099Y0092831D01*
X0373349Y0092831D01*
X0373349Y0053831D01*
X0360449Y0053831D01*
X0365149Y0088331D02*
X0361649Y0090831D01*
X0365149Y0090831D01*
X0365149Y0088331D01*
X0365149Y0088722D02*
X0364602Y0088722D01*
X0365149Y0089320D02*
X0363764Y0089320D01*
X0362926Y0089919D02*
X0365149Y0089919D01*
X0365149Y0090517D02*
X0362088Y0090517D01*
X0368649Y0103531D02*
X0354049Y0103531D01*
X0354049Y0129931D01*
X0368649Y0129931D01*
X0368649Y0127731D01*
X0387499Y0116381D02*
X0387499Y0108781D01*
X0387568Y0108779D01*
X0387636Y0108773D01*
X0387704Y0108763D01*
X0387771Y0108750D01*
X0387837Y0108732D01*
X0387902Y0108711D01*
X0387966Y0108686D01*
X0388028Y0108658D01*
X0388089Y0108626D01*
X0388148Y0108591D01*
X0388204Y0108552D01*
X0388259Y0108510D01*
X0388310Y0108465D01*
X0388360Y0108417D01*
X0388406Y0108367D01*
X0388449Y0108314D01*
X0388490Y0108258D01*
X0388527Y0108201D01*
X0388560Y0108141D01*
X0388591Y0108079D01*
X0388617Y0108016D01*
X0388640Y0107952D01*
X0388660Y0107886D01*
X0388675Y0107819D01*
X0388687Y0107752D01*
X0388695Y0107684D01*
X0388699Y0107615D01*
X0388699Y0107547D01*
X0388695Y0107478D01*
X0388687Y0107410D01*
X0388675Y0107343D01*
X0388660Y0107276D01*
X0388640Y0107210D01*
X0388617Y0107146D01*
X0388591Y0107083D01*
X0388560Y0107021D01*
X0388527Y0106961D01*
X0388490Y0106904D01*
X0388449Y0106848D01*
X0388406Y0106795D01*
X0388360Y0106745D01*
X0388310Y0106697D01*
X0388259Y0106652D01*
X0388204Y0106610D01*
X0388148Y0106571D01*
X0388089Y0106536D01*
X0388028Y0106504D01*
X0387966Y0106476D01*
X0387902Y0106451D01*
X0387837Y0106430D01*
X0387771Y0106412D01*
X0387704Y0106399D01*
X0387636Y0106389D01*
X0387568Y0106383D01*
X0387499Y0106381D01*
X0387499Y0098781D01*
X0389749Y0101081D02*
X0392249Y0104581D01*
X0389749Y0104581D01*
X0389749Y0101081D01*
X0389749Y0101291D02*
X0389898Y0101291D01*
X0389749Y0101889D02*
X0390326Y0101889D01*
X0390753Y0102488D02*
X0389749Y0102488D01*
X0389749Y0103086D02*
X0391181Y0103086D01*
X0391608Y0103685D02*
X0389749Y0103685D01*
X0389749Y0104283D02*
X0392036Y0104283D01*
X0407499Y0098781D02*
X0407499Y0116381D01*
X0410249Y0118081D02*
X0410249Y0121281D01*
X0412449Y0121281D01*
X0419249Y0121281D02*
X0421449Y0121281D01*
X0421449Y0118081D01*
X0447049Y0112931D02*
X0447049Y0108931D01*
X0451049Y0108931D01*
X0421349Y0096631D02*
X0421349Y0093431D01*
X0419149Y0093431D01*
X0412349Y0093431D02*
X0410149Y0093431D01*
X0410149Y0096631D01*
X0368649Y0103531D02*
X0368649Y0105731D01*
X0447199Y0055231D02*
X0456099Y0055231D01*
X0458299Y0050531D02*
X0458299Y0047931D01*
X0458299Y0043231D02*
X0451499Y0043231D01*
X0484249Y0108931D02*
X0488249Y0108931D01*
X0488249Y0112931D01*
X0267299Y0112243D02*
X0267299Y0111431D01*
X0267299Y0112243D02*
X0248099Y0112243D01*
X0248099Y0111431D01*
X0248099Y0102031D02*
X0248099Y0101219D01*
X0267299Y0101219D01*
X0267299Y0102031D01*
X0267299Y0100343D02*
X0267299Y0099531D01*
X0267299Y0100343D02*
X0248099Y0100343D01*
X0248099Y0099531D01*
X0248099Y0090131D02*
X0248099Y0089319D01*
X0267299Y0089319D01*
X0267299Y0090131D01*
X0207099Y0109981D02*
X0193299Y0109981D01*
X0193297Y0109912D01*
X0193291Y0109844D01*
X0193281Y0109776D01*
X0193268Y0109709D01*
X0193250Y0109643D01*
X0193229Y0109578D01*
X0193204Y0109514D01*
X0193176Y0109452D01*
X0193144Y0109391D01*
X0193109Y0109332D01*
X0193070Y0109276D01*
X0193028Y0109221D01*
X0192983Y0109170D01*
X0192935Y0109120D01*
X0192885Y0109074D01*
X0192832Y0109031D01*
X0192776Y0108990D01*
X0192719Y0108953D01*
X0192659Y0108920D01*
X0192597Y0108889D01*
X0192534Y0108863D01*
X0192470Y0108840D01*
X0192404Y0108820D01*
X0192337Y0108805D01*
X0192270Y0108793D01*
X0192202Y0108785D01*
X0192133Y0108781D01*
X0192065Y0108781D01*
X0191996Y0108785D01*
X0191928Y0108793D01*
X0191861Y0108805D01*
X0191794Y0108820D01*
X0191728Y0108840D01*
X0191664Y0108863D01*
X0191601Y0108889D01*
X0191539Y0108920D01*
X0191479Y0108953D01*
X0191422Y0108990D01*
X0191366Y0109031D01*
X0191313Y0109074D01*
X0191263Y0109120D01*
X0191215Y0109170D01*
X0191170Y0109221D01*
X0191128Y0109276D01*
X0191089Y0109332D01*
X0191054Y0109391D01*
X0191022Y0109452D01*
X0190994Y0109514D01*
X0190969Y0109578D01*
X0190948Y0109643D01*
X0190930Y0109709D01*
X0190917Y0109776D01*
X0190907Y0109844D01*
X0190901Y0109912D01*
X0190899Y0109981D01*
X0177099Y0109981D01*
X0179849Y0107131D02*
X0183099Y0105131D01*
X0183099Y0107131D01*
X0179849Y0107131D01*
X0180586Y0106677D02*
X0183099Y0106677D01*
X0183099Y0106079D02*
X0181559Y0106079D01*
X0182532Y0105480D02*
X0183099Y0105480D01*
X0185099Y0134431D02*
X0215099Y0134431D01*
X0113415Y0155312D02*
X0099699Y0155312D01*
X0101949Y0149131D02*
X0101949Y0148131D01*
X0108199Y0148131D01*
X0108199Y0146631D01*
X0110199Y0146631D02*
X0110199Y0149131D01*
X0101949Y0149131D01*
X0105699Y0146631D02*
X0105699Y0126631D01*
X0110199Y0126631D01*
X0110199Y0146631D01*
X0105699Y0146631D01*
X0113415Y0155312D02*
X0113415Y0052950D01*
X0099699Y0052950D01*
X0101949Y0059131D02*
X0101949Y0060131D01*
X0108199Y0060131D01*
X0108199Y0061631D01*
X0105699Y0061631D01*
X0105699Y0081631D01*
X0110199Y0081631D01*
X0110199Y0061631D01*
X0110199Y0059131D01*
X0101949Y0059131D01*
X0108199Y0061631D02*
X0110199Y0061631D01*
X0091699Y0052950D02*
X0077982Y0052950D01*
X0077982Y0155312D01*
X0091699Y0155312D01*
X0089449Y0149131D02*
X0081199Y0149131D01*
X0081199Y0146631D01*
X0081199Y0126631D01*
X0085699Y0126631D01*
X0085699Y0146631D01*
X0083199Y0146631D01*
X0083199Y0148131D01*
X0089449Y0148131D01*
X0089449Y0149131D01*
X0083199Y0146631D02*
X0081199Y0146631D01*
X0073599Y0146631D02*
X0073599Y0149131D01*
X0065349Y0149131D01*
X0065349Y0148131D01*
X0071599Y0148131D01*
X0071599Y0146631D01*
X0073599Y0146631D02*
X0069099Y0146631D01*
X0069099Y0126631D01*
X0073599Y0126631D01*
X0073599Y0146631D01*
X0076815Y0155312D02*
X0063099Y0155312D01*
X0055099Y0155312D02*
X0041382Y0155312D01*
X0041382Y0052950D01*
X0055099Y0052950D01*
X0052849Y0059131D02*
X0044599Y0059131D01*
X0044599Y0061631D01*
X0049099Y0061631D01*
X0049099Y0081631D01*
X0044599Y0081631D01*
X0044599Y0061631D01*
X0046599Y0061631D02*
X0046599Y0060131D01*
X0052849Y0060131D01*
X0052849Y0059131D01*
X0063099Y0052950D02*
X0076815Y0052950D01*
X0076815Y0155312D01*
X0052849Y0149131D02*
X0052849Y0148131D01*
X0046599Y0148131D01*
X0046599Y0146631D01*
X0049099Y0146631D01*
X0049099Y0126631D01*
X0044599Y0126631D01*
X0044599Y0146631D01*
X0044599Y0149131D01*
X0052849Y0149131D01*
X0046599Y0146631D02*
X0044599Y0146631D01*
X0037914Y0159858D02*
X0001300Y0159858D01*
X0001300Y0035173D01*
X0065349Y0059131D02*
X0065349Y0060131D01*
X0071599Y0060131D01*
X0071599Y0061631D01*
X0069099Y0061631D01*
X0069099Y0081631D01*
X0073599Y0081631D01*
X0073599Y0061631D01*
X0073599Y0059131D01*
X0065349Y0059131D01*
X0071599Y0061631D02*
X0073599Y0061631D01*
X0081199Y0061631D02*
X0081199Y0059131D01*
X0089449Y0059131D01*
X0089449Y0060131D01*
X0083199Y0060131D01*
X0083199Y0061631D01*
X0081199Y0061631D02*
X0085699Y0061631D01*
X0085699Y0081631D01*
X0081199Y0081631D01*
X0081199Y0061631D01*
X0177029Y0062545D02*
X0177029Y0044317D01*
X0202069Y0044317D01*
X0202069Y0062545D01*
X0198069Y0062545D01*
X0177029Y0062545D01*
X0177099Y0068781D02*
X0207099Y0068781D01*
X0196299Y0050931D02*
X0199799Y0048431D01*
X0196299Y0048431D01*
X0196299Y0050931D01*
X0196299Y0050417D02*
X0197018Y0050417D01*
X0196299Y0049819D02*
X0197856Y0049819D01*
X0198694Y0049220D02*
X0196299Y0049220D01*
X0196299Y0048622D02*
X0199532Y0048622D01*
X0142499Y0197381D02*
X0142499Y0202881D01*
X0127499Y0202881D01*
X0127499Y0201881D01*
X0122499Y0198381D02*
X0122499Y0197381D01*
X0117499Y0201881D02*
X0117499Y0202881D01*
X0102499Y0202881D01*
X0102499Y0197381D01*
X0102499Y0207881D02*
X0102499Y0213381D01*
X0102499Y0207881D02*
X0117499Y0207881D01*
X0117499Y0208881D01*
X0122499Y0212381D02*
X0122499Y0213381D01*
X0127499Y0208881D02*
X0127499Y0207881D01*
X0142499Y0207881D01*
X0142499Y0213381D01*
D12*
X0127499Y0209131D02*
X0122499Y0212381D01*
X0127499Y0201631D02*
X0122499Y0198381D01*
X0359799Y0233481D02*
X0364799Y0236731D01*
X0364799Y0244231D02*
X0359799Y0247481D01*
X0026497Y0045000D02*
X0021576Y0046969D01*
X0021576Y0043032D01*
X0026497Y0045000D01*
X0025624Y0044651D02*
X0021576Y0044651D01*
X0021576Y0043653D02*
X0023128Y0043653D01*
X0021576Y0045650D02*
X0024873Y0045650D01*
X0022377Y0046648D02*
X0021576Y0046648D01*
D13*
X0077869Y0043959D02*
X0077869Y0040356D01*
X0080271Y0040356D01*
X0081552Y0040356D02*
X0083954Y0040356D01*
X0082753Y0040356D02*
X0082753Y0043959D01*
X0081552Y0042758D01*
X0094349Y0042482D02*
X0096150Y0042482D01*
X0096751Y0043083D01*
X0096751Y0044284D01*
X0096150Y0044884D01*
X0094349Y0044884D01*
X0094349Y0041281D01*
X0095550Y0042482D02*
X0096751Y0041281D01*
X0098032Y0041281D02*
X0100434Y0041281D01*
X0099233Y0041281D02*
X0099233Y0044884D01*
X0098032Y0043683D01*
X0113349Y0044784D02*
X0113349Y0041181D01*
X0113349Y0042382D02*
X0115150Y0042382D01*
X0115751Y0042983D01*
X0115751Y0044184D01*
X0115150Y0044784D01*
X0113349Y0044784D01*
X0114550Y0042382D02*
X0115751Y0041181D01*
X0117032Y0041782D02*
X0117632Y0041181D01*
X0118834Y0041181D01*
X0119434Y0041782D01*
X0119434Y0042382D01*
X0118834Y0042983D01*
X0118233Y0042983D01*
X0118834Y0042983D02*
X0119434Y0043583D01*
X0119434Y0044184D01*
X0118834Y0044784D01*
X0117632Y0044784D01*
X0117032Y0044184D01*
X0132799Y0044784D02*
X0132799Y0041181D01*
X0132799Y0042382D02*
X0134600Y0042382D01*
X0135201Y0042983D01*
X0135201Y0044184D01*
X0134600Y0044784D01*
X0132799Y0044784D01*
X0134000Y0042382D02*
X0135201Y0041181D01*
X0136482Y0041782D02*
X0137082Y0041181D01*
X0138284Y0041181D01*
X0138884Y0041782D01*
X0138884Y0042983D01*
X0138284Y0043583D01*
X0137683Y0043583D01*
X0136482Y0042983D01*
X0136482Y0044784D01*
X0138884Y0044784D01*
X0149796Y0053831D02*
X0149796Y0055633D01*
X0150396Y0056233D01*
X0151597Y0056233D01*
X0152198Y0055633D01*
X0152198Y0053831D01*
X0153399Y0053831D02*
X0149796Y0053831D01*
X0152198Y0055032D02*
X0153399Y0056233D01*
X0152798Y0057514D02*
X0153399Y0058115D01*
X0153399Y0059316D01*
X0152798Y0059916D01*
X0152198Y0059916D01*
X0151597Y0059316D01*
X0151597Y0057514D01*
X0152798Y0057514D01*
X0151597Y0057514D02*
X0150396Y0058715D01*
X0149796Y0059916D01*
X0146048Y0073981D02*
X0143646Y0073981D01*
X0143046Y0074582D01*
X0143046Y0075783D01*
X0143646Y0076383D01*
X0143646Y0077664D02*
X0144247Y0077664D01*
X0144847Y0078265D01*
X0144847Y0079466D01*
X0145448Y0080066D01*
X0146048Y0080066D01*
X0146649Y0079466D01*
X0146649Y0078265D01*
X0146048Y0077664D01*
X0145448Y0077664D01*
X0144847Y0078265D01*
X0144847Y0079466D02*
X0144247Y0080066D01*
X0143646Y0080066D01*
X0143046Y0079466D01*
X0143046Y0078265D01*
X0143646Y0077664D01*
X0146048Y0076383D02*
X0146649Y0075783D01*
X0146649Y0074582D01*
X0146048Y0073981D01*
X0155696Y0090281D02*
X0158098Y0090281D01*
X0158699Y0090882D01*
X0158699Y0092083D01*
X0158098Y0092683D01*
X0156897Y0093964D02*
X0156897Y0096366D01*
X0155096Y0095766D02*
X0156897Y0093964D01*
X0155696Y0092683D02*
X0155096Y0092083D01*
X0155096Y0090882D01*
X0155696Y0090281D01*
X0155096Y0095766D02*
X0158699Y0095766D01*
X0158584Y0112681D02*
X0156182Y0112681D01*
X0157383Y0112681D02*
X0157383Y0116284D01*
X0156182Y0115083D01*
X0154901Y0115684D02*
X0154300Y0116284D01*
X0153099Y0116284D01*
X0152499Y0115684D01*
X0152499Y0113282D01*
X0153099Y0112681D01*
X0154300Y0112681D01*
X0154901Y0113282D01*
X0159749Y0113232D02*
X0159749Y0115634D01*
X0160349Y0116234D01*
X0161550Y0116234D01*
X0162151Y0115634D01*
X0163432Y0115634D02*
X0164032Y0116234D01*
X0165234Y0116234D01*
X0165834Y0115634D01*
X0165834Y0115033D01*
X0163432Y0112631D01*
X0165834Y0112631D01*
X0162151Y0113232D02*
X0161550Y0112631D01*
X0160349Y0112631D01*
X0159749Y0113232D01*
X0160283Y0117331D02*
X0160283Y0120934D01*
X0159082Y0119733D01*
X0157801Y0120334D02*
X0157801Y0119133D01*
X0157200Y0118532D01*
X0155399Y0118532D01*
X0156600Y0118532D02*
X0157801Y0117331D01*
X0159082Y0117331D02*
X0161484Y0117331D01*
X0162765Y0117331D02*
X0165167Y0119733D01*
X0165167Y0120334D01*
X0164567Y0120934D01*
X0163366Y0120934D01*
X0162765Y0120334D01*
X0162765Y0117331D02*
X0165167Y0117331D01*
X0157801Y0120334D02*
X0157200Y0120934D01*
X0155399Y0120934D01*
X0155399Y0117331D01*
X0174546Y0126932D02*
X0175146Y0126332D01*
X0177548Y0126332D01*
X0178149Y0126932D01*
X0178149Y0128133D01*
X0177548Y0128734D01*
X0178149Y0130015D02*
X0178149Y0132417D01*
X0178149Y0131216D02*
X0174546Y0131216D01*
X0175747Y0130015D01*
X0175146Y0128734D02*
X0174546Y0128133D01*
X0174546Y0126932D01*
X0174546Y0133698D02*
X0174546Y0136100D01*
X0175146Y0136100D01*
X0177548Y0133698D01*
X0178149Y0133698D01*
X0170898Y0141431D02*
X0171499Y0142032D01*
X0171499Y0143233D01*
X0170898Y0143833D01*
X0171499Y0145114D02*
X0171499Y0147516D01*
X0171499Y0146315D02*
X0167896Y0146315D01*
X0169097Y0145114D01*
X0168496Y0143833D02*
X0167896Y0143233D01*
X0167896Y0142032D01*
X0168496Y0141431D01*
X0170898Y0141431D01*
X0170898Y0148797D02*
X0171499Y0149398D01*
X0171499Y0150599D01*
X0170898Y0151199D01*
X0169697Y0151199D01*
X0169097Y0150599D01*
X0169097Y0149998D01*
X0169697Y0148797D01*
X0167896Y0148797D01*
X0167896Y0151199D01*
X0154499Y0158182D02*
X0154499Y0159383D01*
X0153898Y0159983D01*
X0154499Y0161264D02*
X0154499Y0163666D01*
X0154499Y0162465D02*
X0150896Y0162465D01*
X0152097Y0161264D01*
X0151496Y0159983D02*
X0150896Y0159383D01*
X0150896Y0158182D01*
X0151496Y0157581D01*
X0153898Y0157581D01*
X0154499Y0158182D01*
X0157399Y0160881D02*
X0158600Y0160881D01*
X0159201Y0161482D01*
X0160482Y0160881D02*
X0162884Y0160881D01*
X0161683Y0160881D02*
X0161683Y0164484D01*
X0160482Y0163283D01*
X0159201Y0163884D02*
X0158600Y0164484D01*
X0157399Y0164484D01*
X0156799Y0163884D01*
X0156799Y0161482D01*
X0157399Y0160881D01*
X0153898Y0164947D02*
X0154499Y0165548D01*
X0154499Y0166749D01*
X0153898Y0167349D01*
X0153298Y0167349D01*
X0152697Y0166749D01*
X0152697Y0164947D01*
X0153898Y0164947D01*
X0152697Y0164947D02*
X0151496Y0166148D01*
X0150896Y0167349D01*
X0153733Y0173981D02*
X0154934Y0173981D01*
X0155535Y0174582D01*
X0156816Y0174582D02*
X0157416Y0173981D01*
X0158617Y0173981D01*
X0159218Y0174582D01*
X0159218Y0176984D01*
X0158617Y0177584D01*
X0157416Y0177584D01*
X0156816Y0176984D01*
X0156816Y0176383D01*
X0157416Y0175783D01*
X0159218Y0175783D01*
X0155535Y0176984D02*
X0154934Y0177584D01*
X0153733Y0177584D01*
X0153133Y0176984D01*
X0153133Y0174582D01*
X0153733Y0173981D01*
X0164165Y0163884D02*
X0164766Y0164484D01*
X0165967Y0164484D01*
X0166567Y0163884D01*
X0166567Y0163283D01*
X0164165Y0160881D01*
X0166567Y0160881D01*
X0175449Y0175331D02*
X0176650Y0175331D01*
X0177251Y0175932D01*
X0178532Y0175331D02*
X0180934Y0175331D01*
X0179733Y0175331D02*
X0179733Y0178934D01*
X0178532Y0177733D01*
X0177251Y0178334D02*
X0176650Y0178934D01*
X0175449Y0178934D01*
X0174849Y0178334D01*
X0174849Y0175932D01*
X0175449Y0175331D01*
X0182215Y0175932D02*
X0182215Y0178334D01*
X0182816Y0178934D01*
X0184017Y0178934D01*
X0184617Y0178334D01*
X0182215Y0175932D01*
X0182816Y0175331D01*
X0184017Y0175331D01*
X0184617Y0175932D01*
X0184617Y0178334D01*
X0194616Y0188581D02*
X0194016Y0189182D01*
X0194616Y0188581D02*
X0195817Y0188581D01*
X0196418Y0189182D01*
X0196418Y0189782D01*
X0195817Y0190383D01*
X0194616Y0190383D01*
X0194016Y0190983D01*
X0194016Y0191584D01*
X0194616Y0192184D01*
X0195817Y0192184D01*
X0196418Y0191584D01*
X0212999Y0180184D02*
X0214200Y0180184D01*
X0213599Y0180184D02*
X0213599Y0176581D01*
X0212999Y0176581D02*
X0214200Y0176581D01*
X0215454Y0177182D02*
X0216055Y0176581D01*
X0217256Y0176581D01*
X0217856Y0177182D01*
X0219137Y0177182D02*
X0219738Y0176581D01*
X0220939Y0176581D01*
X0221539Y0177182D01*
X0221539Y0177782D01*
X0220939Y0178383D01*
X0220338Y0178383D01*
X0220939Y0178383D02*
X0221539Y0178983D01*
X0221539Y0179584D01*
X0220939Y0180184D01*
X0219738Y0180184D01*
X0219137Y0179584D01*
X0217856Y0179584D02*
X0217256Y0180184D01*
X0216055Y0180184D01*
X0215454Y0179584D01*
X0215454Y0177182D01*
X0232196Y0173599D02*
X0235799Y0173599D01*
X0235799Y0172398D02*
X0235799Y0174800D01*
X0233397Y0172398D02*
X0232196Y0173599D01*
X0232196Y0169916D02*
X0235799Y0169916D01*
X0235799Y0168715D02*
X0235799Y0171117D01*
X0233397Y0168715D02*
X0232196Y0169916D01*
X0232796Y0167434D02*
X0232196Y0166833D01*
X0232196Y0165632D01*
X0232796Y0165032D01*
X0235198Y0165032D01*
X0235799Y0165632D01*
X0235799Y0166833D01*
X0235198Y0167434D01*
X0245546Y0166948D02*
X0246146Y0166348D01*
X0246747Y0166348D01*
X0247347Y0166948D01*
X0247347Y0168750D01*
X0246146Y0168750D02*
X0245546Y0168149D01*
X0245546Y0166948D01*
X0246146Y0168750D02*
X0248548Y0168750D01*
X0249149Y0168149D01*
X0249149Y0166948D01*
X0248548Y0166348D01*
X0249149Y0165067D02*
X0247948Y0163866D01*
X0247948Y0164466D02*
X0247948Y0162665D01*
X0249149Y0162665D02*
X0245546Y0162665D01*
X0245546Y0164466D01*
X0246146Y0165067D01*
X0247347Y0165067D01*
X0247948Y0164466D01*
X0254246Y0166099D02*
X0257849Y0166099D01*
X0257849Y0164898D02*
X0257849Y0167300D01*
X0255447Y0164898D02*
X0254246Y0166099D01*
X0258449Y0163617D02*
X0258449Y0161215D01*
X0257849Y0159934D02*
X0255447Y0159934D01*
X0254246Y0158733D01*
X0255447Y0157532D01*
X0257849Y0157532D01*
X0257849Y0156251D02*
X0257849Y0153848D01*
X0257849Y0155050D02*
X0254246Y0155050D01*
X0255447Y0153848D01*
X0257849Y0152567D02*
X0257849Y0150165D01*
X0254246Y0150165D01*
X0254246Y0148884D02*
X0254246Y0146482D01*
X0257849Y0146482D01*
X0257849Y0148884D01*
X0256047Y0147683D02*
X0256047Y0146482D01*
X0256648Y0145201D02*
X0257248Y0145201D01*
X0257849Y0144601D01*
X0257849Y0143400D01*
X0257248Y0142799D01*
X0256047Y0143400D02*
X0255447Y0142799D01*
X0254846Y0142799D01*
X0254246Y0143400D01*
X0254246Y0144601D01*
X0254846Y0145201D01*
X0256047Y0144601D02*
X0256648Y0145201D01*
X0256047Y0144601D02*
X0256047Y0143400D01*
X0254246Y0141545D02*
X0254246Y0140344D01*
X0254246Y0140944D02*
X0257849Y0140944D01*
X0257849Y0140344D02*
X0257849Y0141545D01*
X0249849Y0142415D02*
X0249849Y0144817D01*
X0249849Y0143616D02*
X0246246Y0143616D01*
X0247447Y0142415D01*
X0246846Y0141134D02*
X0246246Y0140533D01*
X0246246Y0139332D01*
X0246846Y0138732D01*
X0249248Y0138732D01*
X0249849Y0139332D01*
X0249849Y0140533D01*
X0249248Y0141134D01*
X0248047Y0146098D02*
X0248047Y0148500D01*
X0246246Y0147899D02*
X0248047Y0146098D01*
X0246246Y0147899D02*
X0249849Y0147899D01*
X0236317Y0155782D02*
X0235717Y0155181D01*
X0234516Y0155181D01*
X0233915Y0155782D01*
X0232634Y0155181D02*
X0230232Y0155181D01*
X0231433Y0155181D02*
X0231433Y0158784D01*
X0230232Y0157583D01*
X0228951Y0158184D02*
X0228350Y0158784D01*
X0227149Y0158784D01*
X0226549Y0158184D01*
X0226549Y0155782D01*
X0227149Y0155181D01*
X0228350Y0155181D01*
X0228951Y0155782D01*
X0233915Y0158184D02*
X0234516Y0158784D01*
X0235717Y0158784D01*
X0236317Y0158184D01*
X0236317Y0157583D01*
X0235717Y0156983D01*
X0236317Y0156382D01*
X0236317Y0155782D01*
X0235717Y0156983D02*
X0235116Y0156983D01*
X0256047Y0157532D02*
X0256047Y0159934D01*
X0272049Y0177331D02*
X0272049Y0180934D01*
X0273850Y0180934D01*
X0274451Y0180334D01*
X0274451Y0179133D01*
X0273850Y0178532D01*
X0272049Y0178532D01*
X0273250Y0178532D02*
X0274451Y0177331D01*
X0275732Y0177932D02*
X0276332Y0177331D01*
X0277534Y0177331D01*
X0278134Y0177932D01*
X0278134Y0178532D01*
X0277534Y0179133D01*
X0276933Y0179133D01*
X0277534Y0179133D02*
X0278134Y0179733D01*
X0278134Y0180334D01*
X0277534Y0180934D01*
X0276332Y0180934D01*
X0275732Y0180334D01*
X0279415Y0180334D02*
X0280016Y0180934D01*
X0281217Y0180934D01*
X0281817Y0180334D01*
X0281817Y0177932D01*
X0281217Y0177331D01*
X0280016Y0177331D01*
X0279415Y0177932D01*
X0280016Y0179133D02*
X0281817Y0179133D01*
X0280016Y0179133D02*
X0279415Y0179733D01*
X0279415Y0180334D01*
X0290299Y0180684D02*
X0290299Y0177081D01*
X0290299Y0178282D02*
X0292100Y0178282D01*
X0292701Y0178883D01*
X0292701Y0180084D01*
X0292100Y0180684D01*
X0290299Y0180684D01*
X0291500Y0178282D02*
X0292701Y0177081D01*
X0293982Y0177682D02*
X0294582Y0177081D01*
X0295784Y0177081D01*
X0296384Y0177682D01*
X0296384Y0178282D01*
X0295784Y0178883D01*
X0295183Y0178883D01*
X0295784Y0178883D02*
X0296384Y0179483D01*
X0296384Y0180084D01*
X0295784Y0180684D01*
X0294582Y0180684D01*
X0293982Y0180084D01*
X0297665Y0180084D02*
X0297665Y0179483D01*
X0298266Y0178883D01*
X0299467Y0178883D01*
X0300067Y0178282D01*
X0300067Y0177682D01*
X0299467Y0177081D01*
X0298266Y0177081D01*
X0297665Y0177682D01*
X0297665Y0178282D01*
X0298266Y0178883D01*
X0299467Y0178883D02*
X0300067Y0179483D01*
X0300067Y0180084D01*
X0299467Y0180684D01*
X0298266Y0180684D01*
X0297665Y0180084D01*
X0309599Y0179634D02*
X0309599Y0176031D01*
X0309599Y0177232D02*
X0311400Y0177232D01*
X0312001Y0177833D01*
X0312001Y0179034D01*
X0311400Y0179634D01*
X0309599Y0179634D01*
X0310800Y0177232D02*
X0312001Y0176031D01*
X0313282Y0176632D02*
X0313882Y0176031D01*
X0315084Y0176031D01*
X0315684Y0176632D01*
X0315684Y0177232D01*
X0315084Y0177833D01*
X0314483Y0177833D01*
X0315084Y0177833D02*
X0315684Y0178433D01*
X0315684Y0179034D01*
X0315084Y0179634D01*
X0313882Y0179634D01*
X0313282Y0179034D01*
X0316965Y0179634D02*
X0319367Y0179634D01*
X0319367Y0179034D01*
X0316965Y0176632D01*
X0316965Y0176031D01*
X0329449Y0175931D02*
X0329449Y0179534D01*
X0331251Y0179534D01*
X0331851Y0178934D01*
X0331851Y0177733D01*
X0331251Y0177132D01*
X0329449Y0177132D01*
X0330650Y0177132D02*
X0331851Y0175931D01*
X0333133Y0176532D02*
X0333733Y0175931D01*
X0334934Y0175931D01*
X0335535Y0176532D01*
X0335535Y0177132D01*
X0334934Y0177733D01*
X0334334Y0177733D01*
X0334934Y0177733D02*
X0335535Y0178333D01*
X0335535Y0178934D01*
X0334934Y0179534D01*
X0333733Y0179534D01*
X0333133Y0178934D01*
X0336816Y0177733D02*
X0338617Y0177733D01*
X0339218Y0177132D01*
X0339218Y0176532D01*
X0338617Y0175931D01*
X0337416Y0175931D01*
X0336816Y0176532D01*
X0336816Y0177733D01*
X0338017Y0178934D01*
X0339218Y0179534D01*
X0346546Y0181482D02*
X0346546Y0182683D01*
X0347146Y0183283D01*
X0349548Y0183283D01*
X0350149Y0182683D01*
X0350149Y0181482D01*
X0349548Y0180881D01*
X0347146Y0180881D01*
X0346546Y0181482D01*
X0348948Y0182082D02*
X0350149Y0183283D01*
X0348347Y0184564D02*
X0348347Y0186966D01*
X0346546Y0186366D02*
X0348347Y0184564D01*
X0346546Y0186366D02*
X0350149Y0186366D01*
X0364499Y0194331D02*
X0364499Y0197934D01*
X0366300Y0197934D01*
X0366901Y0197334D01*
X0366901Y0196133D01*
X0366300Y0195532D01*
X0364499Y0195532D01*
X0365700Y0195532D02*
X0366901Y0194331D01*
X0368182Y0194932D02*
X0368782Y0194331D01*
X0369984Y0194331D01*
X0370584Y0194932D01*
X0370584Y0195532D01*
X0369984Y0196133D01*
X0369383Y0196133D01*
X0369984Y0196133D02*
X0370584Y0196733D01*
X0370584Y0197334D01*
X0369984Y0197934D01*
X0368782Y0197934D01*
X0368182Y0197334D01*
X0371865Y0197334D02*
X0371865Y0194932D01*
X0374267Y0197334D01*
X0374267Y0194932D01*
X0373667Y0194331D01*
X0372466Y0194331D01*
X0371865Y0194932D01*
X0371865Y0197334D02*
X0372466Y0197934D01*
X0373667Y0197934D01*
X0374267Y0197334D01*
X0376399Y0195682D02*
X0376999Y0195081D01*
X0377600Y0195081D01*
X0378200Y0195682D01*
X0378200Y0198684D01*
X0377600Y0198684D02*
X0378801Y0198684D01*
X0380082Y0198684D02*
X0381884Y0198684D01*
X0382484Y0198084D01*
X0382484Y0196883D01*
X0381884Y0196282D01*
X0380082Y0196282D01*
X0380082Y0195081D02*
X0380082Y0198684D01*
X0383765Y0196883D02*
X0385567Y0196883D01*
X0386167Y0196282D01*
X0386167Y0195682D01*
X0385567Y0195081D01*
X0384366Y0195081D01*
X0383765Y0195682D01*
X0383765Y0196883D01*
X0384966Y0198084D01*
X0386167Y0198684D01*
X0385346Y0201231D02*
X0385346Y0203033D01*
X0385946Y0203633D01*
X0387147Y0203633D01*
X0387748Y0203033D01*
X0387748Y0201231D01*
X0388949Y0201231D02*
X0385346Y0201231D01*
X0387748Y0202432D02*
X0388949Y0203633D01*
X0388348Y0204914D02*
X0388949Y0205515D01*
X0388949Y0206716D01*
X0388348Y0207316D01*
X0387748Y0207316D01*
X0387147Y0206716D01*
X0387147Y0206115D01*
X0387147Y0206716D02*
X0386547Y0207316D01*
X0385946Y0207316D01*
X0385346Y0206716D01*
X0385346Y0205515D01*
X0385946Y0204914D01*
X0385946Y0208597D02*
X0385346Y0209198D01*
X0385346Y0210399D01*
X0385946Y0210999D01*
X0386547Y0210999D01*
X0388949Y0208597D01*
X0388949Y0210999D01*
X0431316Y0224282D02*
X0431916Y0223681D01*
X0433117Y0223681D01*
X0433718Y0224282D01*
X0433718Y0224882D01*
X0433117Y0225483D01*
X0431916Y0225483D01*
X0431316Y0226083D01*
X0431316Y0226684D01*
X0431916Y0227284D01*
X0433117Y0227284D01*
X0433718Y0226684D01*
X0461696Y0241532D02*
X0462296Y0240931D01*
X0464698Y0240931D01*
X0465299Y0241532D01*
X0465299Y0242733D01*
X0464698Y0243333D01*
X0465299Y0244614D02*
X0462897Y0247016D01*
X0462296Y0247016D01*
X0461696Y0246416D01*
X0461696Y0245215D01*
X0462296Y0244614D01*
X0462296Y0243333D02*
X0461696Y0242733D01*
X0461696Y0241532D01*
X0465299Y0244614D02*
X0465299Y0247016D01*
X0464698Y0248297D02*
X0462296Y0250699D01*
X0464698Y0250699D01*
X0465299Y0250099D01*
X0465299Y0248898D01*
X0464698Y0248297D01*
X0462296Y0248297D01*
X0461696Y0248898D01*
X0461696Y0250099D01*
X0462296Y0250699D01*
X0433718Y0253681D02*
X0432517Y0254882D01*
X0433117Y0254882D02*
X0431316Y0254882D01*
X0431316Y0253681D02*
X0431316Y0257284D01*
X0433117Y0257284D01*
X0433718Y0256684D01*
X0433718Y0255483D01*
X0433117Y0254882D01*
X0404538Y0267831D02*
X0402136Y0267831D01*
X0404538Y0270233D01*
X0404538Y0270834D01*
X0403938Y0271434D01*
X0402737Y0271434D01*
X0402136Y0270834D01*
X0400855Y0267231D02*
X0398453Y0267231D01*
X0397172Y0267831D02*
X0397172Y0270233D01*
X0395971Y0271434D01*
X0394770Y0270233D01*
X0394770Y0267831D01*
X0393489Y0268432D02*
X0392888Y0267831D01*
X0391687Y0267831D01*
X0391087Y0268432D01*
X0393489Y0270834D01*
X0393489Y0268432D01*
X0394770Y0269633D02*
X0397172Y0269633D01*
X0393489Y0270834D02*
X0392888Y0271434D01*
X0391687Y0271434D01*
X0391087Y0270834D01*
X0391087Y0268432D01*
X0389806Y0267831D02*
X0387404Y0267831D01*
X0388605Y0267831D02*
X0388605Y0271434D01*
X0387404Y0270233D01*
X0386123Y0267831D02*
X0383721Y0267831D01*
X0383721Y0271434D01*
X0382439Y0271434D02*
X0380037Y0271434D01*
X0380037Y0267831D01*
X0382439Y0267831D01*
X0381238Y0269633D02*
X0380037Y0269633D01*
X0378756Y0269032D02*
X0378756Y0268432D01*
X0378156Y0267831D01*
X0376955Y0267831D01*
X0376354Y0268432D01*
X0376955Y0269633D02*
X0378156Y0269633D01*
X0378756Y0269032D01*
X0378756Y0270834D02*
X0378156Y0271434D01*
X0376955Y0271434D01*
X0376354Y0270834D01*
X0376354Y0270233D01*
X0376955Y0269633D01*
X0375100Y0271434D02*
X0373899Y0271434D01*
X0374499Y0271434D02*
X0374499Y0267831D01*
X0373899Y0267831D02*
X0375100Y0267831D01*
X0326348Y0210249D02*
X0326949Y0209649D01*
X0326949Y0208448D01*
X0326348Y0207847D01*
X0325147Y0207847D02*
X0324547Y0209048D01*
X0324547Y0209649D01*
X0325147Y0210249D01*
X0326348Y0210249D01*
X0325147Y0207847D02*
X0323346Y0207847D01*
X0323346Y0210249D01*
X0323946Y0206566D02*
X0324547Y0206566D01*
X0325147Y0205966D01*
X0325748Y0206566D01*
X0326348Y0206566D01*
X0326949Y0205966D01*
X0326949Y0204765D01*
X0326348Y0204164D01*
X0326949Y0202883D02*
X0325748Y0201682D01*
X0325748Y0202283D02*
X0325748Y0200481D01*
X0326949Y0200481D02*
X0323346Y0200481D01*
X0323346Y0202283D01*
X0323946Y0202883D01*
X0325147Y0202883D01*
X0325748Y0202283D01*
X0323946Y0204164D02*
X0323346Y0204765D01*
X0323346Y0205966D01*
X0323946Y0206566D01*
X0325147Y0205966D02*
X0325147Y0205365D01*
X0325601Y0195034D02*
X0325601Y0192632D01*
X0324400Y0191431D01*
X0323199Y0192632D01*
X0323199Y0195034D01*
X0321918Y0195034D02*
X0319516Y0195034D01*
X0320717Y0195034D02*
X0320717Y0191431D01*
X0326883Y0192032D02*
X0327483Y0191431D01*
X0328684Y0191431D01*
X0329285Y0192032D01*
X0329285Y0192632D01*
X0328684Y0193233D01*
X0327483Y0193233D01*
X0326883Y0193833D01*
X0326883Y0194434D01*
X0327483Y0195034D01*
X0328684Y0195034D01*
X0329285Y0194434D01*
X0330566Y0193833D02*
X0331767Y0195034D01*
X0331767Y0191431D01*
X0330566Y0191431D02*
X0332968Y0191431D01*
X0333199Y0173499D02*
X0333199Y0171097D01*
X0330797Y0173499D01*
X0330196Y0173499D01*
X0329596Y0172899D01*
X0329596Y0171698D01*
X0330196Y0171097D01*
X0330196Y0169816D02*
X0331397Y0169816D01*
X0331998Y0169216D01*
X0331998Y0167414D01*
X0333199Y0167414D02*
X0329596Y0167414D01*
X0329596Y0169216D01*
X0330196Y0169816D01*
X0329596Y0166133D02*
X0329596Y0164932D01*
X0329596Y0165533D02*
X0332598Y0165533D01*
X0333199Y0164932D01*
X0333199Y0164332D01*
X0332598Y0163731D01*
X0339849Y0162431D02*
X0341050Y0162431D01*
X0340449Y0162431D02*
X0340449Y0166034D01*
X0339849Y0166034D02*
X0341050Y0166034D01*
X0342304Y0165434D02*
X0342304Y0163032D01*
X0342905Y0162431D01*
X0344106Y0162431D01*
X0344706Y0163032D01*
X0345987Y0163032D02*
X0345987Y0162431D01*
X0345987Y0163032D02*
X0348389Y0165434D01*
X0348389Y0166034D01*
X0345987Y0166034D01*
X0344706Y0165434D02*
X0344106Y0166034D01*
X0342905Y0166034D01*
X0342304Y0165434D01*
X0346846Y0168082D02*
X0346846Y0169283D01*
X0347446Y0169883D01*
X0349848Y0169883D01*
X0350449Y0169283D01*
X0350449Y0168082D01*
X0349848Y0167481D01*
X0347446Y0167481D01*
X0346846Y0168082D01*
X0349248Y0168682D02*
X0350449Y0169883D01*
X0349848Y0171164D02*
X0350449Y0171765D01*
X0350449Y0172966D01*
X0349848Y0173566D01*
X0349248Y0173566D01*
X0348647Y0172966D01*
X0348647Y0172365D01*
X0348647Y0172966D02*
X0348047Y0173566D01*
X0347446Y0173566D01*
X0346846Y0172966D01*
X0346846Y0171765D01*
X0347446Y0171164D01*
X0363899Y0169334D02*
X0363899Y0166932D01*
X0364499Y0166331D01*
X0365700Y0166331D01*
X0366301Y0166932D01*
X0367582Y0166331D02*
X0369984Y0168733D01*
X0369984Y0169334D01*
X0369384Y0169934D01*
X0368182Y0169934D01*
X0367582Y0169334D01*
X0366301Y0169334D02*
X0365700Y0169934D01*
X0364499Y0169934D01*
X0363899Y0169334D01*
X0367582Y0166331D02*
X0369984Y0166331D01*
X0371265Y0166331D02*
X0373667Y0166331D01*
X0372466Y0166331D02*
X0372466Y0169934D01*
X0371265Y0168733D01*
X0375046Y0167832D02*
X0375046Y0166631D01*
X0375046Y0167232D02*
X0378649Y0167232D01*
X0378649Y0167832D02*
X0378649Y0166631D01*
X0378048Y0169087D02*
X0378649Y0169687D01*
X0378649Y0170888D01*
X0378048Y0171489D01*
X0378048Y0172770D02*
X0378649Y0173370D01*
X0378649Y0174571D01*
X0378048Y0175172D01*
X0377448Y0175172D01*
X0376847Y0174571D01*
X0376847Y0172770D01*
X0378048Y0172770D01*
X0376847Y0172770D02*
X0375646Y0173971D01*
X0375046Y0175172D01*
X0375646Y0171489D02*
X0375046Y0170888D01*
X0375046Y0169687D01*
X0375646Y0169087D01*
X0378048Y0169087D01*
X0383496Y0168383D02*
X0384096Y0168983D01*
X0385297Y0168983D01*
X0385898Y0168383D01*
X0385898Y0166581D01*
X0387099Y0166581D02*
X0383496Y0166581D01*
X0383496Y0168383D01*
X0384096Y0170264D02*
X0383496Y0170865D01*
X0383496Y0172066D01*
X0384096Y0172666D01*
X0384697Y0172666D01*
X0385297Y0172066D01*
X0385898Y0172666D01*
X0386498Y0172666D01*
X0387099Y0172066D01*
X0387099Y0170865D01*
X0386498Y0170264D01*
X0387099Y0168983D02*
X0385898Y0167782D01*
X0385297Y0171465D02*
X0385297Y0172066D01*
X0385297Y0173947D02*
X0385297Y0176349D01*
X0383496Y0175749D02*
X0385297Y0173947D01*
X0383496Y0175749D02*
X0387099Y0175749D01*
X0378017Y0141234D02*
X0376816Y0141234D01*
X0376215Y0140634D01*
X0374934Y0140634D02*
X0374334Y0141234D01*
X0373132Y0141234D01*
X0372532Y0140634D01*
X0371251Y0140634D02*
X0370650Y0141234D01*
X0369449Y0141234D01*
X0368849Y0140634D01*
X0368849Y0138232D01*
X0369449Y0137631D01*
X0370650Y0137631D01*
X0371251Y0138232D01*
X0372532Y0137631D02*
X0374934Y0140033D01*
X0374934Y0140634D01*
X0374934Y0137631D02*
X0372532Y0137631D01*
X0371500Y0136184D02*
X0369699Y0136184D01*
X0369699Y0132581D01*
X0369699Y0133782D02*
X0371500Y0133782D01*
X0372101Y0134383D01*
X0372101Y0135584D01*
X0371500Y0136184D01*
X0373382Y0135584D02*
X0373982Y0136184D01*
X0375184Y0136184D01*
X0375784Y0135584D01*
X0375784Y0134983D01*
X0373382Y0132581D01*
X0375784Y0132581D01*
X0377065Y0133182D02*
X0377065Y0133782D01*
X0377666Y0134383D01*
X0378867Y0134383D01*
X0379467Y0133782D01*
X0379467Y0133182D01*
X0378867Y0132581D01*
X0377666Y0132581D01*
X0377065Y0133182D01*
X0377666Y0134383D02*
X0377065Y0134983D01*
X0377065Y0135584D01*
X0377666Y0136184D01*
X0378867Y0136184D01*
X0379467Y0135584D01*
X0379467Y0134983D01*
X0378867Y0134383D01*
X0378617Y0137631D02*
X0376215Y0137631D01*
X0378617Y0140033D01*
X0378617Y0140634D01*
X0378017Y0141234D01*
X0370900Y0133782D02*
X0372101Y0132581D01*
X0382896Y0111221D02*
X0384697Y0109420D01*
X0384697Y0111822D01*
X0382896Y0111221D02*
X0386499Y0111221D01*
X0385898Y0108139D02*
X0386499Y0107538D01*
X0386499Y0106337D01*
X0385898Y0105737D01*
X0383496Y0105737D01*
X0382896Y0106337D01*
X0382896Y0107538D01*
X0383496Y0108139D01*
X0376734Y0105184D02*
X0376134Y0105784D01*
X0374932Y0105784D01*
X0374332Y0105184D01*
X0373051Y0105184D02*
X0373051Y0102782D01*
X0372450Y0102181D01*
X0371249Y0102181D01*
X0370649Y0102782D01*
X0370649Y0105184D01*
X0371249Y0105784D01*
X0372450Y0105784D01*
X0373051Y0105184D01*
X0371850Y0103382D02*
X0373051Y0102181D01*
X0374332Y0102181D02*
X0376734Y0104583D01*
X0376734Y0105184D01*
X0376734Y0102181D02*
X0374332Y0102181D01*
X0371139Y0097784D02*
X0368737Y0097784D01*
X0368737Y0095983D01*
X0369938Y0096583D01*
X0370539Y0096583D01*
X0371139Y0095983D01*
X0371139Y0094782D01*
X0370539Y0094181D01*
X0369338Y0094181D01*
X0368737Y0094782D01*
X0367456Y0094782D02*
X0366856Y0094181D01*
X0365655Y0094181D01*
X0365054Y0094782D01*
X0365054Y0097184D01*
X0365655Y0097784D01*
X0366856Y0097784D01*
X0367456Y0097184D01*
X0363800Y0097784D02*
X0362599Y0097784D01*
X0363199Y0097784D02*
X0363199Y0094181D01*
X0362599Y0094181D02*
X0363800Y0094181D01*
X0350917Y0096133D02*
X0348515Y0096133D01*
X0350317Y0097934D01*
X0350317Y0094331D01*
X0347234Y0094331D02*
X0344832Y0094331D01*
X0346033Y0094331D02*
X0346033Y0097934D01*
X0344832Y0096733D01*
X0343551Y0097334D02*
X0343551Y0096133D01*
X0342950Y0095532D01*
X0341149Y0095532D01*
X0342350Y0095532D02*
X0343551Y0094331D01*
X0341149Y0094331D02*
X0341149Y0097934D01*
X0342950Y0097934D01*
X0343551Y0097334D01*
X0315167Y0096281D02*
X0312765Y0096281D01*
X0315167Y0098683D01*
X0315167Y0099284D01*
X0314567Y0099884D01*
X0313366Y0099884D01*
X0312765Y0099284D01*
X0311484Y0099884D02*
X0309082Y0097482D01*
X0309682Y0098083D02*
X0311484Y0096281D01*
X0309082Y0096281D02*
X0309082Y0099884D01*
X0307801Y0099284D02*
X0307200Y0099884D01*
X0305999Y0099884D01*
X0305399Y0099284D01*
X0305399Y0096882D01*
X0305999Y0096281D01*
X0307200Y0096281D01*
X0307801Y0096882D01*
X0307801Y0099284D01*
X0287499Y0102781D02*
X0283896Y0102781D01*
X0283896Y0104583D01*
X0284496Y0105183D01*
X0285697Y0105183D01*
X0286298Y0104583D01*
X0286298Y0102781D01*
X0286298Y0103982D02*
X0287499Y0105183D01*
X0287499Y0106464D02*
X0285097Y0108866D01*
X0284496Y0108866D01*
X0283896Y0108266D01*
X0283896Y0107065D01*
X0284496Y0106464D01*
X0287499Y0106464D02*
X0287499Y0108866D01*
X0285697Y0110147D02*
X0285697Y0112549D01*
X0283896Y0111949D02*
X0285697Y0110147D01*
X0283896Y0111949D02*
X0287499Y0111949D01*
X0292449Y0127781D02*
X0291849Y0128382D01*
X0291849Y0130784D01*
X0292449Y0131384D01*
X0293650Y0131384D01*
X0294251Y0130784D01*
X0294251Y0128382D01*
X0293650Y0127781D01*
X0292449Y0127781D01*
X0293050Y0128982D02*
X0294251Y0127781D01*
X0295532Y0127781D02*
X0297934Y0127781D01*
X0296733Y0127781D02*
X0296733Y0131384D01*
X0295532Y0130183D01*
X0277617Y0129884D02*
X0277617Y0129283D01*
X0277017Y0128683D01*
X0277617Y0128082D01*
X0277617Y0127482D01*
X0277017Y0126881D01*
X0275816Y0126881D01*
X0275215Y0127482D01*
X0273934Y0126881D02*
X0271532Y0126881D01*
X0273934Y0129283D01*
X0273934Y0129884D01*
X0273334Y0130484D01*
X0272132Y0130484D01*
X0271532Y0129884D01*
X0270251Y0129884D02*
X0270251Y0128683D01*
X0269650Y0128082D01*
X0267849Y0128082D01*
X0269050Y0128082D02*
X0270251Y0126881D01*
X0267849Y0126881D02*
X0267849Y0130484D01*
X0269650Y0130484D01*
X0270251Y0129884D01*
X0275215Y0129884D02*
X0275816Y0130484D01*
X0277017Y0130484D01*
X0277617Y0129884D01*
X0277017Y0128683D02*
X0276416Y0128683D01*
X0258267Y0129183D02*
X0255865Y0126781D01*
X0258267Y0126781D01*
X0258267Y0129183D02*
X0258267Y0129784D01*
X0257667Y0130384D01*
X0256466Y0130384D01*
X0255865Y0129784D01*
X0254584Y0129784D02*
X0253984Y0130384D01*
X0252782Y0130384D01*
X0252182Y0129784D01*
X0250901Y0129784D02*
X0250901Y0128583D01*
X0250300Y0127982D01*
X0248499Y0127982D01*
X0249700Y0127982D02*
X0250901Y0126781D01*
X0252182Y0126781D02*
X0254584Y0129183D01*
X0254584Y0129784D01*
X0254584Y0126781D02*
X0252182Y0126781D01*
X0250901Y0129784D02*
X0250300Y0130384D01*
X0248499Y0130384D01*
X0248499Y0126781D01*
X0243817Y0126781D02*
X0241415Y0126781D01*
X0242616Y0126781D02*
X0242616Y0130384D01*
X0241415Y0129183D01*
X0240134Y0129183D02*
X0240134Y0129784D01*
X0239534Y0130384D01*
X0238332Y0130384D01*
X0237732Y0129784D01*
X0236451Y0129784D02*
X0236451Y0128583D01*
X0235850Y0127982D01*
X0234049Y0127982D01*
X0235250Y0127982D02*
X0236451Y0126781D01*
X0237732Y0126781D02*
X0240134Y0129183D01*
X0240134Y0126781D02*
X0237732Y0126781D01*
X0236451Y0129784D02*
X0235850Y0130384D01*
X0234049Y0130384D01*
X0234049Y0126781D01*
X0241283Y0114534D02*
X0243084Y0114534D01*
X0243685Y0113934D01*
X0243685Y0111532D01*
X0243084Y0110931D01*
X0241283Y0110931D01*
X0241283Y0114534D01*
X0244966Y0113934D02*
X0245566Y0114534D01*
X0246767Y0114534D01*
X0247368Y0113934D01*
X0247368Y0113333D01*
X0246767Y0112733D01*
X0247368Y0112132D01*
X0247368Y0111532D01*
X0246767Y0110931D01*
X0245566Y0110931D01*
X0244966Y0111532D01*
X0246167Y0112733D02*
X0246767Y0112733D01*
X0234084Y0107633D02*
X0231682Y0107633D01*
X0233484Y0109434D01*
X0233484Y0105831D01*
X0230401Y0105831D02*
X0229200Y0107032D01*
X0229800Y0107032D02*
X0227999Y0107032D01*
X0227999Y0105831D02*
X0227999Y0109434D01*
X0229800Y0109434D01*
X0230401Y0108834D01*
X0230401Y0107633D01*
X0229800Y0107032D01*
X0241149Y0102634D02*
X0242950Y0102634D01*
X0243551Y0102034D01*
X0243551Y0099632D01*
X0242950Y0099031D01*
X0241149Y0099031D01*
X0241149Y0102634D01*
X0244832Y0102034D02*
X0245432Y0102634D01*
X0246634Y0102634D01*
X0247234Y0102034D01*
X0247234Y0101433D01*
X0244832Y0099031D01*
X0247234Y0099031D01*
X0246484Y0086484D02*
X0247085Y0085884D01*
X0247085Y0084683D01*
X0246484Y0084082D01*
X0244683Y0084082D01*
X0244683Y0082881D02*
X0244683Y0086484D01*
X0246484Y0086484D01*
X0248366Y0086484D02*
X0248366Y0084683D01*
X0249567Y0085283D01*
X0250167Y0085283D01*
X0250768Y0084683D01*
X0250768Y0083482D01*
X0250167Y0082881D01*
X0248966Y0082881D01*
X0248366Y0083482D01*
X0248366Y0086484D02*
X0250768Y0086484D01*
X0243401Y0086484D02*
X0242200Y0086484D01*
X0242801Y0086484D02*
X0242801Y0083482D01*
X0242200Y0082881D01*
X0241600Y0082881D01*
X0240999Y0083482D01*
X0239699Y0081766D02*
X0239098Y0082366D01*
X0238498Y0082366D01*
X0237897Y0081766D01*
X0237897Y0079964D01*
X0239098Y0079964D01*
X0239699Y0080565D01*
X0239699Y0081766D01*
X0237897Y0079964D02*
X0236696Y0081165D01*
X0236096Y0082366D01*
X0236696Y0078683D02*
X0236096Y0078083D01*
X0236096Y0076882D01*
X0236696Y0076281D01*
X0239098Y0076281D01*
X0239699Y0076882D01*
X0239699Y0078083D01*
X0239098Y0078683D01*
X0254599Y0071434D02*
X0254599Y0067831D01*
X0254599Y0069032D02*
X0256400Y0069032D01*
X0257001Y0069633D01*
X0257001Y0070834D01*
X0256400Y0071434D01*
X0254599Y0071434D01*
X0255800Y0069032D02*
X0257001Y0067831D01*
X0258282Y0067831D02*
X0260684Y0067831D01*
X0259483Y0067831D02*
X0259483Y0071434D01*
X0258282Y0070233D01*
X0261965Y0070233D02*
X0262566Y0069633D01*
X0264367Y0069633D01*
X0264367Y0068432D02*
X0264367Y0070834D01*
X0263767Y0071434D01*
X0262566Y0071434D01*
X0261965Y0070834D01*
X0261965Y0070233D01*
X0261965Y0068432D02*
X0262566Y0067831D01*
X0263767Y0067831D01*
X0264367Y0068432D01*
X0282596Y0069197D02*
X0282596Y0071599D01*
X0283196Y0071599D01*
X0285598Y0069197D01*
X0286199Y0069197D01*
X0286199Y0067916D02*
X0286199Y0065514D01*
X0286199Y0066715D02*
X0282596Y0066715D01*
X0283797Y0065514D01*
X0284397Y0064233D02*
X0284998Y0063633D01*
X0284998Y0061831D01*
X0286199Y0061831D02*
X0282596Y0061831D01*
X0282596Y0063633D01*
X0283196Y0064233D01*
X0284397Y0064233D01*
X0284998Y0063032D02*
X0286199Y0064233D01*
X0304899Y0055934D02*
X0304899Y0053532D01*
X0305499Y0052931D01*
X0306700Y0052931D01*
X0307301Y0053532D01*
X0307301Y0055934D01*
X0306700Y0056534D01*
X0305499Y0056534D01*
X0304899Y0055934D01*
X0308582Y0056534D02*
X0308582Y0052931D01*
X0308582Y0054132D02*
X0310984Y0056534D01*
X0312265Y0055934D02*
X0312866Y0056534D01*
X0314067Y0056534D01*
X0314667Y0055934D01*
X0314667Y0055333D01*
X0314067Y0054733D01*
X0314667Y0054132D01*
X0314667Y0053532D01*
X0314067Y0052931D01*
X0312866Y0052931D01*
X0312265Y0053532D01*
X0310984Y0052931D02*
X0309182Y0054733D01*
X0313466Y0054733D02*
X0314067Y0054733D01*
X0288118Y0046384D02*
X0288118Y0045783D01*
X0287517Y0045183D01*
X0286316Y0045183D01*
X0285716Y0045783D01*
X0285716Y0046384D01*
X0286316Y0046984D01*
X0287517Y0046984D01*
X0288118Y0046384D01*
X0287517Y0045183D02*
X0288118Y0044582D01*
X0288118Y0043982D01*
X0287517Y0043381D01*
X0286316Y0043381D01*
X0285716Y0043982D01*
X0285716Y0044582D01*
X0286316Y0045183D01*
X0284435Y0043381D02*
X0282033Y0043381D01*
X0283234Y0043381D02*
X0283234Y0046984D01*
X0282033Y0045783D01*
X0280751Y0045183D02*
X0280151Y0044582D01*
X0278349Y0044582D01*
X0278349Y0043381D02*
X0278349Y0046984D01*
X0280151Y0046984D01*
X0280751Y0046384D01*
X0280751Y0045183D01*
X0279550Y0044582D02*
X0280751Y0043381D01*
X0270467Y0046031D02*
X0270467Y0049634D01*
X0268665Y0047833D01*
X0271067Y0047833D01*
X0267384Y0047833D02*
X0266784Y0047232D01*
X0264982Y0047232D01*
X0264982Y0046031D02*
X0264982Y0049634D01*
X0266784Y0049634D01*
X0267384Y0049034D01*
X0267384Y0047833D01*
X0263701Y0049634D02*
X0262500Y0049634D01*
X0263100Y0049634D02*
X0263100Y0046632D01*
X0262500Y0046031D01*
X0261899Y0046031D01*
X0261299Y0046632D01*
X0259917Y0046532D02*
X0259917Y0047132D01*
X0259317Y0047733D01*
X0258716Y0047733D01*
X0259317Y0047733D02*
X0259917Y0048333D01*
X0259917Y0048934D01*
X0259317Y0049534D01*
X0258116Y0049534D01*
X0257515Y0048934D01*
X0256234Y0048934D02*
X0256234Y0047733D01*
X0255634Y0047132D01*
X0253832Y0047132D01*
X0253832Y0045931D02*
X0253832Y0049534D01*
X0255634Y0049534D01*
X0256234Y0048934D01*
X0257515Y0046532D02*
X0258116Y0045931D01*
X0259317Y0045931D01*
X0259917Y0046532D01*
X0252551Y0049534D02*
X0251350Y0049534D01*
X0251950Y0049534D02*
X0251950Y0046532D01*
X0251350Y0045931D01*
X0250749Y0045931D01*
X0250149Y0046532D01*
X0222334Y0063081D02*
X0219932Y0063081D01*
X0222334Y0065483D01*
X0222334Y0066084D01*
X0221734Y0066684D01*
X0220532Y0066684D01*
X0219932Y0066084D01*
X0218651Y0066084D02*
X0218651Y0064883D01*
X0218050Y0064282D01*
X0216249Y0064282D01*
X0217450Y0064282D02*
X0218651Y0063081D01*
X0216249Y0063081D02*
X0216249Y0066684D01*
X0218050Y0066684D01*
X0218651Y0066084D01*
X0161334Y0039034D02*
X0161334Y0038434D01*
X0158932Y0036032D01*
X0158932Y0035431D01*
X0157651Y0035431D02*
X0156450Y0036632D01*
X0157050Y0036632D02*
X0155249Y0036632D01*
X0155249Y0035431D02*
X0155249Y0039034D01*
X0157050Y0039034D01*
X0157651Y0038434D01*
X0157651Y0037233D01*
X0157050Y0036632D01*
X0158932Y0039034D02*
X0161334Y0039034D01*
X0283646Y0083731D02*
X0283646Y0085533D01*
X0284246Y0086133D01*
X0285447Y0086133D01*
X0286048Y0085533D01*
X0286048Y0083731D01*
X0287249Y0083731D02*
X0283646Y0083731D01*
X0286048Y0084932D02*
X0287249Y0086133D01*
X0287249Y0087414D02*
X0284847Y0089816D01*
X0284246Y0089816D01*
X0283646Y0089216D01*
X0283646Y0088015D01*
X0284246Y0087414D01*
X0287249Y0087414D02*
X0287249Y0089816D01*
X0286648Y0091097D02*
X0287249Y0091698D01*
X0287249Y0092899D01*
X0286648Y0093499D01*
X0285447Y0093499D01*
X0284847Y0092899D01*
X0284847Y0092298D01*
X0285447Y0091097D01*
X0283646Y0091097D01*
X0283646Y0093499D01*
X0341049Y0061184D02*
X0342850Y0061184D01*
X0343451Y0060584D01*
X0343451Y0059383D01*
X0342850Y0058782D01*
X0341049Y0058782D01*
X0342250Y0058782D02*
X0343451Y0057581D01*
X0344732Y0057581D02*
X0347134Y0057581D01*
X0345933Y0057581D02*
X0345933Y0061184D01*
X0344732Y0059983D01*
X0348415Y0059383D02*
X0350217Y0059383D01*
X0350817Y0058782D01*
X0350817Y0058182D01*
X0350217Y0057581D01*
X0349016Y0057581D01*
X0348415Y0058182D01*
X0348415Y0059383D01*
X0349616Y0060584D01*
X0350817Y0061184D01*
X0341049Y0061184D02*
X0341049Y0057581D01*
X0385549Y0080132D02*
X0386149Y0079531D01*
X0387350Y0079531D01*
X0387951Y0080132D01*
X0389232Y0079531D02*
X0391634Y0079531D01*
X0390433Y0079531D02*
X0390433Y0083134D01*
X0389232Y0081933D01*
X0387951Y0082534D02*
X0387350Y0083134D01*
X0386149Y0083134D01*
X0385549Y0082534D01*
X0385549Y0080132D01*
X0392915Y0080132D02*
X0392915Y0080732D01*
X0393516Y0081333D01*
X0394717Y0081333D01*
X0395317Y0080732D01*
X0395317Y0080132D01*
X0394717Y0079531D01*
X0393516Y0079531D01*
X0392915Y0080132D01*
X0393516Y0081333D02*
X0392915Y0081933D01*
X0392915Y0082534D01*
X0393516Y0083134D01*
X0394717Y0083134D01*
X0395317Y0082534D01*
X0395317Y0081933D01*
X0394717Y0081333D01*
X0400299Y0062184D02*
X0399699Y0061584D01*
X0399699Y0059182D01*
X0400299Y0058581D01*
X0401500Y0058581D01*
X0402101Y0059182D01*
X0402101Y0060383D01*
X0400900Y0060383D01*
X0402101Y0061584D02*
X0401500Y0062184D01*
X0400299Y0062184D01*
X0403382Y0062184D02*
X0405784Y0058581D01*
X0405784Y0062184D01*
X0407065Y0062184D02*
X0408867Y0062184D01*
X0409467Y0061584D01*
X0409467Y0059182D01*
X0408867Y0058581D01*
X0407065Y0058581D01*
X0407065Y0062184D01*
X0403382Y0062184D02*
X0403382Y0058581D01*
X0430119Y0044759D02*
X0430119Y0041156D01*
X0432521Y0041156D01*
X0433802Y0041757D02*
X0434402Y0041156D01*
X0435603Y0041156D01*
X0436204Y0041757D01*
X0436204Y0042958D01*
X0435603Y0043558D01*
X0435003Y0043558D01*
X0433802Y0042958D01*
X0433802Y0044759D01*
X0436204Y0044759D01*
X0449049Y0042034D02*
X0450250Y0042034D01*
X0449649Y0042034D02*
X0449649Y0038431D01*
X0449049Y0038431D02*
X0450250Y0038431D01*
X0451504Y0039032D02*
X0452105Y0038431D01*
X0453306Y0038431D01*
X0453906Y0039032D01*
X0455187Y0038431D02*
X0457589Y0038431D01*
X0456388Y0038431D02*
X0456388Y0042034D01*
X0455187Y0040833D01*
X0453906Y0041434D02*
X0453306Y0042034D01*
X0452105Y0042034D01*
X0451504Y0041434D01*
X0451504Y0039032D01*
X0458871Y0039032D02*
X0459471Y0038431D01*
X0460672Y0038431D01*
X0461273Y0039032D01*
X0461273Y0039632D01*
X0460672Y0040233D01*
X0460072Y0040233D01*
X0460672Y0040233D02*
X0461273Y0040833D01*
X0461273Y0041434D01*
X0460672Y0042034D01*
X0459471Y0042034D01*
X0458871Y0041434D01*
X0477549Y0063581D02*
X0477549Y0067184D01*
X0479350Y0067184D01*
X0479951Y0066584D01*
X0479951Y0065383D01*
X0479350Y0064782D01*
X0477549Y0064782D01*
X0478750Y0064782D02*
X0479951Y0063581D01*
X0481232Y0064182D02*
X0481832Y0063581D01*
X0483034Y0063581D01*
X0483634Y0064182D01*
X0483634Y0065383D01*
X0483034Y0065983D01*
X0482433Y0065983D01*
X0481232Y0065383D01*
X0481232Y0067184D01*
X0483634Y0067184D01*
X0484915Y0065383D02*
X0486717Y0067184D01*
X0486717Y0063581D01*
X0487317Y0065383D02*
X0484915Y0065383D01*
X0485301Y0072731D02*
X0484100Y0073932D01*
X0484700Y0073932D02*
X0482899Y0073932D01*
X0482899Y0072731D02*
X0482899Y0076334D01*
X0484700Y0076334D01*
X0485301Y0075734D01*
X0485301Y0074533D01*
X0484700Y0073932D01*
X0486582Y0073332D02*
X0487182Y0072731D01*
X0488384Y0072731D01*
X0488984Y0073332D01*
X0488984Y0074533D01*
X0488384Y0075133D01*
X0487783Y0075133D01*
X0486582Y0074533D01*
X0486582Y0076334D01*
X0488984Y0076334D01*
X0490265Y0075734D02*
X0490866Y0076334D01*
X0492067Y0076334D01*
X0492667Y0075734D01*
X0492667Y0075133D01*
X0492067Y0074533D01*
X0492667Y0073932D01*
X0492667Y0073332D01*
X0492067Y0072731D01*
X0490866Y0072731D01*
X0490265Y0073332D01*
X0491466Y0074533D02*
X0492067Y0074533D01*
X0439704Y0075008D02*
X0437302Y0075008D01*
X0439103Y0076809D01*
X0439103Y0073206D01*
X0436021Y0073206D02*
X0433619Y0073206D01*
X0433619Y0076809D01*
X0386499Y0103281D02*
X0386499Y0104482D01*
X0386499Y0103882D02*
X0382896Y0103882D01*
X0382896Y0104482D02*
X0382896Y0103281D01*
X0497449Y0128282D02*
X0498050Y0127681D01*
X0498650Y0127681D01*
X0499251Y0128282D01*
X0499251Y0131284D01*
X0499851Y0131284D02*
X0498650Y0131284D01*
X0501133Y0131284D02*
X0502934Y0131284D01*
X0503535Y0130684D01*
X0503535Y0129483D01*
X0502934Y0128882D01*
X0501133Y0128882D01*
X0501133Y0127681D02*
X0501133Y0131284D01*
X0504816Y0130684D02*
X0504816Y0130083D01*
X0505416Y0129483D01*
X0507218Y0129483D01*
X0507218Y0130684D02*
X0506617Y0131284D01*
X0505416Y0131284D01*
X0504816Y0130684D01*
X0507218Y0130684D02*
X0507218Y0128282D01*
X0506617Y0127681D01*
X0505416Y0127681D01*
X0504816Y0128282D01*
X0495539Y0194031D02*
X0494338Y0194031D01*
X0493737Y0194632D01*
X0493737Y0195232D01*
X0494338Y0195833D01*
X0495539Y0195833D01*
X0496139Y0195232D01*
X0496139Y0194632D01*
X0495539Y0194031D01*
X0495539Y0195833D02*
X0496139Y0196433D01*
X0496139Y0197034D01*
X0495539Y0197634D01*
X0494338Y0197634D01*
X0493737Y0197034D01*
X0493737Y0196433D01*
X0494338Y0195833D01*
X0492456Y0197034D02*
X0491856Y0197634D01*
X0490655Y0197634D01*
X0490054Y0197034D01*
X0490054Y0194632D01*
X0490655Y0194031D01*
X0491856Y0194031D01*
X0492456Y0194632D01*
X0488800Y0194031D02*
X0487599Y0194031D01*
X0488199Y0194031D02*
X0488199Y0197634D01*
X0487599Y0197634D02*
X0488800Y0197634D01*
X0474149Y0202432D02*
X0474149Y0203633D01*
X0473548Y0204233D01*
X0473548Y0205514D02*
X0474149Y0206115D01*
X0474149Y0207316D01*
X0473548Y0207916D01*
X0472948Y0207916D01*
X0472347Y0207316D01*
X0472347Y0206715D01*
X0472347Y0207316D02*
X0471747Y0207916D01*
X0471146Y0207916D01*
X0470546Y0207316D01*
X0470546Y0206115D01*
X0471146Y0205514D01*
X0471146Y0204233D02*
X0470546Y0203633D01*
X0470546Y0202432D01*
X0471146Y0201831D01*
X0473548Y0201831D01*
X0474149Y0202432D01*
X0466149Y0201781D02*
X0462546Y0201781D01*
X0462546Y0203583D01*
X0463146Y0204183D01*
X0464347Y0204183D01*
X0464948Y0203583D01*
X0464948Y0201781D01*
X0464948Y0202982D02*
X0466149Y0204183D01*
X0465548Y0205464D02*
X0466149Y0206065D01*
X0466149Y0207266D01*
X0465548Y0207866D01*
X0464948Y0207866D01*
X0464347Y0207266D01*
X0464347Y0205464D01*
X0465548Y0205464D01*
X0464347Y0205464D02*
X0463146Y0206665D01*
X0462546Y0207866D01*
X0462546Y0209147D02*
X0464347Y0209147D01*
X0463747Y0210348D01*
X0463747Y0210949D01*
X0464347Y0211549D01*
X0465548Y0211549D01*
X0466149Y0210949D01*
X0466149Y0209748D01*
X0465548Y0209147D01*
X0462546Y0209147D02*
X0462546Y0211549D01*
X0470546Y0211599D02*
X0470546Y0209197D01*
X0472347Y0209197D01*
X0471747Y0210398D01*
X0471747Y0210999D01*
X0472347Y0211599D01*
X0473548Y0211599D01*
X0474149Y0210999D01*
X0474149Y0209798D01*
X0473548Y0209197D01*
X0504599Y0203884D02*
X0504599Y0201482D01*
X0505199Y0200881D01*
X0506400Y0200881D01*
X0507001Y0201482D01*
X0508282Y0200881D02*
X0510684Y0203283D01*
X0510684Y0203884D01*
X0510084Y0204484D01*
X0508882Y0204484D01*
X0508282Y0203884D01*
X0507001Y0203884D02*
X0506400Y0204484D01*
X0505199Y0204484D01*
X0504599Y0203884D01*
X0508282Y0200881D02*
X0510684Y0200881D01*
X0511965Y0202683D02*
X0514367Y0202683D01*
X0513767Y0204484D02*
X0511965Y0202683D01*
X0513767Y0204484D02*
X0513767Y0200881D01*
X0250018Y0185081D02*
X0247616Y0185081D01*
X0248817Y0185081D02*
X0248817Y0188684D01*
X0247616Y0187483D01*
X0246335Y0186883D02*
X0245734Y0186282D01*
X0243933Y0186282D01*
X0243933Y0185081D02*
X0243933Y0188684D01*
X0245734Y0188684D01*
X0246335Y0188084D01*
X0246335Y0186883D01*
X0242651Y0188684D02*
X0241450Y0188684D01*
X0242051Y0188684D02*
X0242051Y0185682D01*
X0241450Y0185081D01*
X0240850Y0185081D01*
X0240249Y0185682D01*
X0196418Y0218581D02*
X0195217Y0219782D01*
X0195817Y0219782D02*
X0194016Y0219782D01*
X0194016Y0218581D02*
X0194016Y0222184D01*
X0195817Y0222184D01*
X0196418Y0221584D01*
X0196418Y0220383D01*
X0195817Y0219782D01*
X0201349Y0234231D02*
X0202550Y0234231D01*
X0201949Y0234231D02*
X0201949Y0237834D01*
X0201349Y0237834D02*
X0202550Y0237834D01*
X0203804Y0237234D02*
X0203804Y0234832D01*
X0204405Y0234231D01*
X0205606Y0234231D01*
X0206206Y0234832D01*
X0207487Y0234231D02*
X0209889Y0236633D01*
X0209889Y0237234D01*
X0209289Y0237834D01*
X0208088Y0237834D01*
X0207487Y0237234D01*
X0206206Y0237234D02*
X0205606Y0237834D01*
X0204405Y0237834D01*
X0203804Y0237234D01*
X0207487Y0234231D02*
X0209889Y0234231D01*
X0150586Y0266312D02*
X0150586Y0268714D01*
X0150586Y0269996D02*
X0150586Y0271797D01*
X0149985Y0272398D01*
X0147583Y0272398D01*
X0146983Y0271797D01*
X0146983Y0269996D01*
X0150586Y0269996D01*
X0147583Y0268714D02*
X0149985Y0266312D01*
X0150586Y0266312D01*
X0146983Y0266312D02*
X0146983Y0268714D01*
X0147583Y0268714D01*
X0148184Y0273679D02*
X0146983Y0274880D01*
X0150586Y0274880D01*
X0150586Y0273679D02*
X0150586Y0276081D01*
X0095399Y0221771D02*
X0095399Y0219369D01*
X0095399Y0220570D02*
X0091796Y0220570D01*
X0092997Y0219369D01*
X0095999Y0218087D02*
X0095999Y0215685D01*
X0095399Y0214404D02*
X0092997Y0214404D01*
X0091796Y0213203D01*
X0092997Y0212002D01*
X0095399Y0212002D01*
X0094798Y0210721D02*
X0095399Y0210121D01*
X0095399Y0208920D01*
X0094798Y0208319D01*
X0092396Y0210721D01*
X0094798Y0210721D01*
X0093597Y0212002D02*
X0093597Y0214404D01*
X0092396Y0210721D02*
X0091796Y0210121D01*
X0091796Y0208920D01*
X0092396Y0208319D01*
X0094798Y0208319D01*
X0095399Y0207038D02*
X0095399Y0204636D01*
X0095399Y0205837D02*
X0091796Y0205837D01*
X0092997Y0204636D01*
X0095399Y0203355D02*
X0095399Y0200953D01*
X0091796Y0200953D01*
X0091796Y0199672D02*
X0091796Y0197270D01*
X0095399Y0197270D01*
X0095399Y0199672D01*
X0093597Y0198471D02*
X0093597Y0197270D01*
X0094198Y0195989D02*
X0093597Y0195388D01*
X0093597Y0194187D01*
X0092997Y0193587D01*
X0092396Y0193587D01*
X0091796Y0194187D01*
X0091796Y0195388D01*
X0092396Y0195989D01*
X0094198Y0195989D02*
X0094798Y0195989D01*
X0095399Y0195388D01*
X0095399Y0194187D01*
X0094798Y0193587D01*
X0095399Y0192332D02*
X0095399Y0191131D01*
X0095399Y0191732D02*
X0091796Y0191732D01*
X0091796Y0192332D02*
X0091796Y0191131D01*
X0120399Y0175284D02*
X0122200Y0175284D01*
X0122801Y0174684D01*
X0122801Y0173483D01*
X0122200Y0172882D01*
X0120399Y0172882D01*
X0121600Y0172882D02*
X0122801Y0171681D01*
X0124082Y0172282D02*
X0124682Y0171681D01*
X0125884Y0171681D01*
X0126484Y0172282D01*
X0126484Y0172882D01*
X0125884Y0173483D01*
X0124682Y0173483D01*
X0124082Y0174083D01*
X0124082Y0174684D01*
X0124682Y0175284D01*
X0125884Y0175284D01*
X0126484Y0174684D01*
X0126484Y0174083D01*
X0125884Y0173483D01*
X0124682Y0173483D02*
X0124082Y0172882D01*
X0124082Y0172282D01*
X0120399Y0171681D02*
X0120399Y0175284D01*
X0138399Y0142434D02*
X0138399Y0138831D01*
X0140801Y0138831D01*
X0142082Y0138831D02*
X0144484Y0141233D01*
X0144484Y0141834D01*
X0143884Y0142434D01*
X0142682Y0142434D01*
X0142082Y0141834D01*
X0142082Y0138831D02*
X0144484Y0138831D01*
X0127866Y0117034D02*
X0127866Y0113431D01*
X0126665Y0113431D02*
X0129067Y0113431D01*
X0126665Y0115833D02*
X0127866Y0117034D01*
X0124183Y0117034D02*
X0122982Y0115833D01*
X0121701Y0115233D02*
X0121100Y0114632D01*
X0119299Y0114632D01*
X0120500Y0114632D02*
X0121701Y0113431D01*
X0122982Y0113431D02*
X0125384Y0113431D01*
X0124183Y0113431D02*
X0124183Y0117034D01*
X0121701Y0116434D02*
X0121701Y0115233D01*
X0121701Y0116434D02*
X0121100Y0117034D01*
X0119299Y0117034D01*
X0119299Y0113431D01*
X0176999Y0114784D02*
X0178200Y0114784D01*
X0177599Y0114784D02*
X0177599Y0111181D01*
X0176999Y0111181D02*
X0178200Y0111181D01*
X0179454Y0111782D02*
X0180055Y0111181D01*
X0181256Y0111181D01*
X0181856Y0111782D01*
X0183137Y0111181D02*
X0185539Y0111181D01*
X0184338Y0111181D02*
X0184338Y0114784D01*
X0183137Y0113583D01*
X0181856Y0114184D02*
X0181256Y0114784D01*
X0180055Y0114784D01*
X0179454Y0114184D01*
X0179454Y0111782D01*
X0184819Y0120156D02*
X0187221Y0120156D01*
X0188502Y0120757D02*
X0189102Y0120156D01*
X0190303Y0120156D01*
X0190904Y0120757D01*
X0190904Y0121357D01*
X0190303Y0121958D01*
X0189703Y0121958D01*
X0190303Y0121958D02*
X0190904Y0122558D01*
X0190904Y0123159D01*
X0190303Y0123759D01*
X0189102Y0123759D01*
X0188502Y0123159D01*
X0184819Y0123759D02*
X0184819Y0120156D01*
D14*
X0440249Y0125828D02*
X0441249Y0125828D01*
X0441249Y0127328D01*
X0440249Y0127328D01*
X0440249Y0125828D01*
X0440249Y0125852D02*
X0441249Y0125852D01*
X0441249Y0125951D02*
X0440249Y0125951D01*
X0440249Y0126049D02*
X0441249Y0126049D01*
X0441249Y0126148D02*
X0440249Y0126148D01*
X0440249Y0126246D02*
X0441249Y0126246D01*
X0441249Y0126345D02*
X0440249Y0126345D01*
X0440249Y0126443D02*
X0441249Y0126443D01*
X0441249Y0126542D02*
X0440249Y0126542D01*
X0440249Y0126640D02*
X0441249Y0126640D01*
X0441249Y0126739D02*
X0440249Y0126739D01*
X0440249Y0126837D02*
X0441249Y0126837D01*
X0441249Y0126936D02*
X0440249Y0126936D01*
X0440249Y0127034D02*
X0441249Y0127034D01*
X0441249Y0127133D02*
X0440249Y0127133D01*
X0440249Y0127231D02*
X0441249Y0127231D01*
X0458041Y0103131D02*
X0459541Y0103131D01*
X0459541Y0102131D01*
X0458041Y0102131D01*
X0458041Y0103131D01*
X0458041Y0103096D02*
X0459541Y0103096D01*
X0459541Y0102998D02*
X0458041Y0102998D01*
X0458041Y0102899D02*
X0459541Y0102899D01*
X0459541Y0102801D02*
X0458041Y0102801D01*
X0458041Y0102702D02*
X0459541Y0102702D01*
X0459541Y0102604D02*
X0458041Y0102604D01*
X0458041Y0102505D02*
X0459541Y0102505D01*
X0459541Y0102407D02*
X0458041Y0102407D01*
X0458041Y0102308D02*
X0459541Y0102308D01*
X0459541Y0102210D02*
X0458041Y0102210D01*
X0477726Y0102210D02*
X0479226Y0102210D01*
X0479226Y0102131D02*
X0479226Y0103131D01*
X0477726Y0103131D01*
X0477726Y0102131D01*
X0479226Y0102131D01*
X0479226Y0102308D02*
X0477726Y0102308D01*
X0477726Y0102407D02*
X0479226Y0102407D01*
X0479226Y0102505D02*
X0477726Y0102505D01*
X0477726Y0102604D02*
X0479226Y0102604D01*
X0479226Y0102702D02*
X0477726Y0102702D01*
X0477726Y0102801D02*
X0479226Y0102801D01*
X0479226Y0102899D02*
X0477726Y0102899D01*
X0477726Y0102998D02*
X0479226Y0102998D01*
X0479226Y0103096D02*
X0477726Y0103096D01*
X0494049Y0127797D02*
X0494049Y0129297D01*
X0495049Y0129297D01*
X0495049Y0127797D01*
X0494049Y0127797D01*
X0494049Y0127822D02*
X0495049Y0127822D01*
X0495049Y0127921D02*
X0494049Y0127921D01*
X0494049Y0128019D02*
X0495049Y0128019D01*
X0495049Y0128118D02*
X0494049Y0128118D01*
X0494049Y0128216D02*
X0495049Y0128216D01*
X0495049Y0128315D02*
X0494049Y0128315D01*
X0494049Y0128414D02*
X0495049Y0128414D01*
X0495049Y0128512D02*
X0494049Y0128512D01*
X0494049Y0128611D02*
X0495049Y0128611D01*
X0495049Y0128709D02*
X0494049Y0128709D01*
X0494049Y0128808D02*
X0495049Y0128808D01*
X0495049Y0128906D02*
X0494049Y0128906D01*
X0494049Y0129005D02*
X0495049Y0129005D01*
X0495049Y0129103D02*
X0494049Y0129103D01*
X0494049Y0129202D02*
X0495049Y0129202D01*
X0481194Y0155931D02*
X0479694Y0155931D01*
X0479694Y0156931D01*
X0481194Y0156931D01*
X0481194Y0155931D01*
X0481194Y0155997D02*
X0479694Y0155997D01*
X0479694Y0156095D02*
X0481194Y0156095D01*
X0481194Y0156194D02*
X0479694Y0156194D01*
X0479694Y0156292D02*
X0481194Y0156292D01*
X0481194Y0156391D02*
X0479694Y0156391D01*
X0479694Y0156489D02*
X0481194Y0156489D01*
X0481194Y0156588D02*
X0479694Y0156588D01*
X0479694Y0156686D02*
X0481194Y0156686D01*
X0481194Y0156785D02*
X0479694Y0156785D01*
X0479694Y0156883D02*
X0481194Y0156883D01*
X0461509Y0156883D02*
X0460009Y0156883D01*
X0460009Y0156931D02*
X0461509Y0156931D01*
X0461509Y0155931D01*
X0460009Y0155931D01*
X0460009Y0156931D01*
X0460009Y0156785D02*
X0461509Y0156785D01*
X0461509Y0156686D02*
X0460009Y0156686D01*
X0460009Y0156588D02*
X0461509Y0156588D01*
X0461509Y0156489D02*
X0460009Y0156489D01*
X0460009Y0156391D02*
X0461509Y0156391D01*
X0461509Y0156292D02*
X0460009Y0156292D01*
X0460009Y0156194D02*
X0461509Y0156194D01*
X0461509Y0156095D02*
X0460009Y0156095D01*
X0460009Y0155997D02*
X0461509Y0155997D01*
X0160349Y0279581D02*
X0159349Y0279581D01*
X0159349Y0281081D01*
X0160349Y0281081D01*
X0160349Y0279581D01*
X0160349Y0279628D02*
X0159349Y0279628D01*
X0159349Y0279727D02*
X0160349Y0279727D01*
X0160349Y0279825D02*
X0159349Y0279825D01*
X0159349Y0279924D02*
X0160349Y0279924D01*
X0160349Y0280022D02*
X0159349Y0280022D01*
X0159349Y0280121D02*
X0160349Y0280121D01*
X0160349Y0280219D02*
X0159349Y0280219D01*
X0159349Y0280318D02*
X0160349Y0280318D01*
X0160349Y0280416D02*
X0159349Y0280416D01*
X0159349Y0280515D02*
X0160349Y0280515D01*
X0160349Y0280614D02*
X0159349Y0280614D01*
X0159349Y0280712D02*
X0160349Y0280712D01*
X0160349Y0280811D02*
X0159349Y0280811D01*
X0159349Y0280909D02*
X0160349Y0280909D01*
X0160349Y0281008D02*
X0159349Y0281008D01*
D15*
X0154849Y0272343D03*
D16*
X0384396Y0149125D02*
X0384880Y0149609D01*
X0385364Y0149609D01*
X0385848Y0149125D01*
X0386331Y0149609D01*
X0386815Y0149609D01*
X0387299Y0149125D01*
X0387299Y0148158D01*
X0386815Y0147674D01*
X0386815Y0146663D02*
X0387299Y0146179D01*
X0387299Y0145211D01*
X0386815Y0144728D01*
X0387299Y0143716D02*
X0386331Y0142749D01*
X0386331Y0143232D02*
X0386331Y0141781D01*
X0387299Y0141781D02*
X0384396Y0141781D01*
X0384396Y0143232D01*
X0384880Y0143716D01*
X0385848Y0143716D01*
X0386331Y0143232D01*
X0384880Y0144728D02*
X0384396Y0145211D01*
X0384396Y0146179D01*
X0384880Y0146663D01*
X0385364Y0146663D01*
X0385848Y0146179D01*
X0386331Y0146663D01*
X0386815Y0146663D01*
X0385848Y0146179D02*
X0385848Y0145695D01*
X0384880Y0147674D02*
X0384396Y0148158D01*
X0384396Y0149125D01*
X0385848Y0149125D02*
X0385848Y0148642D01*
X0388249Y0142184D02*
X0389700Y0142184D01*
X0390184Y0141700D01*
X0390184Y0140732D01*
X0389700Y0140249D01*
X0388249Y0140249D01*
X0389216Y0140249D02*
X0390184Y0139281D01*
X0391195Y0139281D02*
X0393130Y0141216D01*
X0393130Y0141700D01*
X0392647Y0142184D01*
X0391679Y0142184D01*
X0391195Y0141700D01*
X0391195Y0139281D02*
X0393130Y0139281D01*
X0394142Y0139765D02*
X0394626Y0139281D01*
X0395593Y0139281D01*
X0396077Y0139765D01*
X0396077Y0141700D01*
X0395593Y0142184D01*
X0394626Y0142184D01*
X0394142Y0141700D01*
X0394142Y0141216D01*
X0394626Y0140732D01*
X0396077Y0140732D01*
X0388249Y0139281D02*
X0388249Y0142184D01*
X0411999Y0129234D02*
X0413450Y0129234D01*
X0413934Y0128750D01*
X0413934Y0126815D01*
X0413450Y0126331D01*
X0411999Y0126331D01*
X0411999Y0129234D01*
X0414945Y0128266D02*
X0415913Y0129234D01*
X0415913Y0126331D01*
X0416880Y0126331D02*
X0414945Y0126331D01*
X0417892Y0126815D02*
X0419827Y0128750D01*
X0419827Y0126815D01*
X0419343Y0126331D01*
X0418376Y0126331D01*
X0417892Y0126815D01*
X0417892Y0128750D01*
X0418376Y0129234D01*
X0419343Y0129234D01*
X0419827Y0128750D01*
X0417663Y0106784D02*
X0417663Y0103881D01*
X0418630Y0103881D02*
X0416695Y0103881D01*
X0415684Y0104365D02*
X0415684Y0106300D01*
X0415200Y0106784D01*
X0413749Y0106784D01*
X0413749Y0103881D01*
X0415200Y0103881D01*
X0415684Y0104365D01*
X0416695Y0105816D02*
X0417663Y0106784D01*
X0447596Y0091586D02*
X0449048Y0090135D01*
X0449048Y0092070D01*
X0450499Y0091586D02*
X0447596Y0091586D01*
X0448080Y0089123D02*
X0448564Y0089123D01*
X0449048Y0088639D01*
X0449531Y0089123D01*
X0450015Y0089123D01*
X0450499Y0088639D01*
X0450499Y0087672D01*
X0450015Y0087188D01*
X0450015Y0086177D02*
X0450499Y0085693D01*
X0450499Y0084725D01*
X0450015Y0084242D01*
X0448080Y0084242D01*
X0447596Y0084725D01*
X0447596Y0085693D01*
X0448080Y0086177D01*
X0448080Y0087188D02*
X0447596Y0087672D01*
X0447596Y0088639D01*
X0448080Y0089123D01*
X0449048Y0088639D02*
X0449048Y0088156D01*
X0448577Y0076034D02*
X0447609Y0075550D01*
X0446642Y0074582D01*
X0448093Y0074582D01*
X0448577Y0074099D01*
X0448577Y0073615D01*
X0448093Y0073131D01*
X0447126Y0073131D01*
X0446642Y0073615D01*
X0446642Y0074582D01*
X0445630Y0074582D02*
X0443695Y0074582D01*
X0445147Y0076034D01*
X0445147Y0073131D01*
X0442684Y0073615D02*
X0442200Y0073131D01*
X0441233Y0073131D01*
X0440749Y0073615D01*
X0440749Y0075550D01*
X0441233Y0076034D01*
X0442200Y0076034D01*
X0442684Y0075550D01*
X0413127Y0074634D02*
X0413127Y0074150D01*
X0411192Y0072215D01*
X0411192Y0071731D01*
X0410180Y0071731D02*
X0408245Y0071731D01*
X0410180Y0073666D01*
X0410180Y0074150D01*
X0409697Y0074634D01*
X0408729Y0074634D01*
X0408245Y0074150D01*
X0407234Y0074150D02*
X0407234Y0073182D01*
X0406750Y0072699D01*
X0405299Y0072699D01*
X0404577Y0072649D02*
X0404093Y0073132D01*
X0402642Y0073132D01*
X0402642Y0072165D01*
X0403126Y0071681D01*
X0404093Y0071681D01*
X0404577Y0072165D01*
X0404577Y0072649D01*
X0405299Y0071731D02*
X0405299Y0074634D01*
X0406750Y0074634D01*
X0407234Y0074150D01*
X0406266Y0072699D02*
X0407234Y0071731D01*
X0404577Y0074584D02*
X0403609Y0074100D01*
X0402642Y0073132D01*
X0401630Y0073616D02*
X0401630Y0074100D01*
X0401147Y0074584D01*
X0400179Y0074584D01*
X0399695Y0074100D01*
X0398684Y0074100D02*
X0398684Y0073132D01*
X0398200Y0072649D01*
X0396749Y0072649D01*
X0397716Y0072649D02*
X0398684Y0071681D01*
X0399695Y0071681D02*
X0401630Y0073616D01*
X0401630Y0071681D02*
X0399695Y0071681D01*
X0398684Y0074100D02*
X0398200Y0074584D01*
X0396749Y0074584D01*
X0396749Y0071681D01*
X0411192Y0074634D02*
X0413127Y0074634D01*
X0438983Y0045234D02*
X0438499Y0044750D01*
X0438499Y0042815D01*
X0438983Y0042331D01*
X0439950Y0042331D01*
X0440434Y0042815D01*
X0441445Y0043782D02*
X0443380Y0043782D01*
X0444392Y0042815D02*
X0446327Y0044750D01*
X0446327Y0045234D01*
X0444392Y0045234D01*
X0442897Y0045234D02*
X0441445Y0043782D01*
X0440434Y0044750D02*
X0439950Y0045234D01*
X0438983Y0045234D01*
X0442897Y0045234D02*
X0442897Y0042331D01*
X0444392Y0042331D02*
X0444392Y0042815D01*
X0479899Y0048565D02*
X0480383Y0048081D01*
X0481350Y0048081D01*
X0481834Y0048565D01*
X0482845Y0049532D02*
X0484780Y0049532D01*
X0485792Y0050016D02*
X0486276Y0049532D01*
X0487727Y0049532D01*
X0487727Y0048565D02*
X0487727Y0050500D01*
X0487243Y0050984D01*
X0486276Y0050984D01*
X0485792Y0050500D01*
X0485792Y0050016D01*
X0485792Y0048565D02*
X0486276Y0048081D01*
X0487243Y0048081D01*
X0487727Y0048565D01*
X0484297Y0048081D02*
X0484297Y0050984D01*
X0482845Y0049532D01*
X0481834Y0050500D02*
X0481350Y0050984D01*
X0480383Y0050984D01*
X0479899Y0050500D01*
X0479899Y0048565D01*
X0504546Y0083942D02*
X0504546Y0085393D01*
X0505030Y0085877D01*
X0505998Y0085877D01*
X0506481Y0085393D01*
X0506481Y0083942D01*
X0506481Y0084909D02*
X0507449Y0085877D01*
X0506965Y0086888D02*
X0507449Y0087372D01*
X0507449Y0088339D01*
X0506965Y0088823D01*
X0505998Y0088823D01*
X0505514Y0088339D01*
X0505514Y0087856D01*
X0505998Y0086888D01*
X0504546Y0086888D01*
X0504546Y0088823D01*
X0505514Y0089835D02*
X0504546Y0090802D01*
X0507449Y0090802D01*
X0507449Y0089835D02*
X0507449Y0091770D01*
X0507449Y0083942D02*
X0504546Y0083942D01*
X0494692Y0100981D02*
X0494692Y0101465D01*
X0496627Y0103400D01*
X0496627Y0103884D01*
X0494692Y0103884D01*
X0493680Y0103400D02*
X0493197Y0103884D01*
X0492229Y0103884D01*
X0491745Y0103400D01*
X0490734Y0103400D02*
X0490250Y0103884D01*
X0489283Y0103884D01*
X0488799Y0103400D01*
X0488799Y0101465D01*
X0489283Y0100981D01*
X0490250Y0100981D01*
X0490734Y0101465D01*
X0491745Y0100981D02*
X0493680Y0102916D01*
X0493680Y0103400D01*
X0493680Y0100981D02*
X0491745Y0100981D01*
X0487927Y0101115D02*
X0487443Y0100631D01*
X0486476Y0100631D01*
X0485992Y0101115D01*
X0484980Y0101115D02*
X0484497Y0100631D01*
X0483529Y0100631D01*
X0483045Y0101115D01*
X0482034Y0101115D02*
X0481550Y0100631D01*
X0480583Y0100631D01*
X0480099Y0101115D01*
X0480099Y0103050D01*
X0480583Y0103534D01*
X0481550Y0103534D01*
X0482034Y0103050D01*
X0483045Y0103050D02*
X0483529Y0103534D01*
X0484497Y0103534D01*
X0484980Y0103050D01*
X0484980Y0102566D01*
X0484497Y0102082D01*
X0484980Y0101599D01*
X0484980Y0101115D01*
X0484497Y0102082D02*
X0484013Y0102082D01*
X0485992Y0103050D02*
X0486476Y0103534D01*
X0487443Y0103534D01*
X0487927Y0103050D01*
X0487927Y0102566D01*
X0487443Y0102082D01*
X0487927Y0101599D01*
X0487927Y0101115D01*
X0487443Y0102082D02*
X0486959Y0102082D01*
X0492380Y0145981D02*
X0494315Y0145981D01*
X0494799Y0146465D01*
X0494799Y0147432D01*
X0494315Y0147916D01*
X0494315Y0148928D02*
X0494799Y0149411D01*
X0494799Y0150379D01*
X0494315Y0150863D01*
X0493831Y0150863D01*
X0493348Y0150379D01*
X0493348Y0148928D01*
X0494315Y0148928D01*
X0493348Y0148928D02*
X0492380Y0149895D01*
X0491896Y0150863D01*
X0492380Y0151874D02*
X0491896Y0152358D01*
X0491896Y0153325D01*
X0492380Y0153809D01*
X0494315Y0151874D01*
X0494799Y0152358D01*
X0494799Y0153325D01*
X0494315Y0153809D01*
X0492380Y0153809D01*
X0492380Y0151874D02*
X0494315Y0151874D01*
X0499649Y0157065D02*
X0500133Y0156581D01*
X0501100Y0156581D01*
X0501584Y0157065D01*
X0502595Y0157065D02*
X0503079Y0156581D01*
X0504047Y0156581D01*
X0504530Y0157065D01*
X0504530Y0157549D01*
X0504047Y0158032D01*
X0502595Y0158032D01*
X0502595Y0157065D01*
X0502595Y0158032D02*
X0503563Y0159000D01*
X0504530Y0159484D01*
X0505542Y0159000D02*
X0506026Y0159484D01*
X0506993Y0159484D01*
X0507477Y0159000D01*
X0507477Y0158516D01*
X0505542Y0156581D01*
X0507477Y0156581D01*
X0501584Y0159000D02*
X0501100Y0159484D01*
X0500133Y0159484D01*
X0499649Y0159000D01*
X0499649Y0157065D01*
X0511496Y0161858D02*
X0511496Y0162826D01*
X0511496Y0162342D02*
X0513915Y0162342D01*
X0514399Y0161858D01*
X0514399Y0161375D01*
X0513915Y0160891D01*
X0513431Y0163837D02*
X0513431Y0165289D01*
X0512948Y0165772D01*
X0511980Y0165772D01*
X0511496Y0165289D01*
X0511496Y0163837D01*
X0514399Y0163837D01*
X0513915Y0166784D02*
X0513431Y0166784D01*
X0512948Y0167268D01*
X0512948Y0168235D01*
X0513431Y0168719D01*
X0513915Y0168719D01*
X0514399Y0168235D01*
X0514399Y0167268D01*
X0513915Y0166784D01*
X0512948Y0167268D02*
X0512464Y0166784D01*
X0511980Y0166784D01*
X0511496Y0167268D01*
X0511496Y0168235D01*
X0511980Y0168719D01*
X0512464Y0168719D01*
X0512948Y0168235D01*
X0512027Y0172081D02*
X0510092Y0172081D01*
X0512027Y0174016D01*
X0512027Y0174500D01*
X0511543Y0174984D01*
X0510576Y0174984D01*
X0510092Y0174500D01*
X0509080Y0174984D02*
X0507145Y0174984D01*
X0507145Y0173532D01*
X0508113Y0174016D01*
X0508597Y0174016D01*
X0509080Y0173532D01*
X0509080Y0172565D01*
X0508597Y0172081D01*
X0507629Y0172081D01*
X0507145Y0172565D01*
X0506134Y0172081D02*
X0505166Y0173049D01*
X0505650Y0173049D02*
X0504199Y0173049D01*
X0504199Y0172081D02*
X0504199Y0174984D01*
X0505650Y0174984D01*
X0506134Y0174500D01*
X0506134Y0173532D01*
X0505650Y0173049D01*
X0492380Y0147916D02*
X0491896Y0147432D01*
X0491896Y0146465D01*
X0492380Y0145981D01*
X0455449Y0172165D02*
X0454965Y0171681D01*
X0453030Y0171681D01*
X0452546Y0172165D01*
X0452546Y0173132D01*
X0453030Y0173616D01*
X0453998Y0174628D02*
X0453030Y0175595D01*
X0452546Y0176563D01*
X0453030Y0177574D02*
X0452546Y0178058D01*
X0452546Y0179025D01*
X0453030Y0179509D01*
X0453514Y0179509D01*
X0453998Y0179025D01*
X0454481Y0179509D01*
X0454965Y0179509D01*
X0455449Y0179025D01*
X0455449Y0178058D01*
X0454965Y0177574D01*
X0454965Y0176563D02*
X0454481Y0176563D01*
X0453998Y0176079D01*
X0453998Y0174628D01*
X0454965Y0174628D01*
X0455449Y0175111D01*
X0455449Y0176079D01*
X0454965Y0176563D01*
X0453998Y0178542D02*
X0453998Y0179025D01*
X0454965Y0173616D02*
X0455449Y0173132D01*
X0455449Y0172165D01*
X0440099Y0171575D02*
X0437196Y0171575D01*
X0438648Y0170124D01*
X0438648Y0172059D01*
X0439131Y0169113D02*
X0438648Y0168629D01*
X0438648Y0167178D01*
X0439615Y0167178D01*
X0440099Y0167661D01*
X0440099Y0168629D01*
X0439615Y0169113D01*
X0439131Y0169113D01*
X0437680Y0168145D02*
X0438648Y0167178D01*
X0437680Y0168145D02*
X0437196Y0169113D01*
X0437680Y0166166D02*
X0437196Y0165682D01*
X0437196Y0164715D01*
X0437680Y0164231D01*
X0439615Y0164231D01*
X0440099Y0164715D01*
X0440099Y0165682D01*
X0439615Y0166166D01*
X0422499Y0158828D02*
X0422015Y0158828D01*
X0420080Y0160763D01*
X0419596Y0160763D01*
X0419596Y0158828D01*
X0420080Y0157816D02*
X0419596Y0157332D01*
X0419596Y0155881D01*
X0422499Y0155881D01*
X0422499Y0157332D01*
X0422015Y0157816D01*
X0420080Y0157816D01*
X0409699Y0157232D02*
X0409215Y0157716D01*
X0407280Y0157716D01*
X0406796Y0157232D01*
X0406796Y0155781D01*
X0409699Y0155781D01*
X0409699Y0157232D01*
X0409215Y0158728D02*
X0409699Y0159211D01*
X0409699Y0160179D01*
X0409215Y0160663D01*
X0408731Y0160663D01*
X0408248Y0160179D01*
X0408248Y0158728D01*
X0409215Y0158728D01*
X0408248Y0158728D02*
X0407280Y0159695D01*
X0406796Y0160663D01*
X0406796Y0182631D02*
X0406796Y0184082D01*
X0407280Y0184566D01*
X0409215Y0184566D01*
X0409699Y0184082D01*
X0409699Y0182631D01*
X0406796Y0182631D01*
X0407280Y0185578D02*
X0407764Y0185578D01*
X0408248Y0186061D01*
X0408248Y0187513D01*
X0409215Y0187513D02*
X0407280Y0187513D01*
X0406796Y0187029D01*
X0406796Y0186061D01*
X0407280Y0185578D01*
X0409215Y0185578D02*
X0409699Y0186061D01*
X0409699Y0187029D01*
X0409215Y0187513D01*
X0419596Y0187179D02*
X0419596Y0186211D01*
X0420080Y0185728D01*
X0420564Y0185728D01*
X0421048Y0186211D01*
X0421048Y0187179D01*
X0421531Y0187663D01*
X0422015Y0187663D01*
X0422499Y0187179D01*
X0422499Y0186211D01*
X0422015Y0185728D01*
X0421531Y0185728D01*
X0421048Y0186211D01*
X0421048Y0187179D02*
X0420564Y0187663D01*
X0420080Y0187663D01*
X0419596Y0187179D01*
X0420080Y0184716D02*
X0419596Y0184232D01*
X0419596Y0182781D01*
X0422499Y0182781D01*
X0422499Y0184232D01*
X0422015Y0184716D01*
X0420080Y0184716D01*
X0394299Y0198881D02*
X0391396Y0198881D01*
X0391396Y0200332D01*
X0391880Y0200816D01*
X0392848Y0200816D01*
X0393331Y0200332D01*
X0393331Y0198881D01*
X0393331Y0199849D02*
X0394299Y0200816D01*
X0393815Y0201828D02*
X0394299Y0202311D01*
X0394299Y0203279D01*
X0393815Y0203763D01*
X0393331Y0203763D01*
X0392848Y0203279D01*
X0392848Y0202795D01*
X0392848Y0203279D02*
X0392364Y0203763D01*
X0391880Y0203763D01*
X0391396Y0203279D01*
X0391396Y0202311D01*
X0391880Y0201828D01*
X0392364Y0204774D02*
X0391396Y0205742D01*
X0394299Y0205742D01*
X0394299Y0206709D02*
X0394299Y0204774D01*
X0406846Y0209681D02*
X0406846Y0211132D01*
X0407330Y0211616D01*
X0409265Y0211616D01*
X0409749Y0211132D01*
X0409749Y0209681D01*
X0406846Y0209681D01*
X0408298Y0212628D02*
X0408298Y0214563D01*
X0409749Y0214079D02*
X0406846Y0214079D01*
X0408298Y0212628D01*
X0419546Y0212578D02*
X0420998Y0212578D01*
X0420514Y0213545D01*
X0420514Y0214029D01*
X0420998Y0214513D01*
X0421965Y0214513D01*
X0422449Y0214029D01*
X0422449Y0213061D01*
X0421965Y0212578D01*
X0421965Y0211566D02*
X0420030Y0211566D01*
X0419546Y0211082D01*
X0419546Y0209631D01*
X0422449Y0209631D01*
X0422449Y0211082D01*
X0421965Y0211566D01*
X0419546Y0212578D02*
X0419546Y0214513D01*
X0338127Y0132750D02*
X0338127Y0132266D01*
X0337643Y0131782D01*
X0338127Y0131299D01*
X0338127Y0130815D01*
X0337643Y0130331D01*
X0336676Y0130331D01*
X0336192Y0130815D01*
X0335180Y0130331D02*
X0333245Y0130331D01*
X0334213Y0130331D02*
X0334213Y0133234D01*
X0333245Y0132266D01*
X0332234Y0131782D02*
X0331750Y0131299D01*
X0330299Y0131299D01*
X0331266Y0131299D02*
X0332234Y0130331D01*
X0332234Y0131782D02*
X0332234Y0132750D01*
X0331750Y0133234D01*
X0330299Y0133234D01*
X0330299Y0130331D01*
X0336192Y0132750D02*
X0336676Y0133234D01*
X0337643Y0133234D01*
X0338127Y0132750D01*
X0337643Y0131782D02*
X0337159Y0131782D01*
X0336650Y0101584D02*
X0337134Y0101100D01*
X0337134Y0100132D01*
X0336650Y0099649D01*
X0335199Y0099649D01*
X0336166Y0099649D02*
X0337134Y0098681D01*
X0338145Y0098681D02*
X0340080Y0098681D01*
X0339113Y0098681D02*
X0339113Y0101584D01*
X0338145Y0100616D01*
X0336650Y0101584D02*
X0335199Y0101584D01*
X0335199Y0098681D01*
X0332730Y0099015D02*
X0332247Y0098531D01*
X0331279Y0098531D01*
X0330795Y0099015D01*
X0331763Y0099982D02*
X0332247Y0099982D01*
X0332730Y0099499D01*
X0332730Y0099015D01*
X0332247Y0099982D02*
X0332730Y0100466D01*
X0332730Y0100950D01*
X0332247Y0101434D01*
X0331279Y0101434D01*
X0330795Y0100950D01*
X0329784Y0101434D02*
X0327849Y0101434D01*
X0327849Y0098531D01*
X0327849Y0099982D02*
X0328816Y0099982D01*
X0341092Y0100132D02*
X0342059Y0100616D01*
X0342543Y0100616D01*
X0343027Y0100132D01*
X0343027Y0099165D01*
X0342543Y0098681D01*
X0341576Y0098681D01*
X0341092Y0099165D01*
X0341092Y0100132D02*
X0341092Y0101584D01*
X0343027Y0101584D01*
X0223930Y0092934D02*
X0221995Y0092934D01*
X0221995Y0091482D01*
X0222963Y0091966D01*
X0223447Y0091966D01*
X0223930Y0091482D01*
X0223930Y0090515D01*
X0223447Y0090031D01*
X0222479Y0090031D01*
X0221995Y0090515D01*
X0220984Y0090515D02*
X0220500Y0090031D01*
X0219533Y0090031D01*
X0219049Y0090515D01*
X0219049Y0092450D01*
X0219533Y0092934D01*
X0220500Y0092934D01*
X0220984Y0092450D01*
X0221029Y0093631D02*
X0220545Y0094115D01*
X0221029Y0093631D02*
X0221997Y0093631D01*
X0222480Y0094115D01*
X0222480Y0094599D01*
X0221997Y0095082D01*
X0221513Y0095082D01*
X0221997Y0095082D02*
X0222480Y0095566D01*
X0222480Y0096050D01*
X0221997Y0096534D01*
X0221029Y0096534D01*
X0220545Y0096050D01*
X0219534Y0096050D02*
X0219050Y0096534D01*
X0218083Y0096534D01*
X0217599Y0096050D01*
X0217599Y0094115D01*
X0218083Y0093631D01*
X0219050Y0093631D01*
X0219534Y0094115D01*
X0164030Y0066384D02*
X0164030Y0065900D01*
X0162095Y0063965D01*
X0162095Y0063481D01*
X0161084Y0063965D02*
X0160600Y0063481D01*
X0159633Y0063481D01*
X0159149Y0063965D01*
X0159149Y0065900D01*
X0159633Y0066384D01*
X0160600Y0066384D01*
X0161084Y0065900D01*
X0162095Y0066384D02*
X0164030Y0066384D01*
X0151099Y0129142D02*
X0148196Y0129142D01*
X0148196Y0130593D01*
X0148680Y0131077D01*
X0149648Y0131077D01*
X0150131Y0130593D01*
X0150131Y0129142D01*
X0150131Y0130109D02*
X0151099Y0131077D01*
X0151099Y0132088D02*
X0151099Y0134023D01*
X0151099Y0133056D02*
X0148196Y0133056D01*
X0149164Y0132088D01*
X0148680Y0135035D02*
X0148196Y0135518D01*
X0148196Y0136486D01*
X0148680Y0136970D01*
X0150615Y0135035D01*
X0151099Y0135518D01*
X0151099Y0136486D01*
X0150615Y0136970D01*
X0148680Y0136970D01*
X0148680Y0135035D02*
X0150615Y0135035D01*
D17*
X0095699Y0124631D02*
X0095699Y0083631D01*
X0059099Y0083631D02*
X0059099Y0124631D01*
X0226497Y0126881D02*
X0226497Y0127982D01*
X0226864Y0128349D01*
X0227598Y0128349D01*
X0227965Y0127982D01*
X0227965Y0126881D01*
X0228699Y0126881D02*
X0226497Y0126881D01*
X0227965Y0127615D02*
X0228699Y0128349D01*
X0228699Y0129091D02*
X0227231Y0130559D01*
X0226864Y0130559D01*
X0226497Y0130192D01*
X0226497Y0129458D01*
X0226864Y0129091D01*
X0228699Y0129091D02*
X0228699Y0130559D01*
X0228332Y0131301D02*
X0226864Y0132769D01*
X0228332Y0132769D01*
X0228699Y0132402D01*
X0228699Y0131668D01*
X0228332Y0131301D01*
X0226864Y0131301D01*
X0226497Y0131668D01*
X0226497Y0132402D01*
X0226864Y0132769D01*
X0246999Y0209931D02*
X0287999Y0209931D01*
X0287949Y0246481D02*
X0246949Y0246481D01*
X0457849Y0180016D02*
X0457849Y0178548D01*
X0458216Y0178181D01*
X0458950Y0178181D01*
X0459317Y0178548D01*
X0460059Y0178548D02*
X0460426Y0178181D01*
X0461160Y0178181D01*
X0461527Y0178548D01*
X0461527Y0179282D01*
X0461160Y0179649D01*
X0460793Y0179649D01*
X0460059Y0179282D01*
X0460059Y0180383D01*
X0461527Y0180383D01*
X0462269Y0179282D02*
X0463370Y0179282D01*
X0463736Y0178915D01*
X0463736Y0178548D01*
X0463370Y0178181D01*
X0462636Y0178181D01*
X0462269Y0178548D01*
X0462269Y0179282D01*
X0463003Y0180016D01*
X0463736Y0180383D01*
X0464449Y0180066D02*
X0464449Y0178598D01*
X0464816Y0178231D01*
X0465550Y0178231D01*
X0465917Y0178598D01*
X0466659Y0178231D02*
X0468127Y0179699D01*
X0468127Y0180066D01*
X0467760Y0180433D01*
X0467026Y0180433D01*
X0466659Y0180066D01*
X0465917Y0180066D02*
X0465550Y0180433D01*
X0464816Y0180433D01*
X0464449Y0180066D01*
X0466659Y0178231D02*
X0468127Y0178231D01*
X0468869Y0178598D02*
X0469236Y0178231D01*
X0469970Y0178231D01*
X0470336Y0178598D01*
X0470336Y0178965D01*
X0469970Y0179332D01*
X0468869Y0179332D01*
X0468869Y0178598D01*
X0468869Y0179332D02*
X0469603Y0180066D01*
X0470336Y0180433D01*
X0471499Y0179566D02*
X0471499Y0178098D01*
X0471866Y0177731D01*
X0472600Y0177731D01*
X0472967Y0178098D01*
X0473709Y0177731D02*
X0475177Y0179199D01*
X0475177Y0179566D01*
X0474810Y0179933D01*
X0474076Y0179933D01*
X0473709Y0179566D01*
X0472967Y0179566D02*
X0472600Y0179933D01*
X0471866Y0179933D01*
X0471499Y0179566D01*
X0473709Y0177731D02*
X0475177Y0177731D01*
X0475919Y0178098D02*
X0476286Y0177731D01*
X0477020Y0177731D01*
X0477386Y0178098D01*
X0477386Y0178832D01*
X0477020Y0179199D01*
X0476653Y0179199D01*
X0475919Y0178832D01*
X0475919Y0179933D01*
X0477386Y0179933D01*
X0478799Y0179616D02*
X0478799Y0178148D01*
X0479166Y0177781D01*
X0479900Y0177781D01*
X0480267Y0178148D01*
X0481009Y0178148D02*
X0481376Y0177781D01*
X0482110Y0177781D01*
X0482477Y0178148D01*
X0482477Y0178882D01*
X0482110Y0179249D01*
X0481743Y0179249D01*
X0481009Y0178882D01*
X0481009Y0179983D01*
X0482477Y0179983D01*
X0483219Y0179616D02*
X0483219Y0179249D01*
X0483586Y0178882D01*
X0484686Y0178882D01*
X0484686Y0178148D02*
X0484686Y0179616D01*
X0484320Y0179983D01*
X0483586Y0179983D01*
X0483219Y0179616D01*
X0483219Y0178148D02*
X0483586Y0177781D01*
X0484320Y0177781D01*
X0484686Y0178148D01*
X0480267Y0179616D02*
X0479900Y0179983D01*
X0479166Y0179983D01*
X0478799Y0179616D01*
X0459317Y0180016D02*
X0458950Y0180383D01*
X0458216Y0180383D01*
X0457849Y0180016D01*
X0462116Y0157683D02*
X0461749Y0157316D01*
X0461749Y0155848D01*
X0462116Y0155481D01*
X0462850Y0155481D01*
X0463217Y0155848D01*
X0463959Y0155848D02*
X0464326Y0155481D01*
X0465060Y0155481D01*
X0465427Y0155848D01*
X0465427Y0156582D01*
X0465060Y0156949D01*
X0464693Y0156949D01*
X0463959Y0156582D01*
X0463959Y0157683D01*
X0465427Y0157683D01*
X0466169Y0157316D02*
X0466536Y0157683D01*
X0467270Y0157683D01*
X0467636Y0157316D01*
X0467636Y0156949D01*
X0467270Y0156582D01*
X0466536Y0156582D01*
X0466169Y0156949D01*
X0466169Y0157316D01*
X0466536Y0156582D02*
X0466169Y0156215D01*
X0466169Y0155848D01*
X0466536Y0155481D01*
X0467270Y0155481D01*
X0467636Y0155848D01*
X0467636Y0156215D01*
X0467270Y0156582D01*
X0463217Y0157316D02*
X0462850Y0157683D01*
X0462116Y0157683D01*
X0495847Y0145635D02*
X0498049Y0145635D01*
X0498049Y0144901D02*
X0498049Y0146369D01*
X0496581Y0144901D02*
X0495847Y0145635D01*
X0495847Y0144159D02*
X0496214Y0143425D01*
X0496948Y0142691D01*
X0496948Y0143792D01*
X0497315Y0144159D01*
X0497682Y0144159D01*
X0498049Y0143792D01*
X0498049Y0143058D01*
X0497682Y0142691D01*
X0496948Y0142691D01*
X0497682Y0141949D02*
X0498049Y0141582D01*
X0498049Y0140848D01*
X0497682Y0140481D01*
X0496214Y0140481D01*
X0495847Y0140848D01*
X0495847Y0141582D01*
X0496214Y0141949D01*
X0466790Y0102483D02*
X0467157Y0102116D01*
X0467157Y0101749D01*
X0466790Y0101382D01*
X0466056Y0101382D01*
X0465689Y0101749D01*
X0465689Y0102116D01*
X0466056Y0102483D01*
X0466790Y0102483D01*
X0466790Y0101382D02*
X0467157Y0101015D01*
X0467157Y0100648D01*
X0466790Y0100281D01*
X0466056Y0100281D01*
X0465689Y0100648D01*
X0465689Y0101015D01*
X0466056Y0101382D01*
X0464947Y0101749D02*
X0464947Y0102116D01*
X0464580Y0102483D01*
X0463846Y0102483D01*
X0463479Y0102116D01*
X0462737Y0102116D02*
X0462370Y0102483D01*
X0461636Y0102483D01*
X0461269Y0102116D01*
X0461269Y0100648D01*
X0461636Y0100281D01*
X0462370Y0100281D01*
X0462737Y0100648D01*
X0463479Y0100281D02*
X0464947Y0101749D01*
X0464947Y0100281D02*
X0463479Y0100281D01*
X0455336Y0101966D02*
X0455336Y0102333D01*
X0453869Y0102333D01*
X0453127Y0102333D02*
X0451659Y0102333D01*
X0451659Y0101232D01*
X0452393Y0101599D01*
X0452760Y0101599D01*
X0453127Y0101232D01*
X0453127Y0100498D01*
X0452760Y0100131D01*
X0452026Y0100131D01*
X0451659Y0100498D01*
X0450917Y0100498D02*
X0450550Y0100131D01*
X0449816Y0100131D01*
X0449449Y0100498D01*
X0449449Y0101966D01*
X0449816Y0102333D01*
X0450550Y0102333D01*
X0450917Y0101966D01*
X0453869Y0100498D02*
X0453869Y0100131D01*
X0453869Y0100498D02*
X0455336Y0101966D01*
X0467516Y0082033D02*
X0467149Y0081666D01*
X0467149Y0080198D01*
X0467516Y0079831D01*
X0468250Y0079831D01*
X0468617Y0080198D01*
X0469359Y0080198D02*
X0469726Y0079831D01*
X0470460Y0079831D01*
X0470827Y0080198D01*
X0470827Y0080932D01*
X0470460Y0081299D01*
X0470093Y0081299D01*
X0469359Y0080932D01*
X0469359Y0082033D01*
X0470827Y0082033D01*
X0471569Y0080932D02*
X0472670Y0082033D01*
X0472670Y0079831D01*
X0473036Y0080932D02*
X0471569Y0080932D01*
X0472466Y0082281D02*
X0473200Y0082281D01*
X0473567Y0082648D01*
X0474309Y0082281D02*
X0475777Y0083749D01*
X0475777Y0084116D01*
X0475410Y0084483D01*
X0474676Y0084483D01*
X0474309Y0084116D01*
X0473567Y0084116D02*
X0473200Y0084483D01*
X0472466Y0084483D01*
X0472099Y0084116D01*
X0472099Y0082648D01*
X0472466Y0082281D01*
X0474309Y0082281D02*
X0475777Y0082281D01*
X0476519Y0082648D02*
X0476886Y0082281D01*
X0477620Y0082281D01*
X0477986Y0082648D01*
X0477986Y0083015D01*
X0477620Y0083382D01*
X0477253Y0083382D01*
X0477620Y0083382D02*
X0477986Y0083749D01*
X0477986Y0084116D01*
X0477620Y0084483D01*
X0476886Y0084483D01*
X0476519Y0084116D01*
X0468617Y0081666D02*
X0468250Y0082033D01*
X0467516Y0082033D01*
X0451449Y0080602D02*
X0451449Y0079868D01*
X0451082Y0079501D01*
X0450348Y0079501D02*
X0449981Y0080235D01*
X0449981Y0080602D01*
X0450348Y0080969D01*
X0451082Y0080969D01*
X0451449Y0080602D01*
X0450348Y0079501D02*
X0449247Y0079501D01*
X0449247Y0080969D01*
X0449247Y0078759D02*
X0449247Y0077291D01*
X0450348Y0077291D01*
X0449981Y0078025D01*
X0449981Y0078392D01*
X0450348Y0078759D01*
X0451082Y0078759D01*
X0451449Y0078392D01*
X0451449Y0077658D01*
X0451082Y0077291D01*
X0451082Y0076549D02*
X0451449Y0076182D01*
X0451449Y0075448D01*
X0451082Y0075081D01*
X0449614Y0075081D01*
X0449247Y0075448D01*
X0449247Y0076182D01*
X0449614Y0076549D01*
X0450699Y0070533D02*
X0451433Y0070533D01*
X0451066Y0070533D02*
X0451066Y0068331D01*
X0450699Y0068331D02*
X0451433Y0068331D01*
X0452172Y0068698D02*
X0452539Y0068331D01*
X0453273Y0068331D01*
X0453640Y0068698D01*
X0454382Y0068331D02*
X0455850Y0068331D01*
X0455116Y0068331D02*
X0455116Y0070533D01*
X0454382Y0069799D01*
X0453640Y0070166D02*
X0453273Y0070533D01*
X0452539Y0070533D01*
X0452172Y0070166D01*
X0452172Y0068698D01*
X0456592Y0068331D02*
X0458060Y0069799D01*
X0458060Y0070166D01*
X0457693Y0070533D01*
X0456959Y0070533D01*
X0456592Y0070166D01*
X0456592Y0068331D02*
X0458060Y0068331D01*
X0463747Y0065272D02*
X0464114Y0065639D01*
X0464481Y0065639D01*
X0464848Y0065272D01*
X0464848Y0064538D01*
X0464481Y0064171D01*
X0464114Y0064171D01*
X0463747Y0064538D01*
X0463747Y0065272D01*
X0464848Y0065272D02*
X0465215Y0065639D01*
X0465582Y0065639D01*
X0465949Y0065272D01*
X0465949Y0064538D01*
X0465582Y0064171D01*
X0465215Y0064171D01*
X0464848Y0064538D01*
X0464848Y0063429D02*
X0464848Y0061961D01*
X0463747Y0063062D01*
X0465949Y0063062D01*
X0465582Y0061219D02*
X0465949Y0060852D01*
X0465949Y0060118D01*
X0465582Y0059751D01*
X0464114Y0059751D01*
X0463747Y0060118D01*
X0463747Y0060852D01*
X0464114Y0061219D01*
X0404320Y0130081D02*
X0403586Y0130081D01*
X0403219Y0130448D01*
X0403586Y0131182D02*
X0404686Y0131182D01*
X0404686Y0130448D02*
X0404686Y0131916D01*
X0404320Y0132283D01*
X0403586Y0132283D01*
X0403219Y0131916D01*
X0403219Y0131549D01*
X0403586Y0131182D01*
X0404686Y0130448D02*
X0404320Y0130081D01*
X0402477Y0130081D02*
X0401009Y0130081D01*
X0401743Y0130081D02*
X0401743Y0132283D01*
X0401009Y0131549D01*
X0400267Y0131916D02*
X0399900Y0132283D01*
X0399166Y0132283D01*
X0398799Y0131916D01*
X0398799Y0130448D01*
X0399166Y0130081D01*
X0399900Y0130081D01*
X0400267Y0130448D01*
D18*
X0105949Y0125381D03*
X0085449Y0125381D03*
X0069349Y0125381D03*
X0048849Y0125381D03*
X0048849Y0082881D03*
X0069349Y0082881D03*
X0085449Y0082881D03*
X0105949Y0082881D03*
D19*
X0095699Y0082881D03*
X0059099Y0082881D03*
X0059099Y0125381D03*
X0095699Y0125381D03*
D20*
X0105199Y0104131D03*
X0086199Y0104131D03*
X0068599Y0104131D03*
X0049599Y0104131D03*
D21*
X0050599Y0072131D03*
X0067599Y0072131D03*
X0087199Y0072131D03*
X0104199Y0072131D03*
X0104199Y0136131D03*
X0087199Y0136131D03*
X0067599Y0136131D03*
X0050599Y0136131D03*
D22*
X0097578Y0180381D02*
X0097578Y0185696D01*
X0097578Y0180381D02*
X0211751Y0180381D01*
X0211751Y0230381D01*
X0097578Y0230381D01*
X0097578Y0225066D01*
X0097578Y0215224D02*
X0097578Y0195539D01*
X0252219Y0088328D02*
X0252219Y0081635D01*
X0258124Y0081635D01*
X0258125Y0081635D02*
X0258161Y0081708D01*
X0258202Y0081779D01*
X0258245Y0081849D01*
X0258292Y0081916D01*
X0258342Y0081981D01*
X0258395Y0082043D01*
X0258450Y0082103D01*
X0258509Y0082160D01*
X0258570Y0082215D01*
X0258634Y0082266D01*
X0258700Y0082315D01*
X0258768Y0082360D01*
X0258838Y0082402D01*
X0258910Y0082441D01*
X0258984Y0082477D01*
X0259059Y0082508D01*
X0259136Y0082537D01*
X0259214Y0082561D01*
X0259293Y0082582D01*
X0259373Y0082599D01*
X0259454Y0082613D01*
X0259535Y0082622D01*
X0259617Y0082628D01*
X0259699Y0082630D01*
X0259781Y0082628D01*
X0259863Y0082622D01*
X0259944Y0082613D01*
X0260025Y0082599D01*
X0260105Y0082582D01*
X0260184Y0082561D01*
X0260262Y0082537D01*
X0260339Y0082508D01*
X0260414Y0082477D01*
X0260488Y0082441D01*
X0260560Y0082402D01*
X0260630Y0082360D01*
X0260698Y0082315D01*
X0260764Y0082266D01*
X0260828Y0082215D01*
X0260889Y0082160D01*
X0260948Y0082103D01*
X0261003Y0082043D01*
X0261056Y0081981D01*
X0261106Y0081916D01*
X0261153Y0081849D01*
X0261196Y0081779D01*
X0261237Y0081708D01*
X0261273Y0081635D01*
X0261274Y0081635D02*
X0267179Y0081635D01*
X0267179Y0088328D01*
X0261274Y0088328D01*
X0261273Y0088328D02*
X0261237Y0088255D01*
X0261196Y0088184D01*
X0261153Y0088114D01*
X0261106Y0088047D01*
X0261056Y0087982D01*
X0261003Y0087920D01*
X0260948Y0087860D01*
X0260889Y0087803D01*
X0260828Y0087748D01*
X0260764Y0087697D01*
X0260698Y0087648D01*
X0260630Y0087603D01*
X0260560Y0087561D01*
X0260488Y0087522D01*
X0260414Y0087486D01*
X0260339Y0087455D01*
X0260262Y0087426D01*
X0260184Y0087402D01*
X0260105Y0087381D01*
X0260025Y0087364D01*
X0259944Y0087350D01*
X0259863Y0087341D01*
X0259781Y0087335D01*
X0259699Y0087333D01*
X0259617Y0087335D01*
X0259535Y0087341D01*
X0259454Y0087350D01*
X0259373Y0087364D01*
X0259293Y0087381D01*
X0259214Y0087402D01*
X0259136Y0087426D01*
X0259059Y0087455D01*
X0258984Y0087486D01*
X0258910Y0087522D01*
X0258838Y0087561D01*
X0258768Y0087603D01*
X0258700Y0087648D01*
X0258634Y0087697D01*
X0258570Y0087748D01*
X0258509Y0087803D01*
X0258450Y0087860D01*
X0258395Y0087920D01*
X0258342Y0087982D01*
X0258292Y0088047D01*
X0258245Y0088114D01*
X0258202Y0088184D01*
X0258161Y0088255D01*
X0258125Y0088328D01*
X0258124Y0088328D02*
X0252219Y0088328D01*
X0378952Y0178951D02*
X0378952Y0184856D01*
X0378952Y0184857D02*
X0379025Y0184893D01*
X0379096Y0184934D01*
X0379166Y0184977D01*
X0379233Y0185024D01*
X0379298Y0185074D01*
X0379360Y0185127D01*
X0379420Y0185182D01*
X0379477Y0185241D01*
X0379532Y0185302D01*
X0379583Y0185366D01*
X0379632Y0185432D01*
X0379677Y0185500D01*
X0379719Y0185570D01*
X0379758Y0185642D01*
X0379794Y0185716D01*
X0379825Y0185791D01*
X0379854Y0185868D01*
X0379878Y0185946D01*
X0379899Y0186025D01*
X0379916Y0186105D01*
X0379930Y0186186D01*
X0379939Y0186267D01*
X0379945Y0186349D01*
X0379947Y0186431D01*
X0379945Y0186513D01*
X0379939Y0186595D01*
X0379930Y0186676D01*
X0379916Y0186757D01*
X0379899Y0186837D01*
X0379878Y0186916D01*
X0379854Y0186994D01*
X0379825Y0187071D01*
X0379794Y0187146D01*
X0379758Y0187220D01*
X0379719Y0187292D01*
X0379677Y0187362D01*
X0379632Y0187430D01*
X0379583Y0187496D01*
X0379532Y0187560D01*
X0379477Y0187621D01*
X0379420Y0187680D01*
X0379360Y0187735D01*
X0379298Y0187788D01*
X0379233Y0187838D01*
X0379166Y0187885D01*
X0379096Y0187928D01*
X0379025Y0187969D01*
X0378952Y0188005D01*
X0378952Y0188006D02*
X0378952Y0193911D01*
X0385645Y0193911D01*
X0385645Y0188006D01*
X0385645Y0188005D02*
X0385572Y0187969D01*
X0385501Y0187928D01*
X0385431Y0187885D01*
X0385364Y0187838D01*
X0385299Y0187788D01*
X0385237Y0187735D01*
X0385177Y0187680D01*
X0385120Y0187621D01*
X0385065Y0187560D01*
X0385014Y0187496D01*
X0384965Y0187430D01*
X0384920Y0187362D01*
X0384878Y0187292D01*
X0384839Y0187220D01*
X0384803Y0187146D01*
X0384772Y0187071D01*
X0384743Y0186994D01*
X0384719Y0186916D01*
X0384698Y0186837D01*
X0384681Y0186757D01*
X0384667Y0186676D01*
X0384658Y0186595D01*
X0384652Y0186513D01*
X0384650Y0186431D01*
X0384652Y0186349D01*
X0384658Y0186267D01*
X0384667Y0186186D01*
X0384681Y0186105D01*
X0384698Y0186025D01*
X0384719Y0185946D01*
X0384743Y0185868D01*
X0384772Y0185791D01*
X0384803Y0185716D01*
X0384839Y0185642D01*
X0384878Y0185570D01*
X0384920Y0185500D01*
X0384965Y0185432D01*
X0385014Y0185366D01*
X0385065Y0185302D01*
X0385120Y0185241D01*
X0385177Y0185182D01*
X0385237Y0185127D01*
X0385299Y0185074D01*
X0385364Y0185024D01*
X0385431Y0184977D01*
X0385501Y0184934D01*
X0385572Y0184893D01*
X0385645Y0184857D01*
X0385645Y0184856D02*
X0385645Y0178951D01*
X0378952Y0178951D01*
X0334878Y0215481D02*
X0334878Y0220796D01*
X0334878Y0215481D02*
X0449051Y0215481D01*
X0449051Y0265481D01*
X0334878Y0265481D01*
X0334878Y0260166D01*
X0334878Y0250324D02*
X0334878Y0230639D01*
X0450749Y0067831D02*
X0458349Y0067831D01*
X0458749Y0059531D02*
X0454349Y0059531D01*
D23*
X0264199Y0101975D03*
X0251199Y0099587D03*
X0251199Y0090075D03*
X0264199Y0111487D03*
D24*
X0246249Y0199681D03*
X0246249Y0220181D03*
X0246199Y0236231D03*
X0246199Y0256731D03*
X0288699Y0256731D03*
X0288699Y0236231D03*
X0288749Y0220181D03*
X0288749Y0199681D03*
D25*
X0288749Y0209931D03*
X0246249Y0209931D03*
X0246199Y0246481D03*
X0288699Y0246481D03*
D26*
X0267449Y0236981D03*
X0267499Y0219431D03*
X0267499Y0200431D03*
X0267449Y0255981D03*
D27*
X0299449Y0254981D03*
X0299449Y0237981D03*
X0299499Y0218431D03*
X0299499Y0201431D03*
X0235499Y0201431D03*
X0235499Y0218431D03*
X0235449Y0237981D03*
X0235449Y0254981D03*
D28*
X0397893Y0205831D03*
X0407405Y0205831D03*
X0410643Y0192831D03*
X0420155Y0192831D03*
X0407405Y0178881D03*
X0397893Y0178881D03*
X0410643Y0165881D03*
X0420155Y0165881D03*
X0407405Y0151981D03*
X0397893Y0151981D03*
X0410643Y0138981D03*
X0420155Y0138981D03*
D29*
X0341977Y0193231D03*
M02*
