G75*
%MOIN*%
%OFA0B0*%
%FSLAX25Y25*%
%IPPOS*%
%LPD*%
%AMOC8*
5,1,8,0,0,1.08239X$1,22.5*
%
%ADD10C,0.00500*%
%ADD11C,0.00600*%
%ADD12C,0.01000*%
%ADD13C,0.00400*%
%ADD14C,0.00100*%
%ADD15R,0.05512X0.00787*%
%ADD16C,0.00300*%
%ADD17C,0.00200*%
%ADD18R,0.04500X0.02500*%
%ADD19R,0.16000X0.02500*%
%ADD20R,0.02000X0.40000*%
%ADD21R,0.03000X0.19000*%
%ADD22C,0.00800*%
%ADD23R,0.01512X0.03000*%
%ADD24R,0.02500X0.04500*%
%ADD25R,0.02500X0.16000*%
%ADD26R,0.40000X0.02000*%
%ADD27R,0.19000X0.03000*%
D10*
X0001300Y0035173D02*
X0037914Y0035173D01*
X0037914Y0159858D01*
X0037340Y0161584D02*
X0034337Y0161584D01*
X0035839Y0161584D02*
X0035839Y0166088D01*
X0034337Y0164586D01*
X0032736Y0166088D02*
X0029733Y0161584D01*
X0032736Y0161584D02*
X0029733Y0166088D01*
X0056799Y0161285D02*
X0056799Y0156781D01*
X0056799Y0159033D02*
X0058300Y0159033D01*
X0056799Y0161285D02*
X0059801Y0161285D01*
X0061403Y0159784D02*
X0062904Y0161285D01*
X0062904Y0156781D01*
X0061403Y0156781D02*
X0064405Y0156781D01*
X0092449Y0156481D02*
X0092449Y0160985D01*
X0095451Y0160985D01*
X0097053Y0160234D02*
X0097803Y0160985D01*
X0099305Y0160985D01*
X0100055Y0160234D01*
X0100055Y0159484D01*
X0097053Y0156481D01*
X0100055Y0156481D01*
X0093950Y0158733D02*
X0092449Y0158733D01*
X0115142Y0145573D02*
X0130756Y0145573D01*
X0130756Y0114289D01*
X0115142Y0114289D01*
X0115142Y0145573D01*
X0115142Y0145489D02*
X0130756Y0145489D01*
X0130756Y0176773D01*
X0115142Y0176773D01*
X0115142Y0145489D01*
X0132281Y0137551D02*
X0132281Y0129811D01*
X0147817Y0129811D01*
X0147817Y0137551D01*
X0132281Y0137551D01*
X0148579Y0137245D02*
X0157819Y0137245D01*
X0157819Y0156717D01*
X0148579Y0156717D01*
X0148579Y0137245D01*
X0151531Y0137251D02*
X0167067Y0137251D01*
X0167067Y0129511D01*
X0151531Y0129511D01*
X0151531Y0137251D01*
X0157829Y0137245D02*
X0167069Y0137245D01*
X0167069Y0156717D01*
X0157829Y0156717D01*
X0157829Y0137245D01*
X0167079Y0137230D02*
X0173819Y0137230D01*
X0173819Y0124632D01*
X0167079Y0124632D01*
X0167079Y0137230D01*
X0167067Y0129501D02*
X0151531Y0129501D01*
X0151531Y0121761D01*
X0167067Y0121761D01*
X0167067Y0129501D01*
X0166069Y0111830D02*
X0159329Y0111830D01*
X0159329Y0099232D01*
X0166069Y0099232D01*
X0166069Y0111830D01*
X0159319Y0111830D02*
X0152579Y0111830D01*
X0152579Y0099232D01*
X0159319Y0099232D01*
X0159319Y0111830D01*
X0159329Y0099230D02*
X0166069Y0099230D01*
X0166069Y0086632D01*
X0159329Y0086632D01*
X0159329Y0099230D01*
X0156829Y0086617D02*
X0166069Y0086617D01*
X0166069Y0067145D01*
X0156829Y0067145D01*
X0156829Y0086617D01*
X0156819Y0086617D02*
X0147579Y0086617D01*
X0147579Y0067145D01*
X0156819Y0067145D01*
X0156819Y0086617D01*
X0154429Y0062767D02*
X0163169Y0062767D01*
X0163169Y0043295D01*
X0154429Y0043295D01*
X0154429Y0062767D01*
X0154369Y0051417D02*
X0145629Y0051417D01*
X0145629Y0031945D01*
X0154369Y0031945D01*
X0154369Y0051417D01*
X0145635Y0040451D02*
X0145635Y0031711D01*
X0126163Y0031711D01*
X0126163Y0040451D01*
X0145635Y0040451D01*
X0126135Y0040451D02*
X0126135Y0031711D01*
X0106663Y0031711D01*
X0106663Y0040451D01*
X0126135Y0040451D01*
X0106685Y0040451D02*
X0106685Y0031711D01*
X0087213Y0031711D01*
X0087213Y0040451D01*
X0106685Y0040451D01*
X0085792Y0039374D02*
X0075406Y0039374D01*
X0075406Y0032788D02*
X0085792Y0032788D01*
X0177149Y0039032D02*
X0177899Y0038281D01*
X0179401Y0038281D01*
X0180151Y0039032D01*
X0180151Y0042034D01*
X0179401Y0042785D01*
X0177899Y0042785D01*
X0177149Y0042034D01*
X0177149Y0039032D01*
X0181753Y0039782D02*
X0184755Y0042785D01*
X0186357Y0041284D02*
X0187858Y0042785D01*
X0187858Y0038281D01*
X0186357Y0038281D02*
X0189359Y0038281D01*
X0184755Y0038281D02*
X0182503Y0040533D01*
X0181753Y0042785D02*
X0181753Y0038281D01*
X0203663Y0036181D02*
X0206665Y0031678D01*
X0208267Y0031678D02*
X0211269Y0034680D01*
X0211269Y0035431D01*
X0210518Y0036181D01*
X0209017Y0036181D01*
X0208267Y0035431D01*
X0206665Y0036181D02*
X0203663Y0031678D01*
X0208267Y0031678D02*
X0211269Y0031678D01*
X0215329Y0046613D02*
X0223069Y0046613D01*
X0223069Y0062149D01*
X0215329Y0062149D01*
X0215329Y0046613D01*
X0234981Y0049211D02*
X0234981Y0056951D01*
X0250517Y0056951D01*
X0250517Y0049211D01*
X0234981Y0049211D01*
X0250531Y0052151D02*
X0250531Y0044411D01*
X0266067Y0044411D01*
X0266067Y0052151D01*
X0250531Y0052151D01*
X0254363Y0068211D02*
X0254363Y0076951D01*
X0273835Y0076951D01*
X0273835Y0068211D01*
X0254363Y0068211D01*
X0235419Y0069945D02*
X0226179Y0069945D01*
X0226179Y0089417D01*
X0235419Y0089417D01*
X0235419Y0069945D01*
X0226169Y0069945D02*
X0216929Y0069945D01*
X0216929Y0089417D01*
X0226169Y0089417D01*
X0226169Y0069945D01*
X0274863Y0068211D02*
X0274863Y0076951D01*
X0294335Y0076951D01*
X0294335Y0068211D01*
X0274863Y0068211D01*
X0299379Y0081063D02*
X0299379Y0096599D01*
X0307119Y0096599D01*
X0307119Y0081063D01*
X0299379Y0081063D01*
X0333579Y0077945D02*
X0333579Y0097417D01*
X0342319Y0097417D01*
X0342319Y0077945D01*
X0333579Y0077945D01*
X0384650Y0084011D02*
X0384650Y0090751D01*
X0397248Y0090751D01*
X0397248Y0084011D01*
X0384650Y0084011D01*
X0397279Y0090799D02*
X0397279Y0075263D01*
X0405019Y0075263D01*
X0405019Y0090799D01*
X0397279Y0090799D01*
X0405029Y0090799D02*
X0412769Y0090799D01*
X0412769Y0075263D01*
X0405029Y0075263D01*
X0405029Y0090799D01*
X0433556Y0072224D02*
X0433556Y0061838D01*
X0439029Y0058530D02*
X0445769Y0058530D01*
X0445769Y0045932D01*
X0439029Y0045932D01*
X0439029Y0058530D01*
X0441079Y0059782D02*
X0441079Y0072380D01*
X0447819Y0072380D01*
X0447819Y0059782D01*
X0441079Y0059782D01*
X0440142Y0061838D02*
X0440142Y0072224D01*
X0452179Y0070882D02*
X0452179Y0083480D01*
X0458919Y0083480D01*
X0458919Y0070882D01*
X0452179Y0070882D01*
X0458929Y0067813D02*
X0466669Y0067813D01*
X0466669Y0083349D01*
X0458929Y0083349D01*
X0458929Y0067813D01*
X0466679Y0070649D02*
X0474419Y0070649D01*
X0474419Y0055113D01*
X0466679Y0055113D01*
X0466679Y0070649D01*
X0466681Y0070661D02*
X0466681Y0078401D01*
X0482217Y0078401D01*
X0482217Y0070661D01*
X0466681Y0070661D01*
X0474431Y0062851D02*
X0489967Y0062851D01*
X0489967Y0055111D01*
X0474431Y0055111D01*
X0474431Y0062851D01*
X0479167Y0053301D02*
X0463631Y0053301D01*
X0463631Y0045561D01*
X0479167Y0045561D01*
X0479167Y0053301D01*
X0437842Y0052174D02*
X0427456Y0052174D01*
X0427456Y0045588D02*
X0437842Y0045588D01*
X0410775Y0060031D02*
X0410777Y0060168D01*
X0410783Y0060306D01*
X0410793Y0060443D01*
X0410807Y0060579D01*
X0410825Y0060716D01*
X0410847Y0060851D01*
X0410873Y0060986D01*
X0410902Y0061120D01*
X0410936Y0061254D01*
X0410973Y0061386D01*
X0411015Y0061517D01*
X0411060Y0061647D01*
X0411109Y0061775D01*
X0411161Y0061902D01*
X0411218Y0062027D01*
X0411277Y0062151D01*
X0411341Y0062273D01*
X0411408Y0062393D01*
X0411478Y0062511D01*
X0411552Y0062627D01*
X0411629Y0062741D01*
X0411710Y0062852D01*
X0411793Y0062961D01*
X0411880Y0063068D01*
X0411970Y0063171D01*
X0412063Y0063273D01*
X0412159Y0063371D01*
X0412257Y0063467D01*
X0412359Y0063560D01*
X0412462Y0063650D01*
X0412569Y0063737D01*
X0412678Y0063820D01*
X0412789Y0063901D01*
X0412903Y0063978D01*
X0413019Y0064052D01*
X0413137Y0064122D01*
X0413257Y0064189D01*
X0413379Y0064253D01*
X0413503Y0064312D01*
X0413628Y0064369D01*
X0413755Y0064421D01*
X0413883Y0064470D01*
X0414013Y0064515D01*
X0414144Y0064557D01*
X0414276Y0064594D01*
X0414410Y0064628D01*
X0414544Y0064657D01*
X0414679Y0064683D01*
X0414814Y0064705D01*
X0414951Y0064723D01*
X0415087Y0064737D01*
X0415224Y0064747D01*
X0415362Y0064753D01*
X0415499Y0064755D01*
X0415636Y0064753D01*
X0415774Y0064747D01*
X0415911Y0064737D01*
X0416047Y0064723D01*
X0416184Y0064705D01*
X0416319Y0064683D01*
X0416454Y0064657D01*
X0416588Y0064628D01*
X0416722Y0064594D01*
X0416854Y0064557D01*
X0416985Y0064515D01*
X0417115Y0064470D01*
X0417243Y0064421D01*
X0417370Y0064369D01*
X0417495Y0064312D01*
X0417619Y0064253D01*
X0417741Y0064189D01*
X0417861Y0064122D01*
X0417979Y0064052D01*
X0418095Y0063978D01*
X0418209Y0063901D01*
X0418320Y0063820D01*
X0418429Y0063737D01*
X0418536Y0063650D01*
X0418639Y0063560D01*
X0418741Y0063467D01*
X0418839Y0063371D01*
X0418935Y0063273D01*
X0419028Y0063171D01*
X0419118Y0063068D01*
X0419205Y0062961D01*
X0419288Y0062852D01*
X0419369Y0062741D01*
X0419446Y0062627D01*
X0419520Y0062511D01*
X0419590Y0062393D01*
X0419657Y0062273D01*
X0419721Y0062151D01*
X0419780Y0062027D01*
X0419837Y0061902D01*
X0419889Y0061775D01*
X0419938Y0061647D01*
X0419983Y0061517D01*
X0420025Y0061386D01*
X0420062Y0061254D01*
X0420096Y0061120D01*
X0420125Y0060986D01*
X0420151Y0060851D01*
X0420173Y0060716D01*
X0420191Y0060579D01*
X0420205Y0060443D01*
X0420215Y0060306D01*
X0420221Y0060168D01*
X0420223Y0060031D01*
X0420221Y0059894D01*
X0420215Y0059756D01*
X0420205Y0059619D01*
X0420191Y0059483D01*
X0420173Y0059346D01*
X0420151Y0059211D01*
X0420125Y0059076D01*
X0420096Y0058942D01*
X0420062Y0058808D01*
X0420025Y0058676D01*
X0419983Y0058545D01*
X0419938Y0058415D01*
X0419889Y0058287D01*
X0419837Y0058160D01*
X0419780Y0058035D01*
X0419721Y0057911D01*
X0419657Y0057789D01*
X0419590Y0057669D01*
X0419520Y0057551D01*
X0419446Y0057435D01*
X0419369Y0057321D01*
X0419288Y0057210D01*
X0419205Y0057101D01*
X0419118Y0056994D01*
X0419028Y0056891D01*
X0418935Y0056789D01*
X0418839Y0056691D01*
X0418741Y0056595D01*
X0418639Y0056502D01*
X0418536Y0056412D01*
X0418429Y0056325D01*
X0418320Y0056242D01*
X0418209Y0056161D01*
X0418095Y0056084D01*
X0417979Y0056010D01*
X0417861Y0055940D01*
X0417741Y0055873D01*
X0417619Y0055809D01*
X0417495Y0055750D01*
X0417370Y0055693D01*
X0417243Y0055641D01*
X0417115Y0055592D01*
X0416985Y0055547D01*
X0416854Y0055505D01*
X0416722Y0055468D01*
X0416588Y0055434D01*
X0416454Y0055405D01*
X0416319Y0055379D01*
X0416184Y0055357D01*
X0416047Y0055339D01*
X0415911Y0055325D01*
X0415774Y0055315D01*
X0415636Y0055309D01*
X0415499Y0055307D01*
X0415362Y0055309D01*
X0415224Y0055315D01*
X0415087Y0055325D01*
X0414951Y0055339D01*
X0414814Y0055357D01*
X0414679Y0055379D01*
X0414544Y0055405D01*
X0414410Y0055434D01*
X0414276Y0055468D01*
X0414144Y0055505D01*
X0414013Y0055547D01*
X0413883Y0055592D01*
X0413755Y0055641D01*
X0413628Y0055693D01*
X0413503Y0055750D01*
X0413379Y0055809D01*
X0413257Y0055873D01*
X0413137Y0055940D01*
X0413019Y0056010D01*
X0412903Y0056084D01*
X0412789Y0056161D01*
X0412678Y0056242D01*
X0412569Y0056325D01*
X0412462Y0056412D01*
X0412359Y0056502D01*
X0412257Y0056595D01*
X0412159Y0056691D01*
X0412063Y0056789D01*
X0411970Y0056891D01*
X0411880Y0056994D01*
X0411793Y0057101D01*
X0411710Y0057210D01*
X0411629Y0057321D01*
X0411552Y0057435D01*
X0411478Y0057551D01*
X0411408Y0057669D01*
X0411341Y0057789D01*
X0411277Y0057911D01*
X0411218Y0058035D01*
X0411161Y0058160D01*
X0411109Y0058287D01*
X0411060Y0058415D01*
X0411015Y0058545D01*
X0410973Y0058676D01*
X0410936Y0058808D01*
X0410902Y0058942D01*
X0410873Y0059076D01*
X0410847Y0059211D01*
X0410825Y0059346D01*
X0410807Y0059483D01*
X0410793Y0059619D01*
X0410783Y0059756D01*
X0410777Y0059894D01*
X0410775Y0060031D01*
X0451263Y0083511D02*
X0451263Y0092751D01*
X0470735Y0092751D01*
X0470735Y0083511D01*
X0451263Y0083511D01*
X0446100Y0092761D02*
X0446100Y0099501D01*
X0458698Y0099501D01*
X0458698Y0092761D01*
X0446100Y0092761D01*
X0458700Y0092761D02*
X0458700Y0099501D01*
X0471298Y0099501D01*
X0471298Y0092761D01*
X0458700Y0092761D01*
X0471329Y0100399D02*
X0479069Y0100399D01*
X0479069Y0084863D01*
X0471329Y0084863D01*
X0471329Y0100399D01*
X0479079Y0100367D02*
X0488319Y0100367D01*
X0488319Y0080895D01*
X0479079Y0080895D01*
X0479079Y0100367D01*
X0488329Y0100399D02*
X0496069Y0100399D01*
X0496069Y0084863D01*
X0488329Y0084863D01*
X0488329Y0100399D01*
X0496079Y0096649D02*
X0503819Y0096649D01*
X0503819Y0081113D01*
X0496079Y0081113D01*
X0496079Y0096649D01*
X0494395Y0111331D02*
X0494395Y0112832D01*
X0494395Y0112082D02*
X0498899Y0112082D01*
X0498899Y0112832D02*
X0498899Y0111331D01*
X0498148Y0114400D02*
X0495146Y0114400D01*
X0494395Y0115151D01*
X0494395Y0116652D01*
X0495146Y0117403D01*
X0495146Y0119004D02*
X0495896Y0119004D01*
X0496647Y0119755D01*
X0496647Y0122007D01*
X0498148Y0122007D02*
X0495146Y0122007D01*
X0494395Y0121256D01*
X0494395Y0119755D01*
X0495146Y0119004D01*
X0498148Y0119004D02*
X0498899Y0119755D01*
X0498899Y0121256D01*
X0498148Y0122007D01*
X0498148Y0117403D02*
X0498899Y0116652D01*
X0498899Y0115151D01*
X0498148Y0114400D01*
X0495681Y0132261D02*
X0495681Y0140001D01*
X0511217Y0140001D01*
X0511217Y0132261D01*
X0495681Y0132261D01*
X0498600Y0140061D02*
X0498600Y0146801D01*
X0511198Y0146801D01*
X0511198Y0140061D01*
X0498600Y0140061D01*
X0495681Y0146811D02*
X0495681Y0154551D01*
X0511217Y0154551D01*
X0511217Y0146811D01*
X0495681Y0146811D01*
X0499048Y0154561D02*
X0486450Y0154561D01*
X0486450Y0161301D01*
X0499048Y0161301D01*
X0499048Y0154561D01*
X0487641Y0161311D02*
X0487641Y0169051D01*
X0510657Y0169051D01*
X0510657Y0161311D01*
X0487641Y0161311D01*
X0486069Y0161613D02*
X0478329Y0161613D01*
X0478329Y0177149D01*
X0486069Y0177149D01*
X0486069Y0161613D01*
X0478369Y0161613D02*
X0470629Y0161613D01*
X0470629Y0177149D01*
X0478369Y0177149D01*
X0478369Y0161613D01*
X0470648Y0164901D02*
X0470648Y0158161D01*
X0458050Y0158161D01*
X0458050Y0164901D01*
X0470648Y0164901D01*
X0470619Y0164932D02*
X0463879Y0164932D01*
X0463879Y0177530D01*
X0470619Y0177530D01*
X0470619Y0164932D01*
X0463919Y0164932D02*
X0457179Y0164932D01*
X0457179Y0177530D01*
X0463919Y0177530D01*
X0463919Y0164932D01*
X0457219Y0170830D02*
X0450479Y0170830D01*
X0450479Y0158232D01*
X0457219Y0158232D01*
X0457219Y0170830D01*
X0450469Y0177717D02*
X0441229Y0177717D01*
X0441229Y0158245D01*
X0450469Y0158245D01*
X0450469Y0177717D01*
X0460379Y0185513D02*
X0460379Y0201049D01*
X0468119Y0201049D01*
X0468119Y0185513D01*
X0460379Y0185513D01*
X0468129Y0181545D02*
X0477369Y0181545D01*
X0477369Y0201017D01*
X0468129Y0201017D01*
X0468129Y0181545D01*
X0487631Y0176851D02*
X0487631Y0169111D01*
X0503167Y0169111D01*
X0503167Y0176851D01*
X0487631Y0176851D01*
X0504729Y0180345D02*
X0513969Y0180345D01*
X0513969Y0199817D01*
X0504729Y0199817D01*
X0504729Y0180345D01*
X0408448Y0129851D02*
X0408448Y0123111D01*
X0395850Y0123111D01*
X0395850Y0129851D01*
X0408448Y0129851D01*
X0395819Y0123113D02*
X0388079Y0123113D01*
X0388079Y0138649D01*
X0395819Y0138649D01*
X0395819Y0123113D01*
X0388069Y0123113D02*
X0380329Y0123113D01*
X0380329Y0138649D01*
X0388069Y0138649D01*
X0388069Y0123113D01*
X0362835Y0120201D02*
X0362835Y0111461D01*
X0343363Y0111461D01*
X0343363Y0120201D01*
X0362835Y0120201D01*
X0343335Y0120201D02*
X0343335Y0111461D01*
X0323863Y0111461D01*
X0323863Y0120201D01*
X0343335Y0120201D01*
X0323885Y0120201D02*
X0323885Y0111461D01*
X0304413Y0111461D01*
X0304413Y0120201D01*
X0323885Y0120201D01*
X0304385Y0120201D02*
X0304385Y0111461D01*
X0284913Y0111461D01*
X0284913Y0120201D01*
X0304385Y0120201D01*
X0284885Y0120201D02*
X0284885Y0111461D01*
X0265413Y0111461D01*
X0265413Y0120201D01*
X0284885Y0120201D01*
X0265435Y0120201D02*
X0265435Y0111461D01*
X0245963Y0111461D01*
X0245963Y0120201D01*
X0265435Y0120201D01*
X0243592Y0122124D02*
X0233206Y0122124D01*
X0233206Y0115538D02*
X0243592Y0115538D01*
X0223019Y0109830D02*
X0216279Y0109830D01*
X0216279Y0097232D01*
X0223019Y0097232D01*
X0223019Y0109830D01*
X0226929Y0134595D02*
X0236169Y0134595D01*
X0236169Y0154067D01*
X0226929Y0154067D01*
X0226929Y0134595D01*
X0236179Y0134595D02*
X0245419Y0134595D01*
X0245419Y0154067D01*
X0236179Y0154067D01*
X0236179Y0134595D01*
X0236979Y0154063D02*
X0236979Y0169599D01*
X0244719Y0169599D01*
X0244719Y0154063D01*
X0236979Y0154063D01*
X0231619Y0163832D02*
X0224879Y0163832D01*
X0224879Y0176430D01*
X0231619Y0176430D01*
X0231619Y0163832D01*
X0233481Y0182861D02*
X0233481Y0190601D01*
X0249017Y0190601D01*
X0249017Y0182861D01*
X0233481Y0182861D01*
X0224055Y0187232D02*
X0223305Y0186481D01*
X0221803Y0186481D01*
X0221053Y0187232D01*
X0222554Y0188733D02*
X0223305Y0188733D01*
X0224055Y0187982D01*
X0224055Y0187232D01*
X0223305Y0188733D02*
X0224055Y0189484D01*
X0224055Y0190234D01*
X0223305Y0190985D01*
X0221803Y0190985D01*
X0221053Y0190234D01*
X0219451Y0190985D02*
X0216449Y0190985D01*
X0216449Y0186481D01*
X0216449Y0188733D02*
X0217950Y0188733D01*
X0251581Y0190501D02*
X0251581Y0182761D01*
X0267117Y0182761D01*
X0267117Y0190501D01*
X0251581Y0190501D01*
X0320879Y0179199D02*
X0320879Y0163663D01*
X0328619Y0163663D01*
X0328619Y0179199D01*
X0320879Y0179199D01*
X0331857Y0195374D02*
X0331857Y0210988D01*
X0363141Y0210988D01*
X0363141Y0195374D01*
X0331857Y0195374D01*
X0348163Y0193751D02*
X0348163Y0185011D01*
X0367635Y0185011D01*
X0367635Y0193751D01*
X0348163Y0193751D01*
X0363191Y0211874D02*
X0331907Y0211874D01*
X0331907Y0227488D01*
X0363191Y0227488D01*
X0363191Y0211874D01*
X0386779Y0211717D02*
X0395519Y0211717D01*
X0395519Y0192245D01*
X0386779Y0192245D01*
X0386779Y0211717D01*
X0387979Y0174399D02*
X0395719Y0174399D01*
X0395719Y0158863D01*
X0387979Y0158863D01*
X0387979Y0174399D01*
X0372519Y0165380D02*
X0372519Y0152782D01*
X0365779Y0152782D01*
X0365779Y0165380D01*
X0372519Y0165380D01*
X0387929Y0158799D02*
X0395669Y0158799D01*
X0395669Y0143263D01*
X0387929Y0143263D01*
X0387929Y0158799D01*
X0381398Y0148751D02*
X0368800Y0148751D01*
X0368800Y0142011D01*
X0381398Y0142011D01*
X0381398Y0148751D01*
X0474379Y0250495D02*
X0483619Y0250495D01*
X0483619Y0269967D01*
X0474379Y0269967D01*
X0474379Y0250495D01*
X0327405Y0261883D02*
X0324403Y0261883D01*
X0326655Y0264135D01*
X0326655Y0259631D01*
X0321300Y0261883D02*
X0319799Y0261883D01*
X0319799Y0259631D02*
X0319799Y0264135D01*
X0322801Y0264135D01*
X0174069Y0177880D02*
X0167329Y0177880D01*
X0167329Y0165282D01*
X0174069Y0165282D01*
X0174069Y0177880D01*
X0167319Y0177880D02*
X0160579Y0177880D01*
X0160579Y0165282D01*
X0167319Y0165282D01*
X0167319Y0177880D01*
X0167329Y0165280D02*
X0174069Y0165280D01*
X0174069Y0152682D01*
X0167329Y0152682D01*
X0167329Y0165280D01*
X0074998Y0270131D02*
X0076499Y0271632D01*
X0076499Y0273134D01*
X0074998Y0274635D01*
X0072646Y0274635D02*
X0070394Y0272383D01*
X0073397Y0272383D01*
X0072646Y0270131D02*
X0072646Y0274635D01*
X0068793Y0273884D02*
X0068793Y0273134D01*
X0068042Y0272383D01*
X0065790Y0272383D01*
X0065790Y0270131D02*
X0068042Y0270131D01*
X0068793Y0270882D01*
X0068793Y0271632D01*
X0068042Y0272383D01*
X0068793Y0273884D02*
X0068042Y0274635D01*
X0065790Y0274635D01*
X0065790Y0270131D01*
X0064189Y0270131D02*
X0061186Y0270131D01*
X0062687Y0270131D02*
X0062687Y0274635D01*
X0061186Y0273134D01*
X0059601Y0273134D02*
X0058851Y0273134D01*
X0057349Y0271632D01*
X0057349Y0270131D02*
X0057349Y0273134D01*
X0051144Y0270131D02*
X0048142Y0270131D01*
X0049643Y0270131D02*
X0049643Y0274635D01*
X0048142Y0273134D01*
X0046540Y0273134D02*
X0046540Y0273884D01*
X0045790Y0274635D01*
X0044288Y0274635D01*
X0043538Y0273884D01*
X0041936Y0273884D02*
X0038934Y0270882D01*
X0039684Y0270131D01*
X0041186Y0270131D01*
X0041936Y0270882D01*
X0041936Y0273884D01*
X0041186Y0274635D01*
X0039684Y0274635D01*
X0038934Y0273884D01*
X0038934Y0270882D01*
X0037332Y0270131D02*
X0034330Y0270131D01*
X0037332Y0273134D01*
X0037332Y0273884D01*
X0036582Y0274635D01*
X0035081Y0274635D01*
X0034330Y0273884D01*
X0032729Y0274635D02*
X0029726Y0270131D01*
X0028125Y0270882D02*
X0027374Y0270131D01*
X0025873Y0270131D01*
X0025122Y0270882D01*
X0025122Y0271632D01*
X0025873Y0272383D01*
X0027374Y0272383D01*
X0028125Y0271632D01*
X0028125Y0270882D01*
X0027374Y0272383D02*
X0028125Y0273134D01*
X0028125Y0273884D01*
X0027374Y0274635D01*
X0025873Y0274635D01*
X0025122Y0273884D01*
X0025122Y0273134D01*
X0025873Y0272383D01*
X0023521Y0273884D02*
X0023521Y0270882D01*
X0022770Y0270131D01*
X0021269Y0270131D01*
X0020518Y0270882D01*
X0023521Y0273884D01*
X0022770Y0274635D01*
X0021269Y0274635D01*
X0020518Y0273884D01*
X0020518Y0270882D01*
X0018950Y0270131D02*
X0017449Y0271632D01*
X0017449Y0273134D01*
X0018950Y0274635D01*
X0017449Y0277631D02*
X0020451Y0277631D01*
X0022053Y0277631D02*
X0025055Y0277631D01*
X0026657Y0277631D02*
X0029659Y0277631D01*
X0026657Y0277631D02*
X0026657Y0278382D01*
X0029659Y0281384D01*
X0029659Y0282135D01*
X0026657Y0282135D01*
X0025055Y0282135D02*
X0022053Y0282135D01*
X0022053Y0277631D01*
X0022053Y0279883D02*
X0023554Y0279883D01*
X0020451Y0282135D02*
X0017449Y0282135D01*
X0017449Y0277631D01*
X0017449Y0279883D02*
X0018950Y0279883D01*
X0035865Y0277631D02*
X0038116Y0277631D01*
X0038867Y0278382D01*
X0038867Y0281384D01*
X0038116Y0282135D01*
X0035865Y0282135D01*
X0035865Y0277631D01*
X0040468Y0277631D02*
X0041970Y0277631D01*
X0041219Y0277631D02*
X0041219Y0282135D01*
X0040468Y0282135D02*
X0041970Y0282135D01*
X0043538Y0282135D02*
X0045790Y0282135D01*
X0046540Y0281384D01*
X0046540Y0280634D01*
X0045790Y0279883D01*
X0043538Y0279883D01*
X0045790Y0279883D02*
X0046540Y0279132D01*
X0046540Y0278382D01*
X0045790Y0277631D01*
X0043538Y0277631D01*
X0043538Y0282135D01*
X0052746Y0280634D02*
X0052746Y0277631D01*
X0052746Y0279883D02*
X0055748Y0279883D01*
X0055748Y0280634D02*
X0055748Y0277631D01*
X0057349Y0277631D02*
X0057349Y0282135D01*
X0060352Y0282135D01*
X0061953Y0282135D02*
X0061953Y0277631D01*
X0064956Y0277631D01*
X0066557Y0278382D02*
X0067308Y0277631D01*
X0068809Y0277631D01*
X0069560Y0278382D01*
X0069560Y0279132D01*
X0068809Y0279883D01*
X0068059Y0279883D01*
X0068809Y0279883D02*
X0069560Y0280634D01*
X0069560Y0281384D01*
X0068809Y0282135D01*
X0067308Y0282135D01*
X0066557Y0281384D01*
X0064956Y0282135D02*
X0061953Y0282135D01*
X0061953Y0279883D02*
X0063455Y0279883D01*
X0058851Y0279883D02*
X0057349Y0279883D01*
X0055748Y0280634D02*
X0054247Y0282135D01*
X0052746Y0280634D01*
X0046540Y0273134D02*
X0043538Y0270131D01*
X0046540Y0270131D01*
D11*
X0102499Y0213381D02*
X0102499Y0207881D01*
X0117499Y0207881D01*
X0117499Y0208881D01*
X0122499Y0212381D02*
X0122499Y0213381D01*
X0127499Y0208881D02*
X0127499Y0207881D01*
X0142499Y0207881D01*
X0142499Y0213381D01*
X0142499Y0202881D02*
X0127499Y0202881D01*
X0127499Y0201881D01*
X0122499Y0198381D02*
X0122499Y0197381D01*
X0117499Y0201881D02*
X0117499Y0202881D01*
X0102499Y0202881D01*
X0102499Y0197381D01*
X0142499Y0197381D02*
X0142499Y0202881D01*
X0185099Y0175631D02*
X0198899Y0175631D01*
X0198901Y0175562D01*
X0198907Y0175494D01*
X0198917Y0175426D01*
X0198930Y0175359D01*
X0198948Y0175293D01*
X0198969Y0175228D01*
X0198994Y0175164D01*
X0199022Y0175102D01*
X0199054Y0175041D01*
X0199089Y0174982D01*
X0199128Y0174926D01*
X0199170Y0174871D01*
X0199215Y0174820D01*
X0199263Y0174770D01*
X0199313Y0174724D01*
X0199366Y0174681D01*
X0199422Y0174640D01*
X0199479Y0174603D01*
X0199539Y0174570D01*
X0199601Y0174539D01*
X0199664Y0174513D01*
X0199728Y0174490D01*
X0199794Y0174470D01*
X0199861Y0174455D01*
X0199928Y0174443D01*
X0199996Y0174435D01*
X0200065Y0174431D01*
X0200133Y0174431D01*
X0200202Y0174435D01*
X0200270Y0174443D01*
X0200337Y0174455D01*
X0200404Y0174470D01*
X0200470Y0174490D01*
X0200534Y0174513D01*
X0200597Y0174539D01*
X0200659Y0174570D01*
X0200719Y0174603D01*
X0200776Y0174640D01*
X0200832Y0174681D01*
X0200885Y0174724D01*
X0200935Y0174770D01*
X0200983Y0174820D01*
X0201028Y0174871D01*
X0201070Y0174926D01*
X0201109Y0174982D01*
X0201144Y0175041D01*
X0201176Y0175102D01*
X0201204Y0175164D01*
X0201229Y0175228D01*
X0201250Y0175293D01*
X0201268Y0175359D01*
X0201281Y0175426D01*
X0201291Y0175494D01*
X0201297Y0175562D01*
X0201299Y0175631D01*
X0215099Y0175631D01*
X0191099Y0172781D02*
X0191099Y0170781D01*
X0187849Y0172781D01*
X0191099Y0172781D01*
X0191099Y0172513D02*
X0188284Y0172513D01*
X0189256Y0171915D02*
X0191099Y0171915D01*
X0191099Y0171316D02*
X0190229Y0171316D01*
X0216318Y0192215D02*
X0216318Y0205931D01*
X0222499Y0203681D02*
X0223499Y0203681D01*
X0223499Y0197431D01*
X0224999Y0197431D01*
X0224999Y0199931D01*
X0244999Y0199931D01*
X0244999Y0195431D01*
X0224999Y0195431D01*
X0222499Y0195431D01*
X0222499Y0203681D01*
X0224999Y0197431D02*
X0224999Y0195431D01*
X0216318Y0192215D02*
X0318680Y0192215D01*
X0318680Y0205931D01*
X0312499Y0203681D02*
X0311499Y0203681D01*
X0311499Y0197431D01*
X0309999Y0197431D01*
X0309999Y0195431D02*
X0312499Y0195431D01*
X0312499Y0203681D01*
X0309999Y0199931D02*
X0289999Y0199931D01*
X0289999Y0195431D01*
X0309999Y0195431D01*
X0309999Y0199931D01*
X0318680Y0213931D02*
X0318680Y0227648D01*
X0216318Y0227648D01*
X0216318Y0213931D01*
X0222499Y0216181D02*
X0223499Y0216181D01*
X0223499Y0222431D01*
X0224999Y0222431D01*
X0224999Y0224431D02*
X0222499Y0224431D01*
X0222499Y0216181D01*
X0224999Y0219931D02*
X0244999Y0219931D01*
X0244999Y0224431D01*
X0224999Y0224431D01*
X0224999Y0219931D01*
X0216268Y0228765D02*
X0216268Y0242481D01*
X0222449Y0240231D02*
X0223449Y0240231D01*
X0223449Y0233981D01*
X0224949Y0233981D01*
X0224949Y0236481D01*
X0244949Y0236481D01*
X0244949Y0231981D01*
X0224949Y0231981D01*
X0222449Y0231981D01*
X0222449Y0240231D01*
X0224949Y0233981D02*
X0224949Y0231981D01*
X0216268Y0228765D02*
X0318630Y0228765D01*
X0318630Y0242481D01*
X0312449Y0240231D02*
X0311449Y0240231D01*
X0311449Y0233981D01*
X0309949Y0233981D01*
X0309949Y0231981D02*
X0312449Y0231981D01*
X0312449Y0240231D01*
X0309949Y0236481D02*
X0289949Y0236481D01*
X0289949Y0231981D01*
X0309949Y0231981D01*
X0309949Y0236481D01*
X0318630Y0250481D02*
X0318630Y0264198D01*
X0216268Y0264198D01*
X0216268Y0250481D01*
X0222449Y0252731D02*
X0223449Y0252731D01*
X0223449Y0258981D01*
X0224949Y0258981D01*
X0224949Y0260981D02*
X0224949Y0256481D01*
X0244949Y0256481D01*
X0244949Y0260981D01*
X0224949Y0260981D01*
X0222449Y0260981D01*
X0222449Y0252731D01*
X0199899Y0237931D02*
X0199899Y0236731D01*
X0185699Y0236731D01*
X0185697Y0236800D01*
X0185691Y0236868D01*
X0185681Y0236936D01*
X0185668Y0237003D01*
X0185650Y0237069D01*
X0185629Y0237134D01*
X0185604Y0237198D01*
X0185576Y0237260D01*
X0185544Y0237321D01*
X0185509Y0237380D01*
X0185470Y0237436D01*
X0185428Y0237491D01*
X0185383Y0237542D01*
X0185335Y0237592D01*
X0185285Y0237638D01*
X0185232Y0237681D01*
X0185176Y0237722D01*
X0185119Y0237759D01*
X0185059Y0237792D01*
X0184997Y0237823D01*
X0184934Y0237849D01*
X0184870Y0237872D01*
X0184804Y0237892D01*
X0184737Y0237907D01*
X0184670Y0237919D01*
X0184602Y0237927D01*
X0184533Y0237931D01*
X0184465Y0237931D01*
X0184396Y0237927D01*
X0184328Y0237919D01*
X0184261Y0237907D01*
X0184194Y0237892D01*
X0184128Y0237872D01*
X0184064Y0237849D01*
X0184001Y0237823D01*
X0183939Y0237792D01*
X0183879Y0237759D01*
X0183822Y0237722D01*
X0183766Y0237681D01*
X0183713Y0237638D01*
X0183663Y0237592D01*
X0183615Y0237542D01*
X0183570Y0237491D01*
X0183528Y0237436D01*
X0183489Y0237380D01*
X0183454Y0237321D01*
X0183422Y0237260D01*
X0183394Y0237198D01*
X0183369Y0237134D01*
X0183348Y0237069D01*
X0183330Y0237003D01*
X0183317Y0236936D01*
X0183307Y0236868D01*
X0183301Y0236800D01*
X0183299Y0236731D01*
X0169099Y0236731D01*
X0169099Y0237931D01*
X0194049Y0240281D02*
X0194049Y0242781D01*
X0197549Y0240281D01*
X0194049Y0240281D01*
X0194049Y0240744D02*
X0196901Y0240744D01*
X0196063Y0241342D02*
X0194049Y0241342D01*
X0194049Y0241941D02*
X0195225Y0241941D01*
X0194387Y0242539D02*
X0194049Y0242539D01*
X0157099Y0268481D02*
X0152349Y0268481D01*
X0154849Y0271731D01*
X0157099Y0268481D01*
X0156827Y0268874D02*
X0152651Y0268874D01*
X0153111Y0269472D02*
X0156413Y0269472D01*
X0155998Y0270071D02*
X0153572Y0270071D01*
X0154032Y0270669D02*
X0155584Y0270669D01*
X0155170Y0271268D02*
X0154492Y0271268D01*
X0169099Y0282731D02*
X0169099Y0283931D01*
X0199899Y0283931D01*
X0199899Y0282731D01*
X0289949Y0260981D02*
X0289949Y0256481D01*
X0309949Y0256481D01*
X0309949Y0258981D01*
X0311449Y0258981D01*
X0311449Y0252731D01*
X0312449Y0252731D01*
X0312449Y0260981D01*
X0309949Y0260981D01*
X0289949Y0260981D01*
X0309949Y0260981D02*
X0309949Y0258981D01*
X0362549Y0257231D02*
X0362549Y0262731D01*
X0362549Y0257231D02*
X0377549Y0257231D01*
X0377549Y0258231D01*
X0382549Y0261731D02*
X0382549Y0262731D01*
X0387549Y0258231D02*
X0387549Y0257231D01*
X0402549Y0257231D01*
X0402549Y0262731D01*
X0402549Y0252231D02*
X0387549Y0252231D01*
X0387549Y0251231D01*
X0382549Y0247731D02*
X0382549Y0246731D01*
X0377549Y0251231D02*
X0377549Y0252231D01*
X0362549Y0252231D01*
X0362549Y0246731D01*
X0402549Y0246731D02*
X0402549Y0252231D01*
X0397949Y0213781D02*
X0397137Y0213781D01*
X0397137Y0194581D01*
X0397949Y0194581D01*
X0397949Y0186981D02*
X0397137Y0186981D01*
X0397137Y0167781D01*
X0397949Y0167781D01*
X0407349Y0167781D02*
X0408161Y0167781D01*
X0408161Y0186981D01*
X0407349Y0186981D01*
X0409887Y0186981D02*
X0410699Y0186981D01*
X0409887Y0186981D02*
X0409887Y0167781D01*
X0410699Y0167781D01*
X0420099Y0167781D02*
X0420911Y0167781D01*
X0420911Y0186981D01*
X0420099Y0186981D01*
X0420099Y0194581D02*
X0420911Y0194581D01*
X0420911Y0213781D01*
X0420099Y0213781D01*
X0410699Y0213781D02*
X0409887Y0213781D01*
X0409887Y0194581D01*
X0410699Y0194581D01*
X0408161Y0194581D02*
X0407349Y0194581D01*
X0408161Y0194581D02*
X0408161Y0213781D01*
X0407349Y0213781D01*
X0377449Y0183681D02*
X0375849Y0183681D01*
X0374249Y0183681D01*
X0374549Y0182481D02*
X0374617Y0182477D01*
X0374686Y0182478D01*
X0374754Y0182482D01*
X0374822Y0182490D01*
X0374890Y0182501D01*
X0374957Y0182517D01*
X0375023Y0182537D01*
X0375087Y0182560D01*
X0375150Y0182587D01*
X0375212Y0182617D01*
X0375271Y0182651D01*
X0375329Y0182688D01*
X0375384Y0182729D01*
X0375437Y0182772D01*
X0375488Y0182819D01*
X0375535Y0182868D01*
X0375580Y0182920D01*
X0375622Y0182975D01*
X0375661Y0183031D01*
X0375696Y0183090D01*
X0375728Y0183151D01*
X0375756Y0183213D01*
X0375781Y0183278D01*
X0375802Y0183343D01*
X0375819Y0183409D01*
X0375832Y0183477D01*
X0375842Y0183544D01*
X0375847Y0183613D01*
X0375849Y0183681D01*
X0377449Y0183681D02*
X0377449Y0180181D01*
X0377449Y0175381D02*
X0377449Y0171881D01*
X0374249Y0171881D01*
X0371849Y0176181D02*
X0371849Y0179381D01*
X0364149Y0180181D02*
X0364149Y0183681D01*
X0362549Y0183681D01*
X0360949Y0183681D01*
X0361249Y0182481D02*
X0361317Y0182477D01*
X0361386Y0182478D01*
X0361454Y0182482D01*
X0361522Y0182490D01*
X0361590Y0182501D01*
X0361657Y0182517D01*
X0361723Y0182537D01*
X0361787Y0182560D01*
X0361850Y0182587D01*
X0361912Y0182617D01*
X0361971Y0182651D01*
X0362029Y0182688D01*
X0362084Y0182729D01*
X0362137Y0182772D01*
X0362188Y0182819D01*
X0362235Y0182868D01*
X0362280Y0182920D01*
X0362322Y0182975D01*
X0362361Y0183031D01*
X0362396Y0183090D01*
X0362428Y0183151D01*
X0362456Y0183213D01*
X0362481Y0183278D01*
X0362502Y0183343D01*
X0362519Y0183409D01*
X0362532Y0183477D01*
X0362542Y0183544D01*
X0362547Y0183613D01*
X0362549Y0183681D01*
X0358549Y0179381D02*
X0358549Y0176181D01*
X0364149Y0175381D02*
X0364149Y0171881D01*
X0360949Y0171881D01*
X0378349Y0161331D02*
X0380949Y0161331D01*
X0385649Y0161331D02*
X0385649Y0154531D01*
X0373649Y0150231D02*
X0373649Y0159131D01*
X0362699Y0154281D02*
X0323699Y0154281D01*
X0323699Y0149031D01*
X0323768Y0149029D01*
X0323836Y0149023D01*
X0323904Y0149013D01*
X0323971Y0149000D01*
X0324037Y0148982D01*
X0324102Y0148961D01*
X0324166Y0148936D01*
X0324228Y0148908D01*
X0324289Y0148876D01*
X0324348Y0148841D01*
X0324404Y0148802D01*
X0324459Y0148760D01*
X0324510Y0148715D01*
X0324560Y0148667D01*
X0324606Y0148617D01*
X0324649Y0148564D01*
X0324690Y0148508D01*
X0324727Y0148451D01*
X0324760Y0148391D01*
X0324791Y0148329D01*
X0324817Y0148266D01*
X0324840Y0148202D01*
X0324860Y0148136D01*
X0324875Y0148069D01*
X0324887Y0148002D01*
X0324895Y0147934D01*
X0324899Y0147865D01*
X0324899Y0147797D01*
X0324895Y0147728D01*
X0324887Y0147660D01*
X0324875Y0147593D01*
X0324860Y0147526D01*
X0324840Y0147460D01*
X0324817Y0147396D01*
X0324791Y0147333D01*
X0324760Y0147271D01*
X0324727Y0147211D01*
X0324690Y0147154D01*
X0324649Y0147098D01*
X0324606Y0147045D01*
X0324560Y0146995D01*
X0324510Y0146947D01*
X0324459Y0146902D01*
X0324404Y0146860D01*
X0324348Y0146821D01*
X0324289Y0146786D01*
X0324228Y0146754D01*
X0324166Y0146726D01*
X0324102Y0146701D01*
X0324037Y0146680D01*
X0323971Y0146662D01*
X0323904Y0146649D01*
X0323836Y0146639D01*
X0323768Y0146633D01*
X0323699Y0146631D01*
X0323699Y0141381D01*
X0362699Y0141381D01*
X0362699Y0154281D01*
X0397137Y0160081D02*
X0397137Y0140881D01*
X0397949Y0140881D01*
X0407349Y0140881D02*
X0408161Y0140881D01*
X0408161Y0160081D01*
X0407349Y0160081D01*
X0409887Y0160081D02*
X0410699Y0160081D01*
X0409887Y0160081D02*
X0409887Y0140881D01*
X0410699Y0140881D01*
X0420099Y0140881D02*
X0420911Y0140881D01*
X0420911Y0160081D01*
X0420099Y0160081D01*
X0397949Y0160081D02*
X0397137Y0160081D01*
X0447049Y0150131D02*
X0447049Y0146131D01*
X0451049Y0150131D01*
X0447049Y0150131D01*
X0447049Y0149770D02*
X0450688Y0149770D01*
X0450089Y0149171D02*
X0447049Y0149171D01*
X0447049Y0148573D02*
X0449491Y0148573D01*
X0448892Y0147974D02*
X0447049Y0147974D01*
X0447049Y0147376D02*
X0448294Y0147376D01*
X0447695Y0146777D02*
X0447049Y0146777D01*
X0447049Y0146179D02*
X0447097Y0146179D01*
X0484249Y0150131D02*
X0488249Y0150131D01*
X0488249Y0146131D01*
X0490049Y0179831D02*
X0484649Y0179831D01*
X0484649Y0180431D01*
X0490049Y0179831D02*
X0490051Y0179900D01*
X0490057Y0179968D01*
X0490067Y0180036D01*
X0490080Y0180103D01*
X0490098Y0180169D01*
X0490119Y0180234D01*
X0490144Y0180298D01*
X0490172Y0180360D01*
X0490204Y0180421D01*
X0490239Y0180480D01*
X0490278Y0180536D01*
X0490320Y0180591D01*
X0490365Y0180642D01*
X0490413Y0180692D01*
X0490463Y0180738D01*
X0490516Y0180781D01*
X0490572Y0180822D01*
X0490629Y0180859D01*
X0490689Y0180892D01*
X0490751Y0180923D01*
X0490814Y0180949D01*
X0490878Y0180972D01*
X0490944Y0180992D01*
X0491011Y0181007D01*
X0491078Y0181019D01*
X0491146Y0181027D01*
X0491215Y0181031D01*
X0491283Y0181031D01*
X0491352Y0181027D01*
X0491420Y0181019D01*
X0491487Y0181007D01*
X0491554Y0180992D01*
X0491620Y0180972D01*
X0491684Y0180949D01*
X0491747Y0180923D01*
X0491809Y0180892D01*
X0491869Y0180859D01*
X0491926Y0180822D01*
X0491982Y0180781D01*
X0492035Y0180738D01*
X0492085Y0180692D01*
X0492133Y0180642D01*
X0492178Y0180591D01*
X0492220Y0180536D01*
X0492259Y0180480D01*
X0492294Y0180421D01*
X0492326Y0180360D01*
X0492354Y0180298D01*
X0492379Y0180234D01*
X0492400Y0180169D01*
X0492418Y0180103D01*
X0492431Y0180036D01*
X0492441Y0179968D01*
X0492447Y0179900D01*
X0492449Y0179831D01*
X0497849Y0179831D01*
X0497849Y0180431D01*
X0497849Y0192431D02*
X0497849Y0193031D01*
X0484649Y0193031D01*
X0484649Y0192431D01*
X0421449Y0121281D02*
X0419249Y0121281D01*
X0421449Y0121281D02*
X0421449Y0118081D01*
X0412449Y0121281D02*
X0410249Y0121281D01*
X0410249Y0118081D01*
X0407499Y0116381D02*
X0407499Y0098781D01*
X0410149Y0096631D02*
X0410149Y0093431D01*
X0412349Y0093431D01*
X0419149Y0093431D02*
X0421349Y0093431D01*
X0421349Y0096631D01*
X0447049Y0108931D02*
X0447049Y0112931D01*
X0447049Y0108931D02*
X0451049Y0108931D01*
X0484249Y0108931D02*
X0488249Y0108931D01*
X0488249Y0112931D01*
X0392249Y0104581D02*
X0389749Y0101081D01*
X0389749Y0104581D01*
X0392249Y0104581D01*
X0392036Y0104283D02*
X0389749Y0104283D01*
X0389749Y0103685D02*
X0391608Y0103685D01*
X0391181Y0103086D02*
X0389749Y0103086D01*
X0389749Y0102488D02*
X0390753Y0102488D01*
X0390326Y0101889D02*
X0389749Y0101889D01*
X0389749Y0101291D02*
X0389898Y0101291D01*
X0387499Y0098781D02*
X0387499Y0106381D01*
X0387568Y0106383D01*
X0387636Y0106389D01*
X0387704Y0106399D01*
X0387771Y0106412D01*
X0387837Y0106430D01*
X0387902Y0106451D01*
X0387966Y0106476D01*
X0388028Y0106504D01*
X0388089Y0106536D01*
X0388148Y0106571D01*
X0388204Y0106610D01*
X0388259Y0106652D01*
X0388310Y0106697D01*
X0388360Y0106745D01*
X0388406Y0106795D01*
X0388449Y0106848D01*
X0388490Y0106904D01*
X0388527Y0106961D01*
X0388560Y0107021D01*
X0388591Y0107083D01*
X0388617Y0107146D01*
X0388640Y0107210D01*
X0388660Y0107276D01*
X0388675Y0107343D01*
X0388687Y0107410D01*
X0388695Y0107478D01*
X0388699Y0107547D01*
X0388699Y0107615D01*
X0388695Y0107684D01*
X0388687Y0107752D01*
X0388675Y0107819D01*
X0388660Y0107886D01*
X0388640Y0107952D01*
X0388617Y0108016D01*
X0388591Y0108079D01*
X0388560Y0108141D01*
X0388527Y0108201D01*
X0388490Y0108258D01*
X0388449Y0108314D01*
X0388406Y0108367D01*
X0388360Y0108417D01*
X0388310Y0108465D01*
X0388259Y0108510D01*
X0388204Y0108552D01*
X0388148Y0108591D01*
X0388089Y0108626D01*
X0388028Y0108658D01*
X0387966Y0108686D01*
X0387902Y0108711D01*
X0387837Y0108732D01*
X0387771Y0108750D01*
X0387704Y0108763D01*
X0387636Y0108773D01*
X0387568Y0108779D01*
X0387499Y0108781D01*
X0387499Y0116381D01*
X0373349Y0092831D02*
X0368099Y0092831D01*
X0368097Y0092762D01*
X0368091Y0092694D01*
X0368081Y0092626D01*
X0368068Y0092559D01*
X0368050Y0092493D01*
X0368029Y0092428D01*
X0368004Y0092364D01*
X0367976Y0092302D01*
X0367944Y0092241D01*
X0367909Y0092182D01*
X0367870Y0092126D01*
X0367828Y0092071D01*
X0367783Y0092020D01*
X0367735Y0091970D01*
X0367685Y0091924D01*
X0367632Y0091881D01*
X0367576Y0091840D01*
X0367519Y0091803D01*
X0367459Y0091770D01*
X0367397Y0091739D01*
X0367334Y0091713D01*
X0367270Y0091690D01*
X0367204Y0091670D01*
X0367137Y0091655D01*
X0367070Y0091643D01*
X0367002Y0091635D01*
X0366933Y0091631D01*
X0366865Y0091631D01*
X0366796Y0091635D01*
X0366728Y0091643D01*
X0366661Y0091655D01*
X0366594Y0091670D01*
X0366528Y0091690D01*
X0366464Y0091713D01*
X0366401Y0091739D01*
X0366339Y0091770D01*
X0366279Y0091803D01*
X0366222Y0091840D01*
X0366166Y0091881D01*
X0366113Y0091924D01*
X0366063Y0091970D01*
X0366015Y0092020D01*
X0365970Y0092071D01*
X0365928Y0092126D01*
X0365889Y0092182D01*
X0365854Y0092241D01*
X0365822Y0092302D01*
X0365794Y0092364D01*
X0365769Y0092428D01*
X0365748Y0092493D01*
X0365730Y0092559D01*
X0365717Y0092626D01*
X0365707Y0092694D01*
X0365701Y0092762D01*
X0365699Y0092831D01*
X0360449Y0092831D01*
X0360449Y0053831D01*
X0373349Y0053831D01*
X0373349Y0092831D01*
X0365149Y0090831D02*
X0365149Y0088331D01*
X0361649Y0090831D01*
X0365149Y0090831D01*
X0365149Y0090517D02*
X0362088Y0090517D01*
X0362926Y0089919D02*
X0365149Y0089919D01*
X0365149Y0089320D02*
X0363764Y0089320D01*
X0364602Y0088722D02*
X0365149Y0088722D01*
X0332761Y0096881D02*
X0332761Y0077681D01*
X0331949Y0077681D01*
X0322549Y0077681D02*
X0321737Y0077681D01*
X0321737Y0096881D01*
X0322549Y0096881D01*
X0320861Y0096881D02*
X0320049Y0096881D01*
X0320861Y0096881D02*
X0320861Y0077681D01*
X0320049Y0077681D01*
X0310649Y0077681D02*
X0309837Y0077681D01*
X0309837Y0096881D01*
X0310649Y0096881D01*
X0331949Y0096881D02*
X0332761Y0096881D01*
X0287519Y0098495D02*
X0287519Y0080267D01*
X0262479Y0080267D01*
X0262479Y0098495D01*
X0283519Y0098495D01*
X0287519Y0098495D01*
X0281749Y0086881D02*
X0285249Y0084381D01*
X0281749Y0084381D01*
X0281749Y0086881D01*
X0281749Y0086328D02*
X0282523Y0086328D01*
X0281749Y0085729D02*
X0283361Y0085729D01*
X0284199Y0085131D02*
X0281749Y0085131D01*
X0281749Y0084532D02*
X0285037Y0084532D01*
X0207099Y0068781D02*
X0177099Y0068781D01*
X0177029Y0062545D02*
X0177029Y0044317D01*
X0202069Y0044317D01*
X0202069Y0062545D01*
X0198069Y0062545D01*
X0177029Y0062545D01*
X0196299Y0050931D02*
X0199799Y0048431D01*
X0196299Y0048431D01*
X0196299Y0050931D01*
X0196299Y0050417D02*
X0197018Y0050417D01*
X0196299Y0049819D02*
X0197856Y0049819D01*
X0198694Y0049220D02*
X0196299Y0049220D01*
X0196299Y0048622D02*
X0199532Y0048622D01*
X0113415Y0052950D02*
X0099699Y0052950D01*
X0101949Y0059131D02*
X0101949Y0060131D01*
X0108199Y0060131D01*
X0108199Y0061631D01*
X0105699Y0061631D01*
X0105699Y0081631D01*
X0110199Y0081631D01*
X0110199Y0061631D01*
X0110199Y0059131D01*
X0101949Y0059131D01*
X0108199Y0061631D02*
X0110199Y0061631D01*
X0113415Y0052950D02*
X0113415Y0155312D01*
X0099699Y0155312D01*
X0101949Y0149131D02*
X0101949Y0148131D01*
X0108199Y0148131D01*
X0108199Y0146631D01*
X0110199Y0146631D02*
X0110199Y0149131D01*
X0101949Y0149131D01*
X0105699Y0146631D02*
X0105699Y0126631D01*
X0110199Y0126631D01*
X0110199Y0146631D01*
X0105699Y0146631D01*
X0089449Y0148131D02*
X0089449Y0149131D01*
X0081199Y0149131D01*
X0081199Y0146631D01*
X0081199Y0126631D01*
X0085699Y0126631D01*
X0085699Y0146631D01*
X0083199Y0146631D01*
X0083199Y0148131D01*
X0089449Y0148131D01*
X0083199Y0146631D02*
X0081199Y0146631D01*
X0073599Y0146631D02*
X0073599Y0149131D01*
X0065349Y0149131D01*
X0065349Y0148131D01*
X0071599Y0148131D01*
X0071599Y0146631D01*
X0073599Y0146631D02*
X0069099Y0146631D01*
X0069099Y0126631D01*
X0073599Y0126631D01*
X0073599Y0146631D01*
X0076815Y0155312D02*
X0063099Y0155312D01*
X0055099Y0155312D02*
X0041382Y0155312D01*
X0041382Y0052950D01*
X0055099Y0052950D01*
X0052849Y0059131D02*
X0044599Y0059131D01*
X0044599Y0061631D01*
X0049099Y0061631D01*
X0049099Y0081631D01*
X0044599Y0081631D01*
X0044599Y0061631D01*
X0046599Y0061631D02*
X0046599Y0060131D01*
X0052849Y0060131D01*
X0052849Y0059131D01*
X0063099Y0052950D02*
X0076815Y0052950D01*
X0076815Y0155312D01*
X0077982Y0155312D02*
X0091699Y0155312D01*
X0077982Y0155312D02*
X0077982Y0052950D01*
X0091699Y0052950D01*
X0089449Y0059131D02*
X0081199Y0059131D01*
X0081199Y0061631D01*
X0085699Y0061631D01*
X0085699Y0081631D01*
X0081199Y0081631D01*
X0081199Y0061631D01*
X0083199Y0061631D02*
X0083199Y0060131D01*
X0089449Y0060131D01*
X0089449Y0059131D01*
X0073599Y0059131D02*
X0065349Y0059131D01*
X0065349Y0060131D01*
X0071599Y0060131D01*
X0071599Y0061631D01*
X0069099Y0061631D01*
X0069099Y0081631D01*
X0073599Y0081631D01*
X0073599Y0061631D01*
X0073599Y0059131D01*
X0073599Y0061631D02*
X0071599Y0061631D01*
X0001300Y0035173D02*
X0001300Y0159858D01*
X0037914Y0159858D01*
X0044599Y0149131D02*
X0052849Y0149131D01*
X0052849Y0148131D01*
X0046599Y0148131D01*
X0046599Y0146631D01*
X0049099Y0146631D01*
X0049099Y0126631D01*
X0044599Y0126631D01*
X0044599Y0146631D01*
X0044599Y0149131D01*
X0044599Y0146631D02*
X0046599Y0146631D01*
X0177099Y0109981D02*
X0190899Y0109981D01*
X0190901Y0109912D01*
X0190907Y0109844D01*
X0190917Y0109776D01*
X0190930Y0109709D01*
X0190948Y0109643D01*
X0190969Y0109578D01*
X0190994Y0109514D01*
X0191022Y0109452D01*
X0191054Y0109391D01*
X0191089Y0109332D01*
X0191128Y0109276D01*
X0191170Y0109221D01*
X0191215Y0109170D01*
X0191263Y0109120D01*
X0191313Y0109074D01*
X0191366Y0109031D01*
X0191422Y0108990D01*
X0191479Y0108953D01*
X0191539Y0108920D01*
X0191601Y0108889D01*
X0191664Y0108863D01*
X0191728Y0108840D01*
X0191794Y0108820D01*
X0191861Y0108805D01*
X0191928Y0108793D01*
X0191996Y0108785D01*
X0192065Y0108781D01*
X0192133Y0108781D01*
X0192202Y0108785D01*
X0192270Y0108793D01*
X0192337Y0108805D01*
X0192404Y0108820D01*
X0192470Y0108840D01*
X0192534Y0108863D01*
X0192597Y0108889D01*
X0192659Y0108920D01*
X0192719Y0108953D01*
X0192776Y0108990D01*
X0192832Y0109031D01*
X0192885Y0109074D01*
X0192935Y0109120D01*
X0192983Y0109170D01*
X0193028Y0109221D01*
X0193070Y0109276D01*
X0193109Y0109332D01*
X0193144Y0109391D01*
X0193176Y0109452D01*
X0193204Y0109514D01*
X0193229Y0109578D01*
X0193250Y0109643D01*
X0193268Y0109709D01*
X0193281Y0109776D01*
X0193291Y0109844D01*
X0193297Y0109912D01*
X0193299Y0109981D01*
X0207099Y0109981D01*
X0183099Y0107131D02*
X0183099Y0105131D01*
X0179849Y0107131D01*
X0183099Y0107131D01*
X0183099Y0106677D02*
X0180586Y0106677D01*
X0181559Y0106079D02*
X0183099Y0106079D01*
X0183099Y0105480D02*
X0182532Y0105480D01*
X0185099Y0134431D02*
X0215099Y0134431D01*
X0259337Y0139274D02*
X0262006Y0139274D01*
X0259337Y0139274D02*
X0259337Y0169589D01*
X0262006Y0169589D01*
X0267723Y0169589D02*
X0272006Y0169589D01*
X0277723Y0169589D02*
X0282006Y0169589D01*
X0287762Y0169589D02*
X0291849Y0169589D01*
X0297683Y0169589D02*
X0311928Y0169589D01*
X0317880Y0169589D02*
X0319180Y0169589D01*
X0319180Y0139274D01*
X0317880Y0139274D01*
X0311928Y0139274D02*
X0297683Y0139274D01*
X0291849Y0139274D02*
X0287762Y0139274D01*
X0282006Y0139274D02*
X0277723Y0139274D01*
X0272006Y0139274D02*
X0267723Y0139274D01*
X0325699Y0142581D02*
X0328199Y0146081D01*
X0325699Y0146081D01*
X0325699Y0142581D01*
X0325699Y0142588D02*
X0325704Y0142588D01*
X0325699Y0143186D02*
X0326131Y0143186D01*
X0326559Y0143785D02*
X0325699Y0143785D01*
X0325699Y0144383D02*
X0326986Y0144383D01*
X0327414Y0144982D02*
X0325699Y0144982D01*
X0325699Y0145580D02*
X0327841Y0145580D01*
X0312499Y0216181D02*
X0311499Y0216181D01*
X0311499Y0222431D01*
X0309999Y0222431D01*
X0309999Y0219931D01*
X0289999Y0219931D01*
X0289999Y0224431D01*
X0309999Y0224431D01*
X0312499Y0224431D01*
X0312499Y0216181D01*
X0309999Y0222431D02*
X0309999Y0224431D01*
X0447199Y0055231D02*
X0456099Y0055231D01*
X0458299Y0050531D02*
X0458299Y0047931D01*
X0458299Y0043231D02*
X0451499Y0043231D01*
D12*
X0127499Y0201631D02*
X0122499Y0198381D01*
X0127499Y0209131D02*
X0122499Y0212381D01*
X0382549Y0247731D02*
X0387549Y0250981D01*
X0387549Y0258481D02*
X0382549Y0261731D01*
X0026497Y0045000D02*
X0021576Y0046969D01*
X0021576Y0043032D01*
X0026497Y0045000D01*
X0025624Y0044651D02*
X0021576Y0044651D01*
X0021576Y0043653D02*
X0023128Y0043653D01*
X0021576Y0045650D02*
X0024873Y0045650D01*
X0022377Y0046648D02*
X0021576Y0046648D01*
D13*
X0077869Y0043959D02*
X0077869Y0040356D01*
X0080271Y0040356D01*
X0081552Y0040356D02*
X0083954Y0040356D01*
X0082753Y0040356D02*
X0082753Y0043959D01*
X0081552Y0042758D01*
X0094349Y0042482D02*
X0096150Y0042482D01*
X0096751Y0043083D01*
X0096751Y0044284D01*
X0096150Y0044884D01*
X0094349Y0044884D01*
X0094349Y0041281D01*
X0095550Y0042482D02*
X0096751Y0041281D01*
X0098032Y0041281D02*
X0100434Y0041281D01*
X0099233Y0041281D02*
X0099233Y0044884D01*
X0098032Y0043683D01*
X0113349Y0044784D02*
X0113349Y0041181D01*
X0113349Y0042382D02*
X0115150Y0042382D01*
X0115751Y0042983D01*
X0115751Y0044184D01*
X0115150Y0044784D01*
X0113349Y0044784D01*
X0114550Y0042382D02*
X0115751Y0041181D01*
X0117032Y0041782D02*
X0117632Y0041181D01*
X0118834Y0041181D01*
X0119434Y0041782D01*
X0119434Y0042382D01*
X0118834Y0042983D01*
X0118233Y0042983D01*
X0118834Y0042983D02*
X0119434Y0043583D01*
X0119434Y0044184D01*
X0118834Y0044784D01*
X0117632Y0044784D01*
X0117032Y0044184D01*
X0132799Y0044784D02*
X0132799Y0041181D01*
X0132799Y0042382D02*
X0134600Y0042382D01*
X0135201Y0042983D01*
X0135201Y0044184D01*
X0134600Y0044784D01*
X0132799Y0044784D01*
X0134000Y0042382D02*
X0135201Y0041181D01*
X0136482Y0041782D02*
X0137082Y0041181D01*
X0138284Y0041181D01*
X0138884Y0041782D01*
X0138884Y0042983D01*
X0138284Y0043583D01*
X0137683Y0043583D01*
X0136482Y0042983D01*
X0136482Y0044784D01*
X0138884Y0044784D01*
X0147199Y0031034D02*
X0149000Y0031034D01*
X0149601Y0030434D01*
X0149601Y0029233D01*
X0149000Y0028632D01*
X0147199Y0028632D01*
X0148400Y0028632D02*
X0149601Y0027431D01*
X0150882Y0027431D02*
X0150882Y0028032D01*
X0153284Y0030434D01*
X0153284Y0031034D01*
X0150882Y0031034D01*
X0147199Y0031034D02*
X0147199Y0027431D01*
X0147333Y0058931D02*
X0147333Y0062534D01*
X0149134Y0062534D01*
X0149735Y0061934D01*
X0149735Y0060733D01*
X0149134Y0060132D01*
X0147333Y0060132D01*
X0148534Y0060132D02*
X0149735Y0058931D01*
X0151016Y0059532D02*
X0151616Y0058931D01*
X0152817Y0058931D01*
X0153418Y0059532D01*
X0153418Y0060132D01*
X0152817Y0060733D01*
X0151016Y0060733D01*
X0151016Y0059532D01*
X0151016Y0060733D02*
X0152217Y0061934D01*
X0153418Y0062534D01*
X0146048Y0073981D02*
X0143646Y0073981D01*
X0143046Y0074582D01*
X0143046Y0075783D01*
X0143646Y0076383D01*
X0143646Y0077664D02*
X0144247Y0077664D01*
X0144847Y0078265D01*
X0144847Y0079466D01*
X0145448Y0080066D01*
X0146048Y0080066D01*
X0146649Y0079466D01*
X0146649Y0078265D01*
X0146048Y0077664D01*
X0145448Y0077664D01*
X0144847Y0078265D01*
X0144847Y0079466D02*
X0144247Y0080066D01*
X0143646Y0080066D01*
X0143046Y0079466D01*
X0143046Y0078265D01*
X0143646Y0077664D01*
X0146048Y0076383D02*
X0146649Y0075783D01*
X0146649Y0074582D01*
X0146048Y0073981D01*
X0155696Y0090281D02*
X0158098Y0090281D01*
X0158699Y0090882D01*
X0158699Y0092083D01*
X0158098Y0092683D01*
X0156897Y0093964D02*
X0156897Y0096366D01*
X0155096Y0095766D02*
X0156897Y0093964D01*
X0155696Y0092683D02*
X0155096Y0092083D01*
X0155096Y0090882D01*
X0155696Y0090281D01*
X0155096Y0095766D02*
X0158699Y0095766D01*
X0127967Y0109631D02*
X0125565Y0109631D01*
X0126766Y0109631D02*
X0126766Y0113234D01*
X0125565Y0112033D01*
X0124284Y0109631D02*
X0121882Y0109631D01*
X0123083Y0109631D02*
X0123083Y0113234D01*
X0121882Y0112033D01*
X0120601Y0111433D02*
X0120000Y0110832D01*
X0118199Y0110832D01*
X0119400Y0110832D02*
X0120601Y0109631D01*
X0120601Y0111433D02*
X0120601Y0112634D01*
X0120000Y0113234D01*
X0118199Y0113234D01*
X0118199Y0109631D01*
X0152499Y0113282D02*
X0153099Y0112681D01*
X0154300Y0112681D01*
X0154901Y0113282D01*
X0156182Y0112681D02*
X0158584Y0112681D01*
X0157383Y0112681D02*
X0157383Y0116284D01*
X0156182Y0115083D01*
X0154901Y0115684D02*
X0154300Y0116284D01*
X0153099Y0116284D01*
X0152499Y0115684D01*
X0152499Y0113282D01*
X0159749Y0113232D02*
X0159749Y0115634D01*
X0160349Y0116234D01*
X0161550Y0116234D01*
X0162151Y0115634D01*
X0163432Y0115634D02*
X0164032Y0116234D01*
X0165234Y0116234D01*
X0165834Y0115634D01*
X0165834Y0115033D01*
X0163432Y0112631D01*
X0165834Y0112631D01*
X0162151Y0113232D02*
X0161550Y0112631D01*
X0160349Y0112631D01*
X0159749Y0113232D01*
X0160283Y0117331D02*
X0160283Y0120934D01*
X0159082Y0119733D01*
X0157801Y0120334D02*
X0157801Y0119133D01*
X0157200Y0118532D01*
X0155399Y0118532D01*
X0156600Y0118532D02*
X0157801Y0117331D01*
X0159082Y0117331D02*
X0161484Y0117331D01*
X0162765Y0117331D02*
X0165167Y0119733D01*
X0165167Y0120334D01*
X0164567Y0120934D01*
X0163366Y0120934D01*
X0162765Y0120334D01*
X0162765Y0117331D02*
X0165167Y0117331D01*
X0157801Y0120334D02*
X0157200Y0120934D01*
X0155399Y0120934D01*
X0155399Y0117331D01*
X0174546Y0126932D02*
X0175146Y0126332D01*
X0177548Y0126332D01*
X0178149Y0126932D01*
X0178149Y0128133D01*
X0177548Y0128734D01*
X0178149Y0130015D02*
X0178149Y0132417D01*
X0178149Y0131216D02*
X0174546Y0131216D01*
X0175747Y0130015D01*
X0175146Y0128734D02*
X0174546Y0128133D01*
X0174546Y0126932D01*
X0174546Y0133698D02*
X0174546Y0136100D01*
X0175146Y0136100D01*
X0177548Y0133698D01*
X0178149Y0133698D01*
X0170898Y0141431D02*
X0171499Y0142032D01*
X0171499Y0143233D01*
X0170898Y0143833D01*
X0171499Y0145114D02*
X0171499Y0147516D01*
X0171499Y0146315D02*
X0167896Y0146315D01*
X0169097Y0145114D01*
X0168496Y0143833D02*
X0167896Y0143233D01*
X0167896Y0142032D01*
X0168496Y0141431D01*
X0170898Y0141431D01*
X0170898Y0148797D02*
X0171499Y0149398D01*
X0171499Y0150599D01*
X0170898Y0151199D01*
X0169697Y0151199D01*
X0169097Y0150599D01*
X0169097Y0149998D01*
X0169697Y0148797D01*
X0167896Y0148797D01*
X0167896Y0151199D01*
X0154499Y0158182D02*
X0154499Y0159383D01*
X0153898Y0159983D01*
X0154499Y0161264D02*
X0154499Y0163666D01*
X0154499Y0162465D02*
X0150896Y0162465D01*
X0152097Y0161264D01*
X0151496Y0159983D02*
X0150896Y0159383D01*
X0150896Y0158182D01*
X0151496Y0157581D01*
X0153898Y0157581D01*
X0154499Y0158182D01*
X0157399Y0160881D02*
X0158600Y0160881D01*
X0159201Y0161482D01*
X0160482Y0160881D02*
X0162884Y0160881D01*
X0161683Y0160881D02*
X0161683Y0164484D01*
X0160482Y0163283D01*
X0159201Y0163884D02*
X0158600Y0164484D01*
X0157399Y0164484D01*
X0156799Y0163884D01*
X0156799Y0161482D01*
X0157399Y0160881D01*
X0153898Y0164947D02*
X0154499Y0165548D01*
X0154499Y0166749D01*
X0153898Y0167349D01*
X0153298Y0167349D01*
X0152697Y0166749D01*
X0152697Y0164947D01*
X0153898Y0164947D01*
X0152697Y0164947D02*
X0151496Y0166148D01*
X0150896Y0167349D01*
X0153733Y0173981D02*
X0154934Y0173981D01*
X0155535Y0174582D01*
X0156816Y0174582D02*
X0157416Y0173981D01*
X0158617Y0173981D01*
X0159218Y0174582D01*
X0159218Y0176984D01*
X0158617Y0177584D01*
X0157416Y0177584D01*
X0156816Y0176984D01*
X0156816Y0176383D01*
X0157416Y0175783D01*
X0159218Y0175783D01*
X0155535Y0176984D02*
X0154934Y0177584D01*
X0153733Y0177584D01*
X0153133Y0176984D01*
X0153133Y0174582D01*
X0153733Y0173981D01*
X0164165Y0163884D02*
X0164766Y0164484D01*
X0165967Y0164484D01*
X0166567Y0163884D01*
X0166567Y0163283D01*
X0164165Y0160881D01*
X0166567Y0160881D01*
X0175449Y0175331D02*
X0176650Y0175331D01*
X0177251Y0175932D01*
X0178532Y0175331D02*
X0180934Y0175331D01*
X0179733Y0175331D02*
X0179733Y0178934D01*
X0178532Y0177733D01*
X0177251Y0178334D02*
X0176650Y0178934D01*
X0175449Y0178934D01*
X0174849Y0178334D01*
X0174849Y0175932D01*
X0175449Y0175331D01*
X0182215Y0175932D02*
X0182215Y0178334D01*
X0182816Y0178934D01*
X0184017Y0178934D01*
X0184617Y0178334D01*
X0182215Y0175932D01*
X0182816Y0175331D01*
X0184017Y0175331D01*
X0184617Y0175932D01*
X0184617Y0178334D01*
X0194616Y0188581D02*
X0194016Y0189182D01*
X0194616Y0188581D02*
X0195817Y0188581D01*
X0196418Y0189182D01*
X0196418Y0189782D01*
X0195817Y0190383D01*
X0194616Y0190383D01*
X0194016Y0190983D01*
X0194016Y0191584D01*
X0194616Y0192184D01*
X0195817Y0192184D01*
X0196418Y0191584D01*
X0212999Y0180184D02*
X0214200Y0180184D01*
X0213599Y0180184D02*
X0213599Y0176581D01*
X0212999Y0176581D02*
X0214200Y0176581D01*
X0215454Y0177182D02*
X0216055Y0176581D01*
X0217256Y0176581D01*
X0217856Y0177182D01*
X0219137Y0177182D02*
X0219738Y0176581D01*
X0220939Y0176581D01*
X0221539Y0177182D01*
X0221539Y0177782D01*
X0220939Y0178383D01*
X0220338Y0178383D01*
X0220939Y0178383D02*
X0221539Y0178983D01*
X0221539Y0179584D01*
X0220939Y0180184D01*
X0219738Y0180184D01*
X0219137Y0179584D01*
X0217856Y0179584D02*
X0217256Y0180184D01*
X0216055Y0180184D01*
X0215454Y0179584D01*
X0215454Y0177182D01*
X0226949Y0185281D02*
X0226949Y0188884D01*
X0228750Y0188884D01*
X0229351Y0188284D01*
X0229351Y0187083D01*
X0228750Y0186482D01*
X0226949Y0186482D01*
X0228150Y0186482D02*
X0229351Y0185281D01*
X0230632Y0187083D02*
X0233034Y0187083D01*
X0232434Y0188884D02*
X0230632Y0187083D01*
X0232434Y0188884D02*
X0232434Y0185281D01*
X0235799Y0174800D02*
X0235799Y0172398D01*
X0235799Y0173599D02*
X0232196Y0173599D01*
X0233397Y0172398D01*
X0235799Y0171117D02*
X0235799Y0168715D01*
X0235799Y0169916D02*
X0232196Y0169916D01*
X0233397Y0168715D01*
X0232796Y0167434D02*
X0232196Y0166833D01*
X0232196Y0165632D01*
X0232796Y0165032D01*
X0235198Y0165032D01*
X0235799Y0165632D01*
X0235799Y0166833D01*
X0235198Y0167434D01*
X0237899Y0170431D02*
X0237899Y0174034D01*
X0239700Y0174034D01*
X0240301Y0173434D01*
X0240301Y0172233D01*
X0239700Y0171632D01*
X0237899Y0171632D01*
X0239100Y0171632D02*
X0240301Y0170431D01*
X0241582Y0171032D02*
X0242182Y0170431D01*
X0243384Y0170431D01*
X0243984Y0171032D01*
X0243984Y0173434D01*
X0243384Y0174034D01*
X0242182Y0174034D01*
X0241582Y0173434D01*
X0241582Y0172833D01*
X0242182Y0172233D01*
X0243984Y0172233D01*
X0257849Y0167300D02*
X0257849Y0164898D01*
X0257849Y0166099D02*
X0254246Y0166099D01*
X0255447Y0164898D01*
X0258449Y0163617D02*
X0258449Y0161215D01*
X0257849Y0159934D02*
X0255447Y0159934D01*
X0254246Y0158733D01*
X0255447Y0157532D01*
X0257849Y0157532D01*
X0257849Y0156251D02*
X0257849Y0153848D01*
X0257849Y0155050D02*
X0254246Y0155050D01*
X0255447Y0153848D01*
X0257849Y0152567D02*
X0257849Y0150165D01*
X0254246Y0150165D01*
X0254246Y0148884D02*
X0254246Y0146482D01*
X0257849Y0146482D01*
X0257849Y0148884D01*
X0256047Y0147683D02*
X0256047Y0146482D01*
X0256648Y0145201D02*
X0257248Y0145201D01*
X0257849Y0144601D01*
X0257849Y0143400D01*
X0257248Y0142799D01*
X0256047Y0143400D02*
X0255447Y0142799D01*
X0254846Y0142799D01*
X0254246Y0143400D01*
X0254246Y0144601D01*
X0254846Y0145201D01*
X0256047Y0144601D02*
X0256648Y0145201D01*
X0256047Y0144601D02*
X0256047Y0143400D01*
X0254246Y0141545D02*
X0254246Y0140344D01*
X0254246Y0140944D02*
X0257849Y0140944D01*
X0257849Y0140344D02*
X0257849Y0141545D01*
X0249849Y0142415D02*
X0249849Y0144817D01*
X0249849Y0143616D02*
X0246246Y0143616D01*
X0247447Y0142415D01*
X0246846Y0141134D02*
X0246246Y0140533D01*
X0246246Y0139332D01*
X0246846Y0138732D01*
X0249248Y0138732D01*
X0249849Y0139332D01*
X0249849Y0140533D01*
X0249248Y0141134D01*
X0248047Y0146098D02*
X0248047Y0148500D01*
X0246246Y0147899D02*
X0248047Y0146098D01*
X0246246Y0147899D02*
X0249849Y0147899D01*
X0236317Y0155782D02*
X0235717Y0155181D01*
X0234516Y0155181D01*
X0233915Y0155782D01*
X0232634Y0155181D02*
X0230232Y0155181D01*
X0231433Y0155181D02*
X0231433Y0158784D01*
X0230232Y0157583D01*
X0228951Y0158184D02*
X0228350Y0158784D01*
X0227149Y0158784D01*
X0226549Y0158184D01*
X0226549Y0155782D01*
X0227149Y0155181D01*
X0228350Y0155181D01*
X0228951Y0155782D01*
X0233915Y0158184D02*
X0234516Y0158784D01*
X0235717Y0158784D01*
X0236317Y0158184D01*
X0236317Y0157583D01*
X0235717Y0156983D01*
X0236317Y0156382D01*
X0236317Y0155782D01*
X0235717Y0156983D02*
X0235116Y0156983D01*
X0256047Y0157532D02*
X0256047Y0159934D01*
X0268599Y0184981D02*
X0269200Y0184981D01*
X0269800Y0185582D01*
X0269800Y0188584D01*
X0269200Y0188584D02*
X0270401Y0188584D01*
X0271682Y0188584D02*
X0271682Y0184981D01*
X0271682Y0186182D02*
X0273484Y0186182D01*
X0274084Y0186783D01*
X0274084Y0187984D01*
X0273484Y0188584D01*
X0271682Y0188584D01*
X0275365Y0187383D02*
X0276566Y0188584D01*
X0276566Y0184981D01*
X0275365Y0184981D02*
X0277767Y0184981D01*
X0268599Y0184981D02*
X0267999Y0185582D01*
X0319599Y0180632D02*
X0320199Y0180031D01*
X0320800Y0180031D01*
X0321400Y0180632D01*
X0321400Y0183634D01*
X0320800Y0183634D02*
X0322001Y0183634D01*
X0323282Y0183634D02*
X0325084Y0183634D01*
X0325684Y0183034D01*
X0325684Y0181833D01*
X0325084Y0181232D01*
X0323282Y0181232D01*
X0323282Y0180031D02*
X0323282Y0183634D01*
X0326965Y0183034D02*
X0327566Y0183634D01*
X0328767Y0183634D01*
X0329367Y0183034D01*
X0329367Y0182433D01*
X0326965Y0180031D01*
X0329367Y0180031D01*
X0339849Y0166034D02*
X0341050Y0166034D01*
X0340449Y0166034D02*
X0340449Y0162431D01*
X0339849Y0162431D02*
X0341050Y0162431D01*
X0342304Y0163032D02*
X0342905Y0162431D01*
X0344106Y0162431D01*
X0344706Y0163032D01*
X0345987Y0163032D02*
X0346588Y0162431D01*
X0347789Y0162431D01*
X0348389Y0163032D01*
X0348389Y0163632D01*
X0347789Y0164233D01*
X0345987Y0164233D01*
X0345987Y0163032D01*
X0345987Y0164233D02*
X0347188Y0165434D01*
X0348389Y0166034D01*
X0344706Y0165434D02*
X0344106Y0166034D01*
X0342905Y0166034D01*
X0342304Y0165434D01*
X0342304Y0163032D01*
X0355599Y0162932D02*
X0356199Y0162331D01*
X0357400Y0162331D01*
X0358001Y0162932D01*
X0359282Y0162331D02*
X0361684Y0164733D01*
X0361684Y0165334D01*
X0361084Y0165934D01*
X0359882Y0165934D01*
X0359282Y0165334D01*
X0358001Y0165334D02*
X0357400Y0165934D01*
X0356199Y0165934D01*
X0355599Y0165334D01*
X0355599Y0162932D01*
X0359282Y0162331D02*
X0361684Y0162331D01*
X0362965Y0162331D02*
X0365367Y0162331D01*
X0364166Y0162331D02*
X0364166Y0165934D01*
X0362965Y0164733D01*
X0363282Y0167381D02*
X0365684Y0169783D01*
X0365684Y0170384D01*
X0365084Y0170984D01*
X0363882Y0170984D01*
X0363282Y0170384D01*
X0362001Y0170384D02*
X0362001Y0167982D01*
X0361400Y0167381D01*
X0360199Y0167381D01*
X0359599Y0167982D01*
X0359599Y0170384D01*
X0360199Y0170984D01*
X0361400Y0170984D01*
X0362001Y0170384D01*
X0360800Y0168582D02*
X0362001Y0167381D01*
X0363282Y0167381D02*
X0365684Y0167381D01*
X0375199Y0166331D02*
X0376400Y0166331D01*
X0375799Y0166331D02*
X0375799Y0169934D01*
X0375199Y0169934D02*
X0376400Y0169934D01*
X0377654Y0169334D02*
X0377654Y0166932D01*
X0378255Y0166331D01*
X0379456Y0166331D01*
X0380056Y0166932D01*
X0381337Y0166932D02*
X0381337Y0166331D01*
X0381337Y0166932D02*
X0383739Y0169334D01*
X0383739Y0169934D01*
X0381337Y0169934D01*
X0380056Y0169334D02*
X0379456Y0169934D01*
X0378255Y0169934D01*
X0377654Y0169334D01*
X0389346Y0175431D02*
X0389346Y0177233D01*
X0389946Y0177833D01*
X0391147Y0177833D01*
X0391748Y0177233D01*
X0391748Y0175431D01*
X0392949Y0175431D02*
X0389346Y0175431D01*
X0391748Y0176632D02*
X0392949Y0177833D01*
X0392348Y0179114D02*
X0392949Y0179715D01*
X0392949Y0180916D01*
X0392348Y0181516D01*
X0391748Y0181516D01*
X0391147Y0180916D01*
X0391147Y0180315D01*
X0391147Y0180916D02*
X0390547Y0181516D01*
X0389946Y0181516D01*
X0389346Y0180916D01*
X0389346Y0179715D01*
X0389946Y0179114D01*
X0390547Y0182797D02*
X0389346Y0183998D01*
X0392949Y0183998D01*
X0392949Y0182797D02*
X0392949Y0185199D01*
X0384884Y0180531D02*
X0382482Y0180531D01*
X0383683Y0180531D02*
X0383683Y0184134D01*
X0382482Y0182933D01*
X0381201Y0183534D02*
X0380600Y0184134D01*
X0379399Y0184134D01*
X0378799Y0183534D01*
X0378799Y0181132D01*
X0379399Y0180531D01*
X0380600Y0180531D01*
X0381201Y0181132D01*
X0381201Y0183534D01*
X0380000Y0181732D02*
X0381201Y0180531D01*
X0373117Y0202081D02*
X0373717Y0202682D01*
X0373717Y0205084D01*
X0373117Y0205684D01*
X0371916Y0205684D01*
X0371315Y0205084D01*
X0371315Y0204483D01*
X0371916Y0203883D01*
X0373717Y0203883D01*
X0373117Y0202081D02*
X0371916Y0202081D01*
X0371315Y0202682D01*
X0370034Y0202081D02*
X0367632Y0202081D01*
X0370034Y0204483D01*
X0370034Y0205084D01*
X0369434Y0205684D01*
X0368232Y0205684D01*
X0367632Y0205084D01*
X0366351Y0205084D02*
X0366351Y0203883D01*
X0365750Y0203282D01*
X0363949Y0203282D01*
X0365150Y0203282D02*
X0366351Y0202081D01*
X0363949Y0202081D02*
X0363949Y0205684D01*
X0365750Y0205684D01*
X0366351Y0205084D01*
X0351667Y0228531D02*
X0349265Y0228531D01*
X0351667Y0230933D01*
X0351667Y0231534D01*
X0351067Y0232134D01*
X0349866Y0232134D01*
X0349265Y0231534D01*
X0347984Y0231534D02*
X0347984Y0230933D01*
X0347384Y0230333D01*
X0347984Y0229732D01*
X0347984Y0229132D01*
X0347384Y0228531D01*
X0346182Y0228531D01*
X0345582Y0229132D01*
X0344301Y0228531D02*
X0343100Y0229732D01*
X0343700Y0229732D02*
X0341899Y0229732D01*
X0341899Y0228531D02*
X0341899Y0232134D01*
X0343700Y0232134D01*
X0344301Y0231534D01*
X0344301Y0230333D01*
X0343700Y0229732D01*
X0345582Y0231534D02*
X0346182Y0232134D01*
X0347384Y0232134D01*
X0347984Y0231534D01*
X0347384Y0230333D02*
X0346783Y0230333D01*
X0396649Y0282081D02*
X0397850Y0282081D01*
X0397249Y0282081D02*
X0397249Y0285684D01*
X0396649Y0285684D02*
X0397850Y0285684D01*
X0399104Y0285084D02*
X0399104Y0284483D01*
X0399705Y0283883D01*
X0400906Y0283883D01*
X0401506Y0283282D01*
X0401506Y0282682D01*
X0400906Y0282081D01*
X0399705Y0282081D01*
X0399104Y0282682D01*
X0399104Y0285084D02*
X0399705Y0285684D01*
X0400906Y0285684D01*
X0401506Y0285084D01*
X0402787Y0285684D02*
X0402787Y0282081D01*
X0405189Y0282081D01*
X0406471Y0282081D02*
X0408873Y0282081D01*
X0410154Y0282081D02*
X0412556Y0282081D01*
X0411355Y0282081D02*
X0411355Y0285684D01*
X0410154Y0284483D01*
X0413837Y0285084D02*
X0414437Y0285684D01*
X0415638Y0285684D01*
X0416239Y0285084D01*
X0413837Y0282682D01*
X0414437Y0282081D01*
X0415638Y0282081D01*
X0416239Y0282682D01*
X0416239Y0285084D01*
X0417520Y0284483D02*
X0418721Y0285684D01*
X0419922Y0284483D01*
X0419922Y0282081D01*
X0421203Y0281481D02*
X0423605Y0281481D01*
X0424886Y0282081D02*
X0427288Y0284483D01*
X0427288Y0285084D01*
X0426688Y0285684D01*
X0425487Y0285684D01*
X0424886Y0285084D01*
X0424886Y0282081D02*
X0427288Y0282081D01*
X0419922Y0283883D02*
X0417520Y0283883D01*
X0417520Y0284483D02*
X0417520Y0282081D01*
X0413837Y0282682D02*
X0413837Y0285084D01*
X0406471Y0285684D02*
X0406471Y0282081D01*
X0403988Y0283883D02*
X0402787Y0283883D01*
X0402787Y0285684D02*
X0405189Y0285684D01*
X0454066Y0271534D02*
X0454066Y0267931D01*
X0454066Y0269132D02*
X0455867Y0269132D01*
X0456468Y0269733D01*
X0456468Y0270934D01*
X0455867Y0271534D01*
X0454066Y0271534D01*
X0455267Y0269132D02*
X0456468Y0267931D01*
X0484446Y0264349D02*
X0485046Y0264949D01*
X0487448Y0262547D01*
X0488049Y0263148D01*
X0488049Y0264349D01*
X0487448Y0264949D01*
X0485046Y0264949D01*
X0484446Y0264349D02*
X0484446Y0263148D01*
X0485046Y0262547D01*
X0487448Y0262547D01*
X0488049Y0261266D02*
X0488049Y0258864D01*
X0485647Y0261266D01*
X0485046Y0261266D01*
X0484446Y0260666D01*
X0484446Y0259465D01*
X0485046Y0258864D01*
X0485046Y0257583D02*
X0484446Y0256983D01*
X0484446Y0255782D01*
X0485046Y0255181D01*
X0487448Y0255181D01*
X0488049Y0255782D01*
X0488049Y0256983D01*
X0487448Y0257583D01*
X0456468Y0240934D02*
X0455867Y0241534D01*
X0454666Y0241534D01*
X0454066Y0240934D01*
X0454066Y0240333D01*
X0454666Y0239733D01*
X0455867Y0239733D01*
X0456468Y0239132D01*
X0456468Y0238532D01*
X0455867Y0237931D01*
X0454666Y0237931D01*
X0454066Y0238532D01*
X0463146Y0211549D02*
X0463747Y0211549D01*
X0464347Y0210949D01*
X0464948Y0211549D01*
X0465548Y0211549D01*
X0466149Y0210949D01*
X0466149Y0209748D01*
X0465548Y0209147D01*
X0465548Y0207866D02*
X0466149Y0207266D01*
X0466149Y0206065D01*
X0465548Y0205464D01*
X0466149Y0204183D02*
X0464948Y0202982D01*
X0464948Y0203583D02*
X0464948Y0201781D01*
X0466149Y0201781D02*
X0462546Y0201781D01*
X0462546Y0203583D01*
X0463146Y0204183D01*
X0464347Y0204183D01*
X0464948Y0203583D01*
X0463146Y0205464D02*
X0462546Y0206065D01*
X0462546Y0207266D01*
X0463146Y0207866D01*
X0463747Y0207866D01*
X0464347Y0207266D01*
X0464948Y0207866D01*
X0465548Y0207866D01*
X0464347Y0207266D02*
X0464347Y0206665D01*
X0463146Y0209147D02*
X0462546Y0209748D01*
X0462546Y0210949D01*
X0463146Y0211549D01*
X0464347Y0210949D02*
X0464347Y0210348D01*
X0470546Y0209197D02*
X0470546Y0211599D01*
X0471146Y0211599D01*
X0473548Y0209197D01*
X0474149Y0209197D01*
X0474149Y0207916D02*
X0474149Y0205514D01*
X0471747Y0207916D01*
X0471146Y0207916D01*
X0470546Y0207316D01*
X0470546Y0206115D01*
X0471146Y0205514D01*
X0471146Y0204233D02*
X0470546Y0203633D01*
X0470546Y0202432D01*
X0471146Y0201831D01*
X0473548Y0201831D01*
X0474149Y0202432D01*
X0474149Y0203633D01*
X0473548Y0204233D01*
X0487599Y0197634D02*
X0488800Y0197634D01*
X0488199Y0197634D02*
X0488199Y0194031D01*
X0487599Y0194031D02*
X0488800Y0194031D01*
X0490054Y0194632D02*
X0490655Y0194031D01*
X0491856Y0194031D01*
X0492456Y0194632D01*
X0493737Y0194632D02*
X0493737Y0195232D01*
X0494338Y0195833D01*
X0495539Y0195833D01*
X0496139Y0195232D01*
X0496139Y0194632D01*
X0495539Y0194031D01*
X0494338Y0194031D01*
X0493737Y0194632D01*
X0494338Y0195833D02*
X0493737Y0196433D01*
X0493737Y0197034D01*
X0494338Y0197634D01*
X0495539Y0197634D01*
X0496139Y0197034D01*
X0496139Y0196433D01*
X0495539Y0195833D01*
X0492456Y0197034D02*
X0491856Y0197634D01*
X0490655Y0197634D01*
X0490054Y0197034D01*
X0490054Y0194632D01*
X0504599Y0201482D02*
X0505199Y0200881D01*
X0506400Y0200881D01*
X0507001Y0201482D01*
X0508282Y0200881D02*
X0510684Y0203283D01*
X0510684Y0203884D01*
X0510084Y0204484D01*
X0508882Y0204484D01*
X0508282Y0203884D01*
X0507001Y0203884D02*
X0506400Y0204484D01*
X0505199Y0204484D01*
X0504599Y0203884D01*
X0504599Y0201482D01*
X0508282Y0200881D02*
X0510684Y0200881D01*
X0511965Y0202683D02*
X0514367Y0202683D01*
X0513767Y0204484D02*
X0511965Y0202683D01*
X0513767Y0204484D02*
X0513767Y0200881D01*
X0506617Y0131284D02*
X0507218Y0130684D01*
X0507218Y0130083D01*
X0506617Y0129483D01*
X0505416Y0129483D01*
X0504816Y0130083D01*
X0504816Y0130684D01*
X0505416Y0131284D01*
X0506617Y0131284D01*
X0506617Y0129483D02*
X0507218Y0128882D01*
X0507218Y0128282D01*
X0506617Y0127681D01*
X0505416Y0127681D01*
X0504816Y0128282D01*
X0504816Y0128882D01*
X0505416Y0129483D01*
X0503535Y0129483D02*
X0502934Y0128882D01*
X0501133Y0128882D01*
X0501133Y0127681D02*
X0501133Y0131284D01*
X0502934Y0131284D01*
X0503535Y0130684D01*
X0503535Y0129483D01*
X0499851Y0131284D02*
X0498650Y0131284D01*
X0499251Y0131284D02*
X0499251Y0128282D01*
X0498650Y0127681D01*
X0498050Y0127681D01*
X0497449Y0128282D01*
X0492667Y0076334D02*
X0491466Y0075734D01*
X0490265Y0074533D01*
X0492067Y0074533D01*
X0492667Y0073932D01*
X0492667Y0073332D01*
X0492067Y0072731D01*
X0490866Y0072731D01*
X0490265Y0073332D01*
X0490265Y0074533D01*
X0488984Y0075133D02*
X0488384Y0074533D01*
X0488984Y0073932D01*
X0488984Y0073332D01*
X0488384Y0072731D01*
X0487182Y0072731D01*
X0486582Y0073332D01*
X0485301Y0072731D02*
X0484100Y0073932D01*
X0484700Y0073932D02*
X0482899Y0073932D01*
X0482899Y0072731D02*
X0482899Y0076334D01*
X0484700Y0076334D01*
X0485301Y0075734D01*
X0485301Y0074533D01*
X0484700Y0073932D01*
X0486582Y0075734D02*
X0487182Y0076334D01*
X0488384Y0076334D01*
X0488984Y0075734D01*
X0488984Y0075133D01*
X0488384Y0074533D02*
X0487783Y0074533D01*
X0487317Y0067184D02*
X0484915Y0067184D01*
X0483634Y0066584D02*
X0483034Y0067184D01*
X0481832Y0067184D01*
X0481232Y0066584D01*
X0479951Y0066584D02*
X0479951Y0065383D01*
X0479350Y0064782D01*
X0477549Y0064782D01*
X0478750Y0064782D02*
X0479951Y0063581D01*
X0481232Y0064182D02*
X0481832Y0063581D01*
X0483034Y0063581D01*
X0483634Y0064182D01*
X0483634Y0064782D01*
X0483034Y0065383D01*
X0482433Y0065383D01*
X0483034Y0065383D02*
X0483634Y0065983D01*
X0483634Y0066584D01*
X0484915Y0064182D02*
X0484915Y0063581D01*
X0484915Y0064182D02*
X0487317Y0066584D01*
X0487317Y0067184D01*
X0479951Y0066584D02*
X0479350Y0067184D01*
X0477549Y0067184D01*
X0477549Y0063581D01*
X0460072Y0042034D02*
X0460072Y0038431D01*
X0458871Y0038431D02*
X0461273Y0038431D01*
X0458871Y0040833D02*
X0460072Y0042034D01*
X0456388Y0042034D02*
X0456388Y0038431D01*
X0455187Y0038431D02*
X0457589Y0038431D01*
X0455187Y0040833D02*
X0456388Y0042034D01*
X0453906Y0041434D02*
X0453306Y0042034D01*
X0452105Y0042034D01*
X0451504Y0041434D01*
X0451504Y0039032D01*
X0452105Y0038431D01*
X0453306Y0038431D01*
X0453906Y0039032D01*
X0450250Y0038431D02*
X0449049Y0038431D01*
X0449649Y0038431D02*
X0449649Y0042034D01*
X0449049Y0042034D02*
X0450250Y0042034D01*
X0436204Y0041757D02*
X0435603Y0041156D01*
X0434402Y0041156D01*
X0433802Y0041757D01*
X0433802Y0042958D02*
X0435003Y0043558D01*
X0435603Y0043558D01*
X0436204Y0042958D01*
X0436204Y0041757D01*
X0433802Y0042958D02*
X0433802Y0044759D01*
X0436204Y0044759D01*
X0432521Y0041156D02*
X0430119Y0041156D01*
X0430119Y0044759D01*
X0409467Y0059182D02*
X0409467Y0061584D01*
X0408867Y0062184D01*
X0407065Y0062184D01*
X0407065Y0058581D01*
X0408867Y0058581D01*
X0409467Y0059182D01*
X0405784Y0058581D02*
X0405784Y0062184D01*
X0403382Y0062184D02*
X0403382Y0058581D01*
X0402101Y0059182D02*
X0402101Y0060383D01*
X0400900Y0060383D01*
X0402101Y0061584D02*
X0401500Y0062184D01*
X0400299Y0062184D01*
X0399699Y0061584D01*
X0399699Y0059182D01*
X0400299Y0058581D01*
X0401500Y0058581D01*
X0402101Y0059182D01*
X0403382Y0062184D02*
X0405784Y0058581D01*
X0433619Y0073206D02*
X0436021Y0073206D01*
X0437302Y0075008D02*
X0439103Y0076809D01*
X0439103Y0073206D01*
X0439704Y0075008D02*
X0437302Y0075008D01*
X0433619Y0076809D02*
X0433619Y0073206D01*
X0395317Y0080132D02*
X0394717Y0079531D01*
X0393516Y0079531D01*
X0392915Y0080132D01*
X0392915Y0080732D01*
X0393516Y0081333D01*
X0394717Y0081333D01*
X0395317Y0080732D01*
X0395317Y0080132D01*
X0394717Y0081333D02*
X0395317Y0081933D01*
X0395317Y0082534D01*
X0394717Y0083134D01*
X0393516Y0083134D01*
X0392915Y0082534D01*
X0392915Y0081933D01*
X0393516Y0081333D01*
X0391634Y0079531D02*
X0389232Y0079531D01*
X0390433Y0079531D02*
X0390433Y0083134D01*
X0389232Y0081933D01*
X0387951Y0082534D02*
X0387350Y0083134D01*
X0386149Y0083134D01*
X0385549Y0082534D01*
X0385549Y0080132D01*
X0386149Y0079531D01*
X0387350Y0079531D01*
X0387951Y0080132D01*
X0371139Y0094782D02*
X0370539Y0094181D01*
X0369338Y0094181D01*
X0368737Y0094782D01*
X0368737Y0095983D02*
X0369938Y0096583D01*
X0370539Y0096583D01*
X0371139Y0095983D01*
X0371139Y0094782D01*
X0368737Y0095983D02*
X0368737Y0097784D01*
X0371139Y0097784D01*
X0367456Y0097184D02*
X0366856Y0097784D01*
X0365655Y0097784D01*
X0365054Y0097184D01*
X0365054Y0094782D01*
X0365655Y0094181D01*
X0366856Y0094181D01*
X0367456Y0094782D01*
X0363800Y0094181D02*
X0362599Y0094181D01*
X0363199Y0094181D02*
X0363199Y0097784D01*
X0362599Y0097784D02*
X0363800Y0097784D01*
X0352967Y0098982D02*
X0352367Y0098381D01*
X0351166Y0098381D01*
X0350565Y0098982D01*
X0350565Y0100183D02*
X0351766Y0100783D01*
X0352367Y0100783D01*
X0352967Y0100183D01*
X0352967Y0098982D01*
X0350565Y0100183D02*
X0350565Y0101984D01*
X0352967Y0101984D01*
X0349284Y0101384D02*
X0349284Y0100183D01*
X0348684Y0099582D01*
X0346882Y0099582D01*
X0346882Y0098381D02*
X0346882Y0101984D01*
X0348684Y0101984D01*
X0349284Y0101384D01*
X0345601Y0101984D02*
X0344400Y0101984D01*
X0345000Y0101984D02*
X0345000Y0098982D01*
X0344400Y0098381D01*
X0343799Y0098381D01*
X0343199Y0098982D01*
X0342417Y0098982D02*
X0342417Y0099582D01*
X0341817Y0100183D01*
X0340015Y0100183D01*
X0340015Y0098982D01*
X0340616Y0098381D01*
X0341817Y0098381D01*
X0342417Y0098982D01*
X0341216Y0101384D02*
X0340015Y0100183D01*
X0341216Y0101384D02*
X0342417Y0101984D01*
X0337533Y0101984D02*
X0337533Y0098381D01*
X0336332Y0098381D02*
X0338734Y0098381D01*
X0336332Y0100783D02*
X0337533Y0101984D01*
X0335051Y0101384D02*
X0335051Y0100183D01*
X0334450Y0099582D01*
X0332649Y0099582D01*
X0333850Y0099582D02*
X0335051Y0098381D01*
X0332649Y0098381D02*
X0332649Y0101984D01*
X0334450Y0101984D01*
X0335051Y0101384D01*
X0330384Y0101181D02*
X0327982Y0101181D01*
X0330384Y0103583D01*
X0330384Y0104184D01*
X0329784Y0104784D01*
X0328582Y0104784D01*
X0327982Y0104184D01*
X0326701Y0104184D02*
X0326100Y0104784D01*
X0324299Y0104784D01*
X0324299Y0101181D01*
X0326100Y0101181D01*
X0326701Y0101782D01*
X0326701Y0104184D01*
X0318484Y0104084D02*
X0318484Y0103483D01*
X0317884Y0102883D01*
X0318484Y0102282D01*
X0318484Y0101682D01*
X0317884Y0101081D01*
X0316682Y0101081D01*
X0316082Y0101682D01*
X0314801Y0101682D02*
X0314801Y0104084D01*
X0314200Y0104684D01*
X0312399Y0104684D01*
X0312399Y0101081D01*
X0314200Y0101081D01*
X0314801Y0101682D01*
X0316082Y0104084D02*
X0316682Y0104684D01*
X0317884Y0104684D01*
X0318484Y0104084D01*
X0317884Y0102883D02*
X0317283Y0102883D01*
X0308817Y0100534D02*
X0308817Y0099933D01*
X0308217Y0099333D01*
X0308817Y0098732D01*
X0308817Y0098132D01*
X0308217Y0097531D01*
X0307016Y0097531D01*
X0306415Y0098132D01*
X0305134Y0097531D02*
X0302732Y0097531D01*
X0303933Y0097531D02*
X0303933Y0101134D01*
X0302732Y0099933D01*
X0301451Y0099333D02*
X0300850Y0098732D01*
X0299049Y0098732D01*
X0300250Y0098732D02*
X0301451Y0097531D01*
X0301451Y0099333D02*
X0301451Y0100534D01*
X0300850Y0101134D01*
X0299049Y0101134D01*
X0299049Y0097531D01*
X0306415Y0100534D02*
X0307016Y0101134D01*
X0308217Y0101134D01*
X0308817Y0100534D01*
X0308217Y0099333D02*
X0307616Y0099333D01*
X0279967Y0099531D02*
X0277565Y0099531D01*
X0279967Y0101933D01*
X0279967Y0102534D01*
X0279367Y0103134D01*
X0278166Y0103134D01*
X0277565Y0102534D01*
X0276284Y0103134D02*
X0273882Y0100732D01*
X0274482Y0101333D02*
X0276284Y0099531D01*
X0273882Y0099531D02*
X0273882Y0103134D01*
X0272601Y0102534D02*
X0272000Y0103134D01*
X0270799Y0103134D01*
X0270199Y0102534D01*
X0270199Y0100132D01*
X0270799Y0099531D01*
X0272000Y0099531D01*
X0272601Y0100132D01*
X0272601Y0102534D01*
X0272801Y0120931D02*
X0271600Y0122132D01*
X0272200Y0122132D02*
X0270399Y0122132D01*
X0270399Y0120931D02*
X0270399Y0124534D01*
X0272200Y0124534D01*
X0272801Y0123934D01*
X0272801Y0122733D01*
X0272200Y0122132D01*
X0274082Y0120931D02*
X0276484Y0120931D01*
X0275283Y0120931D02*
X0275283Y0124534D01*
X0274082Y0123333D01*
X0277765Y0123333D02*
X0277765Y0123934D01*
X0278366Y0124534D01*
X0279567Y0124534D01*
X0280167Y0123934D01*
X0280167Y0123333D01*
X0279567Y0122733D01*
X0278366Y0122733D01*
X0277765Y0123333D01*
X0278366Y0122733D02*
X0277765Y0122132D01*
X0277765Y0121532D01*
X0278366Y0120931D01*
X0279567Y0120931D01*
X0280167Y0121532D01*
X0280167Y0122132D01*
X0279567Y0122733D01*
X0289549Y0122132D02*
X0291350Y0122132D01*
X0291951Y0122733D01*
X0291951Y0123934D01*
X0291350Y0124534D01*
X0289549Y0124534D01*
X0289549Y0120931D01*
X0290750Y0122132D02*
X0291951Y0120931D01*
X0293232Y0120931D02*
X0295634Y0120931D01*
X0294433Y0120931D02*
X0294433Y0124534D01*
X0293232Y0123333D01*
X0296915Y0123333D02*
X0297516Y0122733D01*
X0299317Y0122733D01*
X0299317Y0123934D02*
X0298717Y0124534D01*
X0297516Y0124534D01*
X0296915Y0123934D01*
X0296915Y0123333D01*
X0296915Y0121532D02*
X0297516Y0120931D01*
X0298717Y0120931D01*
X0299317Y0121532D01*
X0299317Y0123934D01*
X0308899Y0124634D02*
X0308899Y0121031D01*
X0308899Y0122232D02*
X0310700Y0122232D01*
X0311301Y0122833D01*
X0311301Y0124034D01*
X0310700Y0124634D01*
X0308899Y0124634D01*
X0310100Y0122232D02*
X0311301Y0121031D01*
X0312582Y0121031D02*
X0314984Y0123433D01*
X0314984Y0124034D01*
X0314384Y0124634D01*
X0313182Y0124634D01*
X0312582Y0124034D01*
X0312582Y0121031D02*
X0314984Y0121031D01*
X0316265Y0121632D02*
X0318667Y0124034D01*
X0318667Y0121632D01*
X0318067Y0121031D01*
X0316866Y0121031D01*
X0316265Y0121632D01*
X0316265Y0124034D01*
X0316866Y0124634D01*
X0318067Y0124634D01*
X0318667Y0124034D01*
X0328499Y0124584D02*
X0328499Y0120981D01*
X0328499Y0122182D02*
X0330300Y0122182D01*
X0330901Y0122783D01*
X0330901Y0123984D01*
X0330300Y0124584D01*
X0328499Y0124584D01*
X0329700Y0122182D02*
X0330901Y0120981D01*
X0332182Y0120981D02*
X0334584Y0123383D01*
X0334584Y0123984D01*
X0333984Y0124584D01*
X0332782Y0124584D01*
X0332182Y0123984D01*
X0332182Y0120981D02*
X0334584Y0120981D01*
X0335865Y0120981D02*
X0338267Y0120981D01*
X0337066Y0120981D02*
X0337066Y0124584D01*
X0335865Y0123383D01*
X0347899Y0124534D02*
X0347899Y0120931D01*
X0347899Y0122132D02*
X0349700Y0122132D01*
X0350301Y0122733D01*
X0350301Y0123934D01*
X0349700Y0124534D01*
X0347899Y0124534D01*
X0349100Y0122132D02*
X0350301Y0120931D01*
X0351582Y0120931D02*
X0353984Y0123333D01*
X0353984Y0123934D01*
X0353384Y0124534D01*
X0352182Y0124534D01*
X0351582Y0123934D01*
X0351582Y0120931D02*
X0353984Y0120931D01*
X0355265Y0120931D02*
X0357667Y0123333D01*
X0357667Y0123934D01*
X0357067Y0124534D01*
X0355866Y0124534D01*
X0355265Y0123934D01*
X0355265Y0120931D02*
X0357667Y0120931D01*
X0369699Y0132581D02*
X0369699Y0136184D01*
X0371500Y0136184D01*
X0372101Y0135584D01*
X0372101Y0134383D01*
X0371500Y0133782D01*
X0369699Y0133782D01*
X0370900Y0133782D02*
X0372101Y0132581D01*
X0373382Y0132581D02*
X0375784Y0134983D01*
X0375784Y0135584D01*
X0375184Y0136184D01*
X0373982Y0136184D01*
X0373382Y0135584D01*
X0372532Y0137631D02*
X0374934Y0140033D01*
X0374934Y0140634D01*
X0374334Y0141234D01*
X0373132Y0141234D01*
X0372532Y0140634D01*
X0371251Y0140634D02*
X0370650Y0141234D01*
X0369449Y0141234D01*
X0368849Y0140634D01*
X0368849Y0138232D01*
X0369449Y0137631D01*
X0370650Y0137631D01*
X0371251Y0138232D01*
X0372532Y0137631D02*
X0374934Y0137631D01*
X0376215Y0137631D02*
X0378617Y0140033D01*
X0378617Y0140634D01*
X0378017Y0141234D01*
X0376816Y0141234D01*
X0376215Y0140634D01*
X0376215Y0137631D02*
X0378617Y0137631D01*
X0379467Y0136184D02*
X0377065Y0136184D01*
X0377065Y0134383D01*
X0378266Y0134983D01*
X0378867Y0134983D01*
X0379467Y0134383D01*
X0379467Y0133182D01*
X0378867Y0132581D01*
X0377666Y0132581D01*
X0377065Y0133182D01*
X0375784Y0132581D02*
X0373382Y0132581D01*
X0378277Y0109034D02*
X0379478Y0109034D01*
X0378878Y0109034D02*
X0378878Y0105431D01*
X0379478Y0105431D02*
X0378277Y0105431D01*
X0380733Y0106032D02*
X0381333Y0105431D01*
X0382534Y0105431D01*
X0383135Y0106032D01*
X0384416Y0107233D02*
X0386818Y0107233D01*
X0386217Y0109034D02*
X0384416Y0107233D01*
X0383135Y0108434D02*
X0382534Y0109034D01*
X0381333Y0109034D01*
X0380733Y0108434D01*
X0380733Y0106032D01*
X0386217Y0105431D02*
X0386217Y0109034D01*
X0289817Y0067584D02*
X0287415Y0067584D01*
X0287415Y0065783D01*
X0288616Y0066383D01*
X0289217Y0066383D01*
X0289817Y0065783D01*
X0289817Y0064582D01*
X0289217Y0063981D01*
X0288016Y0063981D01*
X0287415Y0064582D01*
X0286134Y0063981D02*
X0283732Y0063981D01*
X0284933Y0063981D02*
X0284933Y0067584D01*
X0283732Y0066383D01*
X0282451Y0065783D02*
X0281850Y0065182D01*
X0280049Y0065182D01*
X0281250Y0065182D02*
X0282451Y0063981D01*
X0282451Y0065783D02*
X0282451Y0066984D01*
X0281850Y0067584D01*
X0280049Y0067584D01*
X0280049Y0063981D01*
X0269317Y0065583D02*
X0266915Y0065583D01*
X0268717Y0067384D01*
X0268717Y0063781D01*
X0265634Y0063781D02*
X0263232Y0063781D01*
X0264433Y0063781D02*
X0264433Y0067384D01*
X0263232Y0066183D01*
X0261951Y0065583D02*
X0261350Y0064982D01*
X0259549Y0064982D01*
X0260750Y0064982D02*
X0261951Y0063781D01*
X0261951Y0065583D02*
X0261951Y0066784D01*
X0261350Y0067384D01*
X0259549Y0067384D01*
X0259549Y0063781D01*
X0258834Y0056684D02*
X0259434Y0056084D01*
X0259434Y0054883D01*
X0258834Y0054282D01*
X0257032Y0054282D01*
X0257032Y0053081D02*
X0257032Y0056684D01*
X0258834Y0056684D01*
X0260715Y0054883D02*
X0263117Y0054883D01*
X0262517Y0056684D02*
X0260715Y0054883D01*
X0262517Y0056684D02*
X0262517Y0053081D01*
X0255150Y0053682D02*
X0255150Y0056684D01*
X0254550Y0056684D02*
X0255751Y0056684D01*
X0255150Y0053682D02*
X0254550Y0053081D01*
X0253949Y0053081D01*
X0253349Y0053682D01*
X0247117Y0058482D02*
X0246517Y0057881D01*
X0245316Y0057881D01*
X0244715Y0058482D01*
X0245916Y0059683D02*
X0246517Y0059683D01*
X0247117Y0059082D01*
X0247117Y0058482D01*
X0246517Y0059683D02*
X0247117Y0060283D01*
X0247117Y0060884D01*
X0246517Y0061484D01*
X0245316Y0061484D01*
X0244715Y0060884D01*
X0243434Y0060884D02*
X0242834Y0061484D01*
X0241032Y0061484D01*
X0241032Y0057881D01*
X0241032Y0059082D02*
X0242834Y0059082D01*
X0243434Y0059683D01*
X0243434Y0060884D01*
X0239751Y0061484D02*
X0238550Y0061484D01*
X0239150Y0061484D02*
X0239150Y0058482D01*
X0238550Y0057881D01*
X0237949Y0057881D01*
X0237349Y0058482D01*
X0222334Y0063081D02*
X0219932Y0063081D01*
X0222334Y0065483D01*
X0222334Y0066084D01*
X0221734Y0066684D01*
X0220532Y0066684D01*
X0219932Y0066084D01*
X0218651Y0066084D02*
X0218651Y0064883D01*
X0218050Y0064282D01*
X0216249Y0064282D01*
X0217450Y0064282D02*
X0218651Y0063081D01*
X0216249Y0063081D02*
X0216249Y0066684D01*
X0218050Y0066684D01*
X0218651Y0066084D01*
X0219699Y0090081D02*
X0220900Y0090081D01*
X0221501Y0090682D01*
X0222782Y0090682D02*
X0223382Y0090081D01*
X0224584Y0090081D01*
X0225184Y0090682D01*
X0225184Y0091883D01*
X0224584Y0092483D01*
X0223983Y0092483D01*
X0222782Y0091883D01*
X0222782Y0093684D01*
X0225184Y0093684D01*
X0227799Y0093184D02*
X0227799Y0090782D01*
X0228399Y0090181D01*
X0229600Y0090181D01*
X0230201Y0090782D01*
X0231482Y0090782D02*
X0232082Y0090181D01*
X0233284Y0090181D01*
X0233884Y0090782D01*
X0233884Y0091382D01*
X0233284Y0091983D01*
X0231482Y0091983D01*
X0231482Y0090782D01*
X0231482Y0091983D02*
X0232683Y0093184D01*
X0233884Y0093784D01*
X0230201Y0093184D02*
X0229600Y0093784D01*
X0228399Y0093784D01*
X0227799Y0093184D01*
X0221501Y0093084D02*
X0220900Y0093684D01*
X0219699Y0093684D01*
X0219099Y0093084D01*
X0219099Y0090682D01*
X0219699Y0090081D01*
X0185539Y0111181D02*
X0183137Y0111181D01*
X0184338Y0111181D02*
X0184338Y0114784D01*
X0183137Y0113583D01*
X0181856Y0114184D02*
X0181256Y0114784D01*
X0180055Y0114784D01*
X0179454Y0114184D01*
X0179454Y0111782D01*
X0180055Y0111181D01*
X0181256Y0111181D01*
X0181856Y0111782D01*
X0178200Y0111181D02*
X0176999Y0111181D01*
X0177599Y0111181D02*
X0177599Y0114784D01*
X0176999Y0114784D02*
X0178200Y0114784D01*
X0144484Y0138831D02*
X0142082Y0138831D01*
X0144484Y0141233D01*
X0144484Y0141834D01*
X0143884Y0142434D01*
X0142682Y0142434D01*
X0142082Y0141834D01*
X0140801Y0138831D02*
X0138399Y0138831D01*
X0138399Y0142434D01*
X0114134Y0160082D02*
X0113534Y0159481D01*
X0112332Y0159481D01*
X0111732Y0160082D01*
X0111732Y0160682D01*
X0112332Y0161283D01*
X0113534Y0161283D01*
X0114134Y0160682D01*
X0114134Y0160082D01*
X0113534Y0161283D02*
X0114134Y0161883D01*
X0114134Y0162484D01*
X0113534Y0163084D01*
X0112332Y0163084D01*
X0111732Y0162484D01*
X0111732Y0161883D01*
X0112332Y0161283D01*
X0110451Y0161283D02*
X0109850Y0160682D01*
X0108049Y0160682D01*
X0109250Y0160682D02*
X0110451Y0159481D01*
X0110451Y0161283D02*
X0110451Y0162484D01*
X0109850Y0163084D01*
X0108049Y0163084D01*
X0108049Y0159481D01*
X0095399Y0191131D02*
X0095399Y0192332D01*
X0095399Y0191732D02*
X0091796Y0191732D01*
X0091796Y0192332D02*
X0091796Y0191131D01*
X0092396Y0193587D02*
X0092997Y0193587D01*
X0093597Y0194187D01*
X0093597Y0195388D01*
X0094198Y0195989D01*
X0094798Y0195989D01*
X0095399Y0195388D01*
X0095399Y0194187D01*
X0094798Y0193587D01*
X0092396Y0193587D02*
X0091796Y0194187D01*
X0091796Y0195388D01*
X0092396Y0195989D01*
X0091796Y0197270D02*
X0095399Y0197270D01*
X0095399Y0199672D01*
X0095399Y0200953D02*
X0095399Y0203355D01*
X0095399Y0204636D02*
X0095399Y0207038D01*
X0095399Y0205837D02*
X0091796Y0205837D01*
X0092997Y0204636D01*
X0092396Y0208319D02*
X0091796Y0208920D01*
X0091796Y0210121D01*
X0092396Y0210721D01*
X0094798Y0208319D01*
X0095399Y0208920D01*
X0095399Y0210121D01*
X0094798Y0210721D01*
X0092396Y0210721D01*
X0092997Y0212002D02*
X0091796Y0213203D01*
X0092997Y0214404D01*
X0095399Y0214404D01*
X0095999Y0215685D02*
X0095999Y0218087D01*
X0095399Y0219369D02*
X0095399Y0221771D01*
X0095399Y0220570D02*
X0091796Y0220570D01*
X0092997Y0219369D01*
X0093597Y0214404D02*
X0093597Y0212002D01*
X0092997Y0212002D02*
X0095399Y0212002D01*
X0094798Y0208319D02*
X0092396Y0208319D01*
X0091796Y0200953D02*
X0095399Y0200953D01*
X0093597Y0198471D02*
X0093597Y0197270D01*
X0091796Y0197270D02*
X0091796Y0199672D01*
X0194016Y0218581D02*
X0194016Y0222184D01*
X0195817Y0222184D01*
X0196418Y0221584D01*
X0196418Y0220383D01*
X0195817Y0219782D01*
X0194016Y0219782D01*
X0195217Y0219782D02*
X0196418Y0218581D01*
X0201349Y0234231D02*
X0202550Y0234231D01*
X0201949Y0234231D02*
X0201949Y0237834D01*
X0201349Y0237834D02*
X0202550Y0237834D01*
X0203804Y0237234D02*
X0203804Y0234832D01*
X0204405Y0234231D01*
X0205606Y0234231D01*
X0206206Y0234832D01*
X0207487Y0234231D02*
X0209889Y0236633D01*
X0209889Y0237234D01*
X0209289Y0237834D01*
X0208088Y0237834D01*
X0207487Y0237234D01*
X0206206Y0237234D02*
X0205606Y0237834D01*
X0204405Y0237834D01*
X0203804Y0237234D01*
X0207487Y0234231D02*
X0209889Y0234231D01*
X0150586Y0266312D02*
X0150586Y0268714D01*
X0150586Y0269996D02*
X0150586Y0271797D01*
X0149985Y0272398D01*
X0147583Y0272398D01*
X0146983Y0271797D01*
X0146983Y0269996D01*
X0150586Y0269996D01*
X0147583Y0268714D02*
X0149985Y0266312D01*
X0150586Y0266312D01*
X0146983Y0266312D02*
X0146983Y0268714D01*
X0147583Y0268714D01*
X0148184Y0273679D02*
X0146983Y0274880D01*
X0150586Y0274880D01*
X0150586Y0273679D02*
X0150586Y0276081D01*
X0234919Y0126909D02*
X0234919Y0123306D01*
X0237321Y0123306D01*
X0238602Y0123907D02*
X0239202Y0123306D01*
X0240403Y0123306D01*
X0241004Y0123907D01*
X0241004Y0124507D01*
X0240403Y0125108D01*
X0239803Y0125108D01*
X0240403Y0125108D02*
X0241004Y0125708D01*
X0241004Y0126309D01*
X0240403Y0126909D01*
X0239202Y0126909D01*
X0238602Y0126309D01*
X0250949Y0124434D02*
X0250949Y0120831D01*
X0250949Y0122032D02*
X0252750Y0122032D01*
X0253351Y0122633D01*
X0253351Y0123834D01*
X0252750Y0124434D01*
X0250949Y0124434D01*
X0252150Y0122032D02*
X0253351Y0120831D01*
X0254632Y0120831D02*
X0257034Y0120831D01*
X0255833Y0120831D02*
X0255833Y0124434D01*
X0254632Y0123233D01*
X0258315Y0124434D02*
X0260717Y0124434D01*
X0260717Y0123834D01*
X0258315Y0121432D01*
X0258315Y0120831D01*
D14*
X0440249Y0125828D02*
X0441249Y0125828D01*
X0441249Y0127328D01*
X0440249Y0127328D01*
X0440249Y0125828D01*
X0440249Y0125852D02*
X0441249Y0125852D01*
X0441249Y0125951D02*
X0440249Y0125951D01*
X0440249Y0126049D02*
X0441249Y0126049D01*
X0441249Y0126148D02*
X0440249Y0126148D01*
X0440249Y0126246D02*
X0441249Y0126246D01*
X0441249Y0126345D02*
X0440249Y0126345D01*
X0440249Y0126443D02*
X0441249Y0126443D01*
X0441249Y0126542D02*
X0440249Y0126542D01*
X0440249Y0126640D02*
X0441249Y0126640D01*
X0441249Y0126739D02*
X0440249Y0126739D01*
X0440249Y0126837D02*
X0441249Y0126837D01*
X0441249Y0126936D02*
X0440249Y0126936D01*
X0440249Y0127034D02*
X0441249Y0127034D01*
X0441249Y0127133D02*
X0440249Y0127133D01*
X0440249Y0127231D02*
X0441249Y0127231D01*
X0458041Y0103131D02*
X0459541Y0103131D01*
X0459541Y0102131D01*
X0458041Y0102131D01*
X0458041Y0103131D01*
X0458041Y0103096D02*
X0459541Y0103096D01*
X0459541Y0102998D02*
X0458041Y0102998D01*
X0458041Y0102899D02*
X0459541Y0102899D01*
X0459541Y0102801D02*
X0458041Y0102801D01*
X0458041Y0102702D02*
X0459541Y0102702D01*
X0459541Y0102604D02*
X0458041Y0102604D01*
X0458041Y0102505D02*
X0459541Y0102505D01*
X0459541Y0102407D02*
X0458041Y0102407D01*
X0458041Y0102308D02*
X0459541Y0102308D01*
X0459541Y0102210D02*
X0458041Y0102210D01*
X0477726Y0102210D02*
X0479226Y0102210D01*
X0479226Y0102131D02*
X0479226Y0103131D01*
X0477726Y0103131D01*
X0477726Y0102131D01*
X0479226Y0102131D01*
X0479226Y0102308D02*
X0477726Y0102308D01*
X0477726Y0102407D02*
X0479226Y0102407D01*
X0479226Y0102505D02*
X0477726Y0102505D01*
X0477726Y0102604D02*
X0479226Y0102604D01*
X0479226Y0102702D02*
X0477726Y0102702D01*
X0477726Y0102801D02*
X0479226Y0102801D01*
X0479226Y0102899D02*
X0477726Y0102899D01*
X0477726Y0102998D02*
X0479226Y0102998D01*
X0479226Y0103096D02*
X0477726Y0103096D01*
X0494049Y0127797D02*
X0494049Y0129297D01*
X0495049Y0129297D01*
X0495049Y0127797D01*
X0494049Y0127797D01*
X0494049Y0127822D02*
X0495049Y0127822D01*
X0495049Y0127921D02*
X0494049Y0127921D01*
X0494049Y0128019D02*
X0495049Y0128019D01*
X0495049Y0128118D02*
X0494049Y0128118D01*
X0494049Y0128216D02*
X0495049Y0128216D01*
X0495049Y0128315D02*
X0494049Y0128315D01*
X0494049Y0128414D02*
X0495049Y0128414D01*
X0495049Y0128512D02*
X0494049Y0128512D01*
X0494049Y0128611D02*
X0495049Y0128611D01*
X0495049Y0128709D02*
X0494049Y0128709D01*
X0494049Y0128808D02*
X0495049Y0128808D01*
X0495049Y0128906D02*
X0494049Y0128906D01*
X0494049Y0129005D02*
X0495049Y0129005D01*
X0495049Y0129103D02*
X0494049Y0129103D01*
X0494049Y0129202D02*
X0495049Y0129202D01*
X0481194Y0155931D02*
X0479694Y0155931D01*
X0479694Y0156931D01*
X0481194Y0156931D01*
X0481194Y0155931D01*
X0481194Y0155997D02*
X0479694Y0155997D01*
X0479694Y0156095D02*
X0481194Y0156095D01*
X0481194Y0156194D02*
X0479694Y0156194D01*
X0479694Y0156292D02*
X0481194Y0156292D01*
X0481194Y0156391D02*
X0479694Y0156391D01*
X0479694Y0156489D02*
X0481194Y0156489D01*
X0481194Y0156588D02*
X0479694Y0156588D01*
X0479694Y0156686D02*
X0481194Y0156686D01*
X0481194Y0156785D02*
X0479694Y0156785D01*
X0479694Y0156883D02*
X0481194Y0156883D01*
X0461509Y0156883D02*
X0460009Y0156883D01*
X0460009Y0156931D02*
X0461509Y0156931D01*
X0461509Y0155931D01*
X0460009Y0155931D01*
X0460009Y0156931D01*
X0460009Y0156785D02*
X0461509Y0156785D01*
X0461509Y0156686D02*
X0460009Y0156686D01*
X0460009Y0156588D02*
X0461509Y0156588D01*
X0461509Y0156489D02*
X0460009Y0156489D01*
X0460009Y0156391D02*
X0461509Y0156391D01*
X0461509Y0156292D02*
X0460009Y0156292D01*
X0460009Y0156194D02*
X0461509Y0156194D01*
X0461509Y0156095D02*
X0460009Y0156095D01*
X0460009Y0155997D02*
X0461509Y0155997D01*
X0160349Y0279581D02*
X0159349Y0279581D01*
X0159349Y0281081D01*
X0160349Y0281081D01*
X0160349Y0279581D01*
X0160349Y0279628D02*
X0159349Y0279628D01*
X0159349Y0279727D02*
X0160349Y0279727D01*
X0160349Y0279825D02*
X0159349Y0279825D01*
X0159349Y0279924D02*
X0160349Y0279924D01*
X0160349Y0280022D02*
X0159349Y0280022D01*
X0159349Y0280121D02*
X0160349Y0280121D01*
X0160349Y0280219D02*
X0159349Y0280219D01*
X0159349Y0280318D02*
X0160349Y0280318D01*
X0160349Y0280416D02*
X0159349Y0280416D01*
X0159349Y0280515D02*
X0160349Y0280515D01*
X0160349Y0280614D02*
X0159349Y0280614D01*
X0159349Y0280712D02*
X0160349Y0280712D01*
X0160349Y0280811D02*
X0159349Y0280811D01*
X0159349Y0280909D02*
X0160349Y0280909D01*
X0160349Y0281008D02*
X0159349Y0281008D01*
D15*
X0154849Y0272343D03*
D16*
X0368649Y0191234D02*
X0368649Y0188331D01*
X0368649Y0189299D02*
X0370100Y0189299D01*
X0370584Y0189782D01*
X0370584Y0190750D01*
X0370100Y0191234D01*
X0368649Y0191234D01*
X0369616Y0189299D02*
X0370584Y0188331D01*
X0371595Y0188331D02*
X0373530Y0190266D01*
X0373530Y0190750D01*
X0373047Y0191234D01*
X0372079Y0191234D01*
X0371595Y0190750D01*
X0371595Y0188331D02*
X0373530Y0188331D01*
X0374542Y0188331D02*
X0374542Y0188815D01*
X0376477Y0190750D01*
X0376477Y0191234D01*
X0374542Y0191234D01*
X0395746Y0191561D02*
X0396230Y0191078D01*
X0396714Y0191078D01*
X0397198Y0191561D01*
X0397198Y0193013D01*
X0398165Y0193013D02*
X0396230Y0193013D01*
X0395746Y0192529D01*
X0395746Y0191561D01*
X0396230Y0190066D02*
X0395746Y0189582D01*
X0395746Y0188131D01*
X0398649Y0188131D01*
X0398649Y0189582D01*
X0398165Y0190066D01*
X0396230Y0190066D01*
X0398165Y0191078D02*
X0398649Y0191561D01*
X0398649Y0192529D01*
X0398165Y0193013D01*
X0419596Y0192179D02*
X0420080Y0192663D01*
X0420564Y0192663D01*
X0421048Y0192179D01*
X0421048Y0191211D01*
X0420564Y0190728D01*
X0420080Y0190728D01*
X0419596Y0191211D01*
X0419596Y0192179D01*
X0421048Y0192179D02*
X0421531Y0192663D01*
X0422015Y0192663D01*
X0422499Y0192179D01*
X0422499Y0191211D01*
X0422015Y0190728D01*
X0421531Y0190728D01*
X0421048Y0191211D01*
X0422015Y0189716D02*
X0420080Y0189716D01*
X0419596Y0189232D01*
X0419596Y0187781D01*
X0422499Y0187781D01*
X0422499Y0189232D01*
X0422015Y0189716D01*
X0452546Y0179509D02*
X0452546Y0177574D01*
X0453998Y0177574D01*
X0453514Y0178542D01*
X0453514Y0179025D01*
X0453998Y0179509D01*
X0454965Y0179509D01*
X0455449Y0179025D01*
X0455449Y0178058D01*
X0454965Y0177574D01*
X0453998Y0176563D02*
X0453998Y0174628D01*
X0452546Y0176079D01*
X0455449Y0176079D01*
X0454965Y0173616D02*
X0455449Y0173132D01*
X0455449Y0172165D01*
X0454965Y0171681D01*
X0453030Y0171681D01*
X0452546Y0172165D01*
X0452546Y0173132D01*
X0453030Y0173616D01*
X0440099Y0171575D02*
X0439615Y0172059D01*
X0439131Y0172059D01*
X0438648Y0171575D01*
X0438648Y0170124D01*
X0439615Y0170124D01*
X0440099Y0170608D01*
X0440099Y0171575D01*
X0438648Y0170124D02*
X0437680Y0171092D01*
X0437196Y0172059D01*
X0438648Y0169113D02*
X0438648Y0167178D01*
X0437196Y0168629D01*
X0440099Y0168629D01*
X0439615Y0166166D02*
X0440099Y0165682D01*
X0440099Y0164715D01*
X0439615Y0164231D01*
X0437680Y0164231D01*
X0437196Y0164715D01*
X0437196Y0165682D01*
X0437680Y0166166D01*
X0422499Y0163828D02*
X0422015Y0163828D01*
X0420080Y0165763D01*
X0419596Y0165763D01*
X0419596Y0163828D01*
X0420080Y0162816D02*
X0419596Y0162332D01*
X0419596Y0160881D01*
X0422499Y0160881D01*
X0422499Y0162332D01*
X0422015Y0162816D01*
X0420080Y0162816D01*
X0409699Y0162232D02*
X0409215Y0162716D01*
X0407280Y0162716D01*
X0406796Y0162232D01*
X0406796Y0160781D01*
X0409699Y0160781D01*
X0409699Y0162232D01*
X0409215Y0163728D02*
X0409699Y0164211D01*
X0409699Y0165179D01*
X0409215Y0165663D01*
X0408731Y0165663D01*
X0408248Y0165179D01*
X0408248Y0163728D01*
X0409215Y0163728D01*
X0408248Y0163728D02*
X0407280Y0164695D01*
X0406796Y0165663D01*
X0387299Y0149125D02*
X0387299Y0148158D01*
X0386815Y0147674D01*
X0384880Y0149609D01*
X0386815Y0149609D01*
X0387299Y0149125D01*
X0386815Y0147674D02*
X0384880Y0147674D01*
X0384396Y0148158D01*
X0384396Y0149125D01*
X0384880Y0149609D01*
X0384880Y0146663D02*
X0385364Y0146663D01*
X0385848Y0146179D01*
X0386331Y0146663D01*
X0386815Y0146663D01*
X0387299Y0146179D01*
X0387299Y0145211D01*
X0386815Y0144728D01*
X0387299Y0143716D02*
X0386331Y0142749D01*
X0386331Y0143232D02*
X0386331Y0141781D01*
X0387299Y0141781D02*
X0384396Y0141781D01*
X0384396Y0143232D01*
X0384880Y0143716D01*
X0385848Y0143716D01*
X0386331Y0143232D01*
X0384880Y0144728D02*
X0384396Y0145211D01*
X0384396Y0146179D01*
X0384880Y0146663D01*
X0385848Y0146179D02*
X0385848Y0145695D01*
X0388249Y0142184D02*
X0389700Y0142184D01*
X0390184Y0141700D01*
X0390184Y0140732D01*
X0389700Y0140249D01*
X0388249Y0140249D01*
X0389216Y0140249D02*
X0390184Y0139281D01*
X0391195Y0139281D02*
X0393130Y0141216D01*
X0393130Y0141700D01*
X0392647Y0142184D01*
X0391679Y0142184D01*
X0391195Y0141700D01*
X0391195Y0139281D02*
X0393130Y0139281D01*
X0394142Y0139765D02*
X0394626Y0139281D01*
X0395593Y0139281D01*
X0396077Y0139765D01*
X0396077Y0140249D01*
X0395593Y0140732D01*
X0394142Y0140732D01*
X0394142Y0139765D01*
X0394142Y0140732D02*
X0395109Y0141700D01*
X0396077Y0142184D01*
X0388249Y0142184D02*
X0388249Y0139281D01*
X0411999Y0129234D02*
X0411999Y0126331D01*
X0413450Y0126331D01*
X0413934Y0126815D01*
X0413934Y0128750D01*
X0413450Y0129234D01*
X0411999Y0129234D01*
X0414945Y0128266D02*
X0415913Y0129234D01*
X0415913Y0126331D01*
X0416880Y0126331D02*
X0414945Y0126331D01*
X0417892Y0126815D02*
X0419827Y0128750D01*
X0419827Y0126815D01*
X0419343Y0126331D01*
X0418376Y0126331D01*
X0417892Y0126815D01*
X0417892Y0128750D01*
X0418376Y0129234D01*
X0419343Y0129234D01*
X0419827Y0128750D01*
X0417663Y0106784D02*
X0417663Y0103881D01*
X0418630Y0103881D02*
X0416695Y0103881D01*
X0415684Y0104365D02*
X0415684Y0106300D01*
X0415200Y0106784D01*
X0413749Y0106784D01*
X0413749Y0103881D01*
X0415200Y0103881D01*
X0415684Y0104365D01*
X0416695Y0105816D02*
X0417663Y0106784D01*
X0447596Y0091102D02*
X0450499Y0091102D01*
X0450499Y0090135D02*
X0450499Y0092070D01*
X0448564Y0090135D02*
X0447596Y0091102D01*
X0448080Y0089123D02*
X0448564Y0089123D01*
X0449048Y0088639D01*
X0449531Y0089123D01*
X0450015Y0089123D01*
X0450499Y0088639D01*
X0450499Y0087672D01*
X0450015Y0087188D01*
X0450015Y0086177D02*
X0450499Y0085693D01*
X0450499Y0084725D01*
X0450015Y0084242D01*
X0448080Y0084242D01*
X0447596Y0084725D01*
X0447596Y0085693D01*
X0448080Y0086177D01*
X0448080Y0087188D02*
X0447596Y0087672D01*
X0447596Y0088639D01*
X0448080Y0089123D01*
X0449048Y0088639D02*
X0449048Y0088156D01*
X0448093Y0076034D02*
X0447126Y0076034D01*
X0446642Y0075550D01*
X0445630Y0075550D02*
X0445630Y0075066D01*
X0445147Y0074582D01*
X0445630Y0074099D01*
X0445630Y0073615D01*
X0445147Y0073131D01*
X0444179Y0073131D01*
X0443695Y0073615D01*
X0442684Y0073615D02*
X0442200Y0073131D01*
X0441233Y0073131D01*
X0440749Y0073615D01*
X0440749Y0075550D01*
X0441233Y0076034D01*
X0442200Y0076034D01*
X0442684Y0075550D01*
X0443695Y0075550D02*
X0444179Y0076034D01*
X0445147Y0076034D01*
X0445630Y0075550D01*
X0445147Y0074582D02*
X0444663Y0074582D01*
X0446642Y0073131D02*
X0448577Y0075066D01*
X0448577Y0075550D01*
X0448093Y0076034D01*
X0448577Y0073131D02*
X0446642Y0073131D01*
X0413127Y0073182D02*
X0411192Y0073182D01*
X0412643Y0074634D01*
X0412643Y0071731D01*
X0410180Y0071731D02*
X0408245Y0071731D01*
X0410180Y0073666D01*
X0410180Y0074150D01*
X0409697Y0074634D01*
X0408729Y0074634D01*
X0408245Y0074150D01*
X0407234Y0074150D02*
X0407234Y0073182D01*
X0406750Y0072699D01*
X0405299Y0072699D01*
X0404577Y0072649D02*
X0404577Y0072165D01*
X0404093Y0071681D01*
X0403126Y0071681D01*
X0402642Y0072165D01*
X0401630Y0071681D02*
X0399695Y0071681D01*
X0401630Y0073616D01*
X0401630Y0074100D01*
X0401147Y0074584D01*
X0400179Y0074584D01*
X0399695Y0074100D01*
X0398684Y0074100D02*
X0398684Y0073132D01*
X0398200Y0072649D01*
X0396749Y0072649D01*
X0397716Y0072649D02*
X0398684Y0071681D01*
X0396749Y0071681D02*
X0396749Y0074584D01*
X0398200Y0074584D01*
X0398684Y0074100D01*
X0402642Y0074100D02*
X0403126Y0074584D01*
X0404093Y0074584D01*
X0404577Y0074100D01*
X0404577Y0073616D01*
X0404093Y0073132D01*
X0404577Y0072649D01*
X0404093Y0073132D02*
X0403609Y0073132D01*
X0405299Y0071731D02*
X0405299Y0074634D01*
X0406750Y0074634D01*
X0407234Y0074150D01*
X0406266Y0072699D02*
X0407234Y0071731D01*
X0438499Y0044750D02*
X0438499Y0042815D01*
X0438983Y0042331D01*
X0439950Y0042331D01*
X0440434Y0042815D01*
X0441445Y0042815D02*
X0441929Y0042331D01*
X0442897Y0042331D01*
X0443380Y0042815D01*
X0443380Y0043299D01*
X0442897Y0043782D01*
X0442413Y0043782D01*
X0442897Y0043782D02*
X0443380Y0044266D01*
X0443380Y0044750D01*
X0442897Y0045234D01*
X0441929Y0045234D01*
X0441445Y0044750D01*
X0440434Y0044750D02*
X0439950Y0045234D01*
X0438983Y0045234D01*
X0438499Y0044750D01*
X0444392Y0044750D02*
X0444876Y0045234D01*
X0445843Y0045234D01*
X0446327Y0044750D01*
X0446327Y0044266D01*
X0445843Y0043782D01*
X0446327Y0043299D01*
X0446327Y0042815D01*
X0445843Y0042331D01*
X0444876Y0042331D01*
X0444392Y0042815D01*
X0445359Y0043782D02*
X0445843Y0043782D01*
X0479899Y0048565D02*
X0480383Y0048081D01*
X0481350Y0048081D01*
X0481834Y0048565D01*
X0482845Y0048565D02*
X0483329Y0048081D01*
X0484297Y0048081D01*
X0484780Y0048565D01*
X0484780Y0049049D01*
X0484297Y0049532D01*
X0483813Y0049532D01*
X0484297Y0049532D02*
X0484780Y0050016D01*
X0484780Y0050500D01*
X0484297Y0050984D01*
X0483329Y0050984D01*
X0482845Y0050500D01*
X0481834Y0050500D02*
X0481350Y0050984D01*
X0480383Y0050984D01*
X0479899Y0050500D01*
X0479899Y0048565D01*
X0485792Y0048565D02*
X0486276Y0048081D01*
X0487243Y0048081D01*
X0487727Y0048565D01*
X0487727Y0049532D01*
X0487243Y0050016D01*
X0486759Y0050016D01*
X0485792Y0049532D01*
X0485792Y0050984D01*
X0487727Y0050984D01*
X0504546Y0083942D02*
X0504546Y0085393D01*
X0505030Y0085877D01*
X0505998Y0085877D01*
X0506481Y0085393D01*
X0506481Y0083942D01*
X0506481Y0084909D02*
X0507449Y0085877D01*
X0506965Y0086888D02*
X0507449Y0087372D01*
X0507449Y0088339D01*
X0506965Y0088823D01*
X0506481Y0088823D01*
X0505998Y0088339D01*
X0505998Y0087856D01*
X0505998Y0088339D02*
X0505514Y0088823D01*
X0505030Y0088823D01*
X0504546Y0088339D01*
X0504546Y0087372D01*
X0505030Y0086888D01*
X0504546Y0083942D02*
X0507449Y0083942D01*
X0505998Y0089835D02*
X0505998Y0091770D01*
X0507449Y0091286D02*
X0504546Y0091286D01*
X0505998Y0089835D01*
X0496143Y0100981D02*
X0495176Y0100981D01*
X0494692Y0101465D01*
X0494692Y0101949D01*
X0495176Y0102432D01*
X0496143Y0102432D01*
X0496627Y0101949D01*
X0496627Y0101465D01*
X0496143Y0100981D01*
X0496143Y0102432D02*
X0496627Y0102916D01*
X0496627Y0103400D01*
X0496143Y0103884D01*
X0495176Y0103884D01*
X0494692Y0103400D01*
X0494692Y0102916D01*
X0495176Y0102432D01*
X0493680Y0102916D02*
X0493680Y0103400D01*
X0493197Y0103884D01*
X0492229Y0103884D01*
X0491745Y0103400D01*
X0490734Y0103400D02*
X0490250Y0103884D01*
X0489283Y0103884D01*
X0488799Y0103400D01*
X0488799Y0101465D01*
X0489283Y0100981D01*
X0490250Y0100981D01*
X0490734Y0101465D01*
X0491745Y0100981D02*
X0493680Y0102916D01*
X0493680Y0100981D02*
X0491745Y0100981D01*
X0487927Y0101115D02*
X0487443Y0100631D01*
X0486476Y0100631D01*
X0485992Y0101115D01*
X0487927Y0103050D01*
X0487927Y0101115D01*
X0487927Y0103050D02*
X0487443Y0103534D01*
X0486476Y0103534D01*
X0485992Y0103050D01*
X0485992Y0101115D01*
X0484980Y0101115D02*
X0484497Y0100631D01*
X0483529Y0100631D01*
X0483045Y0101115D01*
X0482034Y0101115D02*
X0481550Y0100631D01*
X0480583Y0100631D01*
X0480099Y0101115D01*
X0480099Y0103050D01*
X0480583Y0103534D01*
X0481550Y0103534D01*
X0482034Y0103050D01*
X0483045Y0103050D02*
X0483529Y0103534D01*
X0484497Y0103534D01*
X0484980Y0103050D01*
X0484980Y0102566D01*
X0484497Y0102082D01*
X0484980Y0101599D01*
X0484980Y0101115D01*
X0484497Y0102082D02*
X0484013Y0102082D01*
X0492380Y0145981D02*
X0494315Y0145981D01*
X0494799Y0146465D01*
X0494799Y0147432D01*
X0494315Y0147916D01*
X0493348Y0148928D02*
X0491896Y0150379D01*
X0494799Y0150379D01*
X0494799Y0151874D02*
X0492864Y0153809D01*
X0492380Y0153809D01*
X0491896Y0153325D01*
X0491896Y0152358D01*
X0492380Y0151874D01*
X0493348Y0150863D02*
X0493348Y0148928D01*
X0492380Y0147916D02*
X0491896Y0147432D01*
X0491896Y0146465D01*
X0492380Y0145981D01*
X0494799Y0151874D02*
X0494799Y0153809D01*
X0499649Y0157065D02*
X0500133Y0156581D01*
X0501100Y0156581D01*
X0501584Y0157065D01*
X0502595Y0158032D02*
X0504530Y0158032D01*
X0505542Y0158032D02*
X0507477Y0158032D01*
X0506993Y0156581D02*
X0506993Y0159484D01*
X0505542Y0158032D01*
X0504047Y0156581D02*
X0504047Y0159484D01*
X0502595Y0158032D01*
X0501584Y0159000D02*
X0501100Y0159484D01*
X0500133Y0159484D01*
X0499649Y0159000D01*
X0499649Y0157065D01*
X0511496Y0161858D02*
X0511496Y0162826D01*
X0511496Y0162342D02*
X0513915Y0162342D01*
X0514399Y0161858D01*
X0514399Y0161375D01*
X0513915Y0160891D01*
X0513431Y0163837D02*
X0513431Y0165289D01*
X0512948Y0165772D01*
X0511980Y0165772D01*
X0511496Y0165289D01*
X0511496Y0163837D01*
X0514399Y0163837D01*
X0514399Y0166784D02*
X0513915Y0166784D01*
X0511980Y0168719D01*
X0511496Y0168719D01*
X0511496Y0166784D01*
X0511543Y0172081D02*
X0510576Y0172081D01*
X0510092Y0172565D01*
X0510092Y0173532D02*
X0511059Y0174016D01*
X0511543Y0174016D01*
X0512027Y0173532D01*
X0512027Y0172565D01*
X0511543Y0172081D01*
X0510092Y0173532D02*
X0510092Y0174984D01*
X0512027Y0174984D01*
X0509080Y0174500D02*
X0509080Y0174016D01*
X0508597Y0173532D01*
X0509080Y0173049D01*
X0509080Y0172565D01*
X0508597Y0172081D01*
X0507629Y0172081D01*
X0507145Y0172565D01*
X0506134Y0172081D02*
X0505166Y0173049D01*
X0505650Y0173049D02*
X0504199Y0173049D01*
X0504199Y0172081D02*
X0504199Y0174984D01*
X0505650Y0174984D01*
X0506134Y0174500D01*
X0506134Y0173532D01*
X0505650Y0173049D01*
X0507145Y0174500D02*
X0507629Y0174984D01*
X0508597Y0174984D01*
X0509080Y0174500D01*
X0508597Y0173532D02*
X0508113Y0173532D01*
X0422499Y0214531D02*
X0422499Y0215982D01*
X0422015Y0216466D01*
X0420080Y0216466D01*
X0419596Y0215982D01*
X0419596Y0214531D01*
X0422499Y0214531D01*
X0421048Y0217478D02*
X0421048Y0219413D01*
X0422499Y0218929D02*
X0419596Y0218929D01*
X0421048Y0217478D01*
X0409699Y0217911D02*
X0409215Y0217428D01*
X0409699Y0217911D02*
X0409699Y0218879D01*
X0409215Y0219363D01*
X0408248Y0219363D01*
X0407764Y0218879D01*
X0407764Y0218395D01*
X0408248Y0217428D01*
X0406796Y0217428D01*
X0406796Y0219363D01*
X0407280Y0216416D02*
X0406796Y0215932D01*
X0406796Y0214481D01*
X0409699Y0214481D01*
X0409699Y0215932D01*
X0409215Y0216416D01*
X0407280Y0216416D01*
X0395027Y0215300D02*
X0395027Y0214816D01*
X0394543Y0214332D01*
X0393576Y0214332D01*
X0393092Y0214816D01*
X0393092Y0215300D01*
X0393576Y0215784D01*
X0394543Y0215784D01*
X0395027Y0215300D01*
X0394543Y0214332D02*
X0395027Y0213849D01*
X0395027Y0213365D01*
X0394543Y0212881D01*
X0393576Y0212881D01*
X0393092Y0213365D01*
X0393092Y0213849D01*
X0393576Y0214332D01*
X0392080Y0214816D02*
X0390145Y0212881D01*
X0392080Y0212881D01*
X0392080Y0214816D02*
X0392080Y0215300D01*
X0391597Y0215784D01*
X0390629Y0215784D01*
X0390145Y0215300D01*
X0389134Y0215300D02*
X0389134Y0214332D01*
X0388650Y0213849D01*
X0387199Y0213849D01*
X0388166Y0213849D02*
X0389134Y0212881D01*
X0387199Y0212881D02*
X0387199Y0215784D01*
X0388650Y0215784D01*
X0389134Y0215300D01*
X0385927Y0213134D02*
X0384959Y0212650D01*
X0383992Y0211682D01*
X0385443Y0211682D01*
X0385927Y0211199D01*
X0385927Y0210715D01*
X0385443Y0210231D01*
X0384476Y0210231D01*
X0383992Y0210715D01*
X0383992Y0211682D01*
X0382980Y0211682D02*
X0382497Y0211199D01*
X0381045Y0211199D01*
X0381045Y0210231D02*
X0381045Y0213134D01*
X0382497Y0213134D01*
X0382980Y0212650D01*
X0382980Y0211682D01*
X0380034Y0213134D02*
X0379066Y0213134D01*
X0379550Y0213134D02*
X0379550Y0210715D01*
X0379066Y0210231D01*
X0378583Y0210231D01*
X0378099Y0210715D01*
X0228580Y0104250D02*
X0228580Y0103766D01*
X0228097Y0103282D01*
X0228580Y0102799D01*
X0228580Y0102315D01*
X0228097Y0101831D01*
X0227129Y0101831D01*
X0226645Y0102315D01*
X0225634Y0102315D02*
X0225150Y0101831D01*
X0224183Y0101831D01*
X0223699Y0102315D01*
X0223699Y0104250D01*
X0224183Y0104734D01*
X0225150Y0104734D01*
X0225634Y0104250D01*
X0226645Y0104250D02*
X0227129Y0104734D01*
X0228097Y0104734D01*
X0228580Y0104250D01*
X0228097Y0103282D02*
X0227613Y0103282D01*
X0171830Y0069134D02*
X0169895Y0069134D01*
X0168884Y0068650D02*
X0168400Y0069134D01*
X0167433Y0069134D01*
X0166949Y0068650D01*
X0166949Y0066715D01*
X0167433Y0066231D01*
X0168400Y0066231D01*
X0168884Y0066715D01*
X0169895Y0066715D02*
X0169895Y0066231D01*
X0169895Y0066715D02*
X0171830Y0068650D01*
X0171830Y0069134D01*
X0151099Y0129142D02*
X0148196Y0129142D01*
X0148196Y0130593D01*
X0148680Y0131077D01*
X0149648Y0131077D01*
X0150131Y0130593D01*
X0150131Y0129142D01*
X0150131Y0130109D02*
X0151099Y0131077D01*
X0151099Y0132088D02*
X0151099Y0134023D01*
X0151099Y0133056D02*
X0148196Y0133056D01*
X0149164Y0132088D01*
X0148680Y0135035D02*
X0148196Y0135518D01*
X0148196Y0136486D01*
X0148680Y0136970D01*
X0150615Y0135035D01*
X0151099Y0135518D01*
X0151099Y0136486D01*
X0150615Y0136970D01*
X0148680Y0136970D01*
X0148680Y0135035D02*
X0150615Y0135035D01*
D17*
X0095699Y0124631D02*
X0095699Y0083631D01*
X0059099Y0083631D02*
X0059099Y0124631D01*
X0246999Y0209931D02*
X0287999Y0209931D01*
X0287949Y0246481D02*
X0246949Y0246481D01*
X0457849Y0180016D02*
X0457849Y0178548D01*
X0458216Y0178181D01*
X0458950Y0178181D01*
X0459317Y0178548D01*
X0460059Y0178548D02*
X0460426Y0178181D01*
X0461160Y0178181D01*
X0461527Y0178548D01*
X0461527Y0178915D01*
X0461160Y0179282D01*
X0460793Y0179282D01*
X0461160Y0179282D02*
X0461527Y0179649D01*
X0461527Y0180016D01*
X0461160Y0180383D01*
X0460426Y0180383D01*
X0460059Y0180016D01*
X0459317Y0180016D02*
X0458950Y0180383D01*
X0458216Y0180383D01*
X0457849Y0180016D01*
X0462269Y0180016D02*
X0462269Y0179649D01*
X0462636Y0179282D01*
X0463370Y0179282D01*
X0463736Y0178915D01*
X0463736Y0178548D01*
X0463370Y0178181D01*
X0462636Y0178181D01*
X0462269Y0178548D01*
X0462269Y0178915D01*
X0462636Y0179282D01*
X0463370Y0179282D02*
X0463736Y0179649D01*
X0463736Y0180016D01*
X0463370Y0180383D01*
X0462636Y0180383D01*
X0462269Y0180016D01*
X0464449Y0180066D02*
X0464449Y0178598D01*
X0464816Y0178231D01*
X0465550Y0178231D01*
X0465917Y0178598D01*
X0466659Y0178231D02*
X0468127Y0179699D01*
X0468127Y0180066D01*
X0467760Y0180433D01*
X0467026Y0180433D01*
X0466659Y0180066D01*
X0465917Y0180066D02*
X0465550Y0180433D01*
X0464816Y0180433D01*
X0464449Y0180066D01*
X0466659Y0178231D02*
X0468127Y0178231D01*
X0468869Y0178598D02*
X0469236Y0178231D01*
X0469970Y0178231D01*
X0470336Y0178598D01*
X0470336Y0178965D01*
X0469970Y0179332D01*
X0468869Y0179332D01*
X0468869Y0178598D01*
X0468869Y0179332D02*
X0469603Y0180066D01*
X0470336Y0180433D01*
X0471499Y0179566D02*
X0471499Y0178098D01*
X0471866Y0177731D01*
X0472600Y0177731D01*
X0472967Y0178098D01*
X0473709Y0177731D02*
X0475177Y0179199D01*
X0475177Y0179566D01*
X0474810Y0179933D01*
X0474076Y0179933D01*
X0473709Y0179566D01*
X0472967Y0179566D02*
X0472600Y0179933D01*
X0471866Y0179933D01*
X0471499Y0179566D01*
X0473709Y0177731D02*
X0475177Y0177731D01*
X0475919Y0178098D02*
X0476286Y0177731D01*
X0477020Y0177731D01*
X0477386Y0178098D01*
X0477386Y0178832D01*
X0477020Y0179199D01*
X0476653Y0179199D01*
X0475919Y0178832D01*
X0475919Y0179933D01*
X0477386Y0179933D01*
X0478799Y0179616D02*
X0478799Y0178148D01*
X0479166Y0177781D01*
X0479900Y0177781D01*
X0480267Y0178148D01*
X0481009Y0178882D02*
X0482477Y0178882D01*
X0483219Y0179249D02*
X0483953Y0179983D01*
X0483953Y0177781D01*
X0484686Y0177781D02*
X0483219Y0177781D01*
X0482110Y0177781D02*
X0482110Y0179983D01*
X0481009Y0178882D01*
X0480267Y0179616D02*
X0479900Y0179983D01*
X0479166Y0179983D01*
X0478799Y0179616D01*
X0467270Y0157683D02*
X0467636Y0157316D01*
X0466169Y0155848D01*
X0466536Y0155481D01*
X0467270Y0155481D01*
X0467636Y0155848D01*
X0467636Y0157316D01*
X0467270Y0157683D02*
X0466536Y0157683D01*
X0466169Y0157316D01*
X0466169Y0155848D01*
X0465427Y0156582D02*
X0463959Y0156582D01*
X0465060Y0157683D01*
X0465060Y0155481D01*
X0463217Y0155848D02*
X0462850Y0155481D01*
X0462116Y0155481D01*
X0461749Y0155848D01*
X0461749Y0157316D01*
X0462116Y0157683D01*
X0462850Y0157683D01*
X0463217Y0157316D01*
X0495847Y0146002D02*
X0495847Y0145268D01*
X0496214Y0144901D01*
X0496948Y0145635D02*
X0496948Y0146002D01*
X0497315Y0146369D01*
X0497682Y0146369D01*
X0498049Y0146002D01*
X0498049Y0145268D01*
X0497682Y0144901D01*
X0496948Y0144159D02*
X0496948Y0142691D01*
X0495847Y0143792D01*
X0498049Y0143792D01*
X0497682Y0141949D02*
X0498049Y0141582D01*
X0498049Y0140848D01*
X0497682Y0140481D01*
X0496214Y0140481D01*
X0495847Y0140848D01*
X0495847Y0141582D01*
X0496214Y0141949D01*
X0495847Y0146002D02*
X0496214Y0146369D01*
X0496581Y0146369D01*
X0496948Y0146002D01*
X0466790Y0102483D02*
X0466056Y0102483D01*
X0465689Y0102116D01*
X0465689Y0101749D01*
X0466056Y0101382D01*
X0467157Y0101382D01*
X0467157Y0100648D02*
X0467157Y0102116D01*
X0466790Y0102483D01*
X0467157Y0100648D02*
X0466790Y0100281D01*
X0466056Y0100281D01*
X0465689Y0100648D01*
X0464947Y0100281D02*
X0463479Y0100281D01*
X0464947Y0101749D01*
X0464947Y0102116D01*
X0464580Y0102483D01*
X0463846Y0102483D01*
X0463479Y0102116D01*
X0462737Y0102116D02*
X0462370Y0102483D01*
X0461636Y0102483D01*
X0461269Y0102116D01*
X0461269Y0100648D01*
X0461636Y0100281D01*
X0462370Y0100281D01*
X0462737Y0100648D01*
X0455336Y0100498D02*
X0455336Y0101966D01*
X0454970Y0102333D01*
X0454236Y0102333D01*
X0453869Y0101966D01*
X0453869Y0101599D01*
X0454236Y0101232D01*
X0455336Y0101232D01*
X0455336Y0100498D02*
X0454970Y0100131D01*
X0454236Y0100131D01*
X0453869Y0100498D01*
X0453127Y0100498D02*
X0452760Y0100131D01*
X0452026Y0100131D01*
X0451659Y0100498D01*
X0450917Y0100498D02*
X0450550Y0100131D01*
X0449816Y0100131D01*
X0449449Y0100498D01*
X0449449Y0101966D01*
X0449816Y0102333D01*
X0450550Y0102333D01*
X0450917Y0101966D01*
X0451659Y0101966D02*
X0452026Y0102333D01*
X0452760Y0102333D01*
X0453127Y0101966D01*
X0453127Y0101599D01*
X0452760Y0101232D01*
X0453127Y0100865D01*
X0453127Y0100498D01*
X0452760Y0101232D02*
X0452393Y0101232D01*
X0467516Y0082033D02*
X0467149Y0081666D01*
X0467149Y0080198D01*
X0467516Y0079831D01*
X0468250Y0079831D01*
X0468617Y0080198D01*
X0469359Y0080198D02*
X0469726Y0079831D01*
X0470460Y0079831D01*
X0470827Y0080198D01*
X0470827Y0080565D01*
X0470460Y0080932D01*
X0470093Y0080932D01*
X0470460Y0080932D02*
X0470827Y0081299D01*
X0470827Y0081666D01*
X0470460Y0082033D01*
X0469726Y0082033D01*
X0469359Y0081666D01*
X0468617Y0081666D02*
X0468250Y0082033D01*
X0467516Y0082033D01*
X0471569Y0080932D02*
X0472670Y0080932D01*
X0473036Y0080565D01*
X0473036Y0080198D01*
X0472670Y0079831D01*
X0471936Y0079831D01*
X0471569Y0080198D01*
X0471569Y0080932D01*
X0472303Y0081666D01*
X0473036Y0082033D01*
X0473200Y0082281D02*
X0473567Y0082648D01*
X0473200Y0082281D02*
X0472466Y0082281D01*
X0472099Y0082648D01*
X0472099Y0084116D01*
X0472466Y0084483D01*
X0473200Y0084483D01*
X0473567Y0084116D01*
X0474309Y0084116D02*
X0474676Y0084483D01*
X0475410Y0084483D01*
X0475777Y0084116D01*
X0475777Y0083749D01*
X0474309Y0082281D01*
X0475777Y0082281D01*
X0476519Y0082648D02*
X0476886Y0082281D01*
X0477620Y0082281D01*
X0477986Y0082648D01*
X0477986Y0083015D01*
X0477620Y0083382D01*
X0477253Y0083382D01*
X0477620Y0083382D02*
X0477986Y0083749D01*
X0477986Y0084116D01*
X0477620Y0084483D01*
X0476886Y0084483D01*
X0476519Y0084116D01*
X0458060Y0070166D02*
X0456592Y0068698D01*
X0456959Y0068331D01*
X0457693Y0068331D01*
X0458060Y0068698D01*
X0458060Y0070166D01*
X0457693Y0070533D01*
X0456959Y0070533D01*
X0456592Y0070166D01*
X0456592Y0068698D01*
X0455850Y0068331D02*
X0454382Y0068331D01*
X0455116Y0068331D02*
X0455116Y0070533D01*
X0454382Y0069799D01*
X0453640Y0070166D02*
X0453273Y0070533D01*
X0452539Y0070533D01*
X0452172Y0070166D01*
X0452172Y0068698D01*
X0452539Y0068331D01*
X0453273Y0068331D01*
X0453640Y0068698D01*
X0451433Y0068331D02*
X0450699Y0068331D01*
X0451066Y0068331D02*
X0451066Y0070533D01*
X0450699Y0070533D02*
X0451433Y0070533D01*
X0451082Y0075081D02*
X0451449Y0075448D01*
X0451449Y0076182D01*
X0451082Y0076549D01*
X0451082Y0077291D02*
X0451449Y0077658D01*
X0451449Y0078392D01*
X0451082Y0078759D01*
X0450715Y0078759D01*
X0450348Y0078392D01*
X0450348Y0078025D01*
X0450348Y0078392D02*
X0449981Y0078759D01*
X0449614Y0078759D01*
X0449247Y0078392D01*
X0449247Y0077658D01*
X0449614Y0077291D01*
X0449614Y0076549D02*
X0449247Y0076182D01*
X0449247Y0075448D01*
X0449614Y0075081D01*
X0451082Y0075081D01*
X0451082Y0079501D02*
X0451449Y0079501D01*
X0451082Y0079501D02*
X0449614Y0080969D01*
X0449247Y0080969D01*
X0449247Y0079501D01*
X0463747Y0065272D02*
X0464848Y0064171D01*
X0464848Y0065639D01*
X0465949Y0065272D02*
X0463747Y0065272D01*
X0464114Y0063429D02*
X0464481Y0063429D01*
X0464848Y0063062D01*
X0465215Y0063429D01*
X0465582Y0063429D01*
X0465949Y0063062D01*
X0465949Y0062328D01*
X0465582Y0061961D01*
X0465582Y0061219D02*
X0465949Y0060852D01*
X0465949Y0060118D01*
X0465582Y0059751D01*
X0464114Y0059751D01*
X0463747Y0060118D01*
X0463747Y0060852D01*
X0464114Y0061219D01*
X0464114Y0061961D02*
X0463747Y0062328D01*
X0463747Y0063062D01*
X0464114Y0063429D01*
X0464848Y0063062D02*
X0464848Y0062695D01*
X0404320Y0130081D02*
X0403586Y0130081D01*
X0403219Y0130448D01*
X0403586Y0131182D02*
X0404686Y0131182D01*
X0404686Y0130448D02*
X0404686Y0131916D01*
X0404320Y0132283D01*
X0403586Y0132283D01*
X0403219Y0131916D01*
X0403219Y0131549D01*
X0403586Y0131182D01*
X0404686Y0130448D02*
X0404320Y0130081D01*
X0402477Y0130081D02*
X0401009Y0130081D01*
X0401743Y0130081D02*
X0401743Y0132283D01*
X0401009Y0131549D01*
X0400267Y0131916D02*
X0399900Y0132283D01*
X0399166Y0132283D01*
X0398799Y0131916D01*
X0398799Y0130448D01*
X0399166Y0130081D01*
X0399900Y0130081D01*
X0400267Y0130448D01*
D18*
X0105949Y0125381D03*
X0085449Y0125381D03*
X0069349Y0125381D03*
X0048849Y0125381D03*
X0048849Y0082881D03*
X0069349Y0082881D03*
X0085449Y0082881D03*
X0105949Y0082881D03*
D19*
X0095699Y0082881D03*
X0059099Y0082881D03*
X0059099Y0125381D03*
X0095699Y0125381D03*
D20*
X0105199Y0104131D03*
X0086199Y0104131D03*
X0068599Y0104131D03*
X0049599Y0104131D03*
D21*
X0050599Y0072131D03*
X0067599Y0072131D03*
X0087199Y0072131D03*
X0104199Y0072131D03*
X0104199Y0136131D03*
X0087199Y0136131D03*
X0067599Y0136131D03*
X0050599Y0136131D03*
D22*
X0097578Y0180381D02*
X0097578Y0185696D01*
X0097578Y0180381D02*
X0211751Y0180381D01*
X0211751Y0230381D01*
X0097578Y0230381D01*
X0097578Y0225066D01*
X0097578Y0215224D02*
X0097578Y0195539D01*
X0343452Y0091405D02*
X0343525Y0091369D01*
X0343596Y0091328D01*
X0343666Y0091285D01*
X0343733Y0091238D01*
X0343798Y0091188D01*
X0343860Y0091135D01*
X0343920Y0091080D01*
X0343977Y0091021D01*
X0344032Y0090960D01*
X0344083Y0090896D01*
X0344132Y0090830D01*
X0344177Y0090762D01*
X0344219Y0090692D01*
X0344258Y0090620D01*
X0344294Y0090546D01*
X0344325Y0090471D01*
X0344354Y0090394D01*
X0344378Y0090316D01*
X0344399Y0090237D01*
X0344416Y0090157D01*
X0344430Y0090076D01*
X0344439Y0089995D01*
X0344445Y0089913D01*
X0344447Y0089831D01*
X0344445Y0089749D01*
X0344439Y0089667D01*
X0344430Y0089586D01*
X0344416Y0089505D01*
X0344399Y0089425D01*
X0344378Y0089346D01*
X0344354Y0089268D01*
X0344325Y0089191D01*
X0344294Y0089116D01*
X0344258Y0089042D01*
X0344219Y0088970D01*
X0344177Y0088900D01*
X0344132Y0088832D01*
X0344083Y0088766D01*
X0344032Y0088702D01*
X0343977Y0088641D01*
X0343920Y0088582D01*
X0343860Y0088527D01*
X0343798Y0088474D01*
X0343733Y0088424D01*
X0343666Y0088377D01*
X0343596Y0088334D01*
X0343525Y0088293D01*
X0343452Y0088257D01*
X0343452Y0088256D02*
X0343452Y0082351D01*
X0350145Y0082351D01*
X0350145Y0088256D01*
X0350145Y0088257D02*
X0350072Y0088293D01*
X0350001Y0088334D01*
X0349931Y0088377D01*
X0349864Y0088424D01*
X0349799Y0088474D01*
X0349737Y0088527D01*
X0349677Y0088582D01*
X0349620Y0088641D01*
X0349565Y0088702D01*
X0349514Y0088766D01*
X0349465Y0088832D01*
X0349420Y0088900D01*
X0349378Y0088970D01*
X0349339Y0089042D01*
X0349303Y0089116D01*
X0349272Y0089191D01*
X0349243Y0089268D01*
X0349219Y0089346D01*
X0349198Y0089425D01*
X0349181Y0089505D01*
X0349167Y0089586D01*
X0349158Y0089667D01*
X0349152Y0089749D01*
X0349150Y0089831D01*
X0349152Y0089913D01*
X0349158Y0089995D01*
X0349167Y0090076D01*
X0349181Y0090157D01*
X0349198Y0090237D01*
X0349219Y0090316D01*
X0349243Y0090394D01*
X0349272Y0090471D01*
X0349303Y0090546D01*
X0349339Y0090620D01*
X0349378Y0090692D01*
X0349420Y0090762D01*
X0349465Y0090830D01*
X0349514Y0090896D01*
X0349565Y0090960D01*
X0349620Y0091021D01*
X0349677Y0091080D01*
X0349737Y0091135D01*
X0349799Y0091188D01*
X0349864Y0091238D01*
X0349931Y0091285D01*
X0350001Y0091328D01*
X0350072Y0091369D01*
X0350145Y0091405D01*
X0350145Y0091406D02*
X0350145Y0097311D01*
X0343452Y0097311D01*
X0343452Y0091406D01*
X0450749Y0067831D02*
X0458349Y0067831D01*
X0458749Y0059531D02*
X0454349Y0059531D01*
X0385595Y0194551D02*
X0378902Y0194551D01*
X0378902Y0200456D01*
X0378902Y0200457D02*
X0378975Y0200493D01*
X0379046Y0200534D01*
X0379116Y0200577D01*
X0379183Y0200624D01*
X0379248Y0200674D01*
X0379310Y0200727D01*
X0379370Y0200782D01*
X0379427Y0200841D01*
X0379482Y0200902D01*
X0379533Y0200966D01*
X0379582Y0201032D01*
X0379627Y0201100D01*
X0379669Y0201170D01*
X0379708Y0201242D01*
X0379744Y0201316D01*
X0379775Y0201391D01*
X0379804Y0201468D01*
X0379828Y0201546D01*
X0379849Y0201625D01*
X0379866Y0201705D01*
X0379880Y0201786D01*
X0379889Y0201867D01*
X0379895Y0201949D01*
X0379897Y0202031D01*
X0379895Y0202113D01*
X0379889Y0202195D01*
X0379880Y0202276D01*
X0379866Y0202357D01*
X0379849Y0202437D01*
X0379828Y0202516D01*
X0379804Y0202594D01*
X0379775Y0202671D01*
X0379744Y0202746D01*
X0379708Y0202820D01*
X0379669Y0202892D01*
X0379627Y0202962D01*
X0379582Y0203030D01*
X0379533Y0203096D01*
X0379482Y0203160D01*
X0379427Y0203221D01*
X0379370Y0203280D01*
X0379310Y0203335D01*
X0379248Y0203388D01*
X0379183Y0203438D01*
X0379116Y0203485D01*
X0379046Y0203528D01*
X0378975Y0203569D01*
X0378902Y0203605D01*
X0378902Y0203606D02*
X0378902Y0209511D01*
X0385595Y0209511D01*
X0385595Y0203606D01*
X0385595Y0203605D02*
X0385522Y0203569D01*
X0385451Y0203528D01*
X0385381Y0203485D01*
X0385314Y0203438D01*
X0385249Y0203388D01*
X0385187Y0203335D01*
X0385127Y0203280D01*
X0385070Y0203221D01*
X0385015Y0203160D01*
X0384964Y0203096D01*
X0384915Y0203030D01*
X0384870Y0202962D01*
X0384828Y0202892D01*
X0384789Y0202820D01*
X0384753Y0202746D01*
X0384722Y0202671D01*
X0384693Y0202594D01*
X0384669Y0202516D01*
X0384648Y0202437D01*
X0384631Y0202357D01*
X0384617Y0202276D01*
X0384608Y0202195D01*
X0384602Y0202113D01*
X0384600Y0202031D01*
X0384602Y0201949D01*
X0384608Y0201867D01*
X0384617Y0201786D01*
X0384631Y0201705D01*
X0384648Y0201625D01*
X0384669Y0201546D01*
X0384693Y0201468D01*
X0384722Y0201391D01*
X0384753Y0201316D01*
X0384789Y0201242D01*
X0384828Y0201170D01*
X0384870Y0201100D01*
X0384915Y0201032D01*
X0384964Y0200966D01*
X0385015Y0200902D01*
X0385070Y0200841D01*
X0385127Y0200782D01*
X0385187Y0200727D01*
X0385249Y0200674D01*
X0385314Y0200624D01*
X0385381Y0200577D01*
X0385451Y0200534D01*
X0385522Y0200493D01*
X0385595Y0200457D01*
X0385595Y0200456D02*
X0385595Y0194551D01*
X0357628Y0229731D02*
X0357628Y0235046D01*
X0357628Y0229731D02*
X0471801Y0229731D01*
X0471801Y0279731D01*
X0357628Y0279731D01*
X0357628Y0274416D01*
X0357628Y0264574D02*
X0357628Y0244889D01*
D23*
X0410643Y0210681D03*
X0420155Y0210681D03*
X0407405Y0197681D03*
X0397893Y0197681D03*
X0397893Y0183881D03*
X0407405Y0183881D03*
X0410643Y0170881D03*
X0420155Y0170881D03*
X0407405Y0156981D03*
X0397893Y0156981D03*
X0410643Y0143981D03*
X0420155Y0143981D03*
X0320105Y0093781D03*
X0310593Y0093781D03*
X0322493Y0080781D03*
X0332005Y0080781D03*
D24*
X0288749Y0199681D03*
X0288749Y0220181D03*
X0288699Y0236231D03*
X0288699Y0256731D03*
X0246199Y0256731D03*
X0246199Y0236231D03*
X0246249Y0220181D03*
X0246249Y0199681D03*
D25*
X0246249Y0209931D03*
X0288749Y0209931D03*
X0288699Y0246481D03*
X0246199Y0246481D03*
D26*
X0267449Y0236981D03*
X0267499Y0219431D03*
X0267499Y0200431D03*
X0267449Y0255981D03*
D27*
X0299449Y0254981D03*
X0299449Y0237981D03*
X0299499Y0218431D03*
X0299499Y0201431D03*
X0235499Y0201431D03*
X0235499Y0218431D03*
X0235449Y0237981D03*
X0235449Y0254981D03*
M02*
