G75*
%MOIN*%
%OFA0B0*%
%FSLAX25Y25*%
%IPPOS*%
%LPD*%
%AMOC8*
5,1,8,0,0,1.08239X$1,22.5*
%
%ADD10C,0.00500*%
%ADD11R,0.85100X0.22250*%
%ADD12R,0.01485X0.00015*%
%ADD13R,0.00045X0.00015*%
%ADD14R,0.00105X0.00015*%
%ADD15R,0.00165X0.00015*%
%ADD16R,0.00225X0.00015*%
%ADD17R,0.00285X0.00015*%
%ADD18R,0.00345X0.00015*%
%ADD19R,0.00405X0.00015*%
%ADD20R,0.00435X0.00015*%
%ADD21R,0.00465X0.00015*%
%ADD22R,0.00495X0.00015*%
%ADD23R,0.00540X0.00015*%
%ADD24R,0.00585X0.00015*%
%ADD25R,0.00645X0.00015*%
%ADD26R,0.00150X0.00015*%
%ADD27R,0.00675X0.00015*%
%ADD28R,0.00195X0.00015*%
%ADD29R,0.00705X0.00015*%
%ADD30R,0.00240X0.00015*%
%ADD31R,0.00735X0.00015*%
%ADD32R,0.00270X0.00015*%
%ADD33R,0.00765X0.00015*%
%ADD34R,0.00300X0.00015*%
%ADD35R,0.00810X0.00015*%
%ADD36R,0.00360X0.00015*%
%ADD37R,0.00855X0.00015*%
%ADD38R,0.00435X0.00015*%
%ADD39R,0.00915X0.00015*%
%ADD40R,0.00465X0.00015*%
%ADD41R,0.00945X0.00015*%
%ADD42R,0.00960X0.00015*%
%ADD43R,0.00525X0.00015*%
%ADD44R,0.00990X0.00015*%
%ADD45R,0.00555X0.00015*%
%ADD46R,0.01035X0.00015*%
%ADD47R,0.00600X0.00015*%
%ADD48R,0.01080X0.00015*%
%ADD49R,0.01125X0.00015*%
%ADD50R,0.01170X0.00015*%
%ADD51R,0.00720X0.00015*%
%ADD52R,0.01200X0.00015*%
%ADD53R,0.00750X0.00015*%
%ADD54R,0.01230X0.00015*%
%ADD55R,0.00780X0.00015*%
%ADD56R,0.01260X0.00015*%
%ADD57R,0.00810X0.00015*%
%ADD58R,0.01305X0.00015*%
%ADD59R,0.01365X0.00015*%
%ADD60R,0.00900X0.00015*%
%ADD61R,0.01395X0.00015*%
%ADD62R,0.01440X0.00015*%
%ADD63R,0.01470X0.00015*%
%ADD64R,0.01005X0.00015*%
%ADD65R,0.01500X0.00015*%
%ADD66R,0.01020X0.00015*%
%ADD67R,0.01530X0.00015*%
%ADD68R,0.01065X0.00015*%
%ADD69R,0.01575X0.00015*%
%ADD70R,0.01095X0.00015*%
%ADD71R,0.01635X0.00015*%
%ADD72R,0.01155X0.00015*%
%ADD73R,0.01680X0.00015*%
%ADD74R,0.01200X0.00015*%
%ADD75R,0.01710X0.00015*%
%ADD76R,0.01230X0.00015*%
%ADD77R,0.01725X0.00015*%
%ADD78R,0.01245X0.00015*%
%ADD79R,0.01755X0.00015*%
%ADD80R,0.01275X0.00015*%
%ADD81R,0.01800X0.00015*%
%ADD82R,0.01320X0.00015*%
%ADD83R,0.01860X0.00015*%
%ADD84R,0.01905X0.00015*%
%ADD85R,0.01410X0.00015*%
%ADD86R,0.01935X0.00015*%
%ADD87R,0.01455X0.00015*%
%ADD88R,0.01965X0.00015*%
%ADD89R,0.01485X0.00015*%
%ADD90R,0.01995X0.00015*%
%ADD91R,0.01515X0.00015*%
%ADD92R,0.02040X0.00015*%
%ADD93R,0.01530X0.00015*%
%ADD94R,0.02070X0.00015*%
%ADD95R,0.01575X0.00015*%
%ADD96R,0.02115X0.00015*%
%ADD97R,0.01620X0.00015*%
%ADD98R,0.02160X0.00015*%
%ADD99R,0.01665X0.00015*%
%ADD100R,0.02190X0.00015*%
%ADD101R,0.00075X0.00015*%
%ADD102R,0.01695X0.00015*%
%ADD103R,0.02220X0.00015*%
%ADD104R,0.00105X0.00015*%
%ADD105R,0.02235X0.00015*%
%ADD106R,0.00135X0.00015*%
%ADD107R,0.01755X0.00015*%
%ADD108R,0.02280X0.00015*%
%ADD109R,0.00180X0.00015*%
%ADD110R,0.01785X0.00015*%
%ADD111R,0.02340X0.00015*%
%ADD112R,0.00240X0.00015*%
%ADD113R,0.01830X0.00015*%
%ADD114R,0.02385X0.00015*%
%ADD115R,0.01890X0.00015*%
%ADD116R,0.02415X0.00015*%
%ADD117R,0.00330X0.00015*%
%ADD118R,0.00120X0.00015*%
%ADD119R,0.01920X0.00015*%
%ADD120R,0.02430X0.00015*%
%ADD121R,0.00375X0.00015*%
%ADD122R,0.02460X0.00015*%
%ADD123R,0.00405X0.00015*%
%ADD124R,0.00195X0.00015*%
%ADD125R,0.01965X0.00015*%
%ADD126R,0.02505X0.00015*%
%ADD127R,0.00210X0.00015*%
%ADD128R,0.02010X0.00015*%
%ADD129R,0.02535X0.00015*%
%ADD130R,0.00480X0.00015*%
%ADD131R,0.02580X0.00015*%
%ADD132R,0.00540X0.00015*%
%ADD133R,0.02085X0.00015*%
%ADD134R,0.02625X0.00015*%
%ADD135R,0.02130X0.00015*%
%ADD136R,0.02670X0.00015*%
%ADD137R,0.00630X0.00015*%
%ADD138R,0.02700X0.00015*%
%ADD139R,0.00660X0.00015*%
%ADD140R,0.00450X0.00015*%
%ADD141R,0.02190X0.00015*%
%ADD142R,0.02715X0.00015*%
%ADD143R,0.02205X0.00015*%
%ADD144R,0.02745X0.00015*%
%ADD145R,0.00510X0.00015*%
%ADD146R,0.02235X0.00015*%
%ADD147R,0.02775X0.00015*%
%ADD148R,0.02820X0.00015*%
%ADD149R,0.02310X0.00015*%
%ADD150R,0.02880X0.00015*%
%ADD151R,0.00855X0.00015*%
%ADD152R,0.02355X0.00015*%
%ADD153R,0.02895X0.00015*%
%ADD154R,0.00870X0.00015*%
%ADD155R,0.00660X0.00015*%
%ADD156R,0.02925X0.00015*%
%ADD157R,0.00690X0.00015*%
%ADD158R,0.02970X0.00015*%
%ADD159R,0.03000X0.00015*%
%ADD160R,0.00750X0.00015*%
%ADD161R,0.03045X0.00015*%
%ADD162R,0.01005X0.00015*%
%ADD163R,0.00780X0.00015*%
%ADD164R,0.02505X0.00015*%
%ADD165R,0.03090X0.00015*%
%ADD166R,0.01050X0.00015*%
%ADD167R,0.00825X0.00015*%
%ADD168R,0.02550X0.00015*%
%ADD169R,0.03135X0.00015*%
%ADD170R,0.01095X0.00015*%
%ADD171R,0.00870X0.00015*%
%ADD172R,0.03165X0.00015*%
%ADD173R,0.01125X0.00015*%
%ADD174R,0.02625X0.00015*%
%ADD175R,0.03195X0.00015*%
%ADD176R,0.01140X0.00015*%
%ADD177R,0.00930X0.00015*%
%ADD178R,0.02655X0.00015*%
%ADD179R,0.03210X0.00015*%
%ADD180R,0.00960X0.00015*%
%ADD181R,0.03240X0.00015*%
%ADD182R,0.02700X0.00015*%
%ADD183R,0.03285X0.00015*%
%ADD184R,0.01245X0.00015*%
%ADD185R,0.02745X0.00015*%
%ADD186R,0.03330X0.00015*%
%ADD187R,0.02790X0.00015*%
%ADD188R,0.03360X0.00015*%
%ADD189R,0.01110X0.00015*%
%ADD190R,0.02835X0.00015*%
%ADD191R,0.03390X0.00015*%
%ADD192R,0.01335X0.00015*%
%ADD193R,0.01140X0.00015*%
%ADD194R,0.02865X0.00015*%
%ADD195R,0.03420X0.00015*%
%ADD196R,0.01155X0.00015*%
%ADD197R,0.04905X0.00015*%
%ADD198R,0.04920X0.00015*%
%ADD199R,0.02940X0.00015*%
%ADD200R,0.04950X0.00015*%
%ADD201R,0.02985X0.00015*%
%ADD202R,0.04965X0.00015*%
%ADD203R,0.01275X0.00015*%
%ADD204R,0.03015X0.00015*%
%ADD205R,0.04980X0.00015*%
%ADD206R,0.03045X0.00015*%
%ADD207R,0.05010X0.00015*%
%ADD208R,0.01335X0.00015*%
%ADD209R,0.03075X0.00015*%
%ADD210R,0.01350X0.00015*%
%ADD211R,0.03105X0.00015*%
%ADD212R,0.05040X0.00015*%
%ADD213R,0.01380X0.00015*%
%ADD214R,0.05040X0.00015*%
%ADD215R,0.01410X0.00015*%
%ADD216R,0.03180X0.00015*%
%ADD217R,0.05070X0.00015*%
%ADD218R,0.03225X0.00015*%
%ADD219R,0.03255X0.00015*%
%ADD220R,0.05085X0.00015*%
%ADD221R,0.01515X0.00015*%
%ADD222R,0.03300X0.00015*%
%ADD223R,0.05100X0.00015*%
%ADD224R,0.04935X0.00015*%
%ADD225R,0.05115X0.00015*%
%ADD226R,0.04995X0.00015*%
%ADD227R,0.05130X0.00015*%
%ADD228R,0.05010X0.00015*%
%ADD229R,0.05130X0.00015*%
%ADD230R,0.05010X0.00015*%
%ADD231R,0.05025X0.00015*%
%ADD232R,0.05040X0.00015*%
%ADD233R,0.05055X0.00015*%
%ADD234R,0.05130X0.00015*%
%ADD235R,0.05085X0.00015*%
%ADD236R,0.05115X0.00015*%
%ADD237R,0.05145X0.00015*%
%ADD238R,0.05160X0.00015*%
%ADD239R,0.05130X0.00015*%
%ADD240R,0.05190X0.00015*%
%ADD241R,0.05190X0.00015*%
%ADD242R,0.05205X0.00015*%
%ADD243R,0.05220X0.00015*%
%ADD244R,0.05070X0.00015*%
%ADD245R,0.05085X0.00015*%
%ADD246R,0.05205X0.00015*%
%ADD247R,0.05220X0.00015*%
%ADD248R,0.05055X0.00015*%
%ADD249R,0.05025X0.00015*%
%ADD250R,0.05205X0.00015*%
%ADD251R,0.05025X0.00015*%
%ADD252R,0.05190X0.00015*%
%ADD253R,0.05190X0.00015*%
%ADD254R,0.04995X0.00015*%
%ADD255R,0.05175X0.00015*%
%ADD256R,0.04950X0.00015*%
%ADD257R,0.05145X0.00015*%
%ADD258R,0.05145X0.00015*%
%ADD259R,0.04920X0.00015*%
%ADD260R,0.04905X0.00015*%
%ADD261R,0.04905X0.00015*%
%ADD262R,0.05115X0.00015*%
%ADD263R,0.04890X0.00015*%
%ADD264R,0.04890X0.00015*%
%ADD265R,0.04875X0.00015*%
%ADD266R,0.04845X0.00015*%
%ADD267R,0.04830X0.00015*%
%ADD268R,0.04830X0.00015*%
%ADD269R,0.05070X0.00015*%
%ADD270R,0.04830X0.00015*%
%ADD271R,0.04815X0.00015*%
%ADD272R,0.04800X0.00015*%
%ADD273R,0.04800X0.00015*%
%ADD274R,0.05010X0.00015*%
%ADD275R,0.04785X0.00015*%
%ADD276R,0.04770X0.00015*%
%ADD277R,0.04770X0.00015*%
%ADD278R,0.04755X0.00015*%
%ADD279R,0.04740X0.00015*%
%ADD280R,0.04725X0.00015*%
%ADD281R,0.04725X0.00015*%
%ADD282R,0.04980X0.00015*%
%ADD283R,0.04710X0.00015*%
%ADD284R,0.04725X0.00015*%
%ADD285R,0.04710X0.00015*%
%ADD286R,0.04695X0.00015*%
%ADD287R,0.04680X0.00015*%
%ADD288R,0.04695X0.00015*%
%ADD289R,0.04680X0.00015*%
%ADD290R,0.04905X0.00015*%
%ADD291R,0.04665X0.00015*%
%ADD292R,0.04650X0.00015*%
%ADD293R,0.04635X0.00015*%
%ADD294R,0.04620X0.00015*%
%ADD295R,0.04620X0.00015*%
%ADD296R,0.04890X0.00015*%
%ADD297R,0.04605X0.00015*%
%ADD298R,0.04605X0.00015*%
%ADD299R,0.04590X0.00015*%
%ADD300R,0.04845X0.00015*%
%ADD301R,0.04575X0.00015*%
%ADD302R,0.04590X0.00015*%
%ADD303R,0.04575X0.00015*%
%ADD304R,0.04845X0.00015*%
%ADD305R,0.04560X0.00015*%
%ADD306R,0.04545X0.00015*%
%ADD307R,0.04530X0.00015*%
%ADD308R,0.04515X0.00015*%
%ADD309R,0.04530X0.00015*%
%ADD310R,0.04500X0.00015*%
%ADD311R,0.04515X0.00015*%
%ADD312R,0.04785X0.00015*%
%ADD313R,0.04485X0.00015*%
%ADD314R,0.04755X0.00015*%
%ADD315R,0.04470X0.00015*%
%ADD316R,0.04740X0.00015*%
%ADD317R,0.04485X0.00015*%
%ADD318R,0.04755X0.00015*%
%ADD319R,0.04545X0.00015*%
%ADD320R,0.04695X0.00015*%
%ADD321R,0.04680X0.00015*%
%ADD322R,0.04665X0.00015*%
%ADD323R,0.04725X0.00015*%
%ADD324R,0.04680X0.00015*%
%ADD325R,0.04860X0.00015*%
%ADD326R,0.04740X0.00015*%
%ADD327R,0.04875X0.00015*%
%ADD328R,0.04965X0.00015*%
%ADD329R,0.04860X0.00015*%
%ADD330R,0.04995X0.00015*%
%ADD331R,0.04875X0.00015*%
%ADD332R,0.04980X0.00015*%
%ADD333R,0.05235X0.00015*%
%ADD334R,0.05235X0.00015*%
%ADD335R,0.05250X0.00015*%
%ADD336R,0.05280X0.00015*%
%ADD337R,0.05295X0.00015*%
%ADD338R,0.05325X0.00015*%
%ADD339R,0.05340X0.00015*%
%ADD340R,0.05235X0.00015*%
%ADD341R,0.05355X0.00015*%
%ADD342R,0.05370X0.00015*%
%ADD343R,0.05265X0.00015*%
%ADD344R,0.05370X0.00015*%
%ADD345R,0.05280X0.00015*%
%ADD346R,0.05385X0.00015*%
%ADD347R,0.05295X0.00015*%
%ADD348R,0.05400X0.00015*%
%ADD349R,0.05415X0.00015*%
%ADD350R,0.05310X0.00015*%
%ADD351R,0.05430X0.00015*%
%ADD352R,0.05445X0.00015*%
%ADD353R,0.05460X0.00015*%
%ADD354R,0.05355X0.00015*%
%ADD355R,0.05475X0.00015*%
%ADD356R,0.05505X0.00015*%
%ADD357R,0.05520X0.00015*%
%ADD358R,0.05535X0.00015*%
%ADD359R,0.05550X0.00015*%
%ADD360R,0.05550X0.00015*%
%ADD361R,0.05475X0.00015*%
%ADD362R,0.05490X0.00015*%
%ADD363R,0.05475X0.00015*%
%ADD364R,0.05385X0.00015*%
%ADD365R,0.05370X0.00015*%
%ADD366R,0.05325X0.00015*%
%ADD367R,0.05310X0.00015*%
%ADD368R,0.05265X0.00015*%
%ADD369R,0.05175X0.00015*%
%ADD370R,0.04980X0.00015*%
%ADD371R,0.04965X0.00015*%
%ADD372R,0.04860X0.00015*%
%ADD373R,0.04845X0.00015*%
%ADD374R,0.04815X0.00015*%
%ADD375R,0.04770X0.00015*%
%ADD376R,0.05295X0.00015*%
%ADD377R,0.04635X0.00015*%
%ADD378R,0.05610X0.00015*%
%ADD379R,0.05700X0.00015*%
%ADD380R,0.05760X0.00015*%
%ADD381R,0.05805X0.00015*%
%ADD382R,0.05850X0.00015*%
%ADD383R,0.05895X0.00015*%
%ADD384R,0.06000X0.00015*%
%ADD385R,0.06135X0.00015*%
%ADD386R,0.06225X0.00015*%
%ADD387R,0.06300X0.00015*%
%ADD388R,0.06330X0.00015*%
%ADD389R,0.06375X0.00015*%
%ADD390R,0.06450X0.00015*%
%ADD391R,0.06570X0.00015*%
%ADD392R,0.05565X0.00015*%
%ADD393R,0.06690X0.00015*%
%ADD394R,0.06735X0.00015*%
%ADD395R,0.05790X0.00015*%
%ADD396R,0.06765X0.00015*%
%ADD397R,0.05850X0.00015*%
%ADD398R,0.06780X0.00015*%
%ADD399R,0.05895X0.00015*%
%ADD400R,0.06795X0.00015*%
%ADD401R,0.05955X0.00015*%
%ADD402R,0.06810X0.00015*%
%ADD403R,0.06060X0.00015*%
%ADD404R,0.06195X0.00015*%
%ADD405R,0.06825X0.00015*%
%ADD406R,0.06330X0.00015*%
%ADD407R,0.06840X0.00015*%
%ADD408R,0.06390X0.00015*%
%ADD409R,0.06495X0.00015*%
%ADD410R,0.06840X0.00015*%
%ADD411R,0.06555X0.00015*%
%ADD412R,0.06825X0.00015*%
%ADD413R,0.06645X0.00015*%
%ADD414R,0.06825X0.00015*%
%ADD415R,0.06705X0.00015*%
%ADD416R,0.06705X0.00015*%
%ADD417R,0.06810X0.00015*%
%ADD418R,0.06720X0.00015*%
%ADD419R,0.06795X0.00015*%
%ADD420R,0.06750X0.00015*%
%ADD421R,0.06765X0.00015*%
%ADD422R,0.06795X0.00015*%
%ADD423R,0.06780X0.00015*%
%ADD424R,0.06780X0.00015*%
%ADD425R,0.06750X0.00015*%
%ADD426R,0.06720X0.00015*%
%ADD427R,0.06720X0.00015*%
%ADD428R,0.06705X0.00015*%
%ADD429R,0.06705X0.00015*%
%ADD430R,0.06690X0.00015*%
%ADD431R,0.06675X0.00015*%
%ADD432R,0.06690X0.00015*%
%ADD433R,0.06675X0.00015*%
%ADD434R,0.06675X0.00015*%
%ADD435R,0.06660X0.00015*%
%ADD436R,0.06675X0.00015*%
%ADD437R,0.06660X0.00015*%
%ADD438R,0.06660X0.00015*%
%ADD439R,0.06645X0.00015*%
%ADD440R,0.06630X0.00015*%
%ADD441R,0.06660X0.00015*%
%ADD442R,0.06630X0.00015*%
%ADD443R,0.06645X0.00015*%
%ADD444R,0.06735X0.00015*%
%ADD445R,0.06765X0.00015*%
%ADD446R,0.06780X0.00015*%
%ADD447R,0.06825X0.00015*%
%ADD448R,0.06855X0.00015*%
%ADD449R,0.06855X0.00015*%
%ADD450R,0.06870X0.00015*%
%ADD451R,0.06885X0.00015*%
%ADD452R,0.06525X0.00015*%
%ADD453R,0.06405X0.00015*%
%ADD454R,0.06255X0.00015*%
%ADD455R,0.06165X0.00015*%
%ADD456R,0.06870X0.00015*%
%ADD457R,0.06120X0.00015*%
%ADD458R,0.06885X0.00015*%
%ADD459R,0.06060X0.00015*%
%ADD460R,0.06015X0.00015*%
%ADD461R,0.05910X0.00015*%
%ADD462R,0.05670X0.00015*%
%ADD463R,0.05595X0.00015*%
%ADD464R,0.06585X0.00015*%
%ADD465R,0.05160X0.00015*%
%ADD466R,0.06390X0.00015*%
%ADD467R,0.05025X0.00015*%
%ADD468R,0.06330X0.00015*%
%ADD469R,0.06075X0.00015*%
%ADD470R,0.05820X0.00015*%
%ADD471R,0.05775X0.00015*%
%ADD472R,0.05685X0.00015*%
%ADD473R,0.05460X0.00015*%
%ADD474R,0.04860X0.00015*%
%ADD475R,0.04935X0.00015*%
%ADD476R,0.05160X0.00015*%
%ADD477R,0.05325X0.00015*%
%ADD478R,0.05340X0.00015*%
%ADD479R,0.05355X0.00015*%
%ADD480R,0.05430X0.00015*%
%ADD481R,0.05535X0.00015*%
%ADD482R,0.05595X0.00015*%
%ADD483R,0.05640X0.00015*%
%ADD484R,0.05640X0.00015*%
%ADD485R,0.05670X0.00015*%
%ADD486R,0.05685X0.00015*%
%ADD487R,0.05700X0.00015*%
%ADD488R,0.05715X0.00015*%
%ADD489R,0.05715X0.00015*%
%ADD490R,0.05730X0.00015*%
%ADD491R,0.05745X0.00015*%
%ADD492R,0.05760X0.00015*%
%ADD493R,0.06000X0.00015*%
%ADD494R,0.06105X0.00015*%
%ADD495R,0.06180X0.00015*%
%ADD496R,0.06210X0.00015*%
%ADD497R,0.12690X0.00015*%
%ADD498R,0.12675X0.00015*%
%ADD499R,0.12660X0.00015*%
%ADD500R,0.12660X0.00015*%
%ADD501R,0.12645X0.00015*%
%ADD502R,0.12615X0.00015*%
%ADD503R,0.12600X0.00015*%
%ADD504R,0.12585X0.00015*%
%ADD505R,0.12555X0.00015*%
%ADD506R,0.12540X0.00015*%
%ADD507R,0.12525X0.00015*%
%ADD508R,0.12510X0.00015*%
%ADD509R,0.12510X0.00015*%
%ADD510R,0.12480X0.00015*%
%ADD511R,0.12450X0.00015*%
%ADD512R,0.12435X0.00015*%
%ADD513R,0.12420X0.00015*%
%ADD514R,0.12390X0.00015*%
%ADD515R,0.12375X0.00015*%
%ADD516R,0.12360X0.00015*%
%ADD517R,0.12330X0.00015*%
%ADD518R,0.12300X0.00015*%
%ADD519R,0.12285X0.00015*%
%ADD520R,0.12270X0.00015*%
%ADD521R,0.12255X0.00015*%
%ADD522R,0.12240X0.00015*%
%ADD523R,0.12225X0.00015*%
%ADD524R,0.12195X0.00015*%
%ADD525R,0.12165X0.00015*%
%ADD526R,0.12150X0.00015*%
%ADD527R,0.12135X0.00015*%
%ADD528R,0.12120X0.00015*%
%ADD529R,0.12090X0.00015*%
%ADD530R,0.12075X0.00015*%
%ADD531R,0.12060X0.00015*%
%ADD532R,0.12045X0.00015*%
%ADD533R,0.12015X0.00015*%
%ADD534R,0.12000X0.00015*%
%ADD535R,0.11985X0.00015*%
%ADD536R,0.11955X0.00015*%
%ADD537R,0.11940X0.00015*%
%ADD538R,0.11925X0.00015*%
%ADD539R,0.11910X0.00015*%
%ADD540R,0.11910X0.00015*%
%ADD541R,0.11880X0.00015*%
%ADD542R,0.11850X0.00015*%
%ADD543R,0.11835X0.00015*%
%ADD544R,0.11805X0.00015*%
%ADD545R,0.11775X0.00015*%
%ADD546R,0.11760X0.00015*%
%ADD547R,0.11745X0.00015*%
%ADD548R,0.11730X0.00015*%
%ADD549R,0.11700X0.00015*%
%ADD550R,0.11700X0.00015*%
%ADD551R,0.11685X0.00015*%
%ADD552R,0.11655X0.00015*%
%ADD553R,0.11640X0.00015*%
%ADD554R,0.11625X0.00015*%
%ADD555R,0.11625X0.00015*%
%ADD556R,0.11670X0.00015*%
%ADD557R,0.11715X0.00015*%
%ADD558R,0.11790X0.00015*%
%ADD559R,0.11820X0.00015*%
%ADD560R,0.11820X0.00015*%
%ADD561R,0.11880X0.00015*%
%ADD562R,0.11895X0.00015*%
%ADD563R,0.11970X0.00015*%
%ADD564R,0.12045X0.00015*%
%ADD565R,0.12075X0.00015*%
%ADD566R,0.12105X0.00015*%
%ADD567R,0.12135X0.00015*%
%ADD568R,0.12165X0.00015*%
%ADD569R,0.12180X0.00015*%
%ADD570R,0.12195X0.00015*%
%ADD571R,0.12210X0.00015*%
%ADD572R,0.12225X0.00015*%
%ADD573R,0.12255X0.00015*%
%ADD574R,0.12360X0.00015*%
%ADD575R,0.12390X0.00015*%
%ADD576R,0.12405X0.00015*%
%ADD577R,0.12435X0.00015*%
%ADD578R,0.12480X0.00015*%
%ADD579R,0.12480X0.00015*%
%ADD580R,0.12510X0.00015*%
%ADD581R,0.12570X0.00015*%
%ADD582R,0.12630X0.00015*%
%ADD583R,0.12675X0.00015*%
%ADD584R,0.12705X0.00015*%
%ADD585R,0.12735X0.00015*%
%ADD586R,0.12750X0.00015*%
%ADD587R,0.12780X0.00015*%
%ADD588R,0.12795X0.00015*%
%ADD589R,0.12810X0.00015*%
%ADD590R,0.12840X0.00015*%
%ADD591R,0.12855X0.00015*%
%ADD592R,0.12885X0.00015*%
%ADD593R,0.12900X0.00015*%
%ADD594R,0.12915X0.00015*%
%ADD595R,0.12945X0.00015*%
%ADD596R,0.12960X0.00015*%
%ADD597R,0.12990X0.00015*%
%ADD598R,0.13005X0.00015*%
%ADD599R,0.13020X0.00015*%
%ADD600R,0.13035X0.00015*%
%ADD601R,0.13065X0.00015*%
%ADD602R,0.13080X0.00015*%
%ADD603R,0.13110X0.00015*%
%ADD604R,0.13125X0.00015*%
%ADD605R,0.13155X0.00015*%
%ADD606R,0.13170X0.00015*%
%ADD607R,0.13200X0.00015*%
%ADD608R,0.13230X0.00015*%
%ADD609R,0.13260X0.00015*%
%ADD610R,0.13290X0.00015*%
%ADD611R,0.13320X0.00015*%
%ADD612R,0.13350X0.00015*%
%ADD613R,0.13365X0.00015*%
%ADD614R,0.13395X0.00015*%
%ADD615R,0.13425X0.00015*%
%ADD616R,0.13455X0.00015*%
%ADD617R,0.13470X0.00015*%
%ADD618R,0.13500X0.00015*%
%ADD619R,0.13530X0.00015*%
%ADD620R,0.13560X0.00015*%
%ADD621R,0.13575X0.00015*%
%ADD622R,0.13605X0.00015*%
%ADD623R,0.13635X0.00015*%
%ADD624R,0.13650X0.00015*%
%ADD625R,0.13680X0.00015*%
%ADD626R,0.13695X0.00015*%
%ADD627R,0.13725X0.00015*%
%ADD628R,0.13740X0.00015*%
%ADD629R,0.13770X0.00015*%
%ADD630R,0.13785X0.00015*%
%ADD631R,0.13800X0.00015*%
%ADD632R,0.13830X0.00015*%
%ADD633R,0.13860X0.00015*%
%ADD634R,0.13875X0.00015*%
%ADD635R,0.13905X0.00015*%
%ADD636R,0.13935X0.00015*%
%ADD637R,0.13950X0.00015*%
%ADD638R,0.13980X0.00015*%
%ADD639R,0.14010X0.00015*%
%ADD640R,0.14025X0.00015*%
%ADD641R,0.14055X0.00015*%
%ADD642R,0.14070X0.00015*%
%ADD643R,0.14085X0.00015*%
%ADD644R,0.14115X0.00015*%
%ADD645R,0.14145X0.00015*%
%ADD646R,0.14160X0.00015*%
%ADD647R,0.14190X0.00015*%
%ADD648R,0.14205X0.00015*%
%ADD649R,0.14220X0.00015*%
%ADD650R,0.14235X0.00015*%
%ADD651R,0.14265X0.00015*%
%ADD652R,0.14280X0.00015*%
%ADD653R,0.14295X0.00015*%
%ADD654R,0.14295X0.00015*%
%ADD655R,0.14250X0.00015*%
%ADD656R,0.14205X0.00015*%
%ADD657R,0.14175X0.00015*%
%ADD658R,0.14160X0.00015*%
%ADD659R,0.14130X0.00015*%
%ADD660R,0.14100X0.00015*%
%ADD661R,0.14040X0.00015*%
%ADD662R,0.14010X0.00015*%
%ADD663R,0.03465X0.00015*%
%ADD664R,0.10440X0.00015*%
%ADD665R,0.03420X0.00015*%
%ADD666R,0.10395X0.00015*%
%ADD667R,0.03375X0.00015*%
%ADD668R,0.10335X0.00015*%
%ADD669R,0.03570X0.00015*%
%ADD670R,0.06600X0.00015*%
%ADD671R,0.03525X0.00015*%
%ADD672R,0.03270X0.00015*%
%ADD673R,0.03495X0.00015*%
%ADD674R,0.03210X0.00015*%
%ADD675R,0.06480X0.00015*%
%ADD676R,0.03435X0.00015*%
%ADD677R,0.03165X0.00015*%
%ADD678R,0.03390X0.00015*%
%ADD679R,0.03120X0.00015*%
%ADD680R,0.06315X0.00015*%
%ADD681R,0.03345X0.00015*%
%ADD682R,0.03090X0.00015*%
%ADD683R,0.03075X0.00015*%
%ADD684R,0.06225X0.00015*%
%ADD685R,0.03270X0.00015*%
%ADD686R,0.06180X0.00015*%
%ADD687R,0.02970X0.00015*%
%ADD688R,0.06075X0.00015*%
%ADD689R,0.03195X0.00015*%
%ADD690R,0.02925X0.00015*%
%ADD691R,0.05985X0.00015*%
%ADD692R,0.03135X0.00015*%
%ADD693R,0.02850X0.00015*%
%ADD694R,0.05835X0.00015*%
%ADD695R,0.03030X0.00015*%
%ADD696R,0.02805X0.00015*%
%ADD697R,0.02730X0.00015*%
%ADD698R,0.05625X0.00015*%
%ADD699R,0.02925X0.00015*%
%ADD700R,0.02640X0.00015*%
%ADD701R,0.02595X0.00015*%
%ADD702R,0.02565X0.00015*%
%ADD703R,0.02760X0.00015*%
%ADD704R,0.02520X0.00015*%
%ADD705R,0.02730X0.00015*%
%ADD706R,0.02475X0.00015*%
%ADD707R,0.02685X0.00015*%
%ADD708R,0.02445X0.00015*%
%ADD709R,0.02400X0.00015*%
%ADD710R,0.02370X0.00015*%
%ADD711R,0.02565X0.00015*%
%ADD712R,0.02340X0.00015*%
%ADD713R,0.02325X0.00015*%
%ADD714R,0.02505X0.00015*%
%ADD715R,0.02280X0.00015*%
%ADD716R,0.02460X0.00015*%
%ADD717R,0.04560X0.00015*%
%ADD718R,0.02190X0.00015*%
%ADD719R,0.04440X0.00015*%
%ADD720R,0.02370X0.00015*%
%ADD721R,0.02145X0.00015*%
%ADD722R,0.04365X0.00015*%
%ADD723R,0.04320X0.00015*%
%ADD724R,0.02310X0.00015*%
%ADD725R,0.02100X0.00015*%
%ADD726R,0.04260X0.00015*%
%ADD727R,0.04200X0.00015*%
%ADD728R,0.02265X0.00015*%
%ADD729R,0.02040X0.00015*%
%ADD730R,0.04095X0.00015*%
%ADD731R,0.02220X0.00015*%
%ADD732R,0.03915X0.00015*%
%ADD733R,0.02175X0.00015*%
%ADD734R,0.03765X0.00015*%
%ADD735R,0.03675X0.00015*%
%ADD736R,0.01890X0.00015*%
%ADD737R,0.03615X0.00015*%
%ADD738R,0.02055X0.00015*%
%ADD739R,0.01860X0.00015*%
%ADD740R,0.03555X0.00015*%
%ADD741R,0.01815X0.00015*%
%ADD742R,0.03450X0.00015*%
%ADD743R,0.01725X0.00015*%
%ADD744R,0.03315X0.00015*%
%ADD745R,0.01905X0.00015*%
%ADD746R,0.01680X0.00015*%
%ADD747R,0.01650X0.00015*%
%ADD748R,0.01620X0.00015*%
%ADD749R,0.01590X0.00015*%
%ADD750R,0.01770X0.00015*%
%ADD751R,0.01560X0.00015*%
%ADD752R,0.03240X0.00015*%
%ADD753R,0.01740X0.00015*%
%ADD754R,0.01665X0.00015*%
%ADD755R,0.01455X0.00015*%
%ADD756R,0.01635X0.00015*%
%ADD757R,0.01410X0.00015*%
%ADD758R,0.01395X0.00015*%
%ADD759R,0.01365X0.00015*%
%ADD760R,0.01335X0.00015*%
%ADD761R,0.01290X0.00015*%
%ADD762R,0.03210X0.00015*%
%ADD763R,0.01455X0.00015*%
%ADD764R,0.01185X0.00015*%
%ADD765R,0.01290X0.00015*%
%ADD766R,0.01110X0.00015*%
%ADD767R,0.01260X0.00015*%
%ADD768R,0.03180X0.00015*%
%ADD769R,0.00975X0.00015*%
%ADD770R,0.03150X0.00015*%
%ADD771R,0.00885X0.00015*%
%ADD772R,0.03150X0.00015*%
%ADD773R,0.01050X0.00015*%
%ADD774R,0.00795X0.00015*%
%ADD775R,0.00885X0.00015*%
%ADD776R,0.00690X0.00015*%
%ADD777R,0.00840X0.00015*%
%ADD778R,0.00570X0.00015*%
%ADD779R,0.00525X0.00015*%
%ADD780R,0.03105X0.00015*%
%ADD781R,0.00660X0.00015*%
%ADD782R,0.00615X0.00015*%
%ADD783R,0.00420X0.00015*%
%ADD784R,0.00555X0.00015*%
%ADD785R,0.00390X0.00015*%
%ADD786R,0.00525X0.00015*%
%ADD787R,0.00360X0.00015*%
%ADD788R,0.00495X0.00015*%
%ADD789R,0.03075X0.00015*%
%ADD790R,0.00450X0.00015*%
%ADD791R,0.00225X0.00015*%
%ADD792R,0.00345X0.00015*%
%ADD793R,0.00255X0.00015*%
%ADD794R,0.03060X0.00015*%
%ADD795R,0.00180X0.00015*%
%ADD796R,0.00075X0.00015*%
%ADD797R,0.03000X0.00015*%
%ADD798R,0.02955X0.00015*%
%ADD799R,0.02940X0.00015*%
%ADD800R,0.02940X0.00015*%
%ADD801R,0.02910X0.00015*%
%ADD802R,0.02910X0.00015*%
%ADD803R,0.02865X0.00015*%
%ADD804R,0.02805X0.00015*%
%ADD805R,0.02775X0.00015*%
%ADD806R,0.02760X0.00015*%
%ADD807R,0.02655X0.00015*%
%ADD808R,0.02640X0.00015*%
%ADD809R,0.02610X0.00015*%
%ADD810R,0.02595X0.00015*%
%ADD811R,0.02535X0.00015*%
%ADD812R,0.02475X0.00015*%
%ADD813R,0.02175X0.00015*%
%ADD814R,0.01575X0.00015*%
%ADD815C,0.00300*%
%ADD816C,0.00800*%
%ADD817C,0.00400*%
D10*
X0020999Y0042431D02*
X0020999Y0043932D01*
X0020999Y0043182D02*
X0025503Y0043182D01*
X0025503Y0043932D02*
X0025503Y0042431D01*
X0024752Y0045500D02*
X0024001Y0045500D01*
X0023251Y0046251D01*
X0023251Y0047752D01*
X0022500Y0048503D01*
X0021749Y0048503D01*
X0020999Y0047752D01*
X0020999Y0046251D01*
X0021749Y0045500D01*
X0024752Y0045500D02*
X0025503Y0046251D01*
X0025503Y0047752D01*
X0024752Y0048503D01*
X0024752Y0050104D02*
X0021749Y0050104D01*
X0020999Y0050855D01*
X0020999Y0052356D01*
X0021749Y0053107D01*
X0024752Y0053107D01*
X0025503Y0052356D01*
X0025503Y0050855D01*
X0024752Y0050104D01*
X0020248Y0054708D02*
X0020248Y0057711D01*
X0021749Y0059312D02*
X0020999Y0060063D01*
X0020999Y0061564D01*
X0021749Y0062315D01*
X0025503Y0062315D01*
X0025503Y0059312D02*
X0021749Y0059312D01*
X0020999Y0073531D02*
X0020999Y0075032D01*
X0020999Y0074282D02*
X0025503Y0074282D01*
X0025503Y0075032D02*
X0025503Y0073531D01*
X0024752Y0076600D02*
X0024001Y0076600D01*
X0023251Y0077351D01*
X0023251Y0078852D01*
X0022500Y0079603D01*
X0021749Y0079603D01*
X0020999Y0078852D01*
X0020999Y0077351D01*
X0021749Y0076600D01*
X0024752Y0076600D02*
X0025503Y0077351D01*
X0025503Y0078852D01*
X0024752Y0079603D01*
X0024752Y0081204D02*
X0021749Y0081204D01*
X0020999Y0081955D01*
X0020999Y0083456D01*
X0021749Y0084207D01*
X0024752Y0084207D01*
X0025503Y0083456D01*
X0025503Y0081955D01*
X0024752Y0081204D01*
X0020248Y0085808D02*
X0020248Y0088811D01*
X0020999Y0090412D02*
X0020999Y0091913D01*
X0020999Y0091163D02*
X0025503Y0091163D01*
X0025503Y0091913D02*
X0025503Y0090412D01*
X0346973Y0033461D02*
X0350973Y0035961D01*
X0350973Y0030961D01*
X0346973Y0033461D01*
X0347283Y0033654D02*
X0350973Y0033654D01*
X0350973Y0033156D02*
X0347461Y0033156D01*
X0348259Y0032657D02*
X0350973Y0032657D01*
X0350973Y0032159D02*
X0349056Y0032159D01*
X0349854Y0031660D02*
X0350973Y0031660D01*
X0350973Y0031162D02*
X0350651Y0031162D01*
X0350973Y0034153D02*
X0348081Y0034153D01*
X0348878Y0034651D02*
X0350973Y0034651D01*
X0350973Y0035150D02*
X0349676Y0035150D01*
X0350474Y0035648D02*
X0350973Y0035648D01*
X0093721Y0262794D02*
X0092970Y0262043D01*
X0091469Y0262043D01*
X0090718Y0262794D01*
X0089117Y0262043D02*
X0086114Y0262043D01*
X0086114Y0266547D01*
X0089117Y0266547D01*
X0090718Y0265796D02*
X0091469Y0266547D01*
X0092970Y0266547D01*
X0093721Y0265796D01*
X0093721Y0265046D01*
X0092970Y0264295D01*
X0092219Y0264295D01*
X0092970Y0264295D02*
X0093721Y0263544D01*
X0093721Y0262794D01*
X0087615Y0264295D02*
X0086114Y0264295D01*
X0084513Y0262043D02*
X0081510Y0262043D01*
X0081510Y0266547D01*
X0079909Y0266547D02*
X0079909Y0263544D01*
X0078407Y0262043D01*
X0076906Y0263544D01*
X0076906Y0266547D01*
X0076906Y0264295D02*
X0079909Y0264295D01*
X0081510Y0264295D02*
X0083011Y0264295D01*
X0086848Y0269543D02*
X0086848Y0274047D01*
X0085347Y0274047D02*
X0088349Y0274047D01*
X0089951Y0274047D02*
X0089951Y0269543D01*
X0092203Y0269543D01*
X0092953Y0270294D01*
X0092953Y0271044D01*
X0092203Y0271795D01*
X0089951Y0271795D01*
X0092203Y0271795D02*
X0092953Y0272546D01*
X0092953Y0273296D01*
X0092203Y0274047D01*
X0089951Y0274047D01*
X0094555Y0274047D02*
X0097557Y0271044D01*
X0097557Y0270294D01*
X0096806Y0269543D01*
X0095305Y0269543D01*
X0094555Y0270294D01*
X0094555Y0274047D02*
X0097557Y0274047D01*
X0099159Y0274047D02*
X0100660Y0272546D01*
X0100660Y0271044D01*
X0099159Y0269543D01*
X0086848Y0269543D02*
X0085347Y0271044D01*
X0083762Y0271044D02*
X0083011Y0271044D01*
X0081510Y0272546D01*
X0081510Y0274047D02*
X0081510Y0271044D01*
X0075305Y0274047D02*
X0072302Y0274047D01*
X0073804Y0274047D02*
X0073804Y0269543D01*
X0072302Y0271044D01*
X0070701Y0271044D02*
X0067698Y0274047D01*
X0070701Y0274047D01*
X0070701Y0271044D02*
X0070701Y0270294D01*
X0069950Y0269543D01*
X0068449Y0269543D01*
X0067698Y0270294D01*
X0066097Y0270294D02*
X0063094Y0273296D01*
X0063845Y0274047D01*
X0065346Y0274047D01*
X0066097Y0273296D01*
X0066097Y0270294D01*
X0065346Y0269543D01*
X0063845Y0269543D01*
X0063094Y0270294D01*
X0063094Y0273296D01*
X0061493Y0274047D02*
X0058491Y0274047D01*
X0061493Y0271044D01*
X0061493Y0270294D01*
X0060742Y0269543D01*
X0059241Y0269543D01*
X0058491Y0270294D01*
X0056889Y0269543D02*
X0053887Y0274047D01*
X0051535Y0274047D02*
X0051535Y0269543D01*
X0049283Y0271795D01*
X0052285Y0271795D01*
X0047681Y0270294D02*
X0047681Y0273296D01*
X0046931Y0274047D01*
X0045429Y0274047D01*
X0044679Y0273296D01*
X0047681Y0270294D01*
X0046931Y0269543D01*
X0045429Y0269543D01*
X0044679Y0270294D01*
X0044679Y0273296D01*
X0043111Y0274047D02*
X0041609Y0272546D01*
X0041609Y0271044D01*
X0043111Y0269543D01*
X0044612Y0266547D02*
X0041609Y0266547D01*
X0041609Y0262043D01*
X0044612Y0262043D01*
X0046213Y0262043D02*
X0046213Y0266547D01*
X0049216Y0266547D01*
X0050817Y0266547D02*
X0053820Y0266547D01*
X0050817Y0266547D02*
X0050817Y0265796D01*
X0053820Y0262794D01*
X0053820Y0262043D01*
X0050817Y0262043D01*
X0049216Y0262043D02*
X0046213Y0262043D01*
X0046213Y0264295D02*
X0047715Y0264295D01*
X0043111Y0264295D02*
X0041609Y0264295D01*
X0060025Y0262043D02*
X0060025Y0266547D01*
X0062277Y0266547D01*
X0063028Y0265796D01*
X0063028Y0262794D01*
X0062277Y0262043D01*
X0060025Y0262043D01*
X0064629Y0262043D02*
X0066130Y0262043D01*
X0065380Y0262043D02*
X0065380Y0266547D01*
X0066130Y0266547D02*
X0064629Y0266547D01*
X0067698Y0266547D02*
X0069950Y0266547D01*
X0070701Y0265796D01*
X0070701Y0265046D01*
X0069950Y0264295D01*
X0067698Y0264295D01*
X0067698Y0266547D02*
X0067698Y0262043D01*
X0069950Y0262043D01*
X0070701Y0262794D01*
X0070701Y0263544D01*
X0069950Y0264295D01*
X0096080Y0279393D02*
X0096080Y0283897D01*
X0093828Y0283897D01*
X0093078Y0283146D01*
X0093078Y0281645D01*
X0093828Y0280894D01*
X0096080Y0280894D01*
X0097682Y0281645D02*
X0098432Y0280894D01*
X0099934Y0280894D01*
X0100684Y0281645D01*
X0100684Y0282396D01*
X0097682Y0282396D01*
X0097682Y0283146D02*
X0097682Y0281645D01*
X0097682Y0283146D02*
X0098432Y0283897D01*
X0099934Y0283897D01*
X0102286Y0283897D02*
X0102286Y0283146D01*
X0103036Y0283146D01*
X0103036Y0283897D01*
X0102286Y0283897D01*
X0102286Y0281645D02*
X0102286Y0280894D01*
X0103036Y0280894D01*
X0103036Y0281645D01*
X0102286Y0281645D01*
X0109191Y0281645D02*
X0109191Y0283146D01*
X0109942Y0283897D01*
X0112194Y0283897D01*
X0112194Y0284647D02*
X0112194Y0280894D01*
X0109942Y0280894D01*
X0109191Y0281645D01*
X0110693Y0285398D02*
X0111443Y0285398D01*
X0112194Y0284647D01*
X0113795Y0283897D02*
X0115297Y0283897D01*
X0114546Y0283897D02*
X0114546Y0280894D01*
X0113795Y0280894D01*
X0114546Y0279393D02*
X0114546Y0278642D01*
X0116865Y0280894D02*
X0118366Y0280894D01*
X0117615Y0280144D02*
X0117615Y0283146D01*
X0118366Y0283897D01*
X0119934Y0283897D02*
X0119934Y0279393D01*
X0120685Y0280894D02*
X0122186Y0280894D01*
X0122937Y0281645D01*
X0122937Y0283897D01*
X0124538Y0283146D02*
X0125289Y0283897D01*
X0127540Y0283897D01*
X0127540Y0280894D01*
X0129142Y0280894D02*
X0131394Y0280894D01*
X0132144Y0281645D01*
X0132144Y0283146D01*
X0131394Y0283897D01*
X0129142Y0283897D01*
X0129142Y0279393D01*
X0124538Y0280894D02*
X0124538Y0283146D01*
X0120685Y0280894D02*
X0119934Y0281645D01*
X0133746Y0283146D02*
X0134496Y0283146D01*
X0134496Y0283897D01*
X0133746Y0283897D01*
X0133746Y0283146D01*
X0136048Y0283146D02*
X0136798Y0283897D01*
X0139050Y0283897D01*
X0140652Y0283146D02*
X0141402Y0283897D01*
X0142904Y0283897D01*
X0143654Y0283146D01*
X0143654Y0281645D01*
X0142904Y0280894D01*
X0141402Y0280894D01*
X0140652Y0281645D01*
X0140652Y0283146D01*
X0139050Y0280894D02*
X0136798Y0280894D01*
X0136048Y0281645D01*
X0136048Y0283146D01*
X0145256Y0283897D02*
X0145256Y0280894D01*
X0146006Y0280894D01*
X0146757Y0281645D01*
X0147507Y0280894D01*
X0148258Y0281645D01*
X0148258Y0283897D01*
X0146757Y0283897D02*
X0146757Y0281645D01*
X0149859Y0283897D02*
X0152862Y0279393D01*
X0154463Y0281645D02*
X0155214Y0280894D01*
X0156715Y0280894D01*
X0157466Y0281645D01*
X0157466Y0282396D01*
X0154463Y0282396D01*
X0154463Y0283146D02*
X0154463Y0281645D01*
X0154463Y0283146D02*
X0155214Y0283897D01*
X0156715Y0283897D01*
X0159067Y0283146D02*
X0159067Y0281645D01*
X0159818Y0280894D01*
X0161319Y0280894D01*
X0162070Y0281645D01*
X0162070Y0282396D01*
X0159067Y0282396D01*
X0159067Y0283146D02*
X0159818Y0283897D01*
X0161319Y0283897D01*
X0163671Y0283897D02*
X0166674Y0283897D01*
X0168275Y0281645D02*
X0171278Y0281645D01*
X0172879Y0281645D02*
X0172879Y0283146D01*
X0173630Y0283897D01*
X0175131Y0283897D01*
X0175882Y0283146D01*
X0175882Y0281645D01*
X0175131Y0280894D01*
X0173630Y0280894D01*
X0172879Y0281645D01*
X0177483Y0280894D02*
X0177483Y0285398D01*
X0177483Y0283897D02*
X0179735Y0283897D01*
X0180486Y0283146D01*
X0180486Y0281645D01*
X0179735Y0280894D01*
X0177483Y0280894D01*
X0182087Y0281645D02*
X0182838Y0280894D01*
X0184339Y0280894D01*
X0185089Y0281645D01*
X0185089Y0282396D01*
X0182087Y0282396D01*
X0182087Y0283146D02*
X0182087Y0281645D01*
X0182087Y0283146D02*
X0182838Y0283897D01*
X0184339Y0283897D01*
X0186691Y0283897D02*
X0186691Y0280894D01*
X0188943Y0280894D01*
X0189693Y0281645D01*
X0189693Y0283897D01*
X0166674Y0280894D02*
X0163671Y0283897D01*
X0163671Y0280894D02*
X0166674Y0280894D01*
X0091476Y0281645D02*
X0090726Y0280894D01*
X0089224Y0280894D01*
X0088474Y0281645D01*
X0088474Y0283146D01*
X0089224Y0283897D01*
X0090726Y0283897D01*
X0091476Y0283146D01*
X0091476Y0281645D01*
X0086872Y0280894D02*
X0084621Y0280894D01*
X0083870Y0281645D01*
X0083870Y0283146D01*
X0084621Y0283897D01*
X0086872Y0283897D01*
X0077665Y0282396D02*
X0074662Y0282396D01*
X0074662Y0283146D02*
X0074662Y0281645D01*
X0075413Y0280894D01*
X0076914Y0280894D01*
X0077665Y0281645D01*
X0077665Y0282396D01*
X0076914Y0283897D02*
X0075413Y0283897D01*
X0074662Y0283146D01*
X0073061Y0283897D02*
X0070809Y0283897D01*
X0070058Y0283146D01*
X0070058Y0281645D01*
X0070809Y0280894D01*
X0073061Y0280894D01*
X0068473Y0280894D02*
X0067723Y0280894D01*
X0066222Y0282396D01*
X0066222Y0283897D02*
X0066222Y0280894D01*
X0064620Y0280894D02*
X0064620Y0283897D01*
X0062368Y0283897D01*
X0061618Y0283146D01*
X0061618Y0280894D01*
X0060016Y0281645D02*
X0060016Y0283146D01*
X0059266Y0283897D01*
X0057764Y0283897D01*
X0057014Y0283146D01*
X0057014Y0281645D01*
X0057764Y0280894D01*
X0059266Y0280894D01*
X0060016Y0281645D01*
X0055412Y0280894D02*
X0053160Y0280894D01*
X0052410Y0281645D01*
X0053160Y0282396D01*
X0054662Y0282396D01*
X0055412Y0283146D01*
X0054662Y0283897D01*
X0052410Y0283897D01*
X0046238Y0283897D02*
X0045487Y0283146D01*
X0045487Y0280144D01*
X0044737Y0280894D02*
X0046238Y0280894D01*
X0043135Y0280894D02*
X0040883Y0280894D01*
X0040133Y0281645D01*
X0040133Y0283146D01*
X0040883Y0283897D01*
X0043135Y0283897D01*
X0038531Y0282396D02*
X0035529Y0282396D01*
X0035529Y0283146D02*
X0035529Y0281645D01*
X0036279Y0280894D01*
X0037781Y0280894D01*
X0038531Y0281645D01*
X0038531Y0282396D01*
X0037781Y0283897D02*
X0036279Y0283897D01*
X0035529Y0283146D01*
X0033961Y0284647D02*
X0033961Y0280894D01*
X0033961Y0279393D02*
X0033961Y0278642D01*
X0030858Y0281645D02*
X0030107Y0280894D01*
X0028606Y0280894D01*
X0027855Y0281645D01*
X0027855Y0283146D01*
X0028606Y0283897D01*
X0030107Y0283897D01*
X0030858Y0283146D01*
X0030858Y0281645D01*
X0032459Y0285398D02*
X0033210Y0285398D01*
X0033961Y0284647D01*
X0026271Y0280894D02*
X0025520Y0280894D01*
X0024019Y0282396D01*
X0024019Y0283897D02*
X0024019Y0280894D01*
X0022418Y0280144D02*
X0022418Y0281645D01*
X0021667Y0282396D01*
X0019415Y0282396D01*
X0019415Y0283897D02*
X0019415Y0279393D01*
X0021667Y0279393D01*
X0022418Y0280144D01*
X0346973Y0277713D02*
X0350973Y0280213D01*
X0350973Y0275213D01*
X0346973Y0277713D01*
X0347313Y0277925D02*
X0350973Y0277925D01*
X0350973Y0278423D02*
X0348110Y0278423D01*
X0348908Y0278922D02*
X0350973Y0278922D01*
X0350973Y0279420D02*
X0349706Y0279420D01*
X0350503Y0279919D02*
X0350973Y0279919D01*
X0350973Y0277426D02*
X0347431Y0277426D01*
X0348229Y0276928D02*
X0350973Y0276928D01*
X0350973Y0276429D02*
X0349026Y0276429D01*
X0349824Y0275931D02*
X0350973Y0275931D01*
X0350973Y0275432D02*
X0350622Y0275432D01*
D11*
X0060199Y0245906D03*
D12*
X0026269Y0270340D03*
D13*
X0023378Y0276050D03*
X0031583Y0275180D03*
X0034763Y0275885D03*
D14*
X0023378Y0276035D03*
D15*
X0023378Y0276020D03*
D16*
X0023378Y0276005D03*
D17*
X0023378Y0275990D03*
X0023469Y0261605D03*
D18*
X0023378Y0275975D03*
X0031628Y0275090D03*
D19*
X0031643Y0275075D03*
X0023378Y0275960D03*
D20*
X0023378Y0275945D03*
D21*
X0023378Y0275930D03*
D22*
X0023378Y0275915D03*
X0034763Y0275750D03*
D23*
X0023386Y0275900D03*
D24*
X0023393Y0275885D03*
X0026408Y0275075D03*
X0031719Y0274985D03*
D25*
X0031733Y0274970D03*
X0034748Y0275690D03*
X0023393Y0275870D03*
D26*
X0031576Y0275150D03*
X0034771Y0275870D03*
D27*
X0034748Y0275675D03*
X0026378Y0275030D03*
X0023393Y0275855D03*
D28*
X0034763Y0275855D03*
D29*
X0031763Y0274925D03*
X0026363Y0275015D03*
X0023393Y0275840D03*
D30*
X0034771Y0275840D03*
D31*
X0023394Y0275825D03*
D32*
X0031606Y0275105D03*
X0034771Y0275825D03*
D33*
X0026348Y0275000D03*
X0023394Y0275810D03*
D34*
X0026506Y0275180D03*
X0034771Y0275810D03*
X0034396Y0261560D03*
D35*
X0023401Y0275795D03*
D36*
X0034771Y0275795D03*
D37*
X0034733Y0275600D03*
X0023408Y0275780D03*
D38*
X0026468Y0275120D03*
X0031658Y0275060D03*
X0034763Y0275780D03*
D39*
X0031823Y0274850D03*
X0026288Y0274925D03*
X0023408Y0275765D03*
X0023498Y0261860D03*
D40*
X0023483Y0261680D03*
X0034763Y0275765D03*
D41*
X0034733Y0275570D03*
X0026273Y0274910D03*
X0023408Y0275750D03*
X0028793Y0259685D03*
X0034373Y0261800D03*
D42*
X0023416Y0275735D03*
D43*
X0034763Y0275735D03*
D44*
X0034726Y0275555D03*
X0031846Y0274805D03*
X0023416Y0275720D03*
X0034366Y0261815D03*
D45*
X0034763Y0275720D03*
D46*
X0023423Y0275705D03*
D47*
X0034756Y0275705D03*
X0023491Y0261725D03*
D48*
X0034366Y0261860D03*
X0031876Y0274775D03*
X0023416Y0275690D03*
D49*
X0023423Y0275675D03*
D50*
X0023431Y0275660D03*
X0026206Y0274820D03*
X0031906Y0274715D03*
X0034351Y0261890D03*
D51*
X0034381Y0261710D03*
X0034741Y0275660D03*
D52*
X0023431Y0275645D03*
D53*
X0034741Y0275645D03*
D54*
X0023431Y0275630D03*
X0023521Y0261980D03*
X0034351Y0261905D03*
D55*
X0034381Y0261740D03*
X0034741Y0275630D03*
D56*
X0023431Y0275615D03*
D57*
X0026326Y0274985D03*
X0034741Y0275615D03*
X0034381Y0261755D03*
D58*
X0031958Y0274655D03*
X0023438Y0275600D03*
D59*
X0023438Y0275585D03*
X0026138Y0274730D03*
X0034703Y0275390D03*
D60*
X0034726Y0275585D03*
X0026296Y0274940D03*
D61*
X0023438Y0275570D03*
D62*
X0023446Y0275555D03*
D63*
X0023446Y0275540D03*
X0031996Y0274565D03*
D64*
X0034718Y0275540D03*
D65*
X0023446Y0275525D03*
X0023536Y0262085D03*
X0034336Y0262010D03*
D66*
X0034366Y0261830D03*
X0023506Y0261890D03*
X0034726Y0275525D03*
D67*
X0023446Y0275510D03*
D68*
X0034718Y0275510D03*
D69*
X0023453Y0275495D03*
D70*
X0034718Y0275495D03*
D71*
X0023453Y0275480D03*
D72*
X0034718Y0275480D03*
D73*
X0023461Y0275465D03*
D74*
X0026206Y0274805D03*
X0031921Y0274700D03*
X0034711Y0275465D03*
D75*
X0023461Y0275450D03*
D76*
X0034711Y0275450D03*
D77*
X0034673Y0275240D03*
X0023468Y0275435D03*
D78*
X0034703Y0275435D03*
D79*
X0023468Y0275420D03*
D80*
X0026168Y0274775D03*
X0034703Y0275420D03*
D81*
X0023461Y0275405D03*
X0034321Y0262130D03*
D82*
X0034351Y0261950D03*
X0034696Y0275405D03*
X0026161Y0274760D03*
D83*
X0023476Y0275390D03*
D84*
X0023483Y0275375D03*
X0023558Y0262250D03*
D85*
X0034696Y0275375D03*
D86*
X0034658Y0275150D03*
X0023483Y0275360D03*
X0023558Y0262265D03*
X0028973Y0259715D03*
D87*
X0031988Y0274580D03*
X0034688Y0275360D03*
D88*
X0023483Y0275345D03*
D89*
X0034688Y0275345D03*
D90*
X0023483Y0275330D03*
X0023558Y0262280D03*
D91*
X0034688Y0275330D03*
D92*
X0034651Y0275105D03*
X0023491Y0275315D03*
X0034306Y0262220D03*
D93*
X0034336Y0262025D03*
X0034681Y0275315D03*
D94*
X0023491Y0275300D03*
X0023566Y0262310D03*
D95*
X0034688Y0275300D03*
D96*
X0023498Y0275285D03*
D97*
X0034681Y0275285D03*
D98*
X0034636Y0275060D03*
X0023506Y0275270D03*
D99*
X0034673Y0275270D03*
D100*
X0023506Y0275255D03*
D101*
X0026558Y0275255D03*
D102*
X0034673Y0275255D03*
D103*
X0023506Y0275240D03*
D104*
X0026558Y0275240D03*
D105*
X0023513Y0275225D03*
X0023573Y0262385D03*
X0028988Y0259760D03*
D106*
X0026558Y0275225D03*
D107*
X0034673Y0275225D03*
D108*
X0034621Y0275000D03*
X0023521Y0275210D03*
D109*
X0026536Y0275210D03*
D110*
X0034673Y0275210D03*
X0023543Y0262190D03*
D111*
X0023521Y0275195D03*
D112*
X0026521Y0275195D03*
D113*
X0034666Y0275195D03*
X0034321Y0262145D03*
D114*
X0034613Y0274955D03*
X0023528Y0275180D03*
D115*
X0034666Y0275180D03*
D116*
X0034613Y0274940D03*
X0023528Y0275165D03*
X0034269Y0262385D03*
D117*
X0023476Y0261620D03*
X0026491Y0275165D03*
D118*
X0031576Y0275165D03*
X0023476Y0261575D03*
D119*
X0034666Y0275165D03*
D120*
X0034606Y0274925D03*
X0023536Y0275150D03*
X0028981Y0259835D03*
D121*
X0026483Y0275150D03*
D122*
X0023536Y0275135D03*
X0034606Y0274910D03*
D123*
X0026483Y0275135D03*
D124*
X0031583Y0275135D03*
D125*
X0034658Y0275135D03*
X0034313Y0262190D03*
D126*
X0023543Y0275120D03*
D127*
X0031591Y0275120D03*
D128*
X0034651Y0275120D03*
X0034306Y0262205D03*
D129*
X0034253Y0262430D03*
X0028973Y0260090D03*
X0028973Y0260075D03*
X0028973Y0260060D03*
X0028973Y0260030D03*
X0023544Y0275105D03*
D130*
X0026461Y0275105D03*
X0031666Y0275030D03*
X0034396Y0261620D03*
D131*
X0034246Y0262460D03*
X0028981Y0260165D03*
X0034591Y0274865D03*
X0023551Y0275090D03*
D132*
X0026431Y0275090D03*
X0031696Y0275000D03*
D133*
X0034643Y0275090D03*
X0034298Y0262250D03*
D134*
X0023558Y0275075D03*
D135*
X0034636Y0275075D03*
X0034291Y0262265D03*
X0023566Y0262340D03*
D136*
X0023626Y0262580D03*
X0028966Y0260375D03*
X0028966Y0260360D03*
X0034576Y0274820D03*
X0023566Y0275060D03*
D137*
X0026401Y0275060D03*
X0023491Y0261740D03*
D138*
X0028966Y0260495D03*
X0023566Y0275045D03*
D139*
X0026386Y0275045D03*
D140*
X0031666Y0275045D03*
D141*
X0034636Y0275045D03*
D142*
X0023573Y0275030D03*
X0028973Y0260600D03*
X0028973Y0260585D03*
X0028973Y0260570D03*
X0028973Y0260555D03*
X0028973Y0260540D03*
D143*
X0034628Y0275030D03*
D144*
X0023573Y0275015D03*
X0028973Y0260675D03*
D145*
X0031681Y0275015D03*
D146*
X0034628Y0275015D03*
D147*
X0023573Y0275000D03*
X0023633Y0262610D03*
X0034223Y0262535D03*
D148*
X0028966Y0260840D03*
X0028966Y0260825D03*
X0023641Y0262640D03*
X0023581Y0274985D03*
D149*
X0034621Y0274985D03*
D150*
X0034561Y0274730D03*
X0023581Y0274970D03*
X0023641Y0262670D03*
X0028966Y0261050D03*
X0028966Y0261035D03*
X0028966Y0261020D03*
X0028966Y0261005D03*
X0028966Y0260990D03*
X0028966Y0260975D03*
X0028966Y0260960D03*
X0034216Y0262580D03*
D151*
X0026303Y0274970D03*
D152*
X0034613Y0274970D03*
D153*
X0034553Y0274715D03*
X0023588Y0274955D03*
D154*
X0026296Y0274955D03*
D155*
X0031741Y0274955D03*
X0023491Y0261755D03*
D156*
X0023588Y0274940D03*
D157*
X0031756Y0274940D03*
D158*
X0023596Y0274925D03*
D159*
X0023596Y0274910D03*
X0034201Y0262625D03*
X0028951Y0261410D03*
X0028951Y0261380D03*
X0028951Y0261365D03*
D160*
X0034381Y0261725D03*
X0023491Y0261785D03*
X0031771Y0274910D03*
D161*
X0023603Y0274895D03*
D162*
X0026258Y0274895D03*
D163*
X0031786Y0274895D03*
D164*
X0034598Y0274895D03*
D165*
X0023611Y0274880D03*
X0028966Y0261650D03*
X0028966Y0261635D03*
X0028966Y0261620D03*
D166*
X0023506Y0261905D03*
X0026236Y0274880D03*
X0031861Y0274790D03*
D167*
X0031808Y0274880D03*
X0023498Y0261815D03*
D168*
X0028981Y0260105D03*
X0034591Y0274880D03*
D169*
X0034523Y0274610D03*
X0023618Y0274865D03*
X0028958Y0261815D03*
X0028958Y0261800D03*
X0028958Y0261785D03*
X0028958Y0261770D03*
X0028958Y0261755D03*
D170*
X0026228Y0274865D03*
D171*
X0031816Y0274865D03*
X0023491Y0261830D03*
D172*
X0028944Y0261875D03*
X0028944Y0261890D03*
X0023618Y0274850D03*
D173*
X0026228Y0274850D03*
X0023513Y0261935D03*
X0034358Y0261875D03*
D174*
X0034238Y0262475D03*
X0028973Y0260270D03*
X0028973Y0260255D03*
X0028973Y0260240D03*
X0023618Y0262550D03*
X0034583Y0274850D03*
D175*
X0023618Y0274835D03*
D176*
X0026221Y0274835D03*
D177*
X0031831Y0274835D03*
D178*
X0034583Y0274835D03*
X0028973Y0260330D03*
X0028973Y0260315D03*
X0028973Y0260300D03*
D179*
X0023626Y0274820D03*
D180*
X0031831Y0274820D03*
D181*
X0023626Y0274805D03*
D182*
X0034576Y0274805D03*
X0028966Y0260525D03*
X0028966Y0260510D03*
X0028966Y0260480D03*
X0028966Y0260465D03*
D183*
X0028958Y0262160D03*
X0023633Y0274790D03*
D184*
X0026183Y0274790D03*
X0031928Y0274685D03*
D185*
X0034568Y0274790D03*
D186*
X0023641Y0274775D03*
X0023686Y0262865D03*
D187*
X0028966Y0260780D03*
X0028966Y0260765D03*
X0034561Y0274775D03*
D188*
X0023641Y0274760D03*
X0028966Y0262190D03*
D189*
X0031891Y0274760D03*
D190*
X0034553Y0274760D03*
X0034223Y0262565D03*
X0028958Y0260870D03*
X0028958Y0260855D03*
D191*
X0023641Y0274745D03*
D192*
X0026153Y0274745D03*
D193*
X0031891Y0274745D03*
D194*
X0034553Y0274745D03*
X0028958Y0260945D03*
D195*
X0023641Y0274730D03*
D196*
X0031898Y0274730D03*
X0023513Y0261950D03*
D197*
X0024548Y0270320D03*
X0024788Y0270590D03*
X0024758Y0273665D03*
X0024368Y0274715D03*
X0033083Y0272975D03*
X0033098Y0273005D03*
X0033698Y0274535D03*
D198*
X0033181Y0273155D03*
X0033166Y0273125D03*
X0033166Y0273110D03*
X0033151Y0273080D03*
X0033106Y0270650D03*
X0033091Y0266885D03*
X0033076Y0266870D03*
X0033061Y0266855D03*
X0024541Y0267215D03*
X0024796Y0270605D03*
X0024811Y0270620D03*
X0024706Y0273740D03*
X0024691Y0273770D03*
X0024676Y0273800D03*
X0024361Y0274700D03*
D199*
X0034546Y0274700D03*
D200*
X0033706Y0274505D03*
X0033196Y0273185D03*
X0032671Y0271790D03*
X0025336Y0271955D03*
X0025336Y0271970D03*
X0024841Y0270665D03*
X0024826Y0270650D03*
X0024661Y0273830D03*
X0024361Y0274685D03*
X0024886Y0266840D03*
X0033046Y0266825D03*
D201*
X0028958Y0261350D03*
X0034538Y0274685D03*
D202*
X0033713Y0274490D03*
X0033218Y0273215D03*
X0033203Y0273200D03*
X0032663Y0271775D03*
X0024638Y0273860D03*
X0024638Y0273875D03*
X0024353Y0274670D03*
X0024503Y0270305D03*
X0024894Y0266825D03*
X0024908Y0266810D03*
X0033023Y0266810D03*
D203*
X0031943Y0274670D03*
D204*
X0034523Y0274670D03*
X0023663Y0262715D03*
D205*
X0024511Y0267230D03*
X0024856Y0270680D03*
X0024631Y0273890D03*
X0024616Y0273920D03*
X0024346Y0274655D03*
X0033226Y0273230D03*
X0033241Y0273260D03*
X0033241Y0273275D03*
X0033256Y0273290D03*
D206*
X0034523Y0274655D03*
X0034193Y0262655D03*
X0028958Y0261500D03*
X0028958Y0261485D03*
X0028958Y0261470D03*
X0023663Y0262730D03*
D207*
X0024931Y0266765D03*
X0033031Y0270740D03*
X0033331Y0273425D03*
X0024346Y0274625D03*
X0024346Y0274640D03*
D208*
X0031958Y0274640D03*
D209*
X0034523Y0274640D03*
D210*
X0031966Y0274625D03*
X0034351Y0261965D03*
D211*
X0028958Y0261740D03*
X0028958Y0261725D03*
X0028958Y0261710D03*
X0028958Y0261680D03*
X0028958Y0261665D03*
X0034523Y0274625D03*
D212*
X0033361Y0273485D03*
X0033346Y0273470D03*
X0024526Y0274070D03*
X0024526Y0274085D03*
X0024511Y0274100D03*
X0024346Y0274610D03*
X0024946Y0266750D03*
X0024961Y0266735D03*
D213*
X0031966Y0274610D03*
D214*
X0024346Y0274595D03*
D215*
X0031981Y0274595D03*
D216*
X0034516Y0274595D03*
D217*
X0024496Y0274130D03*
X0024346Y0274565D03*
X0024346Y0274580D03*
D218*
X0034508Y0274580D03*
X0034178Y0262715D03*
X0028943Y0262055D03*
X0028943Y0262040D03*
X0028943Y0262025D03*
X0028943Y0262010D03*
D219*
X0028943Y0262115D03*
X0023678Y0262820D03*
X0034493Y0274565D03*
D220*
X0024353Y0274550D03*
X0024953Y0270800D03*
D221*
X0032003Y0274550D03*
D222*
X0034486Y0274550D03*
X0034171Y0262760D03*
X0023686Y0262850D03*
D223*
X0032911Y0266675D03*
X0032971Y0270830D03*
X0032671Y0271610D03*
X0032671Y0271625D03*
X0032671Y0271640D03*
X0032671Y0271655D03*
X0033466Y0273665D03*
X0033466Y0273680D03*
X0033481Y0273710D03*
X0025321Y0271760D03*
X0024961Y0270815D03*
X0024466Y0274190D03*
X0024466Y0274205D03*
X0024451Y0274220D03*
X0024451Y0274235D03*
X0024346Y0274520D03*
X0024346Y0274535D03*
D224*
X0024668Y0273815D03*
X0024683Y0273785D03*
X0024698Y0273755D03*
X0024818Y0270635D03*
X0032663Y0271805D03*
X0033083Y0270680D03*
X0033098Y0270665D03*
X0033173Y0273140D03*
X0033188Y0273170D03*
X0033698Y0274520D03*
X0033158Y0266930D03*
X0033053Y0266840D03*
X0028958Y0262460D03*
D225*
X0024353Y0274475D03*
X0024353Y0274490D03*
X0024353Y0274505D03*
D226*
X0025328Y0271910D03*
X0025328Y0271880D03*
X0033263Y0273305D03*
X0033278Y0273320D03*
X0033293Y0273335D03*
X0033293Y0273350D03*
X0033713Y0274475D03*
D227*
X0033511Y0273770D03*
X0033496Y0273755D03*
X0032896Y0266660D03*
X0024361Y0274400D03*
X0024361Y0274415D03*
X0024361Y0274430D03*
X0024361Y0274460D03*
D228*
X0024586Y0273980D03*
X0024601Y0273965D03*
X0025321Y0271865D03*
X0025321Y0271850D03*
X0024886Y0270710D03*
X0033301Y0273365D03*
X0033721Y0274460D03*
D229*
X0024361Y0274445D03*
D230*
X0032671Y0271745D03*
X0033721Y0274445D03*
D231*
X0033728Y0274430D03*
X0025328Y0271835D03*
X0024908Y0270755D03*
X0024908Y0270740D03*
X0024893Y0270725D03*
X0024563Y0274010D03*
X0032978Y0266750D03*
X0032993Y0266765D03*
X0028958Y0262475D03*
D232*
X0032971Y0266735D03*
X0033016Y0270770D03*
X0033001Y0270785D03*
X0032671Y0271715D03*
X0032671Y0271730D03*
X0033721Y0274415D03*
X0025321Y0271820D03*
X0025321Y0271805D03*
X0024556Y0274025D03*
X0024541Y0274040D03*
D233*
X0024923Y0270770D03*
X0032948Y0266705D03*
X0032963Y0266720D03*
X0033263Y0266975D03*
X0033383Y0273530D03*
X0033398Y0273560D03*
X0033413Y0273575D03*
X0033728Y0274400D03*
D234*
X0032671Y0271580D03*
X0032671Y0271565D03*
X0025321Y0271730D03*
X0024991Y0270860D03*
X0025021Y0266675D03*
X0024421Y0274280D03*
X0024391Y0274325D03*
X0024376Y0274355D03*
X0024376Y0274370D03*
X0024376Y0274385D03*
D235*
X0024473Y0274175D03*
X0032978Y0270815D03*
X0033669Y0270080D03*
X0032933Y0266690D03*
X0024998Y0266690D03*
X0024428Y0267260D03*
X0033443Y0273620D03*
X0033443Y0273635D03*
X0033458Y0273650D03*
X0033743Y0274385D03*
D236*
X0033743Y0274370D03*
X0033743Y0274355D03*
X0033488Y0273740D03*
X0033488Y0273725D03*
X0032948Y0270860D03*
X0024969Y0270830D03*
X0024443Y0274250D03*
X0024428Y0274265D03*
D237*
X0024398Y0274310D03*
X0024383Y0274340D03*
X0032678Y0271550D03*
X0032933Y0270875D03*
X0033533Y0273800D03*
X0033548Y0273830D03*
X0033563Y0273860D03*
X0033578Y0273875D03*
X0033743Y0274340D03*
X0024998Y0270875D03*
X0025043Y0266660D03*
X0032858Y0266615D03*
X0032873Y0266630D03*
X0028958Y0262490D03*
D238*
X0025066Y0266630D03*
X0025321Y0271700D03*
X0025321Y0271715D03*
X0032671Y0271535D03*
X0033541Y0273815D03*
X0033586Y0273890D03*
X0033736Y0274310D03*
X0033736Y0274325D03*
D239*
X0025321Y0271745D03*
X0024976Y0270845D03*
X0032881Y0266645D03*
X0024406Y0274295D03*
D240*
X0033736Y0274295D03*
D241*
X0033736Y0274280D03*
X0033736Y0274265D03*
X0025321Y0271670D03*
X0025321Y0271655D03*
X0025021Y0270890D03*
D242*
X0025313Y0271625D03*
X0025313Y0271640D03*
X0032678Y0271505D03*
X0033728Y0270065D03*
X0033728Y0274205D03*
X0033728Y0274220D03*
X0033728Y0274235D03*
X0033728Y0274250D03*
D243*
X0033721Y0274190D03*
X0033721Y0274175D03*
X0033721Y0274160D03*
X0032671Y0271490D03*
X0025321Y0271610D03*
X0025036Y0270905D03*
X0032821Y0266585D03*
D244*
X0032986Y0270800D03*
X0032671Y0271670D03*
X0032671Y0271685D03*
X0032671Y0271700D03*
X0033376Y0273515D03*
X0033421Y0273590D03*
X0033436Y0273605D03*
X0025321Y0271790D03*
X0025321Y0271775D03*
X0024436Y0270290D03*
X0024976Y0266705D03*
X0024481Y0274160D03*
D245*
X0024488Y0274145D03*
D246*
X0033713Y0274145D03*
D247*
X0033706Y0274130D03*
X0033706Y0274115D03*
X0033691Y0274100D03*
X0033691Y0274085D03*
X0033676Y0274070D03*
X0033661Y0274055D03*
X0033646Y0274025D03*
X0032881Y0270920D03*
X0032896Y0270905D03*
X0025111Y0266585D03*
D248*
X0024968Y0266720D03*
X0024938Y0270785D03*
X0024503Y0274115D03*
X0033368Y0273500D03*
D249*
X0033338Y0273455D03*
X0033338Y0273440D03*
X0033323Y0273410D03*
X0033023Y0270755D03*
X0024533Y0274055D03*
D250*
X0033623Y0273980D03*
X0033638Y0274010D03*
X0033653Y0274040D03*
D251*
X0024578Y0273995D03*
D252*
X0033631Y0273995D03*
D253*
X0033616Y0273965D03*
X0033616Y0273950D03*
X0033346Y0266990D03*
X0025096Y0266600D03*
X0024361Y0270275D03*
D254*
X0024923Y0266780D03*
X0033008Y0266780D03*
X0033218Y0266960D03*
X0033053Y0270710D03*
X0033038Y0270725D03*
X0033308Y0273380D03*
X0024623Y0273905D03*
X0024608Y0273935D03*
X0024608Y0273950D03*
D255*
X0025313Y0271685D03*
X0032678Y0271520D03*
X0033593Y0273905D03*
X0033608Y0273920D03*
X0033608Y0273935D03*
X0032843Y0266600D03*
D256*
X0033181Y0266945D03*
X0033586Y0270095D03*
X0024661Y0273845D03*
D257*
X0033563Y0273845D03*
D258*
X0033518Y0273785D03*
D259*
X0032671Y0271835D03*
X0032671Y0271820D03*
X0033121Y0270635D03*
X0025336Y0271985D03*
X0024721Y0273725D03*
X0024871Y0266870D03*
D260*
X0024863Y0266885D03*
X0033113Y0266900D03*
X0033128Y0266915D03*
X0033143Y0270605D03*
X0033128Y0270620D03*
X0032663Y0271850D03*
X0032663Y0271865D03*
X0033113Y0273020D03*
X0033113Y0273035D03*
X0033128Y0273050D03*
X0033143Y0273065D03*
X0025343Y0272000D03*
X0024728Y0273710D03*
D261*
X0024743Y0273695D03*
D262*
X0032678Y0271595D03*
X0032963Y0270845D03*
X0033473Y0273695D03*
D263*
X0032671Y0271880D03*
X0033151Y0270590D03*
X0024751Y0273680D03*
D264*
X0024766Y0273650D03*
X0024766Y0273635D03*
X0024781Y0273605D03*
X0024781Y0270575D03*
X0024841Y0266900D03*
X0033061Y0272930D03*
X0033076Y0272960D03*
X0033091Y0272990D03*
D265*
X0033053Y0272915D03*
X0033053Y0272900D03*
X0024788Y0273590D03*
X0024773Y0273620D03*
X0024773Y0270560D03*
X0024833Y0266915D03*
D266*
X0024803Y0266960D03*
X0024803Y0273575D03*
X0033038Y0272885D03*
D267*
X0033196Y0270530D03*
X0024811Y0273560D03*
X0024796Y0266975D03*
D268*
X0024811Y0273545D03*
D269*
X0033391Y0273545D03*
D270*
X0033031Y0272870D03*
X0033016Y0272840D03*
X0033001Y0272810D03*
X0032986Y0272780D03*
X0032971Y0272765D03*
X0032656Y0271940D03*
X0033526Y0270110D03*
X0025336Y0272075D03*
X0025336Y0272090D03*
X0024841Y0273485D03*
X0024826Y0273515D03*
X0024826Y0273530D03*
X0024736Y0270500D03*
X0024601Y0270350D03*
X0024781Y0266990D03*
X0028966Y0262430D03*
D271*
X0024728Y0270485D03*
X0024878Y0273440D03*
X0024863Y0273455D03*
X0024848Y0273470D03*
X0024833Y0273500D03*
X0032648Y0271970D03*
X0032648Y0271955D03*
X0032933Y0272705D03*
X0032948Y0272720D03*
X0032948Y0272735D03*
X0032963Y0272750D03*
D272*
X0032926Y0272690D03*
X0032926Y0272675D03*
X0033211Y0270500D03*
X0033211Y0270485D03*
X0025336Y0272105D03*
X0025336Y0272120D03*
X0024916Y0273365D03*
X0024901Y0273410D03*
X0024886Y0273425D03*
X0024721Y0270470D03*
X0024706Y0270440D03*
X0024631Y0270365D03*
X0024751Y0267020D03*
X0024766Y0267005D03*
D273*
X0024901Y0273395D03*
X0032911Y0272645D03*
D274*
X0033316Y0273395D03*
D275*
X0032919Y0272660D03*
X0032648Y0271985D03*
X0033219Y0270470D03*
X0033233Y0270455D03*
X0033233Y0270440D03*
X0025343Y0272135D03*
X0024923Y0273335D03*
X0024923Y0273350D03*
X0024908Y0273380D03*
X0024713Y0270455D03*
X0024698Y0270425D03*
X0024728Y0267065D03*
X0024743Y0267050D03*
X0024743Y0267035D03*
D276*
X0024721Y0267080D03*
X0024691Y0270410D03*
X0025351Y0272150D03*
X0024931Y0273320D03*
X0032656Y0272000D03*
X0033241Y0270425D03*
X0028966Y0262415D03*
D277*
X0032896Y0272600D03*
X0024946Y0273305D03*
D278*
X0024953Y0273290D03*
X0024653Y0267185D03*
X0033488Y0270125D03*
D279*
X0024961Y0273275D03*
D280*
X0024968Y0273260D03*
X0024983Y0273230D03*
X0032783Y0272435D03*
X0032783Y0272420D03*
X0024683Y0267155D03*
X0024668Y0267170D03*
D281*
X0024983Y0273245D03*
D282*
X0024916Y0266795D03*
X0033016Y0266795D03*
X0033226Y0273245D03*
D283*
X0032776Y0272405D03*
X0032776Y0272390D03*
X0032761Y0272360D03*
X0025366Y0272210D03*
X0024991Y0273215D03*
D284*
X0024998Y0273200D03*
X0032798Y0272450D03*
X0033263Y0270380D03*
D285*
X0033271Y0270365D03*
X0033286Y0270350D03*
X0033286Y0270335D03*
X0033451Y0270140D03*
X0032656Y0272060D03*
X0032656Y0272075D03*
X0025021Y0273170D03*
X0025006Y0273185D03*
D286*
X0025028Y0273155D03*
X0025043Y0273140D03*
X0033293Y0270320D03*
D287*
X0033301Y0270305D03*
X0032656Y0272105D03*
X0032656Y0272120D03*
X0032656Y0272150D03*
X0032716Y0272285D03*
X0032746Y0272330D03*
X0025366Y0272270D03*
X0025366Y0272255D03*
X0025366Y0272240D03*
X0025081Y0273065D03*
X0025066Y0273080D03*
X0025051Y0273125D03*
D288*
X0025058Y0273110D03*
X0025358Y0272225D03*
X0032648Y0272090D03*
X0032738Y0272315D03*
X0032768Y0272375D03*
X0028973Y0262400D03*
D289*
X0025066Y0273095D03*
D290*
X0033158Y0273095D03*
D291*
X0032723Y0272300D03*
X0032708Y0272270D03*
X0032694Y0272255D03*
X0032663Y0272180D03*
X0032663Y0272165D03*
X0032648Y0272135D03*
X0033308Y0270290D03*
X0033323Y0270275D03*
X0025088Y0273035D03*
X0025088Y0273050D03*
D292*
X0025096Y0273020D03*
X0025366Y0272300D03*
X0025366Y0272285D03*
X0033331Y0270260D03*
X0033346Y0270230D03*
X0033361Y0270215D03*
X0033376Y0270200D03*
X0033391Y0270185D03*
X0033406Y0270170D03*
D293*
X0025118Y0272990D03*
X0025103Y0273005D03*
D294*
X0025126Y0272975D03*
X0025126Y0272960D03*
X0025141Y0272930D03*
X0025366Y0272315D03*
D295*
X0025141Y0272945D03*
D296*
X0033076Y0272945D03*
D297*
X0025148Y0272915D03*
D298*
X0025163Y0272900D03*
X0025178Y0272885D03*
D299*
X0025186Y0272870D03*
X0025201Y0272855D03*
X0025201Y0272840D03*
D300*
X0025343Y0272060D03*
X0024743Y0270515D03*
X0024593Y0267200D03*
X0033008Y0272825D03*
X0033023Y0272855D03*
D301*
X0025208Y0272825D03*
D302*
X0025216Y0272810D03*
X0025366Y0272330D03*
D303*
X0025373Y0272345D03*
X0025223Y0272795D03*
D304*
X0032993Y0272795D03*
D305*
X0025246Y0272765D03*
X0025231Y0272780D03*
D306*
X0025253Y0272750D03*
D307*
X0025261Y0272735D03*
X0025261Y0272720D03*
D308*
X0025269Y0272705D03*
X0025283Y0272675D03*
X0025373Y0272420D03*
X0025373Y0272405D03*
D309*
X0025381Y0272390D03*
X0025276Y0272690D03*
D310*
X0025291Y0272660D03*
X0025306Y0272630D03*
X0025321Y0272615D03*
X0025381Y0272450D03*
X0025381Y0272435D03*
D311*
X0025298Y0272645D03*
D312*
X0024653Y0270380D03*
X0032903Y0272615D03*
X0032903Y0272630D03*
D313*
X0025373Y0272510D03*
X0025373Y0272480D03*
X0025373Y0272465D03*
X0025358Y0272540D03*
X0025358Y0272555D03*
X0025343Y0272585D03*
X0025328Y0272600D03*
D314*
X0032648Y0272015D03*
X0032813Y0272480D03*
X0032843Y0272525D03*
X0032858Y0272555D03*
X0032873Y0272570D03*
X0032873Y0272585D03*
X0033248Y0270410D03*
X0024713Y0267110D03*
X0024698Y0267125D03*
D315*
X0025366Y0272525D03*
X0025351Y0272570D03*
D316*
X0025351Y0272180D03*
X0025351Y0272165D03*
X0032656Y0272030D03*
X0032806Y0272465D03*
X0032836Y0272510D03*
X0032851Y0272540D03*
X0024691Y0267140D03*
D317*
X0025373Y0272495D03*
D318*
X0032828Y0272495D03*
D319*
X0025373Y0272375D03*
X0025373Y0272360D03*
D320*
X0032753Y0272345D03*
D321*
X0032686Y0272240D03*
D322*
X0032678Y0272225D03*
X0032678Y0272210D03*
X0033428Y0270155D03*
D323*
X0025358Y0272195D03*
D324*
X0032671Y0272195D03*
D325*
X0025336Y0272045D03*
X0024766Y0270545D03*
D326*
X0032656Y0272045D03*
X0033256Y0270395D03*
D327*
X0032663Y0271910D03*
X0025343Y0272015D03*
X0025343Y0272030D03*
D328*
X0025328Y0271940D03*
X0025328Y0271925D03*
D329*
X0024751Y0270530D03*
X0024586Y0270335D03*
X0032656Y0271925D03*
X0033166Y0270575D03*
D330*
X0025328Y0271895D03*
D331*
X0032663Y0271895D03*
X0028958Y0262445D03*
D332*
X0032671Y0271760D03*
D333*
X0025313Y0271595D03*
D334*
X0025313Y0271580D03*
X0028958Y0262505D03*
D335*
X0024316Y0270260D03*
X0025051Y0270920D03*
X0025306Y0271565D03*
X0032671Y0271460D03*
X0032866Y0270935D03*
D336*
X0032791Y0266555D03*
X0025156Y0266555D03*
X0025081Y0270950D03*
X0025306Y0271535D03*
X0025306Y0271550D03*
D337*
X0025298Y0271520D03*
X0025088Y0270965D03*
X0032768Y0266540D03*
X0028958Y0262520D03*
D338*
X0025178Y0266510D03*
X0025298Y0271490D03*
X0025298Y0271505D03*
X0032678Y0271340D03*
X0032678Y0271325D03*
X0033458Y0267020D03*
D339*
X0032671Y0271310D03*
X0025306Y0271475D03*
D340*
X0032678Y0271475D03*
D341*
X0032678Y0271280D03*
X0033833Y0270020D03*
X0025298Y0271460D03*
X0024248Y0270230D03*
X0028958Y0262535D03*
D342*
X0025306Y0271445D03*
D343*
X0032678Y0271445D03*
D344*
X0032776Y0271010D03*
X0025306Y0271430D03*
X0025156Y0271010D03*
D345*
X0032671Y0271415D03*
X0032671Y0271430D03*
D346*
X0032678Y0271265D03*
X0032708Y0266480D03*
X0028958Y0262550D03*
X0024219Y0270215D03*
X0025313Y0271400D03*
X0025313Y0271415D03*
D347*
X0032678Y0271400D03*
X0032678Y0271385D03*
X0032828Y0270980D03*
X0025163Y0266540D03*
D348*
X0025231Y0266480D03*
X0025171Y0271025D03*
X0025186Y0271040D03*
X0025201Y0271055D03*
X0025306Y0271385D03*
X0032686Y0271250D03*
X0032731Y0271055D03*
D349*
X0032723Y0271070D03*
X0032678Y0271235D03*
X0033519Y0267050D03*
X0032693Y0266465D03*
X0024219Y0267305D03*
X0025313Y0271355D03*
X0025313Y0271370D03*
D350*
X0032671Y0271370D03*
X0032671Y0271355D03*
X0025171Y0266525D03*
X0024286Y0267290D03*
D351*
X0025216Y0271070D03*
X0025306Y0271325D03*
X0025306Y0271340D03*
D352*
X0025298Y0271310D03*
X0032678Y0271220D03*
X0032678Y0271205D03*
X0032708Y0271085D03*
X0033878Y0270005D03*
X0032678Y0266450D03*
X0028958Y0262565D03*
D353*
X0025306Y0271295D03*
D354*
X0025133Y0270995D03*
X0032678Y0271295D03*
D355*
X0032678Y0271190D03*
X0032678Y0271175D03*
X0032678Y0271160D03*
X0032678Y0271130D03*
X0032693Y0271100D03*
X0025298Y0271265D03*
X0025298Y0271280D03*
D356*
X0025298Y0271250D03*
X0025298Y0271235D03*
X0025268Y0271100D03*
X0024173Y0267320D03*
X0025298Y0266420D03*
D357*
X0025276Y0271115D03*
X0025291Y0271205D03*
X0025291Y0271220D03*
X0032611Y0266405D03*
X0028966Y0262580D03*
D358*
X0025283Y0271130D03*
X0025298Y0271175D03*
X0025298Y0271190D03*
D359*
X0025291Y0271160D03*
X0024136Y0267335D03*
D360*
X0025291Y0271145D03*
D361*
X0032678Y0271145D03*
D362*
X0032686Y0271115D03*
D363*
X0032633Y0266420D03*
X0025283Y0266435D03*
X0025268Y0266450D03*
X0024173Y0270200D03*
X0025238Y0271085D03*
D364*
X0032753Y0271040D03*
D365*
X0032761Y0271025D03*
X0033496Y0267035D03*
D366*
X0032798Y0270995D03*
D367*
X0033796Y0270035D03*
X0032761Y0266525D03*
X0025111Y0270980D03*
D368*
X0025073Y0270935D03*
X0025133Y0266570D03*
X0032798Y0266570D03*
X0033413Y0267005D03*
X0033773Y0270050D03*
X0032858Y0270950D03*
X0032844Y0270965D03*
D369*
X0032918Y0270890D03*
X0025073Y0266615D03*
D370*
X0024871Y0270695D03*
D371*
X0033068Y0270695D03*
D372*
X0033181Y0270560D03*
X0024826Y0266930D03*
D373*
X0033188Y0270545D03*
D374*
X0033203Y0270515D03*
D375*
X0024676Y0270395D03*
X0024721Y0267095D03*
D376*
X0024278Y0270245D03*
D377*
X0033338Y0270245D03*
D378*
X0024091Y0270185D03*
D379*
X0024031Y0270170D03*
X0034036Y0269975D03*
D380*
X0028966Y0262625D03*
X0024001Y0267380D03*
X0023986Y0270155D03*
D381*
X0023948Y0270140D03*
X0028958Y0262640D03*
D382*
X0033811Y0267140D03*
X0023926Y0270125D03*
D383*
X0023888Y0270110D03*
X0028958Y0262670D03*
X0033848Y0267155D03*
D384*
X0023836Y0270095D03*
D385*
X0023753Y0270080D03*
X0028958Y0262715D03*
D386*
X0023708Y0270065D03*
D387*
X0023671Y0270050D03*
X0032161Y0266255D03*
X0034111Y0267230D03*
D388*
X0023641Y0270035D03*
D389*
X0023618Y0270020D03*
D390*
X0023566Y0270005D03*
X0034471Y0269840D03*
X0034216Y0267275D03*
D391*
X0028951Y0262835D03*
X0023491Y0269990D03*
D392*
X0032573Y0266390D03*
X0033608Y0267080D03*
X0033953Y0269990D03*
D393*
X0028966Y0262865D03*
X0023176Y0268190D03*
X0023176Y0268205D03*
X0023176Y0268220D03*
X0023176Y0268235D03*
X0023176Y0268250D03*
X0023176Y0268265D03*
X0023161Y0268355D03*
X0023161Y0268370D03*
X0023161Y0268385D03*
X0023161Y0269135D03*
X0023161Y0269150D03*
X0023161Y0269165D03*
X0023161Y0269180D03*
X0023161Y0269210D03*
X0023161Y0269225D03*
X0023161Y0269240D03*
X0023161Y0269255D03*
X0023161Y0269270D03*
X0023431Y0269975D03*
D394*
X0023394Y0269960D03*
X0023183Y0269465D03*
X0023183Y0269450D03*
X0023183Y0269435D03*
X0023198Y0268070D03*
X0023198Y0268055D03*
X0023408Y0267560D03*
X0034718Y0267965D03*
X0034733Y0268010D03*
X0034748Y0269510D03*
X0034748Y0269525D03*
X0034688Y0269720D03*
X0034673Y0269735D03*
D395*
X0034096Y0269960D03*
D396*
X0023363Y0269945D03*
X0023213Y0267995D03*
D397*
X0034126Y0269945D03*
D398*
X0034711Y0269675D03*
X0034711Y0269660D03*
X0034726Y0269630D03*
X0034726Y0269615D03*
X0034726Y0269600D03*
X0034651Y0267725D03*
X0034426Y0267335D03*
X0023356Y0267590D03*
X0023356Y0269930D03*
D399*
X0034163Y0269930D03*
D400*
X0023333Y0269915D03*
X0023258Y0267770D03*
D401*
X0033893Y0267170D03*
X0034193Y0269915D03*
D402*
X0023326Y0269900D03*
X0023311Y0269885D03*
X0023266Y0267755D03*
X0023311Y0267665D03*
X0023326Y0267620D03*
X0023341Y0267605D03*
D403*
X0034246Y0269900D03*
D404*
X0034328Y0269885D03*
X0034028Y0267200D03*
D405*
X0023318Y0267635D03*
X0023318Y0267650D03*
X0023303Y0267680D03*
X0023288Y0267710D03*
X0023288Y0267725D03*
X0023273Y0267740D03*
X0023303Y0269870D03*
D406*
X0034396Y0269870D03*
D407*
X0023296Y0269855D03*
X0023281Y0269840D03*
X0023281Y0269825D03*
D408*
X0034441Y0269855D03*
D409*
X0034508Y0269825D03*
D410*
X0034606Y0267575D03*
X0034471Y0267365D03*
X0023266Y0269810D03*
D411*
X0034553Y0269810D03*
D412*
X0023258Y0269795D03*
D413*
X0034613Y0269795D03*
X0034808Y0268595D03*
X0034793Y0268445D03*
D414*
X0034628Y0267650D03*
X0034628Y0267635D03*
X0034613Y0267605D03*
X0034613Y0267590D03*
X0023258Y0269780D03*
X0023243Y0269765D03*
D415*
X0034643Y0269780D03*
X0034763Y0269450D03*
X0034763Y0269435D03*
X0034763Y0269420D03*
X0034778Y0269375D03*
X0034778Y0269360D03*
X0034778Y0269330D03*
X0034778Y0269315D03*
X0034778Y0269300D03*
X0034763Y0268160D03*
X0034763Y0268130D03*
X0034763Y0268115D03*
D416*
X0034748Y0268085D03*
X0034748Y0268070D03*
X0034748Y0268055D03*
X0034658Y0269765D03*
X0023168Y0269360D03*
X0023168Y0269330D03*
X0023168Y0269315D03*
X0023168Y0269300D03*
X0023168Y0269285D03*
X0023183Y0268175D03*
X0023183Y0268160D03*
X0023183Y0268130D03*
X0023183Y0268115D03*
D417*
X0023251Y0267785D03*
X0023236Y0269720D03*
X0023236Y0269735D03*
X0023236Y0269750D03*
X0034456Y0267350D03*
X0034621Y0267620D03*
X0034636Y0267665D03*
X0034636Y0267680D03*
D418*
X0034741Y0268025D03*
X0034741Y0268040D03*
X0034756Y0269465D03*
X0034756Y0269480D03*
X0034666Y0269750D03*
X0023176Y0269420D03*
X0023176Y0269405D03*
X0023176Y0269390D03*
X0023176Y0269375D03*
X0023191Y0268100D03*
X0023191Y0268085D03*
D419*
X0023243Y0267815D03*
X0023243Y0267800D03*
X0023228Y0269660D03*
X0023228Y0269675D03*
X0023228Y0269690D03*
X0023228Y0269705D03*
X0034643Y0267710D03*
D420*
X0034681Y0267785D03*
X0034681Y0267800D03*
X0034681Y0267815D03*
X0034696Y0267830D03*
X0034696Y0267860D03*
X0034696Y0267875D03*
X0034696Y0267890D03*
X0034711Y0267905D03*
X0034711Y0267920D03*
X0034711Y0267935D03*
X0034711Y0267950D03*
X0034726Y0267980D03*
X0034396Y0267320D03*
X0034741Y0269540D03*
X0034741Y0269555D03*
X0034696Y0269705D03*
X0023206Y0269525D03*
X0023191Y0269480D03*
X0023206Y0268040D03*
X0023206Y0268025D03*
X0023221Y0267980D03*
X0023386Y0267575D03*
D421*
X0023213Y0268010D03*
X0023198Y0269510D03*
X0023213Y0269540D03*
X0023213Y0269555D03*
X0023213Y0269570D03*
X0034703Y0269690D03*
X0034733Y0269585D03*
X0034733Y0269570D03*
X0034673Y0267770D03*
X0034673Y0267755D03*
X0034658Y0267740D03*
D422*
X0034643Y0267695D03*
X0023228Y0269645D03*
D423*
X0034726Y0269645D03*
D424*
X0023221Y0269630D03*
X0023221Y0269615D03*
X0023221Y0269600D03*
X0023221Y0269585D03*
X0023236Y0267890D03*
X0023236Y0267875D03*
X0023236Y0267860D03*
X0023236Y0267830D03*
D425*
X0023191Y0269495D03*
X0034696Y0267845D03*
D426*
X0034756Y0269495D03*
X0023431Y0267545D03*
D427*
X0034771Y0269390D03*
X0034771Y0269405D03*
D428*
X0023168Y0269345D03*
X0023183Y0268145D03*
D429*
X0034763Y0268145D03*
X0034778Y0269345D03*
D430*
X0034786Y0269285D03*
X0034786Y0269270D03*
X0034786Y0269255D03*
X0034786Y0269240D03*
X0034786Y0269225D03*
X0034771Y0268235D03*
X0034771Y0268220D03*
X0034771Y0268205D03*
X0034771Y0268190D03*
X0034771Y0268175D03*
X0034756Y0268100D03*
D431*
X0034778Y0268250D03*
X0034778Y0268265D03*
X0034778Y0268280D03*
X0034778Y0268310D03*
X0034778Y0268325D03*
X0034793Y0269120D03*
X0034793Y0269135D03*
X0034793Y0269150D03*
X0034793Y0269165D03*
X0034793Y0269180D03*
X0034793Y0269210D03*
X0034358Y0267305D03*
D432*
X0023161Y0269195D03*
D433*
X0034793Y0269195D03*
X0034778Y0268295D03*
D434*
X0023453Y0267530D03*
X0023168Y0268280D03*
X0023168Y0268310D03*
X0023168Y0268325D03*
X0023168Y0268340D03*
X0023153Y0268400D03*
X0023153Y0268415D03*
X0023153Y0268430D03*
X0023153Y0268460D03*
X0023153Y0268475D03*
X0023153Y0268490D03*
X0023153Y0268505D03*
X0023153Y0269030D03*
X0023153Y0269060D03*
X0023153Y0269075D03*
X0023153Y0269090D03*
X0023153Y0269105D03*
X0023153Y0269120D03*
D435*
X0034801Y0269105D03*
X0034801Y0269090D03*
X0034801Y0269075D03*
X0034801Y0269060D03*
X0034801Y0269030D03*
X0034801Y0268520D03*
X0034801Y0268505D03*
X0034801Y0268490D03*
X0034786Y0268430D03*
X0034786Y0268415D03*
X0034786Y0268400D03*
X0034786Y0268385D03*
X0034786Y0268370D03*
X0034786Y0268355D03*
X0034786Y0268340D03*
D436*
X0023168Y0268295D03*
X0023153Y0268445D03*
X0023153Y0269045D03*
D437*
X0034801Y0269045D03*
D438*
X0023146Y0269015D03*
X0023146Y0269000D03*
X0023146Y0268985D03*
X0023146Y0268970D03*
X0023146Y0268955D03*
X0023146Y0268940D03*
X0023131Y0268925D03*
X0023131Y0268910D03*
X0023131Y0268880D03*
X0023131Y0268865D03*
X0023131Y0268850D03*
X0023131Y0268835D03*
X0023146Y0268610D03*
X0023146Y0268580D03*
X0023146Y0268565D03*
X0023146Y0268550D03*
X0023146Y0268535D03*
X0023146Y0268520D03*
D439*
X0023123Y0268790D03*
X0023123Y0268805D03*
X0023123Y0268820D03*
X0034793Y0268475D03*
X0034793Y0268460D03*
X0034808Y0268535D03*
X0034808Y0268550D03*
X0034808Y0268565D03*
X0034808Y0268580D03*
X0034808Y0268610D03*
X0034808Y0268625D03*
X0034808Y0268925D03*
X0034808Y0268940D03*
X0034808Y0268955D03*
X0034808Y0268970D03*
X0034808Y0268985D03*
X0034808Y0269000D03*
X0034808Y0269015D03*
D440*
X0034816Y0268910D03*
X0034816Y0268880D03*
X0034816Y0268865D03*
X0034816Y0268850D03*
X0034816Y0268835D03*
X0034816Y0268820D03*
X0034816Y0268805D03*
X0034816Y0268790D03*
X0034816Y0268775D03*
X0034816Y0268760D03*
X0034816Y0268730D03*
X0034816Y0268715D03*
X0034816Y0268700D03*
X0034816Y0268685D03*
X0034816Y0268670D03*
X0034816Y0268655D03*
X0034816Y0268640D03*
X0023491Y0267515D03*
X0023131Y0268715D03*
X0023131Y0268730D03*
X0023131Y0268760D03*
X0023131Y0268775D03*
D441*
X0023131Y0268895D03*
X0023146Y0268595D03*
D442*
X0023131Y0268745D03*
X0034816Y0268745D03*
X0034816Y0268895D03*
D443*
X0023138Y0268700D03*
X0023138Y0268685D03*
X0023138Y0268670D03*
X0023138Y0268655D03*
X0023138Y0268640D03*
X0023138Y0268625D03*
D444*
X0034733Y0267995D03*
D445*
X0023228Y0267965D03*
X0023228Y0267950D03*
X0023228Y0267935D03*
X0023228Y0267920D03*
X0023228Y0267905D03*
D446*
X0023236Y0267845D03*
D447*
X0023303Y0267695D03*
D448*
X0034493Y0267380D03*
X0034598Y0267560D03*
D449*
X0034598Y0267545D03*
X0034508Y0267395D03*
D450*
X0034531Y0267410D03*
X0034576Y0267500D03*
X0034591Y0267530D03*
D451*
X0034583Y0267515D03*
X0034569Y0267485D03*
X0034569Y0267470D03*
D452*
X0028958Y0262820D03*
X0023543Y0267500D03*
D453*
X0023618Y0267485D03*
X0028958Y0262790D03*
D454*
X0028958Y0262760D03*
X0034073Y0267215D03*
X0023693Y0267470D03*
D455*
X0023738Y0267455D03*
D456*
X0034546Y0267425D03*
X0034561Y0267455D03*
D457*
X0023776Y0267440D03*
D458*
X0034553Y0267440D03*
D459*
X0023806Y0267425D03*
D460*
X0023843Y0267410D03*
D461*
X0023911Y0267395D03*
D462*
X0024061Y0267365D03*
D463*
X0024113Y0267350D03*
D464*
X0034298Y0267290D03*
D465*
X0024376Y0267275D03*
D466*
X0034171Y0267260D03*
D467*
X0024473Y0267245D03*
D468*
X0034141Y0267245D03*
D469*
X0033953Y0267185D03*
D470*
X0033781Y0267125D03*
X0032416Y0266300D03*
X0025516Y0266300D03*
D471*
X0033743Y0267110D03*
D472*
X0033683Y0267095D03*
D473*
X0033556Y0267065D03*
X0032656Y0266435D03*
D474*
X0024811Y0266945D03*
D475*
X0024878Y0266855D03*
D476*
X0025051Y0266645D03*
D477*
X0032753Y0266510D03*
D478*
X0025201Y0266495D03*
D479*
X0032738Y0266495D03*
D480*
X0025246Y0266465D03*
D481*
X0025328Y0266405D03*
D482*
X0025358Y0266390D03*
D483*
X0025396Y0266375D03*
D484*
X0032521Y0266375D03*
D485*
X0025426Y0266360D03*
D486*
X0032498Y0266360D03*
D487*
X0025441Y0266345D03*
D488*
X0032483Y0266345D03*
D489*
X0028958Y0262610D03*
X0025463Y0266330D03*
D490*
X0032461Y0266330D03*
D491*
X0025478Y0266315D03*
D492*
X0032446Y0266315D03*
D493*
X0032326Y0266285D03*
X0025606Y0266285D03*
D494*
X0025673Y0266270D03*
D495*
X0032221Y0266270D03*
D496*
X0025726Y0266255D03*
D497*
X0028966Y0266240D03*
D498*
X0028958Y0266225D03*
D499*
X0028966Y0266210D03*
X0028936Y0264410D03*
D500*
X0028966Y0266195D03*
D501*
X0028958Y0266180D03*
D502*
X0028958Y0266165D03*
X0028928Y0264440D03*
D503*
X0028936Y0264455D03*
X0028951Y0266150D03*
D504*
X0028958Y0266135D03*
X0028928Y0264470D03*
D505*
X0028958Y0266105D03*
X0028958Y0266120D03*
D506*
X0028966Y0266090D03*
X0028936Y0264500D03*
D507*
X0028958Y0266075D03*
D508*
X0028966Y0266060D03*
X0028966Y0266030D03*
D509*
X0028966Y0266045D03*
D510*
X0028966Y0266015D03*
X0028966Y0266000D03*
X0028966Y0265985D03*
D511*
X0028966Y0265970D03*
X0028936Y0264560D03*
D512*
X0028958Y0265955D03*
D513*
X0028966Y0265940D03*
D514*
X0028966Y0265925D03*
D515*
X0028958Y0265910D03*
X0028928Y0264620D03*
D516*
X0028966Y0265895D03*
D517*
X0028966Y0265880D03*
X0028966Y0265865D03*
X0028936Y0264650D03*
D518*
X0028936Y0264665D03*
X0028966Y0265820D03*
X0028966Y0265835D03*
X0028966Y0265850D03*
D519*
X0028958Y0265805D03*
X0028928Y0264680D03*
D520*
X0028966Y0265790D03*
D521*
X0028958Y0265775D03*
D522*
X0028966Y0265760D03*
D523*
X0028958Y0265745D03*
D524*
X0028958Y0265730D03*
X0028958Y0265715D03*
D525*
X0028958Y0265700D03*
D526*
X0028966Y0265685D03*
D527*
X0028958Y0265670D03*
D528*
X0028966Y0265655D03*
X0028966Y0265640D03*
D529*
X0028966Y0265625D03*
X0028966Y0265610D03*
D530*
X0028958Y0265595D03*
D531*
X0028966Y0265580D03*
D532*
X0028958Y0265565D03*
X0028928Y0264830D03*
D533*
X0028928Y0264860D03*
X0028958Y0265550D03*
D534*
X0028951Y0265535D03*
X0028921Y0264875D03*
D535*
X0028928Y0264890D03*
X0028958Y0265520D03*
D536*
X0028958Y0265505D03*
X0028928Y0264920D03*
D537*
X0028966Y0265490D03*
D538*
X0028958Y0265475D03*
X0028928Y0264935D03*
D539*
X0028966Y0265460D03*
D540*
X0028966Y0265445D03*
D541*
X0028966Y0265430D03*
X0028966Y0265415D03*
D542*
X0028966Y0265400D03*
X0028921Y0264980D03*
D543*
X0028958Y0265385D03*
D544*
X0028958Y0265370D03*
D545*
X0028958Y0265355D03*
D546*
X0028966Y0265340D03*
X0028921Y0265055D03*
D547*
X0028928Y0265070D03*
X0028958Y0265325D03*
D548*
X0028966Y0265310D03*
D549*
X0028966Y0265295D03*
D550*
X0028966Y0265280D03*
D551*
X0028958Y0265265D03*
X0028958Y0265250D03*
D552*
X0028958Y0265235D03*
X0028958Y0265220D03*
X0028928Y0265115D03*
D553*
X0028921Y0265130D03*
X0028936Y0265175D03*
X0028936Y0265190D03*
X0028951Y0265205D03*
D554*
X0028928Y0265160D03*
D555*
X0028928Y0265145D03*
D556*
X0028921Y0265100D03*
D557*
X0028928Y0265085D03*
D558*
X0028921Y0265040D03*
X0028921Y0265025D03*
D559*
X0028921Y0265010D03*
D560*
X0028921Y0264995D03*
D561*
X0028921Y0264965D03*
D562*
X0028928Y0264950D03*
D563*
X0028921Y0264905D03*
D564*
X0028928Y0264845D03*
D565*
X0028928Y0264815D03*
D566*
X0028928Y0264800D03*
D567*
X0028928Y0264785D03*
D568*
X0028928Y0264770D03*
D569*
X0028921Y0264755D03*
D570*
X0028928Y0264740D03*
D571*
X0028921Y0264725D03*
D572*
X0028928Y0264710D03*
D573*
X0028928Y0264695D03*
D574*
X0028936Y0264635D03*
D575*
X0028936Y0264605D03*
D576*
X0028928Y0264590D03*
D577*
X0028928Y0264575D03*
D578*
X0028936Y0264545D03*
D579*
X0028936Y0264530D03*
D580*
X0028936Y0264515D03*
D581*
X0028936Y0264485D03*
D582*
X0028936Y0264425D03*
D583*
X0028943Y0264395D03*
D584*
X0028943Y0264380D03*
D585*
X0028944Y0264365D03*
D586*
X0028936Y0264350D03*
D587*
X0028936Y0264335D03*
D588*
X0028928Y0264320D03*
D589*
X0028936Y0264305D03*
D590*
X0028936Y0264290D03*
D591*
X0028943Y0264275D03*
D592*
X0028943Y0264260D03*
D593*
X0028951Y0264245D03*
D594*
X0028943Y0264230D03*
D595*
X0028943Y0264215D03*
D596*
X0028936Y0264200D03*
D597*
X0028936Y0264185D03*
D598*
X0028943Y0264170D03*
D599*
X0028936Y0264155D03*
D600*
X0028944Y0264140D03*
D601*
X0028944Y0264125D03*
D602*
X0028951Y0264110D03*
D603*
X0028951Y0264095D03*
D604*
X0028943Y0264080D03*
D605*
X0028943Y0264065D03*
D606*
X0028936Y0264050D03*
D607*
X0028936Y0264035D03*
X0028936Y0264020D03*
D608*
X0028936Y0264005D03*
D609*
X0028951Y0263990D03*
D610*
X0028951Y0263975D03*
X0028951Y0263960D03*
D611*
X0028951Y0263945D03*
D612*
X0028951Y0263930D03*
D613*
X0028944Y0263915D03*
D614*
X0028943Y0263900D03*
X0028943Y0263885D03*
D615*
X0028943Y0263870D03*
D616*
X0028943Y0263855D03*
D617*
X0028951Y0263840D03*
D618*
X0028951Y0263825D03*
X0028951Y0263810D03*
D619*
X0028951Y0263795D03*
D620*
X0028951Y0263780D03*
D621*
X0028943Y0263765D03*
D622*
X0028943Y0263750D03*
X0028943Y0263735D03*
D623*
X0028944Y0263720D03*
D624*
X0028951Y0263705D03*
D625*
X0028951Y0263690D03*
D626*
X0028958Y0263675D03*
D627*
X0028958Y0263660D03*
D628*
X0028951Y0263645D03*
D629*
X0028951Y0263630D03*
D630*
X0028943Y0263615D03*
D631*
X0028951Y0263600D03*
D632*
X0028951Y0263585D03*
D633*
X0028951Y0263570D03*
D634*
X0028958Y0263555D03*
D635*
X0028958Y0263540D03*
X0028958Y0263525D03*
D636*
X0028958Y0263510D03*
D637*
X0028951Y0263495D03*
D638*
X0028951Y0263480D03*
D639*
X0028951Y0263465D03*
D640*
X0028958Y0263450D03*
D641*
X0028958Y0263435D03*
X0028973Y0262955D03*
D642*
X0028966Y0263420D03*
D643*
X0028958Y0263405D03*
X0028973Y0262970D03*
D644*
X0028958Y0263375D03*
X0028958Y0263390D03*
D645*
X0028958Y0263360D03*
D646*
X0028951Y0263345D03*
D647*
X0028951Y0263330D03*
D648*
X0028958Y0263315D03*
D649*
X0028951Y0263300D03*
X0028966Y0263060D03*
D650*
X0028958Y0263285D03*
D651*
X0028958Y0263270D03*
X0028973Y0263090D03*
D652*
X0028966Y0263105D03*
X0028966Y0263120D03*
X0028966Y0263210D03*
X0028966Y0263225D03*
X0028966Y0263240D03*
X0028966Y0263255D03*
D653*
X0028973Y0263195D03*
D654*
X0028973Y0263180D03*
X0028973Y0263165D03*
X0028973Y0263150D03*
X0028973Y0263135D03*
D655*
X0028966Y0263075D03*
D656*
X0028973Y0263045D03*
D657*
X0028973Y0263030D03*
D658*
X0028966Y0263015D03*
D659*
X0028966Y0263000D03*
D660*
X0028966Y0262985D03*
D661*
X0028966Y0262940D03*
D662*
X0028966Y0262925D03*
D663*
X0034148Y0262820D03*
X0023708Y0262910D03*
D664*
X0030736Y0262910D03*
D665*
X0023701Y0262895D03*
D666*
X0030743Y0262895D03*
D667*
X0023693Y0262880D03*
D668*
X0030758Y0262880D03*
D669*
X0034126Y0262865D03*
D670*
X0028951Y0262850D03*
D671*
X0034148Y0262850D03*
D672*
X0034171Y0262730D03*
X0028951Y0262130D03*
X0023686Y0262835D03*
D673*
X0034148Y0262835D03*
D674*
X0023686Y0262805D03*
D675*
X0028951Y0262805D03*
D676*
X0034148Y0262805D03*
D677*
X0023678Y0262790D03*
D678*
X0034156Y0262790D03*
D679*
X0023671Y0262775D03*
D680*
X0028958Y0262775D03*
D681*
X0034163Y0262775D03*
D682*
X0034186Y0262670D03*
X0023671Y0262760D03*
D683*
X0023663Y0262745D03*
X0028958Y0261545D03*
D684*
X0028958Y0262745D03*
D685*
X0028951Y0262145D03*
X0034171Y0262745D03*
D686*
X0028951Y0262730D03*
D687*
X0028951Y0261335D03*
X0028951Y0261320D03*
X0028951Y0261305D03*
X0034201Y0262610D03*
X0023656Y0262700D03*
D688*
X0028958Y0262700D03*
D689*
X0028943Y0261980D03*
X0028943Y0261965D03*
X0028943Y0261950D03*
X0028943Y0261935D03*
X0028943Y0261920D03*
X0034178Y0262700D03*
D690*
X0028958Y0261215D03*
X0028958Y0261200D03*
X0028958Y0261185D03*
X0023648Y0262685D03*
D691*
X0028958Y0262685D03*
D692*
X0034178Y0262685D03*
D693*
X0028966Y0260915D03*
X0028966Y0260900D03*
X0028966Y0260885D03*
X0023641Y0262655D03*
D694*
X0028958Y0262655D03*
D695*
X0028951Y0261455D03*
X0028951Y0261440D03*
X0028951Y0261425D03*
X0034201Y0262640D03*
D696*
X0034223Y0262550D03*
X0028958Y0260810D03*
X0023633Y0262625D03*
D697*
X0023626Y0262595D03*
X0028966Y0260645D03*
D698*
X0028958Y0262595D03*
D699*
X0034208Y0262595D03*
D700*
X0023626Y0262565D03*
D701*
X0023618Y0262535D03*
X0028973Y0260210D03*
X0028973Y0260180D03*
D702*
X0028973Y0260150D03*
X0028973Y0260135D03*
X0028973Y0260120D03*
X0023618Y0262520D03*
D703*
X0034231Y0262520D03*
D704*
X0028981Y0260015D03*
X0023611Y0262505D03*
D705*
X0028966Y0260660D03*
X0028966Y0260630D03*
X0028966Y0260615D03*
X0034231Y0262505D03*
D706*
X0028973Y0259880D03*
X0023603Y0262490D03*
D707*
X0028973Y0260450D03*
X0028973Y0260435D03*
X0028973Y0260420D03*
X0028973Y0260405D03*
X0028973Y0260390D03*
X0034238Y0262490D03*
D708*
X0023603Y0262475D03*
D709*
X0023596Y0262460D03*
X0028981Y0259820D03*
D710*
X0023596Y0262445D03*
D711*
X0034253Y0262445D03*
D712*
X0034276Y0262355D03*
X0023596Y0262430D03*
D713*
X0023588Y0262415D03*
X0028973Y0259790D03*
D714*
X0028973Y0259910D03*
X0028973Y0259925D03*
X0028973Y0259940D03*
X0028973Y0259955D03*
X0028973Y0259970D03*
X0028973Y0259985D03*
X0028973Y0260000D03*
X0034253Y0262415D03*
D715*
X0034276Y0262325D03*
X0028981Y0259775D03*
X0023581Y0262400D03*
D716*
X0028981Y0259865D03*
X0028981Y0259850D03*
X0034261Y0262400D03*
D717*
X0028966Y0262385D03*
D718*
X0023581Y0262370D03*
D719*
X0028966Y0262370D03*
D720*
X0028981Y0259805D03*
X0034276Y0262370D03*
D721*
X0023573Y0262355D03*
D722*
X0028958Y0262355D03*
D723*
X0028966Y0262340D03*
D724*
X0034276Y0262340D03*
D725*
X0028996Y0259730D03*
X0023566Y0262325D03*
D726*
X0028966Y0262325D03*
D727*
X0028966Y0262310D03*
D728*
X0034283Y0262310D03*
D729*
X0023566Y0262295D03*
D730*
X0028958Y0262295D03*
D731*
X0034291Y0262295D03*
D732*
X0028973Y0262280D03*
D733*
X0034298Y0262280D03*
D734*
X0028973Y0262265D03*
D735*
X0028973Y0262250D03*
D736*
X0023551Y0262235D03*
D737*
X0028973Y0262235D03*
D738*
X0034298Y0262235D03*
D739*
X0034321Y0262160D03*
X0023551Y0262220D03*
D740*
X0028973Y0262220D03*
D741*
X0023543Y0262205D03*
D742*
X0028966Y0262205D03*
D743*
X0023543Y0262175D03*
D744*
X0028958Y0262175D03*
D745*
X0034313Y0262175D03*
D746*
X0023536Y0262160D03*
D747*
X0023536Y0262145D03*
D748*
X0023536Y0262130D03*
D749*
X0023536Y0262115D03*
X0034336Y0262055D03*
D750*
X0034321Y0262115D03*
D751*
X0034336Y0262040D03*
X0023536Y0262100D03*
D752*
X0028951Y0262100D03*
X0028951Y0262085D03*
X0028951Y0262070D03*
D753*
X0034321Y0262100D03*
D754*
X0034328Y0262085D03*
D755*
X0023528Y0262070D03*
D756*
X0034328Y0262070D03*
D757*
X0023521Y0262055D03*
D758*
X0023528Y0262040D03*
X0034343Y0261980D03*
D759*
X0023528Y0262025D03*
D760*
X0023528Y0262010D03*
D761*
X0023521Y0261995D03*
D762*
X0028936Y0261995D03*
D763*
X0034343Y0261995D03*
D764*
X0023513Y0261965D03*
D765*
X0034351Y0261935D03*
D766*
X0023506Y0261920D03*
D767*
X0034351Y0261920D03*
D768*
X0028951Y0261905D03*
D769*
X0023498Y0261875D03*
D770*
X0028951Y0261860D03*
X0028951Y0261830D03*
D771*
X0023498Y0261845D03*
D772*
X0028951Y0261845D03*
D773*
X0034366Y0261845D03*
D774*
X0023498Y0261800D03*
D775*
X0034373Y0261785D03*
D776*
X0023491Y0261770D03*
D777*
X0034381Y0261770D03*
D778*
X0023491Y0261710D03*
D779*
X0023483Y0261695D03*
D780*
X0028958Y0261695D03*
D781*
X0034381Y0261695D03*
D782*
X0034388Y0261680D03*
D783*
X0023476Y0261665D03*
D784*
X0034388Y0261665D03*
D785*
X0034396Y0261590D03*
X0023476Y0261650D03*
D786*
X0034388Y0261650D03*
D787*
X0023476Y0261635D03*
D788*
X0034388Y0261635D03*
D789*
X0028958Y0261605D03*
X0028958Y0261590D03*
X0028958Y0261575D03*
X0028958Y0261560D03*
X0028958Y0261530D03*
D790*
X0034396Y0261605D03*
D791*
X0034403Y0261530D03*
X0023468Y0261590D03*
D792*
X0034403Y0261575D03*
D793*
X0034403Y0261545D03*
D794*
X0028951Y0261515D03*
D795*
X0034411Y0261515D03*
D796*
X0034433Y0261500D03*
D797*
X0028951Y0261395D03*
D798*
X0028958Y0261290D03*
X0028958Y0261275D03*
X0028958Y0261260D03*
D799*
X0028966Y0261245D03*
D800*
X0028966Y0261230D03*
D801*
X0028966Y0261170D03*
X0028966Y0261155D03*
X0028966Y0261140D03*
X0028966Y0261125D03*
X0028966Y0261110D03*
X0028966Y0261080D03*
X0028966Y0261065D03*
D802*
X0028966Y0261095D03*
D803*
X0028958Y0260930D03*
D804*
X0028958Y0260795D03*
D805*
X0028958Y0260750D03*
D806*
X0028966Y0260735D03*
X0028966Y0260720D03*
X0028966Y0260705D03*
X0028966Y0260690D03*
D807*
X0028973Y0260345D03*
D808*
X0028966Y0260285D03*
D809*
X0028981Y0260225D03*
D810*
X0028973Y0260195D03*
D811*
X0028973Y0260045D03*
D812*
X0028973Y0259895D03*
D813*
X0028988Y0259745D03*
D814*
X0028898Y0259700D03*
D815*
X0023624Y0150847D02*
X0023624Y0147944D01*
X0022172Y0149396D01*
X0024107Y0149396D01*
X0025119Y0149396D02*
X0027054Y0149396D01*
X0021161Y0150847D02*
X0021161Y0147944D01*
X0019226Y0147944D02*
X0021161Y0150847D01*
X0019226Y0150847D02*
X0019226Y0147944D01*
X0018229Y0147944D02*
X0017261Y0147944D01*
X0017745Y0147944D02*
X0017745Y0150847D01*
X0017261Y0150847D02*
X0018229Y0150847D01*
X0016250Y0150847D02*
X0016250Y0148912D01*
X0015282Y0147944D01*
X0014315Y0148912D01*
X0014315Y0150847D01*
X0014315Y0149396D02*
X0016250Y0149396D01*
X0016250Y0136447D02*
X0016250Y0134512D01*
X0015282Y0133544D01*
X0014315Y0134512D01*
X0014315Y0136447D01*
X0014315Y0134996D02*
X0016250Y0134996D01*
X0017261Y0136447D02*
X0018229Y0136447D01*
X0017745Y0136447D02*
X0017745Y0133544D01*
X0017261Y0133544D02*
X0018229Y0133544D01*
X0019226Y0133544D02*
X0021161Y0136447D01*
X0021161Y0133544D01*
X0022172Y0134996D02*
X0024107Y0134996D01*
X0025119Y0134996D02*
X0027054Y0134996D01*
X0026086Y0134028D02*
X0026086Y0135963D01*
X0023624Y0136447D02*
X0023624Y0133544D01*
X0022172Y0134996D01*
X0019226Y0136447D02*
X0019226Y0133544D01*
X0038899Y0120531D02*
X0038899Y0118596D01*
X0039866Y0117629D01*
X0040834Y0118596D01*
X0040834Y0120531D01*
X0041845Y0120531D02*
X0042813Y0120531D01*
X0042329Y0120531D02*
X0042329Y0117629D01*
X0041845Y0117629D02*
X0042813Y0117629D01*
X0043810Y0117629D02*
X0045745Y0120531D01*
X0045745Y0117629D01*
X0046756Y0118112D02*
X0047240Y0117629D01*
X0048207Y0117629D01*
X0048691Y0118112D01*
X0048691Y0118596D01*
X0048207Y0119080D01*
X0048691Y0119564D01*
X0048691Y0120047D01*
X0048207Y0120531D01*
X0047240Y0120531D01*
X0046756Y0120047D01*
X0047724Y0119080D02*
X0048207Y0119080D01*
X0049703Y0119080D02*
X0051638Y0119080D01*
X0043810Y0120531D02*
X0043810Y0117629D01*
X0040834Y0119080D02*
X0038899Y0119080D01*
X0038899Y0106131D02*
X0038899Y0104196D01*
X0039866Y0103229D01*
X0040834Y0104196D01*
X0040834Y0106131D01*
X0041845Y0106131D02*
X0042813Y0106131D01*
X0042329Y0106131D02*
X0042329Y0103229D01*
X0041845Y0103229D02*
X0042813Y0103229D01*
X0043810Y0103229D02*
X0045745Y0106131D01*
X0045745Y0103229D01*
X0046756Y0103712D02*
X0047240Y0103229D01*
X0048207Y0103229D01*
X0048691Y0103712D01*
X0048691Y0104196D01*
X0048207Y0104680D01*
X0048691Y0105164D01*
X0048691Y0105647D01*
X0048207Y0106131D01*
X0047240Y0106131D01*
X0046756Y0105647D01*
X0047724Y0104680D02*
X0048207Y0104680D01*
X0049703Y0104680D02*
X0051638Y0104680D01*
X0050670Y0103712D02*
X0050670Y0105647D01*
X0043810Y0106131D02*
X0043810Y0103229D01*
X0040834Y0104680D02*
X0038899Y0104680D01*
X0038899Y0090531D02*
X0038899Y0088596D01*
X0039866Y0087629D01*
X0040834Y0088596D01*
X0040834Y0090531D01*
X0041845Y0090531D02*
X0042813Y0090531D01*
X0042329Y0090531D02*
X0042329Y0087629D01*
X0041845Y0087629D02*
X0042813Y0087629D01*
X0043810Y0087629D02*
X0045745Y0090531D01*
X0045745Y0087629D01*
X0046756Y0088112D02*
X0047240Y0087629D01*
X0048207Y0087629D01*
X0048691Y0088112D01*
X0048691Y0088596D01*
X0046756Y0090531D01*
X0048691Y0090531D01*
X0049703Y0089080D02*
X0051638Y0089080D01*
X0043810Y0090531D02*
X0043810Y0087629D01*
X0040834Y0089080D02*
X0038899Y0089080D01*
X0038899Y0076131D02*
X0038899Y0074196D01*
X0039866Y0073229D01*
X0040834Y0074196D01*
X0040834Y0076131D01*
X0041845Y0076131D02*
X0042813Y0076131D01*
X0042329Y0076131D02*
X0042329Y0073229D01*
X0041845Y0073229D02*
X0042813Y0073229D01*
X0043810Y0073229D02*
X0045745Y0076131D01*
X0045745Y0073229D01*
X0046756Y0073712D02*
X0047240Y0073229D01*
X0048207Y0073229D01*
X0048691Y0073712D01*
X0048691Y0074196D01*
X0046756Y0076131D01*
X0048691Y0076131D01*
X0049703Y0074680D02*
X0051638Y0074680D01*
X0050670Y0073712D02*
X0050670Y0075647D01*
X0043810Y0076131D02*
X0043810Y0073229D01*
X0040834Y0074680D02*
X0038899Y0074680D01*
X0038899Y0061131D02*
X0038899Y0059196D01*
X0039866Y0058229D01*
X0040834Y0059196D01*
X0040834Y0061131D01*
X0041845Y0061131D02*
X0042813Y0061131D01*
X0042329Y0061131D02*
X0042329Y0058229D01*
X0041845Y0058229D02*
X0042813Y0058229D01*
X0043810Y0058229D02*
X0045745Y0061131D01*
X0045745Y0058229D01*
X0046756Y0059196D02*
X0047724Y0058229D01*
X0047724Y0061131D01*
X0048691Y0061131D02*
X0046756Y0061131D01*
X0043810Y0061131D02*
X0043810Y0058229D01*
X0040834Y0059680D02*
X0038899Y0059680D01*
X0049703Y0059680D02*
X0051638Y0059680D01*
X0048691Y0046731D02*
X0046756Y0046731D01*
X0047724Y0046731D02*
X0047724Y0043829D01*
X0046756Y0044796D01*
X0045745Y0043829D02*
X0045745Y0046731D01*
X0043810Y0043829D01*
X0043810Y0046731D01*
X0042813Y0046731D02*
X0041845Y0046731D01*
X0042329Y0046731D02*
X0042329Y0043829D01*
X0041845Y0043829D02*
X0042813Y0043829D01*
X0040834Y0044796D02*
X0040834Y0046731D01*
X0040834Y0045280D02*
X0038899Y0045280D01*
X0038899Y0044796D02*
X0039866Y0043829D01*
X0040834Y0044796D01*
X0038899Y0044796D02*
X0038899Y0046731D01*
X0049703Y0045280D02*
X0051638Y0045280D01*
X0050670Y0044312D02*
X0050670Y0046247D01*
D816*
X0209965Y0043008D02*
X0209965Y0023913D01*
X0350981Y0023913D01*
X0350981Y0043008D01*
X0209965Y0043008D01*
X0209965Y0268165D02*
X0209965Y0287260D01*
X0350981Y0287260D01*
X0350981Y0268165D01*
X0209965Y0268165D01*
D817*
X0352665Y0271707D02*
X0353266Y0271106D01*
X0354467Y0271106D01*
X0355067Y0271707D01*
X0355067Y0272307D01*
X0352665Y0274709D01*
X0355067Y0274709D01*
X0354055Y0280941D02*
X0354055Y0284544D01*
X0352854Y0284544D02*
X0355256Y0284544D01*
X0352854Y0282142D02*
X0354055Y0280941D01*
X0354055Y0040292D02*
X0354055Y0036689D01*
X0352854Y0037890D01*
X0352854Y0040292D02*
X0355256Y0040292D01*
X0355067Y0030457D02*
X0352665Y0030457D01*
X0355067Y0028055D01*
X0355067Y0027455D01*
X0354467Y0026854D01*
X0353266Y0026854D01*
X0352665Y0027455D01*
M02*
