G75*
%MOIN*%
%OFA0B0*%
%FSLAX25Y25*%
%IPPOS*%
%LPD*%
%AMOC8*
5,1,8,0,0,1.08239X$1,22.5*
%
%ADD10R,0.06406X0.06406*%
%ADD11OC8,0.06406*%
%ADD12C,0.08768*%
%ADD13C,0.00500*%
%ADD14OC8,0.06996*%
%ADD15OC8,0.10500*%
%ADD16C,0.12311*%
%ADD17C,0.08177*%
%ADD18C,0.05500*%
D10*
X0345473Y0038461D03*
X0345473Y0282713D03*
D11*
X0335473Y0282713D03*
X0325473Y0282713D03*
X0315473Y0282713D03*
X0305473Y0282713D03*
X0295473Y0282713D03*
X0285473Y0282713D03*
X0275473Y0282713D03*
X0265473Y0282713D03*
X0255473Y0282713D03*
X0245473Y0282713D03*
X0235473Y0282713D03*
X0225473Y0282713D03*
X0215473Y0282713D03*
X0215473Y0272713D03*
X0225473Y0272713D03*
X0235473Y0272713D03*
X0245473Y0272713D03*
X0255473Y0272713D03*
X0265473Y0272713D03*
X0275473Y0272713D03*
X0285473Y0272713D03*
X0295473Y0272713D03*
X0305473Y0272713D03*
X0315473Y0272713D03*
X0325473Y0272713D03*
X0335473Y0272713D03*
X0345473Y0272713D03*
X0335473Y0038461D03*
X0325473Y0038461D03*
X0315473Y0038461D03*
X0305473Y0038461D03*
X0295473Y0038461D03*
X0285473Y0038461D03*
X0275473Y0038461D03*
X0265473Y0038461D03*
X0255473Y0038461D03*
X0245473Y0038461D03*
X0235473Y0038461D03*
X0225473Y0038461D03*
X0215473Y0038461D03*
X0215473Y0028461D03*
X0225473Y0028461D03*
X0235473Y0028461D03*
X0245473Y0028461D03*
X0255473Y0028461D03*
X0265473Y0028461D03*
X0275473Y0028461D03*
X0285473Y0028461D03*
X0295473Y0028461D03*
X0305473Y0028461D03*
X0315473Y0028461D03*
X0325473Y0028461D03*
X0335473Y0028461D03*
X0345473Y0028461D03*
D12*
X0032796Y0045016D03*
X0032796Y0060016D03*
X0032796Y0075016D03*
X0032796Y0090016D03*
X0032796Y0105016D03*
X0032796Y0120016D03*
X0032796Y0135016D03*
X0032796Y0150016D03*
D13*
X0016590Y0024788D02*
X0017304Y0024288D01*
X0018094Y0023920D01*
X0018936Y0023694D01*
X0019804Y0023618D01*
X0020672Y0023694D01*
X0021514Y0023920D01*
X0022304Y0024288D01*
X0023018Y0024788D01*
X0023634Y0025404D01*
X0024134Y0026118D01*
X0024502Y0026908D01*
X0024728Y0027750D01*
X0024804Y0028618D01*
X0024728Y0029486D01*
X0024502Y0030328D01*
X0024134Y0031118D01*
X0023634Y0031832D01*
X0023018Y0032448D01*
X0022304Y0032948D01*
X0021514Y0033317D01*
X0020672Y0033542D01*
X0019804Y0033618D01*
X0018936Y0033542D01*
X0018094Y0033317D01*
X0017304Y0032948D01*
X0016590Y0032448D01*
X0015974Y0031832D01*
X0015474Y0031118D01*
X0015105Y0030328D01*
X0014880Y0029486D01*
X0014804Y0028618D01*
X0014880Y0027750D01*
X0015105Y0026908D01*
X0015474Y0026118D01*
X0015974Y0025404D01*
X0016590Y0024788D01*
X0016743Y0024681D02*
X0022865Y0024681D01*
X0023410Y0025180D02*
X0016198Y0025180D01*
X0015782Y0025678D02*
X0023826Y0025678D01*
X0024161Y0026177D02*
X0015447Y0026177D01*
X0015214Y0026675D02*
X0024394Y0026675D01*
X0024574Y0027174D02*
X0015034Y0027174D01*
X0014901Y0027672D02*
X0024707Y0027672D01*
X0024765Y0028171D02*
X0014843Y0028171D01*
X0014808Y0028669D02*
X0024799Y0028669D01*
X0024756Y0029168D02*
X0014852Y0029168D01*
X0014928Y0029666D02*
X0024680Y0029666D01*
X0024546Y0030165D02*
X0015062Y0030165D01*
X0015262Y0030663D02*
X0024346Y0030663D01*
X0024104Y0031162D02*
X0015504Y0031162D01*
X0015853Y0031660D02*
X0023754Y0031660D01*
X0023307Y0032159D02*
X0016300Y0032159D01*
X0016888Y0032657D02*
X0022719Y0032657D01*
X0021859Y0033156D02*
X0017749Y0033156D01*
X0017530Y0024183D02*
X0022078Y0024183D01*
X0020558Y0023684D02*
X0019050Y0023684D01*
X0503780Y0028618D02*
X0503856Y0029486D01*
X0504082Y0030328D01*
X0504450Y0031118D01*
X0504950Y0031832D01*
X0505566Y0032448D01*
X0506280Y0032948D01*
X0507070Y0033317D01*
X0507912Y0033542D01*
X0508780Y0033618D01*
X0509649Y0033542D01*
X0510490Y0033317D01*
X0511280Y0032948D01*
X0511994Y0032448D01*
X0512611Y0031832D01*
X0513110Y0031118D01*
X0513479Y0030328D01*
X0513704Y0029486D01*
X0513780Y0028618D01*
X0513704Y0027750D01*
X0513479Y0026908D01*
X0513110Y0026118D01*
X0512611Y0025404D01*
X0511994Y0024788D01*
X0511280Y0024288D01*
X0510490Y0023920D01*
X0509649Y0023694D01*
X0508780Y0023618D01*
X0507912Y0023694D01*
X0507070Y0023920D01*
X0506280Y0024288D01*
X0505566Y0024788D01*
X0504950Y0025404D01*
X0504450Y0026118D01*
X0504082Y0026908D01*
X0503856Y0027750D01*
X0503780Y0028618D01*
X0503785Y0028669D02*
X0513776Y0028669D01*
X0513741Y0028171D02*
X0503819Y0028171D01*
X0503877Y0027672D02*
X0513684Y0027672D01*
X0513550Y0027174D02*
X0504011Y0027174D01*
X0504190Y0026675D02*
X0513370Y0026675D01*
X0513138Y0026177D02*
X0504423Y0026177D01*
X0504758Y0025678D02*
X0512802Y0025678D01*
X0512386Y0025180D02*
X0505175Y0025180D01*
X0505719Y0024681D02*
X0511842Y0024681D01*
X0511054Y0024183D02*
X0506506Y0024183D01*
X0508026Y0023684D02*
X0509534Y0023684D01*
X0513732Y0029168D02*
X0503828Y0029168D01*
X0503904Y0029666D02*
X0513656Y0029666D01*
X0513523Y0030165D02*
X0504038Y0030165D01*
X0504238Y0030663D02*
X0513323Y0030663D01*
X0513080Y0031162D02*
X0504481Y0031162D01*
X0504830Y0031660D02*
X0512731Y0031660D01*
X0512284Y0032159D02*
X0505277Y0032159D01*
X0505865Y0032657D02*
X0511696Y0032657D01*
X0510835Y0033156D02*
X0506725Y0033156D01*
X0510749Y0277555D02*
X0509881Y0277631D01*
X0509039Y0277857D01*
X0508249Y0278225D01*
X0507535Y0278725D01*
X0506919Y0279341D01*
X0506419Y0280055D01*
X0506050Y0280845D01*
X0505825Y0281687D01*
X0505749Y0282555D01*
X0505825Y0283423D01*
X0506050Y0284265D01*
X0506419Y0285055D01*
X0506919Y0285769D01*
X0507535Y0286385D01*
X0508249Y0286885D01*
X0509039Y0287254D01*
X0509881Y0287479D01*
X0510749Y0287555D01*
X0511617Y0287479D01*
X0512459Y0287254D01*
X0513249Y0286885D01*
X0513963Y0286385D01*
X0514579Y0285769D01*
X0515079Y0285055D01*
X0515447Y0284265D01*
X0515673Y0283423D01*
X0515749Y0282555D01*
X0515673Y0281687D01*
X0515447Y0280845D01*
X0515079Y0280055D01*
X0514579Y0279341D01*
X0513963Y0278725D01*
X0513249Y0278225D01*
X0512459Y0277857D01*
X0511617Y0277631D01*
X0510749Y0277555D01*
X0512605Y0277925D02*
X0508892Y0277925D01*
X0507966Y0278423D02*
X0513532Y0278423D01*
X0514160Y0278922D02*
X0507338Y0278922D01*
X0506863Y0279420D02*
X0514635Y0279420D01*
X0514984Y0279919D02*
X0506514Y0279919D01*
X0506250Y0280417D02*
X0515248Y0280417D01*
X0515466Y0280916D02*
X0506031Y0280916D01*
X0505898Y0281414D02*
X0515600Y0281414D01*
X0515693Y0281913D02*
X0505805Y0281913D01*
X0505761Y0282411D02*
X0515736Y0282411D01*
X0515718Y0282910D02*
X0505780Y0282910D01*
X0505823Y0283408D02*
X0515674Y0283408D01*
X0515543Y0283907D02*
X0505954Y0283907D01*
X0506116Y0284405D02*
X0515382Y0284405D01*
X0515149Y0284904D02*
X0506348Y0284904D01*
X0506662Y0285403D02*
X0514836Y0285403D01*
X0514447Y0285901D02*
X0507051Y0285901D01*
X0507555Y0286400D02*
X0513942Y0286400D01*
X0513221Y0286898D02*
X0508276Y0286898D01*
X0509572Y0287397D02*
X0511925Y0287397D01*
D14*
X0415499Y0060031D03*
D15*
X0311790Y0209931D03*
X0311740Y0246481D03*
X0223157Y0246481D03*
X0223207Y0209931D03*
X0095699Y0148422D03*
X0059099Y0148422D03*
X0059099Y0059840D03*
X0095699Y0059840D03*
D16*
X0102735Y0190617D03*
X0122578Y0190617D03*
X0142420Y0190617D03*
X0142420Y0220145D03*
X0122578Y0220145D03*
X0102735Y0220145D03*
X0340035Y0225717D03*
X0359878Y0225717D03*
X0379720Y0225717D03*
X0379720Y0255245D03*
X0359878Y0255245D03*
X0340035Y0255245D03*
D17*
X0439799Y0255245D03*
X0439799Y0240481D03*
X0439799Y0225717D03*
X0202499Y0220145D03*
X0202499Y0205381D03*
X0202499Y0190617D03*
D18*
X0382299Y0190368D03*
X0382299Y0182494D03*
X0263636Y0084981D03*
X0255762Y0084981D03*
M02*
