%
M48
M72
T01C0.01575
T02C0.03150
T03C0.03937
T04C0.04331
T05C0.05118
T06C0.05512
T07C0.05906
%
T01
X154399Y47381
X156761Y71469
X158249Y97631
X134249Y112931
X134249Y115931
X134249Y118931
X131249Y118931
X131249Y115931
X131249Y112931
X114749Y112731
X114749Y115881
X114749Y118981
X111599Y118981
X111599Y115881
X111599Y112731
X77399Y110781
X108799Y139031
X111949Y139031
X111949Y142181
X108799Y142181
X115149Y142181
X115149Y139031
X118199Y155281
X121349Y155281
X124499Y155281
X127649Y155281
X127649Y158431
X124499Y158431
X121349Y158431
X118199Y158431
X136349Y174181
X127599Y178381
X124349Y178381
X121149Y178381
X117899Y178381
X165599Y163031
X157999Y141481
X147799Y131531
X190549Y123631
X204699Y123631
X230449Y134831
X233499Y134831
X226549Y143631
X223599Y147531
X224049Y162631
X228249Y163081
X247799Y165931
X254449Y165081
X261849Y171681
X274849Y161031
X264749Y151531
X289749Y150681
X299799Y156381
X303599Y152781
X301599Y145181
X330699Y142131
X337749Y145431
X340699Y141731
X345699Y133131
X368674Y134156
X375949Y134631
X379999Y142281
X368399Y145481
X363349Y149481
X369199Y153081
X355299Y151181
X340699Y151931
X334149Y165431
X345699Y171681
X353149Y167581
X366149Y173781
X370749Y166781
X357099Y179481
X367599Y189381
X345549Y195881
X341699Y203231
X333449Y191431
X320449Y195881
X303099Y206231
X282549Y215481
X306799Y222331
X306799Y225281
X306799Y228231
X306799Y231181
X306799Y234131
X309949Y234131
X309949Y231181
X309949Y228281
X309949Y225231
X309949Y222331
X325249Y221081
X325249Y217931
X325249Y214831
X328399Y214831
X331549Y214831
X331549Y217981
X331549Y221131
X331549Y224231
X328399Y224231
X328399Y221131
X328399Y217981
X325249Y224231
X292299Y239231
X294949Y242331
X294049Y246431
X289499Y245081
X285399Y241531
X294149Y253231
X281549Y254181
X258349Y251131
X255199Y247331
X244399Y254631
X241349Y257431
X206299Y282931
X203149Y282931
X199999Y282931
X189499Y275531
X186349Y272331
X195199Y227831
X257949Y206781
X263949Y196681
X251549Y186631
X281899Y178381
X285099Y178381
X307749Y171681
X320399Y166831
X337749Y176731
X402649Y148831
X398799Y129781
X408649Y126531
X388199Y118681
X392099Y113181
X403049Y113181
X409199Y114381
X406149Y105481
X402849Y102331
X392099Y102331
X388249Y96281
X371299Y92131
X373399Y85831
X371049Y82281
X369899Y75831
X362649Y75831
X350949Y72631
X345299Y61831
X330199Y73081
X322699Y64531
X307749Y61681
X286749Y61531
X272349Y75481
X292599Y82681
X282749Y87981
X278399Y86481
X286749Y92181
X302599Y99481
X315149Y98581
X319599Y100081
X330349Y91081
X338899Y101781
X345499Y92631
X388149Y84481
X394299Y78281
X388899Y70981
X388949Y66981
X381399Y55831
X365749Y53731
X371799Y45281
X371799Y64631
X407549Y74281
X434249Y60581
X445849Y54831
X448149Y63531
X448599Y73681
X458749Y73281
X458749Y80331
X452199Y80381
X451949Y88081
X447899Y99131
X454999Y99331
X468149Y92881
X484399Y105481
X498299Y97581
X508599Y102781
X501099Y107781
X503899Y110631
X511149Y111481
X509549Y115481
X509099Y119481
X497099Y115731
X484549Y122581
X480899Y126431
X480899Y129631
X480899Y132831
X477699Y132831
X477699Y129631
X477699Y126431
X500349Y131831
X511149Y136131
X507599Y146481
X500749Y146531
X488699Y154381
X499699Y157931
X507099Y155131
X482199Y162731
X470649Y160531
X460649Y164581
X453849Y171281
X457249Y175181
X468699Y181481
X478499Y179231
X478499Y176081
X478499Y172931
X470599Y173981
X451549Y161231
X447499Y169081
X444399Y169081
X434249Y186681
X368949Y216181
X368949Y219381
X368949Y222581
X368949Y225781
X335049Y258831
X332599Y262081
X478999Y261381
X507749Y199381
X510899Y199381
X509349Y180031
X468649Y146131
X473649Y145731
X438449Y119781
X438399Y115731
X458799Y112881
X464749Y112931
X418499Y96681
X466199Y60831
X466199Y57781
X478949Y50781
X478949Y48031
X489699Y57481
X489699Y60581
X498149Y81181
X511949Y98181
X430249Y52381
X423349Y53331
X307749Y45281
X243149Y75931
X243199Y79931
X226199Y73681
X226199Y70531
X219199Y61881
X213449Y58431
X241599Y92181
X235249Y100681
X219999Y97231
X215649Y96481
X236049Y112931
X267449Y116381
X19099Y135531
X19099Y138731
X19099Y141931
X15899Y141931
X15899Y138731
X15899Y135531
T02
X255762Y84981
X263636Y84981
X382249Y198094
X382249Y205968
T03
X345473Y272713
X335473Y272713
X325473Y272713
X315473Y272713
X305473Y272713
X295473Y272713
X285473Y272713
X275473Y272713
X265473Y272713
X255473Y272713
X245473Y272713
X235473Y272713
X225473Y272713
X215473Y272713
X215473Y282713
X225473Y282713
X235473Y282713
X245473Y282713
X255473Y282713
X265473Y282713
X275473Y282713
X285473Y282713
X295473Y282713
X305473Y282713
X315473Y282713
X325473Y282713
X335473Y282713
X345473Y282713
X345473Y38461
X335473Y38461
X325473Y38461
X315473Y38461
X305473Y38461
X295473Y38461
X285473Y38461
X275473Y38461
X265473Y38461
X255473Y38461
X245473Y38461
X235473Y38461
X225473Y38461
X215473Y38461
X215473Y28461
X225473Y28461
X235473Y28461
X245473Y28461
X255473Y28461
X265473Y28461
X275473Y28461
X285473Y28461
X295473Y28461
X305473Y28461
X315473Y28461
X325473Y28461
X335473Y28461
X345473Y28461
T04
X415499Y60031
T05
X202499Y190617
X202499Y205381
X202499Y220145
X142420Y220145
X122578Y220145
X102735Y220145
X102735Y190617
X122578Y190617
X142420Y190617
X362785Y239967
X382628Y239967
X402470Y239967
X402470Y269495
X382628Y269495
X362785Y269495
X462549Y269495
X462549Y254731
X462549Y239967
T06
X32796Y45016
X32796Y60016
X32796Y75016
X32796Y90016
X32796Y105016
X32796Y120016
X32796Y135016
X32796Y150016
T07
X59099Y148422
X95699Y148422
X223207Y209931
X223157Y246481
X311740Y246481
X311790Y209931
X95699Y59840
X59099Y59840
M30
