G75*
%MOIN*%
%OFA0B0*%
%FSLAX25Y25*%
%IPPOS*%
%LPD*%
%AMOC8*
5,1,8,0,0,1.08239X$1,22.5*
%
%ADD10R,0.10000X0.20000*%
%ADD11C,0.05906*%
%ADD12C,0.08268*%
%ADD13C,0.06496*%
%ADD14C,0.08858*%
%ADD15C,0.07677*%
%ADD16C,0.04724*%
%ADD17C,0.03175*%
%ADD18C,0.02400*%
%ADD19C,0.03200*%
%ADD20C,0.00800*%
%ADD21C,0.01600*%
%ADD22C,0.07600*%
%ADD23C,0.01000*%
D10*
X0027749Y0182681D03*
X0057749Y0182681D03*
X0087749Y0182681D03*
X0067749Y0212681D03*
X0037749Y0212681D03*
X0027749Y0242681D03*
X0057749Y0242681D03*
X0087749Y0242681D03*
X0097749Y0272681D03*
X0067749Y0272681D03*
X0037749Y0272681D03*
X0127749Y0272681D03*
X0157749Y0272681D03*
X0434749Y0219931D03*
X0464749Y0219931D03*
X0494749Y0219931D03*
D11*
X0345473Y0272713D03*
X0335473Y0272713D03*
X0325473Y0272713D03*
X0315473Y0272713D03*
X0305473Y0272713D03*
X0295473Y0272713D03*
X0285473Y0272713D03*
X0275473Y0272713D03*
X0265473Y0272713D03*
X0255473Y0272713D03*
X0245473Y0272713D03*
X0235473Y0272713D03*
X0225473Y0272713D03*
X0215473Y0272713D03*
X0215473Y0282713D03*
X0225473Y0282713D03*
X0235473Y0282713D03*
X0245473Y0282713D03*
X0255473Y0282713D03*
X0265473Y0282713D03*
X0275473Y0282713D03*
X0285473Y0282713D03*
X0295473Y0282713D03*
X0305473Y0282713D03*
X0315473Y0282713D03*
X0325473Y0282713D03*
X0335473Y0282713D03*
X0345473Y0282713D03*
X0345473Y0038461D03*
X0335473Y0038461D03*
X0325473Y0038461D03*
X0315473Y0038461D03*
X0305473Y0038461D03*
X0295473Y0038461D03*
X0285473Y0038461D03*
X0275473Y0038461D03*
X0265473Y0038461D03*
X0255473Y0038461D03*
X0245473Y0038461D03*
X0235473Y0038461D03*
X0225473Y0038461D03*
X0215473Y0038461D03*
X0215473Y0028461D03*
X0225473Y0028461D03*
X0235473Y0028461D03*
X0245473Y0028461D03*
X0255473Y0028461D03*
X0265473Y0028461D03*
X0275473Y0028461D03*
X0285473Y0028461D03*
X0295473Y0028461D03*
X0305473Y0028461D03*
X0315473Y0028461D03*
X0325473Y0028461D03*
X0335473Y0028461D03*
X0345473Y0028461D03*
D12*
X0032796Y0045016D03*
X0032796Y0060016D03*
X0032796Y0075016D03*
X0032796Y0090016D03*
X0032796Y0105016D03*
X0032796Y0120016D03*
X0032796Y0135016D03*
X0032796Y0150016D03*
D13*
X0415499Y0060031D03*
D14*
X0311790Y0209931D03*
X0311740Y0246481D03*
X0223157Y0246481D03*
X0223207Y0209931D03*
X0095699Y0148422D03*
X0059099Y0148422D03*
X0059099Y0059840D03*
X0095699Y0059840D03*
D15*
X0102735Y0190617D03*
X0122578Y0190617D03*
X0142420Y0190617D03*
X0142420Y0220145D03*
X0122578Y0220145D03*
X0102735Y0220145D03*
X0202499Y0220145D03*
X0202499Y0205381D03*
X0202499Y0190617D03*
X0362785Y0239967D03*
X0382628Y0239967D03*
X0402470Y0239967D03*
X0402470Y0269495D03*
X0382628Y0269495D03*
X0362785Y0269495D03*
X0462549Y0269495D03*
X0462549Y0254731D03*
X0462549Y0239967D03*
D16*
X0382249Y0205968D03*
X0382249Y0198094D03*
X0263636Y0084981D03*
X0255762Y0084981D03*
D17*
X0243199Y0079931D03*
X0243149Y0075931D03*
X0226199Y0073681D03*
X0226199Y0070531D03*
X0219199Y0061881D03*
X0213449Y0058431D03*
X0156761Y0071469D03*
X0154399Y0047381D03*
X0241599Y0092181D03*
X0235249Y0100681D03*
X0219999Y0097231D03*
X0215649Y0096481D03*
X0236049Y0112931D03*
X0267449Y0116381D03*
X0302599Y0099481D03*
X0315149Y0098581D03*
X0319599Y0100081D03*
X0330349Y0091081D03*
X0338899Y0101781D03*
X0345499Y0092631D03*
X0371299Y0092131D03*
X0373399Y0085831D03*
X0371049Y0082281D03*
X0369899Y0075831D03*
X0362649Y0075831D03*
X0350949Y0072631D03*
X0345299Y0061831D03*
X0330199Y0073081D03*
X0322699Y0064531D03*
X0307749Y0061681D03*
X0286749Y0061531D03*
X0272349Y0075481D03*
X0292599Y0082681D03*
X0282749Y0087981D03*
X0278399Y0086481D03*
X0286749Y0092181D03*
X0345699Y0133131D03*
X0340699Y0141731D03*
X0337749Y0145431D03*
X0330699Y0142131D03*
X0340699Y0151931D03*
X0355299Y0151181D03*
X0363349Y0149481D03*
X0369199Y0153081D03*
X0368399Y0145481D03*
X0379999Y0142281D03*
X0375949Y0134631D03*
X0368674Y0134156D03*
X0388199Y0118681D03*
X0392099Y0113181D03*
X0403049Y0113181D03*
X0409199Y0114381D03*
X0406149Y0105481D03*
X0402849Y0102331D03*
X0392099Y0102331D03*
X0388249Y0096281D03*
X0388149Y0084481D03*
X0394299Y0078281D03*
X0388899Y0070981D03*
X0388949Y0066981D03*
X0381399Y0055831D03*
X0365749Y0053731D03*
X0371799Y0045281D03*
X0371799Y0064631D03*
X0407549Y0074281D03*
X0434249Y0060581D03*
X0445849Y0054831D03*
X0448149Y0063531D03*
X0448599Y0073681D03*
X0458749Y0073281D03*
X0458749Y0080331D03*
X0452199Y0080381D03*
X0451949Y0088081D03*
X0447899Y0099131D03*
X0454999Y0099331D03*
X0468149Y0092881D03*
X0484399Y0105481D03*
X0498299Y0097581D03*
X0508599Y0102781D03*
X0501099Y0107781D03*
X0503899Y0110631D03*
X0511149Y0111481D03*
X0509549Y0115481D03*
X0509099Y0119481D03*
X0497099Y0115731D03*
X0484549Y0122581D03*
X0480899Y0126431D03*
X0480899Y0129631D03*
X0480899Y0132831D03*
X0477699Y0132831D03*
X0477699Y0129631D03*
X0477699Y0126431D03*
X0500349Y0131831D03*
X0511149Y0136131D03*
X0507599Y0146481D03*
X0500749Y0146531D03*
X0488699Y0154381D03*
X0499699Y0157931D03*
X0507099Y0155131D03*
X0482199Y0162731D03*
X0470649Y0160531D03*
X0460649Y0164581D03*
X0453849Y0171281D03*
X0457249Y0175181D03*
X0468699Y0181481D03*
X0478499Y0179231D03*
X0478499Y0176081D03*
X0478499Y0172931D03*
X0470599Y0173981D03*
X0451549Y0161231D03*
X0447499Y0169081D03*
X0444399Y0169081D03*
X0434249Y0186681D03*
X0370749Y0166781D03*
X0366149Y0173781D03*
X0357099Y0179481D03*
X0345699Y0171681D03*
X0353149Y0167581D03*
X0337749Y0176731D03*
X0334149Y0165431D03*
X0320399Y0166831D03*
X0307749Y0171681D03*
X0285099Y0178381D03*
X0281899Y0178381D03*
X0261849Y0171681D03*
X0254449Y0165081D03*
X0247799Y0165931D03*
X0228249Y0163081D03*
X0224049Y0162631D03*
X0223599Y0147531D03*
X0226549Y0143631D03*
X0230449Y0134831D03*
X0233499Y0134831D03*
X0264749Y0151531D03*
X0274849Y0161031D03*
X0289749Y0150681D03*
X0299799Y0156381D03*
X0303599Y0152781D03*
X0301599Y0145181D03*
X0251549Y0186631D03*
X0263949Y0196681D03*
X0257949Y0206781D03*
X0282549Y0215481D03*
X0303099Y0206231D03*
X0320449Y0195881D03*
X0333449Y0191431D03*
X0345549Y0195881D03*
X0341699Y0203231D03*
X0331549Y0214831D03*
X0331549Y0217981D03*
X0331549Y0221131D03*
X0331549Y0224231D03*
X0328399Y0224231D03*
X0328399Y0221131D03*
X0328399Y0217981D03*
X0328399Y0214831D03*
X0325249Y0214831D03*
X0325249Y0217931D03*
X0325249Y0221081D03*
X0325249Y0224231D03*
X0309949Y0225231D03*
X0309949Y0222331D03*
X0306799Y0222331D03*
X0306799Y0225281D03*
X0306799Y0228231D03*
X0306799Y0231181D03*
X0306799Y0234131D03*
X0309949Y0234131D03*
X0309949Y0231181D03*
X0309949Y0228281D03*
X0292299Y0239231D03*
X0294949Y0242331D03*
X0294049Y0246431D03*
X0289499Y0245081D03*
X0285399Y0241531D03*
X0294149Y0253231D03*
X0281549Y0254181D03*
X0258349Y0251131D03*
X0255199Y0247331D03*
X0244399Y0254631D03*
X0241349Y0257431D03*
X0206299Y0282931D03*
X0203149Y0282931D03*
X0199999Y0282931D03*
X0189499Y0275531D03*
X0186349Y0272331D03*
X0195199Y0227831D03*
X0127599Y0178381D03*
X0124349Y0178381D03*
X0121149Y0178381D03*
X0117899Y0178381D03*
X0136349Y0174181D03*
X0127649Y0158431D03*
X0127649Y0155281D03*
X0124499Y0155281D03*
X0124499Y0158431D03*
X0121349Y0158431D03*
X0121349Y0155281D03*
X0118199Y0155281D03*
X0118199Y0158431D03*
X0115149Y0142181D03*
X0115149Y0139031D03*
X0111949Y0139031D03*
X0111949Y0142181D03*
X0108799Y0142181D03*
X0108799Y0139031D03*
X0111599Y0118981D03*
X0111599Y0115881D03*
X0114749Y0115881D03*
X0114749Y0118981D03*
X0114749Y0112731D03*
X0111599Y0112731D03*
X0131249Y0112931D03*
X0134249Y0112931D03*
X0134249Y0115931D03*
X0134249Y0118931D03*
X0131249Y0118931D03*
X0131249Y0115931D03*
X0147799Y0131531D03*
X0157999Y0141481D03*
X0190549Y0123631D03*
X0204699Y0123631D03*
X0158249Y0097631D03*
X0077399Y0110781D03*
X0019099Y0135531D03*
X0019099Y0138731D03*
X0019099Y0141931D03*
X0015899Y0141931D03*
X0015899Y0138731D03*
X0015899Y0135531D03*
X0165599Y0163031D03*
X0335049Y0258831D03*
X0332599Y0262081D03*
X0368949Y0225781D03*
X0368949Y0222581D03*
X0368949Y0219381D03*
X0368949Y0216181D03*
X0367599Y0189381D03*
X0402649Y0148831D03*
X0398799Y0129781D03*
X0408649Y0126531D03*
X0438449Y0119781D03*
X0438399Y0115731D03*
X0458799Y0112881D03*
X0464749Y0112931D03*
X0418499Y0096681D03*
X0466199Y0060831D03*
X0466199Y0057781D03*
X0478949Y0050781D03*
X0478949Y0048031D03*
X0489699Y0057481D03*
X0489699Y0060581D03*
X0498149Y0081181D03*
X0511949Y0098181D03*
X0473649Y0145731D03*
X0468649Y0146131D03*
X0509349Y0180031D03*
X0510899Y0199381D03*
X0507749Y0199381D03*
X0478999Y0261381D03*
X0423349Y0053331D03*
X0430249Y0052381D03*
X0307749Y0045281D03*
D18*
X0280499Y0041031D02*
X0280499Y0033486D01*
X0275473Y0028461D01*
X0260449Y0033436D02*
X0260449Y0041031D01*
X0260449Y0033436D02*
X0255473Y0028461D01*
D19*
X0255473Y0038461D02*
X0255473Y0041756D01*
X0271049Y0057331D01*
X0356999Y0057331D01*
X0362649Y0062981D01*
X0362649Y0075831D01*
X0362649Y0125031D01*
X0345949Y0141731D01*
X0340699Y0141731D01*
X0340699Y0151931D02*
X0341449Y0151931D01*
X0366899Y0126481D01*
X0366899Y0076031D01*
X0366899Y0061131D01*
X0359049Y0053281D01*
X0272699Y0053281D01*
X0260449Y0041031D01*
X0275473Y0041656D02*
X0275473Y0038461D01*
X0275473Y0041656D02*
X0283099Y0049281D01*
X0427149Y0049281D01*
X0430249Y0052381D01*
X0434249Y0048981D02*
X0434249Y0060581D01*
X0434249Y0186681D01*
X0502699Y0186681D01*
X0509349Y0180031D01*
X0507749Y0199381D02*
X0437799Y0199381D01*
X0426299Y0187881D01*
X0426299Y0056281D01*
X0423349Y0053331D01*
X0391249Y0053331D01*
X0379999Y0064581D01*
X0379999Y0142281D01*
X0383999Y0153531D02*
X0370749Y0166781D01*
X0383999Y0153531D02*
X0383999Y0081031D01*
X0386749Y0078281D01*
X0394299Y0078281D01*
X0369899Y0075831D02*
X0367099Y0075831D01*
X0366899Y0076031D01*
X0371799Y0045281D02*
X0307749Y0045281D01*
X0284749Y0045281D01*
X0280499Y0041031D01*
X0307749Y0061681D02*
X0307749Y0171681D01*
X0286749Y0092181D02*
X0241599Y0092181D01*
X0371799Y0045281D02*
X0430549Y0045281D01*
X0434249Y0048981D01*
D20*
X0433159Y0043931D02*
X0449986Y0043931D01*
X0450236Y0043681D01*
X0451786Y0042131D01*
X0492062Y0042131D01*
X0492999Y0043068D01*
X0496749Y0046818D01*
X0496749Y0047431D01*
X0496749Y0094181D01*
X0487249Y0103681D01*
X0487249Y0106681D01*
X0481999Y0111931D01*
X0477249Y0111931D01*
X0476499Y0112681D01*
X0476499Y0123911D01*
X0477144Y0123644D01*
X0478253Y0123644D01*
X0479278Y0124068D01*
X0479299Y0124089D01*
X0479320Y0124068D01*
X0480344Y0123644D01*
X0481453Y0123644D01*
X0482079Y0123903D01*
X0481761Y0123136D01*
X0481761Y0122027D01*
X0482186Y0121002D01*
X0482970Y0120218D01*
X0483994Y0119794D01*
X0485103Y0119794D01*
X0486128Y0120218D01*
X0486912Y0121002D01*
X0487336Y0122027D01*
X0487336Y0123136D01*
X0486912Y0124160D01*
X0486128Y0124944D01*
X0485103Y0125368D01*
X0483994Y0125368D01*
X0483368Y0125109D01*
X0483686Y0125877D01*
X0483686Y0126986D01*
X0483262Y0128010D01*
X0483241Y0128031D01*
X0483262Y0128052D01*
X0483686Y0129077D01*
X0483686Y0130186D01*
X0483262Y0131210D01*
X0483241Y0131231D01*
X0483262Y0131252D01*
X0483686Y0132277D01*
X0483686Y0133386D01*
X0483262Y0134410D01*
X0482478Y0135194D01*
X0481453Y0135618D01*
X0480344Y0135618D01*
X0479320Y0135194D01*
X0479299Y0135173D01*
X0479278Y0135194D01*
X0478253Y0135618D01*
X0477144Y0135618D01*
X0476499Y0135351D01*
X0476499Y0159168D01*
X0477262Y0159931D01*
X0497757Y0159931D01*
X0497336Y0159510D01*
X0496911Y0158486D01*
X0496911Y0157377D01*
X0497336Y0156352D01*
X0498120Y0155568D01*
X0499144Y0155144D01*
X0500253Y0155144D01*
X0501278Y0155568D01*
X0502062Y0156352D01*
X0502486Y0157377D01*
X0502486Y0158486D01*
X0502062Y0159510D01*
X0501641Y0159931D01*
X0515026Y0159931D01*
X0515026Y0026256D01*
X0515002Y0025956D01*
X0514817Y0025387D01*
X0514465Y0024902D01*
X0513980Y0024550D01*
X0513411Y0024365D01*
X0513111Y0024341D01*
X0346379Y0024341D01*
X0347826Y0024940D01*
X0348994Y0026108D01*
X0349626Y0027635D01*
X0349626Y0029287D01*
X0348994Y0030813D01*
X0347826Y0031981D01*
X0346299Y0032613D01*
X0344647Y0032613D01*
X0343121Y0031981D01*
X0341953Y0030813D01*
X0341320Y0029287D01*
X0341320Y0027635D01*
X0341953Y0026108D01*
X0343121Y0024940D01*
X0344567Y0024341D01*
X0336379Y0024341D01*
X0337826Y0024940D01*
X0338994Y0026108D01*
X0339626Y0027635D01*
X0339626Y0029287D01*
X0338994Y0030813D01*
X0337826Y0031981D01*
X0336299Y0032613D01*
X0334647Y0032613D01*
X0333121Y0031981D01*
X0331953Y0030813D01*
X0331320Y0029287D01*
X0331320Y0027635D01*
X0331953Y0026108D01*
X0333121Y0024940D01*
X0334567Y0024341D01*
X0326379Y0024341D01*
X0327826Y0024940D01*
X0328994Y0026108D01*
X0329626Y0027635D01*
X0329626Y0029287D01*
X0328994Y0030813D01*
X0327826Y0031981D01*
X0326299Y0032613D01*
X0324647Y0032613D01*
X0323121Y0031981D01*
X0321953Y0030813D01*
X0321320Y0029287D01*
X0321320Y0027635D01*
X0321953Y0026108D01*
X0323121Y0024940D01*
X0324567Y0024341D01*
X0316379Y0024341D01*
X0317826Y0024940D01*
X0318994Y0026108D01*
X0319626Y0027635D01*
X0319626Y0029287D01*
X0318994Y0030813D01*
X0317826Y0031981D01*
X0316299Y0032613D01*
X0314647Y0032613D01*
X0313121Y0031981D01*
X0311953Y0030813D01*
X0311320Y0029287D01*
X0311320Y0027635D01*
X0311953Y0026108D01*
X0313121Y0024940D01*
X0314567Y0024341D01*
X0306379Y0024341D01*
X0307826Y0024940D01*
X0308994Y0026108D01*
X0309626Y0027635D01*
X0309626Y0029287D01*
X0308994Y0030813D01*
X0307826Y0031981D01*
X0306299Y0032613D01*
X0304647Y0032613D01*
X0303121Y0031981D01*
X0301953Y0030813D01*
X0301320Y0029287D01*
X0301320Y0027635D01*
X0301953Y0026108D01*
X0303121Y0024940D01*
X0304567Y0024341D01*
X0296379Y0024341D01*
X0297826Y0024940D01*
X0298994Y0026108D01*
X0299626Y0027635D01*
X0299626Y0029287D01*
X0298994Y0030813D01*
X0297826Y0031981D01*
X0296299Y0032613D01*
X0294647Y0032613D01*
X0293121Y0031981D01*
X0291953Y0030813D01*
X0291320Y0029287D01*
X0291320Y0027635D01*
X0291953Y0026108D01*
X0293121Y0024940D01*
X0294567Y0024341D01*
X0286379Y0024341D01*
X0287826Y0024940D01*
X0288994Y0026108D01*
X0289626Y0027635D01*
X0289626Y0029287D01*
X0288994Y0030813D01*
X0287826Y0031981D01*
X0286299Y0032613D01*
X0284647Y0032613D01*
X0283121Y0031981D01*
X0281953Y0030813D01*
X0281320Y0029287D01*
X0281320Y0027635D01*
X0281953Y0026108D01*
X0283121Y0024940D01*
X0284567Y0024341D01*
X0280999Y0024341D01*
X0280999Y0030592D01*
X0282533Y0032127D01*
X0282899Y0033009D01*
X0282899Y0035198D01*
X0283297Y0034909D01*
X0283879Y0034612D01*
X0284501Y0034410D01*
X0285073Y0034319D01*
X0285073Y0038061D01*
X0285873Y0038061D01*
X0285873Y0038861D01*
X0289614Y0038861D01*
X0289524Y0039433D01*
X0289322Y0040055D01*
X0289025Y0040637D01*
X0288641Y0041166D01*
X0288179Y0041628D01*
X0287650Y0042012D01*
X0287067Y0042309D01*
X0286538Y0042481D01*
X0294328Y0042481D01*
X0293121Y0041981D01*
X0291953Y0040813D01*
X0291320Y0039287D01*
X0291320Y0037635D01*
X0291953Y0036108D01*
X0293121Y0034940D01*
X0294647Y0034308D01*
X0296299Y0034308D01*
X0297826Y0034940D01*
X0298994Y0036108D01*
X0299626Y0037635D01*
X0299626Y0039287D01*
X0298994Y0040813D01*
X0297826Y0041981D01*
X0296619Y0042481D01*
X0304328Y0042481D01*
X0303121Y0041981D01*
X0301953Y0040813D01*
X0301320Y0039287D01*
X0301320Y0037635D01*
X0301953Y0036108D01*
X0303121Y0034940D01*
X0304647Y0034308D01*
X0306299Y0034308D01*
X0307826Y0034940D01*
X0308994Y0036108D01*
X0309626Y0037635D01*
X0309626Y0039287D01*
X0308994Y0040813D01*
X0307826Y0041981D01*
X0306619Y0042481D01*
X0314328Y0042481D01*
X0313121Y0041981D01*
X0311953Y0040813D01*
X0311320Y0039287D01*
X0311320Y0037635D01*
X0311953Y0036108D01*
X0313121Y0034940D01*
X0314647Y0034308D01*
X0316299Y0034308D01*
X0317826Y0034940D01*
X0318994Y0036108D01*
X0319626Y0037635D01*
X0319626Y0039287D01*
X0318994Y0040813D01*
X0317826Y0041981D01*
X0316619Y0042481D01*
X0324328Y0042481D01*
X0323121Y0041981D01*
X0321953Y0040813D01*
X0321320Y0039287D01*
X0321320Y0037635D01*
X0321953Y0036108D01*
X0323121Y0034940D01*
X0324647Y0034308D01*
X0326299Y0034308D01*
X0327826Y0034940D01*
X0328994Y0036108D01*
X0329626Y0037635D01*
X0329626Y0039287D01*
X0328994Y0040813D01*
X0327826Y0041981D01*
X0326619Y0042481D01*
X0334328Y0042481D01*
X0333121Y0041981D01*
X0331953Y0040813D01*
X0331320Y0039287D01*
X0331320Y0037635D01*
X0331953Y0036108D01*
X0333121Y0034940D01*
X0334647Y0034308D01*
X0336299Y0034308D01*
X0337826Y0034940D01*
X0338994Y0036108D01*
X0339626Y0037635D01*
X0339626Y0039287D01*
X0338994Y0040813D01*
X0337826Y0041981D01*
X0336619Y0042481D01*
X0344328Y0042481D01*
X0343121Y0041981D01*
X0341953Y0040813D01*
X0341320Y0039287D01*
X0341320Y0037635D01*
X0341953Y0036108D01*
X0343121Y0034940D01*
X0344647Y0034308D01*
X0346299Y0034308D01*
X0347826Y0034940D01*
X0348994Y0036108D01*
X0349626Y0037635D01*
X0349626Y0039287D01*
X0348994Y0040813D01*
X0347826Y0041981D01*
X0346619Y0042481D01*
X0431106Y0042481D01*
X0432135Y0042907D01*
X0433159Y0043931D01*
X0433073Y0043845D02*
X0450072Y0043845D01*
X0450870Y0043047D02*
X0432274Y0043047D01*
X0450899Y0045281D02*
X0452449Y0043731D01*
X0491399Y0043731D01*
X0495149Y0047481D01*
X0495149Y0093431D01*
X0485613Y0102967D01*
X0484953Y0102694D01*
X0483844Y0102694D01*
X0482820Y0103118D01*
X0482036Y0103902D01*
X0481611Y0104927D01*
X0481611Y0106036D01*
X0482036Y0107060D01*
X0482820Y0107844D01*
X0483468Y0108112D01*
X0481299Y0110281D01*
X0476599Y0110281D01*
X0474899Y0111981D01*
X0474899Y0143232D01*
X0474203Y0142944D01*
X0473094Y0142944D01*
X0472070Y0143368D01*
X0471286Y0144152D01*
X0470861Y0145177D01*
X0470861Y0146286D01*
X0471286Y0147310D01*
X0472070Y0148094D01*
X0473094Y0148518D01*
X0474203Y0148518D01*
X0474899Y0148230D01*
X0474899Y0159831D01*
X0476599Y0161531D01*
X0484049Y0161531D01*
X0485799Y0163281D01*
X0485799Y0175681D01*
X0484199Y0177281D01*
X0481019Y0177281D01*
X0481286Y0176636D01*
X0481286Y0175527D01*
X0480863Y0174506D01*
X0481286Y0173486D01*
X0481286Y0172377D01*
X0480862Y0171352D01*
X0480078Y0170568D01*
X0479053Y0170144D01*
X0477944Y0170144D01*
X0476920Y0170568D01*
X0476136Y0171352D01*
X0475711Y0172377D01*
X0475711Y0173486D01*
X0476134Y0174506D01*
X0475711Y0175527D01*
X0475711Y0176636D01*
X0475979Y0177281D01*
X0459091Y0177281D01*
X0459612Y0176760D01*
X0460036Y0175736D01*
X0460036Y0174627D01*
X0459612Y0173602D01*
X0458828Y0172818D01*
X0457803Y0172394D01*
X0456694Y0172394D01*
X0456345Y0172538D01*
X0456636Y0171836D01*
X0456636Y0170727D01*
X0456212Y0169702D01*
X0455428Y0168918D01*
X0454403Y0168494D01*
X0453294Y0168494D01*
X0452270Y0168918D01*
X0451486Y0169702D01*
X0451061Y0170727D01*
X0451061Y0171836D01*
X0451486Y0172860D01*
X0452270Y0173644D01*
X0453294Y0174068D01*
X0454403Y0174068D01*
X0454753Y0173924D01*
X0454461Y0174627D01*
X0454461Y0175736D01*
X0454886Y0176760D01*
X0455407Y0177281D01*
X0442699Y0177281D01*
X0441599Y0176181D01*
X0441599Y0156981D01*
X0450899Y0147681D01*
X0450899Y0090663D01*
X0451394Y0090868D01*
X0452503Y0090868D01*
X0453528Y0090444D01*
X0454312Y0089660D01*
X0454736Y0088636D01*
X0454736Y0087527D01*
X0454312Y0086502D01*
X0453528Y0085718D01*
X0452503Y0085294D01*
X0451394Y0085294D01*
X0450899Y0085499D01*
X0450899Y0075323D01*
X0450962Y0075260D01*
X0451386Y0074236D01*
X0451386Y0073127D01*
X0450962Y0072102D01*
X0450899Y0072039D01*
X0450899Y0064176D01*
X0450936Y0064086D01*
X0450936Y0062977D01*
X0450899Y0062886D01*
X0450899Y0045281D01*
X0450899Y0045442D02*
X0477915Y0045442D01*
X0478394Y0045244D02*
X0479503Y0045244D01*
X0480528Y0045668D01*
X0481312Y0046452D01*
X0481736Y0047477D01*
X0481736Y0048586D01*
X0481396Y0049406D01*
X0481736Y0050227D01*
X0481736Y0051336D01*
X0481312Y0052360D01*
X0480528Y0053144D01*
X0479503Y0053568D01*
X0478394Y0053568D01*
X0477370Y0053144D01*
X0476586Y0052360D01*
X0476161Y0051336D01*
X0476161Y0050227D01*
X0476501Y0049406D01*
X0476161Y0048586D01*
X0476161Y0047477D01*
X0476586Y0046452D01*
X0477370Y0045668D01*
X0478394Y0045244D01*
X0479983Y0045442D02*
X0493110Y0045442D01*
X0492312Y0044644D02*
X0451536Y0044644D01*
X0452335Y0043845D02*
X0491513Y0043845D01*
X0492977Y0043047D02*
X0515026Y0043047D01*
X0515026Y0043845D02*
X0493776Y0043845D01*
X0494574Y0044644D02*
X0515026Y0044644D01*
X0515026Y0045442D02*
X0495373Y0045442D01*
X0496171Y0046241D02*
X0515026Y0046241D01*
X0515026Y0047039D02*
X0496749Y0047039D01*
X0496749Y0047431D02*
X0496749Y0047431D01*
X0496749Y0047838D02*
X0515026Y0047838D01*
X0515026Y0048636D02*
X0496749Y0048636D01*
X0496749Y0049435D02*
X0515026Y0049435D01*
X0515026Y0050233D02*
X0496749Y0050233D01*
X0496749Y0051032D02*
X0515026Y0051032D01*
X0515026Y0051830D02*
X0496749Y0051830D01*
X0496749Y0052629D02*
X0515026Y0052629D01*
X0515026Y0053428D02*
X0496749Y0053428D01*
X0496749Y0054226D02*
X0515026Y0054226D01*
X0515026Y0055025D02*
X0496749Y0055025D01*
X0496749Y0055823D02*
X0515026Y0055823D01*
X0515026Y0056622D02*
X0496749Y0056622D01*
X0496749Y0057420D02*
X0515026Y0057420D01*
X0515026Y0058219D02*
X0496749Y0058219D01*
X0496749Y0059017D02*
X0515026Y0059017D01*
X0515026Y0059816D02*
X0496749Y0059816D01*
X0496749Y0060614D02*
X0515026Y0060614D01*
X0515026Y0061413D02*
X0496749Y0061413D01*
X0496749Y0062211D02*
X0515026Y0062211D01*
X0515026Y0063010D02*
X0496749Y0063010D01*
X0496749Y0063808D02*
X0515026Y0063808D01*
X0515026Y0064607D02*
X0496749Y0064607D01*
X0496749Y0065405D02*
X0515026Y0065405D01*
X0515026Y0066204D02*
X0496749Y0066204D01*
X0496749Y0067002D02*
X0515026Y0067002D01*
X0515026Y0067801D02*
X0496749Y0067801D01*
X0496749Y0068599D02*
X0515026Y0068599D01*
X0515026Y0069398D02*
X0496749Y0069398D01*
X0496749Y0070196D02*
X0515026Y0070196D01*
X0515026Y0070995D02*
X0496749Y0070995D01*
X0496749Y0071793D02*
X0515026Y0071793D01*
X0515026Y0072592D02*
X0496749Y0072592D01*
X0496749Y0073390D02*
X0515026Y0073390D01*
X0515026Y0074189D02*
X0496749Y0074189D01*
X0496749Y0074987D02*
X0515026Y0074987D01*
X0515026Y0075786D02*
X0496749Y0075786D01*
X0496749Y0076584D02*
X0515026Y0076584D01*
X0515026Y0077383D02*
X0496749Y0077383D01*
X0496749Y0078181D02*
X0515026Y0078181D01*
X0515026Y0078980D02*
X0496749Y0078980D01*
X0496749Y0079778D02*
X0515026Y0079778D01*
X0515026Y0080577D02*
X0496749Y0080577D01*
X0496749Y0081375D02*
X0515026Y0081375D01*
X0515026Y0082174D02*
X0496749Y0082174D01*
X0496749Y0082972D02*
X0515026Y0082972D01*
X0515026Y0083771D02*
X0496749Y0083771D01*
X0496749Y0084569D02*
X0515026Y0084569D01*
X0515026Y0085368D02*
X0496749Y0085368D01*
X0496749Y0086166D02*
X0515026Y0086166D01*
X0515026Y0086965D02*
X0496749Y0086965D01*
X0496749Y0087763D02*
X0515026Y0087763D01*
X0515026Y0088562D02*
X0496749Y0088562D01*
X0496749Y0089361D02*
X0515026Y0089361D01*
X0515026Y0090159D02*
X0496749Y0090159D01*
X0496749Y0090958D02*
X0515026Y0090958D01*
X0515026Y0091756D02*
X0496749Y0091756D01*
X0496749Y0092555D02*
X0515026Y0092555D01*
X0515026Y0093353D02*
X0496749Y0093353D01*
X0496749Y0094152D02*
X0515026Y0094152D01*
X0515026Y0094950D02*
X0499231Y0094950D01*
X0498853Y0094794D02*
X0499878Y0095218D01*
X0500662Y0096002D01*
X0501086Y0097027D01*
X0501086Y0098136D01*
X0500662Y0099160D01*
X0499878Y0099944D01*
X0498853Y0100368D01*
X0497744Y0100368D01*
X0496720Y0099944D01*
X0495936Y0099160D01*
X0495511Y0098136D01*
X0495511Y0097027D01*
X0495936Y0096002D01*
X0496720Y0095218D01*
X0497744Y0094794D01*
X0498853Y0094794D01*
X0497367Y0094950D02*
X0495980Y0094950D01*
X0496189Y0095749D02*
X0495181Y0095749D01*
X0495710Y0096547D02*
X0494383Y0096547D01*
X0493584Y0097346D02*
X0495511Y0097346D01*
X0495515Y0098144D02*
X0492786Y0098144D01*
X0491987Y0098943D02*
X0495846Y0098943D01*
X0496517Y0099741D02*
X0491189Y0099741D01*
X0490390Y0100540D02*
X0506898Y0100540D01*
X0507020Y0100418D02*
X0508044Y0099994D01*
X0509153Y0099994D01*
X0510178Y0100418D01*
X0510962Y0101202D01*
X0511386Y0102227D01*
X0511386Y0103336D01*
X0510962Y0104360D01*
X0510178Y0105144D01*
X0509153Y0105568D01*
X0508044Y0105568D01*
X0507020Y0105144D01*
X0506236Y0104360D01*
X0505811Y0103336D01*
X0505811Y0102227D01*
X0506236Y0101202D01*
X0507020Y0100418D01*
X0506179Y0101338D02*
X0489592Y0101338D01*
X0488793Y0102137D02*
X0505849Y0102137D01*
X0505811Y0102935D02*
X0487995Y0102935D01*
X0487249Y0103734D02*
X0505976Y0103734D01*
X0506408Y0104532D02*
X0487249Y0104532D01*
X0487249Y0105331D02*
X0499731Y0105331D01*
X0499520Y0105418D02*
X0500544Y0104994D01*
X0501653Y0104994D01*
X0502678Y0105418D01*
X0503462Y0106202D01*
X0503886Y0107227D01*
X0503886Y0107844D01*
X0504453Y0107844D01*
X0505478Y0108268D01*
X0506262Y0109052D01*
X0506686Y0110077D01*
X0506686Y0111186D01*
X0506262Y0112210D01*
X0505478Y0112994D01*
X0504453Y0113418D01*
X0503344Y0113418D01*
X0502320Y0112994D01*
X0501536Y0112210D01*
X0501111Y0111186D01*
X0501111Y0110568D01*
X0500544Y0110568D01*
X0499520Y0110144D01*
X0498736Y0109360D01*
X0498311Y0108336D01*
X0498311Y0107227D01*
X0498736Y0106202D01*
X0499520Y0105418D01*
X0498809Y0106129D02*
X0487249Y0106129D01*
X0487002Y0106928D02*
X0498435Y0106928D01*
X0498311Y0107726D02*
X0486204Y0107726D01*
X0485405Y0108525D02*
X0498390Y0108525D01*
X0498721Y0109323D02*
X0484607Y0109323D01*
X0483808Y0110122D02*
X0499498Y0110122D01*
X0501111Y0110920D02*
X0483010Y0110920D01*
X0482211Y0111719D02*
X0501332Y0111719D01*
X0501843Y0112517D02*
X0476663Y0112517D01*
X0476499Y0113316D02*
X0495646Y0113316D01*
X0495520Y0113368D02*
X0496544Y0112944D01*
X0497653Y0112944D01*
X0498678Y0113368D01*
X0499462Y0114152D01*
X0499886Y0115177D01*
X0499886Y0116286D01*
X0499462Y0117310D01*
X0498678Y0118094D01*
X0497653Y0118518D01*
X0496544Y0118518D01*
X0495520Y0118094D01*
X0494736Y0117310D01*
X0494311Y0116286D01*
X0494311Y0115177D01*
X0494736Y0114152D01*
X0495520Y0113368D01*
X0494774Y0114114D02*
X0476499Y0114114D01*
X0476499Y0114913D02*
X0494421Y0114913D01*
X0494311Y0115711D02*
X0476499Y0115711D01*
X0476499Y0116510D02*
X0494404Y0116510D01*
X0494735Y0117308D02*
X0476499Y0117308D01*
X0476499Y0118107D02*
X0495551Y0118107D01*
X0498647Y0118107D02*
X0506651Y0118107D01*
X0506736Y0117902D02*
X0507382Y0117256D01*
X0507186Y0117060D01*
X0506761Y0116036D01*
X0506761Y0114927D01*
X0507186Y0113902D01*
X0507970Y0113118D01*
X0508687Y0112821D01*
X0508361Y0112036D01*
X0508361Y0110927D01*
X0508786Y0109902D01*
X0509570Y0109118D01*
X0510594Y0108694D01*
X0511703Y0108694D01*
X0512728Y0109118D01*
X0513512Y0109902D01*
X0513936Y0110927D01*
X0513936Y0112036D01*
X0513512Y0113060D01*
X0512728Y0113844D01*
X0512011Y0114141D01*
X0512336Y0114927D01*
X0512336Y0116036D01*
X0511912Y0117060D01*
X0511266Y0117706D01*
X0511462Y0117902D01*
X0511886Y0118927D01*
X0511886Y0120036D01*
X0511462Y0121060D01*
X0510678Y0121844D01*
X0509653Y0122268D01*
X0508544Y0122268D01*
X0507520Y0121844D01*
X0506736Y0121060D01*
X0506311Y0120036D01*
X0506311Y0118927D01*
X0506736Y0117902D01*
X0507330Y0117308D02*
X0499463Y0117308D01*
X0499793Y0116510D02*
X0506958Y0116510D01*
X0506761Y0115711D02*
X0499886Y0115711D01*
X0499777Y0114913D02*
X0506767Y0114913D01*
X0507098Y0114114D02*
X0499424Y0114114D01*
X0498552Y0113316D02*
X0503097Y0113316D01*
X0504701Y0113316D02*
X0507772Y0113316D01*
X0508561Y0112517D02*
X0505955Y0112517D01*
X0506465Y0111719D02*
X0508361Y0111719D01*
X0508364Y0110920D02*
X0506686Y0110920D01*
X0506686Y0110122D02*
X0508695Y0110122D01*
X0509365Y0109323D02*
X0506374Y0109323D01*
X0505734Y0108525D02*
X0515026Y0108525D01*
X0515026Y0109323D02*
X0512933Y0109323D01*
X0513603Y0110122D02*
X0515026Y0110122D01*
X0515026Y0110920D02*
X0513934Y0110920D01*
X0513936Y0111719D02*
X0515026Y0111719D01*
X0515026Y0112517D02*
X0513737Y0112517D01*
X0513256Y0113316D02*
X0515026Y0113316D01*
X0515026Y0114114D02*
X0512075Y0114114D01*
X0512330Y0114913D02*
X0515026Y0114913D01*
X0515026Y0115711D02*
X0512336Y0115711D01*
X0512140Y0116510D02*
X0515026Y0116510D01*
X0515026Y0117308D02*
X0511663Y0117308D01*
X0511547Y0118107D02*
X0515026Y0118107D01*
X0515026Y0118905D02*
X0511877Y0118905D01*
X0511886Y0119704D02*
X0515026Y0119704D01*
X0515026Y0120502D02*
X0511693Y0120502D01*
X0511221Y0121301D02*
X0515026Y0121301D01*
X0515026Y0122099D02*
X0510061Y0122099D01*
X0508136Y0122099D02*
X0487336Y0122099D01*
X0487336Y0122898D02*
X0515026Y0122898D01*
X0515026Y0123697D02*
X0487104Y0123697D01*
X0486577Y0124495D02*
X0515026Y0124495D01*
X0515026Y0125294D02*
X0485284Y0125294D01*
X0483813Y0125294D02*
X0483445Y0125294D01*
X0483686Y0126092D02*
X0515026Y0126092D01*
X0515026Y0126891D02*
X0483686Y0126891D01*
X0483395Y0127689D02*
X0515026Y0127689D01*
X0515026Y0128488D02*
X0483442Y0128488D01*
X0483686Y0129286D02*
X0499209Y0129286D01*
X0498770Y0129468D02*
X0499794Y0129044D01*
X0500903Y0129044D01*
X0501928Y0129468D01*
X0502712Y0130252D01*
X0503136Y0131277D01*
X0503136Y0132386D01*
X0502712Y0133410D01*
X0501928Y0134194D01*
X0500903Y0134618D01*
X0499794Y0134618D01*
X0498770Y0134194D01*
X0497986Y0133410D01*
X0497561Y0132386D01*
X0497561Y0131277D01*
X0497986Y0130252D01*
X0498770Y0129468D01*
X0498153Y0130085D02*
X0483686Y0130085D01*
X0483397Y0130883D02*
X0497724Y0130883D01*
X0497561Y0131682D02*
X0483440Y0131682D01*
X0483686Y0132480D02*
X0497601Y0132480D01*
X0497931Y0133279D02*
X0483686Y0133279D01*
X0483400Y0134077D02*
X0498653Y0134077D01*
X0502045Y0134077D02*
X0509261Y0134077D01*
X0509570Y0133768D02*
X0510594Y0133344D01*
X0511703Y0133344D01*
X0512728Y0133768D01*
X0513512Y0134552D01*
X0513936Y0135577D01*
X0513936Y0136686D01*
X0513512Y0137710D01*
X0512728Y0138494D01*
X0511703Y0138918D01*
X0510594Y0138918D01*
X0509570Y0138494D01*
X0508786Y0137710D01*
X0508361Y0136686D01*
X0508361Y0135577D01*
X0508786Y0134552D01*
X0509570Y0133768D01*
X0508652Y0134876D02*
X0482796Y0134876D01*
X0476499Y0135674D02*
X0508361Y0135674D01*
X0508361Y0136473D02*
X0476499Y0136473D01*
X0476499Y0137271D02*
X0508604Y0137271D01*
X0509145Y0138070D02*
X0476499Y0138070D01*
X0476499Y0138868D02*
X0510473Y0138868D01*
X0511825Y0138868D02*
X0515026Y0138868D01*
X0515026Y0138070D02*
X0513152Y0138070D01*
X0513694Y0137271D02*
X0515026Y0137271D01*
X0515026Y0136473D02*
X0513936Y0136473D01*
X0513936Y0135674D02*
X0515026Y0135674D01*
X0515026Y0134876D02*
X0513646Y0134876D01*
X0513037Y0134077D02*
X0515026Y0134077D01*
X0515026Y0133279D02*
X0502766Y0133279D01*
X0503097Y0132480D02*
X0515026Y0132480D01*
X0515026Y0131682D02*
X0503136Y0131682D01*
X0502973Y0130883D02*
X0515026Y0130883D01*
X0515026Y0130085D02*
X0502544Y0130085D01*
X0501488Y0129286D02*
X0515026Y0129286D01*
X0515026Y0139667D02*
X0476499Y0139667D01*
X0476499Y0140465D02*
X0515026Y0140465D01*
X0515026Y0141264D02*
X0476499Y0141264D01*
X0476499Y0142062D02*
X0515026Y0142062D01*
X0515026Y0142861D02*
X0476499Y0142861D01*
X0476499Y0143659D02*
X0515026Y0143659D01*
X0515026Y0144458D02*
X0509517Y0144458D01*
X0509178Y0144118D02*
X0509962Y0144902D01*
X0510386Y0145927D01*
X0510386Y0147036D01*
X0509962Y0148060D01*
X0509178Y0148844D01*
X0508153Y0149268D01*
X0507044Y0149268D01*
X0506020Y0148844D01*
X0505236Y0148060D01*
X0504811Y0147036D01*
X0504811Y0145927D01*
X0505236Y0144902D01*
X0506020Y0144118D01*
X0507044Y0143694D01*
X0508153Y0143694D01*
X0509178Y0144118D01*
X0510109Y0145256D02*
X0515026Y0145256D01*
X0515026Y0146055D02*
X0510386Y0146055D01*
X0510386Y0146853D02*
X0515026Y0146853D01*
X0515026Y0147652D02*
X0510131Y0147652D01*
X0509572Y0148450D02*
X0515026Y0148450D01*
X0515026Y0149249D02*
X0508201Y0149249D01*
X0506997Y0149249D02*
X0476499Y0149249D01*
X0476499Y0150047D02*
X0515026Y0150047D01*
X0515026Y0150846D02*
X0476499Y0150846D01*
X0476499Y0151644D02*
X0515026Y0151644D01*
X0515026Y0152443D02*
X0507893Y0152443D01*
X0507653Y0152344D02*
X0508678Y0152768D01*
X0509462Y0153552D01*
X0509886Y0154577D01*
X0509886Y0155686D01*
X0509462Y0156710D01*
X0508678Y0157494D01*
X0507653Y0157918D01*
X0506544Y0157918D01*
X0505520Y0157494D01*
X0504736Y0156710D01*
X0504311Y0155686D01*
X0504311Y0154577D01*
X0504736Y0153552D01*
X0505520Y0152768D01*
X0506544Y0152344D01*
X0507653Y0152344D01*
X0506305Y0152443D02*
X0476499Y0152443D01*
X0476499Y0153241D02*
X0505047Y0153241D01*
X0504534Y0154040D02*
X0476499Y0154040D01*
X0476499Y0154838D02*
X0504311Y0154838D01*
X0504311Y0155637D02*
X0501347Y0155637D01*
X0502096Y0156435D02*
X0504622Y0156435D01*
X0505260Y0157234D02*
X0502427Y0157234D01*
X0502486Y0158032D02*
X0515026Y0158032D01*
X0515026Y0157234D02*
X0508938Y0157234D01*
X0509576Y0156435D02*
X0515026Y0156435D01*
X0515026Y0155637D02*
X0509886Y0155637D01*
X0509886Y0154838D02*
X0515026Y0154838D01*
X0515026Y0154040D02*
X0509664Y0154040D01*
X0509151Y0153241D02*
X0515026Y0153241D01*
X0515026Y0158831D02*
X0502343Y0158831D01*
X0501942Y0159630D02*
X0515026Y0159630D01*
X0498051Y0155637D02*
X0476499Y0155637D01*
X0476499Y0156435D02*
X0497301Y0156435D01*
X0496971Y0157234D02*
X0476499Y0157234D01*
X0476499Y0158032D02*
X0496911Y0158032D01*
X0497055Y0158831D02*
X0476499Y0158831D01*
X0476960Y0159630D02*
X0497455Y0159630D01*
X0485799Y0163622D02*
X0453060Y0163622D01*
X0453128Y0163594D02*
X0452103Y0164018D01*
X0450994Y0164018D01*
X0449970Y0163594D01*
X0449186Y0162810D01*
X0448761Y0161786D01*
X0448761Y0160677D01*
X0449186Y0159652D01*
X0449970Y0158868D01*
X0450994Y0158444D01*
X0452103Y0158444D01*
X0453128Y0158868D01*
X0453912Y0159652D01*
X0454336Y0160677D01*
X0454336Y0161786D01*
X0453912Y0162810D01*
X0453128Y0163594D01*
X0453898Y0162824D02*
X0468999Y0162824D01*
X0469070Y0162894D02*
X0468286Y0162110D01*
X0467861Y0161086D01*
X0467861Y0159977D01*
X0468286Y0158952D01*
X0469070Y0158168D01*
X0470094Y0157744D01*
X0471203Y0157744D01*
X0472228Y0158168D01*
X0473012Y0158952D01*
X0473436Y0159977D01*
X0473436Y0161086D01*
X0473012Y0162110D01*
X0472228Y0162894D01*
X0471203Y0163318D01*
X0470094Y0163318D01*
X0469070Y0162894D01*
X0468251Y0162025D02*
X0454237Y0162025D01*
X0454336Y0161227D02*
X0467920Y0161227D01*
X0467861Y0160428D02*
X0454233Y0160428D01*
X0453889Y0159630D02*
X0468005Y0159630D01*
X0468407Y0158831D02*
X0453038Y0158831D01*
X0450059Y0158831D02*
X0441599Y0158831D01*
X0441599Y0159630D02*
X0449208Y0159630D01*
X0448864Y0160428D02*
X0441599Y0160428D01*
X0441599Y0161227D02*
X0448761Y0161227D01*
X0448861Y0162025D02*
X0441599Y0162025D01*
X0441599Y0162824D02*
X0449199Y0162824D01*
X0450037Y0163622D02*
X0441599Y0163622D01*
X0441599Y0164421D02*
X0485799Y0164421D01*
X0485799Y0165219D02*
X0441599Y0165219D01*
X0441599Y0166018D02*
X0485799Y0166018D01*
X0485799Y0166816D02*
X0449176Y0166816D01*
X0449078Y0166718D02*
X0449862Y0167502D01*
X0450286Y0168527D01*
X0450286Y0169636D01*
X0449862Y0170660D01*
X0449078Y0171444D01*
X0448053Y0171868D01*
X0446944Y0171868D01*
X0445949Y0171456D01*
X0444953Y0171868D01*
X0443844Y0171868D01*
X0442820Y0171444D01*
X0442036Y0170660D01*
X0441611Y0169636D01*
X0441611Y0168527D01*
X0442036Y0167502D01*
X0442820Y0166718D01*
X0443844Y0166294D01*
X0444953Y0166294D01*
X0445949Y0166706D01*
X0446944Y0166294D01*
X0448053Y0166294D01*
X0449078Y0166718D01*
X0449908Y0167615D02*
X0485799Y0167615D01*
X0485799Y0168413D02*
X0450239Y0168413D01*
X0450286Y0169212D02*
X0451976Y0169212D01*
X0451358Y0170010D02*
X0450131Y0170010D01*
X0449713Y0170809D02*
X0451061Y0170809D01*
X0451061Y0171607D02*
X0448684Y0171607D01*
X0446314Y0171607D02*
X0445584Y0171607D01*
X0443214Y0171607D02*
X0441599Y0171607D01*
X0441599Y0170809D02*
X0442184Y0170809D01*
X0441767Y0170010D02*
X0441599Y0170010D01*
X0441599Y0169212D02*
X0441611Y0169212D01*
X0441599Y0168413D02*
X0441658Y0168413D01*
X0441599Y0167615D02*
X0441989Y0167615D01*
X0441599Y0166816D02*
X0442722Y0166816D01*
X0441599Y0172406D02*
X0451298Y0172406D01*
X0451830Y0173204D02*
X0441599Y0173204D01*
X0441599Y0174003D02*
X0453136Y0174003D01*
X0454562Y0174003D02*
X0454720Y0174003D01*
X0454461Y0174801D02*
X0441599Y0174801D01*
X0441599Y0175600D02*
X0454461Y0175600D01*
X0454736Y0176398D02*
X0441816Y0176398D01*
X0442614Y0177197D02*
X0455323Y0177197D01*
X0459175Y0177197D02*
X0475944Y0177197D01*
X0475711Y0176398D02*
X0472047Y0176398D01*
X0472178Y0176344D02*
X0471153Y0176768D01*
X0470044Y0176768D01*
X0469020Y0176344D01*
X0468236Y0175560D01*
X0467811Y0174536D01*
X0467811Y0173427D01*
X0468236Y0172402D01*
X0469020Y0171618D01*
X0470044Y0171194D01*
X0471153Y0171194D01*
X0472178Y0171618D01*
X0472962Y0172402D01*
X0473386Y0173427D01*
X0473386Y0174536D01*
X0472962Y0175560D01*
X0472178Y0176344D01*
X0472922Y0175600D02*
X0475711Y0175600D01*
X0476012Y0174801D02*
X0473276Y0174801D01*
X0473386Y0174003D02*
X0475926Y0174003D01*
X0475711Y0173204D02*
X0473294Y0173204D01*
X0472963Y0172406D02*
X0475711Y0172406D01*
X0476030Y0171607D02*
X0472151Y0171607D01*
X0469046Y0171607D02*
X0456636Y0171607D01*
X0456636Y0170809D02*
X0476679Y0170809D01*
X0480318Y0170809D02*
X0485799Y0170809D01*
X0485799Y0171607D02*
X0480967Y0171607D01*
X0481286Y0172406D02*
X0485799Y0172406D01*
X0485799Y0173204D02*
X0481286Y0173204D01*
X0481072Y0174003D02*
X0485799Y0174003D01*
X0485799Y0174801D02*
X0480986Y0174801D01*
X0481286Y0175600D02*
X0485799Y0175600D01*
X0485082Y0176398D02*
X0481286Y0176398D01*
X0481054Y0177197D02*
X0484283Y0177197D01*
X0485799Y0170010D02*
X0456339Y0170010D01*
X0455721Y0169212D02*
X0485799Y0169212D01*
X0485341Y0162824D02*
X0472298Y0162824D01*
X0473047Y0162025D02*
X0484543Y0162025D01*
X0476294Y0161227D02*
X0473378Y0161227D01*
X0473436Y0160428D02*
X0475496Y0160428D01*
X0474899Y0159630D02*
X0473292Y0159630D01*
X0472891Y0158831D02*
X0474899Y0158831D01*
X0474899Y0158032D02*
X0471900Y0158032D01*
X0469397Y0158032D02*
X0441599Y0158032D01*
X0441599Y0157234D02*
X0474899Y0157234D01*
X0474899Y0156435D02*
X0442144Y0156435D01*
X0442943Y0155637D02*
X0474899Y0155637D01*
X0474899Y0154838D02*
X0443741Y0154838D01*
X0444540Y0154040D02*
X0474899Y0154040D01*
X0474899Y0153241D02*
X0445338Y0153241D01*
X0446137Y0152443D02*
X0474899Y0152443D01*
X0474899Y0151644D02*
X0446936Y0151644D01*
X0447734Y0150846D02*
X0474899Y0150846D01*
X0474899Y0150047D02*
X0448533Y0150047D01*
X0449331Y0149249D02*
X0474899Y0149249D01*
X0474899Y0148450D02*
X0474368Y0148450D01*
X0472930Y0148450D02*
X0450130Y0148450D01*
X0450899Y0147652D02*
X0471628Y0147652D01*
X0471097Y0146853D02*
X0450899Y0146853D01*
X0450899Y0146055D02*
X0470861Y0146055D01*
X0470861Y0145256D02*
X0450899Y0145256D01*
X0450899Y0144458D02*
X0471159Y0144458D01*
X0471779Y0143659D02*
X0450899Y0143659D01*
X0450899Y0142861D02*
X0474899Y0142861D01*
X0474899Y0142062D02*
X0450899Y0142062D01*
X0450899Y0141264D02*
X0474899Y0141264D01*
X0474899Y0140465D02*
X0450899Y0140465D01*
X0450899Y0139667D02*
X0474899Y0139667D01*
X0474899Y0138868D02*
X0450899Y0138868D01*
X0450899Y0138070D02*
X0474899Y0138070D01*
X0474899Y0137271D02*
X0450899Y0137271D01*
X0450899Y0136473D02*
X0474899Y0136473D01*
X0474899Y0135674D02*
X0450899Y0135674D01*
X0450899Y0134876D02*
X0474899Y0134876D01*
X0474899Y0134077D02*
X0450899Y0134077D01*
X0450899Y0133279D02*
X0474899Y0133279D01*
X0474899Y0132480D02*
X0450899Y0132480D01*
X0450899Y0131682D02*
X0474899Y0131682D01*
X0474899Y0130883D02*
X0450899Y0130883D01*
X0450899Y0130085D02*
X0474899Y0130085D01*
X0474899Y0129286D02*
X0450899Y0129286D01*
X0450899Y0128488D02*
X0474899Y0128488D01*
X0474899Y0127689D02*
X0450899Y0127689D01*
X0450899Y0126891D02*
X0474899Y0126891D01*
X0474899Y0126092D02*
X0450899Y0126092D01*
X0450899Y0125294D02*
X0474899Y0125294D01*
X0474899Y0124495D02*
X0450899Y0124495D01*
X0450899Y0123697D02*
X0474899Y0123697D01*
X0474899Y0122898D02*
X0450899Y0122898D01*
X0450899Y0122099D02*
X0474899Y0122099D01*
X0474899Y0121301D02*
X0450899Y0121301D01*
X0450899Y0120502D02*
X0474899Y0120502D01*
X0474899Y0119704D02*
X0450899Y0119704D01*
X0450899Y0118905D02*
X0474899Y0118905D01*
X0474899Y0118107D02*
X0450899Y0118107D01*
X0450899Y0117308D02*
X0474899Y0117308D01*
X0474899Y0116510D02*
X0450899Y0116510D01*
X0450899Y0115711D02*
X0464177Y0115711D01*
X0464194Y0115718D02*
X0463170Y0115294D01*
X0462386Y0114510D01*
X0461961Y0113486D01*
X0461961Y0112377D01*
X0462386Y0111352D01*
X0463170Y0110568D01*
X0464194Y0110144D01*
X0465303Y0110144D01*
X0466328Y0110568D01*
X0467112Y0111352D01*
X0467536Y0112377D01*
X0467536Y0113486D01*
X0467112Y0114510D01*
X0466328Y0115294D01*
X0465303Y0115718D01*
X0464194Y0115718D01*
X0465320Y0115711D02*
X0474899Y0115711D01*
X0474899Y0114913D02*
X0466709Y0114913D01*
X0467276Y0114114D02*
X0474899Y0114114D01*
X0474899Y0113316D02*
X0467536Y0113316D01*
X0467536Y0112517D02*
X0474899Y0112517D01*
X0475161Y0111719D02*
X0467264Y0111719D01*
X0466680Y0110920D02*
X0475960Y0110920D01*
X0481458Y0110122D02*
X0459421Y0110122D01*
X0459353Y0110094D02*
X0460378Y0110518D01*
X0461162Y0111302D01*
X0461586Y0112327D01*
X0461586Y0113436D01*
X0461162Y0114460D01*
X0460378Y0115244D01*
X0459353Y0115668D01*
X0458244Y0115668D01*
X0457220Y0115244D01*
X0456436Y0114460D01*
X0456011Y0113436D01*
X0456011Y0112327D01*
X0456436Y0111302D01*
X0457220Y0110518D01*
X0458244Y0110094D01*
X0459353Y0110094D01*
X0458176Y0110122D02*
X0450899Y0110122D01*
X0450899Y0110920D02*
X0456818Y0110920D01*
X0456263Y0111719D02*
X0450899Y0111719D01*
X0450899Y0112517D02*
X0456011Y0112517D01*
X0456011Y0113316D02*
X0450899Y0113316D01*
X0450899Y0114114D02*
X0456293Y0114114D01*
X0456889Y0114913D02*
X0450899Y0114913D01*
X0450899Y0109323D02*
X0482257Y0109323D01*
X0483055Y0108525D02*
X0450899Y0108525D01*
X0450899Y0107726D02*
X0482702Y0107726D01*
X0481981Y0106928D02*
X0450899Y0106928D01*
X0450899Y0106129D02*
X0481650Y0106129D01*
X0481611Y0105331D02*
X0450899Y0105331D01*
X0450899Y0104532D02*
X0481775Y0104532D01*
X0482204Y0103734D02*
X0450899Y0103734D01*
X0450899Y0102935D02*
X0483261Y0102935D01*
X0485536Y0102935D02*
X0485645Y0102935D01*
X0486443Y0102137D02*
X0450899Y0102137D01*
X0450899Y0101338D02*
X0487242Y0101338D01*
X0488040Y0100540D02*
X0450899Y0100540D01*
X0450899Y0099741D02*
X0488839Y0099741D01*
X0489637Y0098943D02*
X0450899Y0098943D01*
X0450899Y0098144D02*
X0490436Y0098144D01*
X0491234Y0097346D02*
X0450899Y0097346D01*
X0450899Y0096547D02*
X0492033Y0096547D01*
X0492831Y0095749D02*
X0450899Y0095749D01*
X0450899Y0094950D02*
X0466276Y0094950D01*
X0466570Y0095244D02*
X0465786Y0094460D01*
X0465361Y0093436D01*
X0465361Y0092327D01*
X0465786Y0091302D01*
X0466570Y0090518D01*
X0467594Y0090094D01*
X0468703Y0090094D01*
X0469728Y0090518D01*
X0470512Y0091302D01*
X0470936Y0092327D01*
X0470936Y0093436D01*
X0470512Y0094460D01*
X0469728Y0095244D01*
X0468703Y0095668D01*
X0467594Y0095668D01*
X0466570Y0095244D01*
X0465658Y0094152D02*
X0450899Y0094152D01*
X0450899Y0093353D02*
X0465361Y0093353D01*
X0465361Y0092555D02*
X0450899Y0092555D01*
X0450899Y0091756D02*
X0465598Y0091756D01*
X0466130Y0090958D02*
X0450899Y0090958D01*
X0453813Y0090159D02*
X0467437Y0090159D01*
X0468861Y0090159D02*
X0495149Y0090159D01*
X0495149Y0089361D02*
X0454436Y0089361D01*
X0454736Y0088562D02*
X0495149Y0088562D01*
X0495149Y0087763D02*
X0454736Y0087763D01*
X0454504Y0086965D02*
X0495149Y0086965D01*
X0495149Y0086166D02*
X0453976Y0086166D01*
X0452683Y0085368D02*
X0495149Y0085368D01*
X0495149Y0084569D02*
X0450899Y0084569D01*
X0450899Y0083771D02*
X0495149Y0083771D01*
X0495149Y0082972D02*
X0450899Y0082972D01*
X0450899Y0082174D02*
X0495149Y0082174D01*
X0495149Y0081375D02*
X0450899Y0081375D01*
X0450899Y0080577D02*
X0495149Y0080577D01*
X0495149Y0079778D02*
X0450899Y0079778D01*
X0450899Y0078980D02*
X0495149Y0078980D01*
X0495149Y0078181D02*
X0450899Y0078181D01*
X0450899Y0077383D02*
X0495149Y0077383D01*
X0495149Y0076584D02*
X0450899Y0076584D01*
X0450899Y0075786D02*
X0457512Y0075786D01*
X0457170Y0075644D02*
X0456386Y0074860D01*
X0455961Y0073836D01*
X0455961Y0072727D01*
X0456386Y0071702D01*
X0457170Y0070918D01*
X0458194Y0070494D01*
X0459303Y0070494D01*
X0460328Y0070918D01*
X0461112Y0071702D01*
X0461536Y0072727D01*
X0461536Y0073836D01*
X0461112Y0074860D01*
X0460328Y0075644D01*
X0459303Y0076068D01*
X0458194Y0076068D01*
X0457170Y0075644D01*
X0456513Y0074987D02*
X0451075Y0074987D01*
X0451386Y0074189D02*
X0456108Y0074189D01*
X0455961Y0073390D02*
X0451386Y0073390D01*
X0451165Y0072592D02*
X0456017Y0072592D01*
X0456348Y0071793D02*
X0450899Y0071793D01*
X0450899Y0070995D02*
X0457093Y0070995D01*
X0460404Y0070995D02*
X0495149Y0070995D01*
X0495149Y0071793D02*
X0461150Y0071793D01*
X0461480Y0072592D02*
X0495149Y0072592D01*
X0495149Y0073390D02*
X0461536Y0073390D01*
X0461390Y0074189D02*
X0495149Y0074189D01*
X0495149Y0074987D02*
X0460985Y0074987D01*
X0459986Y0075786D02*
X0495149Y0075786D01*
X0495149Y0070196D02*
X0450899Y0070196D01*
X0450899Y0069398D02*
X0495149Y0069398D01*
X0495149Y0068599D02*
X0450899Y0068599D01*
X0450899Y0067801D02*
X0495149Y0067801D01*
X0495149Y0067002D02*
X0450899Y0067002D01*
X0450899Y0066204D02*
X0495149Y0066204D01*
X0495149Y0065405D02*
X0450899Y0065405D01*
X0450899Y0064607D02*
X0495149Y0064607D01*
X0495149Y0063808D02*
X0450936Y0063808D01*
X0450936Y0063010D02*
X0464435Y0063010D01*
X0464620Y0063194D02*
X0463836Y0062410D01*
X0463411Y0061386D01*
X0463411Y0060277D01*
X0463813Y0059306D01*
X0463411Y0058336D01*
X0463411Y0057227D01*
X0463836Y0056202D01*
X0464620Y0055418D01*
X0465644Y0054994D01*
X0466753Y0054994D01*
X0467778Y0055418D01*
X0468562Y0056202D01*
X0468986Y0057227D01*
X0468986Y0058336D01*
X0468584Y0059306D01*
X0468986Y0060277D01*
X0468986Y0061386D01*
X0468562Y0062410D01*
X0467778Y0063194D01*
X0466753Y0063618D01*
X0465644Y0063618D01*
X0464620Y0063194D01*
X0463753Y0062211D02*
X0450899Y0062211D01*
X0450899Y0061413D02*
X0463423Y0061413D01*
X0463411Y0060614D02*
X0450899Y0060614D01*
X0450899Y0059816D02*
X0463602Y0059816D01*
X0463694Y0059017D02*
X0450899Y0059017D01*
X0450899Y0058219D02*
X0463411Y0058219D01*
X0463411Y0057420D02*
X0450899Y0057420D01*
X0450899Y0056622D02*
X0463662Y0056622D01*
X0464215Y0055823D02*
X0450899Y0055823D01*
X0450899Y0055025D02*
X0465570Y0055025D01*
X0466828Y0055025D02*
X0488346Y0055025D01*
X0488120Y0055118D02*
X0489144Y0054694D01*
X0490253Y0054694D01*
X0491278Y0055118D01*
X0492062Y0055902D01*
X0492486Y0056927D01*
X0492486Y0058036D01*
X0492074Y0059031D01*
X0492486Y0060027D01*
X0492486Y0061136D01*
X0492062Y0062160D01*
X0491278Y0062944D01*
X0490253Y0063368D01*
X0489144Y0063368D01*
X0488120Y0062944D01*
X0487336Y0062160D01*
X0486911Y0061136D01*
X0486911Y0060027D01*
X0487324Y0059031D01*
X0486911Y0058036D01*
X0486911Y0056927D01*
X0487336Y0055902D01*
X0488120Y0055118D01*
X0487415Y0055823D02*
X0468183Y0055823D01*
X0468736Y0056622D02*
X0487038Y0056622D01*
X0486911Y0057420D02*
X0468986Y0057420D01*
X0468986Y0058219D02*
X0486987Y0058219D01*
X0487318Y0059017D02*
X0468704Y0059017D01*
X0468795Y0059816D02*
X0486999Y0059816D01*
X0486911Y0060614D02*
X0468986Y0060614D01*
X0468975Y0061413D02*
X0487026Y0061413D01*
X0487387Y0062211D02*
X0468644Y0062211D01*
X0467962Y0063010D02*
X0488278Y0063010D01*
X0491120Y0063010D02*
X0495149Y0063010D01*
X0495149Y0062211D02*
X0492011Y0062211D01*
X0492371Y0061413D02*
X0495149Y0061413D01*
X0495149Y0060614D02*
X0492486Y0060614D01*
X0492399Y0059816D02*
X0495149Y0059816D01*
X0495149Y0059017D02*
X0492080Y0059017D01*
X0492410Y0058219D02*
X0495149Y0058219D01*
X0495149Y0057420D02*
X0492486Y0057420D01*
X0492360Y0056622D02*
X0495149Y0056622D01*
X0495149Y0055823D02*
X0491983Y0055823D01*
X0491052Y0055025D02*
X0495149Y0055025D01*
X0495149Y0054226D02*
X0450899Y0054226D01*
X0450899Y0053428D02*
X0478054Y0053428D01*
X0476855Y0052629D02*
X0450899Y0052629D01*
X0450899Y0051830D02*
X0476366Y0051830D01*
X0476161Y0051032D02*
X0450899Y0051032D01*
X0450899Y0050233D02*
X0476161Y0050233D01*
X0476489Y0049435D02*
X0450899Y0049435D01*
X0450899Y0048636D02*
X0476183Y0048636D01*
X0476161Y0047838D02*
X0450899Y0047838D01*
X0450899Y0047039D02*
X0476343Y0047039D01*
X0476797Y0046241D02*
X0450899Y0046241D01*
X0451669Y0042248D02*
X0347180Y0042248D01*
X0348357Y0041450D02*
X0515026Y0041450D01*
X0515026Y0042248D02*
X0492179Y0042248D01*
X0493909Y0046241D02*
X0481101Y0046241D01*
X0481555Y0047039D02*
X0494707Y0047039D01*
X0495149Y0047838D02*
X0481736Y0047838D01*
X0481715Y0048636D02*
X0495149Y0048636D01*
X0495149Y0049435D02*
X0481408Y0049435D01*
X0481736Y0050233D02*
X0495149Y0050233D01*
X0495149Y0051032D02*
X0481736Y0051032D01*
X0481531Y0051830D02*
X0495149Y0051830D01*
X0495149Y0052629D02*
X0481043Y0052629D01*
X0479844Y0053428D02*
X0495149Y0053428D01*
X0515026Y0040651D02*
X0349061Y0040651D01*
X0349391Y0039853D02*
X0515026Y0039853D01*
X0515026Y0039054D02*
X0349626Y0039054D01*
X0349626Y0038256D02*
X0515026Y0038256D01*
X0515026Y0037457D02*
X0349553Y0037457D01*
X0349222Y0036659D02*
X0515026Y0036659D01*
X0515026Y0035860D02*
X0348746Y0035860D01*
X0347947Y0035062D02*
X0515026Y0035062D01*
X0515026Y0034263D02*
X0282899Y0034263D01*
X0282899Y0033465D02*
X0515026Y0033465D01*
X0515026Y0032666D02*
X0282757Y0032666D01*
X0283007Y0031868D02*
X0282274Y0031868D01*
X0282209Y0031069D02*
X0281476Y0031069D01*
X0281728Y0030271D02*
X0280999Y0030271D01*
X0280999Y0029472D02*
X0281397Y0029472D01*
X0281320Y0028674D02*
X0280999Y0028674D01*
X0280999Y0027875D02*
X0281320Y0027875D01*
X0281552Y0027077D02*
X0280999Y0027077D01*
X0280999Y0026278D02*
X0281882Y0026278D01*
X0282581Y0025480D02*
X0280999Y0025480D01*
X0280999Y0024681D02*
X0283746Y0024681D01*
X0287200Y0024681D02*
X0293746Y0024681D01*
X0292581Y0025480D02*
X0288365Y0025480D01*
X0289064Y0026278D02*
X0291882Y0026278D01*
X0291552Y0027077D02*
X0289395Y0027077D01*
X0289626Y0027875D02*
X0291320Y0027875D01*
X0291320Y0028674D02*
X0289626Y0028674D01*
X0289549Y0029472D02*
X0291397Y0029472D01*
X0291728Y0030271D02*
X0289218Y0030271D01*
X0288738Y0031069D02*
X0292209Y0031069D01*
X0293007Y0031868D02*
X0287939Y0031868D01*
X0287067Y0034612D02*
X0287650Y0034909D01*
X0288179Y0035293D01*
X0288641Y0035755D01*
X0289025Y0036284D01*
X0289322Y0036867D01*
X0289524Y0037488D01*
X0289614Y0038061D01*
X0285873Y0038061D01*
X0285873Y0034319D01*
X0286446Y0034410D01*
X0287067Y0034612D01*
X0287860Y0035062D02*
X0292999Y0035062D01*
X0292201Y0035860D02*
X0288717Y0035860D01*
X0289216Y0036659D02*
X0291725Y0036659D01*
X0291394Y0037457D02*
X0289514Y0037457D01*
X0289584Y0039054D02*
X0291320Y0039054D01*
X0291320Y0038256D02*
X0285873Y0038256D01*
X0285873Y0037457D02*
X0285073Y0037457D01*
X0285073Y0036659D02*
X0285873Y0036659D01*
X0285873Y0035860D02*
X0285073Y0035860D01*
X0285073Y0035062D02*
X0285873Y0035062D01*
X0283086Y0035062D02*
X0282899Y0035062D01*
X0289387Y0039853D02*
X0291555Y0039853D01*
X0291886Y0040651D02*
X0289015Y0040651D01*
X0288357Y0041450D02*
X0292590Y0041450D01*
X0293766Y0042248D02*
X0287187Y0042248D01*
X0297180Y0042248D02*
X0303766Y0042248D01*
X0302590Y0041450D02*
X0298357Y0041450D01*
X0299061Y0040651D02*
X0301886Y0040651D01*
X0301555Y0039853D02*
X0299391Y0039853D01*
X0299626Y0039054D02*
X0301320Y0039054D01*
X0301320Y0038256D02*
X0299626Y0038256D01*
X0299553Y0037457D02*
X0301394Y0037457D01*
X0301725Y0036659D02*
X0299222Y0036659D01*
X0298746Y0035860D02*
X0302201Y0035860D01*
X0302999Y0035062D02*
X0297947Y0035062D01*
X0297939Y0031868D02*
X0303007Y0031868D01*
X0302209Y0031069D02*
X0298738Y0031069D01*
X0299218Y0030271D02*
X0301728Y0030271D01*
X0301397Y0029472D02*
X0299549Y0029472D01*
X0299626Y0028674D02*
X0301320Y0028674D01*
X0301320Y0027875D02*
X0299626Y0027875D01*
X0299395Y0027077D02*
X0301552Y0027077D01*
X0301882Y0026278D02*
X0299064Y0026278D01*
X0298365Y0025480D02*
X0302581Y0025480D01*
X0303746Y0024681D02*
X0297200Y0024681D01*
X0307200Y0024681D02*
X0313746Y0024681D01*
X0312581Y0025480D02*
X0308365Y0025480D01*
X0309064Y0026278D02*
X0311882Y0026278D01*
X0311552Y0027077D02*
X0309395Y0027077D01*
X0309626Y0027875D02*
X0311320Y0027875D01*
X0311320Y0028674D02*
X0309626Y0028674D01*
X0309549Y0029472D02*
X0311397Y0029472D01*
X0311728Y0030271D02*
X0309218Y0030271D01*
X0308738Y0031069D02*
X0312209Y0031069D01*
X0313007Y0031868D02*
X0307939Y0031868D01*
X0307947Y0035062D02*
X0312999Y0035062D01*
X0312201Y0035860D02*
X0308746Y0035860D01*
X0309222Y0036659D02*
X0311725Y0036659D01*
X0311394Y0037457D02*
X0309553Y0037457D01*
X0309626Y0038256D02*
X0311320Y0038256D01*
X0311320Y0039054D02*
X0309626Y0039054D01*
X0309391Y0039853D02*
X0311555Y0039853D01*
X0311886Y0040651D02*
X0309061Y0040651D01*
X0308357Y0041450D02*
X0312590Y0041450D01*
X0313766Y0042248D02*
X0307180Y0042248D01*
X0317180Y0042248D02*
X0323766Y0042248D01*
X0322590Y0041450D02*
X0318357Y0041450D01*
X0319061Y0040651D02*
X0321886Y0040651D01*
X0321555Y0039853D02*
X0319391Y0039853D01*
X0319626Y0039054D02*
X0321320Y0039054D01*
X0321320Y0038256D02*
X0319626Y0038256D01*
X0319553Y0037457D02*
X0321394Y0037457D01*
X0321725Y0036659D02*
X0319222Y0036659D01*
X0318746Y0035860D02*
X0322201Y0035860D01*
X0322999Y0035062D02*
X0317947Y0035062D01*
X0317939Y0031868D02*
X0323007Y0031868D01*
X0322209Y0031069D02*
X0318738Y0031069D01*
X0319218Y0030271D02*
X0321728Y0030271D01*
X0321397Y0029472D02*
X0319549Y0029472D01*
X0319626Y0028674D02*
X0321320Y0028674D01*
X0321320Y0027875D02*
X0319626Y0027875D01*
X0319395Y0027077D02*
X0321552Y0027077D01*
X0321882Y0026278D02*
X0319064Y0026278D01*
X0318365Y0025480D02*
X0322581Y0025480D01*
X0323746Y0024681D02*
X0317200Y0024681D01*
X0327200Y0024681D02*
X0333746Y0024681D01*
X0332581Y0025480D02*
X0328365Y0025480D01*
X0329064Y0026278D02*
X0331882Y0026278D01*
X0331552Y0027077D02*
X0329395Y0027077D01*
X0329626Y0027875D02*
X0331320Y0027875D01*
X0331320Y0028674D02*
X0329626Y0028674D01*
X0329549Y0029472D02*
X0331397Y0029472D01*
X0331728Y0030271D02*
X0329218Y0030271D01*
X0328738Y0031069D02*
X0332209Y0031069D01*
X0333007Y0031868D02*
X0327939Y0031868D01*
X0327947Y0035062D02*
X0332999Y0035062D01*
X0332201Y0035860D02*
X0328746Y0035860D01*
X0329222Y0036659D02*
X0331725Y0036659D01*
X0331394Y0037457D02*
X0329553Y0037457D01*
X0329626Y0038256D02*
X0331320Y0038256D01*
X0331320Y0039054D02*
X0329626Y0039054D01*
X0329391Y0039853D02*
X0331555Y0039853D01*
X0331886Y0040651D02*
X0329061Y0040651D01*
X0328357Y0041450D02*
X0332590Y0041450D01*
X0333766Y0042248D02*
X0327180Y0042248D01*
X0337180Y0042248D02*
X0343766Y0042248D01*
X0342590Y0041450D02*
X0338357Y0041450D01*
X0339061Y0040651D02*
X0341886Y0040651D01*
X0341555Y0039853D02*
X0339391Y0039853D01*
X0339626Y0039054D02*
X0341320Y0039054D01*
X0341320Y0038256D02*
X0339626Y0038256D01*
X0339553Y0037457D02*
X0341394Y0037457D01*
X0341725Y0036659D02*
X0339222Y0036659D01*
X0338746Y0035860D02*
X0342201Y0035860D01*
X0342999Y0035062D02*
X0337947Y0035062D01*
X0337939Y0031868D02*
X0343007Y0031868D01*
X0342209Y0031069D02*
X0338738Y0031069D01*
X0339218Y0030271D02*
X0341728Y0030271D01*
X0341397Y0029472D02*
X0339549Y0029472D01*
X0339626Y0028674D02*
X0341320Y0028674D01*
X0341320Y0027875D02*
X0339626Y0027875D01*
X0339395Y0027077D02*
X0341552Y0027077D01*
X0341882Y0026278D02*
X0339064Y0026278D01*
X0338365Y0025480D02*
X0342581Y0025480D01*
X0343746Y0024681D02*
X0337200Y0024681D01*
X0347200Y0024681D02*
X0514161Y0024681D01*
X0514848Y0025480D02*
X0348365Y0025480D01*
X0349064Y0026278D02*
X0515026Y0026278D01*
X0515026Y0027077D02*
X0349395Y0027077D01*
X0349626Y0027875D02*
X0515026Y0027875D01*
X0515026Y0028674D02*
X0349626Y0028674D01*
X0349549Y0029472D02*
X0515026Y0029472D01*
X0515026Y0030271D02*
X0349218Y0030271D01*
X0348738Y0031069D02*
X0515026Y0031069D01*
X0515026Y0031868D02*
X0347939Y0031868D01*
X0376749Y0060481D02*
X0381399Y0055831D01*
X0376749Y0060481D02*
X0376749Y0088331D01*
X0372949Y0092131D01*
X0371299Y0092131D01*
X0345499Y0092631D02*
X0333799Y0092631D01*
X0315349Y0111081D01*
X0315349Y0177631D01*
X0297799Y0195181D01*
X0297799Y0243631D01*
X0294999Y0246431D01*
X0294049Y0246431D01*
X0294949Y0242331D02*
X0294949Y0236931D01*
X0292699Y0234681D01*
X0292699Y0197981D01*
X0313749Y0176931D01*
X0313749Y0110431D01*
X0322699Y0101481D01*
X0322699Y0064531D01*
X0315149Y0098581D02*
X0310549Y0103181D01*
X0310549Y0175631D01*
X0289499Y0196681D01*
X0289499Y0245081D01*
X0285399Y0241531D02*
X0285399Y0198431D01*
X0303599Y0180231D01*
X0303599Y0152781D01*
X0299799Y0156381D02*
X0299799Y0181681D01*
X0283749Y0197731D01*
X0283749Y0214281D01*
X0282549Y0215481D01*
X0299449Y0204631D02*
X0299449Y0247931D01*
X0294149Y0253231D01*
X0293699Y0257731D02*
X0246599Y0210631D01*
X0246599Y0167131D01*
X0247799Y0165931D01*
X0257949Y0158331D02*
X0257949Y0206781D01*
X0250549Y0216881D02*
X0244949Y0211281D01*
X0244949Y0111981D01*
X0235249Y0102281D01*
X0235249Y0100681D01*
X0243349Y0112681D02*
X0219199Y0088531D01*
X0219199Y0061881D01*
X0243349Y0112681D02*
X0243349Y0211981D01*
X0292299Y0260931D01*
X0314749Y0260931D01*
X0320449Y0266631D01*
X0320449Y0277688D01*
X0325473Y0282713D01*
X0330199Y0277438D02*
X0330199Y0270231D01*
X0319299Y0259331D01*
X0292999Y0259331D01*
X0251749Y0218081D01*
X0250549Y0216881D01*
X0263949Y0196681D02*
X0267849Y0192781D01*
X0267849Y0158181D01*
X0280849Y0145181D01*
X0301599Y0145181D01*
X0337749Y0145431D02*
X0337749Y0176731D01*
X0341399Y0179181D02*
X0338999Y0181581D01*
X0322499Y0181581D01*
X0299449Y0204631D01*
X0303099Y0206181D02*
X0317849Y0191431D01*
X0333449Y0191431D01*
X0345549Y0195881D02*
X0320449Y0195881D01*
X0303099Y0206181D02*
X0303099Y0206231D01*
X0291099Y0197331D02*
X0291099Y0238031D01*
X0292299Y0239231D01*
X0281549Y0254181D02*
X0280449Y0255281D01*
X0280449Y0277737D01*
X0275473Y0282713D01*
X0258349Y0254981D02*
X0246399Y0266931D01*
X0243699Y0266931D01*
X0240499Y0270131D01*
X0240499Y0277687D01*
X0235473Y0282713D01*
X0235473Y0272713D02*
X0242855Y0265331D01*
X0245749Y0265331D01*
X0255199Y0255881D01*
X0255199Y0247331D01*
X0258349Y0251131D02*
X0258349Y0254981D01*
X0244399Y0254631D02*
X0240099Y0254631D01*
X0235849Y0258881D01*
X0211749Y0258881D01*
X0198299Y0272331D01*
X0186349Y0272331D01*
X0189499Y0275531D02*
X0197399Y0275531D01*
X0212449Y0260481D01*
X0238299Y0260481D01*
X0241349Y0257431D01*
X0293699Y0257731D02*
X0319999Y0257731D01*
X0334980Y0272713D01*
X0335473Y0272713D01*
X0330199Y0277438D02*
X0335473Y0282713D01*
X0336399Y0262081D02*
X0337949Y0260531D01*
X0453585Y0260531D01*
X0462549Y0269495D01*
X0443685Y0258831D02*
X0462549Y0239967D01*
X0443685Y0258831D02*
X0335049Y0258831D01*
X0336399Y0262081D02*
X0332599Y0262081D01*
X0341699Y0203231D02*
X0347249Y0203231D01*
X0353149Y0197331D01*
X0353149Y0167581D01*
X0349649Y0163381D02*
X0349649Y0191781D01*
X0345549Y0195881D01*
X0341399Y0179181D02*
X0341399Y0165081D01*
X0355299Y0151181D01*
X0355249Y0151181D01*
X0363349Y0149681D02*
X0349649Y0163381D01*
X0363349Y0149681D02*
X0363349Y0149481D01*
X0312149Y0176281D02*
X0291099Y0197331D01*
X0312149Y0176281D02*
X0312149Y0107581D01*
X0319599Y0100131D01*
X0319599Y0100081D01*
X0264749Y0151531D02*
X0257949Y0158331D01*
X0450899Y0085368D02*
X0451215Y0085368D01*
X0470167Y0090958D02*
X0495149Y0090958D01*
X0495149Y0091756D02*
X0470700Y0091756D01*
X0470936Y0092555D02*
X0495149Y0092555D01*
X0495149Y0093353D02*
X0470936Y0093353D01*
X0470640Y0094152D02*
X0494428Y0094152D01*
X0493630Y0094950D02*
X0470022Y0094950D01*
X0462818Y0110920D02*
X0460780Y0110920D01*
X0461334Y0111719D02*
X0462234Y0111719D01*
X0461961Y0112517D02*
X0461586Y0112517D01*
X0461586Y0113316D02*
X0461961Y0113316D01*
X0462222Y0114114D02*
X0461305Y0114114D01*
X0460709Y0114913D02*
X0462789Y0114913D01*
X0476499Y0118905D02*
X0506320Y0118905D01*
X0506311Y0119704D02*
X0476499Y0119704D01*
X0476499Y0120502D02*
X0482685Y0120502D01*
X0482062Y0121301D02*
X0476499Y0121301D01*
X0476499Y0122099D02*
X0481761Y0122099D01*
X0481761Y0122898D02*
X0476499Y0122898D01*
X0476499Y0123697D02*
X0477017Y0123697D01*
X0478381Y0123697D02*
X0480217Y0123697D01*
X0481581Y0123697D02*
X0481994Y0123697D01*
X0486412Y0120502D02*
X0506505Y0120502D01*
X0506977Y0121301D02*
X0487036Y0121301D01*
X0503886Y0107726D02*
X0515026Y0107726D01*
X0515026Y0106928D02*
X0503762Y0106928D01*
X0503389Y0106129D02*
X0515026Y0106129D01*
X0515026Y0105331D02*
X0509727Y0105331D01*
X0510790Y0104532D02*
X0515026Y0104532D01*
X0515026Y0103734D02*
X0511221Y0103734D01*
X0511386Y0102935D02*
X0515026Y0102935D01*
X0515026Y0102137D02*
X0511349Y0102137D01*
X0511018Y0101338D02*
X0515026Y0101338D01*
X0515026Y0100540D02*
X0513532Y0100540D01*
X0513528Y0100544D02*
X0512503Y0100968D01*
X0511394Y0100968D01*
X0510370Y0100544D01*
X0509586Y0099760D01*
X0509161Y0098736D01*
X0509161Y0097627D01*
X0509586Y0096602D01*
X0510370Y0095818D01*
X0511394Y0095394D01*
X0512503Y0095394D01*
X0513528Y0095818D01*
X0514312Y0096602D01*
X0514736Y0097627D01*
X0514736Y0098736D01*
X0514312Y0099760D01*
X0513528Y0100544D01*
X0514320Y0099741D02*
X0515026Y0099741D01*
X0515026Y0098943D02*
X0514650Y0098943D01*
X0514736Y0098144D02*
X0515026Y0098144D01*
X0515026Y0097346D02*
X0514620Y0097346D01*
X0514257Y0096547D02*
X0515026Y0096547D01*
X0515026Y0095749D02*
X0513360Y0095749D01*
X0510538Y0095749D02*
X0500408Y0095749D01*
X0500888Y0096547D02*
X0509641Y0096547D01*
X0509278Y0097346D02*
X0501086Y0097346D01*
X0501083Y0098144D02*
X0509161Y0098144D01*
X0509247Y0098943D02*
X0500752Y0098943D01*
X0500081Y0099741D02*
X0509578Y0099741D01*
X0510299Y0100540D02*
X0510365Y0100540D01*
X0507470Y0105331D02*
X0502467Y0105331D01*
X0505680Y0144458D02*
X0476499Y0144458D01*
X0476499Y0145256D02*
X0505089Y0145256D01*
X0504811Y0146055D02*
X0476499Y0146055D01*
X0476499Y0146853D02*
X0504811Y0146853D01*
X0505067Y0147652D02*
X0476499Y0147652D01*
X0476499Y0148450D02*
X0505626Y0148450D01*
X0468234Y0172406D02*
X0457832Y0172406D01*
X0456665Y0172406D02*
X0456400Y0172406D01*
X0459214Y0173204D02*
X0467904Y0173204D01*
X0467811Y0174003D02*
X0459778Y0174003D01*
X0460036Y0174801D02*
X0467921Y0174801D01*
X0468275Y0175600D02*
X0460036Y0175600D01*
X0459762Y0176398D02*
X0469151Y0176398D01*
D21*
X0236049Y0112931D02*
X0230499Y0118481D01*
X0163049Y0118481D01*
X0145199Y0100381D01*
X0062799Y0100381D01*
X0043199Y0119981D01*
X0032831Y0119981D01*
X0032796Y0120016D01*
X0077399Y0110781D02*
X0082899Y0105281D01*
X0141999Y0105281D01*
X0160299Y0123581D01*
X0190499Y0123581D01*
X0190549Y0123631D01*
D22*
X0223207Y0209931D02*
X0223157Y0209981D01*
X0223157Y0246481D01*
D23*
X0251549Y0186631D02*
X0251549Y0111981D01*
X0235499Y0095931D01*
X0235499Y0038486D01*
X0235473Y0038461D01*
X0240499Y0033486D02*
X0240499Y0044981D01*
X0237449Y0048031D01*
X0237449Y0095231D01*
X0253349Y0111131D01*
X0253349Y0163981D01*
X0254449Y0165081D01*
X0240499Y0033486D02*
X0235473Y0028461D01*
M02*
