G75*
%MOIN*%
%OFA0B0*%
%FSLAX25Y25*%
%IPPOS*%
%LPD*%
%AMOC8*
5,1,8,0,0,1.08239X$1,22.5*
%
%ADD10C,0.05906*%
%ADD11C,0.08268*%
%ADD12C,0.06496*%
%ADD13C,0.08858*%
%ADD14C,0.07677*%
%ADD15C,0.04724*%
%ADD16C,0.03175*%
%ADD17C,0.00800*%
D10*
X0215473Y0028461D03*
X0225473Y0028461D03*
X0235473Y0028461D03*
X0245473Y0028461D03*
X0255473Y0028461D03*
X0265473Y0028461D03*
X0275473Y0028461D03*
X0285473Y0028461D03*
X0295473Y0028461D03*
X0305473Y0028461D03*
X0315473Y0028461D03*
X0325473Y0028461D03*
X0335473Y0028461D03*
X0345473Y0028461D03*
X0345473Y0038461D03*
X0335473Y0038461D03*
X0325473Y0038461D03*
X0315473Y0038461D03*
X0305473Y0038461D03*
X0295473Y0038461D03*
X0285473Y0038461D03*
X0275473Y0038461D03*
X0265473Y0038461D03*
X0255473Y0038461D03*
X0245473Y0038461D03*
X0235473Y0038461D03*
X0225473Y0038461D03*
X0215473Y0038461D03*
X0215473Y0272713D03*
X0225473Y0272713D03*
X0235473Y0272713D03*
X0245473Y0272713D03*
X0255473Y0272713D03*
X0265473Y0272713D03*
X0275473Y0272713D03*
X0285473Y0272713D03*
X0295473Y0272713D03*
X0305473Y0272713D03*
X0315473Y0272713D03*
X0325473Y0272713D03*
X0335473Y0272713D03*
X0345473Y0272713D03*
X0345473Y0282713D03*
X0335473Y0282713D03*
X0325473Y0282713D03*
X0315473Y0282713D03*
X0305473Y0282713D03*
X0295473Y0282713D03*
X0285473Y0282713D03*
X0275473Y0282713D03*
X0265473Y0282713D03*
X0255473Y0282713D03*
X0245473Y0282713D03*
X0235473Y0282713D03*
X0225473Y0282713D03*
X0215473Y0282713D03*
D11*
X0032796Y0045016D03*
X0032796Y0060016D03*
X0032796Y0075016D03*
X0032796Y0090016D03*
X0032796Y0105016D03*
X0032796Y0120016D03*
X0032796Y0135016D03*
X0032796Y0150016D03*
D12*
X0415499Y0060031D03*
D13*
X0311790Y0209931D03*
X0311740Y0246481D03*
X0223157Y0246481D03*
X0223207Y0209931D03*
X0095699Y0148422D03*
X0059099Y0148422D03*
X0059099Y0059840D03*
X0095699Y0059840D03*
D14*
X0102735Y0190617D03*
X0122578Y0190617D03*
X0142420Y0190617D03*
X0142420Y0220145D03*
X0122578Y0220145D03*
X0102735Y0220145D03*
X0202499Y0220145D03*
X0202499Y0205381D03*
X0202499Y0190617D03*
X0362785Y0239967D03*
X0382628Y0239967D03*
X0402470Y0239967D03*
X0402470Y0269495D03*
X0382628Y0269495D03*
X0362785Y0269495D03*
X0462549Y0269495D03*
X0462549Y0254731D03*
X0462549Y0239967D03*
D15*
X0382249Y0205968D03*
X0382249Y0198094D03*
X0263636Y0084981D03*
X0255762Y0084981D03*
D16*
X0243199Y0079931D03*
X0243149Y0075931D03*
X0226199Y0073681D03*
X0226199Y0070531D03*
X0219199Y0061881D03*
X0213449Y0058431D03*
X0156761Y0071469D03*
X0154399Y0047381D03*
X0241599Y0092181D03*
X0235249Y0100681D03*
X0219999Y0097231D03*
X0215649Y0096481D03*
X0236049Y0112931D03*
X0267449Y0116381D03*
X0302599Y0099481D03*
X0315149Y0098581D03*
X0319599Y0100081D03*
X0330349Y0091081D03*
X0338899Y0101781D03*
X0345499Y0092631D03*
X0371299Y0092131D03*
X0373399Y0085831D03*
X0371049Y0082281D03*
X0369899Y0075831D03*
X0362649Y0075831D03*
X0350949Y0072631D03*
X0345299Y0061831D03*
X0330199Y0073081D03*
X0322699Y0064531D03*
X0307749Y0061681D03*
X0286749Y0061531D03*
X0272349Y0075481D03*
X0292599Y0082681D03*
X0282749Y0087981D03*
X0278399Y0086481D03*
X0286749Y0092181D03*
X0345699Y0133131D03*
X0340699Y0141731D03*
X0337749Y0145431D03*
X0330699Y0142131D03*
X0340699Y0151931D03*
X0355299Y0151181D03*
X0363349Y0149481D03*
X0369199Y0153081D03*
X0368399Y0145481D03*
X0379999Y0142281D03*
X0375949Y0134631D03*
X0368674Y0134156D03*
X0388199Y0118681D03*
X0392099Y0113181D03*
X0403049Y0113181D03*
X0409199Y0114381D03*
X0406149Y0105481D03*
X0402849Y0102331D03*
X0392099Y0102331D03*
X0388249Y0096281D03*
X0388149Y0084481D03*
X0394299Y0078281D03*
X0388899Y0070981D03*
X0388949Y0066981D03*
X0381399Y0055831D03*
X0365749Y0053731D03*
X0371799Y0045281D03*
X0371799Y0064631D03*
X0407549Y0074281D03*
X0434249Y0060581D03*
X0445849Y0054831D03*
X0448149Y0063531D03*
X0448599Y0073681D03*
X0458749Y0073281D03*
X0458749Y0080331D03*
X0452199Y0080381D03*
X0451949Y0088081D03*
X0447899Y0099131D03*
X0454999Y0099331D03*
X0468149Y0092881D03*
X0484399Y0105481D03*
X0498299Y0097581D03*
X0508599Y0102781D03*
X0501099Y0107781D03*
X0503899Y0110631D03*
X0511149Y0111481D03*
X0509549Y0115481D03*
X0509099Y0119481D03*
X0497099Y0115731D03*
X0484549Y0122581D03*
X0480899Y0126431D03*
X0480899Y0129631D03*
X0480899Y0132831D03*
X0477699Y0132831D03*
X0477699Y0129631D03*
X0477699Y0126431D03*
X0500349Y0131831D03*
X0511149Y0136131D03*
X0507599Y0146481D03*
X0500749Y0146531D03*
X0488699Y0154381D03*
X0499699Y0157931D03*
X0507099Y0155131D03*
X0482199Y0162731D03*
X0470649Y0160531D03*
X0460649Y0164581D03*
X0453849Y0171281D03*
X0457249Y0175181D03*
X0468699Y0181481D03*
X0478499Y0179231D03*
X0478499Y0176081D03*
X0478499Y0172931D03*
X0470599Y0173981D03*
X0451549Y0161231D03*
X0447499Y0169081D03*
X0444399Y0169081D03*
X0434249Y0186681D03*
X0370749Y0166781D03*
X0366149Y0173781D03*
X0357099Y0179481D03*
X0345699Y0171681D03*
X0353149Y0167581D03*
X0337749Y0176731D03*
X0334149Y0165431D03*
X0320399Y0166831D03*
X0307749Y0171681D03*
X0285099Y0178381D03*
X0281899Y0178381D03*
X0261849Y0171681D03*
X0254449Y0165081D03*
X0247799Y0165931D03*
X0228249Y0163081D03*
X0224049Y0162631D03*
X0223599Y0147531D03*
X0226549Y0143631D03*
X0230449Y0134831D03*
X0233499Y0134831D03*
X0264749Y0151531D03*
X0274849Y0161031D03*
X0289749Y0150681D03*
X0299799Y0156381D03*
X0303599Y0152781D03*
X0301599Y0145181D03*
X0251549Y0186631D03*
X0263949Y0196681D03*
X0257949Y0206781D03*
X0282549Y0215481D03*
X0303099Y0206231D03*
X0320449Y0195881D03*
X0333449Y0191431D03*
X0345549Y0195881D03*
X0341699Y0203231D03*
X0331549Y0214831D03*
X0331549Y0217981D03*
X0331549Y0221131D03*
X0331549Y0224231D03*
X0328399Y0224231D03*
X0328399Y0221131D03*
X0328399Y0217981D03*
X0328399Y0214831D03*
X0325249Y0214831D03*
X0325249Y0217931D03*
X0325249Y0221081D03*
X0325249Y0224231D03*
X0309949Y0225231D03*
X0309949Y0222331D03*
X0306799Y0222331D03*
X0306799Y0225281D03*
X0306799Y0228231D03*
X0306799Y0231181D03*
X0306799Y0234131D03*
X0309949Y0234131D03*
X0309949Y0231181D03*
X0309949Y0228281D03*
X0292299Y0239231D03*
X0294949Y0242331D03*
X0294049Y0246431D03*
X0289499Y0245081D03*
X0285399Y0241531D03*
X0294149Y0253231D03*
X0281549Y0254181D03*
X0258349Y0251131D03*
X0255199Y0247331D03*
X0244399Y0254631D03*
X0241349Y0257431D03*
X0206299Y0282931D03*
X0203149Y0282931D03*
X0199999Y0282931D03*
X0189499Y0275531D03*
X0186349Y0272331D03*
X0195199Y0227831D03*
X0127599Y0178381D03*
X0124349Y0178381D03*
X0121149Y0178381D03*
X0117899Y0178381D03*
X0136349Y0174181D03*
X0127649Y0158431D03*
X0127649Y0155281D03*
X0124499Y0155281D03*
X0124499Y0158431D03*
X0121349Y0158431D03*
X0121349Y0155281D03*
X0118199Y0155281D03*
X0118199Y0158431D03*
X0115149Y0142181D03*
X0115149Y0139031D03*
X0111949Y0139031D03*
X0111949Y0142181D03*
X0108799Y0142181D03*
X0108799Y0139031D03*
X0111599Y0118981D03*
X0111599Y0115881D03*
X0114749Y0115881D03*
X0114749Y0118981D03*
X0114749Y0112731D03*
X0111599Y0112731D03*
X0131249Y0112931D03*
X0134249Y0112931D03*
X0134249Y0115931D03*
X0134249Y0118931D03*
X0131249Y0118931D03*
X0131249Y0115931D03*
X0147799Y0131531D03*
X0157999Y0141481D03*
X0190549Y0123631D03*
X0204699Y0123631D03*
X0158249Y0097631D03*
X0077399Y0110781D03*
X0019099Y0135531D03*
X0019099Y0138731D03*
X0019099Y0141931D03*
X0015899Y0141931D03*
X0015899Y0138731D03*
X0015899Y0135531D03*
X0165599Y0163031D03*
X0335049Y0258831D03*
X0332599Y0262081D03*
X0368949Y0225781D03*
X0368949Y0222581D03*
X0368949Y0219381D03*
X0368949Y0216181D03*
X0367599Y0189381D03*
X0402649Y0148831D03*
X0398799Y0129781D03*
X0408649Y0126531D03*
X0438449Y0119781D03*
X0438399Y0115731D03*
X0458799Y0112881D03*
X0464749Y0112931D03*
X0418499Y0096681D03*
X0466199Y0060831D03*
X0466199Y0057781D03*
X0478949Y0050781D03*
X0478949Y0048031D03*
X0489699Y0057481D03*
X0489699Y0060581D03*
X0498149Y0081181D03*
X0511949Y0098181D03*
X0473649Y0145731D03*
X0468649Y0146131D03*
X0509349Y0180031D03*
X0510899Y0199381D03*
X0507749Y0199381D03*
X0478999Y0261381D03*
X0423349Y0053331D03*
X0430249Y0052381D03*
X0307749Y0045281D03*
D17*
X0308860Y0047838D02*
X0370688Y0047838D01*
X0370220Y0047644D02*
X0369436Y0046860D01*
X0369011Y0045836D01*
X0369011Y0044727D01*
X0369436Y0043702D01*
X0370220Y0042918D01*
X0371244Y0042494D01*
X0372353Y0042494D01*
X0373378Y0042918D01*
X0374162Y0043702D01*
X0374586Y0044727D01*
X0374586Y0045836D01*
X0374162Y0046860D01*
X0373378Y0047644D01*
X0372353Y0048068D01*
X0371244Y0048068D01*
X0370220Y0047644D01*
X0369615Y0047039D02*
X0309932Y0047039D01*
X0310112Y0046860D02*
X0309328Y0047644D01*
X0308303Y0048068D01*
X0307194Y0048068D01*
X0306170Y0047644D01*
X0305386Y0046860D01*
X0304961Y0045836D01*
X0304961Y0044727D01*
X0305386Y0043702D01*
X0306170Y0042918D01*
X0307194Y0042494D01*
X0308303Y0042494D01*
X0309328Y0042918D01*
X0310112Y0043702D01*
X0310536Y0044727D01*
X0310536Y0045836D01*
X0310112Y0046860D01*
X0310368Y0046241D02*
X0369179Y0046241D01*
X0369011Y0045442D02*
X0310536Y0045442D01*
X0310502Y0044644D02*
X0369046Y0044644D01*
X0369376Y0043845D02*
X0310171Y0043845D01*
X0309457Y0043047D02*
X0370091Y0043047D01*
X0373507Y0043047D02*
X0515026Y0043047D01*
X0515026Y0043845D02*
X0374221Y0043845D01*
X0374552Y0044644D02*
X0515026Y0044644D01*
X0515026Y0045442D02*
X0374586Y0045442D01*
X0374418Y0046241D02*
X0515026Y0046241D01*
X0515026Y0047039D02*
X0373982Y0047039D01*
X0372910Y0047838D02*
X0515026Y0047838D01*
X0515026Y0048636D02*
X0201999Y0048636D01*
X0201999Y0047838D02*
X0306638Y0047838D01*
X0305565Y0047039D02*
X0201999Y0047039D01*
X0201999Y0046241D02*
X0305129Y0046241D01*
X0304961Y0045442D02*
X0201999Y0045442D01*
X0201999Y0044644D02*
X0304996Y0044644D01*
X0305326Y0043845D02*
X0201999Y0043845D01*
X0201999Y0043047D02*
X0306041Y0043047D01*
X0306299Y0042613D02*
X0304647Y0042613D01*
X0303121Y0041981D01*
X0301953Y0040813D01*
X0301320Y0039287D01*
X0301320Y0037635D01*
X0301953Y0036108D01*
X0303121Y0034940D01*
X0304647Y0034308D01*
X0306299Y0034308D01*
X0307826Y0034940D01*
X0308994Y0036108D01*
X0309626Y0037635D01*
X0309626Y0039287D01*
X0308994Y0040813D01*
X0307826Y0041981D01*
X0306299Y0042613D01*
X0307180Y0042248D02*
X0313766Y0042248D01*
X0313121Y0041981D02*
X0311953Y0040813D01*
X0311320Y0039287D01*
X0311320Y0037635D01*
X0311953Y0036108D01*
X0313121Y0034940D01*
X0314647Y0034308D01*
X0316299Y0034308D01*
X0317826Y0034940D01*
X0318994Y0036108D01*
X0319626Y0037635D01*
X0319626Y0039287D01*
X0318994Y0040813D01*
X0317826Y0041981D01*
X0316299Y0042613D01*
X0314647Y0042613D01*
X0313121Y0041981D01*
X0312590Y0041450D02*
X0308357Y0041450D01*
X0309061Y0040651D02*
X0311886Y0040651D01*
X0311555Y0039853D02*
X0309391Y0039853D01*
X0309626Y0039054D02*
X0311320Y0039054D01*
X0311320Y0038256D02*
X0309626Y0038256D01*
X0309553Y0037457D02*
X0311394Y0037457D01*
X0311725Y0036659D02*
X0309222Y0036659D01*
X0308746Y0035860D02*
X0312201Y0035860D01*
X0312999Y0035062D02*
X0307947Y0035062D01*
X0306299Y0032613D02*
X0304647Y0032613D01*
X0303121Y0031981D01*
X0301953Y0030813D01*
X0301320Y0029287D01*
X0301320Y0027635D01*
X0301953Y0026108D01*
X0303121Y0024940D01*
X0304567Y0024341D01*
X0296009Y0024341D01*
X0296446Y0024410D01*
X0297067Y0024612D01*
X0297650Y0024909D01*
X0298179Y0025293D01*
X0298641Y0025755D01*
X0299025Y0026284D01*
X0299322Y0026867D01*
X0299524Y0027488D01*
X0299614Y0028061D01*
X0295873Y0028061D01*
X0295873Y0028861D01*
X0295073Y0028861D01*
X0295073Y0032602D01*
X0294501Y0032511D01*
X0293879Y0032309D01*
X0293297Y0032012D01*
X0292768Y0031628D01*
X0292306Y0031166D01*
X0291921Y0030637D01*
X0291625Y0030055D01*
X0291423Y0029433D01*
X0291332Y0028861D01*
X0295073Y0028861D01*
X0295073Y0028061D01*
X0291332Y0028061D01*
X0291423Y0027488D01*
X0291625Y0026867D01*
X0291921Y0026284D01*
X0292306Y0025755D01*
X0292768Y0025293D01*
X0293297Y0024909D01*
X0293879Y0024612D01*
X0294501Y0024410D01*
X0294938Y0024341D01*
X0286379Y0024341D01*
X0287826Y0024940D01*
X0288994Y0026108D01*
X0289626Y0027635D01*
X0289626Y0029287D01*
X0288994Y0030813D01*
X0287826Y0031981D01*
X0286299Y0032613D01*
X0284647Y0032613D01*
X0283121Y0031981D01*
X0281953Y0030813D01*
X0281320Y0029287D01*
X0281320Y0027635D01*
X0281953Y0026108D01*
X0283121Y0024940D01*
X0284567Y0024341D01*
X0276379Y0024341D01*
X0277826Y0024940D01*
X0278994Y0026108D01*
X0279626Y0027635D01*
X0279626Y0029287D01*
X0278994Y0030813D01*
X0277826Y0031981D01*
X0276299Y0032613D01*
X0274647Y0032613D01*
X0273121Y0031981D01*
X0271953Y0030813D01*
X0271320Y0029287D01*
X0271320Y0027635D01*
X0271953Y0026108D01*
X0273121Y0024940D01*
X0274567Y0024341D01*
X0266379Y0024341D01*
X0267826Y0024940D01*
X0268994Y0026108D01*
X0269626Y0027635D01*
X0269626Y0029287D01*
X0268994Y0030813D01*
X0267826Y0031981D01*
X0266299Y0032613D01*
X0264647Y0032613D01*
X0263121Y0031981D01*
X0261953Y0030813D01*
X0261320Y0029287D01*
X0261320Y0027635D01*
X0261953Y0026108D01*
X0263121Y0024940D01*
X0264567Y0024341D01*
X0256379Y0024341D01*
X0257826Y0024940D01*
X0258994Y0026108D01*
X0259626Y0027635D01*
X0259626Y0029287D01*
X0258994Y0030813D01*
X0257826Y0031981D01*
X0256299Y0032613D01*
X0254647Y0032613D01*
X0253121Y0031981D01*
X0251953Y0030813D01*
X0251320Y0029287D01*
X0251320Y0027635D01*
X0251953Y0026108D01*
X0253121Y0024940D01*
X0254567Y0024341D01*
X0246009Y0024341D01*
X0246446Y0024410D01*
X0247067Y0024612D01*
X0247650Y0024909D01*
X0248179Y0025293D01*
X0248641Y0025755D01*
X0249025Y0026284D01*
X0249322Y0026867D01*
X0249524Y0027488D01*
X0249614Y0028061D01*
X0245873Y0028061D01*
X0245873Y0028861D01*
X0245073Y0028861D01*
X0245073Y0032602D01*
X0244501Y0032511D01*
X0243879Y0032309D01*
X0243297Y0032012D01*
X0242768Y0031628D01*
X0242306Y0031166D01*
X0241921Y0030637D01*
X0241625Y0030055D01*
X0241423Y0029433D01*
X0241332Y0028861D01*
X0245073Y0028861D01*
X0245073Y0028061D01*
X0241332Y0028061D01*
X0241423Y0027488D01*
X0241625Y0026867D01*
X0241921Y0026284D01*
X0242306Y0025755D01*
X0242768Y0025293D01*
X0243297Y0024909D01*
X0243879Y0024612D01*
X0244501Y0024410D01*
X0244938Y0024341D01*
X0236379Y0024341D01*
X0237826Y0024940D01*
X0238994Y0026108D01*
X0239626Y0027635D01*
X0239626Y0029287D01*
X0238994Y0030813D01*
X0237826Y0031981D01*
X0236299Y0032613D01*
X0234647Y0032613D01*
X0233121Y0031981D01*
X0231953Y0030813D01*
X0231320Y0029287D01*
X0231320Y0027635D01*
X0231953Y0026108D01*
X0233121Y0024940D01*
X0234567Y0024341D01*
X0226379Y0024341D01*
X0227826Y0024940D01*
X0228994Y0026108D01*
X0229626Y0027635D01*
X0229626Y0029287D01*
X0228994Y0030813D01*
X0227826Y0031981D01*
X0226299Y0032613D01*
X0224647Y0032613D01*
X0223121Y0031981D01*
X0221953Y0030813D01*
X0221320Y0029287D01*
X0221320Y0027635D01*
X0221953Y0026108D01*
X0223121Y0024940D01*
X0224567Y0024341D01*
X0216009Y0024341D01*
X0216446Y0024410D01*
X0217067Y0024612D01*
X0217650Y0024909D01*
X0218179Y0025293D01*
X0218641Y0025755D01*
X0219025Y0026284D01*
X0219322Y0026867D01*
X0219524Y0027488D01*
X0219614Y0028061D01*
X0215873Y0028061D01*
X0215873Y0028861D01*
X0215073Y0028861D01*
X0215073Y0032602D01*
X0214501Y0032511D01*
X0213879Y0032309D01*
X0213297Y0032012D01*
X0212768Y0031628D01*
X0212306Y0031166D01*
X0211921Y0030637D01*
X0211625Y0030055D01*
X0211423Y0029433D01*
X0211332Y0028861D01*
X0215073Y0028861D01*
X0215073Y0028061D01*
X0211332Y0028061D01*
X0211423Y0027488D01*
X0211625Y0026867D01*
X0211921Y0026284D01*
X0212306Y0025755D01*
X0212768Y0025293D01*
X0213297Y0024909D01*
X0213879Y0024612D01*
X0214501Y0024410D01*
X0214938Y0024341D01*
X0196259Y0024341D01*
X0196287Y0034081D01*
X0199115Y0034081D01*
X0200438Y0034629D01*
X0201451Y0035642D01*
X0201999Y0036965D01*
X0201999Y0107390D01*
X0202040Y0107431D01*
X0226165Y0107431D01*
X0227372Y0107931D01*
X0240749Y0107931D01*
X0241999Y0109181D01*
X0241999Y0128181D01*
X0240249Y0129931D01*
X0229049Y0129931D01*
X0229049Y0132297D01*
X0228501Y0133620D01*
X0227488Y0134633D01*
X0226165Y0135181D01*
X0202040Y0135181D01*
X0201999Y0135222D01*
X0201999Y0181797D01*
X0201451Y0183120D01*
X0200438Y0184133D01*
X0196749Y0187822D01*
X0196749Y0194931D01*
X0151499Y0240181D01*
X0094499Y0240181D01*
X0087249Y0232931D01*
X0087249Y0190431D01*
X0075999Y0179181D01*
X0053899Y0179181D01*
X0053899Y0179497D01*
X0053351Y0180820D01*
X0052338Y0181833D01*
X0051015Y0182381D01*
X0045583Y0182381D01*
X0044260Y0181833D01*
X0043247Y0180820D01*
X0042699Y0179497D01*
X0042699Y0179181D01*
X0014346Y0179181D01*
X0014346Y0284917D01*
X0014369Y0285217D01*
X0014554Y0285787D01*
X0014907Y0286271D01*
X0015391Y0286624D01*
X0015961Y0286809D01*
X0016261Y0286832D01*
X0214938Y0286832D01*
X0214501Y0286763D01*
X0213879Y0286561D01*
X0213297Y0286264D01*
X0212768Y0285880D01*
X0212306Y0285418D01*
X0211921Y0284889D01*
X0211625Y0284307D01*
X0211423Y0283685D01*
X0211332Y0283113D01*
X0215073Y0283113D01*
X0215073Y0282313D01*
X0211332Y0282313D01*
X0211423Y0281740D01*
X0211625Y0281118D01*
X0211921Y0280536D01*
X0212306Y0280007D01*
X0212768Y0279545D01*
X0213297Y0279161D01*
X0213879Y0278864D01*
X0214501Y0278662D01*
X0215073Y0278571D01*
X0215073Y0282313D01*
X0215873Y0282313D01*
X0215873Y0283113D01*
X0219614Y0283113D01*
X0219524Y0283685D01*
X0219322Y0284307D01*
X0219025Y0284889D01*
X0218641Y0285418D01*
X0218179Y0285880D01*
X0217650Y0286264D01*
X0217067Y0286561D01*
X0216446Y0286763D01*
X0216009Y0286832D01*
X0224567Y0286832D01*
X0223121Y0286233D01*
X0221953Y0285065D01*
X0221320Y0283539D01*
X0221320Y0281887D01*
X0221953Y0280360D01*
X0223121Y0279192D01*
X0224647Y0278560D01*
X0226299Y0278560D01*
X0227826Y0279192D01*
X0228994Y0280360D01*
X0229626Y0281887D01*
X0229626Y0283539D01*
X0228994Y0285065D01*
X0227826Y0286233D01*
X0226379Y0286832D01*
X0234567Y0286832D01*
X0233121Y0286233D01*
X0231953Y0285065D01*
X0231320Y0283539D01*
X0231320Y0281887D01*
X0231953Y0280360D01*
X0233121Y0279192D01*
X0234647Y0278560D01*
X0236299Y0278560D01*
X0237826Y0279192D01*
X0238994Y0280360D01*
X0239626Y0281887D01*
X0239626Y0283539D01*
X0238994Y0285065D01*
X0237826Y0286233D01*
X0236379Y0286832D01*
X0244567Y0286832D01*
X0243121Y0286233D01*
X0241953Y0285065D01*
X0241320Y0283539D01*
X0241320Y0281887D01*
X0241953Y0280360D01*
X0243121Y0279192D01*
X0244647Y0278560D01*
X0246299Y0278560D01*
X0247826Y0279192D01*
X0248994Y0280360D01*
X0249626Y0281887D01*
X0249626Y0283539D01*
X0248994Y0285065D01*
X0247826Y0286233D01*
X0246379Y0286832D01*
X0254567Y0286832D01*
X0253121Y0286233D01*
X0251953Y0285065D01*
X0251320Y0283539D01*
X0251320Y0281887D01*
X0251953Y0280360D01*
X0253121Y0279192D01*
X0254647Y0278560D01*
X0256299Y0278560D01*
X0257826Y0279192D01*
X0258994Y0280360D01*
X0259626Y0281887D01*
X0259626Y0283539D01*
X0258994Y0285065D01*
X0257826Y0286233D01*
X0256379Y0286832D01*
X0264567Y0286832D01*
X0263121Y0286233D01*
X0261953Y0285065D01*
X0261320Y0283539D01*
X0261320Y0281887D01*
X0261953Y0280360D01*
X0263121Y0279192D01*
X0264647Y0278560D01*
X0266299Y0278560D01*
X0267826Y0279192D01*
X0268994Y0280360D01*
X0269626Y0281887D01*
X0269626Y0283539D01*
X0268994Y0285065D01*
X0267826Y0286233D01*
X0266379Y0286832D01*
X0274567Y0286832D01*
X0273121Y0286233D01*
X0271953Y0285065D01*
X0271320Y0283539D01*
X0271320Y0281887D01*
X0271953Y0280360D01*
X0273121Y0279192D01*
X0274647Y0278560D01*
X0276299Y0278560D01*
X0277826Y0279192D01*
X0278994Y0280360D01*
X0279626Y0281887D01*
X0279626Y0283539D01*
X0278994Y0285065D01*
X0277826Y0286233D01*
X0276379Y0286832D01*
X0284567Y0286832D01*
X0283121Y0286233D01*
X0281953Y0285065D01*
X0281320Y0283539D01*
X0281320Y0281887D01*
X0281953Y0280360D01*
X0283121Y0279192D01*
X0284647Y0278560D01*
X0286299Y0278560D01*
X0287826Y0279192D01*
X0288994Y0280360D01*
X0289626Y0281887D01*
X0289626Y0283539D01*
X0288994Y0285065D01*
X0287826Y0286233D01*
X0286379Y0286832D01*
X0294567Y0286832D01*
X0293121Y0286233D01*
X0291953Y0285065D01*
X0291320Y0283539D01*
X0291320Y0281887D01*
X0291953Y0280360D01*
X0293121Y0279192D01*
X0294647Y0278560D01*
X0296299Y0278560D01*
X0297826Y0279192D01*
X0298994Y0280360D01*
X0299626Y0281887D01*
X0299626Y0283539D01*
X0298994Y0285065D01*
X0297826Y0286233D01*
X0296379Y0286832D01*
X0304567Y0286832D01*
X0303121Y0286233D01*
X0301953Y0285065D01*
X0301320Y0283539D01*
X0301320Y0281887D01*
X0301953Y0280360D01*
X0303121Y0279192D01*
X0304647Y0278560D01*
X0306299Y0278560D01*
X0307826Y0279192D01*
X0308994Y0280360D01*
X0309626Y0281887D01*
X0309626Y0283539D01*
X0308994Y0285065D01*
X0307826Y0286233D01*
X0306379Y0286832D01*
X0314567Y0286832D01*
X0313121Y0286233D01*
X0311953Y0285065D01*
X0311320Y0283539D01*
X0311320Y0281887D01*
X0311953Y0280360D01*
X0313121Y0279192D01*
X0314647Y0278560D01*
X0316299Y0278560D01*
X0317826Y0279192D01*
X0318994Y0280360D01*
X0319626Y0281887D01*
X0319626Y0283539D01*
X0318994Y0285065D01*
X0317826Y0286233D01*
X0316379Y0286832D01*
X0324567Y0286832D01*
X0323121Y0286233D01*
X0321953Y0285065D01*
X0321320Y0283539D01*
X0321320Y0281887D01*
X0321953Y0280360D01*
X0323121Y0279192D01*
X0324647Y0278560D01*
X0326299Y0278560D01*
X0327826Y0279192D01*
X0328994Y0280360D01*
X0329626Y0281887D01*
X0329626Y0283539D01*
X0328994Y0285065D01*
X0327826Y0286233D01*
X0326379Y0286832D01*
X0334567Y0286832D01*
X0333121Y0286233D01*
X0331953Y0285065D01*
X0331320Y0283539D01*
X0331320Y0281887D01*
X0331953Y0280360D01*
X0333121Y0279192D01*
X0334647Y0278560D01*
X0336299Y0278560D01*
X0337826Y0279192D01*
X0338994Y0280360D01*
X0339626Y0281887D01*
X0339626Y0283539D01*
X0338994Y0285065D01*
X0337826Y0286233D01*
X0336379Y0286832D01*
X0344938Y0286832D01*
X0344501Y0286763D01*
X0343879Y0286561D01*
X0343297Y0286264D01*
X0342768Y0285880D01*
X0342306Y0285418D01*
X0341921Y0284889D01*
X0341625Y0284307D01*
X0341423Y0283685D01*
X0341332Y0283113D01*
X0345073Y0283113D01*
X0345073Y0282313D01*
X0341332Y0282313D01*
X0341423Y0281740D01*
X0341625Y0281118D01*
X0341921Y0280536D01*
X0342306Y0280007D01*
X0342768Y0279545D01*
X0343297Y0279161D01*
X0343879Y0278864D01*
X0344501Y0278662D01*
X0345073Y0278571D01*
X0345073Y0282313D01*
X0345873Y0282313D01*
X0345873Y0283113D01*
X0349614Y0283113D01*
X0349524Y0283685D01*
X0349322Y0284307D01*
X0349025Y0284889D01*
X0348641Y0285418D01*
X0348179Y0285880D01*
X0347650Y0286264D01*
X0347067Y0286561D01*
X0346446Y0286763D01*
X0346009Y0286832D01*
X0513111Y0286832D01*
X0513411Y0286809D01*
X0513980Y0286624D01*
X0514465Y0286271D01*
X0514817Y0285787D01*
X0515002Y0285217D01*
X0515026Y0284917D01*
X0515026Y0026256D01*
X0515002Y0025956D01*
X0514817Y0025387D01*
X0514465Y0024902D01*
X0513980Y0024550D01*
X0513411Y0024365D01*
X0513111Y0024341D01*
X0346009Y0024341D01*
X0346446Y0024410D01*
X0347067Y0024612D01*
X0347650Y0024909D01*
X0348179Y0025293D01*
X0348641Y0025755D01*
X0349025Y0026284D01*
X0349322Y0026867D01*
X0349524Y0027488D01*
X0349614Y0028061D01*
X0345873Y0028061D01*
X0345873Y0028861D01*
X0345073Y0028861D01*
X0345073Y0032602D01*
X0344501Y0032511D01*
X0343879Y0032309D01*
X0343297Y0032012D01*
X0342768Y0031628D01*
X0342306Y0031166D01*
X0341921Y0030637D01*
X0341625Y0030055D01*
X0341423Y0029433D01*
X0341332Y0028861D01*
X0345073Y0028861D01*
X0345073Y0028061D01*
X0341332Y0028061D01*
X0341423Y0027488D01*
X0341625Y0026867D01*
X0341921Y0026284D01*
X0342306Y0025755D01*
X0342768Y0025293D01*
X0343297Y0024909D01*
X0343879Y0024612D01*
X0344501Y0024410D01*
X0344938Y0024341D01*
X0336379Y0024341D01*
X0337826Y0024940D01*
X0338994Y0026108D01*
X0339626Y0027635D01*
X0339626Y0029287D01*
X0338994Y0030813D01*
X0337826Y0031981D01*
X0336299Y0032613D01*
X0334647Y0032613D01*
X0333121Y0031981D01*
X0331953Y0030813D01*
X0331320Y0029287D01*
X0331320Y0027635D01*
X0331953Y0026108D01*
X0333121Y0024940D01*
X0334567Y0024341D01*
X0326379Y0024341D01*
X0327826Y0024940D01*
X0328994Y0026108D01*
X0329626Y0027635D01*
X0329626Y0029287D01*
X0328994Y0030813D01*
X0327826Y0031981D01*
X0326299Y0032613D01*
X0324647Y0032613D01*
X0323121Y0031981D01*
X0321953Y0030813D01*
X0321320Y0029287D01*
X0321320Y0027635D01*
X0321953Y0026108D01*
X0323121Y0024940D01*
X0324567Y0024341D01*
X0316379Y0024341D01*
X0317826Y0024940D01*
X0318994Y0026108D01*
X0319626Y0027635D01*
X0319626Y0029287D01*
X0318994Y0030813D01*
X0317826Y0031981D01*
X0316299Y0032613D01*
X0314647Y0032613D01*
X0313121Y0031981D01*
X0311953Y0030813D01*
X0311320Y0029287D01*
X0311320Y0027635D01*
X0311953Y0026108D01*
X0313121Y0024940D01*
X0314567Y0024341D01*
X0306379Y0024341D01*
X0307826Y0024940D01*
X0308994Y0026108D01*
X0309626Y0027635D01*
X0309626Y0029287D01*
X0308994Y0030813D01*
X0307826Y0031981D01*
X0306299Y0032613D01*
X0307939Y0031868D02*
X0313007Y0031868D01*
X0312209Y0031069D02*
X0308738Y0031069D01*
X0309218Y0030271D02*
X0311728Y0030271D01*
X0311397Y0029472D02*
X0309549Y0029472D01*
X0309626Y0028674D02*
X0311320Y0028674D01*
X0311320Y0027875D02*
X0309626Y0027875D01*
X0309395Y0027077D02*
X0311552Y0027077D01*
X0311882Y0026278D02*
X0309064Y0026278D01*
X0308365Y0025480D02*
X0312581Y0025480D01*
X0313746Y0024681D02*
X0307200Y0024681D01*
X0303746Y0024681D02*
X0297203Y0024681D01*
X0298365Y0025480D02*
X0302581Y0025480D01*
X0301882Y0026278D02*
X0299021Y0026278D01*
X0299390Y0027077D02*
X0301552Y0027077D01*
X0301320Y0027875D02*
X0299585Y0027875D01*
X0299614Y0028861D02*
X0299524Y0029433D01*
X0299322Y0030055D01*
X0299025Y0030637D01*
X0298641Y0031166D01*
X0298179Y0031628D01*
X0297650Y0032012D01*
X0297067Y0032309D01*
X0296446Y0032511D01*
X0295873Y0032602D01*
X0295873Y0028861D01*
X0299614Y0028861D01*
X0299511Y0029472D02*
X0301397Y0029472D01*
X0301320Y0028674D02*
X0295873Y0028674D01*
X0295873Y0029472D02*
X0295073Y0029472D01*
X0295073Y0028674D02*
X0289626Y0028674D01*
X0289626Y0027875D02*
X0291361Y0027875D01*
X0291556Y0027077D02*
X0289395Y0027077D01*
X0289064Y0026278D02*
X0291926Y0026278D01*
X0292581Y0025480D02*
X0288365Y0025480D01*
X0287200Y0024681D02*
X0293744Y0024681D01*
X0291435Y0029472D02*
X0289549Y0029472D01*
X0289218Y0030271D02*
X0291735Y0030271D01*
X0292235Y0031069D02*
X0288738Y0031069D01*
X0287939Y0031868D02*
X0293098Y0031868D01*
X0295073Y0031868D02*
X0295873Y0031868D01*
X0295873Y0031069D02*
X0295073Y0031069D01*
X0295073Y0030271D02*
X0295873Y0030271D01*
X0297849Y0031868D02*
X0303007Y0031868D01*
X0302209Y0031069D02*
X0298711Y0031069D01*
X0299212Y0030271D02*
X0301728Y0030271D01*
X0298179Y0035293D02*
X0297650Y0034909D01*
X0297067Y0034612D01*
X0296446Y0034410D01*
X0295873Y0034319D01*
X0295873Y0038061D01*
X0295873Y0038861D01*
X0295073Y0038861D01*
X0295073Y0042602D01*
X0294501Y0042511D01*
X0293879Y0042309D01*
X0293297Y0042012D01*
X0292768Y0041628D01*
X0292306Y0041166D01*
X0291921Y0040637D01*
X0291625Y0040055D01*
X0291423Y0039433D01*
X0291332Y0038861D01*
X0295073Y0038861D01*
X0295073Y0038061D01*
X0291332Y0038061D01*
X0291423Y0037488D01*
X0291625Y0036867D01*
X0291921Y0036284D01*
X0292306Y0035755D01*
X0292768Y0035293D01*
X0293297Y0034909D01*
X0293879Y0034612D01*
X0294501Y0034410D01*
X0295073Y0034319D01*
X0295073Y0038061D01*
X0295873Y0038061D01*
X0299614Y0038061D01*
X0299524Y0037488D01*
X0299322Y0036867D01*
X0299025Y0036284D01*
X0298641Y0035755D01*
X0298179Y0035293D01*
X0297860Y0035062D02*
X0302999Y0035062D01*
X0302201Y0035860D02*
X0298717Y0035860D01*
X0299216Y0036659D02*
X0301725Y0036659D01*
X0301394Y0037457D02*
X0299514Y0037457D01*
X0299614Y0038861D02*
X0295873Y0038861D01*
X0295873Y0042602D01*
X0296446Y0042511D01*
X0297067Y0042309D01*
X0297650Y0042012D01*
X0298179Y0041628D01*
X0298641Y0041166D01*
X0299025Y0040637D01*
X0299322Y0040055D01*
X0299524Y0039433D01*
X0299614Y0038861D01*
X0299584Y0039054D02*
X0301320Y0039054D01*
X0301320Y0038256D02*
X0295873Y0038256D01*
X0295873Y0039054D02*
X0295073Y0039054D01*
X0295073Y0038256D02*
X0289626Y0038256D01*
X0289626Y0037635D02*
X0289626Y0039287D01*
X0288994Y0040813D01*
X0287826Y0041981D01*
X0286299Y0042613D01*
X0284647Y0042613D01*
X0283121Y0041981D01*
X0281953Y0040813D01*
X0281320Y0039287D01*
X0281320Y0037635D01*
X0281953Y0036108D01*
X0283121Y0034940D01*
X0284647Y0034308D01*
X0286299Y0034308D01*
X0287826Y0034940D01*
X0288994Y0036108D01*
X0289626Y0037635D01*
X0289553Y0037457D02*
X0291433Y0037457D01*
X0291731Y0036659D02*
X0289222Y0036659D01*
X0288746Y0035860D02*
X0292229Y0035860D01*
X0293086Y0035062D02*
X0287947Y0035062D01*
X0289626Y0039054D02*
X0291363Y0039054D01*
X0291559Y0039853D02*
X0289391Y0039853D01*
X0289061Y0040651D02*
X0291932Y0040651D01*
X0292590Y0041450D02*
X0288357Y0041450D01*
X0287180Y0042248D02*
X0293760Y0042248D01*
X0295073Y0042248D02*
X0295873Y0042248D01*
X0295873Y0041450D02*
X0295073Y0041450D01*
X0295073Y0040651D02*
X0295873Y0040651D01*
X0295873Y0039853D02*
X0295073Y0039853D01*
X0295073Y0037457D02*
X0295873Y0037457D01*
X0295873Y0036659D02*
X0295073Y0036659D01*
X0295073Y0035860D02*
X0295873Y0035860D01*
X0295873Y0035062D02*
X0295073Y0035062D01*
X0299387Y0039853D02*
X0301555Y0039853D01*
X0301886Y0040651D02*
X0299015Y0040651D01*
X0298357Y0041450D02*
X0302590Y0041450D01*
X0303766Y0042248D02*
X0297187Y0042248D01*
X0283766Y0042248D02*
X0277180Y0042248D01*
X0277826Y0041981D02*
X0276299Y0042613D01*
X0274647Y0042613D01*
X0273121Y0041981D01*
X0271953Y0040813D01*
X0271320Y0039287D01*
X0271320Y0037635D01*
X0271953Y0036108D01*
X0273121Y0034940D01*
X0274647Y0034308D01*
X0276299Y0034308D01*
X0277826Y0034940D01*
X0278994Y0036108D01*
X0279626Y0037635D01*
X0279626Y0039287D01*
X0278994Y0040813D01*
X0277826Y0041981D01*
X0278357Y0041450D02*
X0282590Y0041450D01*
X0281886Y0040651D02*
X0279061Y0040651D01*
X0279391Y0039853D02*
X0281555Y0039853D01*
X0281320Y0039054D02*
X0279626Y0039054D01*
X0279626Y0038256D02*
X0281320Y0038256D01*
X0281394Y0037457D02*
X0279553Y0037457D01*
X0279222Y0036659D02*
X0281725Y0036659D01*
X0282201Y0035860D02*
X0278746Y0035860D01*
X0277947Y0035062D02*
X0282999Y0035062D01*
X0283007Y0031868D02*
X0277939Y0031868D01*
X0278738Y0031069D02*
X0282209Y0031069D01*
X0281728Y0030271D02*
X0279218Y0030271D01*
X0279549Y0029472D02*
X0281397Y0029472D01*
X0281320Y0028674D02*
X0279626Y0028674D01*
X0279626Y0027875D02*
X0281320Y0027875D01*
X0281552Y0027077D02*
X0279395Y0027077D01*
X0279064Y0026278D02*
X0281882Y0026278D01*
X0282581Y0025480D02*
X0278365Y0025480D01*
X0277200Y0024681D02*
X0283746Y0024681D01*
X0273746Y0024681D02*
X0267200Y0024681D01*
X0268365Y0025480D02*
X0272581Y0025480D01*
X0271882Y0026278D02*
X0269064Y0026278D01*
X0269395Y0027077D02*
X0271552Y0027077D01*
X0271320Y0027875D02*
X0269626Y0027875D01*
X0269626Y0028674D02*
X0271320Y0028674D01*
X0271397Y0029472D02*
X0269549Y0029472D01*
X0269218Y0030271D02*
X0271728Y0030271D01*
X0272209Y0031069D02*
X0268738Y0031069D01*
X0267939Y0031868D02*
X0273007Y0031868D01*
X0268994Y0036108D02*
X0267826Y0034940D01*
X0266299Y0034308D01*
X0264647Y0034308D01*
X0263121Y0034940D01*
X0261953Y0036108D01*
X0261320Y0037635D01*
X0261320Y0039287D01*
X0261953Y0040813D01*
X0263121Y0041981D01*
X0264647Y0042613D01*
X0266299Y0042613D01*
X0267826Y0041981D01*
X0268994Y0040813D01*
X0269626Y0039287D01*
X0269626Y0037635D01*
X0268994Y0036108D01*
X0268746Y0035860D02*
X0272201Y0035860D01*
X0271725Y0036659D02*
X0269222Y0036659D01*
X0269553Y0037457D02*
X0271394Y0037457D01*
X0271320Y0038256D02*
X0269626Y0038256D01*
X0269626Y0039054D02*
X0271320Y0039054D01*
X0271555Y0039853D02*
X0269391Y0039853D01*
X0269061Y0040651D02*
X0271886Y0040651D01*
X0272590Y0041450D02*
X0268357Y0041450D01*
X0267180Y0042248D02*
X0273766Y0042248D01*
X0272999Y0035062D02*
X0267947Y0035062D01*
X0262999Y0035062D02*
X0257947Y0035062D01*
X0257826Y0034940D02*
X0258994Y0036108D01*
X0259626Y0037635D01*
X0259626Y0039287D01*
X0258994Y0040813D01*
X0257826Y0041981D01*
X0256299Y0042613D01*
X0254647Y0042613D01*
X0253121Y0041981D01*
X0251953Y0040813D01*
X0251320Y0039287D01*
X0251320Y0037635D01*
X0251953Y0036108D01*
X0253121Y0034940D01*
X0254647Y0034308D01*
X0256299Y0034308D01*
X0257826Y0034940D01*
X0258746Y0035860D02*
X0262201Y0035860D01*
X0261725Y0036659D02*
X0259222Y0036659D01*
X0259553Y0037457D02*
X0261394Y0037457D01*
X0261320Y0038256D02*
X0259626Y0038256D01*
X0259626Y0039054D02*
X0261320Y0039054D01*
X0261555Y0039853D02*
X0259391Y0039853D01*
X0259061Y0040651D02*
X0261886Y0040651D01*
X0262590Y0041450D02*
X0258357Y0041450D01*
X0257180Y0042248D02*
X0263766Y0042248D01*
X0253766Y0042248D02*
X0247187Y0042248D01*
X0247067Y0042309D02*
X0246446Y0042511D01*
X0245873Y0042602D01*
X0245873Y0038861D01*
X0245073Y0038861D01*
X0245073Y0042602D01*
X0244501Y0042511D01*
X0243879Y0042309D01*
X0243297Y0042012D01*
X0242768Y0041628D01*
X0242306Y0041166D01*
X0241921Y0040637D01*
X0241625Y0040055D01*
X0241423Y0039433D01*
X0241332Y0038861D01*
X0245073Y0038861D01*
X0245073Y0038061D01*
X0241332Y0038061D01*
X0241423Y0037488D01*
X0241625Y0036867D01*
X0241921Y0036284D01*
X0242306Y0035755D01*
X0242768Y0035293D01*
X0243297Y0034909D01*
X0243879Y0034612D01*
X0244501Y0034410D01*
X0245073Y0034319D01*
X0245073Y0038061D01*
X0245873Y0038061D01*
X0245873Y0038861D01*
X0249614Y0038861D01*
X0249524Y0039433D01*
X0249322Y0040055D01*
X0249025Y0040637D01*
X0248641Y0041166D01*
X0248179Y0041628D01*
X0247650Y0042012D01*
X0247067Y0042309D01*
X0245873Y0042248D02*
X0245073Y0042248D01*
X0245073Y0041450D02*
X0245873Y0041450D01*
X0245873Y0040651D02*
X0245073Y0040651D01*
X0245073Y0039853D02*
X0245873Y0039853D01*
X0245873Y0039054D02*
X0245073Y0039054D01*
X0245073Y0038256D02*
X0239626Y0038256D01*
X0239626Y0037635D02*
X0239626Y0039287D01*
X0238994Y0040813D01*
X0237826Y0041981D01*
X0236299Y0042613D01*
X0234647Y0042613D01*
X0233121Y0041981D01*
X0231953Y0040813D01*
X0231320Y0039287D01*
X0231320Y0037635D01*
X0231953Y0036108D01*
X0233121Y0034940D01*
X0234647Y0034308D01*
X0236299Y0034308D01*
X0237826Y0034940D01*
X0238994Y0036108D01*
X0239626Y0037635D01*
X0239553Y0037457D02*
X0241433Y0037457D01*
X0241731Y0036659D02*
X0239222Y0036659D01*
X0238746Y0035860D02*
X0242229Y0035860D01*
X0243086Y0035062D02*
X0237947Y0035062D01*
X0239626Y0039054D02*
X0241363Y0039054D01*
X0241559Y0039853D02*
X0239391Y0039853D01*
X0239061Y0040651D02*
X0241932Y0040651D01*
X0242590Y0041450D02*
X0238357Y0041450D01*
X0237180Y0042248D02*
X0243760Y0042248D01*
X0245873Y0038256D02*
X0251320Y0038256D01*
X0251320Y0039054D02*
X0249584Y0039054D01*
X0249387Y0039853D02*
X0251555Y0039853D01*
X0251886Y0040651D02*
X0249015Y0040651D01*
X0248357Y0041450D02*
X0252590Y0041450D01*
X0249614Y0038061D02*
X0245873Y0038061D01*
X0245873Y0034319D01*
X0246446Y0034410D01*
X0247067Y0034612D01*
X0247650Y0034909D01*
X0248179Y0035293D01*
X0248641Y0035755D01*
X0249025Y0036284D01*
X0249322Y0036867D01*
X0249524Y0037488D01*
X0249614Y0038061D01*
X0249514Y0037457D02*
X0251394Y0037457D01*
X0251725Y0036659D02*
X0249216Y0036659D01*
X0248717Y0035860D02*
X0252201Y0035860D01*
X0252999Y0035062D02*
X0247860Y0035062D01*
X0245873Y0035062D02*
X0245073Y0035062D01*
X0245073Y0035860D02*
X0245873Y0035860D01*
X0245873Y0036659D02*
X0245073Y0036659D01*
X0245073Y0037457D02*
X0245873Y0037457D01*
X0245873Y0032602D02*
X0245873Y0028861D01*
X0249614Y0028861D01*
X0249524Y0029433D01*
X0249322Y0030055D01*
X0249025Y0030637D01*
X0248641Y0031166D01*
X0248179Y0031628D01*
X0247650Y0032012D01*
X0247067Y0032309D01*
X0246446Y0032511D01*
X0245873Y0032602D01*
X0245873Y0031868D02*
X0245073Y0031868D01*
X0245073Y0031069D02*
X0245873Y0031069D01*
X0245873Y0030271D02*
X0245073Y0030271D01*
X0245073Y0029472D02*
X0245873Y0029472D01*
X0245873Y0028674D02*
X0251320Y0028674D01*
X0251320Y0027875D02*
X0249585Y0027875D01*
X0249390Y0027077D02*
X0251552Y0027077D01*
X0251882Y0026278D02*
X0249021Y0026278D01*
X0248365Y0025480D02*
X0252581Y0025480D01*
X0253746Y0024681D02*
X0247203Y0024681D01*
X0243744Y0024681D02*
X0237200Y0024681D01*
X0238365Y0025480D02*
X0242581Y0025480D01*
X0241926Y0026278D02*
X0239064Y0026278D01*
X0239395Y0027077D02*
X0241556Y0027077D01*
X0241361Y0027875D02*
X0239626Y0027875D01*
X0239626Y0028674D02*
X0245073Y0028674D01*
X0241735Y0030271D02*
X0239218Y0030271D01*
X0239549Y0029472D02*
X0241435Y0029472D01*
X0242235Y0031069D02*
X0238738Y0031069D01*
X0237939Y0031868D02*
X0243098Y0031868D01*
X0247849Y0031868D02*
X0253007Y0031868D01*
X0252209Y0031069D02*
X0248711Y0031069D01*
X0249212Y0030271D02*
X0251728Y0030271D01*
X0251397Y0029472D02*
X0249511Y0029472D01*
X0257939Y0031868D02*
X0263007Y0031868D01*
X0262209Y0031069D02*
X0258738Y0031069D01*
X0259218Y0030271D02*
X0261728Y0030271D01*
X0261397Y0029472D02*
X0259549Y0029472D01*
X0259626Y0028674D02*
X0261320Y0028674D01*
X0261320Y0027875D02*
X0259626Y0027875D01*
X0259395Y0027077D02*
X0261552Y0027077D01*
X0261882Y0026278D02*
X0259064Y0026278D01*
X0258365Y0025480D02*
X0262581Y0025480D01*
X0263746Y0024681D02*
X0257200Y0024681D01*
X0233746Y0024681D02*
X0227200Y0024681D01*
X0228365Y0025480D02*
X0232581Y0025480D01*
X0231882Y0026278D02*
X0229064Y0026278D01*
X0229395Y0027077D02*
X0231552Y0027077D01*
X0231320Y0027875D02*
X0229626Y0027875D01*
X0229626Y0028674D02*
X0231320Y0028674D01*
X0231397Y0029472D02*
X0229549Y0029472D01*
X0229218Y0030271D02*
X0231728Y0030271D01*
X0232209Y0031069D02*
X0228738Y0031069D01*
X0227939Y0031868D02*
X0233007Y0031868D01*
X0228994Y0036108D02*
X0227826Y0034940D01*
X0226299Y0034308D01*
X0224647Y0034308D01*
X0223121Y0034940D01*
X0221953Y0036108D01*
X0221320Y0037635D01*
X0221320Y0039287D01*
X0221953Y0040813D01*
X0223121Y0041981D01*
X0224647Y0042613D01*
X0226299Y0042613D01*
X0227826Y0041981D01*
X0228994Y0040813D01*
X0229626Y0039287D01*
X0229626Y0037635D01*
X0228994Y0036108D01*
X0228746Y0035860D02*
X0232201Y0035860D01*
X0231725Y0036659D02*
X0229222Y0036659D01*
X0229553Y0037457D02*
X0231394Y0037457D01*
X0231320Y0038256D02*
X0229626Y0038256D01*
X0229626Y0039054D02*
X0231320Y0039054D01*
X0231555Y0039853D02*
X0229391Y0039853D01*
X0229061Y0040651D02*
X0231886Y0040651D01*
X0232590Y0041450D02*
X0228357Y0041450D01*
X0227180Y0042248D02*
X0233766Y0042248D01*
X0232999Y0035062D02*
X0227947Y0035062D01*
X0222999Y0035062D02*
X0217860Y0035062D01*
X0217650Y0034909D02*
X0218179Y0035293D01*
X0218641Y0035755D01*
X0219025Y0036284D01*
X0219322Y0036867D01*
X0219524Y0037488D01*
X0219614Y0038061D01*
X0215873Y0038061D01*
X0215873Y0038861D01*
X0215073Y0038861D01*
X0215073Y0042602D01*
X0214501Y0042511D01*
X0213879Y0042309D01*
X0213297Y0042012D01*
X0212768Y0041628D01*
X0212306Y0041166D01*
X0211921Y0040637D01*
X0211625Y0040055D01*
X0211423Y0039433D01*
X0211332Y0038861D01*
X0215073Y0038861D01*
X0215073Y0038061D01*
X0211332Y0038061D01*
X0211423Y0037488D01*
X0211625Y0036867D01*
X0211921Y0036284D01*
X0212306Y0035755D01*
X0212768Y0035293D01*
X0213297Y0034909D01*
X0213879Y0034612D01*
X0214501Y0034410D01*
X0215073Y0034319D01*
X0215073Y0038061D01*
X0215873Y0038061D01*
X0215873Y0034319D01*
X0216446Y0034410D01*
X0217067Y0034612D01*
X0217650Y0034909D01*
X0218717Y0035860D02*
X0222201Y0035860D01*
X0221725Y0036659D02*
X0219216Y0036659D01*
X0219514Y0037457D02*
X0221394Y0037457D01*
X0221320Y0038256D02*
X0215873Y0038256D01*
X0215873Y0038861D02*
X0219614Y0038861D01*
X0219524Y0039433D01*
X0219322Y0040055D01*
X0219025Y0040637D01*
X0218641Y0041166D01*
X0218179Y0041628D01*
X0217650Y0042012D01*
X0217067Y0042309D01*
X0216446Y0042511D01*
X0215873Y0042602D01*
X0215873Y0038861D01*
X0215873Y0039054D02*
X0215073Y0039054D01*
X0215073Y0038256D02*
X0201999Y0038256D01*
X0201999Y0039054D02*
X0211363Y0039054D01*
X0211559Y0039853D02*
X0201999Y0039853D01*
X0201999Y0040651D02*
X0211932Y0040651D01*
X0212590Y0041450D02*
X0201999Y0041450D01*
X0201999Y0042248D02*
X0213760Y0042248D01*
X0215073Y0042248D02*
X0215873Y0042248D01*
X0215873Y0041450D02*
X0215073Y0041450D01*
X0215073Y0040651D02*
X0215873Y0040651D01*
X0215873Y0039853D02*
X0215073Y0039853D01*
X0215073Y0037457D02*
X0215873Y0037457D01*
X0215873Y0036659D02*
X0215073Y0036659D01*
X0215073Y0035860D02*
X0215873Y0035860D01*
X0215873Y0035062D02*
X0215073Y0035062D01*
X0213086Y0035062D02*
X0200871Y0035062D01*
X0201541Y0035860D02*
X0212229Y0035860D01*
X0211731Y0036659D02*
X0201872Y0036659D01*
X0201999Y0037457D02*
X0211433Y0037457D01*
X0215873Y0032602D02*
X0216446Y0032511D01*
X0217067Y0032309D01*
X0217650Y0032012D01*
X0218179Y0031628D01*
X0218641Y0031166D01*
X0219025Y0030637D01*
X0219322Y0030055D01*
X0219524Y0029433D01*
X0219614Y0028861D01*
X0215873Y0028861D01*
X0215873Y0032602D01*
X0215873Y0031868D02*
X0215073Y0031868D01*
X0215073Y0031069D02*
X0215873Y0031069D01*
X0215873Y0030271D02*
X0215073Y0030271D01*
X0215073Y0029472D02*
X0215873Y0029472D01*
X0215873Y0028674D02*
X0221320Y0028674D01*
X0221320Y0027875D02*
X0219585Y0027875D01*
X0219390Y0027077D02*
X0221552Y0027077D01*
X0221882Y0026278D02*
X0219021Y0026278D01*
X0218365Y0025480D02*
X0222581Y0025480D01*
X0223746Y0024681D02*
X0217203Y0024681D01*
X0213744Y0024681D02*
X0196260Y0024681D01*
X0196262Y0025480D02*
X0212581Y0025480D01*
X0211926Y0026278D02*
X0196264Y0026278D01*
X0196266Y0027077D02*
X0211556Y0027077D01*
X0211361Y0027875D02*
X0196269Y0027875D01*
X0196271Y0028674D02*
X0215073Y0028674D01*
X0211735Y0030271D02*
X0196276Y0030271D01*
X0196278Y0031069D02*
X0212235Y0031069D01*
X0213098Y0031868D02*
X0196280Y0031868D01*
X0196283Y0032666D02*
X0515026Y0032666D01*
X0515026Y0031868D02*
X0347849Y0031868D01*
X0347650Y0032012D02*
X0347067Y0032309D01*
X0346446Y0032511D01*
X0345873Y0032602D01*
X0345873Y0028861D01*
X0349614Y0028861D01*
X0349524Y0029433D01*
X0349322Y0030055D01*
X0349025Y0030637D01*
X0348641Y0031166D01*
X0348179Y0031628D01*
X0347650Y0032012D01*
X0348711Y0031069D02*
X0515026Y0031069D01*
X0515026Y0030271D02*
X0349212Y0030271D01*
X0349511Y0029472D02*
X0515026Y0029472D01*
X0515026Y0028674D02*
X0345873Y0028674D01*
X0345873Y0029472D02*
X0345073Y0029472D01*
X0345073Y0028674D02*
X0339626Y0028674D01*
X0339626Y0027875D02*
X0341361Y0027875D01*
X0341556Y0027077D02*
X0339395Y0027077D01*
X0339064Y0026278D02*
X0341926Y0026278D01*
X0342581Y0025480D02*
X0338365Y0025480D01*
X0337200Y0024681D02*
X0343744Y0024681D01*
X0347203Y0024681D02*
X0514161Y0024681D01*
X0514848Y0025480D02*
X0348365Y0025480D01*
X0349021Y0026278D02*
X0515026Y0026278D01*
X0515026Y0027077D02*
X0349390Y0027077D01*
X0349585Y0027875D02*
X0515026Y0027875D01*
X0515026Y0033465D02*
X0196285Y0033465D01*
X0199555Y0034263D02*
X0515026Y0034263D01*
X0515026Y0035062D02*
X0347860Y0035062D01*
X0347650Y0034909D02*
X0348179Y0035293D01*
X0348641Y0035755D01*
X0349025Y0036284D01*
X0349322Y0036867D01*
X0349524Y0037488D01*
X0349614Y0038061D01*
X0345873Y0038061D01*
X0345873Y0038861D01*
X0345073Y0038861D01*
X0345073Y0042602D01*
X0344501Y0042511D01*
X0343879Y0042309D01*
X0343297Y0042012D01*
X0342768Y0041628D01*
X0342306Y0041166D01*
X0341921Y0040637D01*
X0341625Y0040055D01*
X0341423Y0039433D01*
X0341332Y0038861D01*
X0345073Y0038861D01*
X0345073Y0038061D01*
X0341332Y0038061D01*
X0341423Y0037488D01*
X0341625Y0036867D01*
X0341921Y0036284D01*
X0342306Y0035755D01*
X0342768Y0035293D01*
X0343297Y0034909D01*
X0343879Y0034612D01*
X0344501Y0034410D01*
X0345073Y0034319D01*
X0345073Y0038061D01*
X0345873Y0038061D01*
X0345873Y0034319D01*
X0346446Y0034410D01*
X0347067Y0034612D01*
X0347650Y0034909D01*
X0348717Y0035860D02*
X0515026Y0035860D01*
X0515026Y0036659D02*
X0349216Y0036659D01*
X0349514Y0037457D02*
X0515026Y0037457D01*
X0515026Y0038256D02*
X0345873Y0038256D01*
X0345873Y0038861D02*
X0349614Y0038861D01*
X0349524Y0039433D01*
X0349322Y0040055D01*
X0349025Y0040637D01*
X0348641Y0041166D01*
X0348179Y0041628D01*
X0347650Y0042012D01*
X0347067Y0042309D01*
X0346446Y0042511D01*
X0345873Y0042602D01*
X0345873Y0038861D01*
X0345873Y0039054D02*
X0345073Y0039054D01*
X0345073Y0038256D02*
X0339626Y0038256D01*
X0339626Y0037635D02*
X0339626Y0039287D01*
X0338994Y0040813D01*
X0337826Y0041981D01*
X0336299Y0042613D01*
X0334647Y0042613D01*
X0333121Y0041981D01*
X0331953Y0040813D01*
X0331320Y0039287D01*
X0331320Y0037635D01*
X0331953Y0036108D01*
X0333121Y0034940D01*
X0334647Y0034308D01*
X0336299Y0034308D01*
X0337826Y0034940D01*
X0338994Y0036108D01*
X0339626Y0037635D01*
X0339553Y0037457D02*
X0341433Y0037457D01*
X0341731Y0036659D02*
X0339222Y0036659D01*
X0338746Y0035860D02*
X0342229Y0035860D01*
X0343086Y0035062D02*
X0337947Y0035062D01*
X0339626Y0039054D02*
X0341363Y0039054D01*
X0341559Y0039853D02*
X0339391Y0039853D01*
X0339061Y0040651D02*
X0341932Y0040651D01*
X0342590Y0041450D02*
X0338357Y0041450D01*
X0337180Y0042248D02*
X0343760Y0042248D01*
X0345073Y0042248D02*
X0345873Y0042248D01*
X0345873Y0041450D02*
X0345073Y0041450D01*
X0345073Y0040651D02*
X0345873Y0040651D01*
X0345873Y0039853D02*
X0345073Y0039853D01*
X0345073Y0037457D02*
X0345873Y0037457D01*
X0345873Y0036659D02*
X0345073Y0036659D01*
X0345073Y0035860D02*
X0345873Y0035860D01*
X0345873Y0035062D02*
X0345073Y0035062D01*
X0349584Y0039054D02*
X0515026Y0039054D01*
X0515026Y0039853D02*
X0349387Y0039853D01*
X0349015Y0040651D02*
X0515026Y0040651D01*
X0515026Y0041450D02*
X0348357Y0041450D01*
X0347187Y0042248D02*
X0515026Y0042248D01*
X0515026Y0049435D02*
X0201999Y0049435D01*
X0201999Y0050233D02*
X0428454Y0050233D01*
X0428670Y0050018D02*
X0429694Y0049594D01*
X0430803Y0049594D01*
X0431828Y0050018D01*
X0432612Y0050802D01*
X0433036Y0051827D01*
X0433036Y0052936D01*
X0432612Y0053960D01*
X0431828Y0054744D01*
X0430803Y0055168D01*
X0429694Y0055168D01*
X0428670Y0054744D01*
X0427886Y0053960D01*
X0427461Y0052936D01*
X0427461Y0051827D01*
X0427886Y0050802D01*
X0428670Y0050018D01*
X0427791Y0051032D02*
X0424992Y0051032D01*
X0424928Y0050968D02*
X0425712Y0051752D01*
X0426136Y0052777D01*
X0426136Y0053886D01*
X0425712Y0054910D01*
X0424928Y0055694D01*
X0423903Y0056118D01*
X0422794Y0056118D01*
X0421770Y0055694D01*
X0420986Y0054910D01*
X0420561Y0053886D01*
X0420561Y0052777D01*
X0420986Y0051752D01*
X0421770Y0050968D01*
X0422794Y0050544D01*
X0423903Y0050544D01*
X0424928Y0050968D01*
X0425744Y0051830D02*
X0427461Y0051830D01*
X0427461Y0052629D02*
X0426075Y0052629D01*
X0426136Y0053428D02*
X0427665Y0053428D01*
X0428152Y0054226D02*
X0425995Y0054226D01*
X0425597Y0055025D02*
X0429347Y0055025D01*
X0431151Y0055025D02*
X0488346Y0055025D01*
X0488120Y0055118D02*
X0489144Y0054694D01*
X0490253Y0054694D01*
X0491278Y0055118D01*
X0492062Y0055902D01*
X0492486Y0056927D01*
X0492486Y0058036D01*
X0492074Y0059031D01*
X0492486Y0060027D01*
X0492486Y0061136D01*
X0492062Y0062160D01*
X0491278Y0062944D01*
X0490253Y0063368D01*
X0489144Y0063368D01*
X0488120Y0062944D01*
X0487336Y0062160D01*
X0486911Y0061136D01*
X0486911Y0060027D01*
X0487324Y0059031D01*
X0486911Y0058036D01*
X0486911Y0056927D01*
X0487336Y0055902D01*
X0488120Y0055118D01*
X0487415Y0055823D02*
X0424617Y0055823D01*
X0422081Y0055823D02*
X0416942Y0055823D01*
X0417206Y0055909D02*
X0417830Y0056227D01*
X0418397Y0056638D01*
X0418892Y0057133D01*
X0419303Y0057700D01*
X0419621Y0058324D01*
X0419837Y0058990D01*
X0419939Y0059631D01*
X0415899Y0059631D01*
X0415899Y0060431D01*
X0419939Y0060431D01*
X0419837Y0061073D01*
X0419621Y0061739D01*
X0419303Y0062362D01*
X0418892Y0062929D01*
X0418397Y0063424D01*
X0417830Y0063835D01*
X0417206Y0064153D01*
X0416540Y0064370D01*
X0415899Y0064471D01*
X0415899Y0060431D01*
X0415099Y0060431D01*
X0415099Y0064471D01*
X0414457Y0064370D01*
X0413791Y0064153D01*
X0413168Y0063835D01*
X0412601Y0063424D01*
X0412106Y0062929D01*
X0411695Y0062362D01*
X0411377Y0061739D01*
X0411160Y0061073D01*
X0411059Y0060431D01*
X0415099Y0060431D01*
X0415099Y0059631D01*
X0415899Y0059631D01*
X0415899Y0055591D01*
X0416540Y0055693D01*
X0417206Y0055909D01*
X0415899Y0055823D02*
X0415099Y0055823D01*
X0415099Y0055591D02*
X0415099Y0059631D01*
X0411059Y0059631D01*
X0411160Y0058990D01*
X0411377Y0058324D01*
X0411695Y0057700D01*
X0412106Y0057133D01*
X0412601Y0056638D01*
X0413168Y0056227D01*
X0413791Y0055909D01*
X0414457Y0055693D01*
X0415099Y0055591D01*
X0415099Y0056622D02*
X0415899Y0056622D01*
X0415899Y0057420D02*
X0415099Y0057420D01*
X0415099Y0058219D02*
X0415899Y0058219D01*
X0415899Y0059017D02*
X0415099Y0059017D01*
X0415099Y0059816D02*
X0347225Y0059816D01*
X0346878Y0059468D02*
X0347662Y0060252D01*
X0348086Y0061277D01*
X0348086Y0062386D01*
X0347662Y0063410D01*
X0346878Y0064194D01*
X0345853Y0064618D01*
X0344744Y0064618D01*
X0343720Y0064194D01*
X0342936Y0063410D01*
X0342511Y0062386D01*
X0342511Y0061277D01*
X0342936Y0060252D01*
X0343720Y0059468D01*
X0344744Y0059044D01*
X0345853Y0059044D01*
X0346878Y0059468D01*
X0347812Y0060614D02*
X0411088Y0060614D01*
X0411271Y0061413D02*
X0348086Y0061413D01*
X0348086Y0062211D02*
X0370357Y0062211D01*
X0370220Y0062268D02*
X0371244Y0061844D01*
X0372353Y0061844D01*
X0373378Y0062268D01*
X0374162Y0063052D01*
X0374586Y0064077D01*
X0374586Y0065186D01*
X0374162Y0066210D01*
X0373378Y0066994D01*
X0372353Y0067418D01*
X0371244Y0067418D01*
X0370220Y0066994D01*
X0369436Y0066210D01*
X0369011Y0065186D01*
X0369011Y0064077D01*
X0369436Y0063052D01*
X0370220Y0062268D01*
X0369478Y0063010D02*
X0347828Y0063010D01*
X0347264Y0063808D02*
X0369123Y0063808D01*
X0369011Y0064607D02*
X0345882Y0064607D01*
X0344716Y0064607D02*
X0325486Y0064607D01*
X0325486Y0065086D02*
X0325062Y0066110D01*
X0324278Y0066894D01*
X0323253Y0067318D01*
X0322144Y0067318D01*
X0321120Y0066894D01*
X0320336Y0066110D01*
X0319911Y0065086D01*
X0319911Y0063977D01*
X0320336Y0062952D01*
X0321120Y0062168D01*
X0322144Y0061744D01*
X0323253Y0061744D01*
X0324278Y0062168D01*
X0325062Y0062952D01*
X0325486Y0063977D01*
X0325486Y0065086D01*
X0325354Y0065405D02*
X0369102Y0065405D01*
X0369433Y0066204D02*
X0324968Y0066204D01*
X0324017Y0067002D02*
X0370239Y0067002D01*
X0373358Y0067002D02*
X0386161Y0067002D01*
X0386161Y0067536D02*
X0386161Y0066427D01*
X0386586Y0065402D01*
X0387370Y0064618D01*
X0388394Y0064194D01*
X0389503Y0064194D01*
X0390528Y0064618D01*
X0391312Y0065402D01*
X0391736Y0066427D01*
X0391736Y0067536D01*
X0391312Y0068560D01*
X0390866Y0069006D01*
X0391262Y0069402D01*
X0391686Y0070427D01*
X0391686Y0071536D01*
X0391262Y0072560D01*
X0390478Y0073344D01*
X0389453Y0073768D01*
X0388344Y0073768D01*
X0387320Y0073344D01*
X0386536Y0072560D01*
X0386111Y0071536D01*
X0386111Y0070427D01*
X0386536Y0069402D01*
X0386982Y0068956D01*
X0386586Y0068560D01*
X0386161Y0067536D01*
X0386271Y0067801D02*
X0201999Y0067801D01*
X0201999Y0068599D02*
X0386625Y0068599D01*
X0386540Y0069398D02*
X0201999Y0069398D01*
X0201999Y0070196D02*
X0386207Y0070196D01*
X0386111Y0070995D02*
X0201999Y0070995D01*
X0201999Y0071793D02*
X0386218Y0071793D01*
X0386568Y0072592D02*
X0201999Y0072592D01*
X0201999Y0073390D02*
X0241999Y0073390D01*
X0241570Y0073568D02*
X0242594Y0073144D01*
X0243703Y0073144D01*
X0244728Y0073568D01*
X0245512Y0074352D01*
X0245936Y0075377D01*
X0245936Y0076486D01*
X0245512Y0077510D01*
X0245116Y0077906D01*
X0245562Y0078352D01*
X0245986Y0079377D01*
X0245986Y0080486D01*
X0245562Y0081510D01*
X0244778Y0082294D01*
X0243753Y0082718D01*
X0242644Y0082718D01*
X0241620Y0082294D01*
X0240836Y0081510D01*
X0240411Y0080486D01*
X0240411Y0079377D01*
X0240836Y0078352D01*
X0241232Y0077956D01*
X0240786Y0077510D01*
X0240361Y0076486D01*
X0240361Y0075377D01*
X0240786Y0074352D01*
X0241570Y0073568D01*
X0240949Y0074189D02*
X0201999Y0074189D01*
X0201999Y0074987D02*
X0240523Y0074987D01*
X0240361Y0075786D02*
X0201999Y0075786D01*
X0201999Y0076584D02*
X0240402Y0076584D01*
X0240733Y0077383D02*
X0201999Y0077383D01*
X0201999Y0078181D02*
X0241007Y0078181D01*
X0240576Y0078980D02*
X0201999Y0078980D01*
X0201999Y0079778D02*
X0240411Y0079778D01*
X0240449Y0080577D02*
X0201999Y0080577D01*
X0201999Y0081375D02*
X0240780Y0081375D01*
X0241500Y0082174D02*
X0201999Y0082174D01*
X0201999Y0082972D02*
X0252820Y0082972D01*
X0252995Y0082710D02*
X0253491Y0082214D01*
X0254074Y0081824D01*
X0254723Y0081556D01*
X0255374Y0081426D01*
X0255374Y0084594D01*
X0252207Y0084594D01*
X0252337Y0083942D01*
X0252605Y0083294D01*
X0252995Y0082710D01*
X0253551Y0082174D02*
X0244898Y0082174D01*
X0245618Y0081375D02*
X0290123Y0081375D01*
X0290236Y0081102D02*
X0291020Y0080318D01*
X0292044Y0079894D01*
X0293153Y0079894D01*
X0294178Y0080318D01*
X0294962Y0081102D01*
X0295386Y0082127D01*
X0295386Y0083236D01*
X0294962Y0084260D01*
X0294178Y0085044D01*
X0293153Y0085468D01*
X0292044Y0085468D01*
X0291020Y0085044D01*
X0290236Y0084260D01*
X0289811Y0083236D01*
X0289811Y0082127D01*
X0290236Y0081102D01*
X0290761Y0080577D02*
X0245948Y0080577D01*
X0245986Y0079778D02*
X0369807Y0079778D01*
X0369470Y0079918D02*
X0370494Y0079494D01*
X0371603Y0079494D01*
X0372628Y0079918D01*
X0373412Y0080702D01*
X0373836Y0081727D01*
X0373836Y0082836D01*
X0373750Y0083044D01*
X0373953Y0083044D01*
X0374978Y0083468D01*
X0375762Y0084252D01*
X0376186Y0085277D01*
X0376186Y0086386D01*
X0375762Y0087410D01*
X0374978Y0088194D01*
X0373953Y0088618D01*
X0372844Y0088618D01*
X0371820Y0088194D01*
X0371036Y0087410D01*
X0370611Y0086386D01*
X0370611Y0085277D01*
X0370698Y0085068D01*
X0370494Y0085068D01*
X0369470Y0084644D01*
X0368686Y0083860D01*
X0368261Y0082836D01*
X0368261Y0081727D01*
X0368686Y0080702D01*
X0369470Y0079918D01*
X0368811Y0080577D02*
X0294437Y0080577D01*
X0295075Y0081375D02*
X0368407Y0081375D01*
X0368261Y0082174D02*
X0295386Y0082174D01*
X0295386Y0082972D02*
X0368318Y0082972D01*
X0368649Y0083771D02*
X0295164Y0083771D01*
X0294652Y0084569D02*
X0369395Y0084569D01*
X0370611Y0085368D02*
X0293396Y0085368D01*
X0291802Y0085368D02*
X0283724Y0085368D01*
X0283303Y0085194D02*
X0284328Y0085618D01*
X0285112Y0086402D01*
X0285536Y0087427D01*
X0285536Y0088536D01*
X0285112Y0089560D01*
X0284328Y0090344D01*
X0283303Y0090768D01*
X0282194Y0090768D01*
X0281170Y0090344D01*
X0280386Y0089560D01*
X0280057Y0088765D01*
X0279978Y0088844D01*
X0278953Y0089268D01*
X0277844Y0089268D01*
X0276820Y0088844D01*
X0276036Y0088060D01*
X0275611Y0087036D01*
X0275611Y0085927D01*
X0276036Y0084902D01*
X0276820Y0084118D01*
X0277844Y0083694D01*
X0278953Y0083694D01*
X0279978Y0084118D01*
X0280762Y0084902D01*
X0281091Y0085697D01*
X0281170Y0085618D01*
X0282194Y0085194D01*
X0283303Y0085194D01*
X0281774Y0085368D02*
X0280955Y0085368D01*
X0280429Y0084569D02*
X0290545Y0084569D01*
X0290033Y0083771D02*
X0279140Y0083771D01*
X0277658Y0083771D02*
X0266990Y0083771D01*
X0267198Y0084273D02*
X0266656Y0082963D01*
X0265654Y0081961D01*
X0264344Y0081419D01*
X0262927Y0081419D01*
X0261618Y0081961D01*
X0260616Y0082963D01*
X0260074Y0084273D01*
X0260074Y0085690D01*
X0260616Y0086999D01*
X0261618Y0088001D01*
X0262927Y0088543D01*
X0264344Y0088543D01*
X0265654Y0088001D01*
X0266656Y0086999D01*
X0267198Y0085690D01*
X0267198Y0084273D01*
X0267198Y0084569D02*
X0276368Y0084569D01*
X0275843Y0085368D02*
X0267198Y0085368D01*
X0267001Y0086166D02*
X0275611Y0086166D01*
X0275611Y0086965D02*
X0266670Y0086965D01*
X0265891Y0087763D02*
X0275913Y0087763D01*
X0276538Y0088562D02*
X0201999Y0088562D01*
X0201999Y0087763D02*
X0253514Y0087763D01*
X0253491Y0087748D02*
X0252995Y0087252D01*
X0252605Y0086668D01*
X0252337Y0086020D01*
X0252207Y0085369D01*
X0255374Y0085369D01*
X0255374Y0088536D01*
X0254723Y0088406D01*
X0254074Y0088138D01*
X0253491Y0087748D01*
X0252803Y0086965D02*
X0201999Y0086965D01*
X0201999Y0086166D02*
X0252397Y0086166D01*
X0252212Y0084569D02*
X0201999Y0084569D01*
X0201999Y0083771D02*
X0252407Y0083771D01*
X0255374Y0083771D02*
X0256149Y0083771D01*
X0256149Y0084569D02*
X0255374Y0084569D01*
X0255374Y0084594D02*
X0256149Y0084594D01*
X0256149Y0085369D01*
X0255374Y0085369D01*
X0255374Y0084594D01*
X0255374Y0085368D02*
X0201999Y0085368D01*
X0201999Y0089361D02*
X0280303Y0089361D01*
X0280985Y0090159D02*
X0243519Y0090159D01*
X0243178Y0089818D02*
X0243962Y0090602D01*
X0244386Y0091627D01*
X0244386Y0092736D01*
X0243962Y0093760D01*
X0243178Y0094544D01*
X0242153Y0094968D01*
X0241044Y0094968D01*
X0240020Y0094544D01*
X0239236Y0093760D01*
X0238811Y0092736D01*
X0238811Y0091627D01*
X0239236Y0090602D01*
X0240020Y0089818D01*
X0241044Y0089394D01*
X0242153Y0089394D01*
X0243178Y0089818D01*
X0244109Y0090958D02*
X0284239Y0090958D01*
X0284386Y0090602D02*
X0285170Y0089818D01*
X0286194Y0089394D01*
X0287303Y0089394D01*
X0288328Y0089818D01*
X0289112Y0090602D01*
X0289536Y0091627D01*
X0289536Y0092736D01*
X0289112Y0093760D01*
X0288328Y0094544D01*
X0287303Y0094968D01*
X0286194Y0094968D01*
X0285170Y0094544D01*
X0284386Y0093760D01*
X0283961Y0092736D01*
X0283961Y0091627D01*
X0284386Y0090602D01*
X0284513Y0090159D02*
X0284829Y0090159D01*
X0285194Y0089361D02*
X0370704Y0089361D01*
X0370744Y0089344D02*
X0369720Y0089768D01*
X0368936Y0090552D01*
X0368511Y0091577D01*
X0368511Y0092686D01*
X0368936Y0093710D01*
X0369720Y0094494D01*
X0370744Y0094918D01*
X0371853Y0094918D01*
X0372878Y0094494D01*
X0373662Y0093710D01*
X0374086Y0092686D01*
X0374086Y0091577D01*
X0373662Y0090552D01*
X0372878Y0089768D01*
X0371853Y0089344D01*
X0370744Y0089344D01*
X0371894Y0089361D02*
X0449462Y0089361D01*
X0449586Y0089660D02*
X0449161Y0088636D01*
X0449161Y0087527D01*
X0449586Y0086502D01*
X0450370Y0085718D01*
X0451394Y0085294D01*
X0452503Y0085294D01*
X0453528Y0085718D01*
X0454312Y0086502D01*
X0454736Y0087527D01*
X0454736Y0088636D01*
X0454312Y0089660D01*
X0453528Y0090444D01*
X0452503Y0090868D01*
X0451394Y0090868D01*
X0450370Y0090444D01*
X0449586Y0089660D01*
X0450085Y0090159D02*
X0373269Y0090159D01*
X0373830Y0090958D02*
X0466130Y0090958D01*
X0465786Y0091302D02*
X0466570Y0090518D01*
X0467594Y0090094D01*
X0468703Y0090094D01*
X0469728Y0090518D01*
X0470512Y0091302D01*
X0470936Y0092327D01*
X0470936Y0093436D01*
X0470512Y0094460D01*
X0469728Y0095244D01*
X0468703Y0095668D01*
X0467594Y0095668D01*
X0466570Y0095244D01*
X0465786Y0094460D01*
X0465361Y0093436D01*
X0465361Y0092327D01*
X0465786Y0091302D01*
X0465598Y0091756D02*
X0374086Y0091756D01*
X0374086Y0092555D02*
X0465361Y0092555D01*
X0465361Y0093353D02*
X0373810Y0093353D01*
X0373220Y0094152D02*
X0386436Y0094152D01*
X0386670Y0093918D02*
X0387694Y0093494D01*
X0388803Y0093494D01*
X0389828Y0093918D01*
X0390612Y0094702D01*
X0391036Y0095727D01*
X0391036Y0096836D01*
X0390612Y0097860D01*
X0389828Y0098644D01*
X0388803Y0099068D01*
X0387694Y0099068D01*
X0386670Y0098644D01*
X0385886Y0097860D01*
X0385461Y0096836D01*
X0385461Y0095727D01*
X0385886Y0094702D01*
X0386670Y0093918D01*
X0385783Y0094950D02*
X0347122Y0094950D01*
X0347078Y0094994D02*
X0346053Y0095418D01*
X0344944Y0095418D01*
X0343920Y0094994D01*
X0343136Y0094210D01*
X0342711Y0093186D01*
X0342711Y0092077D01*
X0343136Y0091052D01*
X0343920Y0090268D01*
X0344944Y0089844D01*
X0346053Y0089844D01*
X0347078Y0090268D01*
X0347862Y0091052D01*
X0348286Y0092077D01*
X0348286Y0093186D01*
X0347862Y0094210D01*
X0347078Y0094994D01*
X0347886Y0094152D02*
X0369377Y0094152D01*
X0368788Y0093353D02*
X0348217Y0093353D01*
X0348286Y0092555D02*
X0368511Y0092555D01*
X0368511Y0091756D02*
X0348153Y0091756D01*
X0347767Y0090958D02*
X0368768Y0090958D01*
X0369329Y0090159D02*
X0346815Y0090159D01*
X0344183Y0090159D02*
X0288669Y0090159D01*
X0289259Y0090958D02*
X0343230Y0090958D01*
X0342844Y0091756D02*
X0289536Y0091756D01*
X0289536Y0092555D02*
X0342711Y0092555D01*
X0342781Y0093353D02*
X0289280Y0093353D01*
X0288720Y0094152D02*
X0343112Y0094152D01*
X0343876Y0094950D02*
X0287348Y0094950D01*
X0286150Y0094950D02*
X0242198Y0094950D01*
X0241000Y0094950D02*
X0218032Y0094950D01*
X0218012Y0094902D02*
X0218436Y0095927D01*
X0218436Y0097036D01*
X0218012Y0098060D01*
X0217228Y0098844D01*
X0216203Y0099268D01*
X0215094Y0099268D01*
X0214070Y0098844D01*
X0213286Y0098060D01*
X0212861Y0097036D01*
X0212861Y0095927D01*
X0213286Y0094902D01*
X0214070Y0094118D01*
X0215094Y0093694D01*
X0216203Y0093694D01*
X0217228Y0094118D01*
X0218012Y0094902D01*
X0218362Y0095749D02*
X0385461Y0095749D01*
X0385461Y0096547D02*
X0317057Y0096547D01*
X0316728Y0096218D02*
X0317512Y0097002D01*
X0317870Y0097868D01*
X0318020Y0097718D01*
X0319044Y0097294D01*
X0320153Y0097294D01*
X0321178Y0097718D01*
X0321962Y0098502D01*
X0322386Y0099527D01*
X0322386Y0100636D01*
X0321962Y0101660D01*
X0321178Y0102444D01*
X0320153Y0102868D01*
X0319044Y0102868D01*
X0318020Y0102444D01*
X0317236Y0101660D01*
X0316877Y0100795D01*
X0316728Y0100944D01*
X0315703Y0101368D01*
X0314594Y0101368D01*
X0313570Y0100944D01*
X0312786Y0100160D01*
X0312361Y0099136D01*
X0312361Y0098027D01*
X0312786Y0097002D01*
X0313570Y0096218D01*
X0314594Y0095794D01*
X0315703Y0095794D01*
X0316728Y0096218D01*
X0317654Y0097346D02*
X0318919Y0097346D01*
X0320279Y0097346D02*
X0385673Y0097346D01*
X0386170Y0098144D02*
X0321604Y0098144D01*
X0322144Y0098943D02*
X0387391Y0098943D01*
X0389107Y0098943D02*
X0416818Y0098943D01*
X0416920Y0099044D02*
X0416136Y0098260D01*
X0415711Y0097236D01*
X0415711Y0096127D01*
X0416136Y0095102D01*
X0416920Y0094318D01*
X0417944Y0093894D01*
X0419053Y0093894D01*
X0420078Y0094318D01*
X0420862Y0095102D01*
X0421286Y0096127D01*
X0421286Y0097236D01*
X0420862Y0098260D01*
X0420078Y0099044D01*
X0419053Y0099468D01*
X0417944Y0099468D01*
X0416920Y0099044D01*
X0416088Y0098144D02*
X0390328Y0098144D01*
X0390825Y0097346D02*
X0415757Y0097346D01*
X0415711Y0096547D02*
X0391036Y0096547D01*
X0391036Y0095749D02*
X0415868Y0095749D01*
X0416288Y0094950D02*
X0390715Y0094950D01*
X0390061Y0094152D02*
X0417322Y0094152D01*
X0419676Y0094152D02*
X0465658Y0094152D01*
X0466276Y0094950D02*
X0420710Y0094950D01*
X0421130Y0095749D02*
X0496189Y0095749D01*
X0495936Y0096002D02*
X0496720Y0095218D01*
X0497744Y0094794D01*
X0498853Y0094794D01*
X0499878Y0095218D01*
X0500662Y0096002D01*
X0501086Y0097027D01*
X0501086Y0098136D01*
X0500662Y0099160D01*
X0499878Y0099944D01*
X0498853Y0100368D01*
X0497744Y0100368D01*
X0496720Y0099944D01*
X0495936Y0099160D01*
X0495511Y0098136D01*
X0495511Y0097027D01*
X0495936Y0096002D01*
X0495710Y0096547D02*
X0455562Y0096547D01*
X0455553Y0096544D02*
X0456578Y0096968D01*
X0457362Y0097752D01*
X0457786Y0098777D01*
X0457786Y0099886D01*
X0457362Y0100910D01*
X0456578Y0101694D01*
X0455553Y0102118D01*
X0454444Y0102118D01*
X0453420Y0101694D01*
X0452636Y0100910D01*
X0452211Y0099886D01*
X0452211Y0098777D01*
X0452636Y0097752D01*
X0453420Y0096968D01*
X0454444Y0096544D01*
X0455553Y0096544D01*
X0454436Y0096547D02*
X0421286Y0096547D01*
X0421241Y0097346D02*
X0453042Y0097346D01*
X0452473Y0098144D02*
X0420910Y0098144D01*
X0420179Y0098943D02*
X0452211Y0098943D01*
X0452211Y0099741D02*
X0403880Y0099741D01*
X0403403Y0099544D02*
X0404428Y0099968D01*
X0405212Y0100752D01*
X0405636Y0101777D01*
X0405636Y0102694D01*
X0406703Y0102694D01*
X0407728Y0103118D01*
X0408512Y0103902D01*
X0408936Y0104927D01*
X0408936Y0106036D01*
X0408512Y0107060D01*
X0407728Y0107844D01*
X0406703Y0108268D01*
X0405594Y0108268D01*
X0404570Y0107844D01*
X0403786Y0107060D01*
X0403361Y0106036D01*
X0403361Y0105118D01*
X0402294Y0105118D01*
X0401270Y0104694D01*
X0400486Y0103910D01*
X0400061Y0102886D01*
X0400061Y0101777D01*
X0400486Y0100752D01*
X0401270Y0099968D01*
X0402294Y0099544D01*
X0403403Y0099544D01*
X0401818Y0099741D02*
X0393130Y0099741D01*
X0392653Y0099544D02*
X0393678Y0099968D01*
X0394462Y0100752D01*
X0394886Y0101777D01*
X0394886Y0102886D01*
X0394462Y0103910D01*
X0393678Y0104694D01*
X0392653Y0105118D01*
X0391544Y0105118D01*
X0390520Y0104694D01*
X0389736Y0103910D01*
X0389311Y0102886D01*
X0389311Y0101777D01*
X0389736Y0100752D01*
X0390520Y0099968D01*
X0391544Y0099544D01*
X0392653Y0099544D01*
X0391068Y0099741D02*
X0340801Y0099741D01*
X0340478Y0099418D02*
X0341262Y0100202D01*
X0341686Y0101227D01*
X0341686Y0102336D01*
X0341262Y0103360D01*
X0340478Y0104144D01*
X0339453Y0104568D01*
X0338344Y0104568D01*
X0337320Y0104144D01*
X0336536Y0103360D01*
X0336111Y0102336D01*
X0336111Y0101227D01*
X0336536Y0100202D01*
X0337320Y0099418D01*
X0338344Y0098994D01*
X0339453Y0098994D01*
X0340478Y0099418D01*
X0341402Y0100540D02*
X0389948Y0100540D01*
X0389493Y0101338D02*
X0341686Y0101338D01*
X0341686Y0102137D02*
X0389311Y0102137D01*
X0389332Y0102935D02*
X0341438Y0102935D01*
X0340888Y0103734D02*
X0389663Y0103734D01*
X0390358Y0104532D02*
X0339541Y0104532D01*
X0338257Y0104532D02*
X0201999Y0104532D01*
X0201999Y0103734D02*
X0336909Y0103734D01*
X0336360Y0102935D02*
X0236937Y0102935D01*
X0236828Y0103044D02*
X0235803Y0103468D01*
X0234694Y0103468D01*
X0233670Y0103044D01*
X0232886Y0102260D01*
X0232461Y0101236D01*
X0232461Y0100127D01*
X0232886Y0099102D01*
X0233670Y0098318D01*
X0234694Y0097894D01*
X0235803Y0097894D01*
X0236828Y0098318D01*
X0237612Y0099102D01*
X0238036Y0100127D01*
X0238036Y0101236D01*
X0237612Y0102260D01*
X0236828Y0103044D01*
X0237663Y0102137D02*
X0301726Y0102137D01*
X0302044Y0102268D02*
X0301020Y0101844D01*
X0300236Y0101060D01*
X0299811Y0100036D01*
X0299811Y0098927D01*
X0300236Y0097902D01*
X0301020Y0097118D01*
X0302044Y0096694D01*
X0303153Y0096694D01*
X0304178Y0097118D01*
X0304962Y0097902D01*
X0305386Y0098927D01*
X0305386Y0100036D01*
X0304962Y0101060D01*
X0304178Y0101844D01*
X0303153Y0102268D01*
X0302044Y0102268D01*
X0303471Y0102137D02*
X0317712Y0102137D01*
X0317102Y0101338D02*
X0315776Y0101338D01*
X0314521Y0101338D02*
X0304684Y0101338D01*
X0305177Y0100540D02*
X0313165Y0100540D01*
X0312612Y0099741D02*
X0305386Y0099741D01*
X0305386Y0098943D02*
X0312361Y0098943D01*
X0312361Y0098144D02*
X0305062Y0098144D01*
X0304405Y0097346D02*
X0312644Y0097346D01*
X0313241Y0096547D02*
X0218436Y0096547D01*
X0218308Y0097346D02*
X0300792Y0097346D01*
X0300136Y0098144D02*
X0236408Y0098144D01*
X0237452Y0098943D02*
X0299811Y0098943D01*
X0299811Y0099741D02*
X0237877Y0099741D01*
X0238036Y0100540D02*
X0300020Y0100540D01*
X0300514Y0101338D02*
X0237994Y0101338D01*
X0233561Y0102935D02*
X0201999Y0102935D01*
X0201999Y0102137D02*
X0232835Y0102137D01*
X0232504Y0101338D02*
X0201999Y0101338D01*
X0201999Y0100540D02*
X0232461Y0100540D01*
X0232621Y0099741D02*
X0201999Y0099741D01*
X0201999Y0098943D02*
X0214308Y0098943D01*
X0213370Y0098144D02*
X0201999Y0098144D01*
X0201999Y0097346D02*
X0212990Y0097346D01*
X0212861Y0096547D02*
X0201999Y0096547D01*
X0201999Y0095749D02*
X0212935Y0095749D01*
X0213266Y0094950D02*
X0201999Y0094950D01*
X0201999Y0094152D02*
X0214036Y0094152D01*
X0217261Y0094152D02*
X0239627Y0094152D01*
X0239067Y0093353D02*
X0201999Y0093353D01*
X0201999Y0092555D02*
X0238811Y0092555D01*
X0238811Y0091756D02*
X0201999Y0091756D01*
X0201999Y0090958D02*
X0239089Y0090958D01*
X0239679Y0090159D02*
X0201999Y0090159D01*
X0216990Y0098943D02*
X0233045Y0098943D01*
X0234090Y0098144D02*
X0217928Y0098144D01*
X0226877Y0107726D02*
X0404452Y0107726D01*
X0403731Y0106928D02*
X0201999Y0106928D01*
X0201999Y0106129D02*
X0403400Y0106129D01*
X0403361Y0105331D02*
X0201999Y0105331D01*
X0241343Y0108525D02*
X0498390Y0108525D01*
X0498311Y0108336D02*
X0498311Y0107227D01*
X0498736Y0106202D01*
X0499520Y0105418D01*
X0500544Y0104994D01*
X0501653Y0104994D01*
X0502678Y0105418D01*
X0503462Y0106202D01*
X0503886Y0107227D01*
X0503886Y0107844D01*
X0504453Y0107844D01*
X0505478Y0108268D01*
X0506262Y0109052D01*
X0506686Y0110077D01*
X0506686Y0111186D01*
X0506262Y0112210D01*
X0505478Y0112994D01*
X0504453Y0113418D01*
X0503344Y0113418D01*
X0502320Y0112994D01*
X0501536Y0112210D01*
X0501111Y0111186D01*
X0501111Y0110568D01*
X0500544Y0110568D01*
X0499520Y0110144D01*
X0498736Y0109360D01*
X0498311Y0108336D01*
X0498311Y0107726D02*
X0486096Y0107726D01*
X0485978Y0107844D02*
X0484953Y0108268D01*
X0483844Y0108268D01*
X0482820Y0107844D01*
X0482036Y0107060D01*
X0481611Y0106036D01*
X0481611Y0104927D01*
X0482036Y0103902D01*
X0482820Y0103118D01*
X0483844Y0102694D01*
X0484953Y0102694D01*
X0485978Y0103118D01*
X0486762Y0103902D01*
X0487186Y0104927D01*
X0487186Y0106036D01*
X0486762Y0107060D01*
X0485978Y0107844D01*
X0486817Y0106928D02*
X0498435Y0106928D01*
X0498809Y0106129D02*
X0487147Y0106129D01*
X0487186Y0105331D02*
X0499731Y0105331D01*
X0502467Y0105331D02*
X0507470Y0105331D01*
X0507020Y0105144D02*
X0506236Y0104360D01*
X0505811Y0103336D01*
X0505811Y0102227D01*
X0506236Y0101202D01*
X0507020Y0100418D01*
X0508044Y0099994D01*
X0509153Y0099994D01*
X0510178Y0100418D01*
X0510962Y0101202D01*
X0511386Y0102227D01*
X0511386Y0103336D01*
X0510962Y0104360D01*
X0510178Y0105144D01*
X0509153Y0105568D01*
X0508044Y0105568D01*
X0507020Y0105144D01*
X0506408Y0104532D02*
X0487023Y0104532D01*
X0486593Y0103734D02*
X0505976Y0103734D01*
X0505811Y0102935D02*
X0485536Y0102935D01*
X0483261Y0102935D02*
X0407286Y0102935D01*
X0408343Y0103734D02*
X0482204Y0103734D01*
X0481775Y0104532D02*
X0408773Y0104532D01*
X0408936Y0105331D02*
X0481611Y0105331D01*
X0481650Y0106129D02*
X0408897Y0106129D01*
X0408567Y0106928D02*
X0481981Y0106928D01*
X0482702Y0107726D02*
X0407846Y0107726D01*
X0404628Y0110818D02*
X0403603Y0110394D01*
X0402494Y0110394D01*
X0401470Y0110818D01*
X0400686Y0111602D01*
X0400261Y0112627D01*
X0400261Y0113736D01*
X0400686Y0114760D01*
X0401470Y0115544D01*
X0402494Y0115968D01*
X0403603Y0115968D01*
X0404628Y0115544D01*
X0405412Y0114760D01*
X0405836Y0113736D01*
X0405836Y0112627D01*
X0405412Y0111602D01*
X0404628Y0110818D01*
X0404730Y0110920D02*
X0456818Y0110920D01*
X0456436Y0111302D02*
X0457220Y0110518D01*
X0458244Y0110094D01*
X0459353Y0110094D01*
X0460378Y0110518D01*
X0461162Y0111302D01*
X0461586Y0112327D01*
X0461586Y0113436D01*
X0461162Y0114460D01*
X0460378Y0115244D01*
X0459353Y0115668D01*
X0458244Y0115668D01*
X0457220Y0115244D01*
X0456436Y0114460D01*
X0456011Y0113436D01*
X0456011Y0112327D01*
X0456436Y0111302D01*
X0456263Y0111719D02*
X0410055Y0111719D01*
X0409753Y0111594D02*
X0410778Y0112018D01*
X0411562Y0112802D01*
X0411986Y0113827D01*
X0411986Y0114936D01*
X0411562Y0115960D01*
X0410778Y0116744D01*
X0409753Y0117168D01*
X0408644Y0117168D01*
X0407620Y0116744D01*
X0406836Y0115960D01*
X0406411Y0114936D01*
X0406411Y0113827D01*
X0406836Y0112802D01*
X0407620Y0112018D01*
X0408644Y0111594D01*
X0409753Y0111594D01*
X0408342Y0111719D02*
X0405460Y0111719D01*
X0405791Y0112517D02*
X0407121Y0112517D01*
X0406623Y0113316D02*
X0405836Y0113316D01*
X0405679Y0114114D02*
X0406411Y0114114D01*
X0406411Y0114913D02*
X0405259Y0114913D01*
X0404224Y0115711D02*
X0406733Y0115711D01*
X0407386Y0116510D02*
X0389970Y0116510D01*
X0389778Y0116318D02*
X0390562Y0117102D01*
X0390986Y0118127D01*
X0390986Y0119236D01*
X0390562Y0120260D01*
X0389778Y0121044D01*
X0388753Y0121468D01*
X0387644Y0121468D01*
X0386620Y0121044D01*
X0385836Y0120260D01*
X0385411Y0119236D01*
X0385411Y0118127D01*
X0385836Y0117102D01*
X0386620Y0116318D01*
X0387644Y0115894D01*
X0388753Y0115894D01*
X0389778Y0116318D01*
X0390520Y0115544D02*
X0389736Y0114760D01*
X0389311Y0113736D01*
X0389311Y0112627D01*
X0389736Y0111602D01*
X0390520Y0110818D01*
X0391544Y0110394D01*
X0392653Y0110394D01*
X0393678Y0110818D01*
X0394462Y0111602D01*
X0394886Y0112627D01*
X0394886Y0113736D01*
X0394462Y0114760D01*
X0393678Y0115544D01*
X0392653Y0115968D01*
X0391544Y0115968D01*
X0390520Y0115544D01*
X0390924Y0115711D02*
X0270188Y0115711D01*
X0270236Y0115827D02*
X0269812Y0114802D01*
X0269028Y0114018D01*
X0268003Y0113594D01*
X0266894Y0113594D01*
X0265870Y0114018D01*
X0265086Y0114802D01*
X0264661Y0115827D01*
X0264661Y0116936D01*
X0265086Y0117960D01*
X0265870Y0118744D01*
X0266894Y0119168D01*
X0268003Y0119168D01*
X0269028Y0118744D01*
X0269812Y0117960D01*
X0270236Y0116936D01*
X0270236Y0115827D01*
X0270236Y0116510D02*
X0386428Y0116510D01*
X0385750Y0117308D02*
X0270082Y0117308D01*
X0269665Y0118107D02*
X0385420Y0118107D01*
X0385411Y0118905D02*
X0268638Y0118905D01*
X0266259Y0118905D02*
X0241999Y0118905D01*
X0241999Y0118107D02*
X0265233Y0118107D01*
X0264816Y0117308D02*
X0241999Y0117308D01*
X0241999Y0116510D02*
X0264661Y0116510D01*
X0264709Y0115711D02*
X0241999Y0115711D01*
X0241999Y0114913D02*
X0265040Y0114913D01*
X0265774Y0114114D02*
X0241999Y0114114D01*
X0241999Y0113316D02*
X0389311Y0113316D01*
X0389357Y0112517D02*
X0241999Y0112517D01*
X0241999Y0111719D02*
X0389687Y0111719D01*
X0390418Y0110920D02*
X0241999Y0110920D01*
X0241999Y0110122D02*
X0458176Y0110122D01*
X0459421Y0110122D02*
X0499498Y0110122D01*
X0498721Y0109323D02*
X0241999Y0109323D01*
X0241999Y0119704D02*
X0385605Y0119704D01*
X0386078Y0120502D02*
X0241999Y0120502D01*
X0241999Y0121301D02*
X0387240Y0121301D01*
X0389158Y0121301D02*
X0436061Y0121301D01*
X0436086Y0121360D02*
X0435661Y0120336D01*
X0435661Y0119227D01*
X0436086Y0118202D01*
X0436507Y0117781D01*
X0436036Y0117310D01*
X0435611Y0116286D01*
X0435611Y0115177D01*
X0436036Y0114152D01*
X0436820Y0113368D01*
X0437844Y0112944D01*
X0438953Y0112944D01*
X0439978Y0113368D01*
X0440762Y0114152D01*
X0441186Y0115177D01*
X0441186Y0116286D01*
X0440762Y0117310D01*
X0440341Y0117731D01*
X0440812Y0118202D01*
X0441236Y0119227D01*
X0441236Y0120336D01*
X0440812Y0121360D01*
X0440028Y0122144D01*
X0439003Y0122568D01*
X0437894Y0122568D01*
X0436870Y0122144D01*
X0436086Y0121360D01*
X0435731Y0120502D02*
X0390319Y0120502D01*
X0390792Y0119704D02*
X0435661Y0119704D01*
X0435794Y0118905D02*
X0390986Y0118905D01*
X0390978Y0118107D02*
X0436181Y0118107D01*
X0436035Y0117308D02*
X0390647Y0117308D01*
X0389889Y0114913D02*
X0269858Y0114913D01*
X0269124Y0114114D02*
X0389468Y0114114D01*
X0393274Y0115711D02*
X0401874Y0115711D01*
X0400839Y0114913D02*
X0394309Y0114913D01*
X0394729Y0114114D02*
X0400418Y0114114D01*
X0400261Y0113316D02*
X0394886Y0113316D01*
X0394841Y0112517D02*
X0400307Y0112517D01*
X0400637Y0111719D02*
X0394510Y0111719D01*
X0393780Y0110920D02*
X0401368Y0110920D01*
X0411277Y0112517D02*
X0456011Y0112517D01*
X0456011Y0113316D02*
X0439852Y0113316D01*
X0440724Y0114114D02*
X0456293Y0114114D01*
X0456889Y0114913D02*
X0441077Y0114913D01*
X0441186Y0115711D02*
X0464177Y0115711D01*
X0464194Y0115718D02*
X0463170Y0115294D01*
X0462386Y0114510D01*
X0461961Y0113486D01*
X0461961Y0112377D01*
X0462386Y0111352D01*
X0463170Y0110568D01*
X0464194Y0110144D01*
X0465303Y0110144D01*
X0466328Y0110568D01*
X0467112Y0111352D01*
X0467536Y0112377D01*
X0467536Y0113486D01*
X0467112Y0114510D01*
X0466328Y0115294D01*
X0465303Y0115718D01*
X0464194Y0115718D01*
X0465320Y0115711D02*
X0494311Y0115711D01*
X0494311Y0115177D02*
X0494736Y0114152D01*
X0495520Y0113368D01*
X0496544Y0112944D01*
X0497653Y0112944D01*
X0498678Y0113368D01*
X0499462Y0114152D01*
X0499886Y0115177D01*
X0499886Y0116286D01*
X0499462Y0117310D01*
X0498678Y0118094D01*
X0497653Y0118518D01*
X0496544Y0118518D01*
X0495520Y0118094D01*
X0494736Y0117310D01*
X0494311Y0116286D01*
X0494311Y0115177D01*
X0494421Y0114913D02*
X0466709Y0114913D01*
X0467276Y0114114D02*
X0494774Y0114114D01*
X0495646Y0113316D02*
X0467536Y0113316D01*
X0467536Y0112517D02*
X0501843Y0112517D01*
X0501332Y0111719D02*
X0467264Y0111719D01*
X0466680Y0110920D02*
X0501111Y0110920D01*
X0503097Y0113316D02*
X0498552Y0113316D01*
X0499424Y0114114D02*
X0507098Y0114114D01*
X0507186Y0113902D02*
X0507970Y0113118D01*
X0508687Y0112821D01*
X0508361Y0112036D01*
X0508361Y0110927D01*
X0508786Y0109902D01*
X0509570Y0109118D01*
X0510594Y0108694D01*
X0511703Y0108694D01*
X0512728Y0109118D01*
X0513512Y0109902D01*
X0513936Y0110927D01*
X0513936Y0112036D01*
X0513512Y0113060D01*
X0512728Y0113844D01*
X0512011Y0114141D01*
X0512336Y0114927D01*
X0512336Y0116036D01*
X0511912Y0117060D01*
X0511266Y0117706D01*
X0511462Y0117902D01*
X0511886Y0118927D01*
X0511886Y0120036D01*
X0511462Y0121060D01*
X0510678Y0121844D01*
X0509653Y0122268D01*
X0508544Y0122268D01*
X0507520Y0121844D01*
X0506736Y0121060D01*
X0506311Y0120036D01*
X0506311Y0118927D01*
X0506736Y0117902D01*
X0507382Y0117256D01*
X0507186Y0117060D01*
X0506761Y0116036D01*
X0506761Y0114927D01*
X0507186Y0113902D01*
X0507772Y0113316D02*
X0504701Y0113316D01*
X0505955Y0112517D02*
X0508561Y0112517D01*
X0508361Y0111719D02*
X0506465Y0111719D01*
X0506686Y0110920D02*
X0508364Y0110920D01*
X0508695Y0110122D02*
X0506686Y0110122D01*
X0506374Y0109323D02*
X0509365Y0109323D01*
X0512933Y0109323D02*
X0515026Y0109323D01*
X0515026Y0108525D02*
X0505734Y0108525D01*
X0503886Y0107726D02*
X0515026Y0107726D01*
X0515026Y0106928D02*
X0503762Y0106928D01*
X0503389Y0106129D02*
X0515026Y0106129D01*
X0515026Y0105331D02*
X0509727Y0105331D01*
X0510790Y0104532D02*
X0515026Y0104532D01*
X0515026Y0103734D02*
X0511221Y0103734D01*
X0511386Y0102935D02*
X0515026Y0102935D01*
X0515026Y0102137D02*
X0511349Y0102137D01*
X0511018Y0101338D02*
X0515026Y0101338D01*
X0515026Y0100540D02*
X0513532Y0100540D01*
X0513528Y0100544D02*
X0512503Y0100968D01*
X0511394Y0100968D01*
X0510370Y0100544D01*
X0509586Y0099760D01*
X0509161Y0098736D01*
X0509161Y0097627D01*
X0509586Y0096602D01*
X0510370Y0095818D01*
X0511394Y0095394D01*
X0512503Y0095394D01*
X0513528Y0095818D01*
X0514312Y0096602D01*
X0514736Y0097627D01*
X0514736Y0098736D01*
X0514312Y0099760D01*
X0513528Y0100544D01*
X0514320Y0099741D02*
X0515026Y0099741D01*
X0515026Y0098943D02*
X0514650Y0098943D01*
X0514736Y0098144D02*
X0515026Y0098144D01*
X0515026Y0097346D02*
X0514620Y0097346D01*
X0514257Y0096547D02*
X0515026Y0096547D01*
X0515026Y0095749D02*
X0513360Y0095749D01*
X0515026Y0094950D02*
X0499231Y0094950D01*
X0500408Y0095749D02*
X0510538Y0095749D01*
X0509641Y0096547D02*
X0500888Y0096547D01*
X0501086Y0097346D02*
X0509278Y0097346D01*
X0509161Y0098144D02*
X0501083Y0098144D01*
X0500752Y0098943D02*
X0509247Y0098943D01*
X0509578Y0099741D02*
X0500081Y0099741D01*
X0496517Y0099741D02*
X0457786Y0099741D01*
X0457786Y0098943D02*
X0495846Y0098943D01*
X0495515Y0098144D02*
X0457524Y0098144D01*
X0456955Y0097346D02*
X0495511Y0097346D01*
X0497367Y0094950D02*
X0470022Y0094950D01*
X0470640Y0094152D02*
X0515026Y0094152D01*
X0515026Y0093353D02*
X0470936Y0093353D01*
X0470936Y0092555D02*
X0515026Y0092555D01*
X0515026Y0091756D02*
X0470700Y0091756D01*
X0470167Y0090958D02*
X0515026Y0090958D01*
X0515026Y0090159D02*
X0468861Y0090159D01*
X0467437Y0090159D02*
X0453813Y0090159D01*
X0454436Y0089361D02*
X0515026Y0089361D01*
X0515026Y0088562D02*
X0454736Y0088562D01*
X0454736Y0087763D02*
X0515026Y0087763D01*
X0515026Y0086965D02*
X0454504Y0086965D01*
X0453976Y0086166D02*
X0515026Y0086166D01*
X0515026Y0085368D02*
X0452683Y0085368D01*
X0451215Y0085368D02*
X0376186Y0085368D01*
X0376186Y0086166D02*
X0449921Y0086166D01*
X0449394Y0086965D02*
X0375946Y0086965D01*
X0375408Y0087763D02*
X0449161Y0087763D01*
X0449161Y0088562D02*
X0374090Y0088562D01*
X0372708Y0088562D02*
X0285525Y0088562D01*
X0285536Y0087763D02*
X0371389Y0087763D01*
X0370851Y0086965D02*
X0285345Y0086965D01*
X0284876Y0086166D02*
X0370611Y0086166D01*
X0373780Y0082972D02*
X0451171Y0082972D01*
X0451644Y0083168D02*
X0450620Y0082744D01*
X0449836Y0081960D01*
X0449411Y0080936D01*
X0449411Y0079827D01*
X0449836Y0078802D01*
X0450620Y0078018D01*
X0451644Y0077594D01*
X0452753Y0077594D01*
X0453778Y0078018D01*
X0454562Y0078802D01*
X0454986Y0079827D01*
X0454986Y0080936D01*
X0454562Y0081960D01*
X0453778Y0082744D01*
X0452753Y0083168D01*
X0451644Y0083168D01*
X0453227Y0082972D02*
X0457842Y0082972D01*
X0458194Y0083118D02*
X0457170Y0082694D01*
X0456386Y0081910D01*
X0455961Y0080886D01*
X0455961Y0079777D01*
X0456386Y0078752D01*
X0457170Y0077968D01*
X0458194Y0077544D01*
X0459303Y0077544D01*
X0460328Y0077968D01*
X0461112Y0078752D01*
X0461536Y0079777D01*
X0461536Y0080886D01*
X0461112Y0081910D01*
X0460328Y0082694D01*
X0459303Y0083118D01*
X0458194Y0083118D01*
X0459656Y0082972D02*
X0495998Y0082972D01*
X0495786Y0082760D02*
X0495361Y0081736D01*
X0495361Y0080627D01*
X0495786Y0079602D01*
X0496570Y0078818D01*
X0497594Y0078394D01*
X0498703Y0078394D01*
X0499728Y0078818D01*
X0500512Y0079602D01*
X0500936Y0080627D01*
X0500936Y0081736D01*
X0500512Y0082760D01*
X0499728Y0083544D01*
X0498703Y0083968D01*
X0497594Y0083968D01*
X0496570Y0083544D01*
X0495786Y0082760D01*
X0495543Y0082174D02*
X0460848Y0082174D01*
X0461333Y0081375D02*
X0495361Y0081375D01*
X0495382Y0080577D02*
X0461536Y0080577D01*
X0461536Y0079778D02*
X0495713Y0079778D01*
X0496408Y0078980D02*
X0461206Y0078980D01*
X0460541Y0078181D02*
X0515026Y0078181D01*
X0515026Y0077383D02*
X0396944Y0077383D01*
X0397086Y0077727D02*
X0396662Y0076702D01*
X0395878Y0075918D01*
X0394853Y0075494D01*
X0393744Y0075494D01*
X0392720Y0075918D01*
X0391936Y0076702D01*
X0391511Y0077727D01*
X0391511Y0078836D01*
X0391936Y0079860D01*
X0392720Y0080644D01*
X0393744Y0081068D01*
X0394853Y0081068D01*
X0395878Y0080644D01*
X0396662Y0079860D01*
X0397086Y0078836D01*
X0397086Y0077727D01*
X0397086Y0078181D02*
X0450457Y0078181D01*
X0449762Y0078980D02*
X0397026Y0078980D01*
X0396696Y0079778D02*
X0449431Y0079778D01*
X0449411Y0080577D02*
X0395945Y0080577D01*
X0392653Y0080577D02*
X0373287Y0080577D01*
X0373691Y0081375D02*
X0449594Y0081375D01*
X0450050Y0082174D02*
X0373836Y0082174D01*
X0375281Y0083771D02*
X0497117Y0083771D01*
X0499180Y0083771D02*
X0515026Y0083771D01*
X0515026Y0084569D02*
X0375893Y0084569D01*
X0372291Y0079778D02*
X0391902Y0079778D01*
X0391571Y0078980D02*
X0245822Y0078980D01*
X0245391Y0078181D02*
X0271584Y0078181D01*
X0271794Y0078268D02*
X0270770Y0077844D01*
X0269986Y0077060D01*
X0269561Y0076036D01*
X0269561Y0074927D01*
X0269986Y0073902D01*
X0270770Y0073118D01*
X0271794Y0072694D01*
X0272903Y0072694D01*
X0273928Y0073118D01*
X0274712Y0073902D01*
X0275136Y0074927D01*
X0275136Y0076036D01*
X0274712Y0077060D01*
X0273928Y0077844D01*
X0272903Y0078268D01*
X0271794Y0078268D01*
X0273114Y0078181D02*
X0361057Y0078181D01*
X0361070Y0078194D02*
X0360286Y0077410D01*
X0359861Y0076386D01*
X0359861Y0075277D01*
X0360286Y0074252D01*
X0361070Y0073468D01*
X0362094Y0073044D01*
X0363203Y0073044D01*
X0364228Y0073468D01*
X0365012Y0074252D01*
X0365436Y0075277D01*
X0365436Y0076386D01*
X0365012Y0077410D01*
X0364228Y0078194D01*
X0363203Y0078618D01*
X0362094Y0078618D01*
X0361070Y0078194D01*
X0360275Y0077383D02*
X0274389Y0077383D01*
X0274909Y0076584D02*
X0359944Y0076584D01*
X0359861Y0075786D02*
X0275136Y0075786D01*
X0275136Y0074987D02*
X0359981Y0074987D01*
X0360349Y0074189D02*
X0274831Y0074189D01*
X0274200Y0073390D02*
X0361258Y0073390D01*
X0364040Y0073390D02*
X0368508Y0073390D01*
X0368320Y0073468D02*
X0369344Y0073044D01*
X0370453Y0073044D01*
X0371478Y0073468D01*
X0372262Y0074252D01*
X0372686Y0075277D01*
X0372686Y0076386D01*
X0372262Y0077410D01*
X0371478Y0078194D01*
X0370453Y0078618D01*
X0369344Y0078618D01*
X0368320Y0078194D01*
X0367536Y0077410D01*
X0367111Y0076386D01*
X0367111Y0075277D01*
X0367536Y0074252D01*
X0368320Y0073468D01*
X0367599Y0074189D02*
X0364948Y0074189D01*
X0365316Y0074987D02*
X0367231Y0074987D01*
X0367111Y0075786D02*
X0365436Y0075786D01*
X0365354Y0076584D02*
X0367194Y0076584D01*
X0367525Y0077383D02*
X0365023Y0077383D01*
X0364241Y0078181D02*
X0368307Y0078181D01*
X0371491Y0078181D02*
X0391511Y0078181D01*
X0391654Y0077383D02*
X0372273Y0077383D01*
X0372604Y0076584D02*
X0392054Y0076584D01*
X0393039Y0075786D02*
X0372686Y0075786D01*
X0372566Y0074987D02*
X0446123Y0074987D01*
X0446236Y0075260D02*
X0445811Y0074236D01*
X0445811Y0073127D01*
X0446236Y0072102D01*
X0447020Y0071318D01*
X0448044Y0070894D01*
X0449153Y0070894D01*
X0450178Y0071318D01*
X0450962Y0072102D01*
X0451386Y0073127D01*
X0451386Y0074236D01*
X0450962Y0075260D01*
X0450178Y0076044D01*
X0449153Y0076468D01*
X0448044Y0076468D01*
X0447020Y0076044D01*
X0446236Y0075260D01*
X0446762Y0075786D02*
X0395559Y0075786D01*
X0396544Y0076584D02*
X0515026Y0076584D01*
X0515026Y0075786D02*
X0459986Y0075786D01*
X0460328Y0075644D02*
X0459303Y0076068D01*
X0458194Y0076068D01*
X0457170Y0075644D01*
X0456386Y0074860D01*
X0455961Y0073836D01*
X0455961Y0072727D01*
X0456386Y0071702D01*
X0457170Y0070918D01*
X0458194Y0070494D01*
X0459303Y0070494D01*
X0460328Y0070918D01*
X0461112Y0071702D01*
X0461536Y0072727D01*
X0461536Y0073836D01*
X0461112Y0074860D01*
X0460328Y0075644D01*
X0460985Y0074987D02*
X0515026Y0074987D01*
X0515026Y0074189D02*
X0461390Y0074189D01*
X0461536Y0073390D02*
X0515026Y0073390D01*
X0515026Y0072592D02*
X0461480Y0072592D01*
X0461150Y0071793D02*
X0515026Y0071793D01*
X0515026Y0070995D02*
X0460404Y0070995D01*
X0457093Y0070995D02*
X0449397Y0070995D01*
X0450653Y0071793D02*
X0456348Y0071793D01*
X0456017Y0072592D02*
X0451165Y0072592D01*
X0451386Y0073390D02*
X0455961Y0073390D01*
X0456108Y0074189D02*
X0451386Y0074189D01*
X0451075Y0074987D02*
X0456513Y0074987D01*
X0457512Y0075786D02*
X0450436Y0075786D01*
X0453941Y0078181D02*
X0456957Y0078181D01*
X0456291Y0078980D02*
X0454635Y0078980D01*
X0454966Y0079778D02*
X0455961Y0079778D01*
X0455961Y0080577D02*
X0454986Y0080577D01*
X0454804Y0081375D02*
X0456164Y0081375D01*
X0456650Y0082174D02*
X0454348Y0082174D01*
X0445811Y0074189D02*
X0372198Y0074189D01*
X0371290Y0073390D02*
X0387431Y0073390D01*
X0390366Y0073390D02*
X0445811Y0073390D01*
X0446033Y0072592D02*
X0391230Y0072592D01*
X0391579Y0071793D02*
X0446545Y0071793D01*
X0447800Y0070995D02*
X0391686Y0070995D01*
X0391591Y0070196D02*
X0515026Y0070196D01*
X0515026Y0069398D02*
X0391257Y0069398D01*
X0391273Y0068599D02*
X0515026Y0068599D01*
X0515026Y0067801D02*
X0391626Y0067801D01*
X0391736Y0067002D02*
X0515026Y0067002D01*
X0515026Y0066204D02*
X0391644Y0066204D01*
X0391313Y0065405D02*
X0515026Y0065405D01*
X0515026Y0064607D02*
X0390500Y0064607D01*
X0387397Y0064607D02*
X0374586Y0064607D01*
X0374495Y0065405D02*
X0386585Y0065405D01*
X0386254Y0066204D02*
X0374164Y0066204D01*
X0374475Y0063808D02*
X0413130Y0063808D01*
X0412187Y0063010D02*
X0374119Y0063010D01*
X0373240Y0062211D02*
X0411617Y0062211D01*
X0411156Y0059017D02*
X0308601Y0059017D01*
X0308303Y0058894D02*
X0309328Y0059318D01*
X0310112Y0060102D01*
X0310536Y0061127D01*
X0310536Y0062236D01*
X0310112Y0063260D01*
X0309328Y0064044D01*
X0308303Y0064468D01*
X0307194Y0064468D01*
X0306170Y0064044D01*
X0305386Y0063260D01*
X0304961Y0062236D01*
X0304961Y0061127D01*
X0305386Y0060102D01*
X0306170Y0059318D01*
X0307194Y0058894D01*
X0308303Y0058894D01*
X0306896Y0059017D02*
X0287963Y0059017D01*
X0288328Y0059168D02*
X0289112Y0059952D01*
X0289536Y0060977D01*
X0289536Y0062086D01*
X0289112Y0063110D01*
X0288328Y0063894D01*
X0287303Y0064318D01*
X0286194Y0064318D01*
X0285170Y0063894D01*
X0284386Y0063110D01*
X0283961Y0062086D01*
X0283961Y0060977D01*
X0284386Y0059952D01*
X0285170Y0059168D01*
X0286194Y0058744D01*
X0287303Y0058744D01*
X0288328Y0059168D01*
X0288975Y0059816D02*
X0305672Y0059816D01*
X0305174Y0060614D02*
X0289386Y0060614D01*
X0289536Y0061413D02*
X0304961Y0061413D01*
X0304961Y0062211D02*
X0289484Y0062211D01*
X0289153Y0063010D02*
X0305282Y0063010D01*
X0305934Y0063808D02*
X0288414Y0063808D01*
X0285084Y0063808D02*
X0221214Y0063808D01*
X0221562Y0063460D02*
X0220778Y0064244D01*
X0219753Y0064668D01*
X0218644Y0064668D01*
X0217620Y0064244D01*
X0216836Y0063460D01*
X0216411Y0062436D01*
X0216411Y0061327D01*
X0216836Y0060302D01*
X0217620Y0059518D01*
X0218644Y0059094D01*
X0219753Y0059094D01*
X0220778Y0059518D01*
X0221562Y0060302D01*
X0221986Y0061327D01*
X0221986Y0062436D01*
X0221562Y0063460D01*
X0221748Y0063010D02*
X0284344Y0063010D01*
X0284013Y0062211D02*
X0221986Y0062211D01*
X0221986Y0061413D02*
X0283961Y0061413D01*
X0284112Y0060614D02*
X0221691Y0060614D01*
X0221075Y0059816D02*
X0284522Y0059816D01*
X0285534Y0059017D02*
X0201999Y0059017D01*
X0201999Y0058219D02*
X0379879Y0058219D01*
X0379820Y0058194D02*
X0379036Y0057410D01*
X0378611Y0056386D01*
X0378611Y0055277D01*
X0379036Y0054252D01*
X0379820Y0053468D01*
X0380844Y0053044D01*
X0381953Y0053044D01*
X0382978Y0053468D01*
X0383762Y0054252D01*
X0384186Y0055277D01*
X0384186Y0056386D01*
X0383762Y0057410D01*
X0382978Y0058194D01*
X0381953Y0058618D01*
X0380844Y0058618D01*
X0379820Y0058194D01*
X0379046Y0057420D02*
X0201999Y0057420D01*
X0201999Y0056622D02*
X0378709Y0056622D01*
X0378611Y0055823D02*
X0367599Y0055823D01*
X0367328Y0056094D02*
X0366303Y0056518D01*
X0365194Y0056518D01*
X0364170Y0056094D01*
X0363386Y0055310D01*
X0362961Y0054286D01*
X0362961Y0053177D01*
X0363386Y0052152D01*
X0364170Y0051368D01*
X0365194Y0050944D01*
X0366303Y0050944D01*
X0367328Y0051368D01*
X0368112Y0052152D01*
X0368536Y0053177D01*
X0368536Y0054286D01*
X0368112Y0055310D01*
X0367328Y0056094D01*
X0368230Y0055025D02*
X0378716Y0055025D01*
X0379062Y0054226D02*
X0368536Y0054226D01*
X0368536Y0053428D02*
X0379918Y0053428D01*
X0382880Y0053428D02*
X0420561Y0053428D01*
X0420623Y0052629D02*
X0368309Y0052629D01*
X0367790Y0051830D02*
X0420953Y0051830D01*
X0421706Y0051032D02*
X0366516Y0051032D01*
X0364981Y0051032D02*
X0201999Y0051032D01*
X0201999Y0051830D02*
X0363707Y0051830D01*
X0363188Y0052629D02*
X0201999Y0052629D01*
X0201999Y0053428D02*
X0362961Y0053428D01*
X0362961Y0054226D02*
X0201999Y0054226D01*
X0201999Y0055025D02*
X0363268Y0055025D01*
X0363899Y0055823D02*
X0201999Y0055823D01*
X0201999Y0059816D02*
X0217322Y0059816D01*
X0216707Y0060614D02*
X0201999Y0060614D01*
X0201999Y0061413D02*
X0216411Y0061413D01*
X0216411Y0062211D02*
X0201999Y0062211D01*
X0201999Y0063010D02*
X0216649Y0063010D01*
X0217184Y0063808D02*
X0201999Y0063808D01*
X0201999Y0064607D02*
X0218495Y0064607D01*
X0219903Y0064607D02*
X0319911Y0064607D01*
X0319981Y0063808D02*
X0309564Y0063808D01*
X0310216Y0063010D02*
X0320312Y0063010D01*
X0321077Y0062211D02*
X0310536Y0062211D01*
X0310536Y0061413D02*
X0342511Y0061413D01*
X0342511Y0062211D02*
X0324321Y0062211D01*
X0325086Y0063010D02*
X0342770Y0063010D01*
X0343334Y0063808D02*
X0325416Y0063808D01*
X0321381Y0067002D02*
X0201999Y0067002D01*
X0201999Y0066204D02*
X0320429Y0066204D01*
X0320044Y0065405D02*
X0201999Y0065405D01*
X0217187Y0042248D02*
X0223766Y0042248D01*
X0222590Y0041450D02*
X0218357Y0041450D01*
X0219015Y0040651D02*
X0221886Y0040651D01*
X0221555Y0039853D02*
X0219387Y0039853D01*
X0219584Y0039054D02*
X0221320Y0039054D01*
X0223007Y0031868D02*
X0217849Y0031868D01*
X0218711Y0031069D02*
X0222209Y0031069D01*
X0221728Y0030271D02*
X0219212Y0030271D01*
X0219511Y0029472D02*
X0221397Y0029472D01*
X0211435Y0029472D02*
X0196273Y0029472D01*
X0244299Y0073390D02*
X0270498Y0073390D01*
X0269867Y0074189D02*
X0245348Y0074189D01*
X0245775Y0074987D02*
X0269561Y0074987D01*
X0269561Y0075786D02*
X0245936Y0075786D01*
X0245895Y0076584D02*
X0269789Y0076584D01*
X0270309Y0077383D02*
X0245565Y0077383D01*
X0255374Y0082174D02*
X0256149Y0082174D01*
X0256149Y0081426D02*
X0256801Y0081556D01*
X0257449Y0081824D01*
X0258033Y0082214D01*
X0258529Y0082710D01*
X0258919Y0083294D01*
X0259187Y0083942D01*
X0259317Y0084594D01*
X0256149Y0084594D01*
X0256149Y0081426D01*
X0256149Y0082972D02*
X0255374Y0082972D01*
X0256149Y0085368D02*
X0260074Y0085368D01*
X0259317Y0085369D02*
X0259187Y0086020D01*
X0258919Y0086668D01*
X0258529Y0087252D01*
X0258033Y0087748D01*
X0257449Y0088138D01*
X0256801Y0088406D01*
X0256149Y0088536D01*
X0256149Y0085369D01*
X0259317Y0085369D01*
X0259312Y0084569D02*
X0260074Y0084569D01*
X0260281Y0083771D02*
X0259116Y0083771D01*
X0258704Y0082972D02*
X0260612Y0082972D01*
X0261405Y0082174D02*
X0257972Y0082174D01*
X0259127Y0086166D02*
X0260271Y0086166D01*
X0260602Y0086965D02*
X0258720Y0086965D01*
X0258009Y0087763D02*
X0261381Y0087763D01*
X0256149Y0087763D02*
X0255374Y0087763D01*
X0255374Y0086965D02*
X0256149Y0086965D01*
X0256149Y0086166D02*
X0255374Y0086166D01*
X0265866Y0082174D02*
X0289811Y0082174D01*
X0289811Y0082972D02*
X0266659Y0082972D01*
X0283961Y0091756D02*
X0244386Y0091756D01*
X0244386Y0092555D02*
X0283961Y0092555D01*
X0284217Y0093353D02*
X0244130Y0093353D01*
X0243570Y0094152D02*
X0284777Y0094152D01*
X0321485Y0102137D02*
X0336111Y0102137D01*
X0336111Y0101338D02*
X0322095Y0101338D01*
X0322386Y0100540D02*
X0336396Y0100540D01*
X0336997Y0099741D02*
X0322386Y0099741D01*
X0366311Y0132577D02*
X0367095Y0131793D01*
X0368119Y0131369D01*
X0369228Y0131369D01*
X0370253Y0131793D01*
X0371037Y0132577D01*
X0371461Y0133602D01*
X0371461Y0134711D01*
X0371037Y0135735D01*
X0370253Y0136519D01*
X0369228Y0136943D01*
X0368119Y0136943D01*
X0367095Y0136519D01*
X0366311Y0135735D01*
X0365886Y0134711D01*
X0365886Y0133602D01*
X0366311Y0132577D01*
X0366408Y0132480D02*
X0228973Y0132480D01*
X0229049Y0131682D02*
X0367364Y0131682D01*
X0366020Y0133279D02*
X0228642Y0133279D01*
X0228044Y0134077D02*
X0365886Y0134077D01*
X0365955Y0134876D02*
X0226902Y0134876D01*
X0229049Y0130883D02*
X0396238Y0130883D01*
X0396436Y0131360D02*
X0396011Y0130336D01*
X0396011Y0129227D01*
X0396436Y0128202D01*
X0397220Y0127418D01*
X0398244Y0126994D01*
X0399353Y0126994D01*
X0400378Y0127418D01*
X0401162Y0128202D01*
X0401586Y0129227D01*
X0401586Y0130336D01*
X0401162Y0131360D01*
X0400378Y0132144D01*
X0399353Y0132568D01*
X0398244Y0132568D01*
X0397220Y0132144D01*
X0396436Y0131360D01*
X0396757Y0131682D02*
X0369984Y0131682D01*
X0370940Y0132480D02*
X0398031Y0132480D01*
X0399567Y0132480D02*
X0497601Y0132480D01*
X0497561Y0132386D02*
X0497561Y0131277D01*
X0497986Y0130252D01*
X0498770Y0129468D01*
X0499794Y0129044D01*
X0500903Y0129044D01*
X0501928Y0129468D01*
X0502712Y0130252D01*
X0503136Y0131277D01*
X0503136Y0132386D01*
X0502712Y0133410D01*
X0501928Y0134194D01*
X0500903Y0134618D01*
X0499794Y0134618D01*
X0498770Y0134194D01*
X0497986Y0133410D01*
X0497561Y0132386D01*
X0497561Y0131682D02*
X0400840Y0131682D01*
X0401359Y0130883D02*
X0497724Y0130883D01*
X0498153Y0130085D02*
X0401586Y0130085D01*
X0401586Y0129286D02*
X0499209Y0129286D01*
X0501488Y0129286D02*
X0515026Y0129286D01*
X0515026Y0128488D02*
X0401280Y0128488D01*
X0400649Y0127689D02*
X0515026Y0127689D01*
X0515026Y0126891D02*
X0241999Y0126891D01*
X0241999Y0127689D02*
X0396949Y0127689D01*
X0396318Y0128488D02*
X0241692Y0128488D01*
X0240894Y0129286D02*
X0396011Y0129286D01*
X0396011Y0130085D02*
X0229049Y0130085D01*
X0241999Y0126092D02*
X0515026Y0126092D01*
X0515026Y0125294D02*
X0485284Y0125294D01*
X0485103Y0125368D02*
X0483994Y0125368D01*
X0482970Y0124944D01*
X0482186Y0124160D01*
X0481761Y0123136D01*
X0481761Y0122027D01*
X0482186Y0121002D01*
X0482970Y0120218D01*
X0483994Y0119794D01*
X0485103Y0119794D01*
X0486128Y0120218D01*
X0486912Y0121002D01*
X0487336Y0122027D01*
X0487336Y0123136D01*
X0486912Y0124160D01*
X0486128Y0124944D01*
X0485103Y0125368D01*
X0483813Y0125294D02*
X0241999Y0125294D01*
X0241999Y0124495D02*
X0482521Y0124495D01*
X0481994Y0123697D02*
X0241999Y0123697D01*
X0241999Y0122898D02*
X0481761Y0122898D01*
X0481761Y0122099D02*
X0440072Y0122099D01*
X0440836Y0121301D02*
X0482062Y0121301D01*
X0482685Y0120502D02*
X0441167Y0120502D01*
X0441236Y0119704D02*
X0506311Y0119704D01*
X0506320Y0118905D02*
X0441103Y0118905D01*
X0440717Y0118107D02*
X0495551Y0118107D01*
X0494735Y0117308D02*
X0440763Y0117308D01*
X0441093Y0116510D02*
X0494404Y0116510D01*
X0498647Y0118107D02*
X0506651Y0118107D01*
X0507330Y0117308D02*
X0499463Y0117308D01*
X0499793Y0116510D02*
X0506958Y0116510D01*
X0506761Y0115711D02*
X0499886Y0115711D01*
X0499777Y0114913D02*
X0506767Y0114913D01*
X0512075Y0114114D02*
X0515026Y0114114D01*
X0515026Y0113316D02*
X0513256Y0113316D01*
X0513737Y0112517D02*
X0515026Y0112517D01*
X0515026Y0111719D02*
X0513936Y0111719D01*
X0513934Y0110920D02*
X0515026Y0110920D01*
X0515026Y0110122D02*
X0513603Y0110122D01*
X0512330Y0114913D02*
X0515026Y0114913D01*
X0515026Y0115711D02*
X0512336Y0115711D01*
X0512140Y0116510D02*
X0515026Y0116510D01*
X0515026Y0117308D02*
X0511663Y0117308D01*
X0511547Y0118107D02*
X0515026Y0118107D01*
X0515026Y0118905D02*
X0511877Y0118905D01*
X0511886Y0119704D02*
X0515026Y0119704D01*
X0515026Y0120502D02*
X0511693Y0120502D01*
X0511221Y0121301D02*
X0515026Y0121301D01*
X0515026Y0122099D02*
X0510061Y0122099D01*
X0508136Y0122099D02*
X0487336Y0122099D01*
X0487336Y0122898D02*
X0515026Y0122898D01*
X0515026Y0123697D02*
X0487104Y0123697D01*
X0486577Y0124495D02*
X0515026Y0124495D01*
X0515026Y0130085D02*
X0502544Y0130085D01*
X0502973Y0130883D02*
X0515026Y0130883D01*
X0515026Y0131682D02*
X0503136Y0131682D01*
X0503097Y0132480D02*
X0515026Y0132480D01*
X0515026Y0133279D02*
X0502766Y0133279D01*
X0502045Y0134077D02*
X0509261Y0134077D01*
X0509570Y0133768D02*
X0510594Y0133344D01*
X0511703Y0133344D01*
X0512728Y0133768D01*
X0513512Y0134552D01*
X0513936Y0135577D01*
X0513936Y0136686D01*
X0513512Y0137710D01*
X0512728Y0138494D01*
X0511703Y0138918D01*
X0510594Y0138918D01*
X0509570Y0138494D01*
X0508786Y0137710D01*
X0508361Y0136686D01*
X0508361Y0135577D01*
X0508786Y0134552D01*
X0509570Y0133768D01*
X0508652Y0134876D02*
X0371393Y0134876D01*
X0371461Y0134077D02*
X0498653Y0134077D01*
X0497931Y0133279D02*
X0371327Y0133279D01*
X0371062Y0135674D02*
X0508361Y0135674D01*
X0508361Y0136473D02*
X0370299Y0136473D01*
X0367048Y0136473D02*
X0201999Y0136473D01*
X0201999Y0137271D02*
X0508604Y0137271D01*
X0509145Y0138070D02*
X0201999Y0138070D01*
X0201999Y0138868D02*
X0510473Y0138868D01*
X0511825Y0138868D02*
X0515026Y0138868D01*
X0515026Y0138070D02*
X0513152Y0138070D01*
X0513694Y0137271D02*
X0515026Y0137271D01*
X0515026Y0136473D02*
X0513936Y0136473D01*
X0513936Y0135674D02*
X0515026Y0135674D01*
X0515026Y0134876D02*
X0513646Y0134876D01*
X0513037Y0134077D02*
X0515026Y0134077D01*
X0515026Y0139667D02*
X0380971Y0139667D01*
X0380553Y0139494D02*
X0381578Y0139918D01*
X0382362Y0140702D01*
X0382786Y0141727D01*
X0382786Y0142836D01*
X0382362Y0143860D01*
X0381578Y0144644D01*
X0380553Y0145068D01*
X0379444Y0145068D01*
X0378420Y0144644D01*
X0377636Y0143860D01*
X0377211Y0142836D01*
X0377211Y0141727D01*
X0377636Y0140702D01*
X0378420Y0139918D01*
X0379444Y0139494D01*
X0380553Y0139494D01*
X0379027Y0139667D02*
X0342576Y0139667D01*
X0342278Y0139368D02*
X0343062Y0140152D01*
X0343486Y0141177D01*
X0343486Y0142286D01*
X0343062Y0143310D01*
X0342278Y0144094D01*
X0341253Y0144518D01*
X0340388Y0144518D01*
X0340536Y0144877D01*
X0340536Y0145986D01*
X0340112Y0147010D01*
X0339328Y0147794D01*
X0338303Y0148218D01*
X0337194Y0148218D01*
X0336170Y0147794D01*
X0335386Y0147010D01*
X0334961Y0145986D01*
X0334961Y0144877D01*
X0335386Y0143852D01*
X0336170Y0143068D01*
X0337194Y0142644D01*
X0338060Y0142644D01*
X0337911Y0142286D01*
X0337911Y0141177D01*
X0338336Y0140152D01*
X0339120Y0139368D01*
X0340144Y0138944D01*
X0341253Y0138944D01*
X0342278Y0139368D01*
X0343192Y0140465D02*
X0377873Y0140465D01*
X0377403Y0141264D02*
X0343486Y0141264D01*
X0343486Y0142062D02*
X0377211Y0142062D01*
X0377222Y0142861D02*
X0343248Y0142861D01*
X0342713Y0143659D02*
X0377553Y0143659D01*
X0378234Y0144458D02*
X0341400Y0144458D01*
X0340536Y0145256D02*
X0465994Y0145256D01*
X0465861Y0145577D02*
X0466286Y0144552D01*
X0467070Y0143768D01*
X0468094Y0143344D01*
X0469203Y0143344D01*
X0470228Y0143768D01*
X0471012Y0144552D01*
X0471066Y0144683D01*
X0471286Y0144152D01*
X0472070Y0143368D01*
X0473094Y0142944D01*
X0474203Y0142944D01*
X0475228Y0143368D01*
X0476012Y0144152D01*
X0476436Y0145177D01*
X0476436Y0146286D01*
X0476012Y0147310D01*
X0475228Y0148094D01*
X0474203Y0148518D01*
X0473094Y0148518D01*
X0472070Y0148094D01*
X0471286Y0147310D01*
X0471232Y0147179D01*
X0471012Y0147710D01*
X0470228Y0148494D01*
X0469203Y0148918D01*
X0468094Y0148918D01*
X0467070Y0148494D01*
X0466286Y0147710D01*
X0465861Y0146686D01*
X0465861Y0145577D01*
X0465861Y0146055D02*
X0403230Y0146055D01*
X0403203Y0146044D02*
X0404228Y0146468D01*
X0405012Y0147252D01*
X0405436Y0148277D01*
X0405436Y0149386D01*
X0405012Y0150410D01*
X0404228Y0151194D01*
X0403203Y0151618D01*
X0402094Y0151618D01*
X0401070Y0151194D01*
X0400286Y0150410D01*
X0399861Y0149386D01*
X0399861Y0148277D01*
X0400286Y0147252D01*
X0401070Y0146468D01*
X0402094Y0146044D01*
X0403203Y0146044D01*
X0402068Y0146055D02*
X0340508Y0146055D01*
X0340177Y0146853D02*
X0362409Y0146853D01*
X0362794Y0146694D02*
X0363903Y0146694D01*
X0364928Y0147118D01*
X0365712Y0147902D01*
X0366136Y0148927D01*
X0366136Y0150036D01*
X0365712Y0151060D01*
X0364928Y0151844D01*
X0363903Y0152268D01*
X0362794Y0152268D01*
X0361770Y0151844D01*
X0360986Y0151060D01*
X0360561Y0150036D01*
X0360561Y0148927D01*
X0360986Y0147902D01*
X0361770Y0147118D01*
X0362794Y0146694D01*
X0364289Y0146853D02*
X0400685Y0146853D01*
X0400120Y0147652D02*
X0365462Y0147652D01*
X0365939Y0148450D02*
X0399861Y0148450D01*
X0399861Y0149249D02*
X0366136Y0149249D01*
X0366131Y0150047D02*
X0400136Y0150047D01*
X0400722Y0150846D02*
X0365801Y0150846D01*
X0365127Y0151644D02*
X0488022Y0151644D01*
X0488144Y0151594D02*
X0489253Y0151594D01*
X0490278Y0152018D01*
X0491062Y0152802D01*
X0491486Y0153827D01*
X0491486Y0154936D01*
X0491062Y0155960D01*
X0490278Y0156744D01*
X0489253Y0157168D01*
X0488144Y0157168D01*
X0487120Y0156744D01*
X0486336Y0155960D01*
X0485911Y0154936D01*
X0485911Y0153827D01*
X0486336Y0152802D01*
X0487120Y0152018D01*
X0488144Y0151594D01*
X0489376Y0151644D02*
X0515026Y0151644D01*
X0515026Y0150846D02*
X0404576Y0150846D01*
X0405162Y0150047D02*
X0515026Y0150047D01*
X0515026Y0149249D02*
X0501471Y0149249D01*
X0501303Y0149318D02*
X0500194Y0149318D01*
X0499170Y0148894D01*
X0498386Y0148110D01*
X0497961Y0147086D01*
X0497961Y0145977D01*
X0498386Y0144952D01*
X0499170Y0144168D01*
X0500194Y0143744D01*
X0501303Y0143744D01*
X0502328Y0144168D01*
X0503112Y0144952D01*
X0503536Y0145977D01*
X0503536Y0147086D01*
X0503112Y0148110D01*
X0502328Y0148894D01*
X0501303Y0149318D01*
X0500026Y0149249D02*
X0405436Y0149249D01*
X0405436Y0148450D02*
X0467026Y0148450D01*
X0466262Y0147652D02*
X0405177Y0147652D01*
X0404613Y0146853D02*
X0465931Y0146853D01*
X0466380Y0144458D02*
X0381764Y0144458D01*
X0382445Y0143659D02*
X0467332Y0143659D01*
X0469965Y0143659D02*
X0471779Y0143659D01*
X0471159Y0144458D02*
X0470917Y0144458D01*
X0471036Y0147652D02*
X0471628Y0147652D01*
X0472930Y0148450D02*
X0470272Y0148450D01*
X0474368Y0148450D02*
X0498726Y0148450D01*
X0498196Y0147652D02*
X0475670Y0147652D01*
X0476201Y0146853D02*
X0497961Y0146853D01*
X0497961Y0146055D02*
X0476436Y0146055D01*
X0476436Y0145256D02*
X0498260Y0145256D01*
X0498880Y0144458D02*
X0476138Y0144458D01*
X0475519Y0143659D02*
X0515026Y0143659D01*
X0515026Y0142861D02*
X0382776Y0142861D01*
X0382786Y0142062D02*
X0515026Y0142062D01*
X0515026Y0141264D02*
X0382594Y0141264D01*
X0382125Y0140465D02*
X0515026Y0140465D01*
X0515026Y0144458D02*
X0502617Y0144458D01*
X0503238Y0145256D02*
X0515026Y0145256D01*
X0515026Y0146055D02*
X0503536Y0146055D01*
X0503536Y0146853D02*
X0515026Y0146853D01*
X0515026Y0147652D02*
X0503302Y0147652D01*
X0502772Y0148450D02*
X0515026Y0148450D01*
X0515026Y0152443D02*
X0490703Y0152443D01*
X0491244Y0153241D02*
X0515026Y0153241D01*
X0515026Y0154040D02*
X0491486Y0154040D01*
X0491486Y0154838D02*
X0515026Y0154838D01*
X0515026Y0155637D02*
X0491196Y0155637D01*
X0490586Y0156435D02*
X0515026Y0156435D01*
X0515026Y0157234D02*
X0302463Y0157234D01*
X0302586Y0156936D02*
X0302162Y0157960D01*
X0301378Y0158744D01*
X0300353Y0159168D01*
X0299244Y0159168D01*
X0298220Y0158744D01*
X0297436Y0157960D01*
X0297011Y0156936D01*
X0297011Y0155827D01*
X0297436Y0154802D01*
X0298220Y0154018D01*
X0299244Y0153594D01*
X0300353Y0153594D01*
X0301035Y0153876D01*
X0300811Y0153336D01*
X0300811Y0152227D01*
X0301236Y0151202D01*
X0302020Y0150418D01*
X0303044Y0149994D01*
X0304153Y0149994D01*
X0305178Y0150418D01*
X0305962Y0151202D01*
X0306386Y0152227D01*
X0306386Y0153336D01*
X0305962Y0154360D01*
X0305178Y0155144D01*
X0304153Y0155568D01*
X0303044Y0155568D01*
X0302362Y0155286D01*
X0302586Y0155827D01*
X0302586Y0156936D01*
X0302586Y0156435D02*
X0486811Y0156435D01*
X0486202Y0155637D02*
X0302508Y0155637D01*
X0302089Y0158032D02*
X0469397Y0158032D01*
X0469070Y0158168D02*
X0470094Y0157744D01*
X0471203Y0157744D01*
X0472228Y0158168D01*
X0473012Y0158952D01*
X0473436Y0159977D01*
X0473436Y0161086D01*
X0473012Y0162110D01*
X0472228Y0162894D01*
X0471203Y0163318D01*
X0470094Y0163318D01*
X0469070Y0162894D01*
X0468286Y0162110D01*
X0467861Y0161086D01*
X0467861Y0159977D01*
X0468286Y0158952D01*
X0469070Y0158168D01*
X0468407Y0158831D02*
X0453038Y0158831D01*
X0453128Y0158868D02*
X0453912Y0159652D01*
X0454336Y0160677D01*
X0454336Y0161786D01*
X0453912Y0162810D01*
X0453128Y0163594D01*
X0452103Y0164018D01*
X0450994Y0164018D01*
X0449970Y0163594D01*
X0449186Y0162810D01*
X0448761Y0161786D01*
X0448761Y0160677D01*
X0449186Y0159652D01*
X0449970Y0158868D01*
X0450994Y0158444D01*
X0452103Y0158444D01*
X0453128Y0158868D01*
X0453889Y0159630D02*
X0468005Y0159630D01*
X0467861Y0160428D02*
X0454233Y0160428D01*
X0454336Y0161227D02*
X0467920Y0161227D01*
X0468251Y0162025D02*
X0461762Y0162025D01*
X0462228Y0162218D02*
X0463012Y0163002D01*
X0463436Y0164027D01*
X0463436Y0165136D01*
X0463012Y0166160D01*
X0462228Y0166944D01*
X0461203Y0167368D01*
X0460094Y0167368D01*
X0459070Y0166944D01*
X0458286Y0166160D01*
X0457861Y0165136D01*
X0457861Y0164027D01*
X0458286Y0163002D01*
X0459070Y0162218D01*
X0460094Y0161794D01*
X0461203Y0161794D01*
X0462228Y0162218D01*
X0462833Y0162824D02*
X0468999Y0162824D01*
X0472298Y0162824D02*
X0479411Y0162824D01*
X0479411Y0163286D02*
X0479411Y0162177D01*
X0479836Y0161152D01*
X0480620Y0160368D01*
X0481644Y0159944D01*
X0482753Y0159944D01*
X0483778Y0160368D01*
X0484562Y0161152D01*
X0484986Y0162177D01*
X0484986Y0163286D01*
X0484562Y0164310D01*
X0483778Y0165094D01*
X0482753Y0165518D01*
X0481644Y0165518D01*
X0480620Y0165094D01*
X0479836Y0164310D01*
X0479411Y0163286D01*
X0479551Y0163622D02*
X0463269Y0163622D01*
X0463436Y0164421D02*
X0479946Y0164421D01*
X0480922Y0165219D02*
X0463402Y0165219D01*
X0463071Y0166018D02*
X0515026Y0166018D01*
X0515026Y0166816D02*
X0462356Y0166816D01*
X0458942Y0166816D02*
X0373536Y0166816D01*
X0373536Y0167336D02*
X0373112Y0168360D01*
X0372328Y0169144D01*
X0371303Y0169568D01*
X0370194Y0169568D01*
X0369170Y0169144D01*
X0368386Y0168360D01*
X0367961Y0167336D01*
X0367961Y0166227D01*
X0368386Y0165202D01*
X0369170Y0164418D01*
X0370194Y0163994D01*
X0371303Y0163994D01*
X0372328Y0164418D01*
X0373112Y0165202D01*
X0373536Y0166227D01*
X0373536Y0167336D01*
X0373421Y0167615D02*
X0515026Y0167615D01*
X0515026Y0168413D02*
X0373059Y0168413D01*
X0372165Y0169212D02*
X0515026Y0169212D01*
X0515026Y0170010D02*
X0354568Y0170010D01*
X0354728Y0169944D02*
X0353703Y0170368D01*
X0352594Y0170368D01*
X0351570Y0169944D01*
X0350786Y0169160D01*
X0350361Y0168136D01*
X0350361Y0167027D01*
X0350786Y0166002D01*
X0351570Y0165218D01*
X0352594Y0164794D01*
X0353703Y0164794D01*
X0354728Y0165218D01*
X0355512Y0166002D01*
X0355936Y0167027D01*
X0355936Y0168136D01*
X0355512Y0169160D01*
X0354728Y0169944D01*
X0355460Y0169212D02*
X0369333Y0169212D01*
X0368439Y0168413D02*
X0355821Y0168413D01*
X0355936Y0167615D02*
X0368077Y0167615D01*
X0367961Y0166816D02*
X0355849Y0166816D01*
X0355518Y0166018D02*
X0368048Y0166018D01*
X0368379Y0165219D02*
X0354729Y0165219D01*
X0351569Y0165219D02*
X0336936Y0165219D01*
X0336936Y0164877D02*
X0336512Y0163852D01*
X0335728Y0163068D01*
X0334703Y0162644D01*
X0333594Y0162644D01*
X0332570Y0163068D01*
X0331786Y0163852D01*
X0331361Y0164877D01*
X0331361Y0165986D01*
X0331786Y0167010D01*
X0332570Y0167794D01*
X0333594Y0168218D01*
X0334703Y0168218D01*
X0335728Y0167794D01*
X0336512Y0167010D01*
X0336936Y0165986D01*
X0336936Y0164877D01*
X0336747Y0164421D02*
X0369167Y0164421D01*
X0372330Y0164421D02*
X0457861Y0164421D01*
X0457896Y0165219D02*
X0373119Y0165219D01*
X0373450Y0166018D02*
X0458227Y0166018D01*
X0458029Y0163622D02*
X0453060Y0163622D01*
X0453898Y0162824D02*
X0458464Y0162824D01*
X0459536Y0162025D02*
X0454237Y0162025D01*
X0450037Y0163622D02*
X0336282Y0163622D01*
X0335137Y0162824D02*
X0449199Y0162824D01*
X0448861Y0162025D02*
X0277454Y0162025D01*
X0277636Y0161586D02*
X0277212Y0162610D01*
X0276428Y0163394D01*
X0275403Y0163818D01*
X0274294Y0163818D01*
X0273270Y0163394D01*
X0272486Y0162610D01*
X0272061Y0161586D01*
X0272061Y0160477D01*
X0272486Y0159452D01*
X0273270Y0158668D01*
X0274294Y0158244D01*
X0275403Y0158244D01*
X0276428Y0158668D01*
X0277212Y0159452D01*
X0277636Y0160477D01*
X0277636Y0161586D01*
X0277636Y0161227D02*
X0448761Y0161227D01*
X0448864Y0160428D02*
X0277616Y0160428D01*
X0277285Y0159630D02*
X0449208Y0159630D01*
X0450059Y0158831D02*
X0301168Y0158831D01*
X0298430Y0158831D02*
X0276591Y0158831D01*
X0273107Y0158831D02*
X0201999Y0158831D01*
X0201999Y0159630D02*
X0272412Y0159630D01*
X0272082Y0160428D02*
X0225788Y0160428D01*
X0225628Y0160268D02*
X0226412Y0161052D01*
X0226836Y0162077D01*
X0226836Y0163186D01*
X0226412Y0164210D01*
X0225628Y0164994D01*
X0224603Y0165418D01*
X0223494Y0165418D01*
X0222470Y0164994D01*
X0221686Y0164210D01*
X0221261Y0163186D01*
X0221261Y0162077D01*
X0221686Y0161052D01*
X0222470Y0160268D01*
X0223494Y0159844D01*
X0224603Y0159844D01*
X0225628Y0160268D01*
X0226484Y0161227D02*
X0272061Y0161227D01*
X0272243Y0162025D02*
X0226815Y0162025D01*
X0226836Y0162824D02*
X0252764Y0162824D01*
X0252870Y0162718D02*
X0253894Y0162294D01*
X0255003Y0162294D01*
X0256028Y0162718D01*
X0256812Y0163502D01*
X0257236Y0164527D01*
X0257236Y0165636D01*
X0256812Y0166660D01*
X0256028Y0167444D01*
X0255003Y0167868D01*
X0253894Y0167868D01*
X0252870Y0167444D01*
X0252086Y0166660D01*
X0251661Y0165636D01*
X0251661Y0164527D01*
X0252086Y0163502D01*
X0252870Y0162718D01*
X0252036Y0163622D02*
X0249432Y0163622D01*
X0249378Y0163568D02*
X0250162Y0164352D01*
X0250586Y0165377D01*
X0250586Y0166486D01*
X0250162Y0167510D01*
X0249378Y0168294D01*
X0248353Y0168718D01*
X0247244Y0168718D01*
X0246220Y0168294D01*
X0245436Y0167510D01*
X0245011Y0166486D01*
X0245011Y0165377D01*
X0245436Y0164352D01*
X0246220Y0163568D01*
X0247244Y0163144D01*
X0248353Y0163144D01*
X0249378Y0163568D01*
X0250190Y0164421D02*
X0251705Y0164421D01*
X0251661Y0165219D02*
X0250521Y0165219D01*
X0250586Y0166018D02*
X0251820Y0166018D01*
X0252242Y0166816D02*
X0250449Y0166816D01*
X0250057Y0167615D02*
X0253281Y0167615D01*
X0255616Y0167615D02*
X0317706Y0167615D01*
X0317611Y0167386D02*
X0317611Y0166277D01*
X0318036Y0165252D01*
X0318820Y0164468D01*
X0319844Y0164044D01*
X0320953Y0164044D01*
X0321978Y0164468D01*
X0322762Y0165252D01*
X0323186Y0166277D01*
X0323186Y0167386D01*
X0322762Y0168410D01*
X0321978Y0169194D01*
X0320953Y0169618D01*
X0319844Y0169618D01*
X0318820Y0169194D01*
X0318036Y0168410D01*
X0317611Y0167386D01*
X0317611Y0166816D02*
X0256656Y0166816D01*
X0257078Y0166018D02*
X0317719Y0166018D01*
X0318069Y0165219D02*
X0257236Y0165219D01*
X0257192Y0164421D02*
X0318934Y0164421D01*
X0321863Y0164421D02*
X0331550Y0164421D01*
X0331361Y0165219D02*
X0322729Y0165219D01*
X0323079Y0166018D02*
X0331375Y0166018D01*
X0331705Y0166816D02*
X0323186Y0166816D01*
X0323091Y0167615D02*
X0332390Y0167615D01*
X0335907Y0167615D02*
X0350361Y0167615D01*
X0350449Y0166816D02*
X0336592Y0166816D01*
X0336923Y0166018D02*
X0350779Y0166018D01*
X0350476Y0168413D02*
X0322759Y0168413D01*
X0321935Y0169212D02*
X0344377Y0169212D01*
X0344120Y0169318D02*
X0345144Y0168894D01*
X0346253Y0168894D01*
X0347278Y0169318D01*
X0348062Y0170102D01*
X0348486Y0171127D01*
X0348486Y0172236D01*
X0348062Y0173260D01*
X0347278Y0174044D01*
X0346253Y0174468D01*
X0345144Y0174468D01*
X0344120Y0174044D01*
X0343336Y0173260D01*
X0342911Y0172236D01*
X0342911Y0171127D01*
X0343336Y0170102D01*
X0344120Y0169318D01*
X0343428Y0170010D02*
X0310020Y0170010D01*
X0310112Y0170102D02*
X0310536Y0171127D01*
X0310536Y0172236D01*
X0310112Y0173260D01*
X0309328Y0174044D01*
X0308303Y0174468D01*
X0307194Y0174468D01*
X0306170Y0174044D01*
X0305386Y0173260D01*
X0304961Y0172236D01*
X0304961Y0171127D01*
X0305386Y0170102D01*
X0306170Y0169318D01*
X0307194Y0168894D01*
X0308303Y0168894D01*
X0309328Y0169318D01*
X0310112Y0170102D01*
X0310404Y0170809D02*
X0343043Y0170809D01*
X0342911Y0171607D02*
X0310536Y0171607D01*
X0310466Y0172406D02*
X0342982Y0172406D01*
X0343313Y0173204D02*
X0310135Y0173204D01*
X0309369Y0174003D02*
X0337052Y0174003D01*
X0337194Y0173944D02*
X0338303Y0173944D01*
X0339328Y0174368D01*
X0340112Y0175152D01*
X0340536Y0176177D01*
X0340536Y0177286D01*
X0340112Y0178310D01*
X0339328Y0179094D01*
X0338303Y0179518D01*
X0337194Y0179518D01*
X0336170Y0179094D01*
X0335386Y0178310D01*
X0334961Y0177286D01*
X0334961Y0176177D01*
X0335386Y0175152D01*
X0336170Y0174368D01*
X0337194Y0173944D01*
X0338446Y0174003D02*
X0344078Y0174003D01*
X0347319Y0174003D02*
X0363361Y0174003D01*
X0363361Y0174336D02*
X0363361Y0173227D01*
X0363786Y0172202D01*
X0364570Y0171418D01*
X0365594Y0170994D01*
X0366703Y0170994D01*
X0367728Y0171418D01*
X0368512Y0172202D01*
X0368936Y0173227D01*
X0368936Y0174336D01*
X0368512Y0175360D01*
X0367728Y0176144D01*
X0366703Y0176568D01*
X0365594Y0176568D01*
X0364570Y0176144D01*
X0363786Y0175360D01*
X0363361Y0174336D01*
X0363554Y0174801D02*
X0339761Y0174801D01*
X0340297Y0175600D02*
X0364025Y0175600D01*
X0365183Y0176398D02*
X0340536Y0176398D01*
X0340536Y0177197D02*
X0355441Y0177197D01*
X0355520Y0177118D02*
X0356544Y0176694D01*
X0357653Y0176694D01*
X0358678Y0177118D01*
X0359462Y0177902D01*
X0359886Y0178927D01*
X0359886Y0180036D01*
X0359462Y0181060D01*
X0358678Y0181844D01*
X0357653Y0182268D01*
X0356544Y0182268D01*
X0355520Y0181844D01*
X0354736Y0181060D01*
X0354311Y0180036D01*
X0354311Y0178927D01*
X0354736Y0177902D01*
X0355520Y0177118D01*
X0354697Y0177995D02*
X0340242Y0177995D01*
X0339628Y0178794D02*
X0354366Y0178794D01*
X0354311Y0179592D02*
X0287614Y0179592D01*
X0287462Y0179960D02*
X0286678Y0180744D01*
X0285653Y0181168D01*
X0284544Y0181168D01*
X0283520Y0180744D01*
X0283499Y0180723D01*
X0283478Y0180744D01*
X0282453Y0181168D01*
X0281344Y0181168D01*
X0280320Y0180744D01*
X0279536Y0179960D01*
X0279111Y0178936D01*
X0279111Y0177827D01*
X0279536Y0176802D01*
X0280320Y0176018D01*
X0281344Y0175594D01*
X0282453Y0175594D01*
X0283478Y0176018D01*
X0283499Y0176039D01*
X0283520Y0176018D01*
X0284544Y0175594D01*
X0285653Y0175594D01*
X0286678Y0176018D01*
X0287462Y0176802D01*
X0287886Y0177827D01*
X0287886Y0178936D01*
X0287462Y0179960D01*
X0287031Y0180391D02*
X0354459Y0180391D01*
X0354865Y0181189D02*
X0201999Y0181189D01*
X0201999Y0180391D02*
X0279967Y0180391D01*
X0279383Y0179592D02*
X0201999Y0179592D01*
X0201999Y0178794D02*
X0279111Y0178794D01*
X0279111Y0177995D02*
X0201999Y0177995D01*
X0201999Y0177197D02*
X0279372Y0177197D01*
X0279940Y0176398D02*
X0201999Y0176398D01*
X0201999Y0175600D02*
X0281330Y0175600D01*
X0282468Y0175600D02*
X0284530Y0175600D01*
X0285668Y0175600D02*
X0335200Y0175600D01*
X0334961Y0176398D02*
X0287058Y0176398D01*
X0287625Y0177197D02*
X0334961Y0177197D01*
X0335255Y0177995D02*
X0287886Y0177995D01*
X0287886Y0178794D02*
X0335870Y0178794D01*
X0335737Y0174801D02*
X0201999Y0174801D01*
X0201999Y0174003D02*
X0260228Y0174003D01*
X0260270Y0174044D02*
X0259486Y0173260D01*
X0259061Y0172236D01*
X0259061Y0171127D01*
X0259486Y0170102D01*
X0260270Y0169318D01*
X0261294Y0168894D01*
X0262403Y0168894D01*
X0263428Y0169318D01*
X0264212Y0170102D01*
X0264636Y0171127D01*
X0264636Y0172236D01*
X0264212Y0173260D01*
X0263428Y0174044D01*
X0262403Y0174468D01*
X0261294Y0174468D01*
X0260270Y0174044D01*
X0259463Y0173204D02*
X0201999Y0173204D01*
X0201999Y0172406D02*
X0259132Y0172406D01*
X0259061Y0171607D02*
X0201999Y0171607D01*
X0201999Y0170809D02*
X0259193Y0170809D01*
X0259578Y0170010D02*
X0201999Y0170010D01*
X0201999Y0169212D02*
X0260527Y0169212D01*
X0263171Y0169212D02*
X0306427Y0169212D01*
X0305478Y0170010D02*
X0264120Y0170010D01*
X0264504Y0170809D02*
X0305093Y0170809D01*
X0304961Y0171607D02*
X0264636Y0171607D01*
X0264566Y0172406D02*
X0305032Y0172406D01*
X0305363Y0173204D02*
X0264235Y0173204D01*
X0263469Y0174003D02*
X0306128Y0174003D01*
X0309071Y0169212D02*
X0318862Y0169212D01*
X0318039Y0168413D02*
X0249090Y0168413D01*
X0246507Y0168413D02*
X0201999Y0168413D01*
X0201999Y0167615D02*
X0245540Y0167615D01*
X0245148Y0166816D02*
X0201999Y0166816D01*
X0201999Y0166018D02*
X0245011Y0166018D01*
X0245077Y0165219D02*
X0225085Y0165219D01*
X0226201Y0164421D02*
X0245407Y0164421D01*
X0246166Y0163622D02*
X0226655Y0163622D01*
X0223013Y0165219D02*
X0201999Y0165219D01*
X0201999Y0164421D02*
X0221896Y0164421D01*
X0221442Y0163622D02*
X0201999Y0163622D01*
X0201999Y0162824D02*
X0221261Y0162824D01*
X0221283Y0162025D02*
X0201999Y0162025D01*
X0201999Y0161227D02*
X0221614Y0161227D01*
X0222310Y0160428D02*
X0201999Y0160428D01*
X0201999Y0158032D02*
X0297508Y0158032D01*
X0297135Y0157234D02*
X0201999Y0157234D01*
X0201999Y0156435D02*
X0297011Y0156435D01*
X0297090Y0155637D02*
X0201999Y0155637D01*
X0201999Y0154838D02*
X0297421Y0154838D01*
X0298198Y0154040D02*
X0265976Y0154040D01*
X0266328Y0153894D02*
X0265303Y0154318D01*
X0264194Y0154318D01*
X0263170Y0153894D01*
X0262386Y0153110D01*
X0261961Y0152086D01*
X0261961Y0150977D01*
X0262386Y0149952D01*
X0263170Y0149168D01*
X0264194Y0148744D01*
X0265303Y0148744D01*
X0266328Y0149168D01*
X0267112Y0149952D01*
X0267536Y0150977D01*
X0267536Y0152086D01*
X0267112Y0153110D01*
X0266328Y0153894D01*
X0266980Y0153241D02*
X0288646Y0153241D01*
X0288170Y0153044D02*
X0287386Y0152260D01*
X0286961Y0151236D01*
X0286961Y0150127D01*
X0287386Y0149102D01*
X0288170Y0148318D01*
X0289194Y0147894D01*
X0290303Y0147894D01*
X0291328Y0148318D01*
X0292112Y0149102D01*
X0292536Y0150127D01*
X0292536Y0151236D01*
X0292112Y0152260D01*
X0291328Y0153044D01*
X0290303Y0153468D01*
X0289194Y0153468D01*
X0288170Y0153044D01*
X0287569Y0152443D02*
X0267388Y0152443D01*
X0267536Y0151644D02*
X0287131Y0151644D01*
X0286961Y0150846D02*
X0267482Y0150846D01*
X0267151Y0150047D02*
X0286994Y0150047D01*
X0287325Y0149249D02*
X0266409Y0149249D01*
X0263089Y0149249D02*
X0225823Y0149249D01*
X0225962Y0149110D02*
X0225178Y0149894D01*
X0224153Y0150318D01*
X0223044Y0150318D01*
X0222020Y0149894D01*
X0221236Y0149110D01*
X0220811Y0148086D01*
X0220811Y0146977D01*
X0221236Y0145952D01*
X0222020Y0145168D01*
X0223044Y0144744D01*
X0223993Y0144744D01*
X0223761Y0144186D01*
X0223761Y0143077D01*
X0224186Y0142052D01*
X0224970Y0141268D01*
X0225994Y0140844D01*
X0227103Y0140844D01*
X0228128Y0141268D01*
X0228912Y0142052D01*
X0229336Y0143077D01*
X0229336Y0144186D01*
X0228912Y0145210D01*
X0228128Y0145994D01*
X0227103Y0146418D01*
X0226155Y0146418D01*
X0226386Y0146977D01*
X0226386Y0148086D01*
X0225962Y0149110D01*
X0226235Y0148450D02*
X0288038Y0148450D01*
X0291460Y0148450D02*
X0354608Y0148450D01*
X0354744Y0148394D02*
X0355853Y0148394D01*
X0356878Y0148818D01*
X0357662Y0149602D01*
X0358086Y0150627D01*
X0358086Y0151736D01*
X0357662Y0152760D01*
X0356878Y0153544D01*
X0355853Y0153968D01*
X0354744Y0153968D01*
X0353720Y0153544D01*
X0352936Y0152760D01*
X0352511Y0151736D01*
X0352511Y0150627D01*
X0352936Y0149602D01*
X0353720Y0148818D01*
X0354744Y0148394D01*
X0355990Y0148450D02*
X0360759Y0148450D01*
X0360561Y0149249D02*
X0357309Y0149249D01*
X0357846Y0150047D02*
X0360566Y0150047D01*
X0360897Y0150846D02*
X0358086Y0150846D01*
X0358086Y0151644D02*
X0361570Y0151644D01*
X0357793Y0152443D02*
X0486695Y0152443D01*
X0486154Y0153241D02*
X0357180Y0153241D01*
X0353417Y0153241D02*
X0343173Y0153241D01*
X0343062Y0153510D02*
X0343486Y0152486D01*
X0343486Y0151377D01*
X0343062Y0150352D01*
X0342278Y0149568D01*
X0341253Y0149144D01*
X0340144Y0149144D01*
X0339120Y0149568D01*
X0338336Y0150352D01*
X0337911Y0151377D01*
X0337911Y0152486D01*
X0338336Y0153510D01*
X0339120Y0154294D01*
X0340144Y0154718D01*
X0341253Y0154718D01*
X0342278Y0154294D01*
X0343062Y0153510D01*
X0342532Y0154040D02*
X0485911Y0154040D01*
X0485911Y0154838D02*
X0305483Y0154838D01*
X0306094Y0154040D02*
X0338866Y0154040D01*
X0338225Y0153241D02*
X0306386Y0153241D01*
X0306386Y0152443D02*
X0337911Y0152443D01*
X0337911Y0151644D02*
X0306145Y0151644D01*
X0305606Y0150846D02*
X0338131Y0150846D01*
X0338641Y0150047D02*
X0304283Y0150047D01*
X0302915Y0150047D02*
X0292503Y0150047D01*
X0292536Y0150846D02*
X0301592Y0150846D01*
X0301053Y0151644D02*
X0292367Y0151644D01*
X0291929Y0152443D02*
X0300811Y0152443D01*
X0300811Y0153241D02*
X0290851Y0153241D01*
X0292173Y0149249D02*
X0339890Y0149249D01*
X0341507Y0149249D02*
X0353289Y0149249D01*
X0352751Y0150047D02*
X0342757Y0150047D01*
X0343266Y0150846D02*
X0352511Y0150846D01*
X0352511Y0151644D02*
X0343486Y0151644D01*
X0343486Y0152443D02*
X0352804Y0152443D01*
X0361236Y0147652D02*
X0339470Y0147652D01*
X0336028Y0147652D02*
X0302918Y0147652D01*
X0303178Y0147544D02*
X0302153Y0147968D01*
X0301044Y0147968D01*
X0300020Y0147544D01*
X0299236Y0146760D01*
X0298811Y0145736D01*
X0298811Y0144627D01*
X0299236Y0143602D01*
X0300020Y0142818D01*
X0301044Y0142394D01*
X0302153Y0142394D01*
X0303178Y0142818D01*
X0303962Y0143602D01*
X0304386Y0144627D01*
X0304386Y0145736D01*
X0303962Y0146760D01*
X0303178Y0147544D01*
X0303869Y0146853D02*
X0335321Y0146853D01*
X0334990Y0146055D02*
X0304254Y0146055D01*
X0304386Y0145256D02*
X0334961Y0145256D01*
X0335135Y0144458D02*
X0332314Y0144458D01*
X0332278Y0144494D02*
X0331253Y0144918D01*
X0330144Y0144918D01*
X0329120Y0144494D01*
X0328336Y0143710D01*
X0327911Y0142686D01*
X0327911Y0141577D01*
X0328336Y0140552D01*
X0329120Y0139768D01*
X0330144Y0139344D01*
X0331253Y0139344D01*
X0332278Y0139768D01*
X0333062Y0140552D01*
X0333486Y0141577D01*
X0333486Y0142686D01*
X0333062Y0143710D01*
X0332278Y0144494D01*
X0333083Y0143659D02*
X0335579Y0143659D01*
X0336670Y0142861D02*
X0333414Y0142861D01*
X0333486Y0142062D02*
X0337911Y0142062D01*
X0337911Y0141264D02*
X0333357Y0141264D01*
X0332975Y0140465D02*
X0338206Y0140465D01*
X0338821Y0139667D02*
X0332033Y0139667D01*
X0329365Y0139667D02*
X0201999Y0139667D01*
X0201999Y0140465D02*
X0328423Y0140465D01*
X0328041Y0141264D02*
X0228117Y0141264D01*
X0228916Y0142062D02*
X0327911Y0142062D01*
X0327984Y0142861D02*
X0303220Y0142861D01*
X0303986Y0143659D02*
X0328315Y0143659D01*
X0329084Y0144458D02*
X0304316Y0144458D01*
X0299977Y0142861D02*
X0229247Y0142861D01*
X0229336Y0143659D02*
X0299212Y0143659D01*
X0298881Y0144458D02*
X0229223Y0144458D01*
X0228866Y0145256D02*
X0298811Y0145256D01*
X0298944Y0146055D02*
X0227981Y0146055D01*
X0226335Y0146853D02*
X0299329Y0146853D01*
X0300280Y0147652D02*
X0226386Y0147652D01*
X0224808Y0150047D02*
X0262346Y0150047D01*
X0262016Y0150846D02*
X0201999Y0150846D01*
X0201999Y0151644D02*
X0261961Y0151644D01*
X0262109Y0152443D02*
X0201999Y0152443D01*
X0201999Y0153241D02*
X0262517Y0153241D01*
X0263522Y0154040D02*
X0201999Y0154040D01*
X0201999Y0150047D02*
X0222390Y0150047D01*
X0221375Y0149249D02*
X0201999Y0149249D01*
X0201999Y0148450D02*
X0220963Y0148450D01*
X0220811Y0147652D02*
X0201999Y0147652D01*
X0201999Y0146853D02*
X0220862Y0146853D01*
X0221193Y0146055D02*
X0201999Y0146055D01*
X0201999Y0145256D02*
X0221932Y0145256D01*
X0223874Y0144458D02*
X0201999Y0144458D01*
X0201999Y0143659D02*
X0223761Y0143659D01*
X0223851Y0142861D02*
X0201999Y0142861D01*
X0201999Y0142062D02*
X0224182Y0142062D01*
X0224980Y0141264D02*
X0201999Y0141264D01*
X0201999Y0135674D02*
X0366286Y0135674D01*
X0411012Y0116510D02*
X0435704Y0116510D01*
X0435611Y0115711D02*
X0411665Y0115711D01*
X0411986Y0114913D02*
X0435721Y0114913D01*
X0436074Y0114114D02*
X0411986Y0114114D01*
X0411775Y0113316D02*
X0436946Y0113316D01*
X0436825Y0122099D02*
X0241999Y0122099D01*
X0256133Y0162824D02*
X0272699Y0162824D01*
X0273820Y0163622D02*
X0256862Y0163622D01*
X0275877Y0163622D02*
X0332016Y0163622D01*
X0333160Y0162824D02*
X0276998Y0162824D01*
X0253912Y0185052D02*
X0254336Y0186077D01*
X0254336Y0187186D01*
X0253912Y0188210D01*
X0253128Y0188994D01*
X0252103Y0189418D01*
X0250994Y0189418D01*
X0249970Y0188994D01*
X0249186Y0188210D01*
X0248761Y0187186D01*
X0248761Y0186077D01*
X0249186Y0185052D01*
X0249970Y0184268D01*
X0250994Y0183844D01*
X0252103Y0183844D01*
X0253128Y0184268D01*
X0253912Y0185052D01*
X0253966Y0185182D02*
X0431853Y0185182D01*
X0431886Y0185102D02*
X0432670Y0184318D01*
X0433694Y0183894D01*
X0434803Y0183894D01*
X0435828Y0184318D01*
X0436612Y0185102D01*
X0437036Y0186127D01*
X0437036Y0187236D01*
X0436612Y0188260D01*
X0435828Y0189044D01*
X0434803Y0189468D01*
X0433694Y0189468D01*
X0432670Y0189044D01*
X0431886Y0188260D01*
X0431461Y0187236D01*
X0431461Y0186127D01*
X0431886Y0185102D01*
X0431522Y0185980D02*
X0254296Y0185980D01*
X0254336Y0186779D02*
X0366597Y0186779D01*
X0367044Y0186594D02*
X0366020Y0187018D01*
X0365236Y0187802D01*
X0364811Y0188827D01*
X0364811Y0189936D01*
X0365236Y0190960D01*
X0366020Y0191744D01*
X0367044Y0192168D01*
X0368153Y0192168D01*
X0369178Y0191744D01*
X0369962Y0190960D01*
X0370386Y0189936D01*
X0370386Y0188827D01*
X0369962Y0187802D01*
X0369178Y0187018D01*
X0368153Y0186594D01*
X0367044Y0186594D01*
X0368600Y0186779D02*
X0431461Y0186779D01*
X0431603Y0187577D02*
X0369737Y0187577D01*
X0370200Y0188376D02*
X0432002Y0188376D01*
X0432984Y0189174D02*
X0370386Y0189174D01*
X0370371Y0189973D02*
X0515026Y0189973D01*
X0515026Y0190771D02*
X0370040Y0190771D01*
X0369352Y0191570D02*
X0515026Y0191570D01*
X0515026Y0192368D02*
X0336078Y0192368D01*
X0336236Y0191986D02*
X0335812Y0193010D01*
X0335028Y0193794D01*
X0334003Y0194218D01*
X0332894Y0194218D01*
X0331870Y0193794D01*
X0331086Y0193010D01*
X0330661Y0191986D01*
X0330661Y0190877D01*
X0331086Y0189852D01*
X0331870Y0189068D01*
X0332894Y0188644D01*
X0334003Y0188644D01*
X0335028Y0189068D01*
X0335812Y0189852D01*
X0336236Y0190877D01*
X0336236Y0191986D01*
X0336236Y0191570D02*
X0365846Y0191570D01*
X0365158Y0190771D02*
X0336193Y0190771D01*
X0335862Y0189973D02*
X0364827Y0189973D01*
X0364811Y0189174D02*
X0335134Y0189174D01*
X0331764Y0189174D02*
X0252692Y0189174D01*
X0253746Y0188376D02*
X0364998Y0188376D01*
X0365461Y0187577D02*
X0254174Y0187577D01*
X0253243Y0184383D02*
X0432605Y0184383D01*
X0435893Y0184383D02*
X0515026Y0184383D01*
X0515026Y0183585D02*
X0470537Y0183585D01*
X0470278Y0183844D02*
X0471062Y0183060D01*
X0471486Y0182036D01*
X0471486Y0180927D01*
X0471062Y0179902D01*
X0470278Y0179118D01*
X0469253Y0178694D01*
X0468144Y0178694D01*
X0467120Y0179118D01*
X0466336Y0179902D01*
X0465911Y0180927D01*
X0465911Y0182036D01*
X0466336Y0183060D01*
X0467120Y0183844D01*
X0468144Y0184268D01*
X0469253Y0184268D01*
X0470278Y0183844D01*
X0471175Y0182786D02*
X0508717Y0182786D01*
X0508794Y0182818D02*
X0507770Y0182394D01*
X0506986Y0181610D01*
X0506561Y0180586D01*
X0506561Y0179477D01*
X0506986Y0178452D01*
X0507770Y0177668D01*
X0508794Y0177244D01*
X0509903Y0177244D01*
X0510928Y0177668D01*
X0511712Y0178452D01*
X0512136Y0179477D01*
X0512136Y0180586D01*
X0511712Y0181610D01*
X0510928Y0182394D01*
X0509903Y0182818D01*
X0508794Y0182818D01*
X0509981Y0182786D02*
X0515026Y0182786D01*
X0515026Y0181988D02*
X0511334Y0181988D01*
X0511886Y0181189D02*
X0515026Y0181189D01*
X0515026Y0180391D02*
X0512136Y0180391D01*
X0512136Y0179592D02*
X0515026Y0179592D01*
X0515026Y0178794D02*
X0511853Y0178794D01*
X0511255Y0177995D02*
X0515026Y0177995D01*
X0515026Y0177197D02*
X0481054Y0177197D01*
X0480863Y0177656D02*
X0481286Y0178677D01*
X0481286Y0179786D01*
X0480862Y0180810D01*
X0480078Y0181594D01*
X0479053Y0182018D01*
X0477944Y0182018D01*
X0476920Y0181594D01*
X0476136Y0180810D01*
X0475711Y0179786D01*
X0475711Y0178677D01*
X0476134Y0177656D01*
X0475711Y0176636D01*
X0475711Y0175527D01*
X0476134Y0174506D01*
X0475711Y0173486D01*
X0475711Y0172377D01*
X0476136Y0171352D01*
X0476920Y0170568D01*
X0477944Y0170144D01*
X0479053Y0170144D01*
X0480078Y0170568D01*
X0480862Y0171352D01*
X0481286Y0172377D01*
X0481286Y0173486D01*
X0480863Y0174506D01*
X0481286Y0175527D01*
X0481286Y0176636D01*
X0480863Y0177656D01*
X0481004Y0177995D02*
X0507443Y0177995D01*
X0506844Y0178794D02*
X0481286Y0178794D01*
X0481286Y0179592D02*
X0506561Y0179592D01*
X0506561Y0180391D02*
X0481036Y0180391D01*
X0480483Y0181189D02*
X0506812Y0181189D01*
X0507364Y0181988D02*
X0479127Y0181988D01*
X0477870Y0181988D02*
X0471486Y0181988D01*
X0471486Y0181189D02*
X0476515Y0181189D01*
X0475962Y0180391D02*
X0471264Y0180391D01*
X0470752Y0179592D02*
X0475711Y0179592D01*
X0475711Y0178794D02*
X0469495Y0178794D01*
X0467903Y0178794D02*
X0359831Y0178794D01*
X0359886Y0179592D02*
X0466646Y0179592D01*
X0466133Y0180391D02*
X0359739Y0180391D01*
X0359333Y0181189D02*
X0465911Y0181189D01*
X0465911Y0181988D02*
X0358331Y0181988D01*
X0355867Y0181988D02*
X0201920Y0181988D01*
X0201589Y0182786D02*
X0466222Y0182786D01*
X0466861Y0183585D02*
X0200986Y0183585D01*
X0200438Y0184133D02*
X0200438Y0184133D01*
X0200188Y0184383D02*
X0249855Y0184383D01*
X0249132Y0185182D02*
X0199389Y0185182D01*
X0198591Y0185980D02*
X0200527Y0185980D01*
X0199645Y0186346D02*
X0201497Y0185579D01*
X0203501Y0185579D01*
X0205353Y0186346D01*
X0206770Y0187763D01*
X0207537Y0189615D01*
X0207537Y0191620D01*
X0206770Y0193471D01*
X0205353Y0194889D01*
X0203501Y0195656D01*
X0201497Y0195656D01*
X0199645Y0194889D01*
X0198227Y0193471D01*
X0197460Y0191620D01*
X0197460Y0189615D01*
X0198227Y0187763D01*
X0199645Y0186346D01*
X0199212Y0186779D02*
X0197792Y0186779D01*
X0198413Y0187577D02*
X0196994Y0187577D01*
X0196749Y0188376D02*
X0197973Y0188376D01*
X0197643Y0189174D02*
X0196749Y0189174D01*
X0196749Y0189973D02*
X0197460Y0189973D01*
X0197460Y0190771D02*
X0196749Y0190771D01*
X0196749Y0191570D02*
X0197460Y0191570D01*
X0197770Y0192368D02*
X0196749Y0192368D01*
X0196749Y0193167D02*
X0198101Y0193167D01*
X0198721Y0193966D02*
X0196749Y0193966D01*
X0196749Y0194764D02*
X0199520Y0194764D01*
X0201271Y0195563D02*
X0196117Y0195563D01*
X0195319Y0196361D02*
X0261161Y0196361D01*
X0261161Y0196127D02*
X0261586Y0195102D01*
X0262370Y0194318D01*
X0263394Y0193894D01*
X0264503Y0193894D01*
X0265528Y0194318D01*
X0266312Y0195102D01*
X0266736Y0196127D01*
X0266736Y0197236D01*
X0266312Y0198260D01*
X0265528Y0199044D01*
X0264503Y0199468D01*
X0263394Y0199468D01*
X0262370Y0199044D01*
X0261586Y0198260D01*
X0261161Y0197236D01*
X0261161Y0196127D01*
X0261395Y0195563D02*
X0203726Y0195563D01*
X0205478Y0194764D02*
X0261924Y0194764D01*
X0263221Y0193966D02*
X0206276Y0193966D01*
X0206896Y0193167D02*
X0319717Y0193167D01*
X0319894Y0193094D02*
X0321003Y0193094D01*
X0322028Y0193518D01*
X0322812Y0194302D01*
X0323236Y0195327D01*
X0323236Y0196436D01*
X0322812Y0197460D01*
X0322028Y0198244D01*
X0321003Y0198668D01*
X0319894Y0198668D01*
X0318870Y0198244D01*
X0318086Y0197460D01*
X0317661Y0196436D01*
X0317661Y0195327D01*
X0318086Y0194302D01*
X0318870Y0193518D01*
X0319894Y0193094D01*
X0321180Y0193167D02*
X0331243Y0193167D01*
X0330820Y0192368D02*
X0207227Y0192368D01*
X0207537Y0191570D02*
X0330661Y0191570D01*
X0330705Y0190771D02*
X0207537Y0190771D01*
X0207537Y0189973D02*
X0331036Y0189973D01*
X0332284Y0193966D02*
X0322475Y0193966D01*
X0323003Y0194764D02*
X0342994Y0194764D01*
X0343186Y0194302D02*
X0342761Y0195327D01*
X0342761Y0196436D01*
X0343186Y0197460D01*
X0343970Y0198244D01*
X0344994Y0198668D01*
X0346103Y0198668D01*
X0347128Y0198244D01*
X0347912Y0197460D01*
X0348336Y0196436D01*
X0348336Y0195327D01*
X0347912Y0194302D01*
X0347128Y0193518D01*
X0346103Y0193094D01*
X0344994Y0193094D01*
X0343970Y0193518D01*
X0343186Y0194302D01*
X0343522Y0193966D02*
X0334614Y0193966D01*
X0335655Y0193167D02*
X0344817Y0193167D01*
X0346280Y0193167D02*
X0515026Y0193167D01*
X0515026Y0193966D02*
X0347575Y0193966D01*
X0348103Y0194764D02*
X0380980Y0194764D01*
X0381540Y0194532D02*
X0382957Y0194532D01*
X0384267Y0195074D01*
X0385269Y0196076D01*
X0385811Y0197386D01*
X0385811Y0198803D01*
X0385269Y0200112D01*
X0384267Y0201114D01*
X0382957Y0201656D01*
X0381540Y0201656D01*
X0380231Y0201114D01*
X0379229Y0200112D01*
X0378687Y0198803D01*
X0378687Y0197386D01*
X0379229Y0196076D01*
X0380231Y0195074D01*
X0381540Y0194532D01*
X0383518Y0194764D02*
X0515026Y0194764D01*
X0515026Y0195563D02*
X0384755Y0195563D01*
X0385387Y0196361D02*
X0515026Y0196361D01*
X0515026Y0197160D02*
X0512619Y0197160D01*
X0512478Y0197018D02*
X0513262Y0197802D01*
X0513686Y0198827D01*
X0513686Y0199936D01*
X0513262Y0200960D01*
X0512478Y0201744D01*
X0511453Y0202168D01*
X0510344Y0202168D01*
X0509324Y0201746D01*
X0508303Y0202168D01*
X0507194Y0202168D01*
X0506170Y0201744D01*
X0505386Y0200960D01*
X0504961Y0199936D01*
X0504961Y0198827D01*
X0505386Y0197802D01*
X0506170Y0197018D01*
X0507194Y0196594D01*
X0508303Y0196594D01*
X0509324Y0197016D01*
X0510344Y0196594D01*
X0511453Y0196594D01*
X0512478Y0197018D01*
X0513326Y0197958D02*
X0515026Y0197958D01*
X0515026Y0198757D02*
X0513657Y0198757D01*
X0513686Y0199555D02*
X0515026Y0199555D01*
X0515026Y0200354D02*
X0513513Y0200354D01*
X0513070Y0201152D02*
X0515026Y0201152D01*
X0515026Y0201951D02*
X0511979Y0201951D01*
X0509818Y0201951D02*
X0508829Y0201951D01*
X0506668Y0201951D02*
X0344185Y0201951D01*
X0344062Y0201652D02*
X0344486Y0202677D01*
X0344486Y0203786D01*
X0344062Y0204810D01*
X0343278Y0205594D01*
X0342253Y0206018D01*
X0341144Y0206018D01*
X0340120Y0205594D01*
X0339336Y0204810D01*
X0338911Y0203786D01*
X0338911Y0202677D01*
X0339336Y0201652D01*
X0340120Y0200868D01*
X0341144Y0200444D01*
X0342253Y0200444D01*
X0343278Y0200868D01*
X0344062Y0201652D01*
X0343562Y0201152D02*
X0380323Y0201152D01*
X0379471Y0200354D02*
X0203528Y0200354D01*
X0203501Y0200343D02*
X0205353Y0201110D01*
X0206770Y0202527D01*
X0207537Y0204379D01*
X0207537Y0206383D01*
X0206770Y0208235D01*
X0205353Y0209653D01*
X0203501Y0210420D01*
X0201497Y0210420D01*
X0199645Y0209653D01*
X0198227Y0208235D01*
X0197460Y0206383D01*
X0197460Y0204379D01*
X0198227Y0202527D01*
X0199645Y0201110D01*
X0201497Y0200343D01*
X0203501Y0200343D01*
X0201470Y0200354D02*
X0191326Y0200354D01*
X0190528Y0201152D02*
X0199602Y0201152D01*
X0198804Y0201951D02*
X0189729Y0201951D01*
X0188931Y0202749D02*
X0198135Y0202749D01*
X0197805Y0203548D02*
X0188132Y0203548D01*
X0187334Y0204346D02*
X0197474Y0204346D01*
X0197460Y0205145D02*
X0186535Y0205145D01*
X0185737Y0205943D02*
X0197460Y0205943D01*
X0197609Y0206742D02*
X0184938Y0206742D01*
X0184140Y0207540D02*
X0197939Y0207540D01*
X0198331Y0208339D02*
X0183341Y0208339D01*
X0182543Y0209137D02*
X0199129Y0209137D01*
X0200328Y0209936D02*
X0181744Y0209936D01*
X0180946Y0210734D02*
X0217578Y0210734D01*
X0217578Y0211051D02*
X0217578Y0208811D01*
X0218435Y0206742D01*
X0220019Y0205159D01*
X0222088Y0204302D01*
X0224327Y0204302D01*
X0226396Y0205159D01*
X0227980Y0206742D01*
X0228837Y0208811D01*
X0228837Y0211051D01*
X0227980Y0213120D01*
X0226396Y0214703D01*
X0224327Y0215560D01*
X0222088Y0215560D01*
X0220019Y0214703D01*
X0218435Y0213120D01*
X0217578Y0211051D01*
X0217778Y0211533D02*
X0180147Y0211533D01*
X0179349Y0212331D02*
X0218109Y0212331D01*
X0218445Y0213130D02*
X0178550Y0213130D01*
X0177752Y0213928D02*
X0219244Y0213928D01*
X0220076Y0214727D02*
X0176953Y0214727D01*
X0176155Y0215525D02*
X0200485Y0215525D01*
X0199645Y0215873D02*
X0201497Y0215106D01*
X0203501Y0215106D01*
X0205353Y0215873D01*
X0206770Y0217291D01*
X0207537Y0219143D01*
X0207537Y0221147D01*
X0206770Y0222999D01*
X0205353Y0224416D01*
X0203501Y0225183D01*
X0201497Y0225183D01*
X0199645Y0224416D01*
X0198227Y0222999D01*
X0197460Y0221147D01*
X0197460Y0219143D01*
X0198227Y0217291D01*
X0199645Y0215873D01*
X0199194Y0216324D02*
X0175356Y0216324D01*
X0174558Y0217122D02*
X0198396Y0217122D01*
X0197966Y0217921D02*
X0173759Y0217921D01*
X0172961Y0218719D02*
X0197636Y0218719D01*
X0197460Y0219518D02*
X0172162Y0219518D01*
X0171364Y0220316D02*
X0197460Y0220316D01*
X0197460Y0221115D02*
X0170565Y0221115D01*
X0169767Y0221913D02*
X0197778Y0221913D01*
X0198108Y0222712D02*
X0168968Y0222712D01*
X0168170Y0223510D02*
X0198739Y0223510D01*
X0199537Y0224309D02*
X0167371Y0224309D01*
X0166572Y0225107D02*
X0194490Y0225107D01*
X0194644Y0225044D02*
X0195753Y0225044D01*
X0196778Y0225468D01*
X0197562Y0226252D01*
X0197986Y0227277D01*
X0197986Y0228386D01*
X0197562Y0229410D01*
X0196778Y0230194D01*
X0195753Y0230618D01*
X0194644Y0230618D01*
X0193620Y0230194D01*
X0192836Y0229410D01*
X0192411Y0228386D01*
X0192411Y0227277D01*
X0192836Y0226252D01*
X0193620Y0225468D01*
X0194644Y0225044D01*
X0195907Y0225107D02*
X0201313Y0225107D01*
X0203685Y0225107D02*
X0304011Y0225107D01*
X0304011Y0224727D02*
X0304393Y0223806D01*
X0304011Y0222886D01*
X0304011Y0221777D01*
X0304436Y0220752D01*
X0305220Y0219968D01*
X0306244Y0219544D01*
X0307353Y0219544D01*
X0308374Y0219966D01*
X0309394Y0219544D01*
X0310503Y0219544D01*
X0311528Y0219968D01*
X0312312Y0220752D01*
X0312736Y0221777D01*
X0312736Y0222886D01*
X0312365Y0223781D01*
X0312736Y0224677D01*
X0312736Y0225786D01*
X0312334Y0226756D01*
X0312736Y0227727D01*
X0312736Y0228836D01*
X0312365Y0229731D01*
X0312736Y0230627D01*
X0312736Y0231736D01*
X0312355Y0232656D01*
X0312736Y0233577D01*
X0312736Y0234686D01*
X0312312Y0235710D01*
X0311528Y0236494D01*
X0310503Y0236918D01*
X0309394Y0236918D01*
X0308374Y0236496D01*
X0307353Y0236918D01*
X0306244Y0236918D01*
X0305220Y0236494D01*
X0304436Y0235710D01*
X0304011Y0234686D01*
X0304011Y0233577D01*
X0304393Y0232656D01*
X0304011Y0231736D01*
X0304011Y0230627D01*
X0304393Y0229706D01*
X0304011Y0228786D01*
X0304011Y0227677D01*
X0304393Y0226756D01*
X0304011Y0225836D01*
X0304011Y0224727D01*
X0304184Y0224309D02*
X0205460Y0224309D01*
X0206259Y0223510D02*
X0304270Y0223510D01*
X0304011Y0222712D02*
X0206889Y0222712D01*
X0207220Y0221913D02*
X0304011Y0221913D01*
X0304286Y0221115D02*
X0207537Y0221115D01*
X0207537Y0220316D02*
X0304872Y0220316D01*
X0311876Y0220316D02*
X0322549Y0220316D01*
X0322461Y0220527D02*
X0322884Y0219506D01*
X0322461Y0218486D01*
X0322461Y0217377D01*
X0322874Y0216381D01*
X0322461Y0215386D01*
X0322461Y0214277D01*
X0322886Y0213252D01*
X0323670Y0212468D01*
X0324694Y0212044D01*
X0325803Y0212044D01*
X0326824Y0212466D01*
X0327844Y0212044D01*
X0328953Y0212044D01*
X0329974Y0212466D01*
X0330994Y0212044D01*
X0332103Y0212044D01*
X0333128Y0212468D01*
X0333912Y0213252D01*
X0334336Y0214277D01*
X0334336Y0215386D01*
X0333913Y0216406D01*
X0334336Y0217427D01*
X0334336Y0218536D01*
X0333913Y0219556D01*
X0334336Y0220577D01*
X0334336Y0221686D01*
X0333924Y0222681D01*
X0334336Y0223677D01*
X0334336Y0224786D01*
X0333912Y0225810D01*
X0333128Y0226594D01*
X0332103Y0227018D01*
X0330994Y0227018D01*
X0329974Y0226596D01*
X0328953Y0227018D01*
X0327844Y0227018D01*
X0326824Y0226596D01*
X0325803Y0227018D01*
X0324694Y0227018D01*
X0323670Y0226594D01*
X0322886Y0225810D01*
X0322461Y0224786D01*
X0322461Y0223677D01*
X0322884Y0222656D01*
X0322461Y0221636D01*
X0322461Y0220527D01*
X0322461Y0221115D02*
X0312462Y0221115D01*
X0312736Y0221913D02*
X0322577Y0221913D01*
X0322861Y0222712D02*
X0312736Y0222712D01*
X0312477Y0223510D02*
X0322530Y0223510D01*
X0322461Y0224309D02*
X0312584Y0224309D01*
X0312736Y0225107D02*
X0322595Y0225107D01*
X0322982Y0225906D02*
X0312686Y0225906D01*
X0312356Y0226704D02*
X0323936Y0226704D01*
X0326561Y0226704D02*
X0327086Y0226704D01*
X0329711Y0226704D02*
X0330236Y0226704D01*
X0332861Y0226704D02*
X0366314Y0226704D01*
X0366161Y0226336D02*
X0366161Y0225227D01*
X0366586Y0224202D01*
X0366607Y0224181D01*
X0366586Y0224160D01*
X0366161Y0223136D01*
X0366161Y0222027D01*
X0366586Y0221002D01*
X0366607Y0220981D01*
X0366586Y0220960D01*
X0366161Y0219936D01*
X0366161Y0218827D01*
X0366586Y0217802D01*
X0366607Y0217781D01*
X0366586Y0217760D01*
X0366161Y0216736D01*
X0366161Y0215627D01*
X0366586Y0214602D01*
X0367370Y0213818D01*
X0368394Y0213394D01*
X0369503Y0213394D01*
X0370528Y0213818D01*
X0371312Y0214602D01*
X0371736Y0215627D01*
X0371736Y0216736D01*
X0371312Y0217760D01*
X0371291Y0217781D01*
X0371312Y0217802D01*
X0371736Y0218827D01*
X0371736Y0219936D01*
X0371312Y0220960D01*
X0371291Y0220981D01*
X0371312Y0221002D01*
X0371736Y0222027D01*
X0371736Y0223136D01*
X0371312Y0224160D01*
X0371291Y0224181D01*
X0371312Y0224202D01*
X0371736Y0225227D01*
X0371736Y0226336D01*
X0371312Y0227360D01*
X0370528Y0228144D01*
X0369503Y0228568D01*
X0368394Y0228568D01*
X0367370Y0228144D01*
X0366586Y0227360D01*
X0366161Y0226336D01*
X0366161Y0225906D02*
X0333816Y0225906D01*
X0334203Y0225107D02*
X0366211Y0225107D01*
X0366542Y0224309D02*
X0334336Y0224309D01*
X0334267Y0223510D02*
X0366317Y0223510D01*
X0366161Y0222712D02*
X0333937Y0222712D01*
X0334242Y0221913D02*
X0366208Y0221913D01*
X0366539Y0221115D02*
X0334336Y0221115D01*
X0334228Y0220316D02*
X0366319Y0220316D01*
X0366161Y0219518D02*
X0333929Y0219518D01*
X0334260Y0218719D02*
X0366206Y0218719D01*
X0366537Y0217921D02*
X0334336Y0217921D01*
X0334210Y0217122D02*
X0366322Y0217122D01*
X0366161Y0216324D02*
X0333948Y0216324D01*
X0334278Y0215525D02*
X0366203Y0215525D01*
X0366534Y0214727D02*
X0334336Y0214727D01*
X0334192Y0213928D02*
X0367260Y0213928D01*
X0370638Y0213928D02*
X0515026Y0213928D01*
X0515026Y0213130D02*
X0333789Y0213130D01*
X0332797Y0212331D02*
X0515026Y0212331D01*
X0515026Y0211533D02*
X0317220Y0211533D01*
X0317419Y0211051D02*
X0316562Y0213120D01*
X0314979Y0214703D01*
X0312910Y0215560D01*
X0310670Y0215560D01*
X0308602Y0214703D01*
X0307018Y0213120D01*
X0306161Y0211051D01*
X0306161Y0208811D01*
X0307018Y0206742D01*
X0308602Y0205159D01*
X0310670Y0204302D01*
X0312910Y0204302D01*
X0314979Y0205159D01*
X0316562Y0206742D01*
X0317419Y0208811D01*
X0317419Y0211051D01*
X0317419Y0210734D02*
X0515026Y0210734D01*
X0515026Y0209936D02*
X0317419Y0209936D01*
X0317419Y0209137D02*
X0380591Y0209137D01*
X0380561Y0209125D02*
X0379978Y0208735D01*
X0379482Y0208239D01*
X0379092Y0207655D01*
X0378824Y0207007D01*
X0378694Y0206356D01*
X0381861Y0206356D01*
X0381861Y0209523D01*
X0381210Y0209393D01*
X0380561Y0209125D01*
X0379582Y0208339D02*
X0317223Y0208339D01*
X0316893Y0207540D02*
X0379044Y0207540D01*
X0378771Y0206742D02*
X0316562Y0206742D01*
X0315763Y0205943D02*
X0340963Y0205943D01*
X0342435Y0205943D02*
X0381861Y0205943D01*
X0381861Y0205581D02*
X0378694Y0205581D01*
X0378824Y0204929D01*
X0379092Y0204281D01*
X0379482Y0203697D01*
X0379978Y0203201D01*
X0380561Y0202811D01*
X0381210Y0202543D01*
X0381861Y0202413D01*
X0381861Y0205581D01*
X0381861Y0206356D01*
X0382636Y0206356D01*
X0382636Y0209523D01*
X0383288Y0209393D01*
X0383936Y0209125D01*
X0384520Y0208735D01*
X0385016Y0208239D01*
X0385406Y0207655D01*
X0385674Y0207007D01*
X0385804Y0206356D01*
X0382636Y0206356D01*
X0382636Y0205581D01*
X0385804Y0205581D01*
X0385674Y0204929D01*
X0385406Y0204281D01*
X0385016Y0203697D01*
X0384520Y0203201D01*
X0383936Y0202811D01*
X0383288Y0202543D01*
X0382636Y0202413D01*
X0382636Y0205581D01*
X0381861Y0205581D01*
X0381861Y0205145D02*
X0382636Y0205145D01*
X0382636Y0205943D02*
X0515026Y0205943D01*
X0515026Y0205145D02*
X0385717Y0205145D01*
X0385433Y0204346D02*
X0515026Y0204346D01*
X0515026Y0203548D02*
X0384866Y0203548D01*
X0383786Y0202749D02*
X0515026Y0202749D01*
X0515026Y0206742D02*
X0385727Y0206742D01*
X0385453Y0207540D02*
X0515026Y0207540D01*
X0515026Y0208339D02*
X0384916Y0208339D01*
X0383906Y0209137D02*
X0515026Y0209137D01*
X0515026Y0214727D02*
X0371363Y0214727D01*
X0371694Y0215525D02*
X0515026Y0215525D01*
X0515026Y0216324D02*
X0371736Y0216324D01*
X0371576Y0217122D02*
X0515026Y0217122D01*
X0515026Y0217921D02*
X0371361Y0217921D01*
X0371692Y0218719D02*
X0515026Y0218719D01*
X0515026Y0219518D02*
X0371736Y0219518D01*
X0371578Y0220316D02*
X0515026Y0220316D01*
X0515026Y0221115D02*
X0371359Y0221115D01*
X0371689Y0221913D02*
X0515026Y0221913D01*
X0515026Y0222712D02*
X0371736Y0222712D01*
X0371581Y0223510D02*
X0515026Y0223510D01*
X0515026Y0224309D02*
X0371356Y0224309D01*
X0371687Y0225107D02*
X0515026Y0225107D01*
X0515026Y0225906D02*
X0371736Y0225906D01*
X0371583Y0226704D02*
X0515026Y0226704D01*
X0515026Y0227503D02*
X0371169Y0227503D01*
X0370148Y0228301D02*
X0515026Y0228301D01*
X0515026Y0229100D02*
X0312627Y0229100D01*
X0312736Y0228301D02*
X0367750Y0228301D01*
X0366729Y0227503D02*
X0312644Y0227503D01*
X0312435Y0229899D02*
X0515026Y0229899D01*
X0515026Y0230697D02*
X0312736Y0230697D01*
X0312736Y0231496D02*
X0515026Y0231496D01*
X0515026Y0232294D02*
X0312505Y0232294D01*
X0312536Y0233093D02*
X0515026Y0233093D01*
X0515026Y0233891D02*
X0312736Y0233891D01*
X0312735Y0234690D02*
X0515026Y0234690D01*
X0515026Y0235488D02*
X0464901Y0235488D01*
X0465403Y0235696D02*
X0466820Y0237113D01*
X0467587Y0238965D01*
X0467587Y0240970D01*
X0466820Y0242821D01*
X0465403Y0244239D01*
X0463551Y0245006D01*
X0461547Y0245006D01*
X0459695Y0244239D01*
X0458277Y0242821D01*
X0457510Y0240970D01*
X0457510Y0238965D01*
X0458277Y0237113D01*
X0459695Y0235696D01*
X0461547Y0234929D01*
X0463551Y0234929D01*
X0465403Y0235696D01*
X0465994Y0236287D02*
X0515026Y0236287D01*
X0515026Y0237085D02*
X0466792Y0237085D01*
X0467139Y0237884D02*
X0515026Y0237884D01*
X0515026Y0238682D02*
X0467470Y0238682D01*
X0467587Y0239481D02*
X0515026Y0239481D01*
X0515026Y0240279D02*
X0467587Y0240279D01*
X0467543Y0241078D02*
X0515026Y0241078D01*
X0515026Y0241876D02*
X0467212Y0241876D01*
X0466881Y0242675D02*
X0515026Y0242675D01*
X0515026Y0243473D02*
X0466169Y0243473D01*
X0465324Y0244272D02*
X0515026Y0244272D01*
X0515026Y0245070D02*
X0317249Y0245070D01*
X0317369Y0245361D02*
X0316512Y0243292D01*
X0314929Y0241709D01*
X0312860Y0240852D01*
X0310620Y0240852D01*
X0308552Y0241709D01*
X0306968Y0243292D01*
X0306111Y0245361D01*
X0306111Y0247601D01*
X0306968Y0249670D01*
X0308552Y0251253D01*
X0310620Y0252110D01*
X0312860Y0252110D01*
X0314929Y0251253D01*
X0316512Y0249670D01*
X0317369Y0247601D01*
X0317369Y0245361D01*
X0317369Y0245869D02*
X0515026Y0245869D01*
X0515026Y0246667D02*
X0317369Y0246667D01*
X0317369Y0247466D02*
X0515026Y0247466D01*
X0515026Y0248264D02*
X0317094Y0248264D01*
X0316764Y0249063D02*
X0515026Y0249063D01*
X0515026Y0249861D02*
X0463959Y0249861D01*
X0463551Y0249693D02*
X0465403Y0250460D01*
X0466820Y0251877D01*
X0467587Y0253729D01*
X0467587Y0255733D01*
X0466820Y0257585D01*
X0465403Y0259003D01*
X0463551Y0259770D01*
X0461547Y0259770D01*
X0459695Y0259003D01*
X0458277Y0257585D01*
X0457510Y0255733D01*
X0457510Y0253729D01*
X0458277Y0251877D01*
X0459695Y0250460D01*
X0461547Y0249693D01*
X0463551Y0249693D01*
X0465603Y0250660D02*
X0515026Y0250660D01*
X0515026Y0251458D02*
X0466402Y0251458D01*
X0466978Y0252257D02*
X0515026Y0252257D01*
X0515026Y0253055D02*
X0467308Y0253055D01*
X0467587Y0253854D02*
X0515026Y0253854D01*
X0515026Y0254652D02*
X0467587Y0254652D01*
X0467587Y0255451D02*
X0515026Y0255451D01*
X0515026Y0256249D02*
X0467374Y0256249D01*
X0467043Y0257048D02*
X0515026Y0257048D01*
X0515026Y0257846D02*
X0466559Y0257846D01*
X0465761Y0258645D02*
X0515026Y0258645D01*
X0515026Y0259443D02*
X0464339Y0259443D01*
X0460759Y0259443D02*
X0337812Y0259443D01*
X0337836Y0259386D02*
X0337412Y0260410D01*
X0336628Y0261194D01*
X0335603Y0261618D01*
X0335386Y0261618D01*
X0335386Y0262636D01*
X0334962Y0263660D01*
X0334178Y0264444D01*
X0333153Y0264868D01*
X0332044Y0264868D01*
X0331020Y0264444D01*
X0330236Y0263660D01*
X0329811Y0262636D01*
X0329811Y0261527D01*
X0330236Y0260502D01*
X0331020Y0259718D01*
X0332044Y0259294D01*
X0332261Y0259294D01*
X0332261Y0258277D01*
X0332686Y0257252D01*
X0333470Y0256468D01*
X0334494Y0256044D01*
X0335603Y0256044D01*
X0336628Y0256468D01*
X0337412Y0257252D01*
X0337836Y0258277D01*
X0337836Y0259386D01*
X0337836Y0258645D02*
X0459337Y0258645D01*
X0458538Y0257846D02*
X0337658Y0257846D01*
X0337208Y0257048D02*
X0458055Y0257048D01*
X0457724Y0256249D02*
X0336100Y0256249D01*
X0333998Y0256249D02*
X0283422Y0256249D01*
X0283128Y0256544D02*
X0282103Y0256968D01*
X0280994Y0256968D01*
X0279970Y0256544D01*
X0279186Y0255760D01*
X0278761Y0254736D01*
X0278761Y0253627D01*
X0279186Y0252602D01*
X0279970Y0251818D01*
X0280994Y0251394D01*
X0282103Y0251394D01*
X0283128Y0251818D01*
X0283912Y0252602D01*
X0284336Y0253627D01*
X0284336Y0254736D01*
X0283912Y0255760D01*
X0283128Y0256544D01*
X0284040Y0255451D02*
X0292427Y0255451D01*
X0292570Y0255594D02*
X0291786Y0254810D01*
X0291361Y0253786D01*
X0291361Y0252677D01*
X0291786Y0251652D01*
X0292570Y0250868D01*
X0293594Y0250444D01*
X0294703Y0250444D01*
X0295728Y0250868D01*
X0296512Y0251652D01*
X0296936Y0252677D01*
X0296936Y0253786D01*
X0296512Y0254810D01*
X0295728Y0255594D01*
X0294703Y0256018D01*
X0293594Y0256018D01*
X0292570Y0255594D01*
X0291720Y0254652D02*
X0284336Y0254652D01*
X0284336Y0253854D02*
X0291390Y0253854D01*
X0291361Y0253055D02*
X0284100Y0253055D01*
X0283567Y0252257D02*
X0291535Y0252257D01*
X0291980Y0251458D02*
X0282259Y0251458D01*
X0280838Y0251458D02*
X0261136Y0251458D01*
X0261136Y0251686D02*
X0260712Y0252710D01*
X0259928Y0253494D01*
X0258903Y0253918D01*
X0257794Y0253918D01*
X0256770Y0253494D01*
X0255986Y0252710D01*
X0255561Y0251686D01*
X0255561Y0250577D01*
X0255751Y0250118D01*
X0254644Y0250118D01*
X0253620Y0249694D01*
X0252836Y0248910D01*
X0252411Y0247886D01*
X0252411Y0246777D01*
X0252836Y0245752D01*
X0253620Y0244968D01*
X0254644Y0244544D01*
X0255753Y0244544D01*
X0256778Y0244968D01*
X0257562Y0245752D01*
X0257986Y0246777D01*
X0257986Y0247886D01*
X0257796Y0248344D01*
X0258903Y0248344D01*
X0259928Y0248768D01*
X0260712Y0249552D01*
X0261136Y0250577D01*
X0261136Y0251686D01*
X0260900Y0252257D02*
X0279531Y0252257D01*
X0278998Y0253055D02*
X0260367Y0253055D01*
X0259059Y0253854D02*
X0278761Y0253854D01*
X0278761Y0254652D02*
X0247186Y0254652D01*
X0247186Y0255186D02*
X0246762Y0256210D01*
X0245978Y0256994D01*
X0244953Y0257418D01*
X0244136Y0257418D01*
X0244136Y0257986D01*
X0243712Y0259010D01*
X0242928Y0259794D01*
X0241903Y0260218D01*
X0240794Y0260218D01*
X0239770Y0259794D01*
X0238986Y0259010D01*
X0238561Y0257986D01*
X0238561Y0256877D01*
X0238986Y0255852D01*
X0239770Y0255068D01*
X0240794Y0254644D01*
X0241611Y0254644D01*
X0241611Y0254077D01*
X0242036Y0253052D01*
X0242820Y0252268D01*
X0243844Y0251844D01*
X0244953Y0251844D01*
X0245978Y0252268D01*
X0246762Y0253052D01*
X0247186Y0254077D01*
X0247186Y0255186D01*
X0247076Y0255451D02*
X0279058Y0255451D01*
X0279675Y0256249D02*
X0246722Y0256249D01*
X0245848Y0257048D02*
X0332890Y0257048D01*
X0332440Y0257846D02*
X0244136Y0257846D01*
X0243863Y0258645D02*
X0332261Y0258645D01*
X0331683Y0259443D02*
X0243278Y0259443D01*
X0239419Y0259443D02*
X0014346Y0259443D01*
X0014346Y0258645D02*
X0238835Y0258645D01*
X0238561Y0257846D02*
X0014346Y0257846D01*
X0014346Y0257048D02*
X0238561Y0257048D01*
X0238821Y0256249D02*
X0014346Y0256249D01*
X0014346Y0255451D02*
X0239387Y0255451D01*
X0240773Y0254652D02*
X0014346Y0254652D01*
X0014346Y0253854D02*
X0241704Y0253854D01*
X0242034Y0253055D02*
X0014346Y0253055D01*
X0014346Y0252257D02*
X0242847Y0252257D01*
X0245951Y0252257D02*
X0255798Y0252257D01*
X0255561Y0251458D02*
X0225851Y0251458D01*
X0226346Y0251253D02*
X0224277Y0252110D01*
X0222038Y0252110D01*
X0219969Y0251253D01*
X0218385Y0249670D01*
X0217528Y0247601D01*
X0217528Y0245361D01*
X0218385Y0243292D01*
X0219969Y0241709D01*
X0222038Y0240852D01*
X0224277Y0240852D01*
X0226346Y0241709D01*
X0227930Y0243292D01*
X0228787Y0245361D01*
X0228787Y0247601D01*
X0227930Y0249670D01*
X0226346Y0251253D01*
X0226940Y0250660D02*
X0255561Y0250660D01*
X0254023Y0249861D02*
X0227738Y0249861D01*
X0228181Y0249063D02*
X0252989Y0249063D01*
X0252568Y0248264D02*
X0228512Y0248264D01*
X0228787Y0247466D02*
X0252411Y0247466D01*
X0252457Y0246667D02*
X0228787Y0246667D01*
X0228787Y0245869D02*
X0252787Y0245869D01*
X0253518Y0245070D02*
X0228666Y0245070D01*
X0228335Y0244272D02*
X0284731Y0244272D01*
X0284844Y0244318D02*
X0283820Y0243894D01*
X0283036Y0243110D01*
X0282611Y0242086D01*
X0282611Y0240977D01*
X0283036Y0239952D01*
X0283820Y0239168D01*
X0284844Y0238744D01*
X0285953Y0238744D01*
X0286978Y0239168D01*
X0287762Y0239952D01*
X0288186Y0240977D01*
X0288186Y0242086D01*
X0287925Y0242716D01*
X0288944Y0242294D01*
X0290053Y0242294D01*
X0291078Y0242718D01*
X0291862Y0243502D01*
X0292206Y0244332D01*
X0292470Y0244068D01*
X0292664Y0243988D01*
X0292586Y0243910D01*
X0292161Y0242886D01*
X0292161Y0242018D01*
X0291744Y0242018D01*
X0290720Y0241594D01*
X0289936Y0240810D01*
X0289511Y0239786D01*
X0289511Y0238677D01*
X0289936Y0237652D01*
X0290720Y0236868D01*
X0291744Y0236444D01*
X0292853Y0236444D01*
X0293878Y0236868D01*
X0294662Y0237652D01*
X0295086Y0238677D01*
X0295086Y0239544D01*
X0295503Y0239544D01*
X0296528Y0239968D01*
X0297312Y0240752D01*
X0297736Y0241777D01*
X0297736Y0242886D01*
X0297312Y0243910D01*
X0296528Y0244694D01*
X0296334Y0244774D01*
X0296412Y0244852D01*
X0296836Y0245877D01*
X0296836Y0246986D01*
X0296412Y0248010D01*
X0295628Y0248794D01*
X0294603Y0249218D01*
X0293494Y0249218D01*
X0292470Y0248794D01*
X0291686Y0248010D01*
X0291342Y0247180D01*
X0291078Y0247444D01*
X0290053Y0247868D01*
X0288944Y0247868D01*
X0287920Y0247444D01*
X0287136Y0246660D01*
X0286711Y0245636D01*
X0286711Y0244527D01*
X0286973Y0243896D01*
X0285953Y0244318D01*
X0284844Y0244318D01*
X0286066Y0244272D02*
X0286817Y0244272D01*
X0286711Y0245070D02*
X0256880Y0245070D01*
X0257610Y0245869D02*
X0286808Y0245869D01*
X0287143Y0246667D02*
X0257941Y0246667D01*
X0257986Y0247466D02*
X0287972Y0247466D01*
X0291026Y0247466D02*
X0291460Y0247466D01*
X0291940Y0248264D02*
X0257829Y0248264D01*
X0260222Y0249063D02*
X0293118Y0249063D01*
X0293073Y0250660D02*
X0261136Y0250660D01*
X0260840Y0249861D02*
X0307160Y0249861D01*
X0306717Y0249063D02*
X0294979Y0249063D01*
X0296158Y0248264D02*
X0306386Y0248264D01*
X0306111Y0247466D02*
X0296637Y0247466D01*
X0296836Y0246667D02*
X0306111Y0246667D01*
X0306111Y0245869D02*
X0296833Y0245869D01*
X0296502Y0245070D02*
X0306232Y0245070D01*
X0306562Y0244272D02*
X0296950Y0244272D01*
X0297493Y0243473D02*
X0306893Y0243473D01*
X0307586Y0242675D02*
X0297736Y0242675D01*
X0297736Y0241876D02*
X0308384Y0241876D01*
X0310076Y0241078D02*
X0297447Y0241078D01*
X0296839Y0240279D02*
X0357746Y0240279D01*
X0357746Y0240970D02*
X0357746Y0238965D01*
X0358514Y0237113D01*
X0359931Y0235696D01*
X0361783Y0234929D01*
X0363787Y0234929D01*
X0365639Y0235696D01*
X0367057Y0237113D01*
X0367824Y0238965D01*
X0367824Y0240970D01*
X0367057Y0242821D01*
X0365639Y0244239D01*
X0363787Y0245006D01*
X0361783Y0245006D01*
X0359931Y0244239D01*
X0358514Y0242821D01*
X0357746Y0240970D01*
X0357791Y0241078D02*
X0313405Y0241078D01*
X0315096Y0241876D02*
X0358122Y0241876D01*
X0358453Y0242675D02*
X0315895Y0242675D01*
X0316587Y0243473D02*
X0359165Y0243473D01*
X0360010Y0244272D02*
X0316918Y0244272D01*
X0316321Y0249861D02*
X0461139Y0249861D01*
X0459494Y0250660D02*
X0315522Y0250660D01*
X0314434Y0251458D02*
X0458696Y0251458D01*
X0458120Y0252257D02*
X0296762Y0252257D01*
X0296936Y0253055D02*
X0457789Y0253055D01*
X0457510Y0253854D02*
X0296908Y0253854D01*
X0296577Y0254652D02*
X0457510Y0254652D01*
X0457510Y0255451D02*
X0295871Y0255451D01*
X0296318Y0251458D02*
X0309047Y0251458D01*
X0307958Y0250660D02*
X0295225Y0250660D01*
X0292266Y0244272D02*
X0292181Y0244272D01*
X0292405Y0243473D02*
X0291833Y0243473D01*
X0292161Y0242675D02*
X0290973Y0242675D01*
X0291401Y0241876D02*
X0288186Y0241876D01*
X0288186Y0241078D02*
X0290203Y0241078D01*
X0289716Y0240279D02*
X0287897Y0240279D01*
X0287290Y0239481D02*
X0289511Y0239481D01*
X0289511Y0238682D02*
X0152998Y0238682D01*
X0153796Y0237884D02*
X0289840Y0237884D01*
X0290503Y0237085D02*
X0154595Y0237085D01*
X0155393Y0236287D02*
X0305012Y0236287D01*
X0304344Y0235488D02*
X0156192Y0235488D01*
X0156990Y0234690D02*
X0304013Y0234690D01*
X0304011Y0233891D02*
X0157789Y0233891D01*
X0158587Y0233093D02*
X0304212Y0233093D01*
X0304243Y0232294D02*
X0159386Y0232294D01*
X0160184Y0231496D02*
X0304011Y0231496D01*
X0304011Y0230697D02*
X0160983Y0230697D01*
X0161781Y0229899D02*
X0193324Y0229899D01*
X0192707Y0229100D02*
X0162580Y0229100D01*
X0163378Y0228301D02*
X0192411Y0228301D01*
X0192411Y0227503D02*
X0164177Y0227503D01*
X0164975Y0226704D02*
X0192648Y0226704D01*
X0193182Y0225906D02*
X0165774Y0225906D01*
X0152199Y0239481D02*
X0283507Y0239481D01*
X0282900Y0240279D02*
X0014346Y0240279D01*
X0014346Y0239481D02*
X0093798Y0239481D01*
X0093000Y0238682D02*
X0014346Y0238682D01*
X0014346Y0237884D02*
X0092201Y0237884D01*
X0091403Y0237085D02*
X0014346Y0237085D01*
X0014346Y0236287D02*
X0090604Y0236287D01*
X0089806Y0235488D02*
X0014346Y0235488D01*
X0014346Y0234690D02*
X0089007Y0234690D01*
X0088209Y0233891D02*
X0014346Y0233891D01*
X0014346Y0233093D02*
X0087410Y0233093D01*
X0087249Y0232294D02*
X0014346Y0232294D01*
X0014346Y0231496D02*
X0087249Y0231496D01*
X0087249Y0230697D02*
X0014346Y0230697D01*
X0014346Y0229899D02*
X0087249Y0229899D01*
X0087249Y0229100D02*
X0014346Y0229100D01*
X0014346Y0228301D02*
X0087249Y0228301D01*
X0087249Y0227503D02*
X0014346Y0227503D01*
X0014346Y0226704D02*
X0087249Y0226704D01*
X0087249Y0225906D02*
X0014346Y0225906D01*
X0014346Y0225107D02*
X0087249Y0225107D01*
X0087249Y0224309D02*
X0014346Y0224309D01*
X0014346Y0223510D02*
X0087249Y0223510D01*
X0087249Y0222712D02*
X0014346Y0222712D01*
X0014346Y0221913D02*
X0087249Y0221913D01*
X0087249Y0221115D02*
X0014346Y0221115D01*
X0014346Y0220316D02*
X0087249Y0220316D01*
X0087249Y0219518D02*
X0014346Y0219518D01*
X0014346Y0218719D02*
X0087249Y0218719D01*
X0087249Y0217921D02*
X0014346Y0217921D01*
X0014346Y0217122D02*
X0087249Y0217122D01*
X0087249Y0216324D02*
X0014346Y0216324D01*
X0014346Y0215525D02*
X0087249Y0215525D01*
X0087249Y0214727D02*
X0014346Y0214727D01*
X0014346Y0213928D02*
X0087249Y0213928D01*
X0087249Y0213130D02*
X0014346Y0213130D01*
X0014346Y0212331D02*
X0087249Y0212331D01*
X0087249Y0211533D02*
X0014346Y0211533D01*
X0014346Y0210734D02*
X0087249Y0210734D01*
X0087249Y0209936D02*
X0014346Y0209936D01*
X0014346Y0209137D02*
X0087249Y0209137D01*
X0087249Y0208339D02*
X0014346Y0208339D01*
X0014346Y0207540D02*
X0087249Y0207540D01*
X0087249Y0206742D02*
X0014346Y0206742D01*
X0014346Y0205943D02*
X0087249Y0205943D01*
X0087249Y0205145D02*
X0014346Y0205145D01*
X0014346Y0204346D02*
X0087249Y0204346D01*
X0087249Y0203548D02*
X0014346Y0203548D01*
X0014346Y0202749D02*
X0087249Y0202749D01*
X0087249Y0201951D02*
X0014346Y0201951D01*
X0014346Y0201152D02*
X0087249Y0201152D01*
X0087249Y0200354D02*
X0014346Y0200354D01*
X0014346Y0199555D02*
X0087249Y0199555D01*
X0087249Y0198757D02*
X0014346Y0198757D01*
X0014346Y0197958D02*
X0087249Y0197958D01*
X0087249Y0197160D02*
X0014346Y0197160D01*
X0014346Y0196361D02*
X0087249Y0196361D01*
X0087249Y0195563D02*
X0014346Y0195563D01*
X0014346Y0194764D02*
X0087249Y0194764D01*
X0087249Y0193966D02*
X0014346Y0193966D01*
X0014346Y0193167D02*
X0087249Y0193167D01*
X0087249Y0192368D02*
X0014346Y0192368D01*
X0014346Y0191570D02*
X0087249Y0191570D01*
X0087249Y0190771D02*
X0014346Y0190771D01*
X0014346Y0189973D02*
X0086791Y0189973D01*
X0085992Y0189174D02*
X0014346Y0189174D01*
X0014346Y0188376D02*
X0085194Y0188376D01*
X0084395Y0187577D02*
X0014346Y0187577D01*
X0014346Y0186779D02*
X0083597Y0186779D01*
X0082798Y0185980D02*
X0014346Y0185980D01*
X0014346Y0185182D02*
X0082000Y0185182D01*
X0081201Y0184383D02*
X0014346Y0184383D01*
X0014346Y0183585D02*
X0080403Y0183585D01*
X0079604Y0182786D02*
X0014346Y0182786D01*
X0014346Y0181988D02*
X0044633Y0181988D01*
X0043616Y0181189D02*
X0014346Y0181189D01*
X0014346Y0180391D02*
X0043069Y0180391D01*
X0042738Y0179592D02*
X0014346Y0179592D01*
X0051964Y0181988D02*
X0078806Y0181988D01*
X0078007Y0181189D02*
X0052982Y0181189D01*
X0053529Y0180391D02*
X0077209Y0180391D01*
X0076410Y0179592D02*
X0053859Y0179592D01*
X0014346Y0241078D02*
X0221493Y0241078D01*
X0219802Y0241876D02*
X0014346Y0241876D01*
X0014346Y0242675D02*
X0219003Y0242675D01*
X0218310Y0243473D02*
X0014346Y0243473D01*
X0014346Y0244272D02*
X0217980Y0244272D01*
X0217649Y0245070D02*
X0014346Y0245070D01*
X0014346Y0245869D02*
X0217528Y0245869D01*
X0217528Y0246667D02*
X0014346Y0246667D01*
X0014346Y0247466D02*
X0217528Y0247466D01*
X0217803Y0248264D02*
X0014346Y0248264D01*
X0014346Y0249063D02*
X0218134Y0249063D01*
X0218577Y0249861D02*
X0014346Y0249861D01*
X0014346Y0250660D02*
X0219375Y0250660D01*
X0220464Y0251458D02*
X0014346Y0251458D01*
X0014346Y0260242D02*
X0330496Y0260242D01*
X0330013Y0261040D02*
X0014346Y0261040D01*
X0014346Y0261839D02*
X0329811Y0261839D01*
X0329812Y0262637D02*
X0014346Y0262637D01*
X0014346Y0263436D02*
X0330143Y0263436D01*
X0330810Y0264234D02*
X0014346Y0264234D01*
X0014346Y0265033D02*
X0360390Y0265033D01*
X0359931Y0265223D02*
X0361783Y0264456D01*
X0363787Y0264456D01*
X0365639Y0265223D01*
X0367057Y0266641D01*
X0367824Y0268493D01*
X0367824Y0270497D01*
X0367057Y0272349D01*
X0365639Y0273766D01*
X0363787Y0274533D01*
X0361783Y0274533D01*
X0359931Y0273766D01*
X0358514Y0272349D01*
X0357746Y0270497D01*
X0357746Y0268493D01*
X0358514Y0266641D01*
X0359931Y0265223D01*
X0359323Y0265832D02*
X0014346Y0265832D01*
X0014346Y0266630D02*
X0358524Y0266630D01*
X0358187Y0267429D02*
X0014346Y0267429D01*
X0014346Y0268227D02*
X0357856Y0268227D01*
X0357746Y0269026D02*
X0347424Y0269026D01*
X0347826Y0269192D02*
X0348994Y0270360D01*
X0349626Y0271887D01*
X0349626Y0273539D01*
X0348994Y0275065D01*
X0347826Y0276233D01*
X0346299Y0276865D01*
X0344647Y0276865D01*
X0343121Y0276233D01*
X0341953Y0275065D01*
X0341320Y0273539D01*
X0341320Y0271887D01*
X0341953Y0270360D01*
X0343121Y0269192D01*
X0344647Y0268560D01*
X0346299Y0268560D01*
X0347826Y0269192D01*
X0348458Y0269824D02*
X0357746Y0269824D01*
X0357798Y0270623D02*
X0349102Y0270623D01*
X0349433Y0271421D02*
X0358129Y0271421D01*
X0358460Y0272220D02*
X0349626Y0272220D01*
X0349626Y0273018D02*
X0359183Y0273018D01*
X0360052Y0273817D02*
X0349511Y0273817D01*
X0349180Y0274615D02*
X0515026Y0274615D01*
X0515026Y0273817D02*
X0465282Y0273817D01*
X0465403Y0273766D02*
X0463551Y0274533D01*
X0461547Y0274533D01*
X0459695Y0273766D01*
X0458277Y0272349D01*
X0457510Y0270497D01*
X0457510Y0268493D01*
X0458277Y0266641D01*
X0459695Y0265223D01*
X0461547Y0264456D01*
X0463551Y0264456D01*
X0465403Y0265223D01*
X0466820Y0266641D01*
X0467587Y0268493D01*
X0467587Y0270497D01*
X0466820Y0272349D01*
X0465403Y0273766D01*
X0466151Y0273018D02*
X0515026Y0273018D01*
X0515026Y0272220D02*
X0466874Y0272220D01*
X0467205Y0271421D02*
X0515026Y0271421D01*
X0515026Y0270623D02*
X0467535Y0270623D01*
X0467587Y0269824D02*
X0515026Y0269824D01*
X0515026Y0269026D02*
X0467587Y0269026D01*
X0467477Y0268227D02*
X0515026Y0268227D01*
X0515026Y0267429D02*
X0467147Y0267429D01*
X0466810Y0266630D02*
X0515026Y0266630D01*
X0515026Y0265832D02*
X0466011Y0265832D01*
X0464943Y0265033D02*
X0515026Y0265033D01*
X0515026Y0264234D02*
X0334387Y0264234D01*
X0335055Y0263436D02*
X0515026Y0263436D01*
X0515026Y0262637D02*
X0335385Y0262637D01*
X0335386Y0261839D02*
X0515026Y0261839D01*
X0515026Y0261040D02*
X0336781Y0261040D01*
X0337481Y0260242D02*
X0515026Y0260242D01*
X0515026Y0275414D02*
X0348645Y0275414D01*
X0347847Y0276212D02*
X0515026Y0276212D01*
X0515026Y0277011D02*
X0191903Y0277011D01*
X0191862Y0277110D02*
X0192286Y0276086D01*
X0192286Y0274977D01*
X0191862Y0273952D01*
X0191078Y0273168D01*
X0190053Y0272744D01*
X0189136Y0272744D01*
X0189136Y0271777D01*
X0188712Y0270752D01*
X0187928Y0269968D01*
X0186903Y0269544D01*
X0185794Y0269544D01*
X0184770Y0269968D01*
X0183986Y0270752D01*
X0183561Y0271777D01*
X0183561Y0272886D01*
X0183986Y0273910D01*
X0184770Y0274694D01*
X0185794Y0275118D01*
X0186711Y0275118D01*
X0186711Y0276086D01*
X0187136Y0277110D01*
X0187920Y0277894D01*
X0188944Y0278318D01*
X0190053Y0278318D01*
X0191078Y0277894D01*
X0191862Y0277110D01*
X0192234Y0276212D02*
X0213225Y0276212D01*
X0213297Y0276264D02*
X0212768Y0275880D01*
X0212306Y0275418D01*
X0211921Y0274889D01*
X0211625Y0274307D01*
X0211423Y0273685D01*
X0211332Y0273113D01*
X0215073Y0273113D01*
X0215073Y0276854D01*
X0214501Y0276763D01*
X0213879Y0276561D01*
X0213297Y0276264D01*
X0212303Y0275414D02*
X0192286Y0275414D01*
X0192136Y0274615D02*
X0211782Y0274615D01*
X0211465Y0273817D02*
X0191726Y0273817D01*
X0190716Y0273018D02*
X0215073Y0273018D01*
X0215073Y0273113D02*
X0215073Y0272313D01*
X0211332Y0272313D01*
X0211423Y0271740D01*
X0211625Y0271118D01*
X0211921Y0270536D01*
X0212306Y0270007D01*
X0212768Y0269545D01*
X0213297Y0269161D01*
X0213879Y0268864D01*
X0214501Y0268662D01*
X0215073Y0268571D01*
X0215073Y0272313D01*
X0215873Y0272313D01*
X0215873Y0273113D01*
X0215073Y0273113D01*
X0215073Y0273817D02*
X0215873Y0273817D01*
X0215873Y0273113D02*
X0215873Y0276854D01*
X0216446Y0276763D01*
X0217067Y0276561D01*
X0217650Y0276264D01*
X0218179Y0275880D01*
X0218641Y0275418D01*
X0219025Y0274889D01*
X0219322Y0274307D01*
X0219524Y0273685D01*
X0219614Y0273113D01*
X0215873Y0273113D01*
X0215873Y0273018D02*
X0221320Y0273018D01*
X0221320Y0273539D02*
X0221320Y0271887D01*
X0221953Y0270360D01*
X0223121Y0269192D01*
X0224647Y0268560D01*
X0226299Y0268560D01*
X0227826Y0269192D01*
X0228994Y0270360D01*
X0229626Y0271887D01*
X0229626Y0273539D01*
X0228994Y0275065D01*
X0227826Y0276233D01*
X0226299Y0276865D01*
X0224647Y0276865D01*
X0223121Y0276233D01*
X0221953Y0275065D01*
X0221320Y0273539D01*
X0221436Y0273817D02*
X0219481Y0273817D01*
X0219165Y0274615D02*
X0221766Y0274615D01*
X0222301Y0275414D02*
X0218644Y0275414D01*
X0217722Y0276212D02*
X0223100Y0276212D01*
X0224532Y0278608D02*
X0216102Y0278608D01*
X0215873Y0278608D02*
X0215073Y0278608D01*
X0214844Y0278608D02*
X0014346Y0278608D01*
X0014346Y0279406D02*
X0212959Y0279406D01*
X0212162Y0280205D02*
X0014346Y0280205D01*
X0014346Y0281003D02*
X0211683Y0281003D01*
X0211413Y0281802D02*
X0014346Y0281802D01*
X0014346Y0282600D02*
X0215073Y0282600D01*
X0215073Y0281802D02*
X0215873Y0281802D01*
X0215873Y0282313D02*
X0215873Y0278571D01*
X0216446Y0278662D01*
X0217067Y0278864D01*
X0217650Y0279161D01*
X0218179Y0279545D01*
X0218641Y0280007D01*
X0219025Y0280536D01*
X0219322Y0281118D01*
X0219524Y0281740D01*
X0219614Y0282313D01*
X0215873Y0282313D01*
X0215873Y0282600D02*
X0221320Y0282600D01*
X0221320Y0283399D02*
X0219569Y0283399D01*
X0219357Y0284197D02*
X0221593Y0284197D01*
X0221924Y0284996D02*
X0218947Y0284996D01*
X0218264Y0285794D02*
X0222682Y0285794D01*
X0223989Y0286593D02*
X0216970Y0286593D01*
X0213977Y0286593D02*
X0015349Y0286593D01*
X0014560Y0285794D02*
X0212682Y0285794D01*
X0211999Y0284996D02*
X0014352Y0284996D01*
X0014346Y0284197D02*
X0211589Y0284197D01*
X0211377Y0283399D02*
X0014346Y0283399D01*
X0014346Y0277809D02*
X0187835Y0277809D01*
X0187095Y0277011D02*
X0014346Y0277011D01*
X0014346Y0276212D02*
X0186764Y0276212D01*
X0186711Y0275414D02*
X0014346Y0275414D01*
X0014346Y0274615D02*
X0184691Y0274615D01*
X0183947Y0273817D02*
X0014346Y0273817D01*
X0014346Y0273018D02*
X0183616Y0273018D01*
X0183561Y0272220D02*
X0014346Y0272220D01*
X0014346Y0271421D02*
X0183709Y0271421D01*
X0184115Y0270623D02*
X0014346Y0270623D01*
X0014346Y0269824D02*
X0185117Y0269824D01*
X0187580Y0269824D02*
X0212489Y0269824D01*
X0211877Y0270623D02*
X0188582Y0270623D01*
X0188989Y0271421D02*
X0211526Y0271421D01*
X0211347Y0272220D02*
X0189136Y0272220D01*
X0191163Y0277809D02*
X0515026Y0277809D01*
X0515026Y0278608D02*
X0346102Y0278608D01*
X0345873Y0278608D02*
X0345073Y0278608D01*
X0344844Y0278608D02*
X0336415Y0278608D01*
X0336299Y0276865D02*
X0334647Y0276865D01*
X0333121Y0276233D01*
X0331953Y0275065D01*
X0331320Y0273539D01*
X0331320Y0271887D01*
X0331953Y0270360D01*
X0333121Y0269192D01*
X0334647Y0268560D01*
X0336299Y0268560D01*
X0337826Y0269192D01*
X0338994Y0270360D01*
X0339626Y0271887D01*
X0339626Y0273539D01*
X0338994Y0275065D01*
X0337826Y0276233D01*
X0336299Y0276865D01*
X0337847Y0276212D02*
X0343100Y0276212D01*
X0342301Y0275414D02*
X0338645Y0275414D01*
X0339180Y0274615D02*
X0341766Y0274615D01*
X0341436Y0273817D02*
X0339511Y0273817D01*
X0339626Y0273018D02*
X0341320Y0273018D01*
X0341320Y0272220D02*
X0339626Y0272220D01*
X0339433Y0271421D02*
X0341513Y0271421D01*
X0341844Y0270623D02*
X0339102Y0270623D01*
X0338458Y0269824D02*
X0342489Y0269824D01*
X0343523Y0269026D02*
X0337424Y0269026D01*
X0333523Y0269026D02*
X0327424Y0269026D01*
X0327826Y0269192D02*
X0328994Y0270360D01*
X0329626Y0271887D01*
X0329626Y0273539D01*
X0328994Y0275065D01*
X0327826Y0276233D01*
X0326299Y0276865D01*
X0324647Y0276865D01*
X0323121Y0276233D01*
X0321953Y0275065D01*
X0321320Y0273539D01*
X0321320Y0271887D01*
X0321953Y0270360D01*
X0323121Y0269192D01*
X0324647Y0268560D01*
X0326299Y0268560D01*
X0327826Y0269192D01*
X0328458Y0269824D02*
X0332489Y0269824D01*
X0331844Y0270623D02*
X0329102Y0270623D01*
X0329433Y0271421D02*
X0331513Y0271421D01*
X0331320Y0272220D02*
X0329626Y0272220D01*
X0329626Y0273018D02*
X0331320Y0273018D01*
X0331436Y0273817D02*
X0329511Y0273817D01*
X0329180Y0274615D02*
X0331766Y0274615D01*
X0332301Y0275414D02*
X0328645Y0275414D01*
X0327847Y0276212D02*
X0333100Y0276212D01*
X0334532Y0278608D02*
X0326415Y0278608D01*
X0328040Y0279406D02*
X0332907Y0279406D01*
X0332108Y0280205D02*
X0328838Y0280205D01*
X0329260Y0281003D02*
X0331686Y0281003D01*
X0331356Y0281802D02*
X0329591Y0281802D01*
X0329626Y0282600D02*
X0331320Y0282600D01*
X0331320Y0283399D02*
X0329626Y0283399D01*
X0329353Y0284197D02*
X0331593Y0284197D01*
X0331924Y0284996D02*
X0329022Y0284996D01*
X0328264Y0285794D02*
X0332682Y0285794D01*
X0333989Y0286593D02*
X0326957Y0286593D01*
X0323989Y0286593D02*
X0316957Y0286593D01*
X0318264Y0285794D02*
X0322682Y0285794D01*
X0321924Y0284996D02*
X0319022Y0284996D01*
X0319353Y0284197D02*
X0321593Y0284197D01*
X0321320Y0283399D02*
X0319626Y0283399D01*
X0319626Y0282600D02*
X0321320Y0282600D01*
X0321356Y0281802D02*
X0319591Y0281802D01*
X0319260Y0281003D02*
X0321686Y0281003D01*
X0322108Y0280205D02*
X0318838Y0280205D01*
X0318040Y0279406D02*
X0322907Y0279406D01*
X0324532Y0278608D02*
X0316415Y0278608D01*
X0316299Y0276865D02*
X0314647Y0276865D01*
X0313121Y0276233D01*
X0311953Y0275065D01*
X0311320Y0273539D01*
X0311320Y0271887D01*
X0311953Y0270360D01*
X0313121Y0269192D01*
X0314647Y0268560D01*
X0316299Y0268560D01*
X0317826Y0269192D01*
X0318994Y0270360D01*
X0319626Y0271887D01*
X0319626Y0273539D01*
X0318994Y0275065D01*
X0317826Y0276233D01*
X0316299Y0276865D01*
X0317847Y0276212D02*
X0323100Y0276212D01*
X0322301Y0275414D02*
X0318645Y0275414D01*
X0319180Y0274615D02*
X0321766Y0274615D01*
X0321436Y0273817D02*
X0319511Y0273817D01*
X0319626Y0273018D02*
X0321320Y0273018D01*
X0321320Y0272220D02*
X0319626Y0272220D01*
X0319433Y0271421D02*
X0321513Y0271421D01*
X0321844Y0270623D02*
X0319102Y0270623D01*
X0318458Y0269824D02*
X0322489Y0269824D01*
X0323523Y0269026D02*
X0317424Y0269026D01*
X0313523Y0269026D02*
X0307424Y0269026D01*
X0307826Y0269192D02*
X0308994Y0270360D01*
X0309626Y0271887D01*
X0309626Y0273539D01*
X0308994Y0275065D01*
X0307826Y0276233D01*
X0306299Y0276865D01*
X0304647Y0276865D01*
X0303121Y0276233D01*
X0301953Y0275065D01*
X0301320Y0273539D01*
X0301320Y0271887D01*
X0301953Y0270360D01*
X0303121Y0269192D01*
X0304647Y0268560D01*
X0306299Y0268560D01*
X0307826Y0269192D01*
X0308458Y0269824D02*
X0312489Y0269824D01*
X0311844Y0270623D02*
X0309102Y0270623D01*
X0309433Y0271421D02*
X0311513Y0271421D01*
X0311320Y0272220D02*
X0309626Y0272220D01*
X0309626Y0273018D02*
X0311320Y0273018D01*
X0311436Y0273817D02*
X0309511Y0273817D01*
X0309180Y0274615D02*
X0311766Y0274615D01*
X0312301Y0275414D02*
X0308645Y0275414D01*
X0307847Y0276212D02*
X0313100Y0276212D01*
X0314532Y0278608D02*
X0306415Y0278608D01*
X0308040Y0279406D02*
X0312907Y0279406D01*
X0312108Y0280205D02*
X0308838Y0280205D01*
X0309260Y0281003D02*
X0311686Y0281003D01*
X0311356Y0281802D02*
X0309591Y0281802D01*
X0309626Y0282600D02*
X0311320Y0282600D01*
X0311320Y0283399D02*
X0309626Y0283399D01*
X0309353Y0284197D02*
X0311593Y0284197D01*
X0311924Y0284996D02*
X0309022Y0284996D01*
X0308264Y0285794D02*
X0312682Y0285794D01*
X0313989Y0286593D02*
X0306957Y0286593D01*
X0303989Y0286593D02*
X0296957Y0286593D01*
X0298264Y0285794D02*
X0302682Y0285794D01*
X0301924Y0284996D02*
X0299022Y0284996D01*
X0299353Y0284197D02*
X0301593Y0284197D01*
X0301320Y0283399D02*
X0299626Y0283399D01*
X0299626Y0282600D02*
X0301320Y0282600D01*
X0301356Y0281802D02*
X0299591Y0281802D01*
X0299260Y0281003D02*
X0301686Y0281003D01*
X0302108Y0280205D02*
X0298838Y0280205D01*
X0298040Y0279406D02*
X0302907Y0279406D01*
X0304532Y0278608D02*
X0296415Y0278608D01*
X0296299Y0276865D02*
X0294647Y0276865D01*
X0293121Y0276233D01*
X0291953Y0275065D01*
X0291320Y0273539D01*
X0291320Y0271887D01*
X0291953Y0270360D01*
X0293121Y0269192D01*
X0294647Y0268560D01*
X0296299Y0268560D01*
X0297826Y0269192D01*
X0298994Y0270360D01*
X0299626Y0271887D01*
X0299626Y0273539D01*
X0298994Y0275065D01*
X0297826Y0276233D01*
X0296299Y0276865D01*
X0297847Y0276212D02*
X0303100Y0276212D01*
X0302301Y0275414D02*
X0298645Y0275414D01*
X0299180Y0274615D02*
X0301766Y0274615D01*
X0301436Y0273817D02*
X0299511Y0273817D01*
X0299626Y0273018D02*
X0301320Y0273018D01*
X0301320Y0272220D02*
X0299626Y0272220D01*
X0299433Y0271421D02*
X0301513Y0271421D01*
X0301844Y0270623D02*
X0299102Y0270623D01*
X0298458Y0269824D02*
X0302489Y0269824D01*
X0303523Y0269026D02*
X0297424Y0269026D01*
X0293523Y0269026D02*
X0287424Y0269026D01*
X0287826Y0269192D02*
X0286299Y0268560D01*
X0284647Y0268560D01*
X0283121Y0269192D01*
X0281953Y0270360D01*
X0281320Y0271887D01*
X0281320Y0273539D01*
X0281953Y0275065D01*
X0283121Y0276233D01*
X0284647Y0276865D01*
X0286299Y0276865D01*
X0287826Y0276233D01*
X0288994Y0275065D01*
X0289626Y0273539D01*
X0289626Y0271887D01*
X0288994Y0270360D01*
X0287826Y0269192D01*
X0288458Y0269824D02*
X0292489Y0269824D01*
X0291844Y0270623D02*
X0289102Y0270623D01*
X0289433Y0271421D02*
X0291513Y0271421D01*
X0291320Y0272220D02*
X0289626Y0272220D01*
X0289626Y0273018D02*
X0291320Y0273018D01*
X0291436Y0273817D02*
X0289511Y0273817D01*
X0289180Y0274615D02*
X0291766Y0274615D01*
X0292301Y0275414D02*
X0288645Y0275414D01*
X0287847Y0276212D02*
X0293100Y0276212D01*
X0294532Y0278608D02*
X0286415Y0278608D01*
X0288040Y0279406D02*
X0292907Y0279406D01*
X0292108Y0280205D02*
X0288838Y0280205D01*
X0289260Y0281003D02*
X0291686Y0281003D01*
X0291356Y0281802D02*
X0289591Y0281802D01*
X0289626Y0282600D02*
X0291320Y0282600D01*
X0291320Y0283399D02*
X0289626Y0283399D01*
X0289353Y0284197D02*
X0291593Y0284197D01*
X0291924Y0284996D02*
X0289022Y0284996D01*
X0288264Y0285794D02*
X0292682Y0285794D01*
X0293989Y0286593D02*
X0286957Y0286593D01*
X0283989Y0286593D02*
X0276957Y0286593D01*
X0278264Y0285794D02*
X0282682Y0285794D01*
X0281924Y0284996D02*
X0279022Y0284996D01*
X0279353Y0284197D02*
X0281593Y0284197D01*
X0281320Y0283399D02*
X0279626Y0283399D01*
X0279626Y0282600D02*
X0281320Y0282600D01*
X0281356Y0281802D02*
X0279591Y0281802D01*
X0279260Y0281003D02*
X0281686Y0281003D01*
X0282108Y0280205D02*
X0278838Y0280205D01*
X0278040Y0279406D02*
X0282907Y0279406D01*
X0284532Y0278608D02*
X0276415Y0278608D01*
X0276299Y0276865D02*
X0274647Y0276865D01*
X0273121Y0276233D01*
X0271953Y0275065D01*
X0271320Y0273539D01*
X0271320Y0271887D01*
X0271953Y0270360D01*
X0273121Y0269192D01*
X0274647Y0268560D01*
X0276299Y0268560D01*
X0277826Y0269192D01*
X0278994Y0270360D01*
X0279626Y0271887D01*
X0279626Y0273539D01*
X0278994Y0275065D01*
X0277826Y0276233D01*
X0276299Y0276865D01*
X0277847Y0276212D02*
X0283100Y0276212D01*
X0282301Y0275414D02*
X0278645Y0275414D01*
X0279180Y0274615D02*
X0281766Y0274615D01*
X0281436Y0273817D02*
X0279511Y0273817D01*
X0279626Y0273018D02*
X0281320Y0273018D01*
X0281320Y0272220D02*
X0279626Y0272220D01*
X0279433Y0271421D02*
X0281513Y0271421D01*
X0281844Y0270623D02*
X0279102Y0270623D01*
X0278458Y0269824D02*
X0282489Y0269824D01*
X0283523Y0269026D02*
X0277424Y0269026D01*
X0273523Y0269026D02*
X0267424Y0269026D01*
X0267826Y0269192D02*
X0268994Y0270360D01*
X0269626Y0271887D01*
X0269626Y0273539D01*
X0268994Y0275065D01*
X0267826Y0276233D01*
X0266299Y0276865D01*
X0264647Y0276865D01*
X0263121Y0276233D01*
X0261953Y0275065D01*
X0261320Y0273539D01*
X0261320Y0271887D01*
X0261953Y0270360D01*
X0263121Y0269192D01*
X0264647Y0268560D01*
X0266299Y0268560D01*
X0267826Y0269192D01*
X0268458Y0269824D02*
X0272489Y0269824D01*
X0271844Y0270623D02*
X0269102Y0270623D01*
X0269433Y0271421D02*
X0271513Y0271421D01*
X0271320Y0272220D02*
X0269626Y0272220D01*
X0269626Y0273018D02*
X0271320Y0273018D01*
X0271436Y0273817D02*
X0269511Y0273817D01*
X0269180Y0274615D02*
X0271766Y0274615D01*
X0272301Y0275414D02*
X0268645Y0275414D01*
X0267847Y0276212D02*
X0273100Y0276212D01*
X0274532Y0278608D02*
X0266415Y0278608D01*
X0268040Y0279406D02*
X0272907Y0279406D01*
X0272108Y0280205D02*
X0268838Y0280205D01*
X0269260Y0281003D02*
X0271686Y0281003D01*
X0271356Y0281802D02*
X0269591Y0281802D01*
X0269626Y0282600D02*
X0271320Y0282600D01*
X0271320Y0283399D02*
X0269626Y0283399D01*
X0269353Y0284197D02*
X0271593Y0284197D01*
X0271924Y0284996D02*
X0269022Y0284996D01*
X0268264Y0285794D02*
X0272682Y0285794D01*
X0273989Y0286593D02*
X0266957Y0286593D01*
X0263989Y0286593D02*
X0256957Y0286593D01*
X0258264Y0285794D02*
X0262682Y0285794D01*
X0261924Y0284996D02*
X0259022Y0284996D01*
X0259353Y0284197D02*
X0261593Y0284197D01*
X0261320Y0283399D02*
X0259626Y0283399D01*
X0259626Y0282600D02*
X0261320Y0282600D01*
X0261356Y0281802D02*
X0259591Y0281802D01*
X0259260Y0281003D02*
X0261686Y0281003D01*
X0262108Y0280205D02*
X0258838Y0280205D01*
X0258040Y0279406D02*
X0262907Y0279406D01*
X0264532Y0278608D02*
X0256415Y0278608D01*
X0256299Y0276865D02*
X0254647Y0276865D01*
X0253121Y0276233D01*
X0251953Y0275065D01*
X0251320Y0273539D01*
X0251320Y0271887D01*
X0251953Y0270360D01*
X0253121Y0269192D01*
X0254647Y0268560D01*
X0256299Y0268560D01*
X0257826Y0269192D01*
X0258994Y0270360D01*
X0259626Y0271887D01*
X0259626Y0273539D01*
X0258994Y0275065D01*
X0257826Y0276233D01*
X0256299Y0276865D01*
X0257847Y0276212D02*
X0263100Y0276212D01*
X0262301Y0275414D02*
X0258645Y0275414D01*
X0259180Y0274615D02*
X0261766Y0274615D01*
X0261436Y0273817D02*
X0259511Y0273817D01*
X0259626Y0273018D02*
X0261320Y0273018D01*
X0261320Y0272220D02*
X0259626Y0272220D01*
X0259433Y0271421D02*
X0261513Y0271421D01*
X0261844Y0270623D02*
X0259102Y0270623D01*
X0258458Y0269824D02*
X0262489Y0269824D01*
X0263523Y0269026D02*
X0257424Y0269026D01*
X0253523Y0269026D02*
X0247424Y0269026D01*
X0247826Y0269192D02*
X0248994Y0270360D01*
X0249626Y0271887D01*
X0249626Y0273539D01*
X0248994Y0275065D01*
X0247826Y0276233D01*
X0246299Y0276865D01*
X0244647Y0276865D01*
X0243121Y0276233D01*
X0241953Y0275065D01*
X0241320Y0273539D01*
X0241320Y0271887D01*
X0241953Y0270360D01*
X0243121Y0269192D01*
X0244647Y0268560D01*
X0246299Y0268560D01*
X0247826Y0269192D01*
X0248458Y0269824D02*
X0252489Y0269824D01*
X0251844Y0270623D02*
X0249102Y0270623D01*
X0249433Y0271421D02*
X0251513Y0271421D01*
X0251320Y0272220D02*
X0249626Y0272220D01*
X0249626Y0273018D02*
X0251320Y0273018D01*
X0251436Y0273817D02*
X0249511Y0273817D01*
X0249180Y0274615D02*
X0251766Y0274615D01*
X0252301Y0275414D02*
X0248645Y0275414D01*
X0247847Y0276212D02*
X0253100Y0276212D01*
X0254532Y0278608D02*
X0246415Y0278608D01*
X0248040Y0279406D02*
X0252907Y0279406D01*
X0252108Y0280205D02*
X0248838Y0280205D01*
X0249260Y0281003D02*
X0251686Y0281003D01*
X0251356Y0281802D02*
X0249591Y0281802D01*
X0249626Y0282600D02*
X0251320Y0282600D01*
X0251320Y0283399D02*
X0249626Y0283399D01*
X0249353Y0284197D02*
X0251593Y0284197D01*
X0251924Y0284996D02*
X0249022Y0284996D01*
X0248264Y0285794D02*
X0252682Y0285794D01*
X0253989Y0286593D02*
X0246957Y0286593D01*
X0243989Y0286593D02*
X0236957Y0286593D01*
X0238264Y0285794D02*
X0242682Y0285794D01*
X0241924Y0284996D02*
X0239022Y0284996D01*
X0239353Y0284197D02*
X0241593Y0284197D01*
X0241320Y0283399D02*
X0239626Y0283399D01*
X0239626Y0282600D02*
X0241320Y0282600D01*
X0241356Y0281802D02*
X0239591Y0281802D01*
X0239260Y0281003D02*
X0241686Y0281003D01*
X0242108Y0280205D02*
X0238838Y0280205D01*
X0238040Y0279406D02*
X0242907Y0279406D01*
X0244532Y0278608D02*
X0236415Y0278608D01*
X0236299Y0276865D02*
X0234647Y0276865D01*
X0233121Y0276233D01*
X0231953Y0275065D01*
X0231320Y0273539D01*
X0231320Y0271887D01*
X0231953Y0270360D01*
X0233121Y0269192D01*
X0234647Y0268560D01*
X0236299Y0268560D01*
X0237826Y0269192D01*
X0238994Y0270360D01*
X0239626Y0271887D01*
X0239626Y0273539D01*
X0238994Y0275065D01*
X0237826Y0276233D01*
X0236299Y0276865D01*
X0237847Y0276212D02*
X0243100Y0276212D01*
X0242301Y0275414D02*
X0238645Y0275414D01*
X0239180Y0274615D02*
X0241766Y0274615D01*
X0241436Y0273817D02*
X0239511Y0273817D01*
X0239626Y0273018D02*
X0241320Y0273018D01*
X0241320Y0272220D02*
X0239626Y0272220D01*
X0239433Y0271421D02*
X0241513Y0271421D01*
X0241844Y0270623D02*
X0239102Y0270623D01*
X0238458Y0269824D02*
X0242489Y0269824D01*
X0243523Y0269026D02*
X0237424Y0269026D01*
X0233523Y0269026D02*
X0227424Y0269026D01*
X0228458Y0269824D02*
X0232489Y0269824D01*
X0231844Y0270623D02*
X0229102Y0270623D01*
X0229433Y0271421D02*
X0231513Y0271421D01*
X0231320Y0272220D02*
X0229626Y0272220D01*
X0229626Y0273018D02*
X0231320Y0273018D01*
X0231436Y0273817D02*
X0229511Y0273817D01*
X0229180Y0274615D02*
X0231766Y0274615D01*
X0232301Y0275414D02*
X0228645Y0275414D01*
X0227847Y0276212D02*
X0233100Y0276212D01*
X0234532Y0278608D02*
X0226415Y0278608D01*
X0228040Y0279406D02*
X0232907Y0279406D01*
X0232108Y0280205D02*
X0228838Y0280205D01*
X0229260Y0281003D02*
X0231686Y0281003D01*
X0231356Y0281802D02*
X0229591Y0281802D01*
X0229626Y0282600D02*
X0231320Y0282600D01*
X0231320Y0283399D02*
X0229626Y0283399D01*
X0229353Y0284197D02*
X0231593Y0284197D01*
X0231924Y0284996D02*
X0229022Y0284996D01*
X0228264Y0285794D02*
X0232682Y0285794D01*
X0233989Y0286593D02*
X0226957Y0286593D01*
X0221356Y0281802D02*
X0219533Y0281802D01*
X0219263Y0281003D02*
X0221686Y0281003D01*
X0222108Y0280205D02*
X0218784Y0280205D01*
X0217987Y0279406D02*
X0222907Y0279406D01*
X0215873Y0279406D02*
X0215073Y0279406D01*
X0215073Y0280205D02*
X0215873Y0280205D01*
X0215873Y0281003D02*
X0215073Y0281003D01*
X0215073Y0276212D02*
X0215873Y0276212D01*
X0215873Y0275414D02*
X0215073Y0275414D01*
X0215073Y0274615D02*
X0215873Y0274615D01*
X0215873Y0272313D02*
X0219614Y0272313D01*
X0219524Y0271740D01*
X0219322Y0271118D01*
X0219025Y0270536D01*
X0218641Y0270007D01*
X0218179Y0269545D01*
X0217650Y0269161D01*
X0217067Y0268864D01*
X0216446Y0268662D01*
X0215873Y0268571D01*
X0215873Y0272313D01*
X0215873Y0272220D02*
X0215073Y0272220D01*
X0215073Y0271421D02*
X0215873Y0271421D01*
X0215873Y0270623D02*
X0215073Y0270623D01*
X0215073Y0269824D02*
X0215873Y0269824D01*
X0215873Y0269026D02*
X0215073Y0269026D01*
X0213562Y0269026D02*
X0014346Y0269026D01*
X0192125Y0199555D02*
X0378998Y0199555D01*
X0378687Y0198757D02*
X0265815Y0198757D01*
X0266437Y0197958D02*
X0318584Y0197958D01*
X0317961Y0197160D02*
X0266736Y0197160D01*
X0266736Y0196361D02*
X0317661Y0196361D01*
X0317661Y0195563D02*
X0266503Y0195563D01*
X0265974Y0194764D02*
X0317894Y0194764D01*
X0318422Y0193966D02*
X0264677Y0193966D01*
X0261161Y0197160D02*
X0194520Y0197160D01*
X0193722Y0197958D02*
X0261461Y0197958D01*
X0262082Y0198757D02*
X0192923Y0198757D01*
X0205395Y0201152D02*
X0339836Y0201152D01*
X0339212Y0201951D02*
X0206194Y0201951D01*
X0206862Y0202749D02*
X0338911Y0202749D01*
X0338911Y0203548D02*
X0303904Y0203548D01*
X0303653Y0203444D02*
X0304678Y0203868D01*
X0305462Y0204652D01*
X0305886Y0205677D01*
X0305886Y0206786D01*
X0305462Y0207810D01*
X0304678Y0208594D01*
X0303653Y0209018D01*
X0302544Y0209018D01*
X0301520Y0208594D01*
X0300736Y0207810D01*
X0300311Y0206786D01*
X0300311Y0205677D01*
X0300736Y0204652D01*
X0301520Y0203868D01*
X0302544Y0203444D01*
X0303653Y0203444D01*
X0302293Y0203548D02*
X0207193Y0203548D01*
X0207524Y0204346D02*
X0221981Y0204346D01*
X0220053Y0205145D02*
X0207537Y0205145D01*
X0207537Y0205943D02*
X0219235Y0205943D01*
X0218436Y0206742D02*
X0207389Y0206742D01*
X0207058Y0207540D02*
X0218105Y0207540D01*
X0217774Y0208339D02*
X0206667Y0208339D01*
X0205868Y0209137D02*
X0217578Y0209137D01*
X0217578Y0209936D02*
X0204669Y0209936D01*
X0204513Y0215525D02*
X0222003Y0215525D01*
X0224411Y0215525D02*
X0279761Y0215525D01*
X0279761Y0216036D02*
X0279761Y0214927D01*
X0280186Y0213902D01*
X0280970Y0213118D01*
X0281994Y0212694D01*
X0283103Y0212694D01*
X0284128Y0213118D01*
X0284912Y0213902D01*
X0285336Y0214927D01*
X0285336Y0216036D01*
X0284912Y0217060D01*
X0284128Y0217844D01*
X0283103Y0218268D01*
X0281994Y0218268D01*
X0280970Y0217844D01*
X0280186Y0217060D01*
X0279761Y0216036D01*
X0279881Y0216324D02*
X0205803Y0216324D01*
X0206602Y0217122D02*
X0280248Y0217122D01*
X0281155Y0217921D02*
X0207031Y0217921D01*
X0207362Y0218719D02*
X0322558Y0218719D01*
X0322461Y0217921D02*
X0283943Y0217921D01*
X0284850Y0217122D02*
X0322567Y0217122D01*
X0322850Y0216324D02*
X0285217Y0216324D01*
X0285336Y0215525D02*
X0310586Y0215525D01*
X0308658Y0214727D02*
X0285253Y0214727D01*
X0284923Y0213928D02*
X0307827Y0213928D01*
X0307028Y0213130D02*
X0284139Y0213130D01*
X0280958Y0213130D02*
X0227970Y0213130D01*
X0228306Y0212331D02*
X0306691Y0212331D01*
X0306361Y0211533D02*
X0228637Y0211533D01*
X0228837Y0210734D02*
X0306161Y0210734D01*
X0306161Y0209936D02*
X0228837Y0209936D01*
X0228837Y0209137D02*
X0256363Y0209137D01*
X0256370Y0209144D02*
X0255586Y0208360D01*
X0255161Y0207336D01*
X0255161Y0206227D01*
X0255586Y0205202D01*
X0256370Y0204418D01*
X0257394Y0203994D01*
X0258503Y0203994D01*
X0259528Y0204418D01*
X0260312Y0205202D01*
X0260736Y0206227D01*
X0260736Y0207336D01*
X0260312Y0208360D01*
X0259528Y0209144D01*
X0258503Y0209568D01*
X0257394Y0209568D01*
X0256370Y0209144D01*
X0255577Y0208339D02*
X0228641Y0208339D01*
X0228310Y0207540D02*
X0255246Y0207540D01*
X0255161Y0206742D02*
X0227979Y0206742D01*
X0227180Y0205943D02*
X0255279Y0205943D01*
X0255643Y0205145D02*
X0226362Y0205145D01*
X0224434Y0204346D02*
X0256543Y0204346D01*
X0259354Y0204346D02*
X0301042Y0204346D01*
X0300532Y0205145D02*
X0260254Y0205145D01*
X0260619Y0205943D02*
X0300311Y0205943D01*
X0300311Y0206742D02*
X0260736Y0206742D01*
X0260651Y0207540D02*
X0300624Y0207540D01*
X0301264Y0208339D02*
X0260321Y0208339D01*
X0259535Y0209137D02*
X0306161Y0209137D01*
X0306357Y0208339D02*
X0304933Y0208339D01*
X0305574Y0207540D02*
X0306688Y0207540D01*
X0307019Y0206742D02*
X0305886Y0206742D01*
X0305886Y0205943D02*
X0307817Y0205943D01*
X0308636Y0205145D02*
X0305666Y0205145D01*
X0305156Y0204346D02*
X0310564Y0204346D01*
X0313017Y0204346D02*
X0339144Y0204346D01*
X0339670Y0205145D02*
X0314944Y0205145D01*
X0316889Y0212331D02*
X0324000Y0212331D01*
X0323008Y0213130D02*
X0316552Y0213130D01*
X0315754Y0213928D02*
X0322606Y0213928D01*
X0322461Y0214727D02*
X0314922Y0214727D01*
X0312994Y0215525D02*
X0322519Y0215525D01*
X0326497Y0212331D02*
X0327150Y0212331D01*
X0329647Y0212331D02*
X0330300Y0212331D01*
X0322879Y0219518D02*
X0207537Y0219518D01*
X0197216Y0225906D02*
X0304041Y0225906D01*
X0304371Y0226704D02*
X0197749Y0226704D01*
X0197986Y0227503D02*
X0304083Y0227503D01*
X0304011Y0228301D02*
X0197986Y0228301D01*
X0197690Y0229100D02*
X0304142Y0229100D01*
X0304313Y0229899D02*
X0197073Y0229899D01*
X0224822Y0241078D02*
X0282611Y0241078D01*
X0282611Y0241876D02*
X0226513Y0241876D01*
X0227312Y0242675D02*
X0282855Y0242675D01*
X0283399Y0243473D02*
X0228004Y0243473D01*
X0246763Y0253055D02*
X0256331Y0253055D01*
X0257638Y0253854D02*
X0247094Y0253854D01*
X0223523Y0269026D02*
X0217384Y0269026D01*
X0218458Y0269824D02*
X0222489Y0269824D01*
X0221844Y0270623D02*
X0219069Y0270623D01*
X0219420Y0271421D02*
X0221513Y0271421D01*
X0221320Y0272220D02*
X0219600Y0272220D01*
X0287942Y0242675D02*
X0288025Y0242675D01*
X0295086Y0239481D02*
X0357746Y0239481D01*
X0357864Y0238682D02*
X0295086Y0238682D01*
X0294758Y0237884D02*
X0358194Y0237884D01*
X0358542Y0237085D02*
X0294095Y0237085D01*
X0311735Y0236287D02*
X0359340Y0236287D01*
X0360432Y0235488D02*
X0312404Y0235488D01*
X0279844Y0214727D02*
X0226339Y0214727D01*
X0227171Y0213928D02*
X0280175Y0213928D01*
X0322314Y0197958D02*
X0343684Y0197958D01*
X0343061Y0197160D02*
X0322936Y0197160D01*
X0323236Y0196361D02*
X0342761Y0196361D01*
X0342761Y0195563D02*
X0323236Y0195563D01*
X0344486Y0202749D02*
X0380712Y0202749D01*
X0381861Y0202749D02*
X0382636Y0202749D01*
X0382636Y0203548D02*
X0381861Y0203548D01*
X0381861Y0204346D02*
X0382636Y0204346D01*
X0382636Y0206742D02*
X0381861Y0206742D01*
X0381861Y0207540D02*
X0382636Y0207540D01*
X0382636Y0208339D02*
X0381861Y0208339D01*
X0381861Y0209137D02*
X0382636Y0209137D01*
X0378781Y0205145D02*
X0343727Y0205145D01*
X0344254Y0204346D02*
X0379065Y0204346D01*
X0379632Y0203548D02*
X0344486Y0203548D01*
X0347414Y0197958D02*
X0378687Y0197958D01*
X0378780Y0197160D02*
X0348036Y0197160D01*
X0348336Y0196361D02*
X0379111Y0196361D01*
X0379743Y0195563D02*
X0348336Y0195563D01*
X0359500Y0177995D02*
X0475994Y0177995D01*
X0475944Y0177197D02*
X0358756Y0177197D01*
X0363371Y0173204D02*
X0348085Y0173204D01*
X0348416Y0172406D02*
X0363701Y0172406D01*
X0364381Y0171607D02*
X0348486Y0171607D01*
X0348354Y0170809D02*
X0476679Y0170809D01*
X0476030Y0171607D02*
X0472151Y0171607D01*
X0472178Y0171618D02*
X0472962Y0172402D01*
X0473386Y0173427D01*
X0473386Y0174536D01*
X0472962Y0175560D01*
X0472178Y0176344D01*
X0471153Y0176768D01*
X0470044Y0176768D01*
X0469020Y0176344D01*
X0468236Y0175560D01*
X0467811Y0174536D01*
X0467811Y0173427D01*
X0468236Y0172402D01*
X0469020Y0171618D01*
X0470044Y0171194D01*
X0471153Y0171194D01*
X0472178Y0171618D01*
X0472963Y0172406D02*
X0475711Y0172406D01*
X0475711Y0173204D02*
X0473294Y0173204D01*
X0473386Y0174003D02*
X0475926Y0174003D01*
X0476012Y0174801D02*
X0473276Y0174801D01*
X0472922Y0175600D02*
X0475711Y0175600D01*
X0475711Y0176398D02*
X0472047Y0176398D01*
X0469151Y0176398D02*
X0367114Y0176398D01*
X0368272Y0175600D02*
X0468275Y0175600D01*
X0467921Y0174801D02*
X0368743Y0174801D01*
X0368936Y0174003D02*
X0467811Y0174003D01*
X0467904Y0173204D02*
X0368927Y0173204D01*
X0368596Y0172406D02*
X0468234Y0172406D01*
X0469046Y0171607D02*
X0367917Y0171607D01*
X0351729Y0170010D02*
X0347970Y0170010D01*
X0347021Y0169212D02*
X0350837Y0169212D01*
X0385717Y0197160D02*
X0506028Y0197160D01*
X0505321Y0197958D02*
X0385811Y0197958D01*
X0385811Y0198757D02*
X0504990Y0198757D01*
X0504961Y0199555D02*
X0385499Y0199555D01*
X0385027Y0200354D02*
X0505135Y0200354D01*
X0505578Y0201152D02*
X0384175Y0201152D01*
X0435513Y0189174D02*
X0515026Y0189174D01*
X0515026Y0188376D02*
X0436496Y0188376D01*
X0436895Y0187577D02*
X0515026Y0187577D01*
X0515026Y0186779D02*
X0437036Y0186779D01*
X0436976Y0185980D02*
X0515026Y0185980D01*
X0515026Y0185182D02*
X0436645Y0185182D01*
X0473047Y0162025D02*
X0479474Y0162025D01*
X0479805Y0161227D02*
X0473378Y0161227D01*
X0473436Y0160428D02*
X0480560Y0160428D01*
X0483838Y0160428D02*
X0515026Y0160428D01*
X0515026Y0159630D02*
X0473292Y0159630D01*
X0472891Y0158831D02*
X0515026Y0158831D01*
X0515026Y0158032D02*
X0471900Y0158032D01*
X0484593Y0161227D02*
X0515026Y0161227D01*
X0515026Y0162025D02*
X0484923Y0162025D01*
X0484986Y0162824D02*
X0515026Y0162824D01*
X0515026Y0163622D02*
X0484847Y0163622D01*
X0484451Y0164421D02*
X0515026Y0164421D01*
X0515026Y0165219D02*
X0483476Y0165219D01*
X0480318Y0170809D02*
X0515026Y0170809D01*
X0515026Y0171607D02*
X0480967Y0171607D01*
X0481286Y0172406D02*
X0515026Y0172406D01*
X0515026Y0173204D02*
X0481286Y0173204D01*
X0481072Y0174003D02*
X0515026Y0174003D01*
X0515026Y0174801D02*
X0480986Y0174801D01*
X0481286Y0175600D02*
X0515026Y0175600D01*
X0515026Y0176398D02*
X0481286Y0176398D01*
X0487036Y0121301D02*
X0506977Y0121301D01*
X0506505Y0120502D02*
X0486412Y0120502D01*
X0462789Y0114913D02*
X0460709Y0114913D01*
X0461305Y0114114D02*
X0462222Y0114114D01*
X0461961Y0113316D02*
X0461586Y0113316D01*
X0461586Y0112517D02*
X0461961Y0112517D01*
X0462234Y0111719D02*
X0461334Y0111719D01*
X0460780Y0110920D02*
X0462818Y0110920D01*
X0456934Y0101338D02*
X0506179Y0101338D01*
X0505849Y0102137D02*
X0405636Y0102137D01*
X0405455Y0101338D02*
X0453064Y0101338D01*
X0452482Y0100540D02*
X0404999Y0100540D01*
X0400698Y0100540D02*
X0394249Y0100540D01*
X0394705Y0101338D02*
X0400243Y0101338D01*
X0400061Y0102137D02*
X0394886Y0102137D01*
X0394866Y0102935D02*
X0400082Y0102935D01*
X0400413Y0103734D02*
X0394535Y0103734D01*
X0393840Y0104532D02*
X0401108Y0104532D01*
X0457515Y0100540D02*
X0506898Y0100540D01*
X0510299Y0100540D02*
X0510365Y0100540D01*
X0515026Y0082972D02*
X0500299Y0082972D01*
X0500755Y0082174D02*
X0515026Y0082174D01*
X0515026Y0081375D02*
X0500936Y0081375D01*
X0500916Y0080577D02*
X0515026Y0080577D01*
X0515026Y0079778D02*
X0500585Y0079778D01*
X0499890Y0078980D02*
X0515026Y0078980D01*
X0515026Y0063808D02*
X0417868Y0063808D01*
X0418811Y0063010D02*
X0432828Y0063010D01*
X0432670Y0062944D02*
X0431886Y0062160D01*
X0431461Y0061136D01*
X0431461Y0060027D01*
X0431886Y0059002D01*
X0432670Y0058218D01*
X0433694Y0057794D01*
X0434803Y0057794D01*
X0435828Y0058218D01*
X0436612Y0059002D01*
X0437036Y0060027D01*
X0437036Y0061136D01*
X0436612Y0062160D01*
X0435828Y0062944D01*
X0434803Y0063368D01*
X0433694Y0063368D01*
X0432670Y0062944D01*
X0431937Y0062211D02*
X0419380Y0062211D01*
X0419727Y0061413D02*
X0431576Y0061413D01*
X0431461Y0060614D02*
X0419910Y0060614D01*
X0419842Y0059017D02*
X0431880Y0059017D01*
X0431549Y0059816D02*
X0415899Y0059816D01*
X0415899Y0060614D02*
X0415099Y0060614D01*
X0415099Y0061413D02*
X0415899Y0061413D01*
X0415899Y0062211D02*
X0415099Y0062211D01*
X0415099Y0063010D02*
X0415899Y0063010D01*
X0415899Y0063808D02*
X0415099Y0063808D01*
X0411430Y0058219D02*
X0382919Y0058219D01*
X0383752Y0057420D02*
X0411898Y0057420D01*
X0412624Y0056622D02*
X0384088Y0056622D01*
X0384186Y0055823D02*
X0414056Y0055823D01*
X0418373Y0056622D02*
X0487038Y0056622D01*
X0486911Y0057420D02*
X0419100Y0057420D01*
X0419567Y0058219D02*
X0432669Y0058219D01*
X0435828Y0058219D02*
X0486987Y0058219D01*
X0487318Y0059017D02*
X0436618Y0059017D01*
X0436949Y0059816D02*
X0486999Y0059816D01*
X0486911Y0060614D02*
X0437036Y0060614D01*
X0436921Y0061413D02*
X0487026Y0061413D01*
X0487387Y0062211D02*
X0436561Y0062211D01*
X0435670Y0063010D02*
X0488278Y0063010D01*
X0491120Y0063010D02*
X0515026Y0063010D01*
X0515026Y0062211D02*
X0492011Y0062211D01*
X0492371Y0061413D02*
X0515026Y0061413D01*
X0515026Y0060614D02*
X0492486Y0060614D01*
X0492399Y0059816D02*
X0515026Y0059816D01*
X0515026Y0059017D02*
X0492080Y0059017D01*
X0492410Y0058219D02*
X0515026Y0058219D01*
X0515026Y0057420D02*
X0492486Y0057420D01*
X0492360Y0056622D02*
X0515026Y0056622D01*
X0515026Y0055823D02*
X0491983Y0055823D01*
X0491052Y0055025D02*
X0515026Y0055025D01*
X0515026Y0054226D02*
X0432346Y0054226D01*
X0432832Y0053428D02*
X0515026Y0053428D01*
X0515026Y0052629D02*
X0433036Y0052629D01*
X0433036Y0051830D02*
X0515026Y0051830D01*
X0515026Y0051032D02*
X0432707Y0051032D01*
X0432043Y0050233D02*
X0515026Y0050233D01*
X0421100Y0055025D02*
X0384082Y0055025D01*
X0383736Y0054226D02*
X0420702Y0054226D01*
X0343372Y0059816D02*
X0309825Y0059816D01*
X0310324Y0060614D02*
X0342786Y0060614D01*
X0333766Y0042248D02*
X0327180Y0042248D01*
X0327826Y0041981D02*
X0326299Y0042613D01*
X0324647Y0042613D01*
X0323121Y0041981D01*
X0321953Y0040813D01*
X0321320Y0039287D01*
X0321320Y0037635D01*
X0321953Y0036108D01*
X0323121Y0034940D01*
X0324647Y0034308D01*
X0326299Y0034308D01*
X0327826Y0034940D01*
X0328994Y0036108D01*
X0329626Y0037635D01*
X0329626Y0039287D01*
X0328994Y0040813D01*
X0327826Y0041981D01*
X0328357Y0041450D02*
X0332590Y0041450D01*
X0331886Y0040651D02*
X0329061Y0040651D01*
X0329391Y0039853D02*
X0331555Y0039853D01*
X0331320Y0039054D02*
X0329626Y0039054D01*
X0329626Y0038256D02*
X0331320Y0038256D01*
X0331394Y0037457D02*
X0329553Y0037457D01*
X0329222Y0036659D02*
X0331725Y0036659D01*
X0332201Y0035860D02*
X0328746Y0035860D01*
X0327947Y0035062D02*
X0332999Y0035062D01*
X0333007Y0031868D02*
X0327939Y0031868D01*
X0328738Y0031069D02*
X0332209Y0031069D01*
X0331728Y0030271D02*
X0329218Y0030271D01*
X0329549Y0029472D02*
X0331397Y0029472D01*
X0331320Y0028674D02*
X0329626Y0028674D01*
X0329626Y0027875D02*
X0331320Y0027875D01*
X0331552Y0027077D02*
X0329395Y0027077D01*
X0329064Y0026278D02*
X0331882Y0026278D01*
X0332581Y0025480D02*
X0328365Y0025480D01*
X0327200Y0024681D02*
X0333746Y0024681D01*
X0339549Y0029472D02*
X0341435Y0029472D01*
X0341735Y0030271D02*
X0339218Y0030271D01*
X0338738Y0031069D02*
X0342235Y0031069D01*
X0343098Y0031868D02*
X0337939Y0031868D01*
X0345073Y0031868D02*
X0345873Y0031868D01*
X0345873Y0031069D02*
X0345073Y0031069D01*
X0345073Y0030271D02*
X0345873Y0030271D01*
X0323746Y0024681D02*
X0317200Y0024681D01*
X0318365Y0025480D02*
X0322581Y0025480D01*
X0321882Y0026278D02*
X0319064Y0026278D01*
X0319395Y0027077D02*
X0321552Y0027077D01*
X0321320Y0027875D02*
X0319626Y0027875D01*
X0319626Y0028674D02*
X0321320Y0028674D01*
X0321397Y0029472D02*
X0319549Y0029472D01*
X0319218Y0030271D02*
X0321728Y0030271D01*
X0322209Y0031069D02*
X0318738Y0031069D01*
X0317939Y0031868D02*
X0323007Y0031868D01*
X0322999Y0035062D02*
X0317947Y0035062D01*
X0318746Y0035860D02*
X0322201Y0035860D01*
X0321725Y0036659D02*
X0319222Y0036659D01*
X0319553Y0037457D02*
X0321394Y0037457D01*
X0321320Y0038256D02*
X0319626Y0038256D01*
X0319626Y0039054D02*
X0321320Y0039054D01*
X0321555Y0039853D02*
X0319391Y0039853D01*
X0319061Y0040651D02*
X0321886Y0040651D01*
X0322590Y0041450D02*
X0318357Y0041450D01*
X0317180Y0042248D02*
X0323766Y0042248D01*
X0248801Y0185980D02*
X0204471Y0185980D01*
X0205786Y0186779D02*
X0248761Y0186779D01*
X0248924Y0187577D02*
X0206585Y0187577D01*
X0207024Y0188376D02*
X0249352Y0188376D01*
X0250405Y0189174D02*
X0207355Y0189174D01*
X0365138Y0235488D02*
X0380275Y0235488D01*
X0379773Y0235696D02*
X0381625Y0234929D01*
X0383630Y0234929D01*
X0385482Y0235696D01*
X0386899Y0237113D01*
X0387666Y0238965D01*
X0387666Y0240970D01*
X0386899Y0242821D01*
X0385482Y0244239D01*
X0383630Y0245006D01*
X0381625Y0245006D01*
X0379773Y0244239D01*
X0378356Y0242821D01*
X0377589Y0240970D01*
X0377589Y0238965D01*
X0378356Y0237113D01*
X0379773Y0235696D01*
X0379183Y0236287D02*
X0366230Y0236287D01*
X0367028Y0237085D02*
X0378384Y0237085D01*
X0378037Y0237884D02*
X0367376Y0237884D01*
X0367706Y0238682D02*
X0377706Y0238682D01*
X0377589Y0239481D02*
X0367824Y0239481D01*
X0367824Y0240279D02*
X0377589Y0240279D01*
X0377634Y0241078D02*
X0367779Y0241078D01*
X0367448Y0241876D02*
X0377965Y0241876D01*
X0378295Y0242675D02*
X0367117Y0242675D01*
X0366405Y0243473D02*
X0379008Y0243473D01*
X0379853Y0244272D02*
X0365560Y0244272D01*
X0385402Y0244272D02*
X0399695Y0244272D01*
X0399616Y0244239D02*
X0398199Y0242821D01*
X0397431Y0240970D01*
X0397431Y0238965D01*
X0398199Y0237113D01*
X0399616Y0235696D01*
X0401468Y0234929D01*
X0403472Y0234929D01*
X0405324Y0235696D01*
X0406742Y0237113D01*
X0407509Y0238965D01*
X0407509Y0240970D01*
X0406742Y0242821D01*
X0405324Y0244239D01*
X0403472Y0245006D01*
X0401468Y0245006D01*
X0399616Y0244239D01*
X0398850Y0243473D02*
X0386247Y0243473D01*
X0386960Y0242675D02*
X0398138Y0242675D01*
X0397807Y0241876D02*
X0387291Y0241876D01*
X0387621Y0241078D02*
X0397476Y0241078D01*
X0397431Y0240279D02*
X0387666Y0240279D01*
X0387666Y0239481D02*
X0397431Y0239481D01*
X0397549Y0238682D02*
X0387549Y0238682D01*
X0387218Y0237884D02*
X0397879Y0237884D01*
X0398227Y0237085D02*
X0386871Y0237085D01*
X0386072Y0236287D02*
X0399025Y0236287D01*
X0400117Y0235488D02*
X0384980Y0235488D01*
X0404823Y0235488D02*
X0460196Y0235488D01*
X0459104Y0236287D02*
X0405915Y0236287D01*
X0406713Y0237085D02*
X0458305Y0237085D01*
X0457958Y0237884D02*
X0407061Y0237884D01*
X0407391Y0238682D02*
X0457627Y0238682D01*
X0457510Y0239481D02*
X0407509Y0239481D01*
X0407509Y0240279D02*
X0457510Y0240279D01*
X0457555Y0241078D02*
X0407464Y0241078D01*
X0407133Y0241876D02*
X0457886Y0241876D01*
X0458217Y0242675D02*
X0406802Y0242675D01*
X0406090Y0243473D02*
X0458929Y0243473D01*
X0459774Y0244272D02*
X0405245Y0244272D01*
X0403472Y0264456D02*
X0405324Y0265223D01*
X0406742Y0266641D01*
X0407509Y0268493D01*
X0407509Y0270497D01*
X0406742Y0272349D01*
X0405324Y0273766D01*
X0403472Y0274533D01*
X0401468Y0274533D01*
X0399616Y0273766D01*
X0398199Y0272349D01*
X0397431Y0270497D01*
X0397431Y0268493D01*
X0398199Y0266641D01*
X0399616Y0265223D01*
X0401468Y0264456D01*
X0403472Y0264456D01*
X0404865Y0265033D02*
X0460154Y0265033D01*
X0459087Y0265832D02*
X0405932Y0265832D01*
X0406731Y0266630D02*
X0458288Y0266630D01*
X0457951Y0267429D02*
X0407068Y0267429D01*
X0407399Y0268227D02*
X0457620Y0268227D01*
X0457510Y0269026D02*
X0407509Y0269026D01*
X0407509Y0269824D02*
X0457510Y0269824D01*
X0457562Y0270623D02*
X0407457Y0270623D01*
X0407126Y0271421D02*
X0457893Y0271421D01*
X0458224Y0272220D02*
X0406795Y0272220D01*
X0406072Y0273018D02*
X0458946Y0273018D01*
X0459816Y0273817D02*
X0405203Y0273817D01*
X0399737Y0273817D02*
X0385360Y0273817D01*
X0385482Y0273766D02*
X0383630Y0274533D01*
X0381625Y0274533D01*
X0379773Y0273766D01*
X0378356Y0272349D01*
X0377589Y0270497D01*
X0377589Y0268493D01*
X0378356Y0266641D01*
X0379773Y0265223D01*
X0381625Y0264456D01*
X0383630Y0264456D01*
X0385482Y0265223D01*
X0386899Y0266641D01*
X0387666Y0268493D01*
X0387666Y0270497D01*
X0386899Y0272349D01*
X0385482Y0273766D01*
X0386230Y0273018D02*
X0398868Y0273018D01*
X0398145Y0272220D02*
X0386953Y0272220D01*
X0387283Y0271421D02*
X0397814Y0271421D01*
X0397483Y0270623D02*
X0387614Y0270623D01*
X0387666Y0269824D02*
X0397431Y0269824D01*
X0397431Y0269026D02*
X0387666Y0269026D01*
X0387556Y0268227D02*
X0397541Y0268227D01*
X0397872Y0267429D02*
X0387225Y0267429D01*
X0386888Y0266630D02*
X0398209Y0266630D01*
X0399008Y0265832D02*
X0386090Y0265832D01*
X0385022Y0265033D02*
X0400076Y0265033D01*
X0380233Y0265033D02*
X0365180Y0265033D01*
X0366247Y0265832D02*
X0379165Y0265832D01*
X0378367Y0266630D02*
X0367046Y0266630D01*
X0367383Y0267429D02*
X0378030Y0267429D01*
X0377699Y0268227D02*
X0367714Y0268227D01*
X0367824Y0269026D02*
X0377589Y0269026D01*
X0377589Y0269824D02*
X0367824Y0269824D01*
X0367772Y0270623D02*
X0377641Y0270623D01*
X0377972Y0271421D02*
X0367441Y0271421D01*
X0367110Y0272220D02*
X0378302Y0272220D01*
X0379025Y0273018D02*
X0366387Y0273018D01*
X0365518Y0273817D02*
X0379895Y0273817D01*
X0349524Y0281740D02*
X0349614Y0282313D01*
X0345873Y0282313D01*
X0345873Y0278571D01*
X0346446Y0278662D01*
X0347067Y0278864D01*
X0347650Y0279161D01*
X0348179Y0279545D01*
X0348641Y0280007D01*
X0349025Y0280536D01*
X0349322Y0281118D01*
X0349524Y0281740D01*
X0349533Y0281802D02*
X0515026Y0281802D01*
X0515026Y0282600D02*
X0345873Y0282600D01*
X0345873Y0281802D02*
X0345073Y0281802D01*
X0345073Y0282600D02*
X0339626Y0282600D01*
X0339626Y0283399D02*
X0341377Y0283399D01*
X0341589Y0284197D02*
X0339353Y0284197D01*
X0339022Y0284996D02*
X0341999Y0284996D01*
X0342682Y0285794D02*
X0338264Y0285794D01*
X0336957Y0286593D02*
X0343977Y0286593D01*
X0346970Y0286593D02*
X0514023Y0286593D01*
X0514812Y0285794D02*
X0348264Y0285794D01*
X0348947Y0284996D02*
X0515020Y0284996D01*
X0515026Y0284197D02*
X0349357Y0284197D01*
X0349569Y0283399D02*
X0515026Y0283399D01*
X0515026Y0281003D02*
X0349263Y0281003D01*
X0348784Y0280205D02*
X0515026Y0280205D01*
X0515026Y0279406D02*
X0347987Y0279406D01*
X0345873Y0279406D02*
X0345073Y0279406D01*
X0345073Y0280205D02*
X0345873Y0280205D01*
X0345873Y0281003D02*
X0345073Y0281003D01*
X0342959Y0279406D02*
X0338040Y0279406D01*
X0338838Y0280205D02*
X0342162Y0280205D01*
X0341683Y0281003D02*
X0339260Y0281003D01*
X0339591Y0281802D02*
X0341413Y0281802D01*
M02*
