%
M48
M72
T01C0.01575
T02C0.03150
T03C0.03937
T04C0.04331
T05C0.05118
T06C0.05512
T07C0.05906
%
T01
X154399Y47381
X156761Y71469
X158249Y97631
X190549Y123581
X204349Y122981
X230449Y134831
X233499Y134831
X226549Y143631
X223599Y147531
X224049Y162631
X228249Y163081
X247799Y165931
X254449Y165081
X261849Y170731
X274849Y161031
X264749Y151531
X289749Y150681
X299799Y156381
X303599Y152781
X301599Y145181
X330699Y142131
X337749Y145431
X340699Y141731
X345699Y133131
X368674Y134156
X375949Y134631
X379999Y142281
X368399Y145481
X369199Y153081
X355299Y151181
X340699Y151931
X334149Y165431
X345699Y173131
X353299Y180281
X358999Y189331
X375599Y178231
X369099Y166831
X337849Y180031
X320449Y167731
X307749Y173131
X339399Y197931
X327799Y201081
X324649Y201081
X321499Y201081
X315649Y200681
X321499Y204181
X321499Y207331
X321499Y210481
X324649Y210481
X324649Y207381
X327799Y207381
X327799Y210481
X327799Y204231
X324649Y204231
X346199Y207381
X297799Y240531
X296849Y245081
X294349Y248781
X289499Y245081
X285399Y241531
X258349Y251131
X255199Y247331
X244399Y254631
X241349Y257431
X206299Y282931
X203149Y282931
X199999Y282931
X189499Y275531
X186349Y272331
X195199Y227831
X257949Y206781
X271699Y196981
X251549Y186631
X239149Y173131
X165599Y163031
X157999Y141481
X147799Y131531
X136349Y138431
X92749Y112231
X81299Y112131
X117049Y173131
X120299Y173131
X123449Y173131
X126649Y173131
X236049Y112931
X235249Y100681
X241599Y92181
X243199Y79931
X243149Y75931
X226199Y73681
X226199Y70531
X219199Y61881
X213449Y58431
X272349Y75481
X292599Y82681
X282749Y87981
X278399Y86481
X286749Y92181
X302599Y99481
X315149Y98581
X319599Y100081
X330349Y91081
X338899Y101781
X345499Y92631
X371299Y92131
X373399Y85831
X371049Y82281
X369899Y75831
X362649Y75831
X350949Y72631
X345299Y61831
X365749Y53731
X371799Y45281
X381399Y55831
X371799Y64631
X389099Y68781
X393349Y68481
X394299Y78281
X388149Y84481
X407549Y74281
X426499Y84831
X424199Y94781
X418499Y96681
X424899Y101181
X426949Y107081
X429949Y110431
X446749Y99181
X459399Y99131
X466499Y99331
X479649Y92881
X463449Y88081
X455449Y83381
X463699Y80381
X470249Y80331
X470249Y73281
X460099Y73681
X459649Y63531
X457349Y54831
X443249Y54531
X437349Y49281
X433349Y53331
X477699Y57781
X477699Y60831
X490449Y50781
X490449Y48031
X501199Y57481
X501199Y60581
X509649Y81181
X509799Y97581
X520099Y102781
X523449Y98181
X512599Y107781
X515399Y110631
X522649Y111481
X521049Y115481
X520599Y119481
X508599Y115731
X496049Y122581
X492399Y126431
X492399Y129631
X492399Y132831
X489199Y132831
X489199Y129631
X489199Y126431
X511849Y131831
X522649Y136131
X519099Y146481
X512249Y146531
X500199Y154381
X511199Y157931
X518599Y155131
X493699Y162731
X482149Y160531
X472149Y164581
X465349Y171281
X458999Y169081
X455899Y169081
X463049Y161231
X482099Y173981
X490149Y172131
X472049Y178131
X486299Y186131
X522699Y200531
X518649Y215481
X481349Y212631
X474449Y206331
X451649Y195581
X444949Y205081
X459149Y229581
X456499Y254731
X426799Y165081
X420949Y157731
X402649Y143831
X426949Y142831
X426949Y136081
X408649Y126531
X398799Y129781
X388199Y118681
X392099Y113181
X403049Y113181
X409199Y114381
X406149Y105481
X402849Y102331
X392099Y102331
X388249Y96281
X330199Y73081
X322699Y64531
X307749Y61681
X286749Y61531
X307749Y45281
X219999Y97231
X215649Y96481
X267449Y116381
X282549Y215481
X480149Y146131
X485149Y145731
X476249Y112931
X470299Y112881
X495899Y105481
T02
X382299Y182494
X382299Y190368
X263636Y84981
X255762Y84981
T03
X255473Y38461
X265473Y38461
X275473Y38461
X285473Y38461
X295473Y38461
X305473Y38461
X315473Y38461
X325473Y38461
X335473Y38461
X345473Y38461
X345473Y28461
X335473Y28461
X325473Y28461
X315473Y28461
X305473Y28461
X295473Y28461
X285473Y28461
X275473Y28461
X265473Y28461
X255473Y28461
X245473Y28461
X235473Y28461
X225473Y28461
X215473Y28461
X215473Y38461
X225473Y38461
X235473Y38461
X245473Y38461
X245473Y272713
X235473Y272713
X225473Y272713
X215473Y272713
X215473Y282713
X225473Y282713
X235473Y282713
X245473Y282713
X255473Y282713
X265473Y282713
X275473Y282713
X285473Y282713
X295473Y282713
X305473Y282713
X315473Y282713
X325473Y282713
X335473Y282713
X345473Y282713
X345473Y272713
X335473Y272713
X325473Y272713
X315473Y272713
X305473Y272713
X295473Y272713
X285473Y272713
X275473Y272713
X265473Y272713
X255473Y272713
T04
X423999Y60031
T05
X202499Y190617
X202499Y205381
X202499Y220145
X142420Y220145
X122578Y220145
X102735Y220145
X102735Y190617
X122578Y190617
X142420Y190617
X340035Y225717
X359878Y225717
X379720Y225717
X379720Y255245
X359878Y255245
X340035Y255245
X439799Y255245
X439799Y240481
X439799Y225717
T06
X32796Y45016
X32796Y60016
X32796Y75016
X32796Y90016
X32796Y105016
X32796Y120016
X32796Y135016
X32796Y150016
T07
X59099Y148422
X95699Y148422
X223207Y209931
X223157Y246481
X311740Y246481
X311790Y209931
X95699Y59840
X59099Y59840
M30
