G75*
%MOIN*%
%OFA0B0*%
%FSLAX25Y25*%
%IPPOS*%
%LPD*%
%AMOC8*
5,1,8,0,0,1.08239X$1,22.5*
%
%ADD10C,0.05906*%
%ADD11C,0.08268*%
%ADD12C,0.06496*%
%ADD13C,0.08858*%
%ADD14C,0.07677*%
%ADD15C,0.04724*%
%ADD16C,0.03175*%
%ADD17C,0.00800*%
D10*
X0215473Y0028461D03*
X0225473Y0028461D03*
X0235473Y0028461D03*
X0245473Y0028461D03*
X0255473Y0028461D03*
X0265473Y0028461D03*
X0275473Y0028461D03*
X0285473Y0028461D03*
X0295473Y0028461D03*
X0305473Y0028461D03*
X0315473Y0028461D03*
X0325473Y0028461D03*
X0335473Y0028461D03*
X0345473Y0028461D03*
X0345473Y0038461D03*
X0335473Y0038461D03*
X0325473Y0038461D03*
X0315473Y0038461D03*
X0305473Y0038461D03*
X0295473Y0038461D03*
X0285473Y0038461D03*
X0275473Y0038461D03*
X0265473Y0038461D03*
X0255473Y0038461D03*
X0245473Y0038461D03*
X0235473Y0038461D03*
X0225473Y0038461D03*
X0215473Y0038461D03*
X0215473Y0272713D03*
X0225473Y0272713D03*
X0235473Y0272713D03*
X0245473Y0272713D03*
X0255473Y0272713D03*
X0265473Y0272713D03*
X0275473Y0272713D03*
X0285473Y0272713D03*
X0295473Y0272713D03*
X0305473Y0272713D03*
X0315473Y0272713D03*
X0325473Y0272713D03*
X0335473Y0272713D03*
X0345473Y0272713D03*
X0345473Y0282713D03*
X0335473Y0282713D03*
X0325473Y0282713D03*
X0315473Y0282713D03*
X0305473Y0282713D03*
X0295473Y0282713D03*
X0285473Y0282713D03*
X0275473Y0282713D03*
X0265473Y0282713D03*
X0255473Y0282713D03*
X0245473Y0282713D03*
X0235473Y0282713D03*
X0225473Y0282713D03*
X0215473Y0282713D03*
D11*
X0032796Y0045016D03*
X0032796Y0060016D03*
X0032796Y0075016D03*
X0032796Y0090016D03*
X0032796Y0105016D03*
X0032796Y0120016D03*
X0032796Y0135016D03*
X0032796Y0150016D03*
D12*
X0423999Y0060031D03*
D13*
X0311790Y0209931D03*
X0311740Y0246481D03*
X0223157Y0246481D03*
X0223207Y0209931D03*
X0095699Y0148422D03*
X0059099Y0148422D03*
X0059099Y0059840D03*
X0095699Y0059840D03*
D14*
X0102735Y0190617D03*
X0122578Y0190617D03*
X0142420Y0190617D03*
X0142420Y0220145D03*
X0122578Y0220145D03*
X0102735Y0220145D03*
X0202499Y0220145D03*
X0202499Y0205381D03*
X0202499Y0190617D03*
X0340035Y0225717D03*
X0359878Y0225717D03*
X0379720Y0225717D03*
X0379720Y0255245D03*
X0359878Y0255245D03*
X0340035Y0255245D03*
X0439799Y0255245D03*
X0439799Y0240481D03*
X0439799Y0225717D03*
D15*
X0382299Y0190368D03*
X0382299Y0182494D03*
X0263636Y0084981D03*
X0255762Y0084981D03*
D16*
X0243199Y0079931D03*
X0243149Y0075931D03*
X0226199Y0073681D03*
X0226199Y0070531D03*
X0219199Y0061881D03*
X0213449Y0058431D03*
X0156761Y0071469D03*
X0154399Y0047381D03*
X0241599Y0092181D03*
X0235249Y0100681D03*
X0219999Y0097231D03*
X0215649Y0096481D03*
X0236049Y0112931D03*
X0204349Y0122981D03*
X0190549Y0123581D03*
X0157999Y0141481D03*
X0147799Y0131531D03*
X0136349Y0138431D03*
X0165599Y0163031D03*
X0126649Y0173131D03*
X0123449Y0173131D03*
X0120299Y0173131D03*
X0117049Y0173131D03*
X0195199Y0227831D03*
X0244399Y0254631D03*
X0241349Y0257431D03*
X0258349Y0251131D03*
X0255199Y0247331D03*
X0285399Y0241531D03*
X0289499Y0245081D03*
X0294349Y0248781D03*
X0296849Y0245081D03*
X0297799Y0240531D03*
X0282549Y0215481D03*
X0257949Y0206781D03*
X0271699Y0196981D03*
X0251549Y0186631D03*
X0239149Y0173131D03*
X0247799Y0165931D03*
X0254449Y0165081D03*
X0261849Y0170731D03*
X0274849Y0161031D03*
X0264749Y0151531D03*
X0289749Y0150681D03*
X0299799Y0156381D03*
X0303599Y0152781D03*
X0301599Y0145181D03*
X0330699Y0142131D03*
X0337749Y0145431D03*
X0340699Y0141731D03*
X0345699Y0133131D03*
X0368674Y0134156D03*
X0375949Y0134631D03*
X0379999Y0142281D03*
X0368399Y0145481D03*
X0369199Y0153081D03*
X0355299Y0151181D03*
X0340699Y0151931D03*
X0334149Y0165431D03*
X0345699Y0173131D03*
X0353299Y0180281D03*
X0358999Y0189331D03*
X0375599Y0178231D03*
X0369099Y0166831D03*
X0337849Y0180031D03*
X0320449Y0167731D03*
X0307749Y0173131D03*
X0339399Y0197931D03*
X0327799Y0201081D03*
X0324649Y0201081D03*
X0321499Y0201081D03*
X0315649Y0200681D03*
X0321499Y0204181D03*
X0321499Y0207331D03*
X0321499Y0210481D03*
X0324649Y0210481D03*
X0324649Y0207381D03*
X0327799Y0207381D03*
X0327799Y0210481D03*
X0327799Y0204231D03*
X0324649Y0204231D03*
X0346199Y0207381D03*
X0426799Y0165081D03*
X0420949Y0157731D03*
X0402649Y0143831D03*
X0426949Y0142831D03*
X0426949Y0136081D03*
X0408649Y0126531D03*
X0398799Y0129781D03*
X0388199Y0118681D03*
X0392099Y0113181D03*
X0403049Y0113181D03*
X0409199Y0114381D03*
X0406149Y0105481D03*
X0402849Y0102331D03*
X0392099Y0102331D03*
X0388249Y0096281D03*
X0371299Y0092131D03*
X0373399Y0085831D03*
X0371049Y0082281D03*
X0369899Y0075831D03*
X0362649Y0075831D03*
X0350949Y0072631D03*
X0345299Y0061831D03*
X0365749Y0053731D03*
X0371799Y0045281D03*
X0381399Y0055831D03*
X0371799Y0064631D03*
X0389099Y0068781D03*
X0393349Y0068481D03*
X0394299Y0078281D03*
X0388149Y0084481D03*
X0407549Y0074281D03*
X0426499Y0084831D03*
X0424199Y0094781D03*
X0418499Y0096681D03*
X0424899Y0101181D03*
X0426949Y0107081D03*
X0429949Y0110431D03*
X0446749Y0099181D03*
X0459399Y0099131D03*
X0466499Y0099331D03*
X0479649Y0092881D03*
X0463449Y0088081D03*
X0455449Y0083381D03*
X0463699Y0080381D03*
X0470249Y0080331D03*
X0470249Y0073281D03*
X0460099Y0073681D03*
X0459649Y0063531D03*
X0457349Y0054831D03*
X0443249Y0054531D03*
X0437349Y0049281D03*
X0433349Y0053331D03*
X0477699Y0057781D03*
X0477699Y0060831D03*
X0490449Y0050781D03*
X0490449Y0048031D03*
X0501199Y0057481D03*
X0501199Y0060581D03*
X0509649Y0081181D03*
X0509799Y0097581D03*
X0520099Y0102781D03*
X0523449Y0098181D03*
X0512599Y0107781D03*
X0515399Y0110631D03*
X0522649Y0111481D03*
X0521049Y0115481D03*
X0520599Y0119481D03*
X0508599Y0115731D03*
X0496049Y0122581D03*
X0492399Y0126431D03*
X0492399Y0129631D03*
X0492399Y0132831D03*
X0489199Y0132831D03*
X0489199Y0129631D03*
X0489199Y0126431D03*
X0511849Y0131831D03*
X0522649Y0136131D03*
X0519099Y0146481D03*
X0512249Y0146531D03*
X0500199Y0154381D03*
X0511199Y0157931D03*
X0518599Y0155131D03*
X0493699Y0162731D03*
X0482149Y0160531D03*
X0472149Y0164581D03*
X0465349Y0171281D03*
X0458999Y0169081D03*
X0455899Y0169081D03*
X0463049Y0161231D03*
X0482099Y0173981D03*
X0490149Y0172131D03*
X0472049Y0178131D03*
X0486299Y0186131D03*
X0522699Y0200531D03*
X0518649Y0215481D03*
X0481349Y0212631D03*
X0474449Y0206331D03*
X0451649Y0195581D03*
X0444949Y0205081D03*
X0459149Y0229581D03*
X0456499Y0254731D03*
X0480149Y0146131D03*
X0485149Y0145731D03*
X0476249Y0112931D03*
X0470299Y0112881D03*
X0495899Y0105481D03*
X0345499Y0092631D03*
X0338899Y0101781D03*
X0330349Y0091081D03*
X0319599Y0100081D03*
X0315149Y0098581D03*
X0302599Y0099481D03*
X0286749Y0092181D03*
X0282749Y0087981D03*
X0278399Y0086481D03*
X0292599Y0082681D03*
X0272349Y0075481D03*
X0286749Y0061531D03*
X0307749Y0061681D03*
X0322699Y0064531D03*
X0330199Y0073081D03*
X0307749Y0045281D03*
X0267449Y0116381D03*
X0233499Y0134831D03*
X0230449Y0134831D03*
X0226549Y0143631D03*
X0223599Y0147531D03*
X0224049Y0162631D03*
X0228249Y0163081D03*
X0158249Y0097631D03*
X0092749Y0112231D03*
X0081299Y0112131D03*
X0186349Y0272331D03*
X0189499Y0275531D03*
X0199999Y0282931D03*
X0203149Y0282931D03*
X0206299Y0282931D03*
D17*
X0211332Y0283113D02*
X0215073Y0283113D01*
X0215073Y0282313D01*
X0211332Y0282313D01*
X0211423Y0281740D01*
X0211625Y0281118D01*
X0211921Y0280536D01*
X0212306Y0280007D01*
X0212768Y0279545D01*
X0213297Y0279161D01*
X0213879Y0278864D01*
X0214501Y0278662D01*
X0215073Y0278571D01*
X0215073Y0282313D01*
X0215873Y0282313D01*
X0215873Y0283113D01*
X0219614Y0283113D01*
X0219524Y0283685D01*
X0219322Y0284307D01*
X0219025Y0284889D01*
X0218641Y0285418D01*
X0218179Y0285880D01*
X0217650Y0286264D01*
X0217067Y0286561D01*
X0216446Y0286763D01*
X0216009Y0286832D01*
X0224567Y0286832D01*
X0223121Y0286233D01*
X0221953Y0285065D01*
X0221320Y0283539D01*
X0221320Y0281887D01*
X0221953Y0280360D01*
X0223121Y0279192D01*
X0224647Y0278560D01*
X0226299Y0278560D01*
X0227826Y0279192D01*
X0228994Y0280360D01*
X0229626Y0281887D01*
X0229626Y0283539D01*
X0228994Y0285065D01*
X0227826Y0286233D01*
X0226379Y0286832D01*
X0234567Y0286832D01*
X0233121Y0286233D01*
X0231953Y0285065D01*
X0231320Y0283539D01*
X0231320Y0281887D01*
X0231953Y0280360D01*
X0233121Y0279192D01*
X0234647Y0278560D01*
X0236299Y0278560D01*
X0237826Y0279192D01*
X0238994Y0280360D01*
X0239626Y0281887D01*
X0239626Y0283539D01*
X0238994Y0285065D01*
X0237826Y0286233D01*
X0236379Y0286832D01*
X0244567Y0286832D01*
X0243121Y0286233D01*
X0241953Y0285065D01*
X0241320Y0283539D01*
X0241320Y0281887D01*
X0241953Y0280360D01*
X0243121Y0279192D01*
X0244647Y0278560D01*
X0246299Y0278560D01*
X0247826Y0279192D01*
X0248994Y0280360D01*
X0249626Y0281887D01*
X0249626Y0283539D01*
X0248994Y0285065D01*
X0247826Y0286233D01*
X0246379Y0286832D01*
X0254567Y0286832D01*
X0253121Y0286233D01*
X0251953Y0285065D01*
X0251320Y0283539D01*
X0251320Y0281887D01*
X0251953Y0280360D01*
X0253121Y0279192D01*
X0254647Y0278560D01*
X0256299Y0278560D01*
X0257826Y0279192D01*
X0258994Y0280360D01*
X0259626Y0281887D01*
X0259626Y0283539D01*
X0258994Y0285065D01*
X0257826Y0286233D01*
X0256379Y0286832D01*
X0264567Y0286832D01*
X0263121Y0286233D01*
X0261953Y0285065D01*
X0261320Y0283539D01*
X0261320Y0281887D01*
X0261953Y0280360D01*
X0263121Y0279192D01*
X0264647Y0278560D01*
X0266299Y0278560D01*
X0267826Y0279192D01*
X0268994Y0280360D01*
X0269626Y0281887D01*
X0269626Y0283539D01*
X0268994Y0285065D01*
X0267826Y0286233D01*
X0266379Y0286832D01*
X0274567Y0286832D01*
X0273121Y0286233D01*
X0271953Y0285065D01*
X0271320Y0283539D01*
X0271320Y0281887D01*
X0271953Y0280360D01*
X0273121Y0279192D01*
X0274647Y0278560D01*
X0276299Y0278560D01*
X0277826Y0279192D01*
X0278994Y0280360D01*
X0279626Y0281887D01*
X0279626Y0283539D01*
X0278994Y0285065D01*
X0277826Y0286233D01*
X0276379Y0286832D01*
X0284567Y0286832D01*
X0283121Y0286233D01*
X0281953Y0285065D01*
X0281320Y0283539D01*
X0281320Y0281887D01*
X0281953Y0280360D01*
X0283121Y0279192D01*
X0284647Y0278560D01*
X0286299Y0278560D01*
X0287826Y0279192D01*
X0288994Y0280360D01*
X0289626Y0281887D01*
X0289626Y0283539D01*
X0288994Y0285065D01*
X0287826Y0286233D01*
X0286379Y0286832D01*
X0294567Y0286832D01*
X0293121Y0286233D01*
X0291953Y0285065D01*
X0291320Y0283539D01*
X0291320Y0281887D01*
X0291953Y0280360D01*
X0293121Y0279192D01*
X0294647Y0278560D01*
X0296299Y0278560D01*
X0297826Y0279192D01*
X0298994Y0280360D01*
X0299626Y0281887D01*
X0299626Y0283539D01*
X0298994Y0285065D01*
X0297826Y0286233D01*
X0296379Y0286832D01*
X0304567Y0286832D01*
X0303121Y0286233D01*
X0301953Y0285065D01*
X0301320Y0283539D01*
X0301320Y0281887D01*
X0301953Y0280360D01*
X0303121Y0279192D01*
X0304647Y0278560D01*
X0306299Y0278560D01*
X0307826Y0279192D01*
X0308994Y0280360D01*
X0309626Y0281887D01*
X0309626Y0283539D01*
X0308994Y0285065D01*
X0307826Y0286233D01*
X0306379Y0286832D01*
X0314567Y0286832D01*
X0313121Y0286233D01*
X0311953Y0285065D01*
X0311320Y0283539D01*
X0311320Y0281887D01*
X0311953Y0280360D01*
X0313121Y0279192D01*
X0314647Y0278560D01*
X0316299Y0278560D01*
X0317826Y0279192D01*
X0318994Y0280360D01*
X0319626Y0281887D01*
X0319626Y0283539D01*
X0318994Y0285065D01*
X0317826Y0286233D01*
X0316379Y0286832D01*
X0324567Y0286832D01*
X0323121Y0286233D01*
X0321953Y0285065D01*
X0321320Y0283539D01*
X0321320Y0281887D01*
X0321953Y0280360D01*
X0323121Y0279192D01*
X0324647Y0278560D01*
X0326299Y0278560D01*
X0327826Y0279192D01*
X0328994Y0280360D01*
X0329626Y0281887D01*
X0329626Y0283539D01*
X0328994Y0285065D01*
X0327826Y0286233D01*
X0326379Y0286832D01*
X0334567Y0286832D01*
X0333121Y0286233D01*
X0331953Y0285065D01*
X0331320Y0283539D01*
X0331320Y0281887D01*
X0331953Y0280360D01*
X0333121Y0279192D01*
X0334647Y0278560D01*
X0336299Y0278560D01*
X0337826Y0279192D01*
X0338994Y0280360D01*
X0339626Y0281887D01*
X0339626Y0283539D01*
X0338994Y0285065D01*
X0337826Y0286233D01*
X0336379Y0286832D01*
X0344938Y0286832D01*
X0344501Y0286763D01*
X0343879Y0286561D01*
X0343297Y0286264D01*
X0342768Y0285880D01*
X0342306Y0285418D01*
X0341921Y0284889D01*
X0341625Y0284307D01*
X0341423Y0283685D01*
X0341332Y0283113D01*
X0345073Y0283113D01*
X0345073Y0282313D01*
X0341332Y0282313D01*
X0341423Y0281740D01*
X0341625Y0281118D01*
X0341921Y0280536D01*
X0342306Y0280007D01*
X0342768Y0279545D01*
X0343297Y0279161D01*
X0343879Y0278864D01*
X0344501Y0278662D01*
X0345073Y0278571D01*
X0345073Y0282313D01*
X0345873Y0282313D01*
X0345873Y0283113D01*
X0349614Y0283113D01*
X0349524Y0283685D01*
X0349322Y0284307D01*
X0349025Y0284889D01*
X0348641Y0285418D01*
X0348179Y0285880D01*
X0347650Y0286264D01*
X0347067Y0286561D01*
X0346446Y0286763D01*
X0346009Y0286832D01*
X0524922Y0286832D01*
X0525222Y0286809D01*
X0525791Y0286624D01*
X0526276Y0286271D01*
X0526628Y0285787D01*
X0526813Y0285217D01*
X0526837Y0284917D01*
X0526837Y0026256D01*
X0526813Y0025956D01*
X0526628Y0025387D01*
X0526276Y0024902D01*
X0525791Y0024550D01*
X0525222Y0024365D01*
X0524922Y0024341D01*
X0346009Y0024341D01*
X0346446Y0024410D01*
X0347067Y0024612D01*
X0347650Y0024909D01*
X0348179Y0025293D01*
X0348641Y0025755D01*
X0349025Y0026284D01*
X0349322Y0026867D01*
X0349524Y0027488D01*
X0349614Y0028061D01*
X0345873Y0028061D01*
X0345873Y0028861D01*
X0345073Y0028861D01*
X0345073Y0032602D01*
X0344501Y0032511D01*
X0343879Y0032309D01*
X0343297Y0032012D01*
X0342768Y0031628D01*
X0342306Y0031166D01*
X0341921Y0030637D01*
X0341625Y0030055D01*
X0341423Y0029433D01*
X0341332Y0028861D01*
X0345073Y0028861D01*
X0345073Y0028061D01*
X0341332Y0028061D01*
X0341423Y0027488D01*
X0341625Y0026867D01*
X0341921Y0026284D01*
X0342306Y0025755D01*
X0342768Y0025293D01*
X0343297Y0024909D01*
X0343879Y0024612D01*
X0344501Y0024410D01*
X0344938Y0024341D01*
X0336379Y0024341D01*
X0337826Y0024940D01*
X0338994Y0026108D01*
X0339626Y0027635D01*
X0339626Y0029287D01*
X0338994Y0030813D01*
X0337826Y0031981D01*
X0336299Y0032613D01*
X0334647Y0032613D01*
X0333121Y0031981D01*
X0331953Y0030813D01*
X0331320Y0029287D01*
X0331320Y0027635D01*
X0331953Y0026108D01*
X0333121Y0024940D01*
X0334567Y0024341D01*
X0326379Y0024341D01*
X0327826Y0024940D01*
X0328994Y0026108D01*
X0329626Y0027635D01*
X0329626Y0029287D01*
X0328994Y0030813D01*
X0327826Y0031981D01*
X0326299Y0032613D01*
X0324647Y0032613D01*
X0323121Y0031981D01*
X0321953Y0030813D01*
X0321320Y0029287D01*
X0321320Y0027635D01*
X0321953Y0026108D01*
X0323121Y0024940D01*
X0324567Y0024341D01*
X0316379Y0024341D01*
X0317826Y0024940D01*
X0318994Y0026108D01*
X0319626Y0027635D01*
X0319626Y0029287D01*
X0318994Y0030813D01*
X0317826Y0031981D01*
X0316299Y0032613D01*
X0314647Y0032613D01*
X0313121Y0031981D01*
X0311953Y0030813D01*
X0311320Y0029287D01*
X0311320Y0027635D01*
X0311953Y0026108D01*
X0313121Y0024940D01*
X0314567Y0024341D01*
X0306379Y0024341D01*
X0307826Y0024940D01*
X0308994Y0026108D01*
X0309626Y0027635D01*
X0309626Y0029287D01*
X0308994Y0030813D01*
X0307826Y0031981D01*
X0306299Y0032613D01*
X0304647Y0032613D01*
X0303121Y0031981D01*
X0301953Y0030813D01*
X0301320Y0029287D01*
X0301320Y0027635D01*
X0301953Y0026108D01*
X0303121Y0024940D01*
X0304567Y0024341D01*
X0296009Y0024341D01*
X0296446Y0024410D01*
X0297067Y0024612D01*
X0297650Y0024909D01*
X0298179Y0025293D01*
X0298641Y0025755D01*
X0299025Y0026284D01*
X0299322Y0026867D01*
X0299524Y0027488D01*
X0299614Y0028061D01*
X0295873Y0028061D01*
X0295873Y0028861D01*
X0295073Y0028861D01*
X0295073Y0032602D01*
X0294501Y0032511D01*
X0293879Y0032309D01*
X0293297Y0032012D01*
X0292768Y0031628D01*
X0292306Y0031166D01*
X0291921Y0030637D01*
X0291625Y0030055D01*
X0291423Y0029433D01*
X0291332Y0028861D01*
X0295073Y0028861D01*
X0295073Y0028061D01*
X0291332Y0028061D01*
X0291423Y0027488D01*
X0291625Y0026867D01*
X0291921Y0026284D01*
X0292306Y0025755D01*
X0292768Y0025293D01*
X0293297Y0024909D01*
X0293879Y0024612D01*
X0294501Y0024410D01*
X0294938Y0024341D01*
X0286379Y0024341D01*
X0287826Y0024940D01*
X0288994Y0026108D01*
X0289626Y0027635D01*
X0289626Y0029287D01*
X0288994Y0030813D01*
X0287826Y0031981D01*
X0286299Y0032613D01*
X0284647Y0032613D01*
X0283121Y0031981D01*
X0281953Y0030813D01*
X0281320Y0029287D01*
X0281320Y0027635D01*
X0281953Y0026108D01*
X0283121Y0024940D01*
X0284567Y0024341D01*
X0276379Y0024341D01*
X0277826Y0024940D01*
X0278994Y0026108D01*
X0279626Y0027635D01*
X0279626Y0029287D01*
X0278994Y0030813D01*
X0277826Y0031981D01*
X0276299Y0032613D01*
X0274647Y0032613D01*
X0273121Y0031981D01*
X0271953Y0030813D01*
X0271320Y0029287D01*
X0271320Y0027635D01*
X0271953Y0026108D01*
X0273121Y0024940D01*
X0274567Y0024341D01*
X0266379Y0024341D01*
X0267826Y0024940D01*
X0268994Y0026108D01*
X0269626Y0027635D01*
X0269626Y0029287D01*
X0268994Y0030813D01*
X0267826Y0031981D01*
X0266299Y0032613D01*
X0264647Y0032613D01*
X0263121Y0031981D01*
X0261953Y0030813D01*
X0261320Y0029287D01*
X0261320Y0027635D01*
X0261953Y0026108D01*
X0263121Y0024940D01*
X0264567Y0024341D01*
X0256379Y0024341D01*
X0257826Y0024940D01*
X0258994Y0026108D01*
X0259626Y0027635D01*
X0259626Y0029287D01*
X0258994Y0030813D01*
X0257826Y0031981D01*
X0256299Y0032613D01*
X0254647Y0032613D01*
X0253121Y0031981D01*
X0251953Y0030813D01*
X0251320Y0029287D01*
X0251320Y0027635D01*
X0251953Y0026108D01*
X0253121Y0024940D01*
X0254567Y0024341D01*
X0246009Y0024341D01*
X0246446Y0024410D01*
X0247067Y0024612D01*
X0247650Y0024909D01*
X0248179Y0025293D01*
X0248641Y0025755D01*
X0249025Y0026284D01*
X0249322Y0026867D01*
X0249524Y0027488D01*
X0249614Y0028061D01*
X0245873Y0028061D01*
X0245873Y0028861D01*
X0245073Y0028861D01*
X0245073Y0032602D01*
X0244501Y0032511D01*
X0243879Y0032309D01*
X0243297Y0032012D01*
X0242768Y0031628D01*
X0242306Y0031166D01*
X0241921Y0030637D01*
X0241625Y0030055D01*
X0241423Y0029433D01*
X0241332Y0028861D01*
X0245073Y0028861D01*
X0245073Y0028061D01*
X0241332Y0028061D01*
X0241423Y0027488D01*
X0241625Y0026867D01*
X0241921Y0026284D01*
X0242306Y0025755D01*
X0242768Y0025293D01*
X0243297Y0024909D01*
X0243879Y0024612D01*
X0244501Y0024410D01*
X0244938Y0024341D01*
X0236379Y0024341D01*
X0237826Y0024940D01*
X0238994Y0026108D01*
X0239626Y0027635D01*
X0239626Y0029287D01*
X0238994Y0030813D01*
X0237826Y0031981D01*
X0236299Y0032613D01*
X0234647Y0032613D01*
X0233121Y0031981D01*
X0231953Y0030813D01*
X0231320Y0029287D01*
X0231320Y0027635D01*
X0231953Y0026108D01*
X0233121Y0024940D01*
X0234567Y0024341D01*
X0226379Y0024341D01*
X0227826Y0024940D01*
X0228994Y0026108D01*
X0229626Y0027635D01*
X0229626Y0029287D01*
X0228994Y0030813D01*
X0227826Y0031981D01*
X0226299Y0032613D01*
X0224647Y0032613D01*
X0223121Y0031981D01*
X0221953Y0030813D01*
X0221320Y0029287D01*
X0221320Y0027635D01*
X0221953Y0026108D01*
X0223121Y0024940D01*
X0224567Y0024341D01*
X0216009Y0024341D01*
X0216446Y0024410D01*
X0217067Y0024612D01*
X0217650Y0024909D01*
X0218179Y0025293D01*
X0218641Y0025755D01*
X0219025Y0026284D01*
X0219322Y0026867D01*
X0219524Y0027488D01*
X0219614Y0028061D01*
X0215873Y0028061D01*
X0215873Y0028861D01*
X0215073Y0028861D01*
X0215073Y0032602D01*
X0214501Y0032511D01*
X0213879Y0032309D01*
X0213297Y0032012D01*
X0212768Y0031628D01*
X0212306Y0031166D01*
X0211921Y0030637D01*
X0211625Y0030055D01*
X0211423Y0029433D01*
X0211332Y0028861D01*
X0215073Y0028861D01*
X0215073Y0028061D01*
X0211332Y0028061D01*
X0211423Y0027488D01*
X0211625Y0026867D01*
X0211921Y0026284D01*
X0212306Y0025755D01*
X0212768Y0025293D01*
X0213297Y0024909D01*
X0213879Y0024612D01*
X0214501Y0024410D01*
X0214938Y0024341D01*
X0196259Y0024341D01*
X0196292Y0036081D01*
X0199115Y0036081D01*
X0200438Y0036629D01*
X0201451Y0037642D01*
X0201999Y0038965D01*
X0201999Y0107890D01*
X0202040Y0107931D01*
X0240749Y0107931D01*
X0241999Y0109181D01*
X0241999Y0128181D01*
X0240249Y0129931D01*
X0229049Y0129931D01*
X0229049Y0132297D01*
X0228501Y0133620D01*
X0227488Y0134633D01*
X0226165Y0135181D01*
X0202040Y0135181D01*
X0201999Y0135222D01*
X0201999Y0183397D01*
X0201451Y0184720D01*
X0200438Y0185733D01*
X0199115Y0186281D01*
X0196749Y0186281D01*
X0196749Y0194931D01*
X0151499Y0240181D01*
X0094499Y0240181D01*
X0087249Y0232931D01*
X0087249Y0190431D01*
X0075999Y0179181D01*
X0053899Y0179181D01*
X0053899Y0179497D01*
X0053351Y0180820D01*
X0052338Y0181833D01*
X0051015Y0182381D01*
X0045583Y0182381D01*
X0044260Y0181833D01*
X0043247Y0180820D01*
X0042699Y0179497D01*
X0042699Y0179181D01*
X0014346Y0179181D01*
X0014346Y0284917D01*
X0014369Y0285217D01*
X0014554Y0285787D01*
X0014907Y0286271D01*
X0015391Y0286624D01*
X0015961Y0286809D01*
X0016261Y0286832D01*
X0214938Y0286832D01*
X0214501Y0286763D01*
X0213879Y0286561D01*
X0213297Y0286264D01*
X0212768Y0285880D01*
X0212306Y0285418D01*
X0211921Y0284889D01*
X0211625Y0284307D01*
X0211423Y0283685D01*
X0211332Y0283113D01*
X0211377Y0283399D02*
X0014346Y0283399D01*
X0014346Y0284197D02*
X0211589Y0284197D01*
X0211999Y0284996D02*
X0014352Y0284996D01*
X0014560Y0285794D02*
X0212682Y0285794D01*
X0213977Y0286593D02*
X0015349Y0286593D01*
X0014346Y0282600D02*
X0215073Y0282600D01*
X0215073Y0281802D02*
X0215873Y0281802D01*
X0215873Y0282313D02*
X0215873Y0278571D01*
X0216446Y0278662D01*
X0217067Y0278864D01*
X0217650Y0279161D01*
X0218179Y0279545D01*
X0218641Y0280007D01*
X0219025Y0280536D01*
X0219322Y0281118D01*
X0219524Y0281740D01*
X0219614Y0282313D01*
X0215873Y0282313D01*
X0215873Y0282600D02*
X0221320Y0282600D01*
X0221320Y0283399D02*
X0219569Y0283399D01*
X0219357Y0284197D02*
X0221593Y0284197D01*
X0221924Y0284996D02*
X0218947Y0284996D01*
X0218264Y0285794D02*
X0222682Y0285794D01*
X0223989Y0286593D02*
X0216970Y0286593D01*
X0219533Y0281802D02*
X0221356Y0281802D01*
X0221686Y0281003D02*
X0219263Y0281003D01*
X0218784Y0280205D02*
X0222108Y0280205D01*
X0222907Y0279406D02*
X0217987Y0279406D01*
X0216102Y0278608D02*
X0224532Y0278608D01*
X0224647Y0276865D02*
X0223121Y0276233D01*
X0221953Y0275065D01*
X0221320Y0273539D01*
X0221320Y0271887D01*
X0221953Y0270360D01*
X0223121Y0269192D01*
X0224647Y0268560D01*
X0226299Y0268560D01*
X0227826Y0269192D01*
X0228994Y0270360D01*
X0229626Y0271887D01*
X0229626Y0273539D01*
X0228994Y0275065D01*
X0227826Y0276233D01*
X0226299Y0276865D01*
X0224647Y0276865D01*
X0223100Y0276212D02*
X0217722Y0276212D01*
X0217650Y0276264D02*
X0217067Y0276561D01*
X0216446Y0276763D01*
X0215873Y0276854D01*
X0215873Y0273113D01*
X0215073Y0273113D01*
X0215073Y0276854D01*
X0214501Y0276763D01*
X0213879Y0276561D01*
X0213297Y0276264D01*
X0212768Y0275880D01*
X0212306Y0275418D01*
X0211921Y0274889D01*
X0211625Y0274307D01*
X0211423Y0273685D01*
X0211332Y0273113D01*
X0215073Y0273113D01*
X0215073Y0272313D01*
X0211332Y0272313D01*
X0211423Y0271740D01*
X0211625Y0271118D01*
X0211921Y0270536D01*
X0212306Y0270007D01*
X0212768Y0269545D01*
X0213297Y0269161D01*
X0213879Y0268864D01*
X0214501Y0268662D01*
X0215073Y0268571D01*
X0215073Y0272313D01*
X0215873Y0272313D01*
X0215873Y0273113D01*
X0219614Y0273113D01*
X0219524Y0273685D01*
X0219322Y0274307D01*
X0219025Y0274889D01*
X0218641Y0275418D01*
X0218179Y0275880D01*
X0217650Y0276264D01*
X0218644Y0275414D02*
X0222301Y0275414D01*
X0221766Y0274615D02*
X0219165Y0274615D01*
X0219481Y0273817D02*
X0221436Y0273817D01*
X0221320Y0273018D02*
X0215873Y0273018D01*
X0215873Y0272313D02*
X0219614Y0272313D01*
X0219524Y0271740D01*
X0219322Y0271118D01*
X0219025Y0270536D01*
X0218641Y0270007D01*
X0218179Y0269545D01*
X0217650Y0269161D01*
X0217067Y0268864D01*
X0216446Y0268662D01*
X0215873Y0268571D01*
X0215873Y0272313D01*
X0215873Y0272220D02*
X0215073Y0272220D01*
X0215073Y0273018D02*
X0190716Y0273018D01*
X0191078Y0273168D02*
X0191862Y0273952D01*
X0192286Y0274977D01*
X0192286Y0276086D01*
X0191862Y0277110D01*
X0191078Y0277894D01*
X0190053Y0278318D01*
X0188944Y0278318D01*
X0187920Y0277894D01*
X0187136Y0277110D01*
X0186711Y0276086D01*
X0186711Y0275118D01*
X0185794Y0275118D01*
X0184770Y0274694D01*
X0183986Y0273910D01*
X0183561Y0272886D01*
X0183561Y0271777D01*
X0183986Y0270752D01*
X0184770Y0269968D01*
X0185794Y0269544D01*
X0186903Y0269544D01*
X0187928Y0269968D01*
X0188712Y0270752D01*
X0189136Y0271777D01*
X0189136Y0272744D01*
X0190053Y0272744D01*
X0191078Y0273168D01*
X0191726Y0273817D02*
X0211465Y0273817D01*
X0211782Y0274615D02*
X0192136Y0274615D01*
X0192286Y0275414D02*
X0212303Y0275414D01*
X0213225Y0276212D02*
X0192234Y0276212D01*
X0191903Y0277011D02*
X0526837Y0277011D01*
X0526837Y0277809D02*
X0191163Y0277809D01*
X0187835Y0277809D02*
X0014346Y0277809D01*
X0014346Y0277011D02*
X0187095Y0277011D01*
X0186764Y0276212D02*
X0014346Y0276212D01*
X0014346Y0275414D02*
X0186711Y0275414D01*
X0184691Y0274615D02*
X0014346Y0274615D01*
X0014346Y0273817D02*
X0183947Y0273817D01*
X0183616Y0273018D02*
X0014346Y0273018D01*
X0014346Y0272220D02*
X0183561Y0272220D01*
X0183709Y0271421D02*
X0014346Y0271421D01*
X0014346Y0270623D02*
X0184115Y0270623D01*
X0185117Y0269824D02*
X0014346Y0269824D01*
X0014346Y0269026D02*
X0213562Y0269026D01*
X0212489Y0269824D02*
X0187580Y0269824D01*
X0188582Y0270623D02*
X0211877Y0270623D01*
X0211526Y0271421D02*
X0188989Y0271421D01*
X0189136Y0272220D02*
X0211347Y0272220D01*
X0215073Y0271421D02*
X0215873Y0271421D01*
X0215873Y0270623D02*
X0215073Y0270623D01*
X0215073Y0269824D02*
X0215873Y0269824D01*
X0215873Y0269026D02*
X0215073Y0269026D01*
X0217384Y0269026D02*
X0223523Y0269026D01*
X0222489Y0269824D02*
X0218458Y0269824D01*
X0219069Y0270623D02*
X0221844Y0270623D01*
X0221513Y0271421D02*
X0219420Y0271421D01*
X0219600Y0272220D02*
X0221320Y0272220D01*
X0215873Y0273817D02*
X0215073Y0273817D01*
X0215073Y0274615D02*
X0215873Y0274615D01*
X0215873Y0275414D02*
X0215073Y0275414D01*
X0215073Y0276212D02*
X0215873Y0276212D01*
X0215873Y0278608D02*
X0215073Y0278608D01*
X0214844Y0278608D02*
X0014346Y0278608D01*
X0014346Y0279406D02*
X0212959Y0279406D01*
X0212162Y0280205D02*
X0014346Y0280205D01*
X0014346Y0281003D02*
X0211683Y0281003D01*
X0211413Y0281802D02*
X0014346Y0281802D01*
X0014346Y0268227D02*
X0526837Y0268227D01*
X0526837Y0267429D02*
X0014346Y0267429D01*
X0014346Y0266630D02*
X0526837Y0266630D01*
X0526837Y0265832D02*
X0014346Y0265832D01*
X0014346Y0265033D02*
X0526837Y0265033D01*
X0526837Y0264234D02*
X0014346Y0264234D01*
X0014346Y0263436D02*
X0526837Y0263436D01*
X0526837Y0262637D02*
X0014346Y0262637D01*
X0014346Y0261839D02*
X0526837Y0261839D01*
X0526837Y0261040D02*
X0014346Y0261040D01*
X0014346Y0260242D02*
X0338933Y0260242D01*
X0339033Y0260283D02*
X0337181Y0259516D01*
X0335764Y0258099D01*
X0334996Y0256247D01*
X0334996Y0254243D01*
X0335764Y0252391D01*
X0337181Y0250973D01*
X0339033Y0250206D01*
X0341037Y0250206D01*
X0342889Y0250973D01*
X0344307Y0252391D01*
X0345074Y0254243D01*
X0345074Y0256247D01*
X0344307Y0258099D01*
X0342889Y0259516D01*
X0341037Y0260283D01*
X0339033Y0260283D01*
X0337108Y0259443D02*
X0243278Y0259443D01*
X0242928Y0259794D02*
X0243712Y0259010D01*
X0244136Y0257986D01*
X0244136Y0257418D01*
X0244953Y0257418D01*
X0245978Y0256994D01*
X0246762Y0256210D01*
X0247186Y0255186D01*
X0247186Y0254077D01*
X0246762Y0253052D01*
X0245978Y0252268D01*
X0244953Y0251844D01*
X0243844Y0251844D01*
X0242820Y0252268D01*
X0242036Y0253052D01*
X0241611Y0254077D01*
X0241611Y0254644D01*
X0240794Y0254644D01*
X0239770Y0255068D01*
X0238986Y0255852D01*
X0238561Y0256877D01*
X0238561Y0257986D01*
X0238986Y0259010D01*
X0239770Y0259794D01*
X0240794Y0260218D01*
X0241903Y0260218D01*
X0242928Y0259794D01*
X0243863Y0258645D02*
X0336309Y0258645D01*
X0335659Y0257846D02*
X0244136Y0257846D01*
X0245848Y0257048D02*
X0335328Y0257048D01*
X0334997Y0256249D02*
X0246722Y0256249D01*
X0247076Y0255451D02*
X0334996Y0255451D01*
X0334996Y0254652D02*
X0247186Y0254652D01*
X0247094Y0253854D02*
X0257638Y0253854D01*
X0257794Y0253918D02*
X0256770Y0253494D01*
X0255986Y0252710D01*
X0255561Y0251686D01*
X0255561Y0250577D01*
X0255751Y0250118D01*
X0254644Y0250118D01*
X0253620Y0249694D01*
X0252836Y0248910D01*
X0252411Y0247886D01*
X0252411Y0246777D01*
X0252836Y0245752D01*
X0253620Y0244968D01*
X0254644Y0244544D01*
X0255753Y0244544D01*
X0256778Y0244968D01*
X0257562Y0245752D01*
X0257986Y0246777D01*
X0257986Y0247886D01*
X0257796Y0248344D01*
X0258903Y0248344D01*
X0259928Y0248768D01*
X0260712Y0249552D01*
X0261136Y0250577D01*
X0261136Y0251686D01*
X0260712Y0252710D01*
X0259928Y0253494D01*
X0258903Y0253918D01*
X0257794Y0253918D01*
X0259059Y0253854D02*
X0335157Y0253854D01*
X0335488Y0253055D02*
X0260367Y0253055D01*
X0260900Y0252257D02*
X0335897Y0252257D01*
X0336696Y0251458D02*
X0314434Y0251458D01*
X0314929Y0251253D02*
X0312860Y0252110D01*
X0310620Y0252110D01*
X0308552Y0251253D01*
X0306968Y0249670D01*
X0306111Y0247601D01*
X0306111Y0245361D01*
X0306968Y0243292D01*
X0308552Y0241709D01*
X0310620Y0240852D01*
X0312860Y0240852D01*
X0314929Y0241709D01*
X0316512Y0243292D01*
X0317369Y0245361D01*
X0317369Y0247601D01*
X0316512Y0249670D01*
X0314929Y0251253D01*
X0315522Y0250660D02*
X0337938Y0250660D01*
X0342132Y0250660D02*
X0357780Y0250660D01*
X0357023Y0250973D02*
X0358875Y0250206D01*
X0360880Y0250206D01*
X0362732Y0250973D01*
X0364149Y0252391D01*
X0364916Y0254243D01*
X0364916Y0256247D01*
X0364149Y0258099D01*
X0362732Y0259516D01*
X0360880Y0260283D01*
X0358875Y0260283D01*
X0357023Y0259516D01*
X0355606Y0258099D01*
X0354839Y0256247D01*
X0354839Y0254243D01*
X0355606Y0252391D01*
X0357023Y0250973D01*
X0356538Y0251458D02*
X0343374Y0251458D01*
X0344173Y0252257D02*
X0355740Y0252257D01*
X0355331Y0253055D02*
X0344582Y0253055D01*
X0344913Y0253854D02*
X0355000Y0253854D01*
X0354839Y0254652D02*
X0345074Y0254652D01*
X0345074Y0255451D02*
X0354839Y0255451D01*
X0354840Y0256249D02*
X0345073Y0256249D01*
X0344742Y0257048D02*
X0355171Y0257048D01*
X0355501Y0257846D02*
X0344411Y0257846D01*
X0343761Y0258645D02*
X0356152Y0258645D01*
X0356950Y0259443D02*
X0342962Y0259443D01*
X0341138Y0260242D02*
X0358775Y0260242D01*
X0360980Y0260242D02*
X0378618Y0260242D01*
X0378718Y0260283D02*
X0376866Y0259516D01*
X0375449Y0258099D01*
X0374681Y0256247D01*
X0374681Y0254243D01*
X0375449Y0252391D01*
X0376866Y0250973D01*
X0378718Y0250206D01*
X0380722Y0250206D01*
X0382574Y0250973D01*
X0383992Y0252391D01*
X0384759Y0254243D01*
X0384759Y0256247D01*
X0383992Y0258099D01*
X0382574Y0259516D01*
X0380722Y0260283D01*
X0378718Y0260283D01*
X0376793Y0259443D02*
X0362805Y0259443D01*
X0363603Y0258645D02*
X0375994Y0258645D01*
X0375344Y0257846D02*
X0364254Y0257846D01*
X0364584Y0257048D02*
X0375013Y0257048D01*
X0374682Y0256249D02*
X0364915Y0256249D01*
X0364916Y0255451D02*
X0374681Y0255451D01*
X0374681Y0254652D02*
X0364916Y0254652D01*
X0364755Y0253854D02*
X0374843Y0253854D01*
X0375173Y0253055D02*
X0364424Y0253055D01*
X0364015Y0252257D02*
X0375582Y0252257D01*
X0376381Y0251458D02*
X0363217Y0251458D01*
X0361975Y0250660D02*
X0377623Y0250660D01*
X0381817Y0250660D02*
X0437702Y0250660D01*
X0436945Y0250973D02*
X0438797Y0250206D01*
X0440801Y0250206D01*
X0442653Y0250973D01*
X0444070Y0252391D01*
X0444837Y0254243D01*
X0444837Y0256247D01*
X0444070Y0258099D01*
X0442653Y0259516D01*
X0440801Y0260283D01*
X0438797Y0260283D01*
X0436945Y0259516D01*
X0435527Y0258099D01*
X0434760Y0256247D01*
X0434760Y0254243D01*
X0435527Y0252391D01*
X0436945Y0250973D01*
X0436460Y0251458D02*
X0383059Y0251458D01*
X0383858Y0252257D02*
X0435661Y0252257D01*
X0435252Y0253055D02*
X0384267Y0253055D01*
X0384598Y0253854D02*
X0434921Y0253854D01*
X0434760Y0254652D02*
X0384759Y0254652D01*
X0384759Y0255451D02*
X0434760Y0255451D01*
X0434761Y0256249D02*
X0384758Y0256249D01*
X0384427Y0257048D02*
X0435092Y0257048D01*
X0435423Y0257846D02*
X0384096Y0257846D01*
X0383446Y0258645D02*
X0436073Y0258645D01*
X0436872Y0259443D02*
X0382647Y0259443D01*
X0380823Y0260242D02*
X0438696Y0260242D01*
X0440901Y0260242D02*
X0526837Y0260242D01*
X0526837Y0259443D02*
X0442726Y0259443D01*
X0443524Y0258645D02*
X0526837Y0258645D01*
X0526837Y0257846D02*
X0444175Y0257846D01*
X0444506Y0257048D02*
X0526837Y0257048D01*
X0526837Y0256249D02*
X0444836Y0256249D01*
X0444837Y0255451D02*
X0526837Y0255451D01*
X0526837Y0254652D02*
X0444837Y0254652D01*
X0444676Y0253854D02*
X0526837Y0253854D01*
X0526837Y0253055D02*
X0444346Y0253055D01*
X0443936Y0252257D02*
X0526837Y0252257D01*
X0526837Y0251458D02*
X0443138Y0251458D01*
X0441896Y0250660D02*
X0526837Y0250660D01*
X0526837Y0249861D02*
X0316321Y0249861D01*
X0316764Y0249063D02*
X0526837Y0249063D01*
X0526837Y0248264D02*
X0317094Y0248264D01*
X0317369Y0247466D02*
X0526837Y0247466D01*
X0526837Y0246667D02*
X0317369Y0246667D01*
X0317369Y0245869D02*
X0526837Y0245869D01*
X0526837Y0245070D02*
X0441886Y0245070D01*
X0442653Y0244753D02*
X0440801Y0245520D01*
X0438797Y0245520D01*
X0436945Y0244753D01*
X0435527Y0243335D01*
X0434760Y0241483D01*
X0434760Y0239479D01*
X0435527Y0237627D01*
X0436945Y0236210D01*
X0438797Y0235443D01*
X0440801Y0235443D01*
X0442653Y0236210D01*
X0444070Y0237627D01*
X0444837Y0239479D01*
X0444837Y0241483D01*
X0444070Y0243335D01*
X0442653Y0244753D01*
X0443134Y0244272D02*
X0526837Y0244272D01*
X0526837Y0243473D02*
X0443932Y0243473D01*
X0444344Y0242675D02*
X0526837Y0242675D01*
X0526837Y0241876D02*
X0444675Y0241876D01*
X0444837Y0241078D02*
X0526837Y0241078D01*
X0526837Y0240279D02*
X0444837Y0240279D01*
X0444837Y0239481D02*
X0526837Y0239481D01*
X0526837Y0238682D02*
X0444507Y0238682D01*
X0444177Y0237884D02*
X0526837Y0237884D01*
X0526837Y0237085D02*
X0443528Y0237085D01*
X0442730Y0236287D02*
X0526837Y0236287D01*
X0526837Y0235488D02*
X0440911Y0235488D01*
X0438687Y0235488D02*
X0156192Y0235488D01*
X0156990Y0234690D02*
X0526837Y0234690D01*
X0526837Y0233891D02*
X0157789Y0233891D01*
X0158587Y0233093D02*
X0526837Y0233093D01*
X0526837Y0232294D02*
X0459883Y0232294D01*
X0459703Y0232368D02*
X0458594Y0232368D01*
X0457570Y0231944D01*
X0456786Y0231160D01*
X0456361Y0230136D01*
X0456361Y0229027D01*
X0456786Y0228002D01*
X0457570Y0227218D01*
X0458594Y0226794D01*
X0459703Y0226794D01*
X0460728Y0227218D01*
X0461512Y0228002D01*
X0461936Y0229027D01*
X0461936Y0230136D01*
X0461512Y0231160D01*
X0460728Y0231944D01*
X0459703Y0232368D01*
X0458415Y0232294D02*
X0159386Y0232294D01*
X0160184Y0231496D02*
X0457121Y0231496D01*
X0456594Y0230697D02*
X0440943Y0230697D01*
X0440801Y0230756D02*
X0442653Y0229989D01*
X0444070Y0228571D01*
X0444837Y0226720D01*
X0444837Y0224715D01*
X0444070Y0222863D01*
X0442653Y0221446D01*
X0440801Y0220679D01*
X0438797Y0220679D01*
X0436945Y0221446D01*
X0435527Y0222863D01*
X0434760Y0224715D01*
X0434760Y0226720D01*
X0435527Y0228571D01*
X0436945Y0229989D01*
X0438797Y0230756D01*
X0440801Y0230756D01*
X0442743Y0229899D02*
X0456361Y0229899D01*
X0456361Y0229100D02*
X0443542Y0229100D01*
X0444182Y0228301D02*
X0456662Y0228301D01*
X0457285Y0227503D02*
X0444513Y0227503D01*
X0444837Y0226704D02*
X0526837Y0226704D01*
X0526837Y0225906D02*
X0444837Y0225906D01*
X0444837Y0225107D02*
X0526837Y0225107D01*
X0526837Y0224309D02*
X0444669Y0224309D01*
X0444338Y0223510D02*
X0526837Y0223510D01*
X0526837Y0222712D02*
X0443919Y0222712D01*
X0443121Y0221913D02*
X0526837Y0221913D01*
X0526837Y0221115D02*
X0441854Y0221115D01*
X0437744Y0221115D02*
X0381775Y0221115D01*
X0382574Y0221446D02*
X0383992Y0222863D01*
X0384759Y0224715D01*
X0384759Y0226720D01*
X0383992Y0228571D01*
X0382574Y0229989D01*
X0380722Y0230756D01*
X0378718Y0230756D01*
X0376866Y0229989D01*
X0375449Y0228571D01*
X0374681Y0226720D01*
X0374681Y0224715D01*
X0375449Y0222863D01*
X0376866Y0221446D01*
X0378718Y0220679D01*
X0380722Y0220679D01*
X0382574Y0221446D01*
X0383042Y0221913D02*
X0436477Y0221913D01*
X0435679Y0222712D02*
X0383840Y0222712D01*
X0384260Y0223510D02*
X0435259Y0223510D01*
X0434928Y0224309D02*
X0384590Y0224309D01*
X0384759Y0225107D02*
X0434760Y0225107D01*
X0434760Y0225906D02*
X0384759Y0225906D01*
X0384759Y0226704D02*
X0434760Y0226704D01*
X0435085Y0227503D02*
X0384434Y0227503D01*
X0384103Y0228301D02*
X0435416Y0228301D01*
X0436056Y0229100D02*
X0383463Y0229100D01*
X0382665Y0229899D02*
X0436854Y0229899D01*
X0438654Y0230697D02*
X0380864Y0230697D01*
X0378576Y0230697D02*
X0361022Y0230697D01*
X0360880Y0230756D02*
X0358875Y0230756D01*
X0357023Y0229989D01*
X0355606Y0228571D01*
X0354839Y0226720D01*
X0354839Y0224715D01*
X0355606Y0222863D01*
X0357023Y0221446D01*
X0358875Y0220679D01*
X0360880Y0220679D01*
X0362732Y0221446D01*
X0364149Y0222863D01*
X0364916Y0224715D01*
X0364916Y0226720D01*
X0364149Y0228571D01*
X0362732Y0229989D01*
X0360880Y0230756D01*
X0362822Y0229899D02*
X0376776Y0229899D01*
X0375977Y0229100D02*
X0363620Y0229100D01*
X0364261Y0228301D02*
X0375337Y0228301D01*
X0375006Y0227503D02*
X0364592Y0227503D01*
X0364916Y0226704D02*
X0374681Y0226704D01*
X0374681Y0225906D02*
X0364916Y0225906D01*
X0364916Y0225107D02*
X0374681Y0225107D01*
X0374850Y0224309D02*
X0364748Y0224309D01*
X0364417Y0223510D02*
X0375180Y0223510D01*
X0375600Y0222712D02*
X0363998Y0222712D01*
X0363199Y0221913D02*
X0376398Y0221913D01*
X0377665Y0221115D02*
X0361933Y0221115D01*
X0357822Y0221115D02*
X0342090Y0221115D01*
X0342889Y0221446D02*
X0344307Y0222863D01*
X0345074Y0224715D01*
X0345074Y0226720D01*
X0344307Y0228571D01*
X0342889Y0229989D01*
X0341037Y0230756D01*
X0339033Y0230756D01*
X0337181Y0229989D01*
X0335764Y0228571D01*
X0334996Y0226720D01*
X0334996Y0224715D01*
X0335764Y0222863D01*
X0337181Y0221446D01*
X0339033Y0220679D01*
X0341037Y0220679D01*
X0342889Y0221446D01*
X0343357Y0221913D02*
X0356556Y0221913D01*
X0355757Y0222712D02*
X0344155Y0222712D01*
X0344575Y0223510D02*
X0355338Y0223510D01*
X0355007Y0224309D02*
X0344905Y0224309D01*
X0345074Y0225107D02*
X0354839Y0225107D01*
X0354839Y0225906D02*
X0345074Y0225906D01*
X0345074Y0226704D02*
X0354839Y0226704D01*
X0355163Y0227503D02*
X0344749Y0227503D01*
X0344418Y0228301D02*
X0355494Y0228301D01*
X0356135Y0229100D02*
X0343778Y0229100D01*
X0342979Y0229899D02*
X0356933Y0229899D01*
X0358733Y0230697D02*
X0341179Y0230697D01*
X0338891Y0230697D02*
X0160983Y0230697D01*
X0161781Y0229899D02*
X0193324Y0229899D01*
X0193620Y0230194D02*
X0192836Y0229410D01*
X0192411Y0228386D01*
X0192411Y0227277D01*
X0192836Y0226252D01*
X0193620Y0225468D01*
X0194644Y0225044D01*
X0195753Y0225044D01*
X0196778Y0225468D01*
X0197562Y0226252D01*
X0197986Y0227277D01*
X0197986Y0228386D01*
X0197562Y0229410D01*
X0196778Y0230194D01*
X0195753Y0230618D01*
X0194644Y0230618D01*
X0193620Y0230194D01*
X0192707Y0229100D02*
X0162580Y0229100D01*
X0163378Y0228301D02*
X0192411Y0228301D01*
X0192411Y0227503D02*
X0164177Y0227503D01*
X0164975Y0226704D02*
X0192648Y0226704D01*
X0193182Y0225906D02*
X0165774Y0225906D01*
X0166572Y0225107D02*
X0194490Y0225107D01*
X0195907Y0225107D02*
X0201313Y0225107D01*
X0201497Y0225183D02*
X0199645Y0224416D01*
X0198227Y0222999D01*
X0197460Y0221147D01*
X0197460Y0219143D01*
X0198227Y0217291D01*
X0199645Y0215873D01*
X0201497Y0215106D01*
X0203501Y0215106D01*
X0205353Y0215873D01*
X0206770Y0217291D01*
X0207537Y0219143D01*
X0207537Y0221147D01*
X0206770Y0222999D01*
X0205353Y0224416D01*
X0203501Y0225183D01*
X0201497Y0225183D01*
X0199537Y0224309D02*
X0167371Y0224309D01*
X0168170Y0223510D02*
X0198739Y0223510D01*
X0198108Y0222712D02*
X0168968Y0222712D01*
X0169767Y0221913D02*
X0197778Y0221913D01*
X0197460Y0221115D02*
X0170565Y0221115D01*
X0171364Y0220316D02*
X0197460Y0220316D01*
X0197460Y0219518D02*
X0172162Y0219518D01*
X0172961Y0218719D02*
X0197636Y0218719D01*
X0197966Y0217921D02*
X0173759Y0217921D01*
X0174558Y0217122D02*
X0198396Y0217122D01*
X0199194Y0216324D02*
X0175356Y0216324D01*
X0176155Y0215525D02*
X0200485Y0215525D01*
X0204513Y0215525D02*
X0222003Y0215525D01*
X0222088Y0215560D02*
X0220019Y0214703D01*
X0218435Y0213120D01*
X0217578Y0211051D01*
X0217578Y0208811D01*
X0218435Y0206742D01*
X0220019Y0205159D01*
X0222088Y0204302D01*
X0224327Y0204302D01*
X0226396Y0205159D01*
X0227980Y0206742D01*
X0228837Y0208811D01*
X0228837Y0211051D01*
X0227980Y0213120D01*
X0226396Y0214703D01*
X0224327Y0215560D01*
X0222088Y0215560D01*
X0220076Y0214727D02*
X0176953Y0214727D01*
X0177752Y0213928D02*
X0219244Y0213928D01*
X0218445Y0213130D02*
X0178550Y0213130D01*
X0179349Y0212331D02*
X0218109Y0212331D01*
X0217778Y0211533D02*
X0180147Y0211533D01*
X0180946Y0210734D02*
X0217578Y0210734D01*
X0217578Y0209936D02*
X0204669Y0209936D01*
X0205353Y0209653D02*
X0203501Y0210420D01*
X0201497Y0210420D01*
X0199645Y0209653D01*
X0198227Y0208235D01*
X0197460Y0206383D01*
X0197460Y0204379D01*
X0198227Y0202527D01*
X0199645Y0201110D01*
X0201497Y0200343D01*
X0203501Y0200343D01*
X0205353Y0201110D01*
X0206770Y0202527D01*
X0207537Y0204379D01*
X0207537Y0206383D01*
X0206770Y0208235D01*
X0205353Y0209653D01*
X0205868Y0209137D02*
X0217578Y0209137D01*
X0217774Y0208339D02*
X0206667Y0208339D01*
X0207058Y0207540D02*
X0218105Y0207540D01*
X0218436Y0206742D02*
X0207389Y0206742D01*
X0207537Y0205943D02*
X0219235Y0205943D01*
X0220053Y0205145D02*
X0207537Y0205145D01*
X0207524Y0204346D02*
X0221981Y0204346D01*
X0224434Y0204346D02*
X0256543Y0204346D01*
X0256370Y0204418D02*
X0257394Y0203994D01*
X0258503Y0203994D01*
X0259528Y0204418D01*
X0260312Y0205202D01*
X0260736Y0206227D01*
X0260736Y0207336D01*
X0260312Y0208360D01*
X0259528Y0209144D01*
X0258503Y0209568D01*
X0257394Y0209568D01*
X0256370Y0209144D01*
X0255586Y0208360D01*
X0255161Y0207336D01*
X0255161Y0206227D01*
X0255586Y0205202D01*
X0256370Y0204418D01*
X0255643Y0205145D02*
X0226362Y0205145D01*
X0227180Y0205943D02*
X0255279Y0205943D01*
X0255161Y0206742D02*
X0227979Y0206742D01*
X0228310Y0207540D02*
X0255246Y0207540D01*
X0255577Y0208339D02*
X0228641Y0208339D01*
X0228837Y0209137D02*
X0256363Y0209137D01*
X0259535Y0209137D02*
X0306161Y0209137D01*
X0306161Y0208811D02*
X0307018Y0206742D01*
X0308602Y0205159D01*
X0310670Y0204302D01*
X0312910Y0204302D01*
X0314979Y0205159D01*
X0316562Y0206742D01*
X0317419Y0208811D01*
X0317419Y0211051D01*
X0316562Y0213120D01*
X0314979Y0214703D01*
X0312910Y0215560D01*
X0310670Y0215560D01*
X0308602Y0214703D01*
X0307018Y0213120D01*
X0306161Y0211051D01*
X0306161Y0208811D01*
X0306357Y0208339D02*
X0260321Y0208339D01*
X0260651Y0207540D02*
X0306688Y0207540D01*
X0307019Y0206742D02*
X0260736Y0206742D01*
X0260619Y0205943D02*
X0307817Y0205943D01*
X0308636Y0205145D02*
X0260254Y0205145D01*
X0259354Y0204346D02*
X0310564Y0204346D01*
X0313017Y0204346D02*
X0318711Y0204346D01*
X0318711Y0204736D02*
X0318711Y0203627D01*
X0319124Y0202631D01*
X0318711Y0201636D01*
X0318711Y0200527D01*
X0319136Y0199502D01*
X0319920Y0198718D01*
X0320944Y0198294D01*
X0322053Y0198294D01*
X0323074Y0198716D01*
X0324094Y0198294D01*
X0325203Y0198294D01*
X0326224Y0198716D01*
X0327244Y0198294D01*
X0328353Y0198294D01*
X0329378Y0198718D01*
X0330162Y0199502D01*
X0330586Y0200527D01*
X0330586Y0201636D01*
X0330163Y0202656D01*
X0330586Y0203677D01*
X0330586Y0204786D01*
X0330163Y0205806D01*
X0330586Y0206827D01*
X0330586Y0207936D01*
X0330174Y0208931D01*
X0330586Y0209927D01*
X0330586Y0211036D01*
X0330162Y0212060D01*
X0329378Y0212844D01*
X0328353Y0213268D01*
X0327244Y0213268D01*
X0326224Y0212846D01*
X0325203Y0213268D01*
X0324094Y0213268D01*
X0323074Y0212846D01*
X0322053Y0213268D01*
X0320944Y0213268D01*
X0319920Y0212844D01*
X0319136Y0212060D01*
X0318711Y0211036D01*
X0318711Y0209927D01*
X0319134Y0208906D01*
X0318711Y0207886D01*
X0318711Y0206777D01*
X0319134Y0205756D01*
X0318711Y0204736D01*
X0318881Y0205145D02*
X0314944Y0205145D01*
X0315763Y0205943D02*
X0319057Y0205943D01*
X0318726Y0206742D02*
X0316562Y0206742D01*
X0316893Y0207540D02*
X0318711Y0207540D01*
X0318899Y0208339D02*
X0317223Y0208339D01*
X0317419Y0209137D02*
X0319038Y0209137D01*
X0318711Y0209936D02*
X0317419Y0209936D01*
X0317419Y0210734D02*
X0318711Y0210734D01*
X0318917Y0211533D02*
X0317220Y0211533D01*
X0316889Y0212331D02*
X0319407Y0212331D01*
X0320609Y0213130D02*
X0316552Y0213130D01*
X0315754Y0213928D02*
X0516275Y0213928D01*
X0516286Y0213902D02*
X0517070Y0213118D01*
X0518094Y0212694D01*
X0519203Y0212694D01*
X0520228Y0213118D01*
X0521012Y0213902D01*
X0521436Y0214927D01*
X0521436Y0216036D01*
X0521012Y0217060D01*
X0520228Y0217844D01*
X0519203Y0218268D01*
X0518094Y0218268D01*
X0517070Y0217844D01*
X0516286Y0217060D01*
X0515861Y0216036D01*
X0515861Y0214927D01*
X0516286Y0213902D01*
X0515944Y0214727D02*
X0314922Y0214727D01*
X0312994Y0215525D02*
X0515861Y0215525D01*
X0515981Y0216324D02*
X0285217Y0216324D01*
X0285336Y0216036D02*
X0284912Y0217060D01*
X0284128Y0217844D01*
X0283103Y0218268D01*
X0281994Y0218268D01*
X0280970Y0217844D01*
X0280186Y0217060D01*
X0279761Y0216036D01*
X0279761Y0214927D01*
X0280186Y0213902D01*
X0280970Y0213118D01*
X0281994Y0212694D01*
X0283103Y0212694D01*
X0284128Y0213118D01*
X0284912Y0213902D01*
X0285336Y0214927D01*
X0285336Y0216036D01*
X0285336Y0215525D02*
X0310586Y0215525D01*
X0308658Y0214727D02*
X0285253Y0214727D01*
X0284923Y0213928D02*
X0307827Y0213928D01*
X0307028Y0213130D02*
X0284139Y0213130D01*
X0280958Y0213130D02*
X0227970Y0213130D01*
X0228306Y0212331D02*
X0306691Y0212331D01*
X0306361Y0211533D02*
X0228637Y0211533D01*
X0228837Y0210734D02*
X0306161Y0210734D01*
X0306161Y0209936D02*
X0228837Y0209936D01*
X0227171Y0213928D02*
X0280175Y0213928D01*
X0279844Y0214727D02*
X0226339Y0214727D01*
X0224411Y0215525D02*
X0279761Y0215525D01*
X0279881Y0216324D02*
X0205803Y0216324D01*
X0206602Y0217122D02*
X0280248Y0217122D01*
X0281155Y0217921D02*
X0207031Y0217921D01*
X0207362Y0218719D02*
X0526837Y0218719D01*
X0526837Y0217921D02*
X0520043Y0217921D01*
X0520950Y0217122D02*
X0526837Y0217122D01*
X0526837Y0216324D02*
X0521317Y0216324D01*
X0521436Y0215525D02*
X0526837Y0215525D01*
X0526837Y0214727D02*
X0521353Y0214727D01*
X0521023Y0213928D02*
X0526837Y0213928D01*
X0526837Y0213130D02*
X0520239Y0213130D01*
X0517058Y0213130D02*
X0328688Y0213130D01*
X0329891Y0212331D02*
X0526837Y0212331D01*
X0526837Y0211533D02*
X0330380Y0211533D01*
X0330586Y0210734D02*
X0526837Y0210734D01*
X0526837Y0209936D02*
X0347315Y0209936D01*
X0347778Y0209744D02*
X0346753Y0210168D01*
X0345644Y0210168D01*
X0344620Y0209744D01*
X0343836Y0208960D01*
X0343411Y0207936D01*
X0343411Y0206827D01*
X0343836Y0205802D01*
X0344620Y0205018D01*
X0345644Y0204594D01*
X0346753Y0204594D01*
X0347778Y0205018D01*
X0348562Y0205802D01*
X0348986Y0206827D01*
X0348986Y0207936D01*
X0348562Y0208960D01*
X0347778Y0209744D01*
X0348385Y0209137D02*
X0526837Y0209137D01*
X0526837Y0208339D02*
X0476383Y0208339D01*
X0476028Y0208694D02*
X0475003Y0209118D01*
X0473894Y0209118D01*
X0472870Y0208694D01*
X0472086Y0207910D01*
X0471661Y0206886D01*
X0471661Y0205777D01*
X0472086Y0204752D01*
X0472870Y0203968D01*
X0473894Y0203544D01*
X0475003Y0203544D01*
X0476028Y0203968D01*
X0476812Y0204752D01*
X0477236Y0205777D01*
X0477236Y0206886D01*
X0476812Y0207910D01*
X0476028Y0208694D01*
X0476965Y0207540D02*
X0526837Y0207540D01*
X0526837Y0206742D02*
X0477236Y0206742D01*
X0477236Y0205943D02*
X0526837Y0205943D01*
X0526837Y0205145D02*
X0476974Y0205145D01*
X0476406Y0204346D02*
X0526837Y0204346D01*
X0526837Y0203548D02*
X0475013Y0203548D01*
X0473885Y0203548D02*
X0330533Y0203548D01*
X0330586Y0204346D02*
X0472492Y0204346D01*
X0471923Y0205145D02*
X0347904Y0205145D01*
X0348620Y0205943D02*
X0471661Y0205943D01*
X0471661Y0206742D02*
X0348951Y0206742D01*
X0348986Y0207540D02*
X0471933Y0207540D01*
X0472514Y0208339D02*
X0348819Y0208339D01*
X0345082Y0209936D02*
X0330586Y0209936D01*
X0330259Y0209137D02*
X0344013Y0209137D01*
X0343578Y0208339D02*
X0330419Y0208339D01*
X0330586Y0207540D02*
X0343411Y0207540D01*
X0343447Y0206742D02*
X0330551Y0206742D01*
X0330220Y0205943D02*
X0343777Y0205943D01*
X0344493Y0205145D02*
X0330437Y0205145D01*
X0330202Y0202749D02*
X0520975Y0202749D01*
X0521120Y0202894D02*
X0520336Y0202110D01*
X0519911Y0201086D01*
X0519911Y0199977D01*
X0520336Y0198952D01*
X0521120Y0198168D01*
X0522144Y0197744D01*
X0523253Y0197744D01*
X0524278Y0198168D01*
X0525062Y0198952D01*
X0525486Y0199977D01*
X0525486Y0201086D01*
X0525062Y0202110D01*
X0524278Y0202894D01*
X0523253Y0203318D01*
X0522144Y0203318D01*
X0521120Y0202894D01*
X0520270Y0201951D02*
X0330456Y0201951D01*
X0330586Y0201152D02*
X0519939Y0201152D01*
X0519911Y0200354D02*
X0340834Y0200354D01*
X0340978Y0200294D02*
X0339953Y0200718D01*
X0338844Y0200718D01*
X0337820Y0200294D01*
X0337036Y0199510D01*
X0336611Y0198486D01*
X0336611Y0197377D01*
X0337036Y0196352D01*
X0337820Y0195568D01*
X0338844Y0195144D01*
X0339953Y0195144D01*
X0340978Y0195568D01*
X0341762Y0196352D01*
X0342186Y0197377D01*
X0342186Y0198486D01*
X0341762Y0199510D01*
X0340978Y0200294D01*
X0341717Y0199555D02*
X0520086Y0199555D01*
X0520531Y0198757D02*
X0342074Y0198757D01*
X0342186Y0197958D02*
X0450104Y0197958D01*
X0450070Y0197944D02*
X0449286Y0197160D01*
X0448861Y0196136D01*
X0448861Y0195027D01*
X0449286Y0194002D01*
X0450070Y0193218D01*
X0451094Y0192794D01*
X0452203Y0192794D01*
X0453228Y0193218D01*
X0454012Y0194002D01*
X0454436Y0195027D01*
X0454436Y0196136D01*
X0454012Y0197160D01*
X0453228Y0197944D01*
X0452203Y0198368D01*
X0451094Y0198368D01*
X0450070Y0197944D01*
X0449286Y0197160D02*
X0342096Y0197160D01*
X0341766Y0196361D02*
X0448955Y0196361D01*
X0448861Y0195563D02*
X0340964Y0195563D01*
X0337833Y0195563D02*
X0274128Y0195563D01*
X0274062Y0195402D02*
X0274486Y0196427D01*
X0274486Y0197536D01*
X0274062Y0198560D01*
X0273278Y0199344D01*
X0272253Y0199768D01*
X0271144Y0199768D01*
X0270120Y0199344D01*
X0269336Y0198560D01*
X0268911Y0197536D01*
X0268911Y0196427D01*
X0269336Y0195402D01*
X0270120Y0194618D01*
X0271144Y0194194D01*
X0272253Y0194194D01*
X0273278Y0194618D01*
X0274062Y0195402D01*
X0273424Y0194764D02*
X0448970Y0194764D01*
X0449322Y0193966D02*
X0206276Y0193966D01*
X0206770Y0193471D02*
X0205353Y0194889D01*
X0203501Y0195656D01*
X0201497Y0195656D01*
X0199645Y0194889D01*
X0198227Y0193471D01*
X0197460Y0191620D01*
X0197460Y0189615D01*
X0198227Y0187763D01*
X0199645Y0186346D01*
X0201497Y0185579D01*
X0203501Y0185579D01*
X0205353Y0186346D01*
X0206770Y0187763D01*
X0207537Y0189615D01*
X0207537Y0191620D01*
X0206770Y0193471D01*
X0206896Y0193167D02*
X0380076Y0193167D01*
X0380028Y0193135D02*
X0379532Y0192639D01*
X0379142Y0192055D01*
X0378874Y0191407D01*
X0378744Y0190756D01*
X0381911Y0190756D01*
X0381911Y0193923D01*
X0381260Y0193793D01*
X0380611Y0193525D01*
X0380028Y0193135D01*
X0379351Y0192368D02*
X0207227Y0192368D01*
X0207537Y0191570D02*
X0357296Y0191570D01*
X0357420Y0191694D02*
X0356636Y0190910D01*
X0356211Y0189886D01*
X0356211Y0188777D01*
X0356636Y0187752D01*
X0357420Y0186968D01*
X0358444Y0186544D01*
X0359553Y0186544D01*
X0360578Y0186968D01*
X0361362Y0187752D01*
X0361786Y0188777D01*
X0361786Y0189886D01*
X0361362Y0190910D01*
X0360578Y0191694D01*
X0359553Y0192118D01*
X0358444Y0192118D01*
X0357420Y0191694D01*
X0356578Y0190771D02*
X0207537Y0190771D01*
X0207537Y0189973D02*
X0356248Y0189973D01*
X0356211Y0189174D02*
X0252692Y0189174D01*
X0253128Y0188994D02*
X0252103Y0189418D01*
X0250994Y0189418D01*
X0249970Y0188994D01*
X0249186Y0188210D01*
X0248761Y0187186D01*
X0248761Y0186077D01*
X0249186Y0185052D01*
X0249970Y0184268D01*
X0250994Y0183844D01*
X0252103Y0183844D01*
X0253128Y0184268D01*
X0253912Y0185052D01*
X0254336Y0186077D01*
X0254336Y0187186D01*
X0253912Y0188210D01*
X0253128Y0188994D01*
X0253746Y0188376D02*
X0356377Y0188376D01*
X0356811Y0187577D02*
X0254174Y0187577D01*
X0254336Y0186779D02*
X0357877Y0186779D01*
X0360121Y0186779D02*
X0483550Y0186779D01*
X0483511Y0186686D02*
X0483511Y0185577D01*
X0483936Y0184552D01*
X0484720Y0183768D01*
X0485744Y0183344D01*
X0486853Y0183344D01*
X0487878Y0183768D01*
X0488662Y0184552D01*
X0489086Y0185577D01*
X0489086Y0186686D01*
X0488662Y0187710D01*
X0487878Y0188494D01*
X0486853Y0188918D01*
X0485744Y0188918D01*
X0484720Y0188494D01*
X0483936Y0187710D01*
X0483511Y0186686D01*
X0483511Y0185980D02*
X0383191Y0185980D01*
X0383007Y0186056D02*
X0381590Y0186056D01*
X0380281Y0185514D01*
X0379279Y0184512D01*
X0378737Y0183203D01*
X0378737Y0181786D01*
X0379279Y0180476D01*
X0380281Y0179474D01*
X0381590Y0178932D01*
X0383007Y0178932D01*
X0384317Y0179474D01*
X0385319Y0180476D01*
X0385861Y0181786D01*
X0385861Y0183203D01*
X0385319Y0184512D01*
X0384317Y0185514D01*
X0383007Y0186056D01*
X0382686Y0186813D02*
X0383338Y0186943D01*
X0383986Y0187211D01*
X0384570Y0187601D01*
X0385066Y0188097D01*
X0385456Y0188681D01*
X0385724Y0189329D01*
X0385854Y0189981D01*
X0382686Y0189981D01*
X0382686Y0190756D01*
X0381911Y0190756D01*
X0381911Y0189981D01*
X0378744Y0189981D01*
X0378874Y0189329D01*
X0379142Y0188681D01*
X0379532Y0188097D01*
X0380028Y0187601D01*
X0380611Y0187211D01*
X0381260Y0186943D01*
X0381911Y0186813D01*
X0381911Y0189981D01*
X0382686Y0189981D01*
X0382686Y0186813D01*
X0382686Y0187577D02*
X0381911Y0187577D01*
X0381911Y0188376D02*
X0382686Y0188376D01*
X0382686Y0189174D02*
X0381911Y0189174D01*
X0381911Y0189973D02*
X0382686Y0189973D01*
X0382686Y0190756D02*
X0385854Y0190756D01*
X0385724Y0191407D01*
X0385456Y0192055D01*
X0385066Y0192639D01*
X0384570Y0193135D01*
X0383986Y0193525D01*
X0383338Y0193793D01*
X0382686Y0193923D01*
X0382686Y0190756D01*
X0382686Y0190771D02*
X0381911Y0190771D01*
X0381911Y0191570D02*
X0382686Y0191570D01*
X0382686Y0192368D02*
X0381911Y0192368D01*
X0381911Y0193167D02*
X0382686Y0193167D01*
X0384522Y0193167D02*
X0450193Y0193167D01*
X0453104Y0193167D02*
X0526837Y0193167D01*
X0526837Y0193966D02*
X0453975Y0193966D01*
X0454327Y0194764D02*
X0526837Y0194764D01*
X0526837Y0195563D02*
X0454436Y0195563D01*
X0454343Y0196361D02*
X0526837Y0196361D01*
X0526837Y0197160D02*
X0454012Y0197160D01*
X0453194Y0197958D02*
X0521627Y0197958D01*
X0523771Y0197958D02*
X0526837Y0197958D01*
X0526837Y0198757D02*
X0524866Y0198757D01*
X0525312Y0199555D02*
X0526837Y0199555D01*
X0526837Y0200354D02*
X0525486Y0200354D01*
X0525459Y0201152D02*
X0526837Y0201152D01*
X0526837Y0201951D02*
X0525128Y0201951D01*
X0524423Y0202749D02*
X0526837Y0202749D01*
X0526837Y0192368D02*
X0385246Y0192368D01*
X0385657Y0191570D02*
X0526837Y0191570D01*
X0526837Y0190771D02*
X0385851Y0190771D01*
X0385852Y0189973D02*
X0526837Y0189973D01*
X0526837Y0189174D02*
X0385660Y0189174D01*
X0385252Y0188376D02*
X0484602Y0188376D01*
X0483881Y0187577D02*
X0384534Y0187577D01*
X0384649Y0185182D02*
X0483675Y0185182D01*
X0484105Y0184383D02*
X0385372Y0184383D01*
X0385703Y0183585D02*
X0485162Y0183585D01*
X0487435Y0183585D02*
X0526837Y0183585D01*
X0526837Y0184383D02*
X0488493Y0184383D01*
X0488923Y0185182D02*
X0526837Y0185182D01*
X0526837Y0185980D02*
X0489086Y0185980D01*
X0489048Y0186779D02*
X0526837Y0186779D01*
X0526837Y0187577D02*
X0488717Y0187577D01*
X0487996Y0188376D02*
X0526837Y0188376D01*
X0526837Y0182786D02*
X0385861Y0182786D01*
X0385861Y0181988D02*
X0526837Y0181988D01*
X0526837Y0181189D02*
X0385614Y0181189D01*
X0385233Y0180391D02*
X0526837Y0180391D01*
X0526837Y0179592D02*
X0384435Y0179592D01*
X0380163Y0179592D02*
X0378052Y0179592D01*
X0377962Y0179810D02*
X0377178Y0180594D01*
X0376153Y0181018D01*
X0375044Y0181018D01*
X0374020Y0180594D01*
X0373236Y0179810D01*
X0372811Y0178786D01*
X0372811Y0177677D01*
X0373236Y0176652D01*
X0374020Y0175868D01*
X0375044Y0175444D01*
X0376153Y0175444D01*
X0377178Y0175868D01*
X0377962Y0176652D01*
X0378386Y0177677D01*
X0378386Y0178786D01*
X0377962Y0179810D01*
X0377381Y0180391D02*
X0379364Y0180391D01*
X0378984Y0181189D02*
X0355940Y0181189D01*
X0356086Y0180836D02*
X0355662Y0181860D01*
X0354878Y0182644D01*
X0353853Y0183068D01*
X0352744Y0183068D01*
X0351720Y0182644D01*
X0350936Y0181860D01*
X0350511Y0180836D01*
X0350511Y0179727D01*
X0350936Y0178702D01*
X0351720Y0177918D01*
X0352744Y0177494D01*
X0353853Y0177494D01*
X0354878Y0177918D01*
X0355662Y0178702D01*
X0356086Y0179727D01*
X0356086Y0180836D01*
X0356086Y0180391D02*
X0373817Y0180391D01*
X0373146Y0179592D02*
X0356031Y0179592D01*
X0355700Y0178794D02*
X0372815Y0178794D01*
X0372811Y0177995D02*
X0354955Y0177995D01*
X0351643Y0177995D02*
X0339755Y0177995D01*
X0339428Y0177668D02*
X0340212Y0178452D01*
X0340636Y0179477D01*
X0340636Y0180586D01*
X0340212Y0181610D01*
X0339428Y0182394D01*
X0338403Y0182818D01*
X0337294Y0182818D01*
X0336270Y0182394D01*
X0335486Y0181610D01*
X0335061Y0180586D01*
X0335061Y0179477D01*
X0335486Y0178452D01*
X0336270Y0177668D01*
X0337294Y0177244D01*
X0338403Y0177244D01*
X0339428Y0177668D01*
X0340353Y0178794D02*
X0350898Y0178794D01*
X0350567Y0179592D02*
X0340636Y0179592D01*
X0340636Y0180391D02*
X0350511Y0180391D01*
X0350658Y0181189D02*
X0340386Y0181189D01*
X0339834Y0181988D02*
X0351064Y0181988D01*
X0352063Y0182786D02*
X0338481Y0182786D01*
X0337217Y0182786D02*
X0201999Y0182786D01*
X0201999Y0181988D02*
X0335864Y0181988D01*
X0335312Y0181189D02*
X0201999Y0181189D01*
X0201999Y0180391D02*
X0335061Y0180391D01*
X0335061Y0179592D02*
X0201999Y0179592D01*
X0201999Y0178794D02*
X0335344Y0178794D01*
X0335943Y0177995D02*
X0201999Y0177995D01*
X0201999Y0177197D02*
X0373010Y0177197D01*
X0373490Y0176398D02*
X0201999Y0176398D01*
X0201999Y0175600D02*
X0237825Y0175600D01*
X0237570Y0175494D02*
X0236786Y0174710D01*
X0236361Y0173686D01*
X0236361Y0172577D01*
X0236786Y0171552D01*
X0237570Y0170768D01*
X0238594Y0170344D01*
X0239703Y0170344D01*
X0240728Y0170768D01*
X0241512Y0171552D01*
X0241936Y0172577D01*
X0241936Y0173686D01*
X0241512Y0174710D01*
X0240728Y0175494D01*
X0239703Y0175918D01*
X0238594Y0175918D01*
X0237570Y0175494D01*
X0236877Y0174801D02*
X0201999Y0174801D01*
X0201999Y0174003D02*
X0236493Y0174003D01*
X0236361Y0173204D02*
X0201999Y0173204D01*
X0201999Y0172406D02*
X0236432Y0172406D01*
X0236763Y0171607D02*
X0201999Y0171607D01*
X0201999Y0170809D02*
X0237529Y0170809D01*
X0240768Y0170809D02*
X0259061Y0170809D01*
X0259061Y0171286D02*
X0259061Y0170177D01*
X0259486Y0169152D01*
X0260270Y0168368D01*
X0261294Y0167944D01*
X0262403Y0167944D01*
X0263428Y0168368D01*
X0264212Y0169152D01*
X0264636Y0170177D01*
X0264636Y0171286D01*
X0264212Y0172310D01*
X0263428Y0173094D01*
X0262403Y0173518D01*
X0261294Y0173518D01*
X0260270Y0173094D01*
X0259486Y0172310D01*
X0259061Y0171286D01*
X0259195Y0171607D02*
X0241535Y0171607D01*
X0241865Y0172406D02*
X0259581Y0172406D01*
X0260536Y0173204D02*
X0241936Y0173204D01*
X0241805Y0174003D02*
X0305093Y0174003D01*
X0304961Y0173686D02*
X0304961Y0172577D01*
X0305386Y0171552D01*
X0306170Y0170768D01*
X0307194Y0170344D01*
X0308303Y0170344D01*
X0309328Y0170768D01*
X0310112Y0171552D01*
X0310536Y0172577D01*
X0310536Y0173686D01*
X0310112Y0174710D01*
X0309328Y0175494D01*
X0308303Y0175918D01*
X0307194Y0175918D01*
X0306170Y0175494D01*
X0305386Y0174710D01*
X0304961Y0173686D01*
X0304961Y0173204D02*
X0263162Y0173204D01*
X0264116Y0172406D02*
X0305032Y0172406D01*
X0305363Y0171607D02*
X0264503Y0171607D01*
X0264636Y0170809D02*
X0306129Y0170809D01*
X0309368Y0170809D02*
X0344079Y0170809D01*
X0344120Y0170768D02*
X0345144Y0170344D01*
X0346253Y0170344D01*
X0347278Y0170768D01*
X0348062Y0171552D01*
X0348486Y0172577D01*
X0348486Y0173686D01*
X0348062Y0174710D01*
X0347278Y0175494D01*
X0346253Y0175918D01*
X0345144Y0175918D01*
X0344120Y0175494D01*
X0343336Y0174710D01*
X0342911Y0173686D01*
X0342911Y0172577D01*
X0343336Y0171552D01*
X0344120Y0170768D01*
X0343313Y0171607D02*
X0310135Y0171607D01*
X0310465Y0172406D02*
X0342982Y0172406D01*
X0342911Y0173204D02*
X0310536Y0173204D01*
X0310405Y0174003D02*
X0343043Y0174003D01*
X0343427Y0174801D02*
X0310021Y0174801D01*
X0309073Y0175600D02*
X0344375Y0175600D01*
X0347023Y0175600D02*
X0374668Y0175600D01*
X0376530Y0175600D02*
X0479775Y0175600D01*
X0479736Y0175560D02*
X0479311Y0174536D01*
X0479311Y0173427D01*
X0479736Y0172402D01*
X0480520Y0171618D01*
X0481544Y0171194D01*
X0482653Y0171194D01*
X0483678Y0171618D01*
X0484462Y0172402D01*
X0484886Y0173427D01*
X0484886Y0174536D01*
X0484462Y0175560D01*
X0483678Y0176344D01*
X0482653Y0176768D01*
X0481544Y0176768D01*
X0480520Y0176344D01*
X0479736Y0175560D01*
X0479421Y0174801D02*
X0347971Y0174801D01*
X0348355Y0174003D02*
X0479311Y0174003D01*
X0479404Y0173204D02*
X0348486Y0173204D01*
X0348415Y0172406D02*
X0479734Y0172406D01*
X0480546Y0171607D02*
X0348085Y0171607D01*
X0347318Y0170809D02*
X0487680Y0170809D01*
X0487786Y0170552D02*
X0488570Y0169768D01*
X0489594Y0169344D01*
X0490703Y0169344D01*
X0491728Y0169768D01*
X0492512Y0170552D01*
X0492936Y0171577D01*
X0492936Y0172686D01*
X0492512Y0173710D01*
X0491728Y0174494D01*
X0490703Y0174918D01*
X0489594Y0174918D01*
X0488570Y0174494D01*
X0487786Y0173710D01*
X0487361Y0172686D01*
X0487361Y0171577D01*
X0487786Y0170552D01*
X0488328Y0170010D02*
X0322112Y0170010D01*
X0322028Y0170094D02*
X0321003Y0170518D01*
X0319894Y0170518D01*
X0318870Y0170094D01*
X0318086Y0169310D01*
X0317661Y0168286D01*
X0317661Y0167177D01*
X0318086Y0166152D01*
X0318870Y0165368D01*
X0319894Y0164944D01*
X0321003Y0164944D01*
X0322028Y0165368D01*
X0322812Y0166152D01*
X0323236Y0167177D01*
X0323236Y0168286D01*
X0322812Y0169310D01*
X0322028Y0170094D01*
X0322853Y0169212D02*
X0367562Y0169212D01*
X0367520Y0169194D02*
X0366736Y0168410D01*
X0366311Y0167386D01*
X0366311Y0166277D01*
X0366736Y0165252D01*
X0367520Y0164468D01*
X0368544Y0164044D01*
X0369653Y0164044D01*
X0370678Y0164468D01*
X0371462Y0165252D01*
X0371886Y0166277D01*
X0371886Y0167386D01*
X0371462Y0168410D01*
X0370678Y0169194D01*
X0369653Y0169618D01*
X0368544Y0169618D01*
X0367520Y0169194D01*
X0366739Y0168413D02*
X0323183Y0168413D01*
X0323236Y0167615D02*
X0332390Y0167615D01*
X0332570Y0167794D02*
X0331786Y0167010D01*
X0331361Y0165986D01*
X0331361Y0164877D01*
X0331786Y0163852D01*
X0332570Y0163068D01*
X0333594Y0162644D01*
X0334703Y0162644D01*
X0335728Y0163068D01*
X0336512Y0163852D01*
X0336936Y0164877D01*
X0336936Y0165986D01*
X0336512Y0167010D01*
X0335728Y0167794D01*
X0334703Y0168218D01*
X0333594Y0168218D01*
X0332570Y0167794D01*
X0331705Y0166816D02*
X0323087Y0166816D01*
X0322677Y0166018D02*
X0331375Y0166018D01*
X0331361Y0165219D02*
X0321668Y0165219D01*
X0319230Y0165219D02*
X0257236Y0165219D01*
X0257236Y0165636D02*
X0256812Y0166660D01*
X0256028Y0167444D01*
X0255003Y0167868D01*
X0253894Y0167868D01*
X0252870Y0167444D01*
X0252086Y0166660D01*
X0251661Y0165636D01*
X0251661Y0164527D01*
X0252086Y0163502D01*
X0252870Y0162718D01*
X0253894Y0162294D01*
X0255003Y0162294D01*
X0256028Y0162718D01*
X0256812Y0163502D01*
X0257236Y0164527D01*
X0257236Y0165636D01*
X0257078Y0166018D02*
X0318220Y0166018D01*
X0317811Y0166816D02*
X0256656Y0166816D01*
X0255616Y0167615D02*
X0317661Y0167615D01*
X0317714Y0168413D02*
X0263473Y0168413D01*
X0264236Y0169212D02*
X0318045Y0169212D01*
X0318786Y0170010D02*
X0264567Y0170010D01*
X0260225Y0168413D02*
X0249090Y0168413D01*
X0249378Y0168294D02*
X0248353Y0168718D01*
X0247244Y0168718D01*
X0246220Y0168294D01*
X0245436Y0167510D01*
X0245011Y0166486D01*
X0245011Y0165377D01*
X0245436Y0164352D01*
X0246220Y0163568D01*
X0247244Y0163144D01*
X0248353Y0163144D01*
X0249378Y0163568D01*
X0250162Y0164352D01*
X0250586Y0165377D01*
X0250586Y0166486D01*
X0250162Y0167510D01*
X0249378Y0168294D01*
X0250057Y0167615D02*
X0253281Y0167615D01*
X0252242Y0166816D02*
X0250449Y0166816D01*
X0250586Y0166018D02*
X0251820Y0166018D01*
X0251661Y0165219D02*
X0250521Y0165219D01*
X0250190Y0164421D02*
X0251705Y0164421D01*
X0252036Y0163622D02*
X0249432Y0163622D01*
X0246166Y0163622D02*
X0226655Y0163622D01*
X0226836Y0163186D02*
X0226412Y0164210D01*
X0225628Y0164994D01*
X0224603Y0165418D01*
X0223494Y0165418D01*
X0222470Y0164994D01*
X0221686Y0164210D01*
X0221261Y0163186D01*
X0221261Y0162077D01*
X0221686Y0161052D01*
X0222470Y0160268D01*
X0223494Y0159844D01*
X0224603Y0159844D01*
X0225628Y0160268D01*
X0226412Y0161052D01*
X0226836Y0162077D01*
X0226836Y0163186D01*
X0226836Y0162824D02*
X0252764Y0162824D01*
X0256133Y0162824D02*
X0272699Y0162824D01*
X0272486Y0162610D02*
X0272061Y0161586D01*
X0272061Y0160477D01*
X0272486Y0159452D01*
X0273270Y0158668D01*
X0274294Y0158244D01*
X0275403Y0158244D01*
X0276428Y0158668D01*
X0277212Y0159452D01*
X0277636Y0160477D01*
X0277636Y0161586D01*
X0277212Y0162610D01*
X0276428Y0163394D01*
X0275403Y0163818D01*
X0274294Y0163818D01*
X0273270Y0163394D01*
X0272486Y0162610D01*
X0272243Y0162025D02*
X0226815Y0162025D01*
X0226484Y0161227D02*
X0272061Y0161227D01*
X0272082Y0160428D02*
X0225788Y0160428D01*
X0222310Y0160428D02*
X0201999Y0160428D01*
X0201999Y0159630D02*
X0272412Y0159630D01*
X0273107Y0158831D02*
X0201999Y0158831D01*
X0201999Y0158032D02*
X0297508Y0158032D01*
X0297436Y0157960D02*
X0297011Y0156936D01*
X0297011Y0155827D01*
X0297436Y0154802D01*
X0298220Y0154018D01*
X0299244Y0153594D01*
X0300353Y0153594D01*
X0301035Y0153876D01*
X0300811Y0153336D01*
X0300811Y0152227D01*
X0301236Y0151202D01*
X0302020Y0150418D01*
X0303044Y0149994D01*
X0304153Y0149994D01*
X0305178Y0150418D01*
X0305962Y0151202D01*
X0306386Y0152227D01*
X0306386Y0153336D01*
X0305962Y0154360D01*
X0305178Y0155144D01*
X0304153Y0155568D01*
X0303044Y0155568D01*
X0302362Y0155286D01*
X0302586Y0155827D01*
X0302586Y0156936D01*
X0302162Y0157960D01*
X0301378Y0158744D01*
X0300353Y0159168D01*
X0299244Y0159168D01*
X0298220Y0158744D01*
X0297436Y0157960D01*
X0297135Y0157234D02*
X0201999Y0157234D01*
X0201999Y0156435D02*
X0297011Y0156435D01*
X0297090Y0155637D02*
X0201999Y0155637D01*
X0201999Y0154838D02*
X0297421Y0154838D01*
X0298198Y0154040D02*
X0265976Y0154040D01*
X0266328Y0153894D02*
X0265303Y0154318D01*
X0264194Y0154318D01*
X0263170Y0153894D01*
X0262386Y0153110D01*
X0261961Y0152086D01*
X0261961Y0150977D01*
X0262386Y0149952D01*
X0263170Y0149168D01*
X0264194Y0148744D01*
X0265303Y0148744D01*
X0266328Y0149168D01*
X0267112Y0149952D01*
X0267536Y0150977D01*
X0267536Y0152086D01*
X0267112Y0153110D01*
X0266328Y0153894D01*
X0266980Y0153241D02*
X0288646Y0153241D01*
X0288170Y0153044D02*
X0289194Y0153468D01*
X0290303Y0153468D01*
X0291328Y0153044D01*
X0292112Y0152260D01*
X0292536Y0151236D01*
X0292536Y0150127D01*
X0292112Y0149102D01*
X0291328Y0148318D01*
X0290303Y0147894D01*
X0289194Y0147894D01*
X0288170Y0148318D01*
X0287386Y0149102D01*
X0286961Y0150127D01*
X0286961Y0151236D01*
X0287386Y0152260D01*
X0288170Y0153044D01*
X0287569Y0152443D02*
X0267388Y0152443D01*
X0267536Y0151644D02*
X0287131Y0151644D01*
X0286961Y0150846D02*
X0267482Y0150846D01*
X0267151Y0150047D02*
X0286994Y0150047D01*
X0287325Y0149249D02*
X0266409Y0149249D01*
X0263089Y0149249D02*
X0225823Y0149249D01*
X0225962Y0149110D02*
X0225178Y0149894D01*
X0224153Y0150318D01*
X0223044Y0150318D01*
X0222020Y0149894D01*
X0221236Y0149110D01*
X0220811Y0148086D01*
X0220811Y0146977D01*
X0221236Y0145952D01*
X0222020Y0145168D01*
X0223044Y0144744D01*
X0223993Y0144744D01*
X0223761Y0144186D01*
X0223761Y0143077D01*
X0224186Y0142052D01*
X0224970Y0141268D01*
X0225994Y0140844D01*
X0227103Y0140844D01*
X0228128Y0141268D01*
X0228912Y0142052D01*
X0229336Y0143077D01*
X0229336Y0144186D01*
X0228912Y0145210D01*
X0228128Y0145994D01*
X0227103Y0146418D01*
X0226155Y0146418D01*
X0226386Y0146977D01*
X0226386Y0148086D01*
X0225962Y0149110D01*
X0226235Y0148450D02*
X0288038Y0148450D01*
X0291460Y0148450D02*
X0354608Y0148450D01*
X0354744Y0148394D02*
X0355853Y0148394D01*
X0356878Y0148818D01*
X0357662Y0149602D01*
X0358086Y0150627D01*
X0358086Y0151736D01*
X0357662Y0152760D01*
X0356878Y0153544D01*
X0355853Y0153968D01*
X0354744Y0153968D01*
X0353720Y0153544D01*
X0352936Y0152760D01*
X0352511Y0151736D01*
X0352511Y0150627D01*
X0352936Y0149602D01*
X0353720Y0148818D01*
X0354744Y0148394D01*
X0355990Y0148450D02*
X0478526Y0148450D01*
X0478570Y0148494D02*
X0477786Y0147710D01*
X0477361Y0146686D01*
X0477361Y0145577D01*
X0477786Y0144552D01*
X0478570Y0143768D01*
X0479594Y0143344D01*
X0480703Y0143344D01*
X0481728Y0143768D01*
X0482512Y0144552D01*
X0482566Y0144683D01*
X0482786Y0144152D01*
X0483570Y0143368D01*
X0484594Y0142944D01*
X0485703Y0142944D01*
X0486728Y0143368D01*
X0487512Y0144152D01*
X0487936Y0145177D01*
X0487936Y0146286D01*
X0487512Y0147310D01*
X0486728Y0148094D01*
X0485703Y0148518D01*
X0484594Y0148518D01*
X0483570Y0148094D01*
X0482786Y0147310D01*
X0482732Y0147179D01*
X0482512Y0147710D01*
X0481728Y0148494D01*
X0480703Y0148918D01*
X0479594Y0148918D01*
X0478570Y0148494D01*
X0477762Y0147652D02*
X0339470Y0147652D01*
X0339328Y0147794D02*
X0338303Y0148218D01*
X0337194Y0148218D01*
X0336170Y0147794D01*
X0335386Y0147010D01*
X0334961Y0145986D01*
X0334961Y0144877D01*
X0335386Y0143852D01*
X0336170Y0143068D01*
X0337194Y0142644D01*
X0338060Y0142644D01*
X0337911Y0142286D01*
X0337911Y0141177D01*
X0338336Y0140152D01*
X0339120Y0139368D01*
X0340144Y0138944D01*
X0341253Y0138944D01*
X0342278Y0139368D01*
X0343062Y0140152D01*
X0343486Y0141177D01*
X0343486Y0142286D01*
X0343062Y0143310D01*
X0342278Y0144094D01*
X0341253Y0144518D01*
X0340388Y0144518D01*
X0340536Y0144877D01*
X0340536Y0145986D01*
X0340112Y0147010D01*
X0339328Y0147794D01*
X0340177Y0146853D02*
X0477431Y0146853D01*
X0477361Y0146055D02*
X0404367Y0146055D01*
X0404228Y0146194D02*
X0403203Y0146618D01*
X0402094Y0146618D01*
X0401070Y0146194D01*
X0400286Y0145410D01*
X0399861Y0144386D01*
X0399861Y0143277D01*
X0400286Y0142252D01*
X0401070Y0141468D01*
X0402094Y0141044D01*
X0403203Y0141044D01*
X0404228Y0141468D01*
X0405012Y0142252D01*
X0405436Y0143277D01*
X0405436Y0144386D01*
X0405012Y0145410D01*
X0404228Y0146194D01*
X0405076Y0145256D02*
X0477494Y0145256D01*
X0477880Y0144458D02*
X0405406Y0144458D01*
X0405436Y0143659D02*
X0478832Y0143659D01*
X0481465Y0143659D02*
X0483279Y0143659D01*
X0482659Y0144458D02*
X0482417Y0144458D01*
X0482536Y0147652D02*
X0483128Y0147652D01*
X0484430Y0148450D02*
X0481772Y0148450D01*
X0485868Y0148450D02*
X0510226Y0148450D01*
X0509886Y0148110D02*
X0509461Y0147086D01*
X0509461Y0145977D01*
X0509886Y0144952D01*
X0510670Y0144168D01*
X0511694Y0143744D01*
X0512803Y0143744D01*
X0513828Y0144168D01*
X0514612Y0144952D01*
X0515036Y0145977D01*
X0515036Y0147086D01*
X0514612Y0148110D01*
X0513828Y0148894D01*
X0512803Y0149318D01*
X0511694Y0149318D01*
X0510670Y0148894D01*
X0509886Y0148110D01*
X0509696Y0147652D02*
X0487170Y0147652D01*
X0487701Y0146853D02*
X0509461Y0146853D01*
X0509461Y0146055D02*
X0487936Y0146055D01*
X0487936Y0145256D02*
X0509760Y0145256D01*
X0510380Y0144458D02*
X0487638Y0144458D01*
X0487019Y0143659D02*
X0526837Y0143659D01*
X0526837Y0142861D02*
X0405264Y0142861D01*
X0404822Y0142062D02*
X0526837Y0142062D01*
X0526837Y0141264D02*
X0403735Y0141264D01*
X0401563Y0141264D02*
X0382594Y0141264D01*
X0382786Y0141727D02*
X0382362Y0140702D01*
X0381578Y0139918D01*
X0380553Y0139494D01*
X0379444Y0139494D01*
X0378420Y0139918D01*
X0377636Y0140702D01*
X0377211Y0141727D01*
X0377211Y0142836D01*
X0377636Y0143860D01*
X0378420Y0144644D01*
X0379444Y0145068D01*
X0380553Y0145068D01*
X0381578Y0144644D01*
X0382362Y0143860D01*
X0382786Y0142836D01*
X0382786Y0141727D01*
X0382786Y0142062D02*
X0400476Y0142062D01*
X0400034Y0142861D02*
X0382776Y0142861D01*
X0382445Y0143659D02*
X0399861Y0143659D01*
X0399891Y0144458D02*
X0381764Y0144458D01*
X0378234Y0144458D02*
X0341400Y0144458D01*
X0340536Y0145256D02*
X0400222Y0145256D01*
X0400931Y0146055D02*
X0340508Y0146055D01*
X0340144Y0149144D02*
X0341253Y0149144D01*
X0342278Y0149568D01*
X0343062Y0150352D01*
X0343486Y0151377D01*
X0343486Y0152486D01*
X0343062Y0153510D01*
X0342278Y0154294D01*
X0341253Y0154718D01*
X0340144Y0154718D01*
X0339120Y0154294D01*
X0338336Y0153510D01*
X0337911Y0152486D01*
X0337911Y0151377D01*
X0338336Y0150352D01*
X0339120Y0149568D01*
X0340144Y0149144D01*
X0339890Y0149249D02*
X0292173Y0149249D01*
X0292503Y0150047D02*
X0302915Y0150047D01*
X0304283Y0150047D02*
X0338641Y0150047D01*
X0338131Y0150846D02*
X0305606Y0150846D01*
X0306145Y0151644D02*
X0337911Y0151644D01*
X0337911Y0152443D02*
X0306386Y0152443D01*
X0306386Y0153241D02*
X0338225Y0153241D01*
X0338866Y0154040D02*
X0306094Y0154040D01*
X0305483Y0154838D02*
X0497411Y0154838D01*
X0497411Y0154936D02*
X0497411Y0153827D01*
X0497836Y0152802D01*
X0498620Y0152018D01*
X0499644Y0151594D01*
X0500753Y0151594D01*
X0501778Y0152018D01*
X0502562Y0152802D01*
X0502986Y0153827D01*
X0502986Y0154936D01*
X0502562Y0155960D01*
X0501778Y0156744D01*
X0500753Y0157168D01*
X0499644Y0157168D01*
X0498620Y0156744D01*
X0497836Y0155960D01*
X0497411Y0154936D01*
X0497702Y0155637D02*
X0422797Y0155637D01*
X0422528Y0155368D02*
X0423312Y0156152D01*
X0423736Y0157177D01*
X0423736Y0158286D01*
X0423312Y0159310D01*
X0422528Y0160094D01*
X0421503Y0160518D01*
X0420394Y0160518D01*
X0419370Y0160094D01*
X0418586Y0159310D01*
X0418161Y0158286D01*
X0418161Y0157177D01*
X0418586Y0156152D01*
X0419370Y0155368D01*
X0420394Y0154944D01*
X0421503Y0154944D01*
X0422528Y0155368D01*
X0423429Y0156435D02*
X0498311Y0156435D01*
X0497411Y0154040D02*
X0342532Y0154040D01*
X0343173Y0153241D02*
X0353417Y0153241D01*
X0352804Y0152443D02*
X0343486Y0152443D01*
X0343486Y0151644D02*
X0352511Y0151644D01*
X0352511Y0150846D02*
X0343266Y0150846D01*
X0342757Y0150047D02*
X0352751Y0150047D01*
X0353289Y0149249D02*
X0341507Y0149249D01*
X0336028Y0147652D02*
X0302918Y0147652D01*
X0303178Y0147544D02*
X0302153Y0147968D01*
X0301044Y0147968D01*
X0300020Y0147544D01*
X0299236Y0146760D01*
X0298811Y0145736D01*
X0298811Y0144627D01*
X0299236Y0143602D01*
X0300020Y0142818D01*
X0301044Y0142394D01*
X0302153Y0142394D01*
X0303178Y0142818D01*
X0303962Y0143602D01*
X0304386Y0144627D01*
X0304386Y0145736D01*
X0303962Y0146760D01*
X0303178Y0147544D01*
X0303869Y0146853D02*
X0335321Y0146853D01*
X0334990Y0146055D02*
X0304254Y0146055D01*
X0304386Y0145256D02*
X0334961Y0145256D01*
X0335135Y0144458D02*
X0332314Y0144458D01*
X0332278Y0144494D02*
X0331253Y0144918D01*
X0330144Y0144918D01*
X0329120Y0144494D01*
X0328336Y0143710D01*
X0327911Y0142686D01*
X0327911Y0141577D01*
X0328336Y0140552D01*
X0329120Y0139768D01*
X0330144Y0139344D01*
X0331253Y0139344D01*
X0332278Y0139768D01*
X0333062Y0140552D01*
X0333486Y0141577D01*
X0333486Y0142686D01*
X0333062Y0143710D01*
X0332278Y0144494D01*
X0333083Y0143659D02*
X0335579Y0143659D01*
X0336670Y0142861D02*
X0333414Y0142861D01*
X0333486Y0142062D02*
X0337911Y0142062D01*
X0337911Y0141264D02*
X0333357Y0141264D01*
X0332975Y0140465D02*
X0338206Y0140465D01*
X0338821Y0139667D02*
X0332033Y0139667D01*
X0329365Y0139667D02*
X0201999Y0139667D01*
X0201999Y0140465D02*
X0328423Y0140465D01*
X0328041Y0141264D02*
X0228117Y0141264D01*
X0228916Y0142062D02*
X0327911Y0142062D01*
X0327984Y0142861D02*
X0303220Y0142861D01*
X0303986Y0143659D02*
X0328315Y0143659D01*
X0329084Y0144458D02*
X0304316Y0144458D01*
X0299977Y0142861D02*
X0229247Y0142861D01*
X0229336Y0143659D02*
X0299212Y0143659D01*
X0298881Y0144458D02*
X0229223Y0144458D01*
X0228866Y0145256D02*
X0298811Y0145256D01*
X0298944Y0146055D02*
X0227981Y0146055D01*
X0226335Y0146853D02*
X0299329Y0146853D01*
X0300280Y0147652D02*
X0226386Y0147652D01*
X0224808Y0150047D02*
X0262346Y0150047D01*
X0262016Y0150846D02*
X0201999Y0150846D01*
X0201999Y0151644D02*
X0261961Y0151644D01*
X0262109Y0152443D02*
X0201999Y0152443D01*
X0201999Y0153241D02*
X0262517Y0153241D01*
X0263522Y0154040D02*
X0201999Y0154040D01*
X0201999Y0150047D02*
X0222390Y0150047D01*
X0221375Y0149249D02*
X0201999Y0149249D01*
X0201999Y0148450D02*
X0220963Y0148450D01*
X0220811Y0147652D02*
X0201999Y0147652D01*
X0201999Y0146853D02*
X0220862Y0146853D01*
X0221193Y0146055D02*
X0201999Y0146055D01*
X0201999Y0145256D02*
X0221932Y0145256D01*
X0223874Y0144458D02*
X0201999Y0144458D01*
X0201999Y0143659D02*
X0223761Y0143659D01*
X0223851Y0142861D02*
X0201999Y0142861D01*
X0201999Y0142062D02*
X0224182Y0142062D01*
X0224980Y0141264D02*
X0201999Y0141264D01*
X0201999Y0138868D02*
X0521973Y0138868D01*
X0522094Y0138918D02*
X0521070Y0138494D01*
X0520286Y0137710D01*
X0519861Y0136686D01*
X0519861Y0135577D01*
X0520286Y0134552D01*
X0521070Y0133768D01*
X0522094Y0133344D01*
X0523203Y0133344D01*
X0524228Y0133768D01*
X0525012Y0134552D01*
X0525436Y0135577D01*
X0525436Y0136686D01*
X0525012Y0137710D01*
X0524228Y0138494D01*
X0523203Y0138918D01*
X0522094Y0138918D01*
X0523325Y0138868D02*
X0526837Y0138868D01*
X0526837Y0138070D02*
X0524652Y0138070D01*
X0525194Y0137271D02*
X0526837Y0137271D01*
X0526837Y0136473D02*
X0525436Y0136473D01*
X0525436Y0135674D02*
X0526837Y0135674D01*
X0526837Y0134876D02*
X0525146Y0134876D01*
X0524537Y0134077D02*
X0526837Y0134077D01*
X0526837Y0133279D02*
X0514266Y0133279D01*
X0514212Y0133410D02*
X0513428Y0134194D01*
X0512403Y0134618D01*
X0511294Y0134618D01*
X0510270Y0134194D01*
X0509486Y0133410D01*
X0509061Y0132386D01*
X0509061Y0131277D01*
X0509486Y0130252D01*
X0510270Y0129468D01*
X0511294Y0129044D01*
X0512403Y0129044D01*
X0513428Y0129468D01*
X0514212Y0130252D01*
X0514636Y0131277D01*
X0514636Y0132386D01*
X0514212Y0133410D01*
X0513545Y0134077D02*
X0520761Y0134077D01*
X0520152Y0134876D02*
X0371393Y0134876D01*
X0371461Y0134711D02*
X0371037Y0135735D01*
X0370253Y0136519D01*
X0369228Y0136943D01*
X0368119Y0136943D01*
X0367095Y0136519D01*
X0366311Y0135735D01*
X0365886Y0134711D01*
X0365886Y0133602D01*
X0366311Y0132577D01*
X0367095Y0131793D01*
X0368119Y0131369D01*
X0369228Y0131369D01*
X0370253Y0131793D01*
X0371037Y0132577D01*
X0371461Y0133602D01*
X0371461Y0134711D01*
X0371461Y0134077D02*
X0510153Y0134077D01*
X0509431Y0133279D02*
X0371327Y0133279D01*
X0370940Y0132480D02*
X0398031Y0132480D01*
X0398244Y0132568D02*
X0397220Y0132144D01*
X0396436Y0131360D01*
X0396011Y0130336D01*
X0396011Y0129227D01*
X0396436Y0128202D01*
X0397220Y0127418D01*
X0398244Y0126994D01*
X0399353Y0126994D01*
X0400378Y0127418D01*
X0401162Y0128202D01*
X0401586Y0129227D01*
X0401586Y0130336D01*
X0401162Y0131360D01*
X0400378Y0132144D01*
X0399353Y0132568D01*
X0398244Y0132568D01*
X0399567Y0132480D02*
X0509101Y0132480D01*
X0509061Y0131682D02*
X0400840Y0131682D01*
X0401359Y0130883D02*
X0509224Y0130883D01*
X0509653Y0130085D02*
X0401586Y0130085D01*
X0401586Y0129286D02*
X0510709Y0129286D01*
X0512988Y0129286D02*
X0526837Y0129286D01*
X0526837Y0128488D02*
X0401280Y0128488D01*
X0400649Y0127689D02*
X0526837Y0127689D01*
X0526837Y0126891D02*
X0241999Y0126891D01*
X0241999Y0127689D02*
X0396949Y0127689D01*
X0396318Y0128488D02*
X0241692Y0128488D01*
X0240894Y0129286D02*
X0396011Y0129286D01*
X0396011Y0130085D02*
X0229049Y0130085D01*
X0229049Y0130883D02*
X0396238Y0130883D01*
X0396757Y0131682D02*
X0369984Y0131682D01*
X0367364Y0131682D02*
X0229049Y0131682D01*
X0228973Y0132480D02*
X0366408Y0132480D01*
X0366020Y0133279D02*
X0228642Y0133279D01*
X0228044Y0134077D02*
X0365886Y0134077D01*
X0365955Y0134876D02*
X0226902Y0134876D01*
X0241999Y0126092D02*
X0526837Y0126092D01*
X0526837Y0125294D02*
X0496784Y0125294D01*
X0496603Y0125368D02*
X0495494Y0125368D01*
X0494470Y0124944D01*
X0493686Y0124160D01*
X0493261Y0123136D01*
X0493261Y0122027D01*
X0493686Y0121002D01*
X0494470Y0120218D01*
X0495494Y0119794D01*
X0496603Y0119794D01*
X0497628Y0120218D01*
X0498412Y0121002D01*
X0498836Y0122027D01*
X0498836Y0123136D01*
X0498412Y0124160D01*
X0497628Y0124944D01*
X0496603Y0125368D01*
X0495313Y0125294D02*
X0241999Y0125294D01*
X0241999Y0124495D02*
X0494021Y0124495D01*
X0493494Y0123697D02*
X0241999Y0123697D01*
X0241999Y0122898D02*
X0493261Y0122898D01*
X0493261Y0122099D02*
X0241999Y0122099D01*
X0241999Y0121301D02*
X0387240Y0121301D01*
X0387644Y0121468D02*
X0386620Y0121044D01*
X0385836Y0120260D01*
X0385411Y0119236D01*
X0385411Y0118127D01*
X0385836Y0117102D01*
X0386620Y0116318D01*
X0387644Y0115894D01*
X0388753Y0115894D01*
X0389778Y0116318D01*
X0390562Y0117102D01*
X0390986Y0118127D01*
X0390986Y0119236D01*
X0390562Y0120260D01*
X0389778Y0121044D01*
X0388753Y0121468D01*
X0387644Y0121468D01*
X0389158Y0121301D02*
X0493562Y0121301D01*
X0494185Y0120502D02*
X0390319Y0120502D01*
X0390792Y0119704D02*
X0517811Y0119704D01*
X0517811Y0120036D02*
X0517811Y0118927D01*
X0518236Y0117902D01*
X0518882Y0117256D01*
X0518686Y0117060D01*
X0518261Y0116036D01*
X0518261Y0114927D01*
X0518686Y0113902D01*
X0519470Y0113118D01*
X0520187Y0112821D01*
X0519861Y0112036D01*
X0519861Y0110927D01*
X0520286Y0109902D01*
X0521070Y0109118D01*
X0522094Y0108694D01*
X0523203Y0108694D01*
X0524228Y0109118D01*
X0525012Y0109902D01*
X0525436Y0110927D01*
X0525436Y0112036D01*
X0525012Y0113060D01*
X0524228Y0113844D01*
X0523511Y0114141D01*
X0523836Y0114927D01*
X0523836Y0116036D01*
X0523412Y0117060D01*
X0522766Y0117706D01*
X0522962Y0117902D01*
X0523386Y0118927D01*
X0523386Y0120036D01*
X0522962Y0121060D01*
X0522178Y0121844D01*
X0521153Y0122268D01*
X0520044Y0122268D01*
X0519020Y0121844D01*
X0518236Y0121060D01*
X0517811Y0120036D01*
X0518005Y0120502D02*
X0497912Y0120502D01*
X0498536Y0121301D02*
X0518477Y0121301D01*
X0519636Y0122099D02*
X0498836Y0122099D01*
X0498836Y0122898D02*
X0526837Y0122898D01*
X0526837Y0123697D02*
X0498604Y0123697D01*
X0498077Y0124495D02*
X0526837Y0124495D01*
X0526837Y0122099D02*
X0521561Y0122099D01*
X0522721Y0121301D02*
X0526837Y0121301D01*
X0526837Y0120502D02*
X0523193Y0120502D01*
X0523386Y0119704D02*
X0526837Y0119704D01*
X0526837Y0118905D02*
X0523377Y0118905D01*
X0523047Y0118107D02*
X0526837Y0118107D01*
X0526837Y0117308D02*
X0523163Y0117308D01*
X0523640Y0116510D02*
X0526837Y0116510D01*
X0526837Y0115711D02*
X0523836Y0115711D01*
X0523830Y0114913D02*
X0526837Y0114913D01*
X0526837Y0114114D02*
X0523575Y0114114D01*
X0524756Y0113316D02*
X0526837Y0113316D01*
X0526837Y0112517D02*
X0525237Y0112517D01*
X0525436Y0111719D02*
X0526837Y0111719D01*
X0526837Y0110920D02*
X0525434Y0110920D01*
X0525103Y0110122D02*
X0526837Y0110122D01*
X0526837Y0109323D02*
X0524433Y0109323D01*
X0526837Y0108525D02*
X0517234Y0108525D01*
X0516978Y0108268D02*
X0517762Y0109052D01*
X0518186Y0110077D01*
X0518186Y0111186D01*
X0517762Y0112210D01*
X0516978Y0112994D01*
X0515953Y0113418D01*
X0514844Y0113418D01*
X0513820Y0112994D01*
X0513036Y0112210D01*
X0512611Y0111186D01*
X0512611Y0110568D01*
X0512044Y0110568D01*
X0511020Y0110144D01*
X0510236Y0109360D01*
X0509811Y0108336D01*
X0509811Y0107227D01*
X0510236Y0106202D01*
X0511020Y0105418D01*
X0512044Y0104994D01*
X0513153Y0104994D01*
X0514178Y0105418D01*
X0514962Y0106202D01*
X0515386Y0107227D01*
X0515386Y0107844D01*
X0515953Y0107844D01*
X0516978Y0108268D01*
X0517874Y0109323D02*
X0520865Y0109323D01*
X0520195Y0110122D02*
X0518186Y0110122D01*
X0518186Y0110920D02*
X0519864Y0110920D01*
X0519861Y0111719D02*
X0517965Y0111719D01*
X0517455Y0112517D02*
X0520061Y0112517D01*
X0519272Y0113316D02*
X0516201Y0113316D01*
X0514597Y0113316D02*
X0510052Y0113316D01*
X0510178Y0113368D02*
X0510962Y0114152D01*
X0511386Y0115177D01*
X0511386Y0116286D01*
X0510962Y0117310D01*
X0510178Y0118094D01*
X0509153Y0118518D01*
X0508044Y0118518D01*
X0507020Y0118094D01*
X0506236Y0117310D01*
X0505811Y0116286D01*
X0505811Y0115177D01*
X0506236Y0114152D01*
X0507020Y0113368D01*
X0508044Y0112944D01*
X0509153Y0112944D01*
X0510178Y0113368D01*
X0510924Y0114114D02*
X0518598Y0114114D01*
X0518267Y0114913D02*
X0511277Y0114913D01*
X0511386Y0115711D02*
X0518261Y0115711D01*
X0518458Y0116510D02*
X0511293Y0116510D01*
X0510963Y0117308D02*
X0518830Y0117308D01*
X0518151Y0118107D02*
X0510147Y0118107D01*
X0507051Y0118107D02*
X0390978Y0118107D01*
X0390986Y0118905D02*
X0517820Y0118905D01*
X0513343Y0112517D02*
X0479036Y0112517D01*
X0479036Y0112377D02*
X0478612Y0111352D01*
X0477828Y0110568D01*
X0476803Y0110144D01*
X0475694Y0110144D01*
X0474670Y0110568D01*
X0473886Y0111352D01*
X0473461Y0112377D01*
X0473461Y0113486D01*
X0473886Y0114510D01*
X0474670Y0115294D01*
X0475694Y0115718D01*
X0476803Y0115718D01*
X0477828Y0115294D01*
X0478612Y0114510D01*
X0479036Y0113486D01*
X0479036Y0112377D01*
X0478764Y0111719D02*
X0512832Y0111719D01*
X0512611Y0110920D02*
X0478180Y0110920D01*
X0479036Y0113316D02*
X0507146Y0113316D01*
X0506274Y0114114D02*
X0478776Y0114114D01*
X0478209Y0114913D02*
X0505921Y0114913D01*
X0505811Y0115711D02*
X0476820Y0115711D01*
X0475677Y0115711D02*
X0411665Y0115711D01*
X0411562Y0115960D02*
X0410778Y0116744D01*
X0409753Y0117168D01*
X0408644Y0117168D01*
X0407620Y0116744D01*
X0406836Y0115960D01*
X0406411Y0114936D01*
X0406411Y0113827D01*
X0406836Y0112802D01*
X0407620Y0112018D01*
X0408644Y0111594D01*
X0409753Y0111594D01*
X0410778Y0112018D01*
X0411562Y0112802D01*
X0411986Y0113827D01*
X0411986Y0114936D01*
X0411562Y0115960D01*
X0411012Y0116510D02*
X0505904Y0116510D01*
X0506235Y0117308D02*
X0390647Y0117308D01*
X0389970Y0116510D02*
X0407386Y0116510D01*
X0406733Y0115711D02*
X0404224Y0115711D01*
X0404628Y0115544D02*
X0403603Y0115968D01*
X0402494Y0115968D01*
X0401470Y0115544D01*
X0400686Y0114760D01*
X0400261Y0113736D01*
X0400261Y0112627D01*
X0400686Y0111602D01*
X0401470Y0110818D01*
X0402494Y0110394D01*
X0403603Y0110394D01*
X0404628Y0110818D01*
X0405412Y0111602D01*
X0405836Y0112627D01*
X0405836Y0113736D01*
X0405412Y0114760D01*
X0404628Y0115544D01*
X0405259Y0114913D02*
X0406411Y0114913D01*
X0406411Y0114114D02*
X0405679Y0114114D01*
X0405836Y0113316D02*
X0406623Y0113316D01*
X0407121Y0112517D02*
X0405791Y0112517D01*
X0405460Y0111719D02*
X0408342Y0111719D01*
X0410055Y0111719D02*
X0467763Y0111719D01*
X0467936Y0111302D02*
X0468720Y0110518D01*
X0469744Y0110094D01*
X0470853Y0110094D01*
X0471878Y0110518D01*
X0472662Y0111302D01*
X0473086Y0112327D01*
X0473086Y0113436D01*
X0472662Y0114460D01*
X0471878Y0115244D01*
X0470853Y0115668D01*
X0469744Y0115668D01*
X0468720Y0115244D01*
X0467936Y0114460D01*
X0467511Y0113436D01*
X0467511Y0112327D01*
X0467936Y0111302D01*
X0468318Y0110920D02*
X0404730Y0110920D01*
X0405594Y0108268D02*
X0404570Y0107844D01*
X0403786Y0107060D01*
X0403361Y0106036D01*
X0403361Y0105118D01*
X0402294Y0105118D01*
X0401270Y0104694D01*
X0400486Y0103910D01*
X0400061Y0102886D01*
X0400061Y0101777D01*
X0400486Y0100752D01*
X0401270Y0099968D01*
X0402294Y0099544D01*
X0403403Y0099544D01*
X0404428Y0099968D01*
X0405212Y0100752D01*
X0405636Y0101777D01*
X0405636Y0102694D01*
X0406703Y0102694D01*
X0407728Y0103118D01*
X0408512Y0103902D01*
X0408936Y0104927D01*
X0408936Y0106036D01*
X0408512Y0107060D01*
X0407728Y0107844D01*
X0406703Y0108268D01*
X0405594Y0108268D01*
X0404452Y0107726D02*
X0201999Y0107726D01*
X0201999Y0106928D02*
X0403731Y0106928D01*
X0403400Y0106129D02*
X0201999Y0106129D01*
X0201999Y0105331D02*
X0403361Y0105331D01*
X0401108Y0104532D02*
X0393840Y0104532D01*
X0393678Y0104694D02*
X0392653Y0105118D01*
X0391544Y0105118D01*
X0390520Y0104694D01*
X0389736Y0103910D01*
X0389311Y0102886D01*
X0389311Y0101777D01*
X0389736Y0100752D01*
X0390520Y0099968D01*
X0391544Y0099544D01*
X0392653Y0099544D01*
X0393678Y0099968D01*
X0394462Y0100752D01*
X0394886Y0101777D01*
X0394886Y0102886D01*
X0394462Y0103910D01*
X0393678Y0104694D01*
X0394535Y0103734D02*
X0400413Y0103734D01*
X0400082Y0102935D02*
X0394866Y0102935D01*
X0394886Y0102137D02*
X0400061Y0102137D01*
X0400243Y0101338D02*
X0394705Y0101338D01*
X0394249Y0100540D02*
X0400698Y0100540D01*
X0401818Y0099741D02*
X0393130Y0099741D01*
X0391068Y0099741D02*
X0340801Y0099741D01*
X0340478Y0099418D02*
X0341262Y0100202D01*
X0341686Y0101227D01*
X0341686Y0102336D01*
X0341262Y0103360D01*
X0340478Y0104144D01*
X0339453Y0104568D01*
X0338344Y0104568D01*
X0337320Y0104144D01*
X0336536Y0103360D01*
X0336111Y0102336D01*
X0336111Y0101227D01*
X0336536Y0100202D01*
X0337320Y0099418D01*
X0338344Y0098994D01*
X0339453Y0098994D01*
X0340478Y0099418D01*
X0341402Y0100540D02*
X0389948Y0100540D01*
X0389493Y0101338D02*
X0341686Y0101338D01*
X0341686Y0102137D02*
X0389311Y0102137D01*
X0389332Y0102935D02*
X0341438Y0102935D01*
X0340888Y0103734D02*
X0389663Y0103734D01*
X0390358Y0104532D02*
X0339541Y0104532D01*
X0338257Y0104532D02*
X0201999Y0104532D01*
X0201999Y0103734D02*
X0336909Y0103734D01*
X0336360Y0102935D02*
X0236937Y0102935D01*
X0236828Y0103044D02*
X0235803Y0103468D01*
X0234694Y0103468D01*
X0233670Y0103044D01*
X0232886Y0102260D01*
X0232461Y0101236D01*
X0232461Y0100127D01*
X0232886Y0099102D01*
X0233670Y0098318D01*
X0234694Y0097894D01*
X0235803Y0097894D01*
X0236828Y0098318D01*
X0237612Y0099102D01*
X0238036Y0100127D01*
X0238036Y0101236D01*
X0237612Y0102260D01*
X0236828Y0103044D01*
X0237663Y0102137D02*
X0301726Y0102137D01*
X0302044Y0102268D02*
X0301020Y0101844D01*
X0300236Y0101060D01*
X0299811Y0100036D01*
X0299811Y0098927D01*
X0300236Y0097902D01*
X0301020Y0097118D01*
X0302044Y0096694D01*
X0303153Y0096694D01*
X0304178Y0097118D01*
X0304962Y0097902D01*
X0305386Y0098927D01*
X0305386Y0100036D01*
X0304962Y0101060D01*
X0304178Y0101844D01*
X0303153Y0102268D01*
X0302044Y0102268D01*
X0303471Y0102137D02*
X0317712Y0102137D01*
X0318020Y0102444D02*
X0317236Y0101660D01*
X0316877Y0100795D01*
X0316728Y0100944D01*
X0315703Y0101368D01*
X0314594Y0101368D01*
X0313570Y0100944D01*
X0312786Y0100160D01*
X0312361Y0099136D01*
X0312361Y0098027D01*
X0312786Y0097002D01*
X0313570Y0096218D01*
X0314594Y0095794D01*
X0315703Y0095794D01*
X0316728Y0096218D01*
X0317512Y0097002D01*
X0317870Y0097868D01*
X0318020Y0097718D01*
X0319044Y0097294D01*
X0320153Y0097294D01*
X0321178Y0097718D01*
X0321962Y0098502D01*
X0322386Y0099527D01*
X0322386Y0100636D01*
X0321962Y0101660D01*
X0321178Y0102444D01*
X0320153Y0102868D01*
X0319044Y0102868D01*
X0318020Y0102444D01*
X0317102Y0101338D02*
X0315776Y0101338D01*
X0314521Y0101338D02*
X0304684Y0101338D01*
X0305177Y0100540D02*
X0313165Y0100540D01*
X0312612Y0099741D02*
X0305386Y0099741D01*
X0305386Y0098943D02*
X0312361Y0098943D01*
X0312361Y0098144D02*
X0305062Y0098144D01*
X0304405Y0097346D02*
X0312644Y0097346D01*
X0313241Y0096547D02*
X0218436Y0096547D01*
X0218436Y0097036D02*
X0218012Y0098060D01*
X0217228Y0098844D01*
X0216203Y0099268D01*
X0215094Y0099268D01*
X0214070Y0098844D01*
X0213286Y0098060D01*
X0212861Y0097036D01*
X0212861Y0095927D01*
X0213286Y0094902D01*
X0214070Y0094118D01*
X0215094Y0093694D01*
X0216203Y0093694D01*
X0217228Y0094118D01*
X0218012Y0094902D01*
X0218436Y0095927D01*
X0218436Y0097036D01*
X0218308Y0097346D02*
X0300792Y0097346D01*
X0300136Y0098144D02*
X0236408Y0098144D01*
X0237452Y0098943D02*
X0299811Y0098943D01*
X0299811Y0099741D02*
X0237877Y0099741D01*
X0238036Y0100540D02*
X0300020Y0100540D01*
X0300514Y0101338D02*
X0237994Y0101338D01*
X0233561Y0102935D02*
X0201999Y0102935D01*
X0201999Y0102137D02*
X0232835Y0102137D01*
X0232504Y0101338D02*
X0201999Y0101338D01*
X0201999Y0100540D02*
X0232461Y0100540D01*
X0232621Y0099741D02*
X0201999Y0099741D01*
X0201999Y0098943D02*
X0214308Y0098943D01*
X0213370Y0098144D02*
X0201999Y0098144D01*
X0201999Y0097346D02*
X0212990Y0097346D01*
X0212861Y0096547D02*
X0201999Y0096547D01*
X0201999Y0095749D02*
X0212935Y0095749D01*
X0213266Y0094950D02*
X0201999Y0094950D01*
X0201999Y0094152D02*
X0214036Y0094152D01*
X0217261Y0094152D02*
X0239627Y0094152D01*
X0239236Y0093760D02*
X0238811Y0092736D01*
X0238811Y0091627D01*
X0239236Y0090602D01*
X0240020Y0089818D01*
X0241044Y0089394D01*
X0242153Y0089394D01*
X0243178Y0089818D01*
X0243962Y0090602D01*
X0244386Y0091627D01*
X0244386Y0092736D01*
X0243962Y0093760D01*
X0243178Y0094544D01*
X0242153Y0094968D01*
X0241044Y0094968D01*
X0240020Y0094544D01*
X0239236Y0093760D01*
X0239067Y0093353D02*
X0201999Y0093353D01*
X0201999Y0092555D02*
X0238811Y0092555D01*
X0238811Y0091756D02*
X0201999Y0091756D01*
X0201999Y0090958D02*
X0239089Y0090958D01*
X0239679Y0090159D02*
X0201999Y0090159D01*
X0201999Y0089361D02*
X0280303Y0089361D01*
X0280386Y0089560D02*
X0280057Y0088765D01*
X0279978Y0088844D01*
X0278953Y0089268D01*
X0277844Y0089268D01*
X0276820Y0088844D01*
X0276036Y0088060D01*
X0275611Y0087036D01*
X0275611Y0085927D01*
X0276036Y0084902D01*
X0276820Y0084118D01*
X0277844Y0083694D01*
X0278953Y0083694D01*
X0279978Y0084118D01*
X0280762Y0084902D01*
X0281091Y0085697D01*
X0281170Y0085618D01*
X0282194Y0085194D01*
X0283303Y0085194D01*
X0284328Y0085618D01*
X0285112Y0086402D01*
X0285536Y0087427D01*
X0285536Y0088536D01*
X0285112Y0089560D01*
X0284328Y0090344D01*
X0283303Y0090768D01*
X0282194Y0090768D01*
X0281170Y0090344D01*
X0280386Y0089560D01*
X0280985Y0090159D02*
X0243519Y0090159D01*
X0244109Y0090958D02*
X0284239Y0090958D01*
X0284386Y0090602D02*
X0285170Y0089818D01*
X0286194Y0089394D01*
X0287303Y0089394D01*
X0288328Y0089818D01*
X0289112Y0090602D01*
X0289536Y0091627D01*
X0289536Y0092736D01*
X0289112Y0093760D01*
X0288328Y0094544D01*
X0287303Y0094968D01*
X0286194Y0094968D01*
X0285170Y0094544D01*
X0284386Y0093760D01*
X0283961Y0092736D01*
X0283961Y0091627D01*
X0284386Y0090602D01*
X0284513Y0090159D02*
X0284829Y0090159D01*
X0285194Y0089361D02*
X0370704Y0089361D01*
X0370744Y0089344D02*
X0371853Y0089344D01*
X0372878Y0089768D01*
X0373662Y0090552D01*
X0374086Y0091577D01*
X0374086Y0092686D01*
X0373662Y0093710D01*
X0372878Y0094494D01*
X0371853Y0094918D01*
X0370744Y0094918D01*
X0369720Y0094494D01*
X0368936Y0093710D01*
X0368511Y0092686D01*
X0368511Y0091577D01*
X0368936Y0090552D01*
X0369720Y0089768D01*
X0370744Y0089344D01*
X0371894Y0089361D02*
X0460962Y0089361D01*
X0461086Y0089660D02*
X0460661Y0088636D01*
X0460661Y0087527D01*
X0461086Y0086502D01*
X0461870Y0085718D01*
X0462894Y0085294D01*
X0464003Y0085294D01*
X0465028Y0085718D01*
X0465812Y0086502D01*
X0466236Y0087527D01*
X0466236Y0088636D01*
X0465812Y0089660D01*
X0465028Y0090444D01*
X0464003Y0090868D01*
X0462894Y0090868D01*
X0461870Y0090444D01*
X0461086Y0089660D01*
X0461585Y0090159D02*
X0373269Y0090159D01*
X0373830Y0090958D02*
X0477630Y0090958D01*
X0477286Y0091302D02*
X0478070Y0090518D01*
X0479094Y0090094D01*
X0480203Y0090094D01*
X0481228Y0090518D01*
X0482012Y0091302D01*
X0482436Y0092327D01*
X0482436Y0093436D01*
X0482012Y0094460D01*
X0481228Y0095244D01*
X0480203Y0095668D01*
X0479094Y0095668D01*
X0478070Y0095244D01*
X0477286Y0094460D01*
X0476861Y0093436D01*
X0476861Y0092327D01*
X0477286Y0091302D01*
X0477098Y0091756D02*
X0374086Y0091756D01*
X0374086Y0092555D02*
X0422483Y0092555D01*
X0422620Y0092418D02*
X0423644Y0091994D01*
X0424753Y0091994D01*
X0425778Y0092418D01*
X0426562Y0093202D01*
X0426986Y0094227D01*
X0426986Y0095336D01*
X0426562Y0096360D01*
X0425778Y0097144D01*
X0424753Y0097568D01*
X0423644Y0097568D01*
X0422620Y0097144D01*
X0421836Y0096360D01*
X0421411Y0095336D01*
X0421411Y0094227D01*
X0421836Y0093202D01*
X0422620Y0092418D01*
X0421773Y0093353D02*
X0373810Y0093353D01*
X0373220Y0094152D02*
X0386436Y0094152D01*
X0386670Y0093918D02*
X0387694Y0093494D01*
X0388803Y0093494D01*
X0389828Y0093918D01*
X0390612Y0094702D01*
X0391036Y0095727D01*
X0391036Y0096836D01*
X0390612Y0097860D01*
X0389828Y0098644D01*
X0388803Y0099068D01*
X0387694Y0099068D01*
X0386670Y0098644D01*
X0385886Y0097860D01*
X0385461Y0096836D01*
X0385461Y0095727D01*
X0385886Y0094702D01*
X0386670Y0093918D01*
X0385783Y0094950D02*
X0347122Y0094950D01*
X0347078Y0094994D02*
X0346053Y0095418D01*
X0344944Y0095418D01*
X0343920Y0094994D01*
X0343136Y0094210D01*
X0342711Y0093186D01*
X0342711Y0092077D01*
X0343136Y0091052D01*
X0343920Y0090268D01*
X0344944Y0089844D01*
X0346053Y0089844D01*
X0347078Y0090268D01*
X0347862Y0091052D01*
X0348286Y0092077D01*
X0348286Y0093186D01*
X0347862Y0094210D01*
X0347078Y0094994D01*
X0347886Y0094152D02*
X0369377Y0094152D01*
X0368788Y0093353D02*
X0348217Y0093353D01*
X0348286Y0092555D02*
X0368511Y0092555D01*
X0368511Y0091756D02*
X0348153Y0091756D01*
X0347767Y0090958D02*
X0368768Y0090958D01*
X0369329Y0090159D02*
X0346815Y0090159D01*
X0344183Y0090159D02*
X0288669Y0090159D01*
X0289259Y0090958D02*
X0343230Y0090958D01*
X0342844Y0091756D02*
X0289536Y0091756D01*
X0289536Y0092555D02*
X0342711Y0092555D01*
X0342781Y0093353D02*
X0289280Y0093353D01*
X0288720Y0094152D02*
X0343112Y0094152D01*
X0343876Y0094950D02*
X0287348Y0094950D01*
X0286150Y0094950D02*
X0242198Y0094950D01*
X0241000Y0094950D02*
X0218032Y0094950D01*
X0218362Y0095749D02*
X0385461Y0095749D01*
X0385461Y0096547D02*
X0317057Y0096547D01*
X0317654Y0097346D02*
X0318919Y0097346D01*
X0320279Y0097346D02*
X0385673Y0097346D01*
X0386170Y0098144D02*
X0321604Y0098144D01*
X0322144Y0098943D02*
X0387391Y0098943D01*
X0389107Y0098943D02*
X0416818Y0098943D01*
X0416920Y0099044D02*
X0416136Y0098260D01*
X0415711Y0097236D01*
X0415711Y0096127D01*
X0416136Y0095102D01*
X0416920Y0094318D01*
X0417944Y0093894D01*
X0419053Y0093894D01*
X0420078Y0094318D01*
X0420862Y0095102D01*
X0421286Y0096127D01*
X0421286Y0097236D01*
X0420862Y0098260D01*
X0420078Y0099044D01*
X0419053Y0099468D01*
X0417944Y0099468D01*
X0416920Y0099044D01*
X0416088Y0098144D02*
X0390328Y0098144D01*
X0390825Y0097346D02*
X0415757Y0097346D01*
X0415711Y0096547D02*
X0391036Y0096547D01*
X0391036Y0095749D02*
X0415868Y0095749D01*
X0416288Y0094950D02*
X0390715Y0094950D01*
X0390061Y0094152D02*
X0417322Y0094152D01*
X0419676Y0094152D02*
X0421443Y0094152D01*
X0421411Y0094950D02*
X0420710Y0094950D01*
X0421130Y0095749D02*
X0421583Y0095749D01*
X0421286Y0096547D02*
X0422023Y0096547D01*
X0421241Y0097346D02*
X0423106Y0097346D01*
X0423320Y0098818D02*
X0424344Y0098394D01*
X0425453Y0098394D01*
X0426478Y0098818D01*
X0427262Y0099602D01*
X0427686Y0100627D01*
X0427686Y0101736D01*
X0427262Y0102760D01*
X0426478Y0103544D01*
X0425453Y0103968D01*
X0424344Y0103968D01*
X0423320Y0103544D01*
X0422536Y0102760D01*
X0422111Y0101736D01*
X0422111Y0100627D01*
X0422536Y0099602D01*
X0423320Y0098818D01*
X0423195Y0098943D02*
X0420179Y0098943D01*
X0420910Y0098144D02*
X0463973Y0098144D01*
X0464136Y0097752D02*
X0464920Y0096968D01*
X0465944Y0096544D01*
X0467053Y0096544D01*
X0468078Y0096968D01*
X0468862Y0097752D01*
X0469286Y0098777D01*
X0469286Y0099886D01*
X0468862Y0100910D01*
X0468078Y0101694D01*
X0467053Y0102118D01*
X0465944Y0102118D01*
X0464920Y0101694D01*
X0464136Y0100910D01*
X0463711Y0099886D01*
X0463711Y0098777D01*
X0464136Y0097752D01*
X0464542Y0097346D02*
X0425291Y0097346D01*
X0426375Y0096547D02*
X0465936Y0096547D01*
X0467062Y0096547D02*
X0507210Y0096547D01*
X0507011Y0097027D02*
X0507436Y0096002D01*
X0508220Y0095218D01*
X0509244Y0094794D01*
X0510353Y0094794D01*
X0511378Y0095218D01*
X0512162Y0096002D01*
X0512586Y0097027D01*
X0512586Y0098136D01*
X0512162Y0099160D01*
X0511378Y0099944D01*
X0510353Y0100368D01*
X0509244Y0100368D01*
X0508220Y0099944D01*
X0507436Y0099160D01*
X0507011Y0098136D01*
X0507011Y0097027D01*
X0507011Y0097346D02*
X0468455Y0097346D01*
X0469024Y0098144D02*
X0507015Y0098144D01*
X0507346Y0098943D02*
X0469286Y0098943D01*
X0469286Y0099741D02*
X0508017Y0099741D01*
X0511581Y0099741D02*
X0521078Y0099741D01*
X0521086Y0099760D02*
X0520661Y0098736D01*
X0520661Y0097627D01*
X0521086Y0096602D01*
X0521870Y0095818D01*
X0522894Y0095394D01*
X0524003Y0095394D01*
X0525028Y0095818D01*
X0525812Y0096602D01*
X0526236Y0097627D01*
X0526236Y0098736D01*
X0525812Y0099760D01*
X0525028Y0100544D01*
X0524003Y0100968D01*
X0522894Y0100968D01*
X0521870Y0100544D01*
X0521086Y0099760D01*
X0520653Y0099994D02*
X0521678Y0100418D01*
X0522462Y0101202D01*
X0522886Y0102227D01*
X0522886Y0103336D01*
X0522462Y0104360D01*
X0521678Y0105144D01*
X0520653Y0105568D01*
X0519544Y0105568D01*
X0518520Y0105144D01*
X0517736Y0104360D01*
X0517311Y0103336D01*
X0517311Y0102227D01*
X0517736Y0101202D01*
X0518520Y0100418D01*
X0519544Y0099994D01*
X0520653Y0099994D01*
X0520747Y0098943D02*
X0512252Y0098943D01*
X0512583Y0098144D02*
X0520661Y0098144D01*
X0520778Y0097346D02*
X0512586Y0097346D01*
X0512388Y0096547D02*
X0521141Y0096547D01*
X0522038Y0095749D02*
X0511908Y0095749D01*
X0510731Y0094950D02*
X0526837Y0094950D01*
X0526837Y0094152D02*
X0482140Y0094152D01*
X0482436Y0093353D02*
X0526837Y0093353D01*
X0526837Y0092555D02*
X0482436Y0092555D01*
X0482200Y0091756D02*
X0526837Y0091756D01*
X0526837Y0090958D02*
X0481667Y0090958D01*
X0480361Y0090159D02*
X0526837Y0090159D01*
X0526837Y0089361D02*
X0465936Y0089361D01*
X0466236Y0088562D02*
X0526837Y0088562D01*
X0526837Y0087763D02*
X0466236Y0087763D01*
X0466004Y0086965D02*
X0526837Y0086965D01*
X0526837Y0086166D02*
X0465476Y0086166D01*
X0464183Y0085368D02*
X0526837Y0085368D01*
X0526837Y0084569D02*
X0375893Y0084569D01*
X0375762Y0084252D02*
X0376186Y0085277D01*
X0376186Y0086386D01*
X0375762Y0087410D01*
X0374978Y0088194D01*
X0373953Y0088618D01*
X0372844Y0088618D01*
X0371820Y0088194D01*
X0371036Y0087410D01*
X0370611Y0086386D01*
X0370611Y0085277D01*
X0370698Y0085068D01*
X0370494Y0085068D01*
X0369470Y0084644D01*
X0368686Y0083860D01*
X0368261Y0082836D01*
X0368261Y0081727D01*
X0368686Y0080702D01*
X0369470Y0079918D01*
X0370494Y0079494D01*
X0371603Y0079494D01*
X0372628Y0079918D01*
X0373412Y0080702D01*
X0373836Y0081727D01*
X0373836Y0082836D01*
X0373750Y0083044D01*
X0373953Y0083044D01*
X0374978Y0083468D01*
X0375762Y0084252D01*
X0375281Y0083771D02*
X0508617Y0083771D01*
X0509094Y0083968D02*
X0508070Y0083544D01*
X0507286Y0082760D01*
X0506861Y0081736D01*
X0506861Y0080627D01*
X0507286Y0079602D01*
X0508070Y0078818D01*
X0509094Y0078394D01*
X0510203Y0078394D01*
X0511228Y0078818D01*
X0512012Y0079602D01*
X0512436Y0080627D01*
X0512436Y0081736D01*
X0512012Y0082760D01*
X0511228Y0083544D01*
X0510203Y0083968D01*
X0509094Y0083968D01*
X0510680Y0083771D02*
X0526837Y0083771D01*
X0526837Y0082972D02*
X0511799Y0082972D01*
X0512255Y0082174D02*
X0526837Y0082174D01*
X0526837Y0081375D02*
X0512436Y0081375D01*
X0512416Y0080577D02*
X0526837Y0080577D01*
X0526837Y0079778D02*
X0512085Y0079778D01*
X0511390Y0078980D02*
X0526837Y0078980D01*
X0526837Y0078181D02*
X0472041Y0078181D01*
X0471828Y0077968D02*
X0472612Y0078752D01*
X0473036Y0079777D01*
X0473036Y0080886D01*
X0472612Y0081910D01*
X0471828Y0082694D01*
X0470803Y0083118D01*
X0469694Y0083118D01*
X0468670Y0082694D01*
X0467886Y0081910D01*
X0467461Y0080886D01*
X0467461Y0079777D01*
X0467886Y0078752D01*
X0468670Y0077968D01*
X0469694Y0077544D01*
X0470803Y0077544D01*
X0471828Y0077968D01*
X0472706Y0078980D02*
X0507908Y0078980D01*
X0507213Y0079778D02*
X0473036Y0079778D01*
X0473036Y0080577D02*
X0506882Y0080577D01*
X0506861Y0081375D02*
X0472833Y0081375D01*
X0472348Y0082174D02*
X0507043Y0082174D01*
X0507498Y0082972D02*
X0471156Y0082972D01*
X0469342Y0082972D02*
X0464727Y0082972D01*
X0464253Y0083168D02*
X0463144Y0083168D01*
X0462120Y0082744D01*
X0461336Y0081960D01*
X0460911Y0080936D01*
X0460911Y0079827D01*
X0461336Y0078802D01*
X0462120Y0078018D01*
X0463144Y0077594D01*
X0464253Y0077594D01*
X0465278Y0078018D01*
X0466062Y0078802D01*
X0466486Y0079827D01*
X0466486Y0080936D01*
X0466062Y0081960D01*
X0465278Y0082744D01*
X0464253Y0083168D01*
X0462671Y0082972D02*
X0373780Y0082972D01*
X0373836Y0082174D02*
X0461550Y0082174D01*
X0461094Y0081375D02*
X0373691Y0081375D01*
X0373287Y0080577D02*
X0392653Y0080577D01*
X0392720Y0080644D02*
X0391936Y0079860D01*
X0391511Y0078836D01*
X0391511Y0077727D01*
X0391936Y0076702D01*
X0392720Y0075918D01*
X0393744Y0075494D01*
X0394853Y0075494D01*
X0395878Y0075918D01*
X0396662Y0076702D01*
X0397086Y0077727D01*
X0397086Y0078836D01*
X0396662Y0079860D01*
X0395878Y0080644D01*
X0394853Y0081068D01*
X0393744Y0081068D01*
X0392720Y0080644D01*
X0391902Y0079778D02*
X0372291Y0079778D01*
X0371478Y0078194D02*
X0370453Y0078618D01*
X0369344Y0078618D01*
X0368320Y0078194D01*
X0367536Y0077410D01*
X0367111Y0076386D01*
X0367111Y0075277D01*
X0367536Y0074252D01*
X0368320Y0073468D01*
X0369344Y0073044D01*
X0370453Y0073044D01*
X0371478Y0073468D01*
X0372262Y0074252D01*
X0372686Y0075277D01*
X0372686Y0076386D01*
X0372262Y0077410D01*
X0371478Y0078194D01*
X0371491Y0078181D02*
X0391511Y0078181D01*
X0391571Y0078980D02*
X0245822Y0078980D01*
X0245986Y0079377D02*
X0245562Y0078352D01*
X0245116Y0077906D01*
X0245512Y0077510D01*
X0245936Y0076486D01*
X0245936Y0075377D01*
X0245512Y0074352D01*
X0244728Y0073568D01*
X0243703Y0073144D01*
X0242594Y0073144D01*
X0241570Y0073568D01*
X0240786Y0074352D01*
X0240361Y0075377D01*
X0240361Y0076486D01*
X0240786Y0077510D01*
X0241232Y0077956D01*
X0240836Y0078352D01*
X0240411Y0079377D01*
X0240411Y0080486D01*
X0240836Y0081510D01*
X0241620Y0082294D01*
X0242644Y0082718D01*
X0243753Y0082718D01*
X0244778Y0082294D01*
X0245562Y0081510D01*
X0245986Y0080486D01*
X0245986Y0079377D01*
X0245986Y0079778D02*
X0369807Y0079778D01*
X0368811Y0080577D02*
X0294437Y0080577D01*
X0294178Y0080318D02*
X0294962Y0081102D01*
X0295386Y0082127D01*
X0295386Y0083236D01*
X0294962Y0084260D01*
X0294178Y0085044D01*
X0293153Y0085468D01*
X0292044Y0085468D01*
X0291020Y0085044D01*
X0290236Y0084260D01*
X0289811Y0083236D01*
X0289811Y0082127D01*
X0290236Y0081102D01*
X0291020Y0080318D01*
X0292044Y0079894D01*
X0293153Y0079894D01*
X0294178Y0080318D01*
X0295075Y0081375D02*
X0368407Y0081375D01*
X0368261Y0082174D02*
X0295386Y0082174D01*
X0295386Y0082972D02*
X0368318Y0082972D01*
X0368649Y0083771D02*
X0295164Y0083771D01*
X0294652Y0084569D02*
X0369395Y0084569D01*
X0370611Y0085368D02*
X0293396Y0085368D01*
X0291802Y0085368D02*
X0283724Y0085368D01*
X0284876Y0086166D02*
X0370611Y0086166D01*
X0370851Y0086965D02*
X0285345Y0086965D01*
X0285536Y0087763D02*
X0371389Y0087763D01*
X0372708Y0088562D02*
X0285525Y0088562D01*
X0283961Y0091756D02*
X0244386Y0091756D01*
X0244386Y0092555D02*
X0283961Y0092555D01*
X0284217Y0093353D02*
X0244130Y0093353D01*
X0243570Y0094152D02*
X0284777Y0094152D01*
X0276538Y0088562D02*
X0201999Y0088562D01*
X0201999Y0087763D02*
X0253514Y0087763D01*
X0253491Y0087748D02*
X0252995Y0087252D01*
X0252605Y0086668D01*
X0252337Y0086020D01*
X0252207Y0085369D01*
X0255374Y0085369D01*
X0255374Y0088536D01*
X0254723Y0088406D01*
X0254074Y0088138D01*
X0253491Y0087748D01*
X0252803Y0086965D02*
X0201999Y0086965D01*
X0201999Y0086166D02*
X0252397Y0086166D01*
X0252207Y0084594D02*
X0252337Y0083942D01*
X0252605Y0083294D01*
X0252995Y0082710D01*
X0253491Y0082214D01*
X0254074Y0081824D01*
X0254723Y0081556D01*
X0255374Y0081426D01*
X0255374Y0084594D01*
X0252207Y0084594D01*
X0252212Y0084569D02*
X0201999Y0084569D01*
X0201999Y0083771D02*
X0252407Y0083771D01*
X0252820Y0082972D02*
X0201999Y0082972D01*
X0201999Y0082174D02*
X0241500Y0082174D01*
X0240780Y0081375D02*
X0201999Y0081375D01*
X0201999Y0080577D02*
X0240449Y0080577D01*
X0240411Y0079778D02*
X0201999Y0079778D01*
X0201999Y0078980D02*
X0240576Y0078980D01*
X0241007Y0078181D02*
X0201999Y0078181D01*
X0201999Y0077383D02*
X0240733Y0077383D01*
X0240402Y0076584D02*
X0201999Y0076584D01*
X0201999Y0075786D02*
X0240361Y0075786D01*
X0240523Y0074987D02*
X0201999Y0074987D01*
X0201999Y0074189D02*
X0240949Y0074189D01*
X0241999Y0073390D02*
X0201999Y0073390D01*
X0201999Y0072592D02*
X0457533Y0072592D01*
X0457736Y0072102D02*
X0458520Y0071318D01*
X0459544Y0070894D01*
X0460653Y0070894D01*
X0461678Y0071318D01*
X0462462Y0072102D01*
X0462886Y0073127D01*
X0462886Y0074236D01*
X0462462Y0075260D01*
X0461678Y0076044D01*
X0460653Y0076468D01*
X0459544Y0076468D01*
X0458520Y0076044D01*
X0457736Y0075260D01*
X0457311Y0074236D01*
X0457311Y0073127D01*
X0457736Y0072102D01*
X0458045Y0071793D02*
X0201999Y0071793D01*
X0201999Y0070995D02*
X0387371Y0070995D01*
X0387520Y0071144D02*
X0386736Y0070360D01*
X0386311Y0069336D01*
X0386311Y0068227D01*
X0386736Y0067202D01*
X0387520Y0066418D01*
X0388544Y0065994D01*
X0389653Y0065994D01*
X0390678Y0066418D01*
X0391074Y0066814D01*
X0391770Y0066118D01*
X0392794Y0065694D01*
X0393903Y0065694D01*
X0394928Y0066118D01*
X0395712Y0066902D01*
X0396136Y0067927D01*
X0396136Y0069036D01*
X0395712Y0070060D01*
X0394928Y0070844D01*
X0393903Y0071268D01*
X0392794Y0071268D01*
X0391770Y0070844D01*
X0391374Y0070448D01*
X0390678Y0071144D01*
X0389653Y0071568D01*
X0388544Y0071568D01*
X0387520Y0071144D01*
X0386668Y0070196D02*
X0201999Y0070196D01*
X0201999Y0069398D02*
X0386337Y0069398D01*
X0386311Y0068599D02*
X0201999Y0068599D01*
X0201999Y0067801D02*
X0386488Y0067801D01*
X0386936Y0067002D02*
X0373358Y0067002D01*
X0373378Y0066994D02*
X0372353Y0067418D01*
X0371244Y0067418D01*
X0370220Y0066994D01*
X0369436Y0066210D01*
X0369011Y0065186D01*
X0369011Y0064077D01*
X0369436Y0063052D01*
X0370220Y0062268D01*
X0371244Y0061844D01*
X0372353Y0061844D01*
X0373378Y0062268D01*
X0374162Y0063052D01*
X0374586Y0064077D01*
X0374586Y0065186D01*
X0374162Y0066210D01*
X0373378Y0066994D01*
X0374164Y0066204D02*
X0388037Y0066204D01*
X0390160Y0066204D02*
X0391684Y0066204D01*
X0395013Y0066204D02*
X0526837Y0066204D01*
X0526837Y0067002D02*
X0395753Y0067002D01*
X0396084Y0067801D02*
X0526837Y0067801D01*
X0526837Y0068599D02*
X0396136Y0068599D01*
X0395986Y0069398D02*
X0526837Y0069398D01*
X0526837Y0070196D02*
X0395576Y0070196D01*
X0394564Y0070995D02*
X0459300Y0070995D01*
X0460897Y0070995D02*
X0468593Y0070995D01*
X0468670Y0070918D02*
X0469694Y0070494D01*
X0470803Y0070494D01*
X0471828Y0070918D01*
X0472612Y0071702D01*
X0473036Y0072727D01*
X0473036Y0073836D01*
X0472612Y0074860D01*
X0471828Y0075644D01*
X0470803Y0076068D01*
X0469694Y0076068D01*
X0468670Y0075644D01*
X0467886Y0074860D01*
X0467461Y0073836D01*
X0467461Y0072727D01*
X0467886Y0071702D01*
X0468670Y0070918D01*
X0467848Y0071793D02*
X0462153Y0071793D01*
X0462665Y0072592D02*
X0467517Y0072592D01*
X0467461Y0073390D02*
X0462886Y0073390D01*
X0462886Y0074189D02*
X0467608Y0074189D01*
X0468013Y0074987D02*
X0462575Y0074987D01*
X0461936Y0075786D02*
X0469012Y0075786D01*
X0468457Y0078181D02*
X0465441Y0078181D01*
X0466135Y0078980D02*
X0467791Y0078980D01*
X0467461Y0079778D02*
X0466466Y0079778D01*
X0466486Y0080577D02*
X0467461Y0080577D01*
X0467664Y0081375D02*
X0466304Y0081375D01*
X0465848Y0082174D02*
X0468150Y0082174D01*
X0462715Y0085368D02*
X0376186Y0085368D01*
X0376186Y0086166D02*
X0461421Y0086166D01*
X0460894Y0086965D02*
X0375946Y0086965D01*
X0375408Y0087763D02*
X0460661Y0087763D01*
X0460661Y0088562D02*
X0374090Y0088562D01*
X0372273Y0077383D02*
X0391654Y0077383D01*
X0392054Y0076584D02*
X0372604Y0076584D01*
X0372686Y0075786D02*
X0393039Y0075786D01*
X0395559Y0075786D02*
X0458262Y0075786D01*
X0457623Y0074987D02*
X0372566Y0074987D01*
X0372198Y0074189D02*
X0457311Y0074189D01*
X0457311Y0073390D02*
X0371290Y0073390D01*
X0368508Y0073390D02*
X0364040Y0073390D01*
X0364228Y0073468D02*
X0365012Y0074252D01*
X0365436Y0075277D01*
X0365436Y0076386D01*
X0365012Y0077410D01*
X0364228Y0078194D01*
X0363203Y0078618D01*
X0362094Y0078618D01*
X0361070Y0078194D01*
X0360286Y0077410D01*
X0359861Y0076386D01*
X0359861Y0075277D01*
X0360286Y0074252D01*
X0361070Y0073468D01*
X0362094Y0073044D01*
X0363203Y0073044D01*
X0364228Y0073468D01*
X0364948Y0074189D02*
X0367599Y0074189D01*
X0367231Y0074987D02*
X0365316Y0074987D01*
X0365436Y0075786D02*
X0367111Y0075786D01*
X0367194Y0076584D02*
X0365354Y0076584D01*
X0365023Y0077383D02*
X0367525Y0077383D01*
X0368307Y0078181D02*
X0364241Y0078181D01*
X0361057Y0078181D02*
X0273114Y0078181D01*
X0272903Y0078268D02*
X0271794Y0078268D01*
X0270770Y0077844D01*
X0269986Y0077060D01*
X0269561Y0076036D01*
X0269561Y0074927D01*
X0269986Y0073902D01*
X0270770Y0073118D01*
X0271794Y0072694D01*
X0272903Y0072694D01*
X0273928Y0073118D01*
X0274712Y0073902D01*
X0275136Y0074927D01*
X0275136Y0076036D01*
X0274712Y0077060D01*
X0273928Y0077844D01*
X0272903Y0078268D01*
X0271584Y0078181D02*
X0245391Y0078181D01*
X0245565Y0077383D02*
X0270309Y0077383D01*
X0269789Y0076584D02*
X0245895Y0076584D01*
X0245936Y0075786D02*
X0269561Y0075786D01*
X0269561Y0074987D02*
X0245775Y0074987D01*
X0245348Y0074189D02*
X0269867Y0074189D01*
X0270498Y0073390D02*
X0244299Y0073390D01*
X0245948Y0080577D02*
X0290761Y0080577D01*
X0290123Y0081375D02*
X0245618Y0081375D01*
X0244898Y0082174D02*
X0253551Y0082174D01*
X0255374Y0082174D02*
X0256149Y0082174D01*
X0256149Y0081426D02*
X0256801Y0081556D01*
X0257449Y0081824D01*
X0258033Y0082214D01*
X0258529Y0082710D01*
X0258919Y0083294D01*
X0259187Y0083942D01*
X0259317Y0084594D01*
X0256149Y0084594D01*
X0256149Y0085369D01*
X0255374Y0085369D01*
X0255374Y0084594D01*
X0256149Y0084594D01*
X0256149Y0081426D01*
X0256149Y0082972D02*
X0255374Y0082972D01*
X0255374Y0083771D02*
X0256149Y0083771D01*
X0256149Y0084569D02*
X0255374Y0084569D01*
X0255374Y0085368D02*
X0201999Y0085368D01*
X0216990Y0098943D02*
X0233045Y0098943D01*
X0234090Y0098144D02*
X0217928Y0098144D01*
X0241343Y0108525D02*
X0509890Y0108525D01*
X0509811Y0107726D02*
X0497596Y0107726D01*
X0497478Y0107844D02*
X0496453Y0108268D01*
X0495344Y0108268D01*
X0494320Y0107844D01*
X0493536Y0107060D01*
X0493111Y0106036D01*
X0493111Y0104927D01*
X0493536Y0103902D01*
X0494320Y0103118D01*
X0495344Y0102694D01*
X0496453Y0102694D01*
X0497478Y0103118D01*
X0498262Y0103902D01*
X0498686Y0104927D01*
X0498686Y0106036D01*
X0498262Y0107060D01*
X0497478Y0107844D01*
X0498317Y0106928D02*
X0509935Y0106928D01*
X0510309Y0106129D02*
X0498647Y0106129D01*
X0498686Y0105331D02*
X0511231Y0105331D01*
X0513967Y0105331D02*
X0518970Y0105331D01*
X0517908Y0104532D02*
X0498523Y0104532D01*
X0498093Y0103734D02*
X0517476Y0103734D01*
X0517311Y0102935D02*
X0497036Y0102935D01*
X0494761Y0102935D02*
X0427087Y0102935D01*
X0427520Y0102137D02*
X0517349Y0102137D01*
X0517679Y0101338D02*
X0468434Y0101338D01*
X0469015Y0100540D02*
X0518398Y0100540D01*
X0521799Y0100540D02*
X0521865Y0100540D01*
X0522518Y0101338D02*
X0526837Y0101338D01*
X0526837Y0100540D02*
X0525032Y0100540D01*
X0525820Y0099741D02*
X0526837Y0099741D01*
X0526837Y0098943D02*
X0526150Y0098943D01*
X0526236Y0098144D02*
X0526837Y0098144D01*
X0526837Y0097346D02*
X0526120Y0097346D01*
X0525757Y0096547D02*
X0526837Y0096547D01*
X0526837Y0095749D02*
X0524860Y0095749D01*
X0508867Y0094950D02*
X0481522Y0094950D01*
X0477776Y0094950D02*
X0426986Y0094950D01*
X0426955Y0094152D02*
X0477158Y0094152D01*
X0476861Y0093353D02*
X0426624Y0093353D01*
X0425914Y0092555D02*
X0476861Y0092555D01*
X0478937Y0090159D02*
X0465313Y0090159D01*
X0463711Y0098943D02*
X0426602Y0098943D01*
X0427319Y0099741D02*
X0463711Y0099741D01*
X0463982Y0100540D02*
X0427650Y0100540D01*
X0427686Y0101338D02*
X0464564Y0101338D01*
X0469676Y0110122D02*
X0241999Y0110122D01*
X0241999Y0110920D02*
X0390418Y0110920D01*
X0390520Y0110818D02*
X0391544Y0110394D01*
X0392653Y0110394D01*
X0393678Y0110818D01*
X0394462Y0111602D01*
X0394886Y0112627D01*
X0394886Y0113736D01*
X0394462Y0114760D01*
X0393678Y0115544D01*
X0392653Y0115968D01*
X0391544Y0115968D01*
X0390520Y0115544D01*
X0389736Y0114760D01*
X0389311Y0113736D01*
X0389311Y0112627D01*
X0389736Y0111602D01*
X0390520Y0110818D01*
X0389687Y0111719D02*
X0241999Y0111719D01*
X0241999Y0112517D02*
X0389357Y0112517D01*
X0389311Y0113316D02*
X0241999Y0113316D01*
X0241999Y0114114D02*
X0265774Y0114114D01*
X0265870Y0114018D02*
X0266894Y0113594D01*
X0268003Y0113594D01*
X0269028Y0114018D01*
X0269812Y0114802D01*
X0270236Y0115827D01*
X0270236Y0116936D01*
X0269812Y0117960D01*
X0269028Y0118744D01*
X0268003Y0119168D01*
X0266894Y0119168D01*
X0265870Y0118744D01*
X0265086Y0117960D01*
X0264661Y0116936D01*
X0264661Y0115827D01*
X0265086Y0114802D01*
X0265870Y0114018D01*
X0265040Y0114913D02*
X0241999Y0114913D01*
X0241999Y0115711D02*
X0264709Y0115711D01*
X0264661Y0116510D02*
X0241999Y0116510D01*
X0241999Y0117308D02*
X0264816Y0117308D01*
X0265233Y0118107D02*
X0241999Y0118107D01*
X0241999Y0118905D02*
X0266259Y0118905D01*
X0268638Y0118905D02*
X0385411Y0118905D01*
X0385420Y0118107D02*
X0269665Y0118107D01*
X0270082Y0117308D02*
X0385750Y0117308D01*
X0386428Y0116510D02*
X0270236Y0116510D01*
X0270188Y0115711D02*
X0390924Y0115711D01*
X0389889Y0114913D02*
X0269858Y0114913D01*
X0269124Y0114114D02*
X0389468Y0114114D01*
X0393274Y0115711D02*
X0401874Y0115711D01*
X0400839Y0114913D02*
X0394309Y0114913D01*
X0394729Y0114114D02*
X0400418Y0114114D01*
X0400261Y0113316D02*
X0394886Y0113316D01*
X0394841Y0112517D02*
X0400307Y0112517D01*
X0400637Y0111719D02*
X0394510Y0111719D01*
X0393780Y0110920D02*
X0401368Y0110920D01*
X0411277Y0112517D02*
X0467511Y0112517D01*
X0467511Y0113316D02*
X0411775Y0113316D01*
X0411986Y0114114D02*
X0467793Y0114114D01*
X0468389Y0114913D02*
X0411986Y0114913D01*
X0407846Y0107726D02*
X0494202Y0107726D01*
X0493481Y0106928D02*
X0408567Y0106928D01*
X0408897Y0106129D02*
X0493150Y0106129D01*
X0493111Y0105331D02*
X0408936Y0105331D01*
X0408773Y0104532D02*
X0493275Y0104532D01*
X0493704Y0103734D02*
X0426020Y0103734D01*
X0423778Y0103734D02*
X0408343Y0103734D01*
X0407286Y0102935D02*
X0422711Y0102935D01*
X0422278Y0102137D02*
X0405636Y0102137D01*
X0405455Y0101338D02*
X0422111Y0101338D01*
X0422147Y0100540D02*
X0404999Y0100540D01*
X0403880Y0099741D02*
X0422478Y0099741D01*
X0426815Y0095749D02*
X0507689Y0095749D01*
X0522849Y0102137D02*
X0526837Y0102137D01*
X0526837Y0102935D02*
X0522886Y0102935D01*
X0522721Y0103734D02*
X0526837Y0103734D01*
X0526837Y0104532D02*
X0522290Y0104532D01*
X0521227Y0105331D02*
X0526837Y0105331D01*
X0526837Y0106129D02*
X0514889Y0106129D01*
X0515262Y0106928D02*
X0526837Y0106928D01*
X0526837Y0107726D02*
X0515386Y0107726D01*
X0510998Y0110122D02*
X0470921Y0110122D01*
X0472280Y0110920D02*
X0474318Y0110920D01*
X0473734Y0111719D02*
X0472834Y0111719D01*
X0473086Y0112517D02*
X0473461Y0112517D01*
X0473461Y0113316D02*
X0473086Y0113316D01*
X0472805Y0114114D02*
X0473722Y0114114D01*
X0474289Y0114913D02*
X0472209Y0114913D01*
X0510221Y0109323D02*
X0241999Y0109323D01*
X0241999Y0119704D02*
X0385605Y0119704D01*
X0386078Y0120502D02*
X0241999Y0120502D01*
X0201999Y0135674D02*
X0366286Y0135674D01*
X0367048Y0136473D02*
X0201999Y0136473D01*
X0201999Y0137271D02*
X0520104Y0137271D01*
X0519861Y0136473D02*
X0370299Y0136473D01*
X0371062Y0135674D02*
X0519861Y0135674D01*
X0520645Y0138070D02*
X0201999Y0138070D01*
X0201999Y0161227D02*
X0221614Y0161227D01*
X0221283Y0162025D02*
X0201999Y0162025D01*
X0201999Y0162824D02*
X0221261Y0162824D01*
X0221442Y0163622D02*
X0201999Y0163622D01*
X0201999Y0164421D02*
X0221896Y0164421D01*
X0223013Y0165219D02*
X0201999Y0165219D01*
X0201999Y0166018D02*
X0245011Y0166018D01*
X0245077Y0165219D02*
X0225085Y0165219D01*
X0226201Y0164421D02*
X0245407Y0164421D01*
X0245148Y0166816D02*
X0201999Y0166816D01*
X0201999Y0167615D02*
X0245540Y0167615D01*
X0246507Y0168413D02*
X0201999Y0168413D01*
X0201999Y0169212D02*
X0259461Y0169212D01*
X0259130Y0170010D02*
X0201999Y0170010D01*
X0201921Y0183585D02*
X0378895Y0183585D01*
X0378737Y0182786D02*
X0354534Y0182786D01*
X0355534Y0181988D02*
X0378737Y0181988D01*
X0379226Y0184383D02*
X0253243Y0184383D01*
X0253966Y0185182D02*
X0379949Y0185182D01*
X0381407Y0185980D02*
X0254296Y0185980D01*
X0249855Y0184383D02*
X0201590Y0184383D01*
X0200989Y0185182D02*
X0249132Y0185182D01*
X0248801Y0185980D02*
X0204471Y0185980D01*
X0205786Y0186779D02*
X0248761Y0186779D01*
X0248924Y0187577D02*
X0206585Y0187577D01*
X0207024Y0188376D02*
X0249352Y0188376D01*
X0250405Y0189174D02*
X0207355Y0189174D01*
X0200527Y0185980D02*
X0199841Y0185980D01*
X0199212Y0186779D02*
X0196749Y0186779D01*
X0196749Y0187577D02*
X0198413Y0187577D01*
X0197973Y0188376D02*
X0196749Y0188376D01*
X0196749Y0189174D02*
X0197643Y0189174D01*
X0197460Y0189973D02*
X0196749Y0189973D01*
X0196749Y0190771D02*
X0197460Y0190771D01*
X0197460Y0191570D02*
X0196749Y0191570D01*
X0196749Y0192368D02*
X0197770Y0192368D01*
X0198101Y0193167D02*
X0196749Y0193167D01*
X0196749Y0193966D02*
X0198721Y0193966D01*
X0199520Y0194764D02*
X0196749Y0194764D01*
X0196117Y0195563D02*
X0201271Y0195563D01*
X0203726Y0195563D02*
X0269269Y0195563D01*
X0268939Y0196361D02*
X0195319Y0196361D01*
X0194520Y0197160D02*
X0268911Y0197160D01*
X0269086Y0197958D02*
X0193722Y0197958D01*
X0192923Y0198757D02*
X0269532Y0198757D01*
X0270629Y0199555D02*
X0192125Y0199555D01*
X0191326Y0200354D02*
X0201470Y0200354D01*
X0199602Y0201152D02*
X0190528Y0201152D01*
X0189729Y0201951D02*
X0198804Y0201951D01*
X0198135Y0202749D02*
X0188931Y0202749D01*
X0188132Y0203548D02*
X0197805Y0203548D01*
X0197474Y0204346D02*
X0187334Y0204346D01*
X0186535Y0205145D02*
X0197460Y0205145D01*
X0197460Y0205943D02*
X0185737Y0205943D01*
X0184938Y0206742D02*
X0197609Y0206742D01*
X0197939Y0207540D02*
X0184140Y0207540D01*
X0183341Y0208339D02*
X0198331Y0208339D01*
X0199129Y0209137D02*
X0182543Y0209137D01*
X0181744Y0209936D02*
X0200328Y0209936D01*
X0207193Y0203548D02*
X0318744Y0203548D01*
X0319075Y0202749D02*
X0317523Y0202749D01*
X0317228Y0203044D02*
X0316203Y0203468D01*
X0315094Y0203468D01*
X0314070Y0203044D01*
X0313286Y0202260D01*
X0312861Y0201236D01*
X0312861Y0200127D01*
X0313286Y0199102D01*
X0314070Y0198318D01*
X0315094Y0197894D01*
X0316203Y0197894D01*
X0317228Y0198318D01*
X0318012Y0199102D01*
X0318436Y0200127D01*
X0318436Y0201236D01*
X0318012Y0202260D01*
X0317228Y0203044D01*
X0318140Y0201951D02*
X0318842Y0201951D01*
X0318711Y0201152D02*
X0318436Y0201152D01*
X0318436Y0200354D02*
X0318783Y0200354D01*
X0319114Y0199555D02*
X0318199Y0199555D01*
X0317666Y0198757D02*
X0319881Y0198757D01*
X0316359Y0197958D02*
X0336611Y0197958D01*
X0336701Y0197160D02*
X0274486Y0197160D01*
X0274459Y0196361D02*
X0337032Y0196361D01*
X0336724Y0198757D02*
X0329416Y0198757D01*
X0330184Y0199555D02*
X0337081Y0199555D01*
X0337963Y0200354D02*
X0330515Y0200354D01*
X0314939Y0197958D02*
X0274311Y0197958D01*
X0273865Y0198757D02*
X0313631Y0198757D01*
X0313098Y0199555D02*
X0272768Y0199555D01*
X0269974Y0194764D02*
X0205478Y0194764D01*
X0203528Y0200354D02*
X0312861Y0200354D01*
X0312861Y0201152D02*
X0205395Y0201152D01*
X0206194Y0201951D02*
X0313158Y0201951D01*
X0313775Y0202749D02*
X0206862Y0202749D01*
X0207537Y0219518D02*
X0526837Y0219518D01*
X0526837Y0220316D02*
X0207537Y0220316D01*
X0207537Y0221115D02*
X0337980Y0221115D01*
X0336713Y0221913D02*
X0207220Y0221913D01*
X0206889Y0222712D02*
X0335915Y0222712D01*
X0335495Y0223510D02*
X0206259Y0223510D01*
X0205460Y0224309D02*
X0335165Y0224309D01*
X0334996Y0225107D02*
X0203685Y0225107D01*
X0197986Y0227503D02*
X0335321Y0227503D01*
X0334996Y0226704D02*
X0197749Y0226704D01*
X0197216Y0225906D02*
X0334996Y0225906D01*
X0335652Y0228301D02*
X0197986Y0228301D01*
X0197690Y0229100D02*
X0336292Y0229100D01*
X0337091Y0229899D02*
X0197073Y0229899D01*
X0218385Y0243292D02*
X0219969Y0241709D01*
X0222038Y0240852D01*
X0224277Y0240852D01*
X0226346Y0241709D01*
X0227930Y0243292D01*
X0228787Y0245361D01*
X0228787Y0247601D01*
X0227930Y0249670D01*
X0226346Y0251253D01*
X0224277Y0252110D01*
X0222038Y0252110D01*
X0219969Y0251253D01*
X0218385Y0249670D01*
X0217528Y0247601D01*
X0217528Y0245361D01*
X0218385Y0243292D01*
X0218310Y0243473D02*
X0014346Y0243473D01*
X0014346Y0242675D02*
X0219003Y0242675D01*
X0219802Y0241876D02*
X0014346Y0241876D01*
X0014346Y0241078D02*
X0221493Y0241078D01*
X0224822Y0241078D02*
X0282611Y0241078D01*
X0282611Y0240977D02*
X0283036Y0239952D01*
X0283820Y0239168D01*
X0284844Y0238744D01*
X0285953Y0238744D01*
X0286978Y0239168D01*
X0287762Y0239952D01*
X0288186Y0240977D01*
X0288186Y0242086D01*
X0287925Y0242716D01*
X0288944Y0242294D01*
X0290053Y0242294D01*
X0291078Y0242718D01*
X0291862Y0243502D01*
X0292286Y0244527D01*
X0292286Y0245636D01*
X0291862Y0246660D01*
X0291078Y0247444D01*
X0290053Y0247868D01*
X0288944Y0247868D01*
X0287920Y0247444D01*
X0287136Y0246660D01*
X0286711Y0245636D01*
X0286711Y0244527D01*
X0286973Y0243896D01*
X0285953Y0244318D01*
X0284844Y0244318D01*
X0283820Y0243894D01*
X0283036Y0243110D01*
X0282611Y0242086D01*
X0282611Y0240977D01*
X0282900Y0240279D02*
X0014346Y0240279D01*
X0014346Y0239481D02*
X0093798Y0239481D01*
X0093000Y0238682D02*
X0014346Y0238682D01*
X0014346Y0237884D02*
X0092201Y0237884D01*
X0091403Y0237085D02*
X0014346Y0237085D01*
X0014346Y0236287D02*
X0090604Y0236287D01*
X0089806Y0235488D02*
X0014346Y0235488D01*
X0014346Y0234690D02*
X0089007Y0234690D01*
X0088209Y0233891D02*
X0014346Y0233891D01*
X0014346Y0233093D02*
X0087410Y0233093D01*
X0087249Y0232294D02*
X0014346Y0232294D01*
X0014346Y0231496D02*
X0087249Y0231496D01*
X0087249Y0230697D02*
X0014346Y0230697D01*
X0014346Y0229899D02*
X0087249Y0229899D01*
X0087249Y0229100D02*
X0014346Y0229100D01*
X0014346Y0228301D02*
X0087249Y0228301D01*
X0087249Y0227503D02*
X0014346Y0227503D01*
X0014346Y0226704D02*
X0087249Y0226704D01*
X0087249Y0225906D02*
X0014346Y0225906D01*
X0014346Y0225107D02*
X0087249Y0225107D01*
X0087249Y0224309D02*
X0014346Y0224309D01*
X0014346Y0223510D02*
X0087249Y0223510D01*
X0087249Y0222712D02*
X0014346Y0222712D01*
X0014346Y0221913D02*
X0087249Y0221913D01*
X0087249Y0221115D02*
X0014346Y0221115D01*
X0014346Y0220316D02*
X0087249Y0220316D01*
X0087249Y0219518D02*
X0014346Y0219518D01*
X0014346Y0218719D02*
X0087249Y0218719D01*
X0087249Y0217921D02*
X0014346Y0217921D01*
X0014346Y0217122D02*
X0087249Y0217122D01*
X0087249Y0216324D02*
X0014346Y0216324D01*
X0014346Y0215525D02*
X0087249Y0215525D01*
X0087249Y0214727D02*
X0014346Y0214727D01*
X0014346Y0213928D02*
X0087249Y0213928D01*
X0087249Y0213130D02*
X0014346Y0213130D01*
X0014346Y0212331D02*
X0087249Y0212331D01*
X0087249Y0211533D02*
X0014346Y0211533D01*
X0014346Y0210734D02*
X0087249Y0210734D01*
X0087249Y0209936D02*
X0014346Y0209936D01*
X0014346Y0209137D02*
X0087249Y0209137D01*
X0087249Y0208339D02*
X0014346Y0208339D01*
X0014346Y0207540D02*
X0087249Y0207540D01*
X0087249Y0206742D02*
X0014346Y0206742D01*
X0014346Y0205943D02*
X0087249Y0205943D01*
X0087249Y0205145D02*
X0014346Y0205145D01*
X0014346Y0204346D02*
X0087249Y0204346D01*
X0087249Y0203548D02*
X0014346Y0203548D01*
X0014346Y0202749D02*
X0087249Y0202749D01*
X0087249Y0201951D02*
X0014346Y0201951D01*
X0014346Y0201152D02*
X0087249Y0201152D01*
X0087249Y0200354D02*
X0014346Y0200354D01*
X0014346Y0199555D02*
X0087249Y0199555D01*
X0087249Y0198757D02*
X0014346Y0198757D01*
X0014346Y0197958D02*
X0087249Y0197958D01*
X0087249Y0197160D02*
X0014346Y0197160D01*
X0014346Y0196361D02*
X0087249Y0196361D01*
X0087249Y0195563D02*
X0014346Y0195563D01*
X0014346Y0194764D02*
X0087249Y0194764D01*
X0087249Y0193966D02*
X0014346Y0193966D01*
X0014346Y0193167D02*
X0087249Y0193167D01*
X0087249Y0192368D02*
X0014346Y0192368D01*
X0014346Y0191570D02*
X0087249Y0191570D01*
X0087249Y0190771D02*
X0014346Y0190771D01*
X0014346Y0189973D02*
X0086791Y0189973D01*
X0085992Y0189174D02*
X0014346Y0189174D01*
X0014346Y0188376D02*
X0085194Y0188376D01*
X0084395Y0187577D02*
X0014346Y0187577D01*
X0014346Y0186779D02*
X0083597Y0186779D01*
X0082798Y0185980D02*
X0014346Y0185980D01*
X0014346Y0185182D02*
X0082000Y0185182D01*
X0081201Y0184383D02*
X0014346Y0184383D01*
X0014346Y0183585D02*
X0080403Y0183585D01*
X0079604Y0182786D02*
X0014346Y0182786D01*
X0014346Y0181988D02*
X0044633Y0181988D01*
X0043616Y0181189D02*
X0014346Y0181189D01*
X0014346Y0180391D02*
X0043069Y0180391D01*
X0042738Y0179592D02*
X0014346Y0179592D01*
X0051964Y0181988D02*
X0078806Y0181988D01*
X0078007Y0181189D02*
X0052982Y0181189D01*
X0053529Y0180391D02*
X0077209Y0180391D01*
X0076410Y0179592D02*
X0053859Y0179592D01*
X0152998Y0238682D02*
X0295706Y0238682D01*
X0295436Y0238952D02*
X0296220Y0238168D01*
X0297244Y0237744D01*
X0298353Y0237744D01*
X0299378Y0238168D01*
X0300162Y0238952D01*
X0300586Y0239977D01*
X0300586Y0241086D01*
X0300162Y0242110D01*
X0299378Y0242894D01*
X0298830Y0243121D01*
X0299212Y0243502D01*
X0299636Y0244527D01*
X0299636Y0245636D01*
X0299212Y0246660D01*
X0298428Y0247444D01*
X0297403Y0247868D01*
X0296988Y0247868D01*
X0297136Y0248227D01*
X0297136Y0249336D01*
X0296712Y0250360D01*
X0295928Y0251144D01*
X0294903Y0251568D01*
X0293794Y0251568D01*
X0292770Y0251144D01*
X0291986Y0250360D01*
X0291561Y0249336D01*
X0291561Y0248227D01*
X0291986Y0247202D01*
X0292770Y0246418D01*
X0293794Y0245994D01*
X0294210Y0245994D01*
X0294061Y0245636D01*
X0294061Y0244527D01*
X0294486Y0243502D01*
X0295270Y0242718D01*
X0295817Y0242491D01*
X0295436Y0242110D01*
X0295011Y0241086D01*
X0295011Y0239977D01*
X0295436Y0238952D01*
X0295217Y0239481D02*
X0287290Y0239481D01*
X0287897Y0240279D02*
X0295011Y0240279D01*
X0295011Y0241078D02*
X0288186Y0241078D01*
X0288186Y0241876D02*
X0295339Y0241876D01*
X0295375Y0242675D02*
X0290973Y0242675D01*
X0291833Y0243473D02*
X0294515Y0243473D01*
X0294167Y0244272D02*
X0292181Y0244272D01*
X0292286Y0245070D02*
X0294061Y0245070D01*
X0294158Y0245869D02*
X0292190Y0245869D01*
X0292521Y0246667D02*
X0291855Y0246667D01*
X0291877Y0247466D02*
X0291026Y0247466D01*
X0291561Y0248264D02*
X0257829Y0248264D01*
X0257986Y0247466D02*
X0287972Y0247466D01*
X0287143Y0246667D02*
X0257941Y0246667D01*
X0257610Y0245869D02*
X0286808Y0245869D01*
X0286711Y0245070D02*
X0256880Y0245070D01*
X0253518Y0245070D02*
X0228666Y0245070D01*
X0228787Y0245869D02*
X0252787Y0245869D01*
X0252457Y0246667D02*
X0228787Y0246667D01*
X0228787Y0247466D02*
X0252411Y0247466D01*
X0252568Y0248264D02*
X0228512Y0248264D01*
X0228181Y0249063D02*
X0252989Y0249063D01*
X0254023Y0249861D02*
X0227738Y0249861D01*
X0226940Y0250660D02*
X0255561Y0250660D01*
X0255561Y0251458D02*
X0225851Y0251458D01*
X0220464Y0251458D02*
X0014346Y0251458D01*
X0014346Y0250660D02*
X0219375Y0250660D01*
X0218577Y0249861D02*
X0014346Y0249861D01*
X0014346Y0249063D02*
X0218134Y0249063D01*
X0217803Y0248264D02*
X0014346Y0248264D01*
X0014346Y0247466D02*
X0217528Y0247466D01*
X0217528Y0246667D02*
X0014346Y0246667D01*
X0014346Y0245869D02*
X0217528Y0245869D01*
X0217649Y0245070D02*
X0014346Y0245070D01*
X0014346Y0244272D02*
X0217980Y0244272D01*
X0226513Y0241876D02*
X0282611Y0241876D01*
X0282855Y0242675D02*
X0227312Y0242675D01*
X0228004Y0243473D02*
X0283399Y0243473D01*
X0284731Y0244272D02*
X0228335Y0244272D01*
X0242034Y0253055D02*
X0014346Y0253055D01*
X0014346Y0252257D02*
X0242847Y0252257D01*
X0241704Y0253854D02*
X0014346Y0253854D01*
X0014346Y0254652D02*
X0240773Y0254652D01*
X0239387Y0255451D02*
X0014346Y0255451D01*
X0014346Y0256249D02*
X0238821Y0256249D01*
X0238561Y0257048D02*
X0014346Y0257048D01*
X0014346Y0257846D02*
X0238561Y0257846D01*
X0238835Y0258645D02*
X0014346Y0258645D01*
X0014346Y0259443D02*
X0239419Y0259443D01*
X0245951Y0252257D02*
X0255798Y0252257D01*
X0256331Y0253055D02*
X0246763Y0253055D01*
X0260222Y0249063D02*
X0291561Y0249063D01*
X0291779Y0249861D02*
X0260840Y0249861D01*
X0261136Y0250660D02*
X0292286Y0250660D01*
X0293528Y0251458D02*
X0261136Y0251458D01*
X0283507Y0239481D02*
X0152199Y0239481D01*
X0153796Y0237884D02*
X0296907Y0237884D01*
X0298691Y0237884D02*
X0435421Y0237884D01*
X0435090Y0238682D02*
X0299892Y0238682D01*
X0300381Y0239481D02*
X0434760Y0239481D01*
X0434760Y0240279D02*
X0300586Y0240279D01*
X0300586Y0241078D02*
X0310076Y0241078D01*
X0308384Y0241876D02*
X0300259Y0241876D01*
X0299597Y0242675D02*
X0307586Y0242675D01*
X0306893Y0243473D02*
X0299183Y0243473D01*
X0299531Y0244272D02*
X0306562Y0244272D01*
X0306232Y0245070D02*
X0299636Y0245070D01*
X0299540Y0245869D02*
X0306111Y0245869D01*
X0306111Y0246667D02*
X0299205Y0246667D01*
X0298376Y0247466D02*
X0306111Y0247466D01*
X0306386Y0248264D02*
X0297136Y0248264D01*
X0297136Y0249063D02*
X0306717Y0249063D01*
X0307160Y0249861D02*
X0296918Y0249861D01*
X0296412Y0250660D02*
X0307958Y0250660D01*
X0309047Y0251458D02*
X0295169Y0251458D01*
X0286817Y0244272D02*
X0286066Y0244272D01*
X0287942Y0242675D02*
X0288025Y0242675D01*
X0313405Y0241078D02*
X0434760Y0241078D01*
X0434923Y0241876D02*
X0315096Y0241876D01*
X0315895Y0242675D02*
X0435254Y0242675D01*
X0435665Y0243473D02*
X0316587Y0243473D01*
X0316918Y0244272D02*
X0436464Y0244272D01*
X0437712Y0245070D02*
X0317249Y0245070D01*
X0316299Y0268560D02*
X0317826Y0269192D01*
X0318994Y0270360D01*
X0319626Y0271887D01*
X0319626Y0273539D01*
X0318994Y0275065D01*
X0317826Y0276233D01*
X0316299Y0276865D01*
X0314647Y0276865D01*
X0313121Y0276233D01*
X0311953Y0275065D01*
X0311320Y0273539D01*
X0311320Y0271887D01*
X0311953Y0270360D01*
X0313121Y0269192D01*
X0314647Y0268560D01*
X0316299Y0268560D01*
X0317424Y0269026D02*
X0323523Y0269026D01*
X0323121Y0269192D02*
X0324647Y0268560D01*
X0326299Y0268560D01*
X0327826Y0269192D01*
X0328994Y0270360D01*
X0329626Y0271887D01*
X0329626Y0273539D01*
X0328994Y0275065D01*
X0327826Y0276233D01*
X0326299Y0276865D01*
X0324647Y0276865D01*
X0323121Y0276233D01*
X0321953Y0275065D01*
X0321320Y0273539D01*
X0321320Y0271887D01*
X0321953Y0270360D01*
X0323121Y0269192D01*
X0322489Y0269824D02*
X0318458Y0269824D01*
X0319102Y0270623D02*
X0321844Y0270623D01*
X0321513Y0271421D02*
X0319433Y0271421D01*
X0319626Y0272220D02*
X0321320Y0272220D01*
X0321320Y0273018D02*
X0319626Y0273018D01*
X0319511Y0273817D02*
X0321436Y0273817D01*
X0321766Y0274615D02*
X0319180Y0274615D01*
X0318645Y0275414D02*
X0322301Y0275414D01*
X0323100Y0276212D02*
X0317847Y0276212D01*
X0316415Y0278608D02*
X0324532Y0278608D01*
X0322907Y0279406D02*
X0318040Y0279406D01*
X0318838Y0280205D02*
X0322108Y0280205D01*
X0321686Y0281003D02*
X0319260Y0281003D01*
X0319591Y0281802D02*
X0321356Y0281802D01*
X0321320Y0282600D02*
X0319626Y0282600D01*
X0319626Y0283399D02*
X0321320Y0283399D01*
X0321593Y0284197D02*
X0319353Y0284197D01*
X0319022Y0284996D02*
X0321924Y0284996D01*
X0322682Y0285794D02*
X0318264Y0285794D01*
X0316957Y0286593D02*
X0323989Y0286593D01*
X0326957Y0286593D02*
X0333989Y0286593D01*
X0332682Y0285794D02*
X0328264Y0285794D01*
X0329022Y0284996D02*
X0331924Y0284996D01*
X0331593Y0284197D02*
X0329353Y0284197D01*
X0329626Y0283399D02*
X0331320Y0283399D01*
X0331320Y0282600D02*
X0329626Y0282600D01*
X0329591Y0281802D02*
X0331356Y0281802D01*
X0331686Y0281003D02*
X0329260Y0281003D01*
X0328838Y0280205D02*
X0332108Y0280205D01*
X0332907Y0279406D02*
X0328040Y0279406D01*
X0326415Y0278608D02*
X0334532Y0278608D01*
X0334647Y0276865D02*
X0333121Y0276233D01*
X0331953Y0275065D01*
X0331320Y0273539D01*
X0331320Y0271887D01*
X0331953Y0270360D01*
X0333121Y0269192D01*
X0334647Y0268560D01*
X0336299Y0268560D01*
X0337826Y0269192D01*
X0338994Y0270360D01*
X0339626Y0271887D01*
X0339626Y0273539D01*
X0338994Y0275065D01*
X0337826Y0276233D01*
X0336299Y0276865D01*
X0334647Y0276865D01*
X0333100Y0276212D02*
X0327847Y0276212D01*
X0328645Y0275414D02*
X0332301Y0275414D01*
X0331766Y0274615D02*
X0329180Y0274615D01*
X0329511Y0273817D02*
X0331436Y0273817D01*
X0331320Y0273018D02*
X0329626Y0273018D01*
X0329626Y0272220D02*
X0331320Y0272220D01*
X0331513Y0271421D02*
X0329433Y0271421D01*
X0329102Y0270623D02*
X0331844Y0270623D01*
X0332489Y0269824D02*
X0328458Y0269824D01*
X0327424Y0269026D02*
X0333523Y0269026D01*
X0337424Y0269026D02*
X0343523Y0269026D01*
X0343121Y0269192D02*
X0344647Y0268560D01*
X0346299Y0268560D01*
X0347826Y0269192D01*
X0348994Y0270360D01*
X0349626Y0271887D01*
X0349626Y0273539D01*
X0348994Y0275065D01*
X0347826Y0276233D01*
X0346299Y0276865D01*
X0344647Y0276865D01*
X0343121Y0276233D01*
X0341953Y0275065D01*
X0341320Y0273539D01*
X0341320Y0271887D01*
X0341953Y0270360D01*
X0343121Y0269192D01*
X0342489Y0269824D02*
X0338458Y0269824D01*
X0339102Y0270623D02*
X0341844Y0270623D01*
X0341513Y0271421D02*
X0339433Y0271421D01*
X0339626Y0272220D02*
X0341320Y0272220D01*
X0341320Y0273018D02*
X0339626Y0273018D01*
X0339511Y0273817D02*
X0341436Y0273817D01*
X0341766Y0274615D02*
X0339180Y0274615D01*
X0338645Y0275414D02*
X0342301Y0275414D01*
X0343100Y0276212D02*
X0337847Y0276212D01*
X0336415Y0278608D02*
X0344844Y0278608D01*
X0345073Y0278608D02*
X0345873Y0278608D01*
X0345873Y0278571D02*
X0346446Y0278662D01*
X0347067Y0278864D01*
X0347650Y0279161D01*
X0348179Y0279545D01*
X0348641Y0280007D01*
X0349025Y0280536D01*
X0349322Y0281118D01*
X0349524Y0281740D01*
X0349614Y0282313D01*
X0345873Y0282313D01*
X0345873Y0278571D01*
X0346102Y0278608D02*
X0526837Y0278608D01*
X0526837Y0279406D02*
X0347987Y0279406D01*
X0348784Y0280205D02*
X0526837Y0280205D01*
X0526837Y0281003D02*
X0349263Y0281003D01*
X0349533Y0281802D02*
X0526837Y0281802D01*
X0526837Y0282600D02*
X0345873Y0282600D01*
X0345873Y0281802D02*
X0345073Y0281802D01*
X0345073Y0282600D02*
X0339626Y0282600D01*
X0339626Y0283399D02*
X0341377Y0283399D01*
X0341589Y0284197D02*
X0339353Y0284197D01*
X0339022Y0284996D02*
X0341999Y0284996D01*
X0342682Y0285794D02*
X0338264Y0285794D01*
X0336957Y0286593D02*
X0343977Y0286593D01*
X0346970Y0286593D02*
X0525834Y0286593D01*
X0526623Y0285794D02*
X0348264Y0285794D01*
X0348947Y0284996D02*
X0526831Y0284996D01*
X0526837Y0284197D02*
X0349357Y0284197D01*
X0349569Y0283399D02*
X0526837Y0283399D01*
X0526837Y0276212D02*
X0347847Y0276212D01*
X0348645Y0275414D02*
X0526837Y0275414D01*
X0526837Y0274615D02*
X0349180Y0274615D01*
X0349511Y0273817D02*
X0526837Y0273817D01*
X0526837Y0273018D02*
X0349626Y0273018D01*
X0349626Y0272220D02*
X0526837Y0272220D01*
X0526837Y0271421D02*
X0349433Y0271421D01*
X0349102Y0270623D02*
X0526837Y0270623D01*
X0526837Y0269824D02*
X0348458Y0269824D01*
X0347424Y0269026D02*
X0526837Y0269026D01*
X0526837Y0231496D02*
X0461176Y0231496D01*
X0461704Y0230697D02*
X0526837Y0230697D01*
X0526837Y0229899D02*
X0461936Y0229899D01*
X0461936Y0229100D02*
X0526837Y0229100D01*
X0526837Y0228301D02*
X0461636Y0228301D01*
X0461013Y0227503D02*
X0526837Y0227503D01*
X0517255Y0217921D02*
X0283943Y0217921D01*
X0284850Y0217122D02*
X0516348Y0217122D01*
X0526837Y0178794D02*
X0378383Y0178794D01*
X0378386Y0177995D02*
X0526837Y0177995D01*
X0526837Y0177197D02*
X0378187Y0177197D01*
X0377708Y0176398D02*
X0480651Y0176398D01*
X0483547Y0176398D02*
X0526837Y0176398D01*
X0526837Y0175600D02*
X0484422Y0175600D01*
X0484776Y0174801D02*
X0489311Y0174801D01*
X0488078Y0174003D02*
X0484886Y0174003D01*
X0484794Y0173204D02*
X0487576Y0173204D01*
X0487361Y0172406D02*
X0484463Y0172406D01*
X0483651Y0171607D02*
X0487361Y0171607D01*
X0490986Y0174801D02*
X0526837Y0174801D01*
X0526837Y0174003D02*
X0492219Y0174003D01*
X0492721Y0173204D02*
X0526837Y0173204D01*
X0526837Y0172406D02*
X0492936Y0172406D01*
X0492936Y0171607D02*
X0526837Y0171607D01*
X0526837Y0170809D02*
X0492618Y0170809D01*
X0491970Y0170010D02*
X0526837Y0170010D01*
X0526837Y0169212D02*
X0370635Y0169212D01*
X0371459Y0168413D02*
X0526837Y0168413D01*
X0526837Y0167615D02*
X0371791Y0167615D01*
X0371886Y0166816D02*
X0470442Y0166816D01*
X0470570Y0166944D02*
X0469786Y0166160D01*
X0469361Y0165136D01*
X0469361Y0164027D01*
X0469786Y0163002D01*
X0470570Y0162218D01*
X0471594Y0161794D01*
X0472703Y0161794D01*
X0473728Y0162218D01*
X0474512Y0163002D01*
X0474936Y0164027D01*
X0474936Y0165136D01*
X0474512Y0166160D01*
X0473728Y0166944D01*
X0472703Y0167368D01*
X0471594Y0167368D01*
X0470570Y0166944D01*
X0469727Y0166018D02*
X0371779Y0166018D01*
X0371429Y0165219D02*
X0469396Y0165219D01*
X0469361Y0164421D02*
X0370563Y0164421D01*
X0367634Y0164421D02*
X0336747Y0164421D01*
X0336936Y0165219D02*
X0366769Y0165219D01*
X0366419Y0166018D02*
X0336923Y0166018D01*
X0336592Y0166816D02*
X0366311Y0166816D01*
X0366406Y0167615D02*
X0335907Y0167615D01*
X0336282Y0163622D02*
X0461537Y0163622D01*
X0461470Y0163594D02*
X0460686Y0162810D01*
X0460261Y0161786D01*
X0460261Y0160677D01*
X0460686Y0159652D01*
X0461470Y0158868D01*
X0462494Y0158444D01*
X0463603Y0158444D01*
X0464628Y0158868D01*
X0465412Y0159652D01*
X0465836Y0160677D01*
X0465836Y0161786D01*
X0465412Y0162810D01*
X0464628Y0163594D01*
X0463603Y0164018D01*
X0462494Y0164018D01*
X0461470Y0163594D01*
X0460699Y0162824D02*
X0335137Y0162824D01*
X0333160Y0162824D02*
X0276998Y0162824D01*
X0277454Y0162025D02*
X0460361Y0162025D01*
X0460261Y0161227D02*
X0277636Y0161227D01*
X0277616Y0160428D02*
X0420176Y0160428D01*
X0418905Y0159630D02*
X0277285Y0159630D01*
X0276591Y0158831D02*
X0298430Y0158831D01*
X0301168Y0158831D02*
X0418387Y0158831D01*
X0418161Y0158032D02*
X0302089Y0158032D01*
X0302463Y0157234D02*
X0418161Y0157234D01*
X0418468Y0156435D02*
X0302586Y0156435D01*
X0302508Y0155637D02*
X0419101Y0155637D01*
X0423736Y0157234D02*
X0526837Y0157234D01*
X0526837Y0158032D02*
X0483400Y0158032D01*
X0483728Y0158168D02*
X0484512Y0158952D01*
X0484936Y0159977D01*
X0484936Y0161086D01*
X0484512Y0162110D01*
X0483728Y0162894D01*
X0482703Y0163318D01*
X0481594Y0163318D01*
X0480570Y0162894D01*
X0479786Y0162110D01*
X0479361Y0161086D01*
X0479361Y0159977D01*
X0479786Y0158952D01*
X0480570Y0158168D01*
X0481594Y0157744D01*
X0482703Y0157744D01*
X0483728Y0158168D01*
X0484391Y0158831D02*
X0526837Y0158831D01*
X0526837Y0159630D02*
X0484792Y0159630D01*
X0484936Y0160428D02*
X0492060Y0160428D01*
X0492120Y0160368D02*
X0493144Y0159944D01*
X0494253Y0159944D01*
X0495278Y0160368D01*
X0496062Y0161152D01*
X0496486Y0162177D01*
X0496486Y0163286D01*
X0496062Y0164310D01*
X0495278Y0165094D01*
X0494253Y0165518D01*
X0493144Y0165518D01*
X0492120Y0165094D01*
X0491336Y0164310D01*
X0490911Y0163286D01*
X0490911Y0162177D01*
X0491336Y0161152D01*
X0492120Y0160368D01*
X0491305Y0161227D02*
X0484878Y0161227D01*
X0484547Y0162025D02*
X0490974Y0162025D01*
X0490911Y0162824D02*
X0483798Y0162824D01*
X0480499Y0162824D02*
X0474333Y0162824D01*
X0474769Y0163622D02*
X0491051Y0163622D01*
X0491446Y0164421D02*
X0474936Y0164421D01*
X0474902Y0165219D02*
X0492422Y0165219D01*
X0494976Y0165219D02*
X0526837Y0165219D01*
X0526837Y0164421D02*
X0495951Y0164421D01*
X0496347Y0163622D02*
X0526837Y0163622D01*
X0526837Y0162824D02*
X0496486Y0162824D01*
X0496423Y0162025D02*
X0526837Y0162025D01*
X0526837Y0161227D02*
X0496093Y0161227D01*
X0495338Y0160428D02*
X0526837Y0160428D01*
X0526837Y0166018D02*
X0474571Y0166018D01*
X0473856Y0166816D02*
X0526837Y0166816D01*
X0526837Y0156435D02*
X0502086Y0156435D01*
X0502696Y0155637D02*
X0526837Y0155637D01*
X0526837Y0154838D02*
X0502986Y0154838D01*
X0502986Y0154040D02*
X0526837Y0154040D01*
X0526837Y0153241D02*
X0502744Y0153241D01*
X0502203Y0152443D02*
X0526837Y0152443D01*
X0526837Y0151644D02*
X0500876Y0151644D01*
X0499522Y0151644D02*
X0358086Y0151644D01*
X0358086Y0150846D02*
X0526837Y0150846D01*
X0526837Y0150047D02*
X0357846Y0150047D01*
X0357309Y0149249D02*
X0511526Y0149249D01*
X0512971Y0149249D02*
X0526837Y0149249D01*
X0526837Y0148450D02*
X0514272Y0148450D01*
X0514802Y0147652D02*
X0526837Y0147652D01*
X0526837Y0146853D02*
X0515036Y0146853D01*
X0515036Y0146055D02*
X0526837Y0146055D01*
X0526837Y0145256D02*
X0514738Y0145256D01*
X0514117Y0144458D02*
X0526837Y0144458D01*
X0526837Y0140465D02*
X0382125Y0140465D01*
X0380971Y0139667D02*
X0526837Y0139667D01*
X0526837Y0132480D02*
X0514597Y0132480D01*
X0514636Y0131682D02*
X0526837Y0131682D01*
X0526837Y0130883D02*
X0514473Y0130883D01*
X0514044Y0130085D02*
X0526837Y0130085D01*
X0498195Y0152443D02*
X0357793Y0152443D01*
X0357180Y0153241D02*
X0497654Y0153241D01*
X0480897Y0158032D02*
X0423736Y0158032D01*
X0423510Y0158831D02*
X0461559Y0158831D01*
X0460708Y0159630D02*
X0422992Y0159630D01*
X0421722Y0160428D02*
X0460364Y0160428D01*
X0464538Y0158831D02*
X0479907Y0158831D01*
X0479505Y0159630D02*
X0465389Y0159630D01*
X0465733Y0160428D02*
X0479361Y0160428D01*
X0479420Y0161227D02*
X0465836Y0161227D01*
X0465737Y0162025D02*
X0471036Y0162025D01*
X0469964Y0162824D02*
X0465398Y0162824D01*
X0464560Y0163622D02*
X0469529Y0163622D01*
X0473262Y0162025D02*
X0479751Y0162025D01*
X0380064Y0187577D02*
X0361187Y0187577D01*
X0361620Y0188376D02*
X0379346Y0188376D01*
X0378938Y0189174D02*
X0361786Y0189174D01*
X0361750Y0189973D02*
X0378745Y0189973D01*
X0378747Y0190771D02*
X0361419Y0190771D01*
X0360702Y0191570D02*
X0378941Y0191570D01*
X0331550Y0164421D02*
X0257192Y0164421D01*
X0256862Y0163622D02*
X0273820Y0163622D01*
X0275877Y0163622D02*
X0332016Y0163622D01*
X0306425Y0175600D02*
X0240473Y0175600D01*
X0241421Y0174801D02*
X0305477Y0174801D01*
X0300811Y0153241D02*
X0290851Y0153241D01*
X0291929Y0152443D02*
X0300811Y0152443D01*
X0301053Y0151644D02*
X0292367Y0151644D01*
X0292536Y0150846D02*
X0301592Y0150846D01*
X0342713Y0143659D02*
X0377553Y0143659D01*
X0377222Y0142861D02*
X0343248Y0142861D01*
X0343486Y0142062D02*
X0377211Y0142062D01*
X0377403Y0141264D02*
X0343486Y0141264D01*
X0343192Y0140465D02*
X0377873Y0140465D01*
X0379027Y0139667D02*
X0342576Y0139667D01*
X0336111Y0102137D02*
X0321485Y0102137D01*
X0322095Y0101338D02*
X0336111Y0101338D01*
X0336396Y0100540D02*
X0322386Y0100540D01*
X0322386Y0099741D02*
X0336997Y0099741D01*
X0360275Y0077383D02*
X0274389Y0077383D01*
X0274909Y0076584D02*
X0359944Y0076584D01*
X0359861Y0075786D02*
X0275136Y0075786D01*
X0275136Y0074987D02*
X0359981Y0074987D01*
X0360349Y0074189D02*
X0274831Y0074189D01*
X0274200Y0073390D02*
X0361258Y0073390D01*
X0369433Y0066204D02*
X0324968Y0066204D01*
X0325062Y0066110D02*
X0324278Y0066894D01*
X0323253Y0067318D01*
X0322144Y0067318D01*
X0321120Y0066894D01*
X0320336Y0066110D01*
X0319911Y0065086D01*
X0319911Y0063977D01*
X0320336Y0062952D01*
X0321120Y0062168D01*
X0322144Y0061744D01*
X0323253Y0061744D01*
X0324278Y0062168D01*
X0325062Y0062952D01*
X0325486Y0063977D01*
X0325486Y0065086D01*
X0325062Y0066110D01*
X0325354Y0065405D02*
X0369102Y0065405D01*
X0369011Y0064607D02*
X0345882Y0064607D01*
X0345853Y0064618D02*
X0344744Y0064618D01*
X0343720Y0064194D01*
X0342936Y0063410D01*
X0342511Y0062386D01*
X0342511Y0061277D01*
X0342936Y0060252D01*
X0343720Y0059468D01*
X0344744Y0059044D01*
X0345853Y0059044D01*
X0346878Y0059468D01*
X0347662Y0060252D01*
X0348086Y0061277D01*
X0348086Y0062386D01*
X0347662Y0063410D01*
X0346878Y0064194D01*
X0345853Y0064618D01*
X0344716Y0064607D02*
X0325486Y0064607D01*
X0325416Y0063808D02*
X0343334Y0063808D01*
X0342770Y0063010D02*
X0325086Y0063010D01*
X0324321Y0062211D02*
X0342511Y0062211D01*
X0342511Y0061413D02*
X0310536Y0061413D01*
X0310536Y0061127D02*
X0310536Y0062236D01*
X0310112Y0063260D01*
X0309328Y0064044D01*
X0308303Y0064468D01*
X0307194Y0064468D01*
X0306170Y0064044D01*
X0305386Y0063260D01*
X0304961Y0062236D01*
X0304961Y0061127D01*
X0305386Y0060102D01*
X0306170Y0059318D01*
X0307194Y0058894D01*
X0308303Y0058894D01*
X0309328Y0059318D01*
X0310112Y0060102D01*
X0310536Y0061127D01*
X0310324Y0060614D02*
X0342786Y0060614D01*
X0343372Y0059816D02*
X0309825Y0059816D01*
X0308601Y0059017D02*
X0419656Y0059017D01*
X0419660Y0058990D02*
X0419877Y0058324D01*
X0420195Y0057700D01*
X0420606Y0057133D01*
X0421101Y0056638D01*
X0421668Y0056227D01*
X0422291Y0055909D01*
X0422957Y0055693D01*
X0423599Y0055591D01*
X0423599Y0059631D01*
X0424399Y0059631D01*
X0424399Y0060431D01*
X0428439Y0060431D01*
X0428337Y0061073D01*
X0428121Y0061739D01*
X0427803Y0062362D01*
X0427392Y0062929D01*
X0426897Y0063424D01*
X0426330Y0063835D01*
X0425706Y0064153D01*
X0425040Y0064370D01*
X0424399Y0064471D01*
X0424399Y0060431D01*
X0423599Y0060431D01*
X0423599Y0064471D01*
X0422957Y0064370D01*
X0422291Y0064153D01*
X0421668Y0063835D01*
X0421101Y0063424D01*
X0420606Y0062929D01*
X0420195Y0062362D01*
X0419877Y0061739D01*
X0419660Y0061073D01*
X0419559Y0060431D01*
X0423599Y0060431D01*
X0423599Y0059631D01*
X0419559Y0059631D01*
X0419660Y0058990D01*
X0419930Y0058219D02*
X0382919Y0058219D01*
X0382978Y0058194D02*
X0381953Y0058618D01*
X0380844Y0058618D01*
X0379820Y0058194D01*
X0379036Y0057410D01*
X0378611Y0056386D01*
X0378611Y0055277D01*
X0379036Y0054252D01*
X0379820Y0053468D01*
X0380844Y0053044D01*
X0381953Y0053044D01*
X0382978Y0053468D01*
X0383762Y0054252D01*
X0384186Y0055277D01*
X0384186Y0056386D01*
X0383762Y0057410D01*
X0382978Y0058194D01*
X0383752Y0057420D02*
X0420398Y0057420D01*
X0421124Y0056622D02*
X0384088Y0056622D01*
X0384186Y0055823D02*
X0422556Y0055823D01*
X0423599Y0055823D02*
X0424399Y0055823D01*
X0424399Y0055591D02*
X0425040Y0055693D01*
X0425706Y0055909D01*
X0426330Y0056227D01*
X0426897Y0056638D01*
X0427392Y0057133D01*
X0427803Y0057700D01*
X0428121Y0058324D01*
X0428337Y0058990D01*
X0428439Y0059631D01*
X0424399Y0059631D01*
X0424399Y0055591D01*
X0424399Y0056622D02*
X0423599Y0056622D01*
X0423599Y0057420D02*
X0424399Y0057420D01*
X0424399Y0058219D02*
X0423599Y0058219D01*
X0423599Y0059017D02*
X0424399Y0059017D01*
X0424399Y0059816D02*
X0498499Y0059816D01*
X0498411Y0060027D02*
X0498824Y0059031D01*
X0498411Y0058036D01*
X0498411Y0056927D01*
X0498836Y0055902D01*
X0499620Y0055118D01*
X0500644Y0054694D01*
X0501753Y0054694D01*
X0502778Y0055118D01*
X0503562Y0055902D01*
X0503986Y0056927D01*
X0503986Y0058036D01*
X0503574Y0059031D01*
X0503986Y0060027D01*
X0503986Y0061136D01*
X0503562Y0062160D01*
X0502778Y0062944D01*
X0501753Y0063368D01*
X0500644Y0063368D01*
X0499620Y0062944D01*
X0498836Y0062160D01*
X0498411Y0061136D01*
X0498411Y0060027D01*
X0498411Y0060614D02*
X0428410Y0060614D01*
X0428227Y0061413D02*
X0498526Y0061413D01*
X0498887Y0062211D02*
X0427880Y0062211D01*
X0427311Y0063010D02*
X0499778Y0063010D01*
X0502620Y0063010D02*
X0526837Y0063010D01*
X0526837Y0063808D02*
X0426368Y0063808D01*
X0424399Y0063808D02*
X0423599Y0063808D01*
X0423599Y0063010D02*
X0424399Y0063010D01*
X0424399Y0062211D02*
X0423599Y0062211D01*
X0423599Y0061413D02*
X0424399Y0061413D01*
X0424399Y0060614D02*
X0423599Y0060614D01*
X0423599Y0059816D02*
X0347225Y0059816D01*
X0347812Y0060614D02*
X0419588Y0060614D01*
X0419771Y0061413D02*
X0348086Y0061413D01*
X0348086Y0062211D02*
X0370357Y0062211D01*
X0369478Y0063010D02*
X0347828Y0063010D01*
X0347264Y0063808D02*
X0369123Y0063808D01*
X0370239Y0067002D02*
X0324017Y0067002D01*
X0321381Y0067002D02*
X0201999Y0067002D01*
X0201999Y0066204D02*
X0320429Y0066204D01*
X0320044Y0065405D02*
X0201999Y0065405D01*
X0201999Y0064607D02*
X0218495Y0064607D01*
X0218644Y0064668D02*
X0217620Y0064244D01*
X0216836Y0063460D01*
X0216411Y0062436D01*
X0216411Y0061327D01*
X0216836Y0060302D01*
X0217620Y0059518D01*
X0218644Y0059094D01*
X0219753Y0059094D01*
X0220778Y0059518D01*
X0221562Y0060302D01*
X0221986Y0061327D01*
X0221986Y0062436D01*
X0221562Y0063460D01*
X0220778Y0064244D01*
X0219753Y0064668D01*
X0218644Y0064668D01*
X0219903Y0064607D02*
X0319911Y0064607D01*
X0319981Y0063808D02*
X0309564Y0063808D01*
X0310216Y0063010D02*
X0320312Y0063010D01*
X0321077Y0062211D02*
X0310536Y0062211D01*
X0306896Y0059017D02*
X0287963Y0059017D01*
X0288328Y0059168D02*
X0287303Y0058744D01*
X0286194Y0058744D01*
X0285170Y0059168D01*
X0284386Y0059952D01*
X0283961Y0060977D01*
X0283961Y0062086D01*
X0284386Y0063110D01*
X0285170Y0063894D01*
X0286194Y0064318D01*
X0287303Y0064318D01*
X0288328Y0063894D01*
X0289112Y0063110D01*
X0289536Y0062086D01*
X0289536Y0060977D01*
X0289112Y0059952D01*
X0288328Y0059168D01*
X0288975Y0059816D02*
X0305672Y0059816D01*
X0305174Y0060614D02*
X0289386Y0060614D01*
X0289536Y0061413D02*
X0304961Y0061413D01*
X0304961Y0062211D02*
X0289484Y0062211D01*
X0289153Y0063010D02*
X0305282Y0063010D01*
X0305934Y0063808D02*
X0288414Y0063808D01*
X0285084Y0063808D02*
X0221214Y0063808D01*
X0221748Y0063010D02*
X0284344Y0063010D01*
X0284013Y0062211D02*
X0221986Y0062211D01*
X0221986Y0061413D02*
X0283961Y0061413D01*
X0284112Y0060614D02*
X0221691Y0060614D01*
X0221075Y0059816D02*
X0284522Y0059816D01*
X0285534Y0059017D02*
X0201999Y0059017D01*
X0201999Y0058219D02*
X0379879Y0058219D01*
X0379046Y0057420D02*
X0201999Y0057420D01*
X0201999Y0056622D02*
X0378709Y0056622D01*
X0378611Y0055823D02*
X0367599Y0055823D01*
X0367328Y0056094D02*
X0368112Y0055310D01*
X0368536Y0054286D01*
X0368536Y0053177D01*
X0368112Y0052152D01*
X0367328Y0051368D01*
X0366303Y0050944D01*
X0365194Y0050944D01*
X0364170Y0051368D01*
X0363386Y0052152D01*
X0362961Y0053177D01*
X0362961Y0054286D01*
X0363386Y0055310D01*
X0364170Y0056094D01*
X0365194Y0056518D01*
X0366303Y0056518D01*
X0367328Y0056094D01*
X0368230Y0055025D02*
X0378716Y0055025D01*
X0379062Y0054226D02*
X0368536Y0054226D01*
X0368536Y0053428D02*
X0379918Y0053428D01*
X0382880Y0053428D02*
X0430561Y0053428D01*
X0430561Y0053886D02*
X0430561Y0052777D01*
X0430986Y0051752D01*
X0431770Y0050968D01*
X0432794Y0050544D01*
X0433903Y0050544D01*
X0434928Y0050968D01*
X0435712Y0051752D01*
X0436136Y0052777D01*
X0436136Y0053886D01*
X0435712Y0054910D01*
X0434928Y0055694D01*
X0433903Y0056118D01*
X0432794Y0056118D01*
X0431770Y0055694D01*
X0430986Y0054910D01*
X0430561Y0053886D01*
X0430702Y0054226D02*
X0383736Y0054226D01*
X0384082Y0055025D02*
X0431100Y0055025D01*
X0432081Y0055823D02*
X0425442Y0055823D01*
X0426873Y0056622D02*
X0441397Y0056622D01*
X0441670Y0056894D02*
X0440886Y0056110D01*
X0440461Y0055086D01*
X0440461Y0053977D01*
X0440886Y0052952D01*
X0441670Y0052168D01*
X0442694Y0051744D01*
X0443803Y0051744D01*
X0444828Y0052168D01*
X0445612Y0052952D01*
X0446036Y0053977D01*
X0446036Y0055086D01*
X0445612Y0056110D01*
X0444828Y0056894D01*
X0443803Y0057318D01*
X0442694Y0057318D01*
X0441670Y0056894D01*
X0440767Y0055823D02*
X0434617Y0055823D01*
X0435597Y0055025D02*
X0440461Y0055025D01*
X0440461Y0054226D02*
X0435995Y0054226D01*
X0436136Y0053428D02*
X0440689Y0053428D01*
X0441209Y0052629D02*
X0436075Y0052629D01*
X0436220Y0051830D02*
X0435744Y0051830D01*
X0435770Y0051644D02*
X0434986Y0050860D01*
X0434561Y0049836D01*
X0434561Y0048727D01*
X0434986Y0047702D01*
X0435770Y0046918D01*
X0436794Y0046494D01*
X0437903Y0046494D01*
X0438928Y0046918D01*
X0439712Y0047702D01*
X0440136Y0048727D01*
X0440136Y0049836D01*
X0439712Y0050860D01*
X0438928Y0051644D01*
X0437903Y0052068D01*
X0436794Y0052068D01*
X0435770Y0051644D01*
X0435158Y0051032D02*
X0434992Y0051032D01*
X0434726Y0050233D02*
X0201999Y0050233D01*
X0201999Y0049435D02*
X0434561Y0049435D01*
X0434599Y0048636D02*
X0201999Y0048636D01*
X0201999Y0047838D02*
X0306638Y0047838D01*
X0306170Y0047644D02*
X0305386Y0046860D01*
X0304961Y0045836D01*
X0304961Y0044727D01*
X0305386Y0043702D01*
X0306170Y0042918D01*
X0307194Y0042494D01*
X0308303Y0042494D01*
X0309328Y0042918D01*
X0310112Y0043702D01*
X0310536Y0044727D01*
X0310536Y0045836D01*
X0310112Y0046860D01*
X0309328Y0047644D01*
X0308303Y0048068D01*
X0307194Y0048068D01*
X0306170Y0047644D01*
X0305565Y0047039D02*
X0201999Y0047039D01*
X0201999Y0046241D02*
X0305129Y0046241D01*
X0304961Y0045442D02*
X0201999Y0045442D01*
X0201999Y0044644D02*
X0304996Y0044644D01*
X0305326Y0043845D02*
X0201999Y0043845D01*
X0201999Y0043047D02*
X0306041Y0043047D01*
X0306299Y0042613D02*
X0304647Y0042613D01*
X0303121Y0041981D01*
X0301953Y0040813D01*
X0301320Y0039287D01*
X0301320Y0037635D01*
X0301953Y0036108D01*
X0303121Y0034940D01*
X0304647Y0034308D01*
X0306299Y0034308D01*
X0307826Y0034940D01*
X0308994Y0036108D01*
X0309626Y0037635D01*
X0309626Y0039287D01*
X0308994Y0040813D01*
X0307826Y0041981D01*
X0306299Y0042613D01*
X0307180Y0042248D02*
X0313766Y0042248D01*
X0313121Y0041981D02*
X0311953Y0040813D01*
X0311320Y0039287D01*
X0311320Y0037635D01*
X0311953Y0036108D01*
X0313121Y0034940D01*
X0314647Y0034308D01*
X0316299Y0034308D01*
X0317826Y0034940D01*
X0318994Y0036108D01*
X0319626Y0037635D01*
X0319626Y0039287D01*
X0318994Y0040813D01*
X0317826Y0041981D01*
X0316299Y0042613D01*
X0314647Y0042613D01*
X0313121Y0041981D01*
X0312590Y0041450D02*
X0308357Y0041450D01*
X0309061Y0040651D02*
X0311886Y0040651D01*
X0311555Y0039853D02*
X0309391Y0039853D01*
X0309626Y0039054D02*
X0311320Y0039054D01*
X0311320Y0038256D02*
X0309626Y0038256D01*
X0309553Y0037457D02*
X0311394Y0037457D01*
X0311725Y0036659D02*
X0309222Y0036659D01*
X0308746Y0035860D02*
X0312201Y0035860D01*
X0312999Y0035062D02*
X0307947Y0035062D01*
X0302999Y0035062D02*
X0297860Y0035062D01*
X0297650Y0034909D02*
X0298179Y0035293D01*
X0298641Y0035755D01*
X0299025Y0036284D01*
X0299322Y0036867D01*
X0299524Y0037488D01*
X0299614Y0038061D01*
X0295873Y0038061D01*
X0295873Y0038861D01*
X0295073Y0038861D01*
X0295073Y0042602D01*
X0294501Y0042511D01*
X0293879Y0042309D01*
X0293297Y0042012D01*
X0292768Y0041628D01*
X0292306Y0041166D01*
X0291921Y0040637D01*
X0291625Y0040055D01*
X0291423Y0039433D01*
X0291332Y0038861D01*
X0295073Y0038861D01*
X0295073Y0038061D01*
X0291332Y0038061D01*
X0291423Y0037488D01*
X0291625Y0036867D01*
X0291921Y0036284D01*
X0292306Y0035755D01*
X0292768Y0035293D01*
X0293297Y0034909D01*
X0293879Y0034612D01*
X0294501Y0034410D01*
X0295073Y0034319D01*
X0295073Y0038061D01*
X0295873Y0038061D01*
X0295873Y0034319D01*
X0296446Y0034410D01*
X0297067Y0034612D01*
X0297650Y0034909D01*
X0298717Y0035860D02*
X0302201Y0035860D01*
X0301725Y0036659D02*
X0299216Y0036659D01*
X0299514Y0037457D02*
X0301394Y0037457D01*
X0301320Y0038256D02*
X0295873Y0038256D01*
X0295873Y0038861D02*
X0299614Y0038861D01*
X0299524Y0039433D01*
X0299322Y0040055D01*
X0299025Y0040637D01*
X0298641Y0041166D01*
X0298179Y0041628D01*
X0297650Y0042012D01*
X0297067Y0042309D01*
X0296446Y0042511D01*
X0295873Y0042602D01*
X0295873Y0038861D01*
X0295873Y0039054D02*
X0295073Y0039054D01*
X0295073Y0038256D02*
X0289626Y0038256D01*
X0289626Y0037635D02*
X0289626Y0039287D01*
X0288994Y0040813D01*
X0287826Y0041981D01*
X0286299Y0042613D01*
X0284647Y0042613D01*
X0283121Y0041981D01*
X0281953Y0040813D01*
X0281320Y0039287D01*
X0281320Y0037635D01*
X0281953Y0036108D01*
X0283121Y0034940D01*
X0284647Y0034308D01*
X0286299Y0034308D01*
X0287826Y0034940D01*
X0288994Y0036108D01*
X0289626Y0037635D01*
X0289553Y0037457D02*
X0291433Y0037457D01*
X0291731Y0036659D02*
X0289222Y0036659D01*
X0288746Y0035860D02*
X0292229Y0035860D01*
X0293086Y0035062D02*
X0287947Y0035062D01*
X0289626Y0039054D02*
X0291363Y0039054D01*
X0291559Y0039853D02*
X0289391Y0039853D01*
X0289061Y0040651D02*
X0291932Y0040651D01*
X0292590Y0041450D02*
X0288357Y0041450D01*
X0287180Y0042248D02*
X0293760Y0042248D01*
X0295073Y0042248D02*
X0295873Y0042248D01*
X0295873Y0041450D02*
X0295073Y0041450D01*
X0295073Y0040651D02*
X0295873Y0040651D01*
X0295873Y0039853D02*
X0295073Y0039853D01*
X0295073Y0037457D02*
X0295873Y0037457D01*
X0295873Y0036659D02*
X0295073Y0036659D01*
X0295073Y0035860D02*
X0295873Y0035860D01*
X0295873Y0035062D02*
X0295073Y0035062D01*
X0295873Y0032602D02*
X0295873Y0028861D01*
X0299614Y0028861D01*
X0299524Y0029433D01*
X0299322Y0030055D01*
X0299025Y0030637D01*
X0298641Y0031166D01*
X0298179Y0031628D01*
X0297650Y0032012D01*
X0297067Y0032309D01*
X0296446Y0032511D01*
X0295873Y0032602D01*
X0295873Y0031868D02*
X0295073Y0031868D01*
X0295073Y0031069D02*
X0295873Y0031069D01*
X0295873Y0030271D02*
X0295073Y0030271D01*
X0295073Y0029472D02*
X0295873Y0029472D01*
X0295873Y0028674D02*
X0301320Y0028674D01*
X0301320Y0027875D02*
X0299585Y0027875D01*
X0299390Y0027077D02*
X0301552Y0027077D01*
X0301882Y0026278D02*
X0299021Y0026278D01*
X0298365Y0025480D02*
X0302581Y0025480D01*
X0303746Y0024681D02*
X0297203Y0024681D01*
X0293744Y0024681D02*
X0287200Y0024681D01*
X0288365Y0025480D02*
X0292581Y0025480D01*
X0291926Y0026278D02*
X0289064Y0026278D01*
X0289395Y0027077D02*
X0291556Y0027077D01*
X0291361Y0027875D02*
X0289626Y0027875D01*
X0289626Y0028674D02*
X0295073Y0028674D01*
X0291735Y0030271D02*
X0289218Y0030271D01*
X0289549Y0029472D02*
X0291435Y0029472D01*
X0292235Y0031069D02*
X0288738Y0031069D01*
X0287939Y0031868D02*
X0293098Y0031868D01*
X0297849Y0031868D02*
X0303007Y0031868D01*
X0302209Y0031069D02*
X0298711Y0031069D01*
X0299212Y0030271D02*
X0301728Y0030271D01*
X0301397Y0029472D02*
X0299511Y0029472D01*
X0307939Y0031868D02*
X0313007Y0031868D01*
X0312209Y0031069D02*
X0308738Y0031069D01*
X0309218Y0030271D02*
X0311728Y0030271D01*
X0311397Y0029472D02*
X0309549Y0029472D01*
X0309626Y0028674D02*
X0311320Y0028674D01*
X0311320Y0027875D02*
X0309626Y0027875D01*
X0309395Y0027077D02*
X0311552Y0027077D01*
X0311882Y0026278D02*
X0309064Y0026278D01*
X0308365Y0025480D02*
X0312581Y0025480D01*
X0313746Y0024681D02*
X0307200Y0024681D01*
X0317200Y0024681D02*
X0323746Y0024681D01*
X0322581Y0025480D02*
X0318365Y0025480D01*
X0319064Y0026278D02*
X0321882Y0026278D01*
X0321552Y0027077D02*
X0319395Y0027077D01*
X0319626Y0027875D02*
X0321320Y0027875D01*
X0321320Y0028674D02*
X0319626Y0028674D01*
X0319549Y0029472D02*
X0321397Y0029472D01*
X0321728Y0030271D02*
X0319218Y0030271D01*
X0318738Y0031069D02*
X0322209Y0031069D01*
X0323007Y0031868D02*
X0317939Y0031868D01*
X0321953Y0036108D02*
X0323121Y0034940D01*
X0324647Y0034308D01*
X0326299Y0034308D01*
X0327826Y0034940D01*
X0328994Y0036108D01*
X0329626Y0037635D01*
X0329626Y0039287D01*
X0328994Y0040813D01*
X0327826Y0041981D01*
X0326299Y0042613D01*
X0324647Y0042613D01*
X0323121Y0041981D01*
X0321953Y0040813D01*
X0321320Y0039287D01*
X0321320Y0037635D01*
X0321953Y0036108D01*
X0322201Y0035860D02*
X0318746Y0035860D01*
X0319222Y0036659D02*
X0321725Y0036659D01*
X0321394Y0037457D02*
X0319553Y0037457D01*
X0319626Y0038256D02*
X0321320Y0038256D01*
X0321320Y0039054D02*
X0319626Y0039054D01*
X0319391Y0039853D02*
X0321555Y0039853D01*
X0321886Y0040651D02*
X0319061Y0040651D01*
X0318357Y0041450D02*
X0322590Y0041450D01*
X0323766Y0042248D02*
X0317180Y0042248D01*
X0327180Y0042248D02*
X0333766Y0042248D01*
X0333121Y0041981D02*
X0334647Y0042613D01*
X0336299Y0042613D01*
X0337826Y0041981D01*
X0338994Y0040813D01*
X0339626Y0039287D01*
X0339626Y0037635D01*
X0338994Y0036108D01*
X0337826Y0034940D01*
X0336299Y0034308D01*
X0334647Y0034308D01*
X0333121Y0034940D01*
X0331953Y0036108D01*
X0331320Y0037635D01*
X0331320Y0039287D01*
X0331953Y0040813D01*
X0333121Y0041981D01*
X0332590Y0041450D02*
X0328357Y0041450D01*
X0329061Y0040651D02*
X0331886Y0040651D01*
X0331555Y0039853D02*
X0329391Y0039853D01*
X0329626Y0039054D02*
X0331320Y0039054D01*
X0331320Y0038256D02*
X0329626Y0038256D01*
X0329553Y0037457D02*
X0331394Y0037457D01*
X0331725Y0036659D02*
X0329222Y0036659D01*
X0328746Y0035860D02*
X0332201Y0035860D01*
X0332999Y0035062D02*
X0327947Y0035062D01*
X0322999Y0035062D02*
X0317947Y0035062D01*
X0327939Y0031868D02*
X0333007Y0031868D01*
X0332209Y0031069D02*
X0328738Y0031069D01*
X0329218Y0030271D02*
X0331728Y0030271D01*
X0331397Y0029472D02*
X0329549Y0029472D01*
X0329626Y0028674D02*
X0331320Y0028674D01*
X0331320Y0027875D02*
X0329626Y0027875D01*
X0329395Y0027077D02*
X0331552Y0027077D01*
X0331882Y0026278D02*
X0329064Y0026278D01*
X0328365Y0025480D02*
X0332581Y0025480D01*
X0333746Y0024681D02*
X0327200Y0024681D01*
X0337200Y0024681D02*
X0343744Y0024681D01*
X0342581Y0025480D02*
X0338365Y0025480D01*
X0339064Y0026278D02*
X0341926Y0026278D01*
X0341556Y0027077D02*
X0339395Y0027077D01*
X0339626Y0027875D02*
X0341361Y0027875D01*
X0341435Y0029472D02*
X0339549Y0029472D01*
X0339626Y0028674D02*
X0345073Y0028674D01*
X0345073Y0029472D02*
X0345873Y0029472D01*
X0345873Y0028861D02*
X0345873Y0032602D01*
X0346446Y0032511D01*
X0347067Y0032309D01*
X0347650Y0032012D01*
X0348179Y0031628D01*
X0348641Y0031166D01*
X0349025Y0030637D01*
X0349322Y0030055D01*
X0349524Y0029433D01*
X0349614Y0028861D01*
X0345873Y0028861D01*
X0345873Y0028674D02*
X0526837Y0028674D01*
X0526837Y0029472D02*
X0349511Y0029472D01*
X0349212Y0030271D02*
X0526837Y0030271D01*
X0526837Y0031069D02*
X0348711Y0031069D01*
X0347849Y0031868D02*
X0526837Y0031868D01*
X0526837Y0032666D02*
X0196283Y0032666D01*
X0196280Y0031868D02*
X0213098Y0031868D01*
X0212235Y0031069D02*
X0196278Y0031069D01*
X0196276Y0030271D02*
X0211735Y0030271D01*
X0211435Y0029472D02*
X0196273Y0029472D01*
X0196271Y0028674D02*
X0215073Y0028674D01*
X0215073Y0029472D02*
X0215873Y0029472D01*
X0215873Y0028861D02*
X0215873Y0032602D01*
X0216446Y0032511D01*
X0217067Y0032309D01*
X0217650Y0032012D01*
X0218179Y0031628D01*
X0218641Y0031166D01*
X0219025Y0030637D01*
X0219322Y0030055D01*
X0219524Y0029433D01*
X0219614Y0028861D01*
X0215873Y0028861D01*
X0215873Y0028674D02*
X0221320Y0028674D01*
X0221320Y0027875D02*
X0219585Y0027875D01*
X0219390Y0027077D02*
X0221552Y0027077D01*
X0221882Y0026278D02*
X0219021Y0026278D01*
X0218365Y0025480D02*
X0222581Y0025480D01*
X0223746Y0024681D02*
X0217203Y0024681D01*
X0213744Y0024681D02*
X0196260Y0024681D01*
X0196262Y0025480D02*
X0212581Y0025480D01*
X0211926Y0026278D02*
X0196264Y0026278D01*
X0196266Y0027077D02*
X0211556Y0027077D01*
X0211361Y0027875D02*
X0196269Y0027875D01*
X0196285Y0033465D02*
X0526837Y0033465D01*
X0526837Y0034263D02*
X0196287Y0034263D01*
X0196289Y0035062D02*
X0213086Y0035062D01*
X0213297Y0034909D02*
X0212768Y0035293D01*
X0212306Y0035755D01*
X0211921Y0036284D01*
X0211625Y0036867D01*
X0211423Y0037488D01*
X0211332Y0038061D01*
X0215073Y0038061D01*
X0215073Y0038861D01*
X0215073Y0042602D01*
X0214501Y0042511D01*
X0213879Y0042309D01*
X0213297Y0042012D01*
X0212768Y0041628D01*
X0212306Y0041166D01*
X0211921Y0040637D01*
X0211625Y0040055D01*
X0211423Y0039433D01*
X0211332Y0038861D01*
X0215073Y0038861D01*
X0215873Y0038861D01*
X0215873Y0042602D01*
X0216446Y0042511D01*
X0217067Y0042309D01*
X0217650Y0042012D01*
X0218179Y0041628D01*
X0218641Y0041166D01*
X0219025Y0040637D01*
X0219322Y0040055D01*
X0219524Y0039433D01*
X0219614Y0038861D01*
X0215873Y0038861D01*
X0215873Y0038061D01*
X0219614Y0038061D01*
X0219524Y0037488D01*
X0219322Y0036867D01*
X0219025Y0036284D01*
X0218641Y0035755D01*
X0218179Y0035293D01*
X0217650Y0034909D01*
X0217067Y0034612D01*
X0216446Y0034410D01*
X0215873Y0034319D01*
X0215873Y0038061D01*
X0215073Y0038061D01*
X0215073Y0034319D01*
X0214501Y0034410D01*
X0213879Y0034612D01*
X0213297Y0034909D01*
X0212229Y0035860D02*
X0196292Y0035860D01*
X0200468Y0036659D02*
X0211731Y0036659D01*
X0211433Y0037457D02*
X0201266Y0037457D01*
X0201705Y0038256D02*
X0215073Y0038256D01*
X0215073Y0039054D02*
X0215873Y0039054D01*
X0215873Y0038256D02*
X0221320Y0038256D01*
X0221320Y0037635D02*
X0221320Y0039287D01*
X0221953Y0040813D01*
X0223121Y0041981D01*
X0224647Y0042613D01*
X0226299Y0042613D01*
X0227826Y0041981D01*
X0228994Y0040813D01*
X0229626Y0039287D01*
X0229626Y0037635D01*
X0228994Y0036108D01*
X0227826Y0034940D01*
X0226299Y0034308D01*
X0224647Y0034308D01*
X0223121Y0034940D01*
X0221953Y0036108D01*
X0221320Y0037635D01*
X0221394Y0037457D02*
X0219514Y0037457D01*
X0219216Y0036659D02*
X0221725Y0036659D01*
X0222201Y0035860D02*
X0218717Y0035860D01*
X0217860Y0035062D02*
X0222999Y0035062D01*
X0221320Y0039054D02*
X0219584Y0039054D01*
X0219387Y0039853D02*
X0221555Y0039853D01*
X0221886Y0040651D02*
X0219015Y0040651D01*
X0218357Y0041450D02*
X0222590Y0041450D01*
X0223766Y0042248D02*
X0217187Y0042248D01*
X0215873Y0042248D02*
X0215073Y0042248D01*
X0215073Y0041450D02*
X0215873Y0041450D01*
X0215873Y0040651D02*
X0215073Y0040651D01*
X0215073Y0039853D02*
X0215873Y0039853D01*
X0215873Y0037457D02*
X0215073Y0037457D01*
X0215073Y0036659D02*
X0215873Y0036659D01*
X0215873Y0035860D02*
X0215073Y0035860D01*
X0215073Y0035062D02*
X0215873Y0035062D01*
X0211363Y0039054D02*
X0201999Y0039054D01*
X0201999Y0039853D02*
X0211559Y0039853D01*
X0211932Y0040651D02*
X0201999Y0040651D01*
X0201999Y0041450D02*
X0212590Y0041450D01*
X0213760Y0042248D02*
X0201999Y0042248D01*
X0201999Y0051032D02*
X0364981Y0051032D01*
X0363707Y0051830D02*
X0201999Y0051830D01*
X0201999Y0052629D02*
X0363188Y0052629D01*
X0362961Y0053428D02*
X0201999Y0053428D01*
X0201999Y0054226D02*
X0362961Y0054226D01*
X0363268Y0055025D02*
X0201999Y0055025D01*
X0201999Y0055823D02*
X0363899Y0055823D01*
X0368309Y0052629D02*
X0430623Y0052629D01*
X0430953Y0051830D02*
X0367790Y0051830D01*
X0366516Y0051032D02*
X0431706Y0051032D01*
X0434930Y0047838D02*
X0372910Y0047838D01*
X0373378Y0047644D02*
X0372353Y0048068D01*
X0371244Y0048068D01*
X0370220Y0047644D01*
X0369436Y0046860D01*
X0369011Y0045836D01*
X0369011Y0044727D01*
X0369436Y0043702D01*
X0370220Y0042918D01*
X0371244Y0042494D01*
X0372353Y0042494D01*
X0373378Y0042918D01*
X0374162Y0043702D01*
X0374586Y0044727D01*
X0374586Y0045836D01*
X0374162Y0046860D01*
X0373378Y0047644D01*
X0373982Y0047039D02*
X0435649Y0047039D01*
X0439049Y0047039D02*
X0526837Y0047039D01*
X0526837Y0046241D02*
X0374418Y0046241D01*
X0374586Y0045442D02*
X0526837Y0045442D01*
X0526837Y0044644D02*
X0374552Y0044644D01*
X0374221Y0043845D02*
X0526837Y0043845D01*
X0526837Y0043047D02*
X0373507Y0043047D01*
X0370091Y0043047D02*
X0309457Y0043047D01*
X0310171Y0043845D02*
X0369376Y0043845D01*
X0369046Y0044644D02*
X0310502Y0044644D01*
X0310536Y0045442D02*
X0369011Y0045442D01*
X0369179Y0046241D02*
X0310368Y0046241D01*
X0309932Y0047039D02*
X0369615Y0047039D01*
X0370688Y0047838D02*
X0308860Y0047838D01*
X0303766Y0042248D02*
X0297187Y0042248D01*
X0298357Y0041450D02*
X0302590Y0041450D01*
X0301886Y0040651D02*
X0299015Y0040651D01*
X0299387Y0039853D02*
X0301555Y0039853D01*
X0301320Y0039054D02*
X0299584Y0039054D01*
X0283766Y0042248D02*
X0277180Y0042248D01*
X0277826Y0041981D02*
X0276299Y0042613D01*
X0274647Y0042613D01*
X0273121Y0041981D01*
X0271953Y0040813D01*
X0271320Y0039287D01*
X0271320Y0037635D01*
X0271953Y0036108D01*
X0273121Y0034940D01*
X0274647Y0034308D01*
X0276299Y0034308D01*
X0277826Y0034940D01*
X0278994Y0036108D01*
X0279626Y0037635D01*
X0279626Y0039287D01*
X0278994Y0040813D01*
X0277826Y0041981D01*
X0278357Y0041450D02*
X0282590Y0041450D01*
X0281886Y0040651D02*
X0279061Y0040651D01*
X0279391Y0039853D02*
X0281555Y0039853D01*
X0281320Y0039054D02*
X0279626Y0039054D01*
X0279626Y0038256D02*
X0281320Y0038256D01*
X0281394Y0037457D02*
X0279553Y0037457D01*
X0279222Y0036659D02*
X0281725Y0036659D01*
X0282201Y0035860D02*
X0278746Y0035860D01*
X0277947Y0035062D02*
X0282999Y0035062D01*
X0283007Y0031868D02*
X0277939Y0031868D01*
X0278738Y0031069D02*
X0282209Y0031069D01*
X0281728Y0030271D02*
X0279218Y0030271D01*
X0279549Y0029472D02*
X0281397Y0029472D01*
X0281320Y0028674D02*
X0279626Y0028674D01*
X0279626Y0027875D02*
X0281320Y0027875D01*
X0281552Y0027077D02*
X0279395Y0027077D01*
X0279064Y0026278D02*
X0281882Y0026278D01*
X0282581Y0025480D02*
X0278365Y0025480D01*
X0277200Y0024681D02*
X0283746Y0024681D01*
X0273746Y0024681D02*
X0267200Y0024681D01*
X0268365Y0025480D02*
X0272581Y0025480D01*
X0271882Y0026278D02*
X0269064Y0026278D01*
X0269395Y0027077D02*
X0271552Y0027077D01*
X0271320Y0027875D02*
X0269626Y0027875D01*
X0269626Y0028674D02*
X0271320Y0028674D01*
X0271397Y0029472D02*
X0269549Y0029472D01*
X0269218Y0030271D02*
X0271728Y0030271D01*
X0272209Y0031069D02*
X0268738Y0031069D01*
X0267939Y0031868D02*
X0273007Y0031868D01*
X0268994Y0036108D02*
X0267826Y0034940D01*
X0266299Y0034308D01*
X0264647Y0034308D01*
X0263121Y0034940D01*
X0261953Y0036108D01*
X0261320Y0037635D01*
X0261320Y0039287D01*
X0261953Y0040813D01*
X0263121Y0041981D01*
X0264647Y0042613D01*
X0266299Y0042613D01*
X0267826Y0041981D01*
X0268994Y0040813D01*
X0269626Y0039287D01*
X0269626Y0037635D01*
X0268994Y0036108D01*
X0268746Y0035860D02*
X0272201Y0035860D01*
X0271725Y0036659D02*
X0269222Y0036659D01*
X0269553Y0037457D02*
X0271394Y0037457D01*
X0271320Y0038256D02*
X0269626Y0038256D01*
X0269626Y0039054D02*
X0271320Y0039054D01*
X0271555Y0039853D02*
X0269391Y0039853D01*
X0269061Y0040651D02*
X0271886Y0040651D01*
X0272590Y0041450D02*
X0268357Y0041450D01*
X0267180Y0042248D02*
X0273766Y0042248D01*
X0272999Y0035062D02*
X0267947Y0035062D01*
X0262999Y0035062D02*
X0257947Y0035062D01*
X0257826Y0034940D02*
X0258994Y0036108D01*
X0259626Y0037635D01*
X0259626Y0039287D01*
X0258994Y0040813D01*
X0257826Y0041981D01*
X0256299Y0042613D01*
X0254647Y0042613D01*
X0253121Y0041981D01*
X0251953Y0040813D01*
X0251320Y0039287D01*
X0251320Y0037635D01*
X0251953Y0036108D01*
X0253121Y0034940D01*
X0254647Y0034308D01*
X0256299Y0034308D01*
X0257826Y0034940D01*
X0258746Y0035860D02*
X0262201Y0035860D01*
X0261725Y0036659D02*
X0259222Y0036659D01*
X0259553Y0037457D02*
X0261394Y0037457D01*
X0261320Y0038256D02*
X0259626Y0038256D01*
X0259626Y0039054D02*
X0261320Y0039054D01*
X0261555Y0039853D02*
X0259391Y0039853D01*
X0259061Y0040651D02*
X0261886Y0040651D01*
X0262590Y0041450D02*
X0258357Y0041450D01*
X0257180Y0042248D02*
X0263766Y0042248D01*
X0253766Y0042248D02*
X0247187Y0042248D01*
X0247067Y0042309D02*
X0246446Y0042511D01*
X0245873Y0042602D01*
X0245873Y0038861D01*
X0245073Y0038861D01*
X0245073Y0042602D01*
X0244501Y0042511D01*
X0243879Y0042309D01*
X0243297Y0042012D01*
X0242768Y0041628D01*
X0242306Y0041166D01*
X0241921Y0040637D01*
X0241625Y0040055D01*
X0241423Y0039433D01*
X0241332Y0038861D01*
X0245073Y0038861D01*
X0245073Y0038061D01*
X0241332Y0038061D01*
X0241423Y0037488D01*
X0241625Y0036867D01*
X0241921Y0036284D01*
X0242306Y0035755D01*
X0242768Y0035293D01*
X0243297Y0034909D01*
X0243879Y0034612D01*
X0244501Y0034410D01*
X0245073Y0034319D01*
X0245073Y0038061D01*
X0245873Y0038061D01*
X0245873Y0038861D01*
X0249614Y0038861D01*
X0249524Y0039433D01*
X0249322Y0040055D01*
X0249025Y0040637D01*
X0248641Y0041166D01*
X0248179Y0041628D01*
X0247650Y0042012D01*
X0247067Y0042309D01*
X0245873Y0042248D02*
X0245073Y0042248D01*
X0245073Y0041450D02*
X0245873Y0041450D01*
X0245873Y0040651D02*
X0245073Y0040651D01*
X0245073Y0039853D02*
X0245873Y0039853D01*
X0245873Y0039054D02*
X0245073Y0039054D01*
X0245073Y0038256D02*
X0239626Y0038256D01*
X0239626Y0037635D02*
X0239626Y0039287D01*
X0238994Y0040813D01*
X0237826Y0041981D01*
X0236299Y0042613D01*
X0234647Y0042613D01*
X0233121Y0041981D01*
X0231953Y0040813D01*
X0231320Y0039287D01*
X0231320Y0037635D01*
X0231953Y0036108D01*
X0233121Y0034940D01*
X0234647Y0034308D01*
X0236299Y0034308D01*
X0237826Y0034940D01*
X0238994Y0036108D01*
X0239626Y0037635D01*
X0239553Y0037457D02*
X0241433Y0037457D01*
X0241731Y0036659D02*
X0239222Y0036659D01*
X0238746Y0035860D02*
X0242229Y0035860D01*
X0243086Y0035062D02*
X0237947Y0035062D01*
X0239626Y0039054D02*
X0241363Y0039054D01*
X0241559Y0039853D02*
X0239391Y0039853D01*
X0239061Y0040651D02*
X0241932Y0040651D01*
X0242590Y0041450D02*
X0238357Y0041450D01*
X0237180Y0042248D02*
X0243760Y0042248D01*
X0245873Y0038256D02*
X0251320Y0038256D01*
X0251320Y0039054D02*
X0249584Y0039054D01*
X0249387Y0039853D02*
X0251555Y0039853D01*
X0251886Y0040651D02*
X0249015Y0040651D01*
X0248357Y0041450D02*
X0252590Y0041450D01*
X0249614Y0038061D02*
X0245873Y0038061D01*
X0245873Y0034319D01*
X0246446Y0034410D01*
X0247067Y0034612D01*
X0247650Y0034909D01*
X0248179Y0035293D01*
X0248641Y0035755D01*
X0249025Y0036284D01*
X0249322Y0036867D01*
X0249524Y0037488D01*
X0249614Y0038061D01*
X0249514Y0037457D02*
X0251394Y0037457D01*
X0251725Y0036659D02*
X0249216Y0036659D01*
X0248717Y0035860D02*
X0252201Y0035860D01*
X0252999Y0035062D02*
X0247860Y0035062D01*
X0245873Y0035062D02*
X0245073Y0035062D01*
X0245073Y0035860D02*
X0245873Y0035860D01*
X0245873Y0036659D02*
X0245073Y0036659D01*
X0245073Y0037457D02*
X0245873Y0037457D01*
X0245873Y0032602D02*
X0245873Y0028861D01*
X0249614Y0028861D01*
X0249524Y0029433D01*
X0249322Y0030055D01*
X0249025Y0030637D01*
X0248641Y0031166D01*
X0248179Y0031628D01*
X0247650Y0032012D01*
X0247067Y0032309D01*
X0246446Y0032511D01*
X0245873Y0032602D01*
X0245873Y0031868D02*
X0245073Y0031868D01*
X0245073Y0031069D02*
X0245873Y0031069D01*
X0245873Y0030271D02*
X0245073Y0030271D01*
X0245073Y0029472D02*
X0245873Y0029472D01*
X0245873Y0028674D02*
X0251320Y0028674D01*
X0251320Y0027875D02*
X0249585Y0027875D01*
X0249390Y0027077D02*
X0251552Y0027077D01*
X0251882Y0026278D02*
X0249021Y0026278D01*
X0248365Y0025480D02*
X0252581Y0025480D01*
X0253746Y0024681D02*
X0247203Y0024681D01*
X0243744Y0024681D02*
X0237200Y0024681D01*
X0238365Y0025480D02*
X0242581Y0025480D01*
X0241926Y0026278D02*
X0239064Y0026278D01*
X0239395Y0027077D02*
X0241556Y0027077D01*
X0241361Y0027875D02*
X0239626Y0027875D01*
X0239626Y0028674D02*
X0245073Y0028674D01*
X0241735Y0030271D02*
X0239218Y0030271D01*
X0239549Y0029472D02*
X0241435Y0029472D01*
X0242235Y0031069D02*
X0238738Y0031069D01*
X0237939Y0031868D02*
X0243098Y0031868D01*
X0247849Y0031868D02*
X0253007Y0031868D01*
X0252209Y0031069D02*
X0248711Y0031069D01*
X0249212Y0030271D02*
X0251728Y0030271D01*
X0251397Y0029472D02*
X0249511Y0029472D01*
X0257939Y0031868D02*
X0263007Y0031868D01*
X0262209Y0031069D02*
X0258738Y0031069D01*
X0259218Y0030271D02*
X0261728Y0030271D01*
X0261397Y0029472D02*
X0259549Y0029472D01*
X0259626Y0028674D02*
X0261320Y0028674D01*
X0261320Y0027875D02*
X0259626Y0027875D01*
X0259395Y0027077D02*
X0261552Y0027077D01*
X0261882Y0026278D02*
X0259064Y0026278D01*
X0258365Y0025480D02*
X0262581Y0025480D01*
X0263746Y0024681D02*
X0257200Y0024681D01*
X0233746Y0024681D02*
X0227200Y0024681D01*
X0228365Y0025480D02*
X0232581Y0025480D01*
X0231882Y0026278D02*
X0229064Y0026278D01*
X0229395Y0027077D02*
X0231552Y0027077D01*
X0231320Y0027875D02*
X0229626Y0027875D01*
X0229626Y0028674D02*
X0231320Y0028674D01*
X0231397Y0029472D02*
X0229549Y0029472D01*
X0229218Y0030271D02*
X0231728Y0030271D01*
X0232209Y0031069D02*
X0228738Y0031069D01*
X0227939Y0031868D02*
X0233007Y0031868D01*
X0232999Y0035062D02*
X0227947Y0035062D01*
X0228746Y0035860D02*
X0232201Y0035860D01*
X0231725Y0036659D02*
X0229222Y0036659D01*
X0229553Y0037457D02*
X0231394Y0037457D01*
X0231320Y0038256D02*
X0229626Y0038256D01*
X0229626Y0039054D02*
X0231320Y0039054D01*
X0231555Y0039853D02*
X0229391Y0039853D01*
X0229061Y0040651D02*
X0231886Y0040651D01*
X0232590Y0041450D02*
X0228357Y0041450D01*
X0227180Y0042248D02*
X0233766Y0042248D01*
X0223007Y0031868D02*
X0217849Y0031868D01*
X0218711Y0031069D02*
X0222209Y0031069D01*
X0221728Y0030271D02*
X0219212Y0030271D01*
X0219511Y0029472D02*
X0221397Y0029472D01*
X0215873Y0030271D02*
X0215073Y0030271D01*
X0215073Y0031069D02*
X0215873Y0031069D01*
X0215873Y0031868D02*
X0215073Y0031868D01*
X0217322Y0059816D02*
X0201999Y0059816D01*
X0201999Y0060614D02*
X0216707Y0060614D01*
X0216411Y0061413D02*
X0201999Y0061413D01*
X0201999Y0062211D02*
X0216411Y0062211D01*
X0216649Y0063010D02*
X0201999Y0063010D01*
X0201999Y0063808D02*
X0217184Y0063808D01*
X0257972Y0082174D02*
X0261405Y0082174D01*
X0261618Y0081961D02*
X0262927Y0081419D01*
X0264344Y0081419D01*
X0265654Y0081961D01*
X0266656Y0082963D01*
X0267198Y0084273D01*
X0267198Y0085690D01*
X0266656Y0086999D01*
X0265654Y0088001D01*
X0264344Y0088543D01*
X0262927Y0088543D01*
X0261618Y0088001D01*
X0260616Y0086999D01*
X0260074Y0085690D01*
X0260074Y0084273D01*
X0260616Y0082963D01*
X0261618Y0081961D01*
X0260612Y0082972D02*
X0258704Y0082972D01*
X0259116Y0083771D02*
X0260281Y0083771D01*
X0260074Y0084569D02*
X0259312Y0084569D01*
X0259317Y0085369D02*
X0259187Y0086020D01*
X0258919Y0086668D01*
X0258529Y0087252D01*
X0258033Y0087748D01*
X0257449Y0088138D01*
X0256801Y0088406D01*
X0256149Y0088536D01*
X0256149Y0085369D01*
X0259317Y0085369D01*
X0260074Y0085368D02*
X0256149Y0085368D01*
X0256149Y0086166D02*
X0255374Y0086166D01*
X0255374Y0086965D02*
X0256149Y0086965D01*
X0256149Y0087763D02*
X0255374Y0087763D01*
X0258009Y0087763D02*
X0261381Y0087763D01*
X0260602Y0086965D02*
X0258720Y0086965D01*
X0259127Y0086166D02*
X0260271Y0086166D01*
X0265891Y0087763D02*
X0275913Y0087763D01*
X0275611Y0086965D02*
X0266670Y0086965D01*
X0267001Y0086166D02*
X0275611Y0086166D01*
X0275843Y0085368D02*
X0267198Y0085368D01*
X0267198Y0084569D02*
X0276368Y0084569D01*
X0277658Y0083771D02*
X0266990Y0083771D01*
X0266659Y0082972D02*
X0289811Y0082972D01*
X0289811Y0082174D02*
X0265866Y0082174D01*
X0279140Y0083771D02*
X0290033Y0083771D01*
X0290545Y0084569D02*
X0280429Y0084569D01*
X0280955Y0085368D02*
X0281774Y0085368D01*
X0337180Y0042248D02*
X0343760Y0042248D01*
X0343879Y0042309D02*
X0343297Y0042012D01*
X0342768Y0041628D01*
X0342306Y0041166D01*
X0341921Y0040637D01*
X0341625Y0040055D01*
X0341423Y0039433D01*
X0341332Y0038861D01*
X0345073Y0038861D01*
X0345073Y0042602D01*
X0344501Y0042511D01*
X0343879Y0042309D01*
X0345073Y0042248D02*
X0345873Y0042248D01*
X0345873Y0042602D02*
X0346446Y0042511D01*
X0347067Y0042309D01*
X0347650Y0042012D01*
X0348179Y0041628D01*
X0348641Y0041166D01*
X0349025Y0040637D01*
X0349322Y0040055D01*
X0349524Y0039433D01*
X0349614Y0038861D01*
X0345873Y0038861D01*
X0345073Y0038861D01*
X0345073Y0038061D01*
X0341332Y0038061D01*
X0341423Y0037488D01*
X0341625Y0036867D01*
X0341921Y0036284D01*
X0342306Y0035755D01*
X0342768Y0035293D01*
X0343297Y0034909D01*
X0343879Y0034612D01*
X0344501Y0034410D01*
X0345073Y0034319D01*
X0345073Y0038061D01*
X0345873Y0038061D01*
X0345873Y0038861D01*
X0345873Y0042602D01*
X0345873Y0041450D02*
X0345073Y0041450D01*
X0345073Y0040651D02*
X0345873Y0040651D01*
X0345873Y0039853D02*
X0345073Y0039853D01*
X0345073Y0039054D02*
X0345873Y0039054D01*
X0345873Y0038256D02*
X0526837Y0038256D01*
X0526837Y0039054D02*
X0349584Y0039054D01*
X0349387Y0039853D02*
X0526837Y0039853D01*
X0526837Y0040651D02*
X0349015Y0040651D01*
X0348357Y0041450D02*
X0526837Y0041450D01*
X0526837Y0042248D02*
X0347187Y0042248D01*
X0345873Y0038061D02*
X0349614Y0038061D01*
X0349524Y0037488D01*
X0349322Y0036867D01*
X0349025Y0036284D01*
X0348641Y0035755D01*
X0348179Y0035293D01*
X0347650Y0034909D01*
X0347067Y0034612D01*
X0346446Y0034410D01*
X0345873Y0034319D01*
X0345873Y0038061D01*
X0345873Y0037457D02*
X0345073Y0037457D01*
X0345073Y0036659D02*
X0345873Y0036659D01*
X0345873Y0035860D02*
X0345073Y0035860D01*
X0345073Y0035062D02*
X0345873Y0035062D01*
X0347860Y0035062D02*
X0526837Y0035062D01*
X0526837Y0035860D02*
X0348717Y0035860D01*
X0349216Y0036659D02*
X0526837Y0036659D01*
X0526837Y0037457D02*
X0349514Y0037457D01*
X0345073Y0038256D02*
X0339626Y0038256D01*
X0339626Y0039054D02*
X0341363Y0039054D01*
X0341559Y0039853D02*
X0339391Y0039853D01*
X0339061Y0040651D02*
X0341932Y0040651D01*
X0342590Y0041450D02*
X0338357Y0041450D01*
X0339553Y0037457D02*
X0341433Y0037457D01*
X0341731Y0036659D02*
X0339222Y0036659D01*
X0338746Y0035860D02*
X0342229Y0035860D01*
X0343086Y0035062D02*
X0337947Y0035062D01*
X0337939Y0031868D02*
X0343098Y0031868D01*
X0342235Y0031069D02*
X0338738Y0031069D01*
X0339218Y0030271D02*
X0341735Y0030271D01*
X0345073Y0030271D02*
X0345873Y0030271D01*
X0345873Y0031069D02*
X0345073Y0031069D01*
X0345073Y0031868D02*
X0345873Y0031868D01*
X0349585Y0027875D02*
X0526837Y0027875D01*
X0526837Y0027077D02*
X0349390Y0027077D01*
X0349021Y0026278D02*
X0526837Y0026278D01*
X0526659Y0025480D02*
X0348365Y0025480D01*
X0347203Y0024681D02*
X0525972Y0024681D01*
X0526837Y0047838D02*
X0439768Y0047838D01*
X0440099Y0048636D02*
X0526837Y0048636D01*
X0526837Y0049435D02*
X0440136Y0049435D01*
X0439971Y0050233D02*
X0526837Y0050233D01*
X0526837Y0051032D02*
X0439540Y0051032D01*
X0438478Y0051830D02*
X0442485Y0051830D01*
X0444013Y0051830D02*
X0526837Y0051830D01*
X0526837Y0052629D02*
X0445289Y0052629D01*
X0445809Y0053428D02*
X0526837Y0053428D01*
X0526837Y0054226D02*
X0446036Y0054226D01*
X0446036Y0055025D02*
X0499846Y0055025D01*
X0498915Y0055823D02*
X0445731Y0055823D01*
X0445100Y0056622D02*
X0498538Y0056622D01*
X0498411Y0057420D02*
X0427600Y0057420D01*
X0428067Y0058219D02*
X0498487Y0058219D01*
X0498818Y0059017D02*
X0428342Y0059017D01*
X0421630Y0063808D02*
X0374475Y0063808D01*
X0374586Y0064607D02*
X0526837Y0064607D01*
X0526837Y0065405D02*
X0374495Y0065405D01*
X0374119Y0063010D02*
X0420687Y0063010D01*
X0420117Y0062211D02*
X0373240Y0062211D01*
X0390827Y0070995D02*
X0392134Y0070995D01*
X0396544Y0076584D02*
X0526837Y0076584D01*
X0526837Y0075786D02*
X0471486Y0075786D01*
X0472485Y0074987D02*
X0526837Y0074987D01*
X0526837Y0074189D02*
X0472890Y0074189D01*
X0473036Y0073390D02*
X0526837Y0073390D01*
X0526837Y0072592D02*
X0472980Y0072592D01*
X0472650Y0071793D02*
X0526837Y0071793D01*
X0526837Y0070995D02*
X0471904Y0070995D01*
X0461957Y0078181D02*
X0397086Y0078181D01*
X0397026Y0078980D02*
X0461262Y0078980D01*
X0460931Y0079778D02*
X0396696Y0079778D01*
X0395945Y0080577D02*
X0460911Y0080577D01*
X0503511Y0062211D02*
X0526837Y0062211D01*
X0526837Y0061413D02*
X0503871Y0061413D01*
X0503986Y0060614D02*
X0526837Y0060614D01*
X0526837Y0059816D02*
X0503899Y0059816D01*
X0503580Y0059017D02*
X0526837Y0059017D01*
X0526837Y0058219D02*
X0503910Y0058219D01*
X0503986Y0057420D02*
X0526837Y0057420D01*
X0526837Y0056622D02*
X0503860Y0056622D01*
X0503483Y0055823D02*
X0526837Y0055823D01*
X0526837Y0055025D02*
X0502552Y0055025D01*
X0526837Y0077383D02*
X0396944Y0077383D01*
X0326909Y0213130D02*
X0325538Y0213130D01*
X0323759Y0213130D02*
X0322388Y0213130D01*
X0313523Y0269026D02*
X0307424Y0269026D01*
X0307826Y0269192D02*
X0308994Y0270360D01*
X0309626Y0271887D01*
X0309626Y0273539D01*
X0308994Y0275065D01*
X0307826Y0276233D01*
X0306299Y0276865D01*
X0304647Y0276865D01*
X0303121Y0276233D01*
X0301953Y0275065D01*
X0301320Y0273539D01*
X0301320Y0271887D01*
X0301953Y0270360D01*
X0303121Y0269192D01*
X0304647Y0268560D01*
X0306299Y0268560D01*
X0307826Y0269192D01*
X0308458Y0269824D02*
X0312489Y0269824D01*
X0311844Y0270623D02*
X0309102Y0270623D01*
X0309433Y0271421D02*
X0311513Y0271421D01*
X0311320Y0272220D02*
X0309626Y0272220D01*
X0309626Y0273018D02*
X0311320Y0273018D01*
X0311436Y0273817D02*
X0309511Y0273817D01*
X0309180Y0274615D02*
X0311766Y0274615D01*
X0312301Y0275414D02*
X0308645Y0275414D01*
X0307847Y0276212D02*
X0313100Y0276212D01*
X0314532Y0278608D02*
X0306415Y0278608D01*
X0308040Y0279406D02*
X0312907Y0279406D01*
X0312108Y0280205D02*
X0308838Y0280205D01*
X0309260Y0281003D02*
X0311686Y0281003D01*
X0311356Y0281802D02*
X0309591Y0281802D01*
X0309626Y0282600D02*
X0311320Y0282600D01*
X0311320Y0283399D02*
X0309626Y0283399D01*
X0309353Y0284197D02*
X0311593Y0284197D01*
X0311924Y0284996D02*
X0309022Y0284996D01*
X0308264Y0285794D02*
X0312682Y0285794D01*
X0313989Y0286593D02*
X0306957Y0286593D01*
X0303989Y0286593D02*
X0296957Y0286593D01*
X0298264Y0285794D02*
X0302682Y0285794D01*
X0301924Y0284996D02*
X0299022Y0284996D01*
X0299353Y0284197D02*
X0301593Y0284197D01*
X0301320Y0283399D02*
X0299626Y0283399D01*
X0299626Y0282600D02*
X0301320Y0282600D01*
X0301356Y0281802D02*
X0299591Y0281802D01*
X0299260Y0281003D02*
X0301686Y0281003D01*
X0302108Y0280205D02*
X0298838Y0280205D01*
X0298040Y0279406D02*
X0302907Y0279406D01*
X0304532Y0278608D02*
X0296415Y0278608D01*
X0296299Y0276865D02*
X0294647Y0276865D01*
X0293121Y0276233D01*
X0291953Y0275065D01*
X0291320Y0273539D01*
X0291320Y0271887D01*
X0291953Y0270360D01*
X0293121Y0269192D01*
X0294647Y0268560D01*
X0296299Y0268560D01*
X0297826Y0269192D01*
X0298994Y0270360D01*
X0299626Y0271887D01*
X0299626Y0273539D01*
X0298994Y0275065D01*
X0297826Y0276233D01*
X0296299Y0276865D01*
X0297847Y0276212D02*
X0303100Y0276212D01*
X0302301Y0275414D02*
X0298645Y0275414D01*
X0299180Y0274615D02*
X0301766Y0274615D01*
X0301436Y0273817D02*
X0299511Y0273817D01*
X0299626Y0273018D02*
X0301320Y0273018D01*
X0301320Y0272220D02*
X0299626Y0272220D01*
X0299433Y0271421D02*
X0301513Y0271421D01*
X0301844Y0270623D02*
X0299102Y0270623D01*
X0298458Y0269824D02*
X0302489Y0269824D01*
X0303523Y0269026D02*
X0297424Y0269026D01*
X0293523Y0269026D02*
X0287424Y0269026D01*
X0287826Y0269192D02*
X0288994Y0270360D01*
X0289626Y0271887D01*
X0289626Y0273539D01*
X0288994Y0275065D01*
X0287826Y0276233D01*
X0286299Y0276865D01*
X0284647Y0276865D01*
X0283121Y0276233D01*
X0281953Y0275065D01*
X0281320Y0273539D01*
X0281320Y0271887D01*
X0281953Y0270360D01*
X0283121Y0269192D01*
X0284647Y0268560D01*
X0286299Y0268560D01*
X0287826Y0269192D01*
X0288458Y0269824D02*
X0292489Y0269824D01*
X0291844Y0270623D02*
X0289102Y0270623D01*
X0289433Y0271421D02*
X0291513Y0271421D01*
X0291320Y0272220D02*
X0289626Y0272220D01*
X0289626Y0273018D02*
X0291320Y0273018D01*
X0291436Y0273817D02*
X0289511Y0273817D01*
X0289180Y0274615D02*
X0291766Y0274615D01*
X0292301Y0275414D02*
X0288645Y0275414D01*
X0287847Y0276212D02*
X0293100Y0276212D01*
X0294532Y0278608D02*
X0286415Y0278608D01*
X0288040Y0279406D02*
X0292907Y0279406D01*
X0292108Y0280205D02*
X0288838Y0280205D01*
X0289260Y0281003D02*
X0291686Y0281003D01*
X0291356Y0281802D02*
X0289591Y0281802D01*
X0289626Y0282600D02*
X0291320Y0282600D01*
X0291320Y0283399D02*
X0289626Y0283399D01*
X0289353Y0284197D02*
X0291593Y0284197D01*
X0291924Y0284996D02*
X0289022Y0284996D01*
X0288264Y0285794D02*
X0292682Y0285794D01*
X0293989Y0286593D02*
X0286957Y0286593D01*
X0283989Y0286593D02*
X0276957Y0286593D01*
X0278264Y0285794D02*
X0282682Y0285794D01*
X0281924Y0284996D02*
X0279022Y0284996D01*
X0279353Y0284197D02*
X0281593Y0284197D01*
X0281320Y0283399D02*
X0279626Y0283399D01*
X0279626Y0282600D02*
X0281320Y0282600D01*
X0281356Y0281802D02*
X0279591Y0281802D01*
X0279260Y0281003D02*
X0281686Y0281003D01*
X0282108Y0280205D02*
X0278838Y0280205D01*
X0278040Y0279406D02*
X0282907Y0279406D01*
X0284532Y0278608D02*
X0276415Y0278608D01*
X0276299Y0276865D02*
X0274647Y0276865D01*
X0273121Y0276233D01*
X0271953Y0275065D01*
X0271320Y0273539D01*
X0271320Y0271887D01*
X0271953Y0270360D01*
X0273121Y0269192D01*
X0274647Y0268560D01*
X0276299Y0268560D01*
X0277826Y0269192D01*
X0278994Y0270360D01*
X0279626Y0271887D01*
X0279626Y0273539D01*
X0278994Y0275065D01*
X0277826Y0276233D01*
X0276299Y0276865D01*
X0277847Y0276212D02*
X0283100Y0276212D01*
X0282301Y0275414D02*
X0278645Y0275414D01*
X0279180Y0274615D02*
X0281766Y0274615D01*
X0281436Y0273817D02*
X0279511Y0273817D01*
X0279626Y0273018D02*
X0281320Y0273018D01*
X0281320Y0272220D02*
X0279626Y0272220D01*
X0279433Y0271421D02*
X0281513Y0271421D01*
X0281844Y0270623D02*
X0279102Y0270623D01*
X0278458Y0269824D02*
X0282489Y0269824D01*
X0283523Y0269026D02*
X0277424Y0269026D01*
X0273523Y0269026D02*
X0267424Y0269026D01*
X0267826Y0269192D02*
X0268994Y0270360D01*
X0269626Y0271887D01*
X0269626Y0273539D01*
X0268994Y0275065D01*
X0267826Y0276233D01*
X0266299Y0276865D01*
X0264647Y0276865D01*
X0263121Y0276233D01*
X0261953Y0275065D01*
X0261320Y0273539D01*
X0261320Y0271887D01*
X0261953Y0270360D01*
X0263121Y0269192D01*
X0264647Y0268560D01*
X0266299Y0268560D01*
X0267826Y0269192D01*
X0268458Y0269824D02*
X0272489Y0269824D01*
X0271844Y0270623D02*
X0269102Y0270623D01*
X0269433Y0271421D02*
X0271513Y0271421D01*
X0271320Y0272220D02*
X0269626Y0272220D01*
X0269626Y0273018D02*
X0271320Y0273018D01*
X0271436Y0273817D02*
X0269511Y0273817D01*
X0269180Y0274615D02*
X0271766Y0274615D01*
X0272301Y0275414D02*
X0268645Y0275414D01*
X0267847Y0276212D02*
X0273100Y0276212D01*
X0274532Y0278608D02*
X0266415Y0278608D01*
X0268040Y0279406D02*
X0272907Y0279406D01*
X0272108Y0280205D02*
X0268838Y0280205D01*
X0269260Y0281003D02*
X0271686Y0281003D01*
X0271356Y0281802D02*
X0269591Y0281802D01*
X0269626Y0282600D02*
X0271320Y0282600D01*
X0271320Y0283399D02*
X0269626Y0283399D01*
X0269353Y0284197D02*
X0271593Y0284197D01*
X0271924Y0284996D02*
X0269022Y0284996D01*
X0268264Y0285794D02*
X0272682Y0285794D01*
X0273989Y0286593D02*
X0266957Y0286593D01*
X0263989Y0286593D02*
X0256957Y0286593D01*
X0258264Y0285794D02*
X0262682Y0285794D01*
X0261924Y0284996D02*
X0259022Y0284996D01*
X0259353Y0284197D02*
X0261593Y0284197D01*
X0261320Y0283399D02*
X0259626Y0283399D01*
X0259626Y0282600D02*
X0261320Y0282600D01*
X0261356Y0281802D02*
X0259591Y0281802D01*
X0259260Y0281003D02*
X0261686Y0281003D01*
X0262108Y0280205D02*
X0258838Y0280205D01*
X0258040Y0279406D02*
X0262907Y0279406D01*
X0264532Y0278608D02*
X0256415Y0278608D01*
X0256299Y0276865D02*
X0254647Y0276865D01*
X0253121Y0276233D01*
X0251953Y0275065D01*
X0251320Y0273539D01*
X0251320Y0271887D01*
X0251953Y0270360D01*
X0253121Y0269192D01*
X0254647Y0268560D01*
X0256299Y0268560D01*
X0257826Y0269192D01*
X0258994Y0270360D01*
X0259626Y0271887D01*
X0259626Y0273539D01*
X0258994Y0275065D01*
X0257826Y0276233D01*
X0256299Y0276865D01*
X0257847Y0276212D02*
X0263100Y0276212D01*
X0262301Y0275414D02*
X0258645Y0275414D01*
X0259180Y0274615D02*
X0261766Y0274615D01*
X0261436Y0273817D02*
X0259511Y0273817D01*
X0259626Y0273018D02*
X0261320Y0273018D01*
X0261320Y0272220D02*
X0259626Y0272220D01*
X0259433Y0271421D02*
X0261513Y0271421D01*
X0261844Y0270623D02*
X0259102Y0270623D01*
X0258458Y0269824D02*
X0262489Y0269824D01*
X0263523Y0269026D02*
X0257424Y0269026D01*
X0253523Y0269026D02*
X0247424Y0269026D01*
X0247826Y0269192D02*
X0248994Y0270360D01*
X0249626Y0271887D01*
X0249626Y0273539D01*
X0248994Y0275065D01*
X0247826Y0276233D01*
X0246299Y0276865D01*
X0244647Y0276865D01*
X0243121Y0276233D01*
X0241953Y0275065D01*
X0241320Y0273539D01*
X0241320Y0271887D01*
X0241953Y0270360D01*
X0243121Y0269192D01*
X0244647Y0268560D01*
X0246299Y0268560D01*
X0247826Y0269192D01*
X0248458Y0269824D02*
X0252489Y0269824D01*
X0251844Y0270623D02*
X0249102Y0270623D01*
X0249433Y0271421D02*
X0251513Y0271421D01*
X0251320Y0272220D02*
X0249626Y0272220D01*
X0249626Y0273018D02*
X0251320Y0273018D01*
X0251436Y0273817D02*
X0249511Y0273817D01*
X0249180Y0274615D02*
X0251766Y0274615D01*
X0252301Y0275414D02*
X0248645Y0275414D01*
X0247847Y0276212D02*
X0253100Y0276212D01*
X0254532Y0278608D02*
X0246415Y0278608D01*
X0248040Y0279406D02*
X0252907Y0279406D01*
X0252108Y0280205D02*
X0248838Y0280205D01*
X0249260Y0281003D02*
X0251686Y0281003D01*
X0251356Y0281802D02*
X0249591Y0281802D01*
X0249626Y0282600D02*
X0251320Y0282600D01*
X0251320Y0283399D02*
X0249626Y0283399D01*
X0249353Y0284197D02*
X0251593Y0284197D01*
X0251924Y0284996D02*
X0249022Y0284996D01*
X0248264Y0285794D02*
X0252682Y0285794D01*
X0253989Y0286593D02*
X0246957Y0286593D01*
X0243989Y0286593D02*
X0236957Y0286593D01*
X0238264Y0285794D02*
X0242682Y0285794D01*
X0241924Y0284996D02*
X0239022Y0284996D01*
X0239353Y0284197D02*
X0241593Y0284197D01*
X0241320Y0283399D02*
X0239626Y0283399D01*
X0239626Y0282600D02*
X0241320Y0282600D01*
X0241356Y0281802D02*
X0239591Y0281802D01*
X0239260Y0281003D02*
X0241686Y0281003D01*
X0242108Y0280205D02*
X0238838Y0280205D01*
X0238040Y0279406D02*
X0242907Y0279406D01*
X0244532Y0278608D02*
X0236415Y0278608D01*
X0236299Y0276865D02*
X0234647Y0276865D01*
X0233121Y0276233D01*
X0231953Y0275065D01*
X0231320Y0273539D01*
X0231320Y0271887D01*
X0231953Y0270360D01*
X0233121Y0269192D01*
X0234647Y0268560D01*
X0236299Y0268560D01*
X0237826Y0269192D01*
X0238994Y0270360D01*
X0239626Y0271887D01*
X0239626Y0273539D01*
X0238994Y0275065D01*
X0237826Y0276233D01*
X0236299Y0276865D01*
X0237847Y0276212D02*
X0243100Y0276212D01*
X0242301Y0275414D02*
X0238645Y0275414D01*
X0239180Y0274615D02*
X0241766Y0274615D01*
X0241436Y0273817D02*
X0239511Y0273817D01*
X0239626Y0273018D02*
X0241320Y0273018D01*
X0241320Y0272220D02*
X0239626Y0272220D01*
X0239433Y0271421D02*
X0241513Y0271421D01*
X0241844Y0270623D02*
X0239102Y0270623D01*
X0238458Y0269824D02*
X0242489Y0269824D01*
X0243523Y0269026D02*
X0237424Y0269026D01*
X0233523Y0269026D02*
X0227424Y0269026D01*
X0228458Y0269824D02*
X0232489Y0269824D01*
X0231844Y0270623D02*
X0229102Y0270623D01*
X0229433Y0271421D02*
X0231513Y0271421D01*
X0231320Y0272220D02*
X0229626Y0272220D01*
X0229626Y0273018D02*
X0231320Y0273018D01*
X0231436Y0273817D02*
X0229511Y0273817D01*
X0229180Y0274615D02*
X0231766Y0274615D01*
X0232301Y0275414D02*
X0228645Y0275414D01*
X0227847Y0276212D02*
X0233100Y0276212D01*
X0234532Y0278608D02*
X0226415Y0278608D01*
X0228040Y0279406D02*
X0232907Y0279406D01*
X0232108Y0280205D02*
X0228838Y0280205D01*
X0229260Y0281003D02*
X0231686Y0281003D01*
X0231356Y0281802D02*
X0229591Y0281802D01*
X0229626Y0282600D02*
X0231320Y0282600D01*
X0231320Y0283399D02*
X0229626Y0283399D01*
X0229353Y0284197D02*
X0231593Y0284197D01*
X0231924Y0284996D02*
X0229022Y0284996D01*
X0228264Y0285794D02*
X0232682Y0285794D01*
X0233989Y0286593D02*
X0226957Y0286593D01*
X0215873Y0281003D02*
X0215073Y0281003D01*
X0215073Y0280205D02*
X0215873Y0280205D01*
X0215873Y0279406D02*
X0215073Y0279406D01*
X0155393Y0236287D02*
X0436868Y0236287D01*
X0436069Y0237085D02*
X0154595Y0237085D01*
X0338040Y0279406D02*
X0342959Y0279406D01*
X0342162Y0280205D02*
X0338838Y0280205D01*
X0339260Y0281003D02*
X0341683Y0281003D01*
X0341413Y0281802D02*
X0339591Y0281802D01*
X0345073Y0281003D02*
X0345873Y0281003D01*
X0345873Y0280205D02*
X0345073Y0280205D01*
X0345073Y0279406D02*
X0345873Y0279406D01*
M02*
