G75*
%MOIN*%
%OFA0B0*%
%FSLAX25Y25*%
%IPPOS*%
%LPD*%
%AMOC8*
5,1,8,0,0,1.08239X$1,22.5*
%
%ADD10C,0.00500*%
%ADD11C,0.00600*%
%ADD12C,0.01000*%
%ADD13C,0.00400*%
%ADD14C,0.00100*%
%ADD15R,0.05512X0.00787*%
%ADD16C,0.00300*%
%ADD17C,0.00200*%
%ADD18R,0.04500X0.02500*%
%ADD19R,0.16000X0.02500*%
%ADD20R,0.02000X0.40000*%
%ADD21R,0.03000X0.19000*%
%ADD22C,0.00800*%
%ADD23R,0.03000X0.01512*%
%ADD24R,0.02500X0.04500*%
%ADD25R,0.02500X0.16000*%
%ADD26R,0.40000X0.02000*%
%ADD27R,0.19000X0.03000*%
%ADD28R,0.01512X0.03000*%
%ADD29R,0.01756X0.05512*%
%ADD30R,0.01750X0.09000*%
%ADD31R,0.00600X0.09000*%
D10*
X0001300Y0035173D02*
X0037914Y0035173D01*
X0037914Y0159858D01*
X0037340Y0161584D02*
X0034337Y0161584D01*
X0035839Y0161584D02*
X0035839Y0166088D01*
X0034337Y0164586D01*
X0032736Y0166088D02*
X0029733Y0161584D01*
X0032736Y0161584D02*
X0029733Y0166088D01*
X0056799Y0161285D02*
X0056799Y0156781D01*
X0056799Y0159033D02*
X0058300Y0159033D01*
X0056799Y0161285D02*
X0059801Y0161285D01*
X0061403Y0159784D02*
X0062904Y0161285D01*
X0062904Y0156781D01*
X0061403Y0156781D02*
X0064405Y0156781D01*
X0092449Y0156481D02*
X0092449Y0160985D01*
X0095451Y0160985D01*
X0097053Y0160234D02*
X0097803Y0160985D01*
X0099305Y0160985D01*
X0100055Y0160234D01*
X0100055Y0159484D01*
X0097053Y0156481D01*
X0100055Y0156481D01*
X0093950Y0158733D02*
X0092449Y0158733D01*
X0115142Y0149423D02*
X0130756Y0149423D01*
X0130756Y0118139D01*
X0115142Y0118139D01*
X0115142Y0149423D01*
X0116610Y0151395D02*
X0129287Y0151395D01*
X0129287Y0170867D01*
X0116610Y0170867D01*
X0116610Y0151395D01*
X0132281Y0137551D02*
X0132281Y0129811D01*
X0147817Y0129811D01*
X0147817Y0137551D01*
X0132281Y0137551D01*
X0148579Y0137245D02*
X0157819Y0137245D01*
X0157819Y0156717D01*
X0148579Y0156717D01*
X0148579Y0137245D01*
X0151531Y0137251D02*
X0167067Y0137251D01*
X0167067Y0129511D01*
X0151531Y0129511D01*
X0151531Y0137251D01*
X0157829Y0137245D02*
X0167069Y0137245D01*
X0167069Y0156717D01*
X0157829Y0156717D01*
X0157829Y0137245D01*
X0167079Y0137230D02*
X0173819Y0137230D01*
X0173819Y0124632D01*
X0167079Y0124632D01*
X0167079Y0137230D01*
X0167067Y0129501D02*
X0151531Y0129501D01*
X0151531Y0121761D01*
X0167067Y0121761D01*
X0167067Y0129501D01*
X0192156Y0124974D02*
X0202542Y0124974D01*
X0204963Y0126051D02*
X0224435Y0126051D01*
X0224435Y0117311D01*
X0204963Y0117311D01*
X0204963Y0126051D01*
X0202542Y0118388D02*
X0192156Y0118388D01*
X0216279Y0109830D02*
X0223019Y0109830D01*
X0223019Y0097232D01*
X0216279Y0097232D01*
X0216279Y0109830D01*
X0226929Y0104999D02*
X0234669Y0104999D01*
X0234669Y0089463D01*
X0226929Y0089463D01*
X0226929Y0104999D01*
X0224413Y0117311D02*
X0224413Y0126051D01*
X0243885Y0126051D01*
X0243885Y0117311D01*
X0224413Y0117311D01*
X0243863Y0117311D02*
X0243863Y0126051D01*
X0263335Y0126051D01*
X0263335Y0117311D01*
X0243863Y0117311D01*
X0263363Y0117311D02*
X0263363Y0126051D01*
X0282835Y0126051D01*
X0282835Y0117311D01*
X0263363Y0117311D01*
X0274079Y0117317D02*
X0282819Y0117317D01*
X0282819Y0097845D01*
X0274079Y0097845D01*
X0274079Y0117317D01*
X0245419Y0134595D02*
X0236179Y0134595D01*
X0236179Y0154067D01*
X0245419Y0154067D01*
X0245419Y0134595D01*
X0236169Y0134595D02*
X0226929Y0134595D01*
X0226929Y0154067D01*
X0236169Y0154067D01*
X0236169Y0134595D01*
X0236979Y0154063D02*
X0236979Y0169599D01*
X0244719Y0169599D01*
X0244719Y0154063D01*
X0236979Y0154063D01*
X0231619Y0163832D02*
X0224879Y0163832D01*
X0224879Y0176430D01*
X0231619Y0176430D01*
X0231619Y0163832D01*
X0251581Y0182761D02*
X0251581Y0190501D01*
X0267117Y0190501D01*
X0267117Y0182761D01*
X0251581Y0182761D01*
X0267113Y0181761D02*
X0267113Y0190501D01*
X0286585Y0190501D01*
X0286585Y0181761D01*
X0267113Y0181761D01*
X0286613Y0181761D02*
X0286613Y0190501D01*
X0306085Y0190501D01*
X0306085Y0181761D01*
X0286613Y0181761D01*
X0306113Y0180361D02*
X0306113Y0189101D01*
X0325585Y0189101D01*
X0325585Y0180361D01*
X0306113Y0180361D01*
X0320879Y0179199D02*
X0328619Y0179199D01*
X0328619Y0163663D01*
X0320879Y0163663D01*
X0320879Y0179199D01*
X0325563Y0180361D02*
X0325563Y0189101D01*
X0345035Y0189101D01*
X0345035Y0180361D01*
X0325563Y0180361D01*
X0328107Y0197974D02*
X0328107Y0213588D01*
X0359391Y0213588D01*
X0359391Y0197974D01*
X0328107Y0197974D01*
X0365163Y0199393D02*
X0365163Y0212070D01*
X0384635Y0212070D01*
X0384635Y0199393D01*
X0365163Y0199393D01*
X0365129Y0193767D02*
X0373869Y0193767D01*
X0373869Y0174295D01*
X0365129Y0174295D01*
X0365129Y0193767D01*
X0386679Y0198117D02*
X0395419Y0198117D01*
X0395419Y0178645D01*
X0386679Y0178645D01*
X0386679Y0198117D01*
X0387979Y0174399D02*
X0395719Y0174399D01*
X0395719Y0158863D01*
X0387979Y0158863D01*
X0387979Y0174399D01*
X0372519Y0165380D02*
X0372519Y0152782D01*
X0365779Y0152782D01*
X0365779Y0165380D01*
X0372519Y0165380D01*
X0387929Y0158799D02*
X0395669Y0158799D01*
X0395669Y0143263D01*
X0387929Y0143263D01*
X0387929Y0158799D01*
X0381398Y0148751D02*
X0368800Y0148751D01*
X0368800Y0142011D01*
X0381398Y0142011D01*
X0381398Y0148751D01*
X0380329Y0138649D02*
X0388069Y0138649D01*
X0388069Y0123113D01*
X0380329Y0123113D01*
X0380329Y0138649D01*
X0388079Y0138649D02*
X0395819Y0138649D01*
X0395819Y0123113D01*
X0388079Y0123113D01*
X0388079Y0138649D01*
X0395850Y0129851D02*
X0408448Y0129851D01*
X0408448Y0123111D01*
X0395850Y0123111D01*
X0395850Y0129851D01*
X0424081Y0132701D02*
X0424081Y0124961D01*
X0439617Y0124961D01*
X0439617Y0132701D01*
X0424081Y0132701D01*
X0427000Y0132711D02*
X0427000Y0139451D01*
X0439598Y0139451D01*
X0439598Y0132711D01*
X0427000Y0132711D01*
X0427000Y0139461D02*
X0427000Y0146201D01*
X0439598Y0146201D01*
X0439598Y0139461D01*
X0427000Y0139461D01*
X0424081Y0146211D02*
X0424081Y0153951D01*
X0439617Y0153951D01*
X0439617Y0146211D01*
X0424081Y0146211D01*
X0424081Y0153961D02*
X0424081Y0161701D01*
X0439617Y0161701D01*
X0439617Y0153961D01*
X0424081Y0153961D01*
X0427000Y0161711D02*
X0427000Y0168451D01*
X0439598Y0168451D01*
X0439598Y0161711D01*
X0427000Y0161711D01*
X0452729Y0158245D02*
X0452729Y0177717D01*
X0461969Y0177717D01*
X0461969Y0158245D01*
X0452729Y0158245D01*
X0461979Y0158232D02*
X0468719Y0158232D01*
X0468719Y0170830D01*
X0461979Y0170830D01*
X0461979Y0158232D01*
X0469550Y0158161D02*
X0469550Y0164901D01*
X0482148Y0164901D01*
X0482148Y0158161D01*
X0469550Y0158161D01*
X0468679Y0164932D02*
X0475419Y0164932D01*
X0475419Y0177530D01*
X0468679Y0177530D01*
X0468679Y0164932D01*
X0475379Y0164932D02*
X0482119Y0164932D01*
X0482119Y0177530D01*
X0475379Y0177530D01*
X0475379Y0164932D01*
X0482129Y0161613D02*
X0489869Y0161613D01*
X0489869Y0177149D01*
X0482129Y0177149D01*
X0482129Y0161613D01*
X0489829Y0161613D02*
X0497569Y0161613D01*
X0497569Y0177149D01*
X0489829Y0177149D01*
X0489829Y0161613D01*
X0497950Y0161301D02*
X0510548Y0161301D01*
X0510548Y0154561D01*
X0497950Y0154561D01*
X0497950Y0161301D01*
X0499141Y0161311D02*
X0499141Y0169051D01*
X0522157Y0169051D01*
X0522157Y0161311D01*
X0499141Y0161311D01*
X0499131Y0169111D02*
X0499131Y0176851D01*
X0514667Y0176851D01*
X0514667Y0169111D01*
X0499131Y0169111D01*
X0499257Y0177511D02*
X0476241Y0177511D01*
X0476241Y0185251D01*
X0499257Y0185251D01*
X0499257Y0177511D01*
X0481619Y0188563D02*
X0473879Y0188563D01*
X0473879Y0204099D01*
X0481619Y0204099D01*
X0481619Y0188563D01*
X0473767Y0188711D02*
X0473767Y0196451D01*
X0458231Y0196451D01*
X0458231Y0188711D01*
X0473767Y0188711D01*
X0473767Y0196461D02*
X0458231Y0196461D01*
X0458231Y0204201D01*
X0473767Y0204201D01*
X0473767Y0196461D01*
X0471700Y0206461D02*
X0471700Y0213201D01*
X0484298Y0213201D01*
X0484298Y0206461D01*
X0471700Y0206461D01*
X0454598Y0204461D02*
X0454598Y0211201D01*
X0442000Y0211201D01*
X0442000Y0204461D01*
X0454598Y0204461D01*
X0459179Y0219995D02*
X0468419Y0219995D01*
X0468419Y0239467D01*
X0459179Y0239467D01*
X0459179Y0219995D01*
X0468379Y0219995D02*
X0477619Y0219995D01*
X0477619Y0239467D01*
X0468379Y0239467D01*
X0468379Y0219995D01*
X0477731Y0219261D02*
X0477731Y0227001D01*
X0493267Y0227001D01*
X0493267Y0219261D01*
X0477731Y0219261D01*
X0494163Y0219011D02*
X0494163Y0228251D01*
X0513635Y0228251D01*
X0513635Y0219011D01*
X0494163Y0219011D01*
X0494163Y0219001D02*
X0494163Y0210261D01*
X0513635Y0210261D01*
X0513635Y0219001D01*
X0494163Y0219001D01*
X0517029Y0211667D02*
X0526269Y0211667D01*
X0526269Y0192195D01*
X0517029Y0192195D01*
X0517029Y0211667D01*
X0461119Y0243595D02*
X0451879Y0243595D01*
X0451879Y0263067D01*
X0461119Y0263067D01*
X0461119Y0243595D01*
X0460372Y0272631D02*
X0463375Y0272631D01*
X0461873Y0272631D02*
X0461873Y0277135D01*
X0460372Y0275634D01*
X0458771Y0276384D02*
X0455768Y0273382D01*
X0456519Y0272631D01*
X0458020Y0272631D01*
X0458771Y0273382D01*
X0458771Y0276384D01*
X0458020Y0277135D01*
X0456519Y0277135D01*
X0455768Y0276384D01*
X0455768Y0273382D01*
X0454200Y0272631D02*
X0452699Y0274132D01*
X0452699Y0275634D01*
X0454200Y0277135D01*
X0452699Y0280131D02*
X0455701Y0280131D01*
X0457303Y0280131D02*
X0460305Y0280131D01*
X0461907Y0280131D02*
X0464909Y0280131D01*
X0461907Y0280131D02*
X0461907Y0280882D01*
X0464909Y0283884D01*
X0464909Y0284635D01*
X0461907Y0284635D01*
X0460305Y0284635D02*
X0457303Y0284635D01*
X0457303Y0280131D01*
X0457303Y0282383D02*
X0458804Y0282383D01*
X0455701Y0284635D02*
X0452699Y0284635D01*
X0452699Y0280131D01*
X0452699Y0282383D02*
X0454200Y0282383D01*
X0464976Y0272631D02*
X0467979Y0277135D01*
X0469580Y0276384D02*
X0470331Y0277135D01*
X0471832Y0277135D01*
X0472582Y0276384D01*
X0472582Y0275634D01*
X0469580Y0272631D01*
X0472582Y0272631D01*
X0474184Y0273382D02*
X0477186Y0276384D01*
X0477186Y0273382D01*
X0476436Y0272631D01*
X0474934Y0272631D01*
X0474184Y0273382D01*
X0474184Y0276384D01*
X0474934Y0277135D01*
X0476436Y0277135D01*
X0477186Y0276384D01*
X0478788Y0276384D02*
X0479538Y0277135D01*
X0481040Y0277135D01*
X0481790Y0276384D01*
X0481790Y0275634D01*
X0478788Y0272631D01*
X0481790Y0272631D01*
X0483392Y0272631D02*
X0486394Y0272631D01*
X0484893Y0272631D02*
X0484893Y0277135D01*
X0483392Y0275634D01*
X0481040Y0280131D02*
X0478788Y0280131D01*
X0478788Y0284635D01*
X0481040Y0284635D01*
X0481790Y0283884D01*
X0481790Y0283134D01*
X0481040Y0282383D01*
X0478788Y0282383D01*
X0481040Y0282383D02*
X0481790Y0281632D01*
X0481790Y0280882D01*
X0481040Y0280131D01*
X0477220Y0280131D02*
X0475718Y0280131D01*
X0476469Y0280131D02*
X0476469Y0284635D01*
X0475718Y0284635D02*
X0477220Y0284635D01*
X0474117Y0283884D02*
X0474117Y0280882D01*
X0473366Y0280131D01*
X0471115Y0280131D01*
X0471115Y0284635D01*
X0473366Y0284635D01*
X0474117Y0283884D01*
X0487996Y0283134D02*
X0487996Y0280131D01*
X0487996Y0282383D02*
X0490998Y0282383D01*
X0490998Y0283134D02*
X0490998Y0280131D01*
X0492599Y0280131D02*
X0492599Y0284635D01*
X0495602Y0284635D01*
X0497203Y0284635D02*
X0497203Y0280131D01*
X0500206Y0280131D01*
X0501807Y0280882D02*
X0502558Y0280131D01*
X0504059Y0280131D01*
X0504810Y0280882D01*
X0504810Y0281632D01*
X0504059Y0282383D01*
X0503309Y0282383D01*
X0504059Y0282383D02*
X0504810Y0283134D01*
X0504810Y0283884D01*
X0504059Y0284635D01*
X0502558Y0284635D01*
X0501807Y0283884D01*
X0500206Y0284635D02*
X0497203Y0284635D01*
X0497203Y0282383D02*
X0498705Y0282383D01*
X0494101Y0282383D02*
X0492599Y0282383D01*
X0490998Y0283134D02*
X0489497Y0284635D01*
X0487996Y0283134D01*
X0496436Y0275634D02*
X0497937Y0277135D01*
X0497937Y0272631D01*
X0496436Y0272631D02*
X0499439Y0272631D01*
X0501040Y0272631D02*
X0503292Y0272631D01*
X0504043Y0273382D01*
X0504043Y0274132D01*
X0503292Y0274883D01*
X0501040Y0274883D01*
X0501040Y0272631D02*
X0501040Y0277135D01*
X0503292Y0277135D01*
X0504043Y0276384D01*
X0504043Y0275634D01*
X0503292Y0274883D01*
X0505644Y0275634D02*
X0507145Y0277135D01*
X0507145Y0272631D01*
X0505644Y0272631D02*
X0508647Y0272631D01*
X0510248Y0272631D02*
X0511749Y0274132D01*
X0511749Y0275634D01*
X0510248Y0277135D01*
X0494851Y0275634D02*
X0494101Y0275634D01*
X0492599Y0274132D01*
X0492599Y0272631D02*
X0492599Y0275634D01*
X0327405Y0261883D02*
X0324403Y0261883D01*
X0326655Y0264135D01*
X0326655Y0259631D01*
X0321300Y0261883D02*
X0319799Y0261883D01*
X0319799Y0259631D02*
X0319799Y0264135D01*
X0322801Y0264135D01*
X0322751Y0227185D02*
X0319749Y0227185D01*
X0319749Y0222681D01*
X0319749Y0224933D02*
X0321250Y0224933D01*
X0324353Y0224933D02*
X0325854Y0225684D01*
X0326605Y0225684D01*
X0327355Y0224933D01*
X0327355Y0223432D01*
X0326605Y0222681D01*
X0325103Y0222681D01*
X0324353Y0223432D01*
X0324353Y0224933D02*
X0324353Y0227185D01*
X0327355Y0227185D01*
X0174069Y0177880D02*
X0174069Y0165282D01*
X0167329Y0165282D01*
X0167329Y0177880D01*
X0174069Y0177880D01*
X0167319Y0177880D02*
X0160579Y0177880D01*
X0160579Y0165282D01*
X0167319Y0165282D01*
X0167319Y0177880D01*
X0167329Y0165280D02*
X0174069Y0165280D01*
X0174069Y0152682D01*
X0167329Y0152682D01*
X0167329Y0165280D01*
X0166069Y0111830D02*
X0159329Y0111830D01*
X0159329Y0099232D01*
X0166069Y0099232D01*
X0166069Y0111830D01*
X0159319Y0111830D02*
X0152579Y0111830D01*
X0152579Y0099232D01*
X0159319Y0099232D01*
X0159319Y0111830D01*
X0159329Y0099230D02*
X0166069Y0099230D01*
X0166069Y0086632D01*
X0159329Y0086632D01*
X0159329Y0099230D01*
X0156829Y0086617D02*
X0166069Y0086617D01*
X0166069Y0067145D01*
X0156829Y0067145D01*
X0156829Y0086617D01*
X0156819Y0086617D02*
X0147579Y0086617D01*
X0147579Y0067145D01*
X0156819Y0067145D01*
X0156819Y0086617D01*
X0154429Y0062767D02*
X0163169Y0062767D01*
X0163169Y0043295D01*
X0154429Y0043295D01*
X0154429Y0062767D01*
X0154369Y0051417D02*
X0145629Y0051417D01*
X0145629Y0031945D01*
X0154369Y0031945D01*
X0154369Y0051417D01*
X0145635Y0040451D02*
X0145635Y0031711D01*
X0126163Y0031711D01*
X0126163Y0040451D01*
X0145635Y0040451D01*
X0126135Y0040451D02*
X0126135Y0031711D01*
X0106663Y0031711D01*
X0106663Y0040451D01*
X0126135Y0040451D01*
X0106685Y0040451D02*
X0106685Y0031711D01*
X0087213Y0031711D01*
X0087213Y0040451D01*
X0106685Y0040451D01*
X0085792Y0039374D02*
X0075406Y0039374D01*
X0075406Y0032788D02*
X0085792Y0032788D01*
X0177149Y0039032D02*
X0177899Y0038281D01*
X0179401Y0038281D01*
X0180151Y0039032D01*
X0180151Y0042034D01*
X0179401Y0042785D01*
X0177899Y0042785D01*
X0177149Y0042034D01*
X0177149Y0039032D01*
X0181753Y0039782D02*
X0184755Y0042785D01*
X0186357Y0041284D02*
X0187858Y0042785D01*
X0187858Y0038281D01*
X0186357Y0038281D02*
X0189359Y0038281D01*
X0184755Y0038281D02*
X0182503Y0040533D01*
X0181753Y0042785D02*
X0181753Y0038281D01*
X0203663Y0036181D02*
X0206665Y0031678D01*
X0208267Y0031678D02*
X0211269Y0034680D01*
X0211269Y0035431D01*
X0210518Y0036181D01*
X0209017Y0036181D01*
X0208267Y0035431D01*
X0206665Y0036181D02*
X0203663Y0031678D01*
X0208267Y0031678D02*
X0211269Y0031678D01*
X0215329Y0046613D02*
X0223069Y0046613D01*
X0223069Y0062149D01*
X0215329Y0062149D01*
X0215329Y0046613D01*
X0251729Y0050613D02*
X0251729Y0066149D01*
X0259469Y0066149D01*
X0259469Y0050613D01*
X0251729Y0050613D01*
X0262229Y0050713D02*
X0269969Y0050713D01*
X0269969Y0066249D01*
X0262229Y0066249D01*
X0262229Y0050713D01*
X0273063Y0047861D02*
X0273063Y0056601D01*
X0292535Y0056601D01*
X0292535Y0047861D01*
X0273063Y0047861D01*
X0273029Y0056495D02*
X0281769Y0056495D01*
X0281769Y0075967D01*
X0273029Y0075967D01*
X0273029Y0056495D01*
X0268235Y0072011D02*
X0248763Y0072011D01*
X0248763Y0080751D01*
X0268235Y0080751D01*
X0268235Y0072011D01*
X0274079Y0078295D02*
X0282819Y0078295D01*
X0282819Y0097767D01*
X0274079Y0097767D01*
X0274079Y0078295D01*
X0235419Y0069945D02*
X0226179Y0069945D01*
X0226179Y0089417D01*
X0235419Y0089417D01*
X0235419Y0069945D01*
X0226169Y0069945D02*
X0216929Y0069945D01*
X0216929Y0089417D01*
X0226169Y0089417D01*
X0226169Y0069945D01*
X0325329Y0102245D02*
X0334569Y0102245D01*
X0334569Y0121717D01*
X0325329Y0121717D01*
X0325329Y0102245D01*
X0334529Y0102245D02*
X0343269Y0102245D01*
X0343269Y0121717D01*
X0334529Y0121717D01*
X0334529Y0102245D01*
X0341679Y0093199D02*
X0349419Y0093199D01*
X0349419Y0077663D01*
X0341679Y0077663D01*
X0341679Y0093199D01*
X0341679Y0077649D02*
X0349419Y0077649D01*
X0349419Y0062113D01*
X0341679Y0062113D01*
X0341679Y0077649D01*
X0384650Y0084011D02*
X0384650Y0090751D01*
X0397248Y0090751D01*
X0397248Y0084011D01*
X0384650Y0084011D01*
X0397279Y0090799D02*
X0397279Y0075263D01*
X0405019Y0075263D01*
X0405019Y0090799D01*
X0397279Y0090799D01*
X0405029Y0090799D02*
X0412769Y0090799D01*
X0412769Y0075263D01*
X0405029Y0075263D01*
X0405029Y0090799D01*
X0418331Y0081451D02*
X0418331Y0073711D01*
X0433867Y0073711D01*
X0433867Y0081451D01*
X0418331Y0081451D01*
X0427000Y0081461D02*
X0427000Y0088201D01*
X0439598Y0088201D01*
X0439598Y0081461D01*
X0427000Y0081461D01*
X0433867Y0073751D02*
X0418331Y0073751D01*
X0418331Y0066011D01*
X0433867Y0066011D01*
X0433867Y0073751D01*
X0441406Y0068324D02*
X0451792Y0068324D01*
X0452579Y0072380D02*
X0459319Y0072380D01*
X0459319Y0059782D01*
X0452579Y0059782D01*
X0452579Y0072380D01*
X0463679Y0070882D02*
X0463679Y0083480D01*
X0470419Y0083480D01*
X0470419Y0070882D01*
X0463679Y0070882D01*
X0470429Y0067813D02*
X0478169Y0067813D01*
X0478169Y0083349D01*
X0470429Y0083349D01*
X0470429Y0067813D01*
X0478179Y0070649D02*
X0485919Y0070649D01*
X0485919Y0055113D01*
X0478179Y0055113D01*
X0478179Y0070649D01*
X0478181Y0070661D02*
X0478181Y0078401D01*
X0493717Y0078401D01*
X0493717Y0070661D01*
X0478181Y0070661D01*
X0485931Y0062851D02*
X0501467Y0062851D01*
X0501467Y0055111D01*
X0485931Y0055111D01*
X0485931Y0062851D01*
X0490667Y0053301D02*
X0475131Y0053301D01*
X0475131Y0045561D01*
X0490667Y0045561D01*
X0490667Y0053301D01*
X0457269Y0058530D02*
X0457269Y0045932D01*
X0450529Y0045932D01*
X0450529Y0058530D01*
X0457269Y0058530D01*
X0451792Y0061738D02*
X0441406Y0061738D01*
X0419275Y0060031D02*
X0419277Y0060168D01*
X0419283Y0060306D01*
X0419293Y0060443D01*
X0419307Y0060579D01*
X0419325Y0060716D01*
X0419347Y0060851D01*
X0419373Y0060986D01*
X0419402Y0061120D01*
X0419436Y0061254D01*
X0419473Y0061386D01*
X0419515Y0061517D01*
X0419560Y0061647D01*
X0419609Y0061775D01*
X0419661Y0061902D01*
X0419718Y0062027D01*
X0419777Y0062151D01*
X0419841Y0062273D01*
X0419908Y0062393D01*
X0419978Y0062511D01*
X0420052Y0062627D01*
X0420129Y0062741D01*
X0420210Y0062852D01*
X0420293Y0062961D01*
X0420380Y0063068D01*
X0420470Y0063171D01*
X0420563Y0063273D01*
X0420659Y0063371D01*
X0420757Y0063467D01*
X0420859Y0063560D01*
X0420962Y0063650D01*
X0421069Y0063737D01*
X0421178Y0063820D01*
X0421289Y0063901D01*
X0421403Y0063978D01*
X0421519Y0064052D01*
X0421637Y0064122D01*
X0421757Y0064189D01*
X0421879Y0064253D01*
X0422003Y0064312D01*
X0422128Y0064369D01*
X0422255Y0064421D01*
X0422383Y0064470D01*
X0422513Y0064515D01*
X0422644Y0064557D01*
X0422776Y0064594D01*
X0422910Y0064628D01*
X0423044Y0064657D01*
X0423179Y0064683D01*
X0423314Y0064705D01*
X0423451Y0064723D01*
X0423587Y0064737D01*
X0423724Y0064747D01*
X0423862Y0064753D01*
X0423999Y0064755D01*
X0424136Y0064753D01*
X0424274Y0064747D01*
X0424411Y0064737D01*
X0424547Y0064723D01*
X0424684Y0064705D01*
X0424819Y0064683D01*
X0424954Y0064657D01*
X0425088Y0064628D01*
X0425222Y0064594D01*
X0425354Y0064557D01*
X0425485Y0064515D01*
X0425615Y0064470D01*
X0425743Y0064421D01*
X0425870Y0064369D01*
X0425995Y0064312D01*
X0426119Y0064253D01*
X0426241Y0064189D01*
X0426361Y0064122D01*
X0426479Y0064052D01*
X0426595Y0063978D01*
X0426709Y0063901D01*
X0426820Y0063820D01*
X0426929Y0063737D01*
X0427036Y0063650D01*
X0427139Y0063560D01*
X0427241Y0063467D01*
X0427339Y0063371D01*
X0427435Y0063273D01*
X0427528Y0063171D01*
X0427618Y0063068D01*
X0427705Y0062961D01*
X0427788Y0062852D01*
X0427869Y0062741D01*
X0427946Y0062627D01*
X0428020Y0062511D01*
X0428090Y0062393D01*
X0428157Y0062273D01*
X0428221Y0062151D01*
X0428280Y0062027D01*
X0428337Y0061902D01*
X0428389Y0061775D01*
X0428438Y0061647D01*
X0428483Y0061517D01*
X0428525Y0061386D01*
X0428562Y0061254D01*
X0428596Y0061120D01*
X0428625Y0060986D01*
X0428651Y0060851D01*
X0428673Y0060716D01*
X0428691Y0060579D01*
X0428705Y0060443D01*
X0428715Y0060306D01*
X0428721Y0060168D01*
X0428723Y0060031D01*
X0428721Y0059894D01*
X0428715Y0059756D01*
X0428705Y0059619D01*
X0428691Y0059483D01*
X0428673Y0059346D01*
X0428651Y0059211D01*
X0428625Y0059076D01*
X0428596Y0058942D01*
X0428562Y0058808D01*
X0428525Y0058676D01*
X0428483Y0058545D01*
X0428438Y0058415D01*
X0428389Y0058287D01*
X0428337Y0058160D01*
X0428280Y0058035D01*
X0428221Y0057911D01*
X0428157Y0057789D01*
X0428090Y0057669D01*
X0428020Y0057551D01*
X0427946Y0057435D01*
X0427869Y0057321D01*
X0427788Y0057210D01*
X0427705Y0057101D01*
X0427618Y0056994D01*
X0427528Y0056891D01*
X0427435Y0056789D01*
X0427339Y0056691D01*
X0427241Y0056595D01*
X0427139Y0056502D01*
X0427036Y0056412D01*
X0426929Y0056325D01*
X0426820Y0056242D01*
X0426709Y0056161D01*
X0426595Y0056084D01*
X0426479Y0056010D01*
X0426361Y0055940D01*
X0426241Y0055873D01*
X0426119Y0055809D01*
X0425995Y0055750D01*
X0425870Y0055693D01*
X0425743Y0055641D01*
X0425615Y0055592D01*
X0425485Y0055547D01*
X0425354Y0055505D01*
X0425222Y0055468D01*
X0425088Y0055434D01*
X0424954Y0055405D01*
X0424819Y0055379D01*
X0424684Y0055357D01*
X0424547Y0055339D01*
X0424411Y0055325D01*
X0424274Y0055315D01*
X0424136Y0055309D01*
X0423999Y0055307D01*
X0423862Y0055309D01*
X0423724Y0055315D01*
X0423587Y0055325D01*
X0423451Y0055339D01*
X0423314Y0055357D01*
X0423179Y0055379D01*
X0423044Y0055405D01*
X0422910Y0055434D01*
X0422776Y0055468D01*
X0422644Y0055505D01*
X0422513Y0055547D01*
X0422383Y0055592D01*
X0422255Y0055641D01*
X0422128Y0055693D01*
X0422003Y0055750D01*
X0421879Y0055809D01*
X0421757Y0055873D01*
X0421637Y0055940D01*
X0421519Y0056010D01*
X0421403Y0056084D01*
X0421289Y0056161D01*
X0421178Y0056242D01*
X0421069Y0056325D01*
X0420962Y0056412D01*
X0420859Y0056502D01*
X0420757Y0056595D01*
X0420659Y0056691D01*
X0420563Y0056789D01*
X0420470Y0056891D01*
X0420380Y0056994D01*
X0420293Y0057101D01*
X0420210Y0057210D01*
X0420129Y0057321D01*
X0420052Y0057435D01*
X0419978Y0057551D01*
X0419908Y0057669D01*
X0419841Y0057789D01*
X0419777Y0057911D01*
X0419718Y0058035D01*
X0419661Y0058160D01*
X0419609Y0058287D01*
X0419560Y0058415D01*
X0419515Y0058545D01*
X0419473Y0058676D01*
X0419436Y0058808D01*
X0419402Y0058942D01*
X0419373Y0059076D01*
X0419347Y0059211D01*
X0419325Y0059346D01*
X0419307Y0059483D01*
X0419293Y0059619D01*
X0419283Y0059756D01*
X0419277Y0059894D01*
X0419275Y0060031D01*
X0438956Y0052174D02*
X0449342Y0052174D01*
X0449342Y0045588D02*
X0438956Y0045588D01*
X0449129Y0080382D02*
X0455869Y0080382D01*
X0455869Y0092980D01*
X0449129Y0092980D01*
X0449129Y0080382D01*
X0462763Y0083511D02*
X0462763Y0092751D01*
X0482235Y0092751D01*
X0482235Y0083511D01*
X0462763Y0083511D01*
X0457600Y0092761D02*
X0457600Y0099501D01*
X0470198Y0099501D01*
X0470198Y0092761D01*
X0457600Y0092761D01*
X0455848Y0093011D02*
X0443250Y0093011D01*
X0443250Y0099751D01*
X0455848Y0099751D01*
X0455848Y0093011D01*
X0459248Y0100361D02*
X0446650Y0100361D01*
X0446650Y0107101D01*
X0459248Y0107101D01*
X0459248Y0100361D01*
X0470200Y0099501D02*
X0470200Y0092761D01*
X0482798Y0092761D01*
X0482798Y0099501D01*
X0470200Y0099501D01*
X0482829Y0100399D02*
X0490569Y0100399D01*
X0490569Y0084863D01*
X0482829Y0084863D01*
X0482829Y0100399D01*
X0490579Y0100367D02*
X0499819Y0100367D01*
X0499819Y0080895D01*
X0490579Y0080895D01*
X0490579Y0100367D01*
X0499829Y0100399D02*
X0507569Y0100399D01*
X0507569Y0084863D01*
X0499829Y0084863D01*
X0499829Y0100399D01*
X0507579Y0096649D02*
X0515319Y0096649D01*
X0515319Y0081113D01*
X0507579Y0081113D01*
X0507579Y0096649D01*
X0505895Y0111331D02*
X0505895Y0112832D01*
X0505895Y0112082D02*
X0510399Y0112082D01*
X0510399Y0112832D02*
X0510399Y0111331D01*
X0509648Y0114400D02*
X0506646Y0114400D01*
X0505895Y0115151D01*
X0505895Y0116652D01*
X0506646Y0117403D01*
X0507396Y0119004D02*
X0505895Y0120506D01*
X0510399Y0120506D01*
X0510399Y0122007D02*
X0510399Y0119004D01*
X0509648Y0117403D02*
X0510399Y0116652D01*
X0510399Y0115151D01*
X0509648Y0114400D01*
X0510399Y0123608D02*
X0510399Y0126611D01*
X0510399Y0125110D02*
X0505895Y0125110D01*
X0507396Y0123608D01*
X0507181Y0132261D02*
X0507181Y0140001D01*
X0522717Y0140001D01*
X0522717Y0132261D01*
X0507181Y0132261D01*
X0510100Y0140061D02*
X0510100Y0146801D01*
X0522698Y0146801D01*
X0522698Y0140061D01*
X0510100Y0140061D01*
X0507181Y0146811D02*
X0507181Y0154551D01*
X0522717Y0154551D01*
X0522717Y0146811D01*
X0507181Y0146811D01*
X0450369Y0144930D02*
X0450369Y0132332D01*
X0443629Y0132332D01*
X0443629Y0144930D01*
X0450369Y0144930D01*
X0450369Y0132330D02*
X0443629Y0132330D01*
X0443629Y0119732D01*
X0450369Y0119732D01*
X0450369Y0132330D01*
X0439617Y0124951D02*
X0439617Y0117211D01*
X0424081Y0117211D01*
X0424081Y0124951D01*
X0439617Y0124951D01*
X0443629Y0119730D02*
X0450369Y0119730D01*
X0450369Y0107132D01*
X0443629Y0107132D01*
X0443629Y0119730D01*
X0439598Y0117201D02*
X0439598Y0110461D01*
X0427000Y0110461D01*
X0427000Y0117201D01*
X0439598Y0117201D01*
X0439598Y0110451D02*
X0427000Y0110451D01*
X0427000Y0103711D01*
X0439598Y0103711D01*
X0439598Y0110451D01*
X0439617Y0103701D02*
X0424081Y0103701D01*
X0424081Y0095961D01*
X0439617Y0095961D01*
X0439617Y0103701D01*
X0439617Y0095951D02*
X0424081Y0095951D01*
X0424081Y0088211D01*
X0439617Y0088211D01*
X0439617Y0095951D01*
X0342167Y0121811D02*
X0326631Y0121811D01*
X0326631Y0129551D01*
X0342167Y0129551D01*
X0342167Y0121811D01*
D11*
X0354049Y0129931D02*
X0354049Y0103531D01*
X0368649Y0103531D01*
X0368649Y0105731D01*
X0387499Y0106381D02*
X0387499Y0098781D01*
X0389749Y0101081D02*
X0392249Y0104581D01*
X0389749Y0104581D01*
X0389749Y0101081D01*
X0389749Y0101291D02*
X0389898Y0101291D01*
X0389749Y0101889D02*
X0390326Y0101889D01*
X0390753Y0102488D02*
X0389749Y0102488D01*
X0389749Y0103086D02*
X0391181Y0103086D01*
X0391608Y0103685D02*
X0389749Y0103685D01*
X0389749Y0104283D02*
X0392036Y0104283D01*
X0387499Y0106381D02*
X0387568Y0106383D01*
X0387636Y0106389D01*
X0387704Y0106399D01*
X0387771Y0106412D01*
X0387837Y0106430D01*
X0387902Y0106451D01*
X0387966Y0106476D01*
X0388028Y0106504D01*
X0388089Y0106536D01*
X0388148Y0106571D01*
X0388204Y0106610D01*
X0388259Y0106652D01*
X0388310Y0106697D01*
X0388360Y0106745D01*
X0388406Y0106795D01*
X0388449Y0106848D01*
X0388490Y0106904D01*
X0388527Y0106961D01*
X0388560Y0107021D01*
X0388591Y0107083D01*
X0388617Y0107146D01*
X0388640Y0107210D01*
X0388660Y0107276D01*
X0388675Y0107343D01*
X0388687Y0107410D01*
X0388695Y0107478D01*
X0388699Y0107547D01*
X0388699Y0107615D01*
X0388695Y0107684D01*
X0388687Y0107752D01*
X0388675Y0107819D01*
X0388660Y0107886D01*
X0388640Y0107952D01*
X0388617Y0108016D01*
X0388591Y0108079D01*
X0388560Y0108141D01*
X0388527Y0108201D01*
X0388490Y0108258D01*
X0388449Y0108314D01*
X0388406Y0108367D01*
X0388360Y0108417D01*
X0388310Y0108465D01*
X0388259Y0108510D01*
X0388204Y0108552D01*
X0388148Y0108591D01*
X0388089Y0108626D01*
X0388028Y0108658D01*
X0387966Y0108686D01*
X0387902Y0108711D01*
X0387837Y0108732D01*
X0387771Y0108750D01*
X0387704Y0108763D01*
X0387636Y0108773D01*
X0387568Y0108779D01*
X0387499Y0108781D01*
X0387499Y0116381D01*
X0407499Y0116381D02*
X0407499Y0098781D01*
X0410149Y0096631D02*
X0410149Y0093431D01*
X0412349Y0093431D01*
X0419149Y0093431D02*
X0421349Y0093431D01*
X0421349Y0096631D01*
X0421449Y0118081D02*
X0421449Y0121281D01*
X0419249Y0121281D01*
X0412449Y0121281D02*
X0410249Y0121281D01*
X0410249Y0118081D01*
X0409887Y0135881D02*
X0410699Y0135881D01*
X0409887Y0135881D02*
X0409887Y0155081D01*
X0410699Y0155081D01*
X0408161Y0155081D02*
X0407349Y0155081D01*
X0408161Y0155081D02*
X0408161Y0135881D01*
X0407349Y0135881D01*
X0397949Y0135881D02*
X0397137Y0135881D01*
X0397137Y0155081D01*
X0397949Y0155081D01*
X0397949Y0162781D02*
X0397137Y0162781D01*
X0397137Y0181981D01*
X0397949Y0181981D01*
X0407349Y0181981D02*
X0408161Y0181981D01*
X0408161Y0162781D01*
X0407349Y0162781D01*
X0409887Y0162781D02*
X0410699Y0162781D01*
X0409887Y0162781D02*
X0409887Y0181981D01*
X0410699Y0181981D01*
X0420099Y0181981D02*
X0420911Y0181981D01*
X0420911Y0162781D01*
X0420099Y0162781D01*
X0420099Y0155081D02*
X0420911Y0155081D01*
X0420911Y0135881D01*
X0420099Y0135881D01*
X0385649Y0154531D02*
X0385649Y0161331D01*
X0380949Y0161331D02*
X0378349Y0161331D01*
X0373649Y0159131D02*
X0373649Y0150231D01*
X0362699Y0154281D02*
X0323699Y0154281D01*
X0323699Y0149031D01*
X0323768Y0149029D01*
X0323836Y0149023D01*
X0323904Y0149013D01*
X0323971Y0149000D01*
X0324037Y0148982D01*
X0324102Y0148961D01*
X0324166Y0148936D01*
X0324228Y0148908D01*
X0324289Y0148876D01*
X0324348Y0148841D01*
X0324404Y0148802D01*
X0324459Y0148760D01*
X0324510Y0148715D01*
X0324560Y0148667D01*
X0324606Y0148617D01*
X0324649Y0148564D01*
X0324690Y0148508D01*
X0324727Y0148451D01*
X0324760Y0148391D01*
X0324791Y0148329D01*
X0324817Y0148266D01*
X0324840Y0148202D01*
X0324860Y0148136D01*
X0324875Y0148069D01*
X0324887Y0148002D01*
X0324895Y0147934D01*
X0324899Y0147865D01*
X0324899Y0147797D01*
X0324895Y0147728D01*
X0324887Y0147660D01*
X0324875Y0147593D01*
X0324860Y0147526D01*
X0324840Y0147460D01*
X0324817Y0147396D01*
X0324791Y0147333D01*
X0324760Y0147271D01*
X0324727Y0147211D01*
X0324690Y0147154D01*
X0324649Y0147098D01*
X0324606Y0147045D01*
X0324560Y0146995D01*
X0324510Y0146947D01*
X0324459Y0146902D01*
X0324404Y0146860D01*
X0324348Y0146821D01*
X0324289Y0146786D01*
X0324228Y0146754D01*
X0324166Y0146726D01*
X0324102Y0146701D01*
X0324037Y0146680D01*
X0323971Y0146662D01*
X0323904Y0146649D01*
X0323836Y0146639D01*
X0323768Y0146633D01*
X0323699Y0146631D01*
X0323699Y0141381D01*
X0362699Y0141381D01*
X0362699Y0154281D01*
X0363199Y0168981D02*
X0359699Y0168981D01*
X0363199Y0168981D02*
X0363199Y0170581D01*
X0363199Y0172181D01*
X0361998Y0171881D02*
X0361994Y0171813D01*
X0361995Y0171744D01*
X0361999Y0171676D01*
X0362007Y0171608D01*
X0362018Y0171540D01*
X0362034Y0171473D01*
X0362054Y0171407D01*
X0362077Y0171343D01*
X0362104Y0171280D01*
X0362134Y0171218D01*
X0362168Y0171159D01*
X0362205Y0171101D01*
X0362246Y0171046D01*
X0362289Y0170993D01*
X0362336Y0170942D01*
X0362385Y0170895D01*
X0362437Y0170850D01*
X0362492Y0170808D01*
X0362548Y0170769D01*
X0362607Y0170734D01*
X0362668Y0170702D01*
X0362730Y0170674D01*
X0362795Y0170649D01*
X0362860Y0170628D01*
X0362926Y0170611D01*
X0362994Y0170598D01*
X0363061Y0170588D01*
X0363130Y0170583D01*
X0363198Y0170581D01*
X0358899Y0174581D02*
X0355699Y0174581D01*
X0351399Y0172181D02*
X0351399Y0168981D01*
X0354899Y0168981D01*
X0354899Y0182281D02*
X0351399Y0182281D01*
X0351399Y0185481D01*
X0355699Y0187881D02*
X0358899Y0187881D01*
X0363199Y0185481D02*
X0363199Y0183881D01*
X0363199Y0182281D01*
X0359699Y0182281D01*
X0361998Y0185181D02*
X0361994Y0185113D01*
X0361995Y0185044D01*
X0361999Y0184976D01*
X0362007Y0184908D01*
X0362018Y0184840D01*
X0362034Y0184773D01*
X0362054Y0184707D01*
X0362077Y0184643D01*
X0362104Y0184580D01*
X0362134Y0184518D01*
X0362168Y0184459D01*
X0362205Y0184401D01*
X0362246Y0184346D01*
X0362289Y0184293D01*
X0362336Y0184242D01*
X0362385Y0184195D01*
X0362437Y0184150D01*
X0362492Y0184108D01*
X0362548Y0184069D01*
X0362607Y0184034D01*
X0362668Y0184002D01*
X0362730Y0183974D01*
X0362795Y0183949D01*
X0362860Y0183928D01*
X0362926Y0183911D01*
X0362994Y0183898D01*
X0363061Y0183888D01*
X0363130Y0183883D01*
X0363198Y0183881D01*
X0345036Y0190278D02*
X0337162Y0190278D01*
X0337162Y0196184D02*
X0345036Y0196184D01*
X0318680Y0192215D02*
X0318680Y0205931D01*
X0312499Y0203681D02*
X0311499Y0203681D01*
X0311499Y0197431D01*
X0309999Y0197431D01*
X0309999Y0195431D02*
X0312499Y0195431D01*
X0312499Y0203681D01*
X0309999Y0199931D02*
X0289999Y0199931D01*
X0289999Y0195431D01*
X0309999Y0195431D01*
X0309999Y0199931D01*
X0318680Y0192215D02*
X0216318Y0192215D01*
X0216318Y0205931D01*
X0222499Y0203681D02*
X0223499Y0203681D01*
X0223499Y0197431D01*
X0224999Y0197431D01*
X0224999Y0199931D01*
X0244999Y0199931D01*
X0244999Y0195431D01*
X0224999Y0195431D01*
X0222499Y0195431D01*
X0222499Y0203681D01*
X0224999Y0197431D02*
X0224999Y0195431D01*
X0216318Y0213931D02*
X0216318Y0227648D01*
X0318680Y0227648D01*
X0318680Y0213931D01*
X0312499Y0216181D02*
X0311499Y0216181D01*
X0311499Y0222431D01*
X0309999Y0222431D01*
X0309999Y0219931D01*
X0289999Y0219931D01*
X0289999Y0224431D01*
X0309999Y0224431D01*
X0312499Y0224431D01*
X0312499Y0216181D01*
X0309999Y0222431D02*
X0309999Y0224431D01*
X0318630Y0228765D02*
X0318630Y0242481D01*
X0312449Y0240231D02*
X0311449Y0240231D01*
X0311449Y0233981D01*
X0309949Y0233981D01*
X0309949Y0231981D02*
X0312449Y0231981D01*
X0312449Y0240231D01*
X0309949Y0236481D02*
X0289949Y0236481D01*
X0289949Y0231981D01*
X0309949Y0231981D01*
X0309949Y0236481D01*
X0318630Y0228765D02*
X0216268Y0228765D01*
X0216268Y0242481D01*
X0222449Y0240231D02*
X0223449Y0240231D01*
X0223449Y0233981D01*
X0224949Y0233981D01*
X0224949Y0236481D01*
X0244949Y0236481D01*
X0244949Y0231981D01*
X0224949Y0231981D01*
X0222449Y0231981D01*
X0222449Y0240231D01*
X0224949Y0233981D02*
X0224949Y0231981D01*
X0224999Y0224431D02*
X0222499Y0224431D01*
X0222499Y0216181D01*
X0223499Y0216181D01*
X0223499Y0222431D01*
X0224999Y0222431D01*
X0224999Y0224431D02*
X0224999Y0219931D01*
X0244999Y0219931D01*
X0244999Y0224431D01*
X0224999Y0224431D01*
X0199899Y0236731D02*
X0199899Y0237931D01*
X0199899Y0236731D02*
X0185699Y0236731D01*
X0185697Y0236800D01*
X0185691Y0236868D01*
X0185681Y0236936D01*
X0185668Y0237003D01*
X0185650Y0237069D01*
X0185629Y0237134D01*
X0185604Y0237198D01*
X0185576Y0237260D01*
X0185544Y0237321D01*
X0185509Y0237380D01*
X0185470Y0237436D01*
X0185428Y0237491D01*
X0185383Y0237542D01*
X0185335Y0237592D01*
X0185285Y0237638D01*
X0185232Y0237681D01*
X0185176Y0237722D01*
X0185119Y0237759D01*
X0185059Y0237792D01*
X0184997Y0237823D01*
X0184934Y0237849D01*
X0184870Y0237872D01*
X0184804Y0237892D01*
X0184737Y0237907D01*
X0184670Y0237919D01*
X0184602Y0237927D01*
X0184533Y0237931D01*
X0184465Y0237931D01*
X0184396Y0237927D01*
X0184328Y0237919D01*
X0184261Y0237907D01*
X0184194Y0237892D01*
X0184128Y0237872D01*
X0184064Y0237849D01*
X0184001Y0237823D01*
X0183939Y0237792D01*
X0183879Y0237759D01*
X0183822Y0237722D01*
X0183766Y0237681D01*
X0183713Y0237638D01*
X0183663Y0237592D01*
X0183615Y0237542D01*
X0183570Y0237491D01*
X0183528Y0237436D01*
X0183489Y0237380D01*
X0183454Y0237321D01*
X0183422Y0237260D01*
X0183394Y0237198D01*
X0183369Y0237134D01*
X0183348Y0237069D01*
X0183330Y0237003D01*
X0183317Y0236936D01*
X0183307Y0236868D01*
X0183301Y0236800D01*
X0183299Y0236731D01*
X0169099Y0236731D01*
X0169099Y0237931D01*
X0194049Y0240281D02*
X0194049Y0242781D01*
X0197549Y0240281D01*
X0194049Y0240281D01*
X0194049Y0240744D02*
X0196901Y0240744D01*
X0196063Y0241342D02*
X0194049Y0241342D01*
X0194049Y0241941D02*
X0195225Y0241941D01*
X0194387Y0242539D02*
X0194049Y0242539D01*
X0216268Y0250481D02*
X0216268Y0264198D01*
X0318630Y0264198D01*
X0318630Y0250481D01*
X0312449Y0252731D02*
X0311449Y0252731D01*
X0311449Y0258981D01*
X0309949Y0258981D01*
X0309949Y0256481D01*
X0289949Y0256481D01*
X0289949Y0260981D01*
X0309949Y0260981D01*
X0312449Y0260981D01*
X0312449Y0252731D01*
X0309949Y0258981D02*
X0309949Y0260981D01*
X0339799Y0248481D02*
X0339799Y0242981D01*
X0354799Y0242981D01*
X0354799Y0243981D01*
X0359799Y0247481D02*
X0359799Y0248481D01*
X0364799Y0243981D02*
X0364799Y0242981D01*
X0379799Y0242981D01*
X0379799Y0248481D01*
X0379799Y0237981D02*
X0364799Y0237981D01*
X0364799Y0236981D01*
X0359799Y0233481D02*
X0359799Y0232481D01*
X0354799Y0236981D02*
X0354799Y0237981D01*
X0339799Y0237981D01*
X0339799Y0232481D01*
X0379799Y0232481D02*
X0379799Y0237981D01*
X0397137Y0208931D02*
X0397949Y0208931D01*
X0397137Y0208931D02*
X0397137Y0189731D01*
X0397949Y0189731D01*
X0407349Y0189731D02*
X0408161Y0189731D01*
X0408161Y0208931D01*
X0407349Y0208931D01*
X0409887Y0208931D02*
X0410699Y0208931D01*
X0409887Y0208931D02*
X0409887Y0189731D01*
X0410699Y0189731D01*
X0420099Y0189731D02*
X0420911Y0189731D01*
X0420911Y0208931D01*
X0420099Y0208931D01*
X0459599Y0210281D02*
X0459599Y0212881D01*
X0459599Y0217581D02*
X0466399Y0217581D01*
X0470699Y0205581D02*
X0461799Y0205581D01*
X0496249Y0208931D02*
X0507049Y0208931D01*
X0502649Y0194131D02*
X0506149Y0191631D01*
X0502649Y0191631D01*
X0502649Y0194131D01*
X0502649Y0194060D02*
X0502749Y0194060D01*
X0502649Y0193461D02*
X0503587Y0193461D01*
X0504424Y0192863D02*
X0502649Y0192863D01*
X0502649Y0192264D02*
X0505262Y0192264D01*
X0506100Y0191666D02*
X0502649Y0191666D01*
X0502849Y0189331D02*
X0507049Y0189331D01*
X0502849Y0189331D02*
X0502847Y0189400D01*
X0502841Y0189468D01*
X0502831Y0189536D01*
X0502818Y0189603D01*
X0502800Y0189669D01*
X0502779Y0189734D01*
X0502754Y0189798D01*
X0502726Y0189860D01*
X0502694Y0189921D01*
X0502659Y0189980D01*
X0502620Y0190036D01*
X0502578Y0190091D01*
X0502533Y0190142D01*
X0502485Y0190192D01*
X0502435Y0190238D01*
X0502382Y0190281D01*
X0502326Y0190322D01*
X0502269Y0190359D01*
X0502209Y0190392D01*
X0502147Y0190423D01*
X0502084Y0190449D01*
X0502020Y0190472D01*
X0501954Y0190492D01*
X0501887Y0190507D01*
X0501820Y0190519D01*
X0501752Y0190527D01*
X0501683Y0190531D01*
X0501615Y0190531D01*
X0501546Y0190527D01*
X0501478Y0190519D01*
X0501411Y0190507D01*
X0501344Y0190492D01*
X0501278Y0190472D01*
X0501214Y0190449D01*
X0501151Y0190423D01*
X0501089Y0190392D01*
X0501029Y0190359D01*
X0500972Y0190322D01*
X0500916Y0190281D01*
X0500863Y0190238D01*
X0500813Y0190192D01*
X0500765Y0190142D01*
X0500720Y0190091D01*
X0500678Y0190036D01*
X0500639Y0189980D01*
X0500604Y0189921D01*
X0500572Y0189860D01*
X0500544Y0189798D01*
X0500519Y0189734D01*
X0500498Y0189669D01*
X0500480Y0189603D01*
X0500467Y0189536D01*
X0500457Y0189468D01*
X0500451Y0189400D01*
X0500449Y0189331D01*
X0496249Y0189331D01*
X0500449Y0189331D02*
X0500451Y0189400D01*
X0500457Y0189468D01*
X0500467Y0189536D01*
X0500480Y0189603D01*
X0500498Y0189669D01*
X0500519Y0189734D01*
X0500544Y0189798D01*
X0500572Y0189860D01*
X0500604Y0189921D01*
X0500639Y0189980D01*
X0500678Y0190036D01*
X0500720Y0190091D01*
X0500765Y0190142D01*
X0500813Y0190192D01*
X0500863Y0190238D01*
X0500916Y0190281D01*
X0500972Y0190322D01*
X0501029Y0190359D01*
X0501089Y0190392D01*
X0501151Y0190423D01*
X0501214Y0190449D01*
X0501278Y0190472D01*
X0501344Y0190492D01*
X0501411Y0190507D01*
X0501478Y0190519D01*
X0501546Y0190527D01*
X0501615Y0190531D01*
X0501683Y0190531D01*
X0501752Y0190527D01*
X0501820Y0190519D01*
X0501887Y0190507D01*
X0501954Y0190492D01*
X0502020Y0190472D01*
X0502084Y0190449D01*
X0502147Y0190423D01*
X0502209Y0190392D01*
X0502269Y0190359D01*
X0502326Y0190322D01*
X0502382Y0190281D01*
X0502435Y0190238D01*
X0502485Y0190192D01*
X0502533Y0190142D01*
X0502578Y0190091D01*
X0502620Y0190036D01*
X0502659Y0189980D01*
X0502694Y0189921D01*
X0502726Y0189860D01*
X0502754Y0189798D01*
X0502779Y0189734D01*
X0502800Y0189669D01*
X0502818Y0189603D01*
X0502831Y0189536D01*
X0502841Y0189468D01*
X0502847Y0189400D01*
X0502849Y0189331D01*
X0499749Y0150131D02*
X0495749Y0150131D01*
X0499749Y0150131D02*
X0499749Y0146131D01*
X0462549Y0150131D02*
X0458549Y0146131D01*
X0458549Y0150131D01*
X0462549Y0150131D01*
X0462188Y0149770D02*
X0458549Y0149770D01*
X0458549Y0149171D02*
X0461589Y0149171D01*
X0460991Y0148573D02*
X0458549Y0148573D01*
X0458549Y0147974D02*
X0460392Y0147974D01*
X0459794Y0147376D02*
X0458549Y0147376D01*
X0458549Y0146777D02*
X0459195Y0146777D01*
X0458597Y0146179D02*
X0458549Y0146179D01*
X0458549Y0112931D02*
X0458549Y0108931D01*
X0462549Y0108931D01*
X0495749Y0108931D02*
X0499749Y0108931D01*
X0499749Y0112931D01*
X0467599Y0055231D02*
X0458699Y0055231D01*
X0469799Y0050531D02*
X0469799Y0047931D01*
X0469799Y0043231D02*
X0462999Y0043231D01*
X0373349Y0053831D02*
X0373349Y0092831D01*
X0368099Y0092831D01*
X0368097Y0092762D01*
X0368091Y0092694D01*
X0368081Y0092626D01*
X0368068Y0092559D01*
X0368050Y0092493D01*
X0368029Y0092428D01*
X0368004Y0092364D01*
X0367976Y0092302D01*
X0367944Y0092241D01*
X0367909Y0092182D01*
X0367870Y0092126D01*
X0367828Y0092071D01*
X0367783Y0092020D01*
X0367735Y0091970D01*
X0367685Y0091924D01*
X0367632Y0091881D01*
X0367576Y0091840D01*
X0367519Y0091803D01*
X0367459Y0091770D01*
X0367397Y0091739D01*
X0367334Y0091713D01*
X0367270Y0091690D01*
X0367204Y0091670D01*
X0367137Y0091655D01*
X0367070Y0091643D01*
X0367002Y0091635D01*
X0366933Y0091631D01*
X0366865Y0091631D01*
X0366796Y0091635D01*
X0366728Y0091643D01*
X0366661Y0091655D01*
X0366594Y0091670D01*
X0366528Y0091690D01*
X0366464Y0091713D01*
X0366401Y0091739D01*
X0366339Y0091770D01*
X0366279Y0091803D01*
X0366222Y0091840D01*
X0366166Y0091881D01*
X0366113Y0091924D01*
X0366063Y0091970D01*
X0366015Y0092020D01*
X0365970Y0092071D01*
X0365928Y0092126D01*
X0365889Y0092182D01*
X0365854Y0092241D01*
X0365822Y0092302D01*
X0365794Y0092364D01*
X0365769Y0092428D01*
X0365748Y0092493D01*
X0365730Y0092559D01*
X0365717Y0092626D01*
X0365707Y0092694D01*
X0365701Y0092762D01*
X0365699Y0092831D01*
X0360449Y0092831D01*
X0360449Y0053831D01*
X0373349Y0053831D01*
X0328969Y0057367D02*
X0303929Y0057367D01*
X0303929Y0075595D01*
X0324969Y0075595D01*
X0328969Y0075595D01*
X0328969Y0057367D01*
X0326699Y0061481D02*
X0323199Y0063981D01*
X0323199Y0061481D01*
X0326699Y0061481D01*
X0326268Y0061789D02*
X0323199Y0061789D01*
X0323199Y0062387D02*
X0325430Y0062387D01*
X0324592Y0062986D02*
X0323199Y0062986D01*
X0323199Y0063584D02*
X0323754Y0063584D01*
X0328919Y0077017D02*
X0303879Y0077017D01*
X0303879Y0095245D01*
X0324919Y0095245D01*
X0328919Y0095245D01*
X0328919Y0077017D01*
X0326649Y0081131D02*
X0323149Y0083631D01*
X0323149Y0081131D01*
X0326649Y0081131D01*
X0326077Y0081540D02*
X0323149Y0081540D01*
X0323149Y0082138D02*
X0325239Y0082138D01*
X0324401Y0082737D02*
X0323149Y0082737D01*
X0323149Y0083335D02*
X0323563Y0083335D01*
X0361649Y0090831D02*
X0365149Y0088331D01*
X0365149Y0090831D01*
X0361649Y0090831D01*
X0362088Y0090517D02*
X0365149Y0090517D01*
X0365149Y0089919D02*
X0362926Y0089919D01*
X0363764Y0089320D02*
X0365149Y0089320D01*
X0365149Y0088722D02*
X0364602Y0088722D01*
X0314799Y0103531D02*
X0314799Y0129931D01*
X0300199Y0129931D01*
X0300199Y0127731D01*
X0297683Y0139274D02*
X0311928Y0139274D01*
X0317880Y0139274D02*
X0319180Y0139274D01*
X0319180Y0169589D01*
X0317880Y0169589D01*
X0311928Y0169589D02*
X0297683Y0169589D01*
X0291849Y0169589D02*
X0287762Y0169589D01*
X0282006Y0169589D02*
X0277723Y0169589D01*
X0272006Y0169589D02*
X0267723Y0169589D01*
X0262006Y0169589D02*
X0259337Y0169589D01*
X0259337Y0139274D01*
X0262006Y0139274D01*
X0267723Y0139274D02*
X0272006Y0139274D01*
X0277723Y0139274D02*
X0282006Y0139274D01*
X0287762Y0139274D02*
X0291849Y0139274D01*
X0325699Y0142581D02*
X0328199Y0146081D01*
X0325699Y0146081D01*
X0325699Y0142581D01*
X0325699Y0142588D02*
X0325704Y0142588D01*
X0325699Y0143186D02*
X0326131Y0143186D01*
X0326559Y0143785D02*
X0325699Y0143785D01*
X0325699Y0144383D02*
X0326986Y0144383D01*
X0327414Y0144982D02*
X0325699Y0144982D01*
X0325699Y0145580D02*
X0327841Y0145580D01*
X0354049Y0129931D02*
X0368649Y0129931D01*
X0368649Y0127731D01*
X0314799Y0103531D02*
X0300199Y0103531D01*
X0300199Y0105731D01*
X0267299Y0102031D02*
X0267299Y0101219D01*
X0248099Y0101219D01*
X0248099Y0102031D01*
X0248099Y0100343D02*
X0248099Y0099531D01*
X0248099Y0100343D02*
X0267299Y0100343D01*
X0267299Y0099531D01*
X0267299Y0090131D02*
X0267299Y0089319D01*
X0248099Y0089319D01*
X0248099Y0090131D01*
X0207099Y0109981D02*
X0193299Y0109981D01*
X0193297Y0109912D01*
X0193291Y0109844D01*
X0193281Y0109776D01*
X0193268Y0109709D01*
X0193250Y0109643D01*
X0193229Y0109578D01*
X0193204Y0109514D01*
X0193176Y0109452D01*
X0193144Y0109391D01*
X0193109Y0109332D01*
X0193070Y0109276D01*
X0193028Y0109221D01*
X0192983Y0109170D01*
X0192935Y0109120D01*
X0192885Y0109074D01*
X0192832Y0109031D01*
X0192776Y0108990D01*
X0192719Y0108953D01*
X0192659Y0108920D01*
X0192597Y0108889D01*
X0192534Y0108863D01*
X0192470Y0108840D01*
X0192404Y0108820D01*
X0192337Y0108805D01*
X0192270Y0108793D01*
X0192202Y0108785D01*
X0192133Y0108781D01*
X0192065Y0108781D01*
X0191996Y0108785D01*
X0191928Y0108793D01*
X0191861Y0108805D01*
X0191794Y0108820D01*
X0191728Y0108840D01*
X0191664Y0108863D01*
X0191601Y0108889D01*
X0191539Y0108920D01*
X0191479Y0108953D01*
X0191422Y0108990D01*
X0191366Y0109031D01*
X0191313Y0109074D01*
X0191263Y0109120D01*
X0191215Y0109170D01*
X0191170Y0109221D01*
X0191128Y0109276D01*
X0191089Y0109332D01*
X0191054Y0109391D01*
X0191022Y0109452D01*
X0190994Y0109514D01*
X0190969Y0109578D01*
X0190948Y0109643D01*
X0190930Y0109709D01*
X0190917Y0109776D01*
X0190907Y0109844D01*
X0190901Y0109912D01*
X0190899Y0109981D01*
X0177099Y0109981D01*
X0179849Y0107131D02*
X0183099Y0105131D01*
X0183099Y0107131D01*
X0179849Y0107131D01*
X0180586Y0106677D02*
X0183099Y0106677D01*
X0183099Y0106079D02*
X0181559Y0106079D01*
X0182532Y0105480D02*
X0183099Y0105480D01*
X0185099Y0134431D02*
X0215099Y0134431D01*
X0248099Y0112243D02*
X0248099Y0111431D01*
X0248099Y0112243D02*
X0267299Y0112243D01*
X0267299Y0111431D01*
X0207099Y0068781D02*
X0177099Y0068781D01*
X0177029Y0062545D02*
X0177029Y0044317D01*
X0202069Y0044317D01*
X0202069Y0062545D01*
X0198069Y0062545D01*
X0177029Y0062545D01*
X0196299Y0050931D02*
X0199799Y0048431D01*
X0196299Y0048431D01*
X0196299Y0050931D01*
X0196299Y0050417D02*
X0197018Y0050417D01*
X0196299Y0049819D02*
X0197856Y0049819D01*
X0198694Y0049220D02*
X0196299Y0049220D01*
X0196299Y0048622D02*
X0199532Y0048622D01*
X0113415Y0052950D02*
X0099699Y0052950D01*
X0091699Y0052950D02*
X0077982Y0052950D01*
X0077982Y0155312D01*
X0091699Y0155312D01*
X0099699Y0155312D02*
X0113415Y0155312D01*
X0113415Y0052950D01*
X0110199Y0059131D02*
X0101949Y0059131D01*
X0101949Y0060131D01*
X0108199Y0060131D01*
X0108199Y0061631D01*
X0105699Y0061631D01*
X0105699Y0081631D01*
X0110199Y0081631D01*
X0110199Y0061631D01*
X0110199Y0059131D01*
X0110199Y0061631D02*
X0108199Y0061631D01*
X0089449Y0060131D02*
X0089449Y0059131D01*
X0081199Y0059131D01*
X0081199Y0061631D01*
X0085699Y0061631D01*
X0085699Y0081631D01*
X0081199Y0081631D01*
X0081199Y0061631D01*
X0083199Y0061631D02*
X0083199Y0060131D01*
X0089449Y0060131D01*
X0076815Y0052950D02*
X0063099Y0052950D01*
X0065349Y0059131D02*
X0065349Y0060131D01*
X0071599Y0060131D01*
X0071599Y0061631D01*
X0069099Y0061631D01*
X0069099Y0081631D01*
X0073599Y0081631D01*
X0073599Y0061631D01*
X0073599Y0059131D01*
X0065349Y0059131D01*
X0071599Y0061631D02*
X0073599Y0061631D01*
X0076815Y0052950D02*
X0076815Y0155312D01*
X0063099Y0155312D01*
X0065349Y0149131D02*
X0065349Y0148131D01*
X0071599Y0148131D01*
X0071599Y0146631D01*
X0073599Y0146631D02*
X0069099Y0146631D01*
X0069099Y0126631D01*
X0073599Y0126631D01*
X0073599Y0146631D01*
X0073599Y0149131D01*
X0065349Y0149131D01*
X0055099Y0155312D02*
X0041382Y0155312D01*
X0041382Y0052950D01*
X0055099Y0052950D01*
X0052849Y0059131D02*
X0044599Y0059131D01*
X0044599Y0061631D01*
X0049099Y0061631D01*
X0049099Y0081631D01*
X0044599Y0081631D01*
X0044599Y0061631D01*
X0046599Y0061631D02*
X0046599Y0060131D01*
X0052849Y0060131D01*
X0052849Y0059131D01*
X0001300Y0035173D02*
X0001300Y0159858D01*
X0037914Y0159858D01*
X0044599Y0149131D02*
X0052849Y0149131D01*
X0052849Y0148131D01*
X0046599Y0148131D01*
X0046599Y0146631D01*
X0049099Y0146631D01*
X0049099Y0126631D01*
X0044599Y0126631D01*
X0044599Y0146631D01*
X0044599Y0149131D01*
X0044599Y0146631D02*
X0046599Y0146631D01*
X0081199Y0146631D02*
X0081199Y0149131D01*
X0089449Y0149131D01*
X0089449Y0148131D01*
X0083199Y0148131D01*
X0083199Y0146631D01*
X0085699Y0146631D01*
X0085699Y0126631D01*
X0081199Y0126631D01*
X0081199Y0146631D01*
X0083199Y0146631D01*
X0101949Y0148131D02*
X0101949Y0149131D01*
X0110199Y0149131D01*
X0110199Y0146631D01*
X0105699Y0146631D01*
X0105699Y0126631D01*
X0110199Y0126631D01*
X0110199Y0146631D01*
X0108199Y0146631D02*
X0108199Y0148131D01*
X0101949Y0148131D01*
X0185099Y0175631D02*
X0198899Y0175631D01*
X0198901Y0175562D01*
X0198907Y0175494D01*
X0198917Y0175426D01*
X0198930Y0175359D01*
X0198948Y0175293D01*
X0198969Y0175228D01*
X0198994Y0175164D01*
X0199022Y0175102D01*
X0199054Y0175041D01*
X0199089Y0174982D01*
X0199128Y0174926D01*
X0199170Y0174871D01*
X0199215Y0174820D01*
X0199263Y0174770D01*
X0199313Y0174724D01*
X0199366Y0174681D01*
X0199422Y0174640D01*
X0199479Y0174603D01*
X0199539Y0174570D01*
X0199601Y0174539D01*
X0199664Y0174513D01*
X0199728Y0174490D01*
X0199794Y0174470D01*
X0199861Y0174455D01*
X0199928Y0174443D01*
X0199996Y0174435D01*
X0200065Y0174431D01*
X0200133Y0174431D01*
X0200202Y0174435D01*
X0200270Y0174443D01*
X0200337Y0174455D01*
X0200404Y0174470D01*
X0200470Y0174490D01*
X0200534Y0174513D01*
X0200597Y0174539D01*
X0200659Y0174570D01*
X0200719Y0174603D01*
X0200776Y0174640D01*
X0200832Y0174681D01*
X0200885Y0174724D01*
X0200935Y0174770D01*
X0200983Y0174820D01*
X0201028Y0174871D01*
X0201070Y0174926D01*
X0201109Y0174982D01*
X0201144Y0175041D01*
X0201176Y0175102D01*
X0201204Y0175164D01*
X0201229Y0175228D01*
X0201250Y0175293D01*
X0201268Y0175359D01*
X0201281Y0175426D01*
X0201291Y0175494D01*
X0201297Y0175562D01*
X0201299Y0175631D01*
X0215099Y0175631D01*
X0191099Y0172781D02*
X0191099Y0170781D01*
X0187849Y0172781D01*
X0191099Y0172781D01*
X0191099Y0172513D02*
X0188284Y0172513D01*
X0189256Y0171915D02*
X0191099Y0171915D01*
X0191099Y0171316D02*
X0190229Y0171316D01*
X0142499Y0197381D02*
X0142499Y0202881D01*
X0127499Y0202881D01*
X0127499Y0201881D01*
X0122499Y0198381D02*
X0122499Y0197381D01*
X0117499Y0201881D02*
X0117499Y0202881D01*
X0102499Y0202881D01*
X0102499Y0197381D01*
X0102499Y0207881D02*
X0102499Y0213381D01*
X0102499Y0207881D02*
X0117499Y0207881D01*
X0117499Y0208881D01*
X0122499Y0212381D02*
X0122499Y0213381D01*
X0127499Y0208881D02*
X0127499Y0207881D01*
X0142499Y0207881D01*
X0142499Y0213381D01*
X0222449Y0252731D02*
X0223449Y0252731D01*
X0223449Y0258981D01*
X0224949Y0258981D01*
X0224949Y0260981D02*
X0224949Y0256481D01*
X0244949Y0256481D01*
X0244949Y0260981D01*
X0224949Y0260981D01*
X0222449Y0260981D01*
X0222449Y0252731D01*
X0199899Y0282731D02*
X0199899Y0283931D01*
X0169099Y0283931D01*
X0169099Y0282731D01*
X0154849Y0271731D02*
X0152349Y0268481D01*
X0157099Y0268481D01*
X0154849Y0271731D01*
X0155170Y0271268D02*
X0154492Y0271268D01*
X0154032Y0270669D02*
X0155584Y0270669D01*
X0155998Y0270071D02*
X0153572Y0270071D01*
X0153111Y0269472D02*
X0156413Y0269472D01*
X0156827Y0268874D02*
X0152651Y0268874D01*
X0500399Y0242931D02*
X0500399Y0242331D01*
X0500399Y0242931D02*
X0513599Y0242931D01*
X0513599Y0242331D01*
X0513599Y0230331D02*
X0513599Y0229731D01*
X0508199Y0229731D01*
X0508197Y0229800D01*
X0508191Y0229868D01*
X0508181Y0229936D01*
X0508168Y0230003D01*
X0508150Y0230069D01*
X0508129Y0230134D01*
X0508104Y0230198D01*
X0508076Y0230260D01*
X0508044Y0230321D01*
X0508009Y0230380D01*
X0507970Y0230436D01*
X0507928Y0230491D01*
X0507883Y0230542D01*
X0507835Y0230592D01*
X0507785Y0230638D01*
X0507732Y0230681D01*
X0507676Y0230722D01*
X0507619Y0230759D01*
X0507559Y0230792D01*
X0507497Y0230823D01*
X0507434Y0230849D01*
X0507370Y0230872D01*
X0507304Y0230892D01*
X0507237Y0230907D01*
X0507170Y0230919D01*
X0507102Y0230927D01*
X0507033Y0230931D01*
X0506965Y0230931D01*
X0506896Y0230927D01*
X0506828Y0230919D01*
X0506761Y0230907D01*
X0506694Y0230892D01*
X0506628Y0230872D01*
X0506564Y0230849D01*
X0506501Y0230823D01*
X0506439Y0230792D01*
X0506379Y0230759D01*
X0506322Y0230722D01*
X0506266Y0230681D01*
X0506213Y0230638D01*
X0506163Y0230592D01*
X0506115Y0230542D01*
X0506070Y0230491D01*
X0506028Y0230436D01*
X0505989Y0230380D01*
X0505954Y0230321D01*
X0505922Y0230260D01*
X0505894Y0230198D01*
X0505869Y0230134D01*
X0505848Y0230069D01*
X0505830Y0230003D01*
X0505817Y0229936D01*
X0505807Y0229868D01*
X0505801Y0229800D01*
X0505799Y0229731D01*
X0500399Y0229731D01*
X0500399Y0230331D01*
D12*
X0364799Y0236731D02*
X0359799Y0233481D01*
X0364799Y0244231D02*
X0359799Y0247481D01*
X0127499Y0209131D02*
X0122499Y0212381D01*
X0127499Y0201631D02*
X0122499Y0198381D01*
X0026497Y0045000D02*
X0021576Y0046969D01*
X0021576Y0043032D01*
X0026497Y0045000D01*
X0025624Y0044651D02*
X0021576Y0044651D01*
X0021576Y0043653D02*
X0023128Y0043653D01*
X0021576Y0045650D02*
X0024873Y0045650D01*
X0022377Y0046648D02*
X0021576Y0046648D01*
D13*
X0077869Y0043959D02*
X0077869Y0040356D01*
X0080271Y0040356D01*
X0081552Y0040356D02*
X0083954Y0040356D01*
X0082753Y0040356D02*
X0082753Y0043959D01*
X0081552Y0042758D01*
X0094349Y0042482D02*
X0096150Y0042482D01*
X0096751Y0043083D01*
X0096751Y0044284D01*
X0096150Y0044884D01*
X0094349Y0044884D01*
X0094349Y0041281D01*
X0095550Y0042482D02*
X0096751Y0041281D01*
X0098032Y0041281D02*
X0100434Y0041281D01*
X0099233Y0041281D02*
X0099233Y0044884D01*
X0098032Y0043683D01*
X0113349Y0044784D02*
X0113349Y0041181D01*
X0113349Y0042382D02*
X0115150Y0042382D01*
X0115751Y0042983D01*
X0115751Y0044184D01*
X0115150Y0044784D01*
X0113349Y0044784D01*
X0114550Y0042382D02*
X0115751Y0041181D01*
X0117032Y0041782D02*
X0117632Y0041181D01*
X0118834Y0041181D01*
X0119434Y0041782D01*
X0119434Y0042382D01*
X0118834Y0042983D01*
X0118233Y0042983D01*
X0118834Y0042983D02*
X0119434Y0043583D01*
X0119434Y0044184D01*
X0118834Y0044784D01*
X0117632Y0044784D01*
X0117032Y0044184D01*
X0132799Y0044784D02*
X0132799Y0041181D01*
X0132799Y0042382D02*
X0134600Y0042382D01*
X0135201Y0042983D01*
X0135201Y0044184D01*
X0134600Y0044784D01*
X0132799Y0044784D01*
X0134000Y0042382D02*
X0135201Y0041181D01*
X0136482Y0041782D02*
X0137082Y0041181D01*
X0138284Y0041181D01*
X0138884Y0041782D01*
X0138884Y0042983D01*
X0138284Y0043583D01*
X0137683Y0043583D01*
X0136482Y0042983D01*
X0136482Y0044784D01*
X0138884Y0044784D01*
X0149796Y0053831D02*
X0149796Y0055633D01*
X0150396Y0056233D01*
X0151597Y0056233D01*
X0152198Y0055633D01*
X0152198Y0053831D01*
X0153399Y0053831D02*
X0149796Y0053831D01*
X0152198Y0055032D02*
X0153399Y0056233D01*
X0152798Y0057514D02*
X0153399Y0058115D01*
X0153399Y0059316D01*
X0152798Y0059916D01*
X0152198Y0059916D01*
X0151597Y0059316D01*
X0151597Y0057514D01*
X0152798Y0057514D01*
X0151597Y0057514D02*
X0150396Y0058715D01*
X0149796Y0059916D01*
X0146048Y0073981D02*
X0146649Y0074582D01*
X0146649Y0075783D01*
X0146048Y0076383D01*
X0146048Y0077664D02*
X0145448Y0077664D01*
X0144847Y0078265D01*
X0144847Y0079466D01*
X0145448Y0080066D01*
X0146048Y0080066D01*
X0146649Y0079466D01*
X0146649Y0078265D01*
X0146048Y0077664D01*
X0144847Y0078265D02*
X0144247Y0077664D01*
X0143646Y0077664D01*
X0143046Y0078265D01*
X0143046Y0079466D01*
X0143646Y0080066D01*
X0144247Y0080066D01*
X0144847Y0079466D01*
X0143646Y0076383D02*
X0143046Y0075783D01*
X0143046Y0074582D01*
X0143646Y0073981D01*
X0146048Y0073981D01*
X0155696Y0090281D02*
X0158098Y0090281D01*
X0158699Y0090882D01*
X0158699Y0092083D01*
X0158098Y0092683D01*
X0156897Y0093964D02*
X0156897Y0096366D01*
X0155096Y0095766D02*
X0156897Y0093964D01*
X0155696Y0092683D02*
X0155096Y0092083D01*
X0155096Y0090882D01*
X0155696Y0090281D01*
X0155096Y0095766D02*
X0158699Y0095766D01*
X0158584Y0112681D02*
X0156182Y0112681D01*
X0157383Y0112681D02*
X0157383Y0116284D01*
X0156182Y0115083D01*
X0154901Y0115684D02*
X0154300Y0116284D01*
X0153099Y0116284D01*
X0152499Y0115684D01*
X0152499Y0113282D01*
X0153099Y0112681D01*
X0154300Y0112681D01*
X0154901Y0113282D01*
X0159749Y0113232D02*
X0159749Y0115634D01*
X0160349Y0116234D01*
X0161550Y0116234D01*
X0162151Y0115634D01*
X0163432Y0115634D02*
X0164032Y0116234D01*
X0165234Y0116234D01*
X0165834Y0115634D01*
X0165834Y0115033D01*
X0163432Y0112631D01*
X0165834Y0112631D01*
X0162151Y0113232D02*
X0161550Y0112631D01*
X0160349Y0112631D01*
X0159749Y0113232D01*
X0160283Y0117331D02*
X0160283Y0120934D01*
X0159082Y0119733D01*
X0157801Y0119133D02*
X0157200Y0118532D01*
X0155399Y0118532D01*
X0156600Y0118532D02*
X0157801Y0117331D01*
X0159082Y0117331D02*
X0161484Y0117331D01*
X0162765Y0117331D02*
X0165167Y0119733D01*
X0165167Y0120334D01*
X0164567Y0120934D01*
X0163366Y0120934D01*
X0162765Y0120334D01*
X0162765Y0117331D02*
X0165167Y0117331D01*
X0157801Y0119133D02*
X0157801Y0120334D01*
X0157200Y0120934D01*
X0155399Y0120934D01*
X0155399Y0117331D01*
X0174546Y0126932D02*
X0175146Y0126332D01*
X0177548Y0126332D01*
X0178149Y0126932D01*
X0178149Y0128133D01*
X0177548Y0128734D01*
X0178149Y0130015D02*
X0178149Y0132417D01*
X0178149Y0131216D02*
X0174546Y0131216D01*
X0175747Y0130015D01*
X0175146Y0128734D02*
X0174546Y0128133D01*
X0174546Y0126932D01*
X0174546Y0133698D02*
X0174546Y0136100D01*
X0175146Y0136100D01*
X0177548Y0133698D01*
X0178149Y0133698D01*
X0170898Y0141431D02*
X0168496Y0141431D01*
X0167896Y0142032D01*
X0167896Y0143233D01*
X0168496Y0143833D01*
X0169097Y0145114D02*
X0167896Y0146315D01*
X0171499Y0146315D01*
X0171499Y0145114D02*
X0171499Y0147516D01*
X0170898Y0148797D02*
X0171499Y0149398D01*
X0171499Y0150599D01*
X0170898Y0151199D01*
X0169697Y0151199D01*
X0169097Y0150599D01*
X0169097Y0149998D01*
X0169697Y0148797D01*
X0167896Y0148797D01*
X0167896Y0151199D01*
X0170898Y0143833D02*
X0171499Y0143233D01*
X0171499Y0142032D01*
X0170898Y0141431D01*
X0144484Y0141233D02*
X0142082Y0138831D01*
X0144484Y0138831D01*
X0144484Y0141233D02*
X0144484Y0141834D01*
X0143884Y0142434D01*
X0142682Y0142434D01*
X0142082Y0141834D01*
X0140801Y0138831D02*
X0138399Y0138831D01*
X0138399Y0142434D01*
X0151496Y0157581D02*
X0153898Y0157581D01*
X0154499Y0158182D01*
X0154499Y0159383D01*
X0153898Y0159983D01*
X0154499Y0161264D02*
X0154499Y0163666D01*
X0154499Y0162465D02*
X0150896Y0162465D01*
X0152097Y0161264D01*
X0151496Y0159983D02*
X0150896Y0159383D01*
X0150896Y0158182D01*
X0151496Y0157581D01*
X0156799Y0161482D02*
X0157399Y0160881D01*
X0158600Y0160881D01*
X0159201Y0161482D01*
X0160482Y0160881D02*
X0162884Y0160881D01*
X0161683Y0160881D02*
X0161683Y0164484D01*
X0160482Y0163283D01*
X0159201Y0163884D02*
X0158600Y0164484D01*
X0157399Y0164484D01*
X0156799Y0163884D01*
X0156799Y0161482D01*
X0153898Y0164947D02*
X0154499Y0165548D01*
X0154499Y0166749D01*
X0153898Y0167349D01*
X0153298Y0167349D01*
X0152697Y0166749D01*
X0152697Y0164947D01*
X0153898Y0164947D01*
X0152697Y0164947D02*
X0151496Y0166148D01*
X0150896Y0167349D01*
X0153733Y0173981D02*
X0154934Y0173981D01*
X0155535Y0174582D01*
X0156816Y0174582D02*
X0157416Y0173981D01*
X0158617Y0173981D01*
X0159218Y0174582D01*
X0159218Y0176984D01*
X0158617Y0177584D01*
X0157416Y0177584D01*
X0156816Y0176984D01*
X0156816Y0176383D01*
X0157416Y0175783D01*
X0159218Y0175783D01*
X0155535Y0176984D02*
X0154934Y0177584D01*
X0153733Y0177584D01*
X0153133Y0176984D01*
X0153133Y0174582D01*
X0153733Y0173981D01*
X0164165Y0163884D02*
X0164766Y0164484D01*
X0165967Y0164484D01*
X0166567Y0163884D01*
X0166567Y0163283D01*
X0164165Y0160881D01*
X0166567Y0160881D01*
X0175449Y0175331D02*
X0174849Y0175932D01*
X0174849Y0178334D01*
X0175449Y0178934D01*
X0176650Y0178934D01*
X0177251Y0178334D01*
X0178532Y0177733D02*
X0179733Y0178934D01*
X0179733Y0175331D01*
X0178532Y0175331D02*
X0180934Y0175331D01*
X0182215Y0175932D02*
X0184617Y0178334D01*
X0184617Y0175932D01*
X0184017Y0175331D01*
X0182816Y0175331D01*
X0182215Y0175932D01*
X0182215Y0178334D01*
X0182816Y0178934D01*
X0184017Y0178934D01*
X0184617Y0178334D01*
X0177251Y0175932D02*
X0176650Y0175331D01*
X0175449Y0175331D01*
X0194016Y0189182D02*
X0194616Y0188581D01*
X0195817Y0188581D01*
X0196418Y0189182D01*
X0196418Y0189782D01*
X0195817Y0190383D01*
X0194616Y0190383D01*
X0194016Y0190983D01*
X0194016Y0191584D01*
X0194616Y0192184D01*
X0195817Y0192184D01*
X0196418Y0191584D01*
X0212999Y0180184D02*
X0214200Y0180184D01*
X0213599Y0180184D02*
X0213599Y0176581D01*
X0212999Y0176581D02*
X0214200Y0176581D01*
X0215454Y0177182D02*
X0215454Y0179584D01*
X0216055Y0180184D01*
X0217256Y0180184D01*
X0217856Y0179584D01*
X0219137Y0179584D02*
X0219738Y0180184D01*
X0220939Y0180184D01*
X0221539Y0179584D01*
X0221539Y0178983D01*
X0220939Y0178383D01*
X0221539Y0177782D01*
X0221539Y0177182D01*
X0220939Y0176581D01*
X0219738Y0176581D01*
X0219137Y0177182D01*
X0217856Y0177182D02*
X0217256Y0176581D01*
X0216055Y0176581D01*
X0215454Y0177182D01*
X0220338Y0178383D02*
X0220939Y0178383D01*
X0232196Y0173599D02*
X0235799Y0173599D01*
X0235799Y0172398D02*
X0235799Y0174800D01*
X0233397Y0172398D02*
X0232196Y0173599D01*
X0232196Y0169916D02*
X0235799Y0169916D01*
X0235799Y0168715D02*
X0235799Y0171117D01*
X0233397Y0168715D02*
X0232196Y0169916D01*
X0232796Y0167434D02*
X0232196Y0166833D01*
X0232196Y0165632D01*
X0232796Y0165032D01*
X0235198Y0165032D01*
X0235799Y0165632D01*
X0235799Y0166833D01*
X0235198Y0167434D01*
X0245546Y0166948D02*
X0246146Y0166348D01*
X0246747Y0166348D01*
X0247347Y0166948D01*
X0247347Y0168750D01*
X0246146Y0168750D02*
X0245546Y0168149D01*
X0245546Y0166948D01*
X0246146Y0168750D02*
X0248548Y0168750D01*
X0249149Y0168149D01*
X0249149Y0166948D01*
X0248548Y0166348D01*
X0249149Y0165067D02*
X0247948Y0163866D01*
X0247948Y0164466D02*
X0247948Y0162665D01*
X0249149Y0162665D02*
X0245546Y0162665D01*
X0245546Y0164466D01*
X0246146Y0165067D01*
X0247347Y0165067D01*
X0247948Y0164466D01*
X0254246Y0166099D02*
X0257849Y0166099D01*
X0257849Y0164898D02*
X0257849Y0167300D01*
X0255447Y0164898D02*
X0254246Y0166099D01*
X0258449Y0163617D02*
X0258449Y0161215D01*
X0257849Y0159934D02*
X0255447Y0159934D01*
X0254246Y0158733D01*
X0255447Y0157532D01*
X0257849Y0157532D01*
X0257849Y0156251D02*
X0257849Y0153848D01*
X0257849Y0155050D02*
X0254246Y0155050D01*
X0255447Y0153848D01*
X0257849Y0152567D02*
X0257849Y0150165D01*
X0254246Y0150165D01*
X0254246Y0148884D02*
X0254246Y0146482D01*
X0257849Y0146482D01*
X0257849Y0148884D01*
X0256047Y0147683D02*
X0256047Y0146482D01*
X0256648Y0145201D02*
X0257248Y0145201D01*
X0257849Y0144601D01*
X0257849Y0143400D01*
X0257248Y0142799D01*
X0256047Y0143400D02*
X0255447Y0142799D01*
X0254846Y0142799D01*
X0254246Y0143400D01*
X0254246Y0144601D01*
X0254846Y0145201D01*
X0256047Y0144601D02*
X0256648Y0145201D01*
X0256047Y0144601D02*
X0256047Y0143400D01*
X0254246Y0141545D02*
X0254246Y0140344D01*
X0254246Y0140944D02*
X0257849Y0140944D01*
X0257849Y0140344D02*
X0257849Y0141545D01*
X0249849Y0142415D02*
X0249849Y0144817D01*
X0249849Y0143616D02*
X0246246Y0143616D01*
X0247447Y0142415D01*
X0246846Y0141134D02*
X0246246Y0140533D01*
X0246246Y0139332D01*
X0246846Y0138732D01*
X0249248Y0138732D01*
X0249849Y0139332D01*
X0249849Y0140533D01*
X0249248Y0141134D01*
X0248047Y0146098D02*
X0248047Y0148500D01*
X0246246Y0147899D02*
X0248047Y0146098D01*
X0246246Y0147899D02*
X0249849Y0147899D01*
X0236317Y0155782D02*
X0235717Y0155181D01*
X0234516Y0155181D01*
X0233915Y0155782D01*
X0232634Y0155181D02*
X0230232Y0155181D01*
X0231433Y0155181D02*
X0231433Y0158784D01*
X0230232Y0157583D01*
X0228951Y0158184D02*
X0228350Y0158784D01*
X0227149Y0158784D01*
X0226549Y0158184D01*
X0226549Y0155782D01*
X0227149Y0155181D01*
X0228350Y0155181D01*
X0228951Y0155782D01*
X0233915Y0158184D02*
X0234516Y0158784D01*
X0235717Y0158784D01*
X0236317Y0158184D01*
X0236317Y0157583D01*
X0235717Y0156983D01*
X0236317Y0156382D01*
X0236317Y0155782D01*
X0235717Y0156983D02*
X0235116Y0156983D01*
X0256047Y0157532D02*
X0256047Y0159934D01*
X0272049Y0177331D02*
X0272049Y0180934D01*
X0273850Y0180934D01*
X0274451Y0180334D01*
X0274451Y0179133D01*
X0273850Y0178532D01*
X0272049Y0178532D01*
X0273250Y0178532D02*
X0274451Y0177331D01*
X0275732Y0177932D02*
X0276332Y0177331D01*
X0277534Y0177331D01*
X0278134Y0177932D01*
X0278134Y0178532D01*
X0277534Y0179133D01*
X0276933Y0179133D01*
X0277534Y0179133D02*
X0278134Y0179733D01*
X0278134Y0180334D01*
X0277534Y0180934D01*
X0276332Y0180934D01*
X0275732Y0180334D01*
X0279415Y0180334D02*
X0280016Y0180934D01*
X0281217Y0180934D01*
X0281817Y0180334D01*
X0281817Y0177932D01*
X0281217Y0177331D01*
X0280016Y0177331D01*
X0279415Y0177932D01*
X0280016Y0179133D02*
X0281817Y0179133D01*
X0280016Y0179133D02*
X0279415Y0179733D01*
X0279415Y0180334D01*
X0290299Y0180684D02*
X0290299Y0177081D01*
X0290299Y0178282D02*
X0292100Y0178282D01*
X0292701Y0178883D01*
X0292701Y0180084D01*
X0292100Y0180684D01*
X0290299Y0180684D01*
X0291500Y0178282D02*
X0292701Y0177081D01*
X0293982Y0177682D02*
X0294582Y0177081D01*
X0295784Y0177081D01*
X0296384Y0177682D01*
X0296384Y0178282D01*
X0295784Y0178883D01*
X0295183Y0178883D01*
X0295784Y0178883D02*
X0296384Y0179483D01*
X0296384Y0180084D01*
X0295784Y0180684D01*
X0294582Y0180684D01*
X0293982Y0180084D01*
X0297665Y0180084D02*
X0297665Y0179483D01*
X0298266Y0178883D01*
X0299467Y0178883D01*
X0300067Y0178282D01*
X0300067Y0177682D01*
X0299467Y0177081D01*
X0298266Y0177081D01*
X0297665Y0177682D01*
X0297665Y0178282D01*
X0298266Y0178883D01*
X0299467Y0178883D02*
X0300067Y0179483D01*
X0300067Y0180084D01*
X0299467Y0180684D01*
X0298266Y0180684D01*
X0297665Y0180084D01*
X0309599Y0179634D02*
X0309599Y0176031D01*
X0309599Y0177232D02*
X0311400Y0177232D01*
X0312001Y0177833D01*
X0312001Y0179034D01*
X0311400Y0179634D01*
X0309599Y0179634D01*
X0310800Y0177232D02*
X0312001Y0176031D01*
X0313282Y0176632D02*
X0313882Y0176031D01*
X0315084Y0176031D01*
X0315684Y0176632D01*
X0315684Y0177232D01*
X0315084Y0177833D01*
X0314483Y0177833D01*
X0315084Y0177833D02*
X0315684Y0178433D01*
X0315684Y0179034D01*
X0315084Y0179634D01*
X0313882Y0179634D01*
X0313282Y0179034D01*
X0316965Y0179634D02*
X0319367Y0179634D01*
X0319367Y0179034D01*
X0316965Y0176632D01*
X0316965Y0176031D01*
X0329449Y0175931D02*
X0329449Y0179534D01*
X0331251Y0179534D01*
X0331851Y0178934D01*
X0331851Y0177733D01*
X0331251Y0177132D01*
X0329449Y0177132D01*
X0330650Y0177132D02*
X0331851Y0175931D01*
X0333133Y0176532D02*
X0333733Y0175931D01*
X0334934Y0175931D01*
X0335535Y0176532D01*
X0335535Y0177132D01*
X0334934Y0177733D01*
X0334334Y0177733D01*
X0334934Y0177733D02*
X0335535Y0178333D01*
X0335535Y0178934D01*
X0334934Y0179534D01*
X0333733Y0179534D01*
X0333133Y0178934D01*
X0336816Y0177733D02*
X0338617Y0177733D01*
X0339218Y0177132D01*
X0339218Y0176532D01*
X0338617Y0175931D01*
X0337416Y0175931D01*
X0336816Y0176532D01*
X0336816Y0177733D01*
X0338017Y0178934D01*
X0339218Y0179534D01*
X0346546Y0181482D02*
X0346546Y0182683D01*
X0347146Y0183283D01*
X0349548Y0183283D01*
X0350149Y0182683D01*
X0350149Y0181482D01*
X0349548Y0180881D01*
X0347146Y0180881D01*
X0346546Y0181482D01*
X0348948Y0182082D02*
X0350149Y0183283D01*
X0348347Y0184564D02*
X0348347Y0186966D01*
X0346546Y0186366D02*
X0348347Y0184564D01*
X0346546Y0186366D02*
X0350149Y0186366D01*
X0364499Y0194331D02*
X0364499Y0197934D01*
X0366300Y0197934D01*
X0366901Y0197334D01*
X0366901Y0196133D01*
X0366300Y0195532D01*
X0364499Y0195532D01*
X0365700Y0195532D02*
X0366901Y0194331D01*
X0368182Y0194932D02*
X0368782Y0194331D01*
X0369984Y0194331D01*
X0370584Y0194932D01*
X0370584Y0195532D01*
X0369984Y0196133D01*
X0369383Y0196133D01*
X0369984Y0196133D02*
X0370584Y0196733D01*
X0370584Y0197334D01*
X0369984Y0197934D01*
X0368782Y0197934D01*
X0368182Y0197334D01*
X0371865Y0197334D02*
X0372466Y0197934D01*
X0373667Y0197934D01*
X0374267Y0197334D01*
X0371865Y0194932D01*
X0372466Y0194331D01*
X0373667Y0194331D01*
X0374267Y0194932D01*
X0374267Y0197334D01*
X0371865Y0197334D02*
X0371865Y0194932D01*
X0376399Y0195682D02*
X0376999Y0195081D01*
X0377600Y0195081D01*
X0378200Y0195682D01*
X0378200Y0198684D01*
X0377600Y0198684D02*
X0378801Y0198684D01*
X0380082Y0198684D02*
X0381884Y0198684D01*
X0382484Y0198084D01*
X0382484Y0196883D01*
X0381884Y0196282D01*
X0380082Y0196282D01*
X0380082Y0195081D02*
X0380082Y0198684D01*
X0383765Y0196883D02*
X0385567Y0196883D01*
X0386167Y0196282D01*
X0386167Y0195682D01*
X0385567Y0195081D01*
X0384366Y0195081D01*
X0383765Y0195682D01*
X0383765Y0196883D01*
X0384966Y0198084D01*
X0386167Y0198684D01*
X0385346Y0201231D02*
X0385346Y0203033D01*
X0385946Y0203633D01*
X0387147Y0203633D01*
X0387748Y0203033D01*
X0387748Y0201231D01*
X0388949Y0201231D02*
X0385346Y0201231D01*
X0387748Y0202432D02*
X0388949Y0203633D01*
X0388348Y0204914D02*
X0388949Y0205515D01*
X0388949Y0206716D01*
X0388348Y0207316D01*
X0387748Y0207316D01*
X0387147Y0206716D01*
X0387147Y0206115D01*
X0387147Y0206716D02*
X0386547Y0207316D01*
X0385946Y0207316D01*
X0385346Y0206716D01*
X0385346Y0205515D01*
X0385946Y0204914D01*
X0385946Y0208597D02*
X0385346Y0209198D01*
X0385346Y0210399D01*
X0385946Y0210999D01*
X0386547Y0210999D01*
X0388949Y0208597D01*
X0388949Y0210999D01*
X0431316Y0224282D02*
X0431916Y0223681D01*
X0433117Y0223681D01*
X0433718Y0224282D01*
X0433718Y0224882D01*
X0433117Y0225483D01*
X0431916Y0225483D01*
X0431316Y0226083D01*
X0431316Y0226684D01*
X0431916Y0227284D01*
X0433117Y0227284D01*
X0433718Y0226684D01*
X0461946Y0248882D02*
X0462546Y0248281D01*
X0464948Y0248281D01*
X0465549Y0248882D01*
X0465549Y0250083D01*
X0464948Y0250683D01*
X0465549Y0251964D02*
X0463147Y0254366D01*
X0462546Y0254366D01*
X0461946Y0253766D01*
X0461946Y0252565D01*
X0462546Y0251964D01*
X0462546Y0250683D02*
X0461946Y0250083D01*
X0461946Y0248882D01*
X0465549Y0251964D02*
X0465549Y0254366D01*
X0464948Y0255647D02*
X0462546Y0258049D01*
X0464948Y0258049D01*
X0465549Y0257449D01*
X0465549Y0256248D01*
X0464948Y0255647D01*
X0462546Y0255647D01*
X0461946Y0256248D01*
X0461946Y0257449D01*
X0462546Y0258049D01*
X0433718Y0256684D02*
X0433718Y0255483D01*
X0433117Y0254882D01*
X0431316Y0254882D01*
X0432517Y0254882D02*
X0433718Y0253681D01*
X0431316Y0253681D02*
X0431316Y0257284D01*
X0433117Y0257284D01*
X0433718Y0256684D01*
X0404538Y0267831D02*
X0402136Y0267831D01*
X0404538Y0270233D01*
X0404538Y0270834D01*
X0403938Y0271434D01*
X0402737Y0271434D01*
X0402136Y0270834D01*
X0400855Y0267231D02*
X0398453Y0267231D01*
X0397172Y0267831D02*
X0397172Y0270233D01*
X0395971Y0271434D01*
X0394770Y0270233D01*
X0394770Y0267831D01*
X0393489Y0268432D02*
X0392888Y0267831D01*
X0391687Y0267831D01*
X0391087Y0268432D01*
X0393489Y0270834D01*
X0393489Y0268432D01*
X0394770Y0269633D02*
X0397172Y0269633D01*
X0393489Y0270834D02*
X0392888Y0271434D01*
X0391687Y0271434D01*
X0391087Y0270834D01*
X0391087Y0268432D01*
X0389806Y0267831D02*
X0387404Y0267831D01*
X0388605Y0267831D02*
X0388605Y0271434D01*
X0387404Y0270233D01*
X0386123Y0267831D02*
X0383721Y0267831D01*
X0383721Y0271434D01*
X0382439Y0271434D02*
X0380037Y0271434D01*
X0380037Y0267831D01*
X0382439Y0267831D01*
X0381238Y0269633D02*
X0380037Y0269633D01*
X0378756Y0269032D02*
X0378756Y0268432D01*
X0378156Y0267831D01*
X0376955Y0267831D01*
X0376354Y0268432D01*
X0376955Y0269633D02*
X0378156Y0269633D01*
X0378756Y0269032D01*
X0378756Y0270834D02*
X0378156Y0271434D01*
X0376955Y0271434D01*
X0376354Y0270834D01*
X0376354Y0270233D01*
X0376955Y0269633D01*
X0375100Y0271434D02*
X0373899Y0271434D01*
X0374499Y0271434D02*
X0374499Y0267831D01*
X0373899Y0267831D02*
X0375100Y0267831D01*
X0480249Y0231434D02*
X0480249Y0227831D01*
X0480249Y0229032D02*
X0482050Y0229032D01*
X0482651Y0229633D01*
X0482651Y0230834D01*
X0482050Y0231434D01*
X0480249Y0231434D01*
X0481450Y0229032D02*
X0482651Y0227831D01*
X0483932Y0229633D02*
X0486334Y0229633D01*
X0487615Y0230834D02*
X0488216Y0231434D01*
X0489417Y0231434D01*
X0490017Y0230834D01*
X0490017Y0230233D01*
X0487615Y0227831D01*
X0490017Y0227831D01*
X0485734Y0227831D02*
X0485734Y0231434D01*
X0483932Y0229633D01*
X0502249Y0243831D02*
X0503450Y0243831D01*
X0502849Y0243831D02*
X0502849Y0247434D01*
X0502249Y0247434D02*
X0503450Y0247434D01*
X0504704Y0246834D02*
X0504704Y0244432D01*
X0505305Y0243831D01*
X0506506Y0243831D01*
X0507106Y0244432D01*
X0508387Y0244432D02*
X0508387Y0245032D01*
X0508988Y0245633D01*
X0510189Y0245633D01*
X0510789Y0245032D01*
X0510789Y0244432D01*
X0510189Y0243831D01*
X0508988Y0243831D01*
X0508387Y0244432D01*
X0508988Y0245633D02*
X0508387Y0246233D01*
X0508387Y0246834D01*
X0508988Y0247434D01*
X0510189Y0247434D01*
X0510789Y0246834D01*
X0510789Y0246233D01*
X0510189Y0245633D01*
X0507106Y0246834D02*
X0506506Y0247434D01*
X0505305Y0247434D01*
X0504704Y0246834D01*
X0485949Y0199850D02*
X0485949Y0197448D01*
X0485949Y0198649D02*
X0482346Y0198649D01*
X0483547Y0197448D01*
X0484147Y0196167D02*
X0484147Y0193765D01*
X0482346Y0195566D01*
X0485949Y0195566D01*
X0485949Y0192484D02*
X0484748Y0191283D01*
X0484748Y0191883D02*
X0484748Y0190082D01*
X0485949Y0190082D02*
X0482346Y0190082D01*
X0482346Y0191883D01*
X0482946Y0192484D01*
X0484147Y0192484D01*
X0484748Y0191883D01*
X0504049Y0188484D02*
X0505250Y0188484D01*
X0504649Y0188484D02*
X0504649Y0184881D01*
X0504049Y0184881D02*
X0505250Y0184881D01*
X0506504Y0185482D02*
X0507105Y0184881D01*
X0508306Y0184881D01*
X0508906Y0185482D01*
X0510187Y0184881D02*
X0512589Y0184881D01*
X0511388Y0184881D02*
X0511388Y0188484D01*
X0510187Y0187283D01*
X0508906Y0187884D02*
X0508306Y0188484D01*
X0507105Y0188484D01*
X0506504Y0187884D01*
X0506504Y0185482D01*
X0513871Y0185482D02*
X0513871Y0187884D01*
X0514471Y0188484D01*
X0515672Y0188484D01*
X0516273Y0187884D01*
X0513871Y0185482D01*
X0514471Y0184881D01*
X0515672Y0184881D01*
X0516273Y0185482D01*
X0516273Y0187884D01*
X0516916Y0131284D02*
X0516316Y0130684D01*
X0516316Y0130083D01*
X0516916Y0129483D01*
X0518718Y0129483D01*
X0518718Y0130684D02*
X0518117Y0131284D01*
X0516916Y0131284D01*
X0518718Y0130684D02*
X0518718Y0128282D01*
X0518117Y0127681D01*
X0516916Y0127681D01*
X0516316Y0128282D01*
X0515035Y0129483D02*
X0514434Y0128882D01*
X0512633Y0128882D01*
X0512633Y0127681D02*
X0512633Y0131284D01*
X0514434Y0131284D01*
X0515035Y0130684D01*
X0515035Y0129483D01*
X0511351Y0131284D02*
X0510150Y0131284D01*
X0510751Y0131284D02*
X0510751Y0128282D01*
X0510150Y0127681D01*
X0509550Y0127681D01*
X0508949Y0128282D01*
X0503567Y0076334D02*
X0502366Y0076334D01*
X0501765Y0075734D01*
X0500484Y0076334D02*
X0498082Y0076334D01*
X0498082Y0074533D01*
X0499283Y0075133D01*
X0499884Y0075133D01*
X0500484Y0074533D01*
X0500484Y0073332D01*
X0499884Y0072731D01*
X0498682Y0072731D01*
X0498082Y0073332D01*
X0496801Y0072731D02*
X0495600Y0073932D01*
X0496200Y0073932D02*
X0494399Y0073932D01*
X0494399Y0072731D02*
X0494399Y0076334D01*
X0496200Y0076334D01*
X0496801Y0075734D01*
X0496801Y0074533D01*
X0496200Y0073932D01*
X0501765Y0073332D02*
X0502366Y0072731D01*
X0503567Y0072731D01*
X0504167Y0073332D01*
X0504167Y0073932D01*
X0503567Y0074533D01*
X0502966Y0074533D01*
X0503567Y0074533D02*
X0504167Y0075133D01*
X0504167Y0075734D01*
X0503567Y0076334D01*
X0498217Y0067184D02*
X0496415Y0065383D01*
X0498817Y0065383D01*
X0498217Y0067184D02*
X0498217Y0063581D01*
X0495134Y0064182D02*
X0494534Y0063581D01*
X0493332Y0063581D01*
X0492732Y0064182D01*
X0492732Y0065383D02*
X0493933Y0065983D01*
X0494534Y0065983D01*
X0495134Y0065383D01*
X0495134Y0064182D01*
X0492732Y0065383D02*
X0492732Y0067184D01*
X0495134Y0067184D01*
X0491451Y0066584D02*
X0491451Y0065383D01*
X0490850Y0064782D01*
X0489049Y0064782D01*
X0490250Y0064782D02*
X0491451Y0063581D01*
X0489049Y0063581D02*
X0489049Y0067184D01*
X0490850Y0067184D01*
X0491451Y0066584D01*
X0450404Y0070808D02*
X0448002Y0070808D01*
X0449803Y0072609D01*
X0449803Y0069006D01*
X0446721Y0069006D02*
X0444319Y0069006D01*
X0444319Y0072609D01*
X0417967Y0061584D02*
X0417967Y0059182D01*
X0417367Y0058581D01*
X0415565Y0058581D01*
X0415565Y0062184D01*
X0417367Y0062184D01*
X0417967Y0061584D01*
X0414284Y0062184D02*
X0414284Y0058581D01*
X0411882Y0062184D01*
X0411882Y0058581D01*
X0410601Y0059182D02*
X0410601Y0060383D01*
X0409400Y0060383D01*
X0410601Y0061584D02*
X0410000Y0062184D01*
X0408799Y0062184D01*
X0408199Y0061584D01*
X0408199Y0059182D01*
X0408799Y0058581D01*
X0410000Y0058581D01*
X0410601Y0059182D01*
X0441619Y0044759D02*
X0441619Y0041156D01*
X0444021Y0041156D01*
X0445302Y0041757D02*
X0445902Y0041156D01*
X0447103Y0041156D01*
X0447704Y0041757D01*
X0447704Y0042958D01*
X0447103Y0043558D01*
X0446503Y0043558D01*
X0445302Y0042958D01*
X0445302Y0044759D01*
X0447704Y0044759D01*
X0460549Y0042034D02*
X0461750Y0042034D01*
X0461149Y0042034D02*
X0461149Y0038431D01*
X0460549Y0038431D02*
X0461750Y0038431D01*
X0463004Y0039032D02*
X0463605Y0038431D01*
X0464806Y0038431D01*
X0465406Y0039032D01*
X0466687Y0038431D02*
X0469089Y0038431D01*
X0467888Y0038431D02*
X0467888Y0042034D01*
X0466687Y0040833D01*
X0465406Y0041434D02*
X0464806Y0042034D01*
X0463605Y0042034D01*
X0463004Y0041434D01*
X0463004Y0039032D01*
X0470371Y0039032D02*
X0470971Y0038431D01*
X0472172Y0038431D01*
X0472773Y0039032D01*
X0472773Y0039632D01*
X0472172Y0040233D01*
X0471572Y0040233D01*
X0472172Y0040233D02*
X0472773Y0040833D01*
X0472773Y0041434D01*
X0472172Y0042034D01*
X0470971Y0042034D01*
X0470371Y0041434D01*
X0395317Y0080132D02*
X0394717Y0079531D01*
X0393516Y0079531D01*
X0392915Y0080132D01*
X0392915Y0080732D01*
X0393516Y0081333D01*
X0394717Y0081333D01*
X0395317Y0080732D01*
X0395317Y0080132D01*
X0394717Y0081333D02*
X0395317Y0081933D01*
X0395317Y0082534D01*
X0394717Y0083134D01*
X0393516Y0083134D01*
X0392915Y0082534D01*
X0392915Y0081933D01*
X0393516Y0081333D01*
X0391634Y0079531D02*
X0389232Y0079531D01*
X0390433Y0079531D02*
X0390433Y0083134D01*
X0389232Y0081933D01*
X0387951Y0082534D02*
X0387350Y0083134D01*
X0386149Y0083134D01*
X0385549Y0082534D01*
X0385549Y0080132D01*
X0386149Y0079531D01*
X0387350Y0079531D01*
X0387951Y0080132D01*
X0371139Y0094782D02*
X0370539Y0094181D01*
X0369338Y0094181D01*
X0368737Y0094782D01*
X0368737Y0095983D02*
X0369938Y0096583D01*
X0370539Y0096583D01*
X0371139Y0095983D01*
X0371139Y0094782D01*
X0368737Y0095983D02*
X0368737Y0097784D01*
X0371139Y0097784D01*
X0367456Y0097184D02*
X0366856Y0097784D01*
X0365655Y0097784D01*
X0365054Y0097184D01*
X0365054Y0094782D01*
X0365655Y0094181D01*
X0366856Y0094181D01*
X0367456Y0094782D01*
X0363800Y0094181D02*
X0362599Y0094181D01*
X0363199Y0094181D02*
X0363199Y0097784D01*
X0362599Y0097784D02*
X0363800Y0097784D01*
X0370649Y0102782D02*
X0371249Y0102181D01*
X0372450Y0102181D01*
X0373051Y0102782D01*
X0373051Y0105184D01*
X0372450Y0105784D01*
X0371249Y0105784D01*
X0370649Y0105184D01*
X0370649Y0102782D01*
X0371850Y0103382D02*
X0373051Y0102181D01*
X0374332Y0102181D02*
X0376734Y0104583D01*
X0376734Y0105184D01*
X0376134Y0105784D01*
X0374932Y0105784D01*
X0374332Y0105184D01*
X0374332Y0102181D02*
X0376734Y0102181D01*
X0382896Y0103281D02*
X0382896Y0104482D01*
X0382896Y0103882D02*
X0386499Y0103882D01*
X0386499Y0104482D02*
X0386499Y0103281D01*
X0385898Y0105737D02*
X0383496Y0105737D01*
X0382896Y0106337D01*
X0382896Y0107538D01*
X0383496Y0108139D01*
X0384697Y0109420D02*
X0382896Y0111221D01*
X0386499Y0111221D01*
X0384697Y0111822D02*
X0384697Y0109420D01*
X0385898Y0108139D02*
X0386499Y0107538D01*
X0386499Y0106337D01*
X0385898Y0105737D01*
X0350917Y0096133D02*
X0348515Y0096133D01*
X0350317Y0097934D01*
X0350317Y0094331D01*
X0347234Y0094331D02*
X0344832Y0094331D01*
X0346033Y0094331D02*
X0346033Y0097934D01*
X0344832Y0096733D01*
X0343551Y0096133D02*
X0342950Y0095532D01*
X0341149Y0095532D01*
X0342350Y0095532D02*
X0343551Y0094331D01*
X0343551Y0096133D02*
X0343551Y0097334D01*
X0342950Y0097934D01*
X0341149Y0097934D01*
X0341149Y0094331D01*
X0315167Y0096281D02*
X0312765Y0096281D01*
X0315167Y0098683D01*
X0315167Y0099284D01*
X0314567Y0099884D01*
X0313366Y0099884D01*
X0312765Y0099284D01*
X0311484Y0099884D02*
X0309082Y0097482D01*
X0309682Y0098083D02*
X0311484Y0096281D01*
X0309082Y0096281D02*
X0309082Y0099884D01*
X0307801Y0099284D02*
X0307200Y0099884D01*
X0305999Y0099884D01*
X0305399Y0099284D01*
X0305399Y0096882D01*
X0305999Y0096281D01*
X0307200Y0096281D01*
X0307801Y0096882D01*
X0307801Y0099284D01*
X0287499Y0102781D02*
X0283896Y0102781D01*
X0283896Y0104583D01*
X0284496Y0105183D01*
X0285697Y0105183D01*
X0286298Y0104583D01*
X0286298Y0102781D01*
X0286298Y0103982D02*
X0287499Y0105183D01*
X0287499Y0106464D02*
X0285097Y0108866D01*
X0284496Y0108866D01*
X0283896Y0108266D01*
X0283896Y0107065D01*
X0284496Y0106464D01*
X0287499Y0106464D02*
X0287499Y0108866D01*
X0285697Y0110147D02*
X0285697Y0112549D01*
X0283896Y0111949D02*
X0285697Y0110147D01*
X0283896Y0111949D02*
X0287499Y0111949D01*
X0292449Y0127781D02*
X0291849Y0128382D01*
X0291849Y0130784D01*
X0292449Y0131384D01*
X0293650Y0131384D01*
X0294251Y0130784D01*
X0294251Y0128382D01*
X0293650Y0127781D01*
X0292449Y0127781D01*
X0293050Y0128982D02*
X0294251Y0127781D01*
X0295532Y0127781D02*
X0297934Y0127781D01*
X0296733Y0127781D02*
X0296733Y0131384D01*
X0295532Y0130183D01*
X0277617Y0129884D02*
X0277617Y0129283D01*
X0277017Y0128683D01*
X0277617Y0128082D01*
X0277617Y0127482D01*
X0277017Y0126881D01*
X0275816Y0126881D01*
X0275215Y0127482D01*
X0273934Y0126881D02*
X0271532Y0126881D01*
X0273934Y0129283D01*
X0273934Y0129884D01*
X0273334Y0130484D01*
X0272132Y0130484D01*
X0271532Y0129884D01*
X0270251Y0129884D02*
X0270251Y0128683D01*
X0269650Y0128082D01*
X0267849Y0128082D01*
X0269050Y0128082D02*
X0270251Y0126881D01*
X0267849Y0126881D02*
X0267849Y0130484D01*
X0269650Y0130484D01*
X0270251Y0129884D01*
X0275215Y0129884D02*
X0275816Y0130484D01*
X0277017Y0130484D01*
X0277617Y0129884D01*
X0277017Y0128683D02*
X0276416Y0128683D01*
X0258267Y0129183D02*
X0255865Y0126781D01*
X0258267Y0126781D01*
X0258267Y0129183D02*
X0258267Y0129784D01*
X0257667Y0130384D01*
X0256466Y0130384D01*
X0255865Y0129784D01*
X0254584Y0129784D02*
X0253984Y0130384D01*
X0252782Y0130384D01*
X0252182Y0129784D01*
X0250901Y0129784D02*
X0250901Y0128583D01*
X0250300Y0127982D01*
X0248499Y0127982D01*
X0249700Y0127982D02*
X0250901Y0126781D01*
X0252182Y0126781D02*
X0254584Y0129183D01*
X0254584Y0129784D01*
X0254584Y0126781D02*
X0252182Y0126781D01*
X0250901Y0129784D02*
X0250300Y0130384D01*
X0248499Y0130384D01*
X0248499Y0126781D01*
X0243817Y0126781D02*
X0241415Y0126781D01*
X0242616Y0126781D02*
X0242616Y0130384D01*
X0241415Y0129183D01*
X0240134Y0129183D02*
X0240134Y0129784D01*
X0239534Y0130384D01*
X0238332Y0130384D01*
X0237732Y0129784D01*
X0236451Y0129784D02*
X0236451Y0128583D01*
X0235850Y0127982D01*
X0234049Y0127982D01*
X0235250Y0127982D02*
X0236451Y0126781D01*
X0237732Y0126781D02*
X0240134Y0129183D01*
X0240134Y0126781D02*
X0237732Y0126781D01*
X0236451Y0129784D02*
X0235850Y0130384D01*
X0234049Y0130384D01*
X0234049Y0126781D01*
X0241283Y0114534D02*
X0243084Y0114534D01*
X0243685Y0113934D01*
X0243685Y0111532D01*
X0243084Y0110931D01*
X0241283Y0110931D01*
X0241283Y0114534D01*
X0244966Y0113934D02*
X0245566Y0114534D01*
X0246767Y0114534D01*
X0247368Y0113934D01*
X0247368Y0113333D01*
X0246767Y0112733D01*
X0247368Y0112132D01*
X0247368Y0111532D01*
X0246767Y0110931D01*
X0245566Y0110931D01*
X0244966Y0111532D01*
X0246167Y0112733D02*
X0246767Y0112733D01*
X0234084Y0107633D02*
X0231682Y0107633D01*
X0233484Y0109434D01*
X0233484Y0105831D01*
X0230401Y0105831D02*
X0229200Y0107032D01*
X0229800Y0107032D02*
X0227999Y0107032D01*
X0227999Y0105831D02*
X0227999Y0109434D01*
X0229800Y0109434D01*
X0230401Y0108834D01*
X0230401Y0107633D01*
X0229800Y0107032D01*
X0241149Y0102634D02*
X0242950Y0102634D01*
X0243551Y0102034D01*
X0243551Y0099632D01*
X0242950Y0099031D01*
X0241149Y0099031D01*
X0241149Y0102634D01*
X0244832Y0102034D02*
X0245432Y0102634D01*
X0246634Y0102634D01*
X0247234Y0102034D01*
X0247234Y0101433D01*
X0244832Y0099031D01*
X0247234Y0099031D01*
X0246484Y0086484D02*
X0247085Y0085884D01*
X0247085Y0084683D01*
X0246484Y0084082D01*
X0244683Y0084082D01*
X0244683Y0082881D02*
X0244683Y0086484D01*
X0246484Y0086484D01*
X0248366Y0086484D02*
X0248366Y0084683D01*
X0249567Y0085283D01*
X0250167Y0085283D01*
X0250768Y0084683D01*
X0250768Y0083482D01*
X0250167Y0082881D01*
X0248966Y0082881D01*
X0248366Y0083482D01*
X0248366Y0086484D02*
X0250768Y0086484D01*
X0243401Y0086484D02*
X0242200Y0086484D01*
X0242801Y0086484D02*
X0242801Y0083482D01*
X0242200Y0082881D01*
X0241600Y0082881D01*
X0240999Y0083482D01*
X0239699Y0081766D02*
X0239098Y0082366D01*
X0238498Y0082366D01*
X0237897Y0081766D01*
X0237897Y0079964D01*
X0239098Y0079964D01*
X0239699Y0080565D01*
X0239699Y0081766D01*
X0237897Y0079964D02*
X0236696Y0081165D01*
X0236096Y0082366D01*
X0236696Y0078683D02*
X0236096Y0078083D01*
X0236096Y0076882D01*
X0236696Y0076281D01*
X0239098Y0076281D01*
X0239699Y0076882D01*
X0239699Y0078083D01*
X0239098Y0078683D01*
X0254599Y0071434D02*
X0254599Y0067831D01*
X0254599Y0069032D02*
X0256400Y0069032D01*
X0257001Y0069633D01*
X0257001Y0070834D01*
X0256400Y0071434D01*
X0254599Y0071434D01*
X0255800Y0069032D02*
X0257001Y0067831D01*
X0258282Y0067831D02*
X0260684Y0067831D01*
X0259483Y0067831D02*
X0259483Y0071434D01*
X0258282Y0070233D01*
X0261965Y0070233D02*
X0262566Y0069633D01*
X0264367Y0069633D01*
X0264367Y0068432D02*
X0264367Y0070834D01*
X0263767Y0071434D01*
X0262566Y0071434D01*
X0261965Y0070834D01*
X0261965Y0070233D01*
X0261965Y0068432D02*
X0262566Y0067831D01*
X0263767Y0067831D01*
X0264367Y0068432D01*
X0282596Y0069197D02*
X0282596Y0071599D01*
X0283196Y0071599D01*
X0285598Y0069197D01*
X0286199Y0069197D01*
X0286199Y0067916D02*
X0286199Y0065514D01*
X0286199Y0066715D02*
X0282596Y0066715D01*
X0283797Y0065514D01*
X0284397Y0064233D02*
X0284998Y0063633D01*
X0284998Y0061831D01*
X0286199Y0061831D02*
X0282596Y0061831D01*
X0282596Y0063633D01*
X0283196Y0064233D01*
X0284397Y0064233D01*
X0284998Y0063032D02*
X0286199Y0064233D01*
X0304899Y0055934D02*
X0304899Y0053532D01*
X0305499Y0052931D01*
X0306700Y0052931D01*
X0307301Y0053532D01*
X0307301Y0055934D01*
X0306700Y0056534D01*
X0305499Y0056534D01*
X0304899Y0055934D01*
X0308582Y0056534D02*
X0308582Y0052931D01*
X0308582Y0054132D02*
X0310984Y0056534D01*
X0312265Y0055934D02*
X0312866Y0056534D01*
X0314067Y0056534D01*
X0314667Y0055934D01*
X0314667Y0055333D01*
X0314067Y0054733D01*
X0314667Y0054132D01*
X0314667Y0053532D01*
X0314067Y0052931D01*
X0312866Y0052931D01*
X0312265Y0053532D01*
X0310984Y0052931D02*
X0309182Y0054733D01*
X0313466Y0054733D02*
X0314067Y0054733D01*
X0341049Y0057581D02*
X0341049Y0061184D01*
X0342850Y0061184D01*
X0343451Y0060584D01*
X0343451Y0059383D01*
X0342850Y0058782D01*
X0341049Y0058782D01*
X0342250Y0058782D02*
X0343451Y0057581D01*
X0344732Y0057581D02*
X0347134Y0057581D01*
X0345933Y0057581D02*
X0345933Y0061184D01*
X0344732Y0059983D01*
X0348415Y0059383D02*
X0348415Y0058182D01*
X0349016Y0057581D01*
X0350217Y0057581D01*
X0350817Y0058182D01*
X0350817Y0058782D01*
X0350217Y0059383D01*
X0348415Y0059383D01*
X0349616Y0060584D01*
X0350817Y0061184D01*
X0288118Y0046384D02*
X0288118Y0045783D01*
X0287517Y0045183D01*
X0286316Y0045183D01*
X0285716Y0045783D01*
X0285716Y0046384D01*
X0286316Y0046984D01*
X0287517Y0046984D01*
X0288118Y0046384D01*
X0287517Y0045183D02*
X0288118Y0044582D01*
X0288118Y0043982D01*
X0287517Y0043381D01*
X0286316Y0043381D01*
X0285716Y0043982D01*
X0285716Y0044582D01*
X0286316Y0045183D01*
X0284435Y0043381D02*
X0282033Y0043381D01*
X0283234Y0043381D02*
X0283234Y0046984D01*
X0282033Y0045783D01*
X0280751Y0045183D02*
X0280151Y0044582D01*
X0278349Y0044582D01*
X0278349Y0043381D02*
X0278349Y0046984D01*
X0280151Y0046984D01*
X0280751Y0046384D01*
X0280751Y0045183D01*
X0279550Y0044582D02*
X0280751Y0043381D01*
X0270467Y0046031D02*
X0270467Y0049634D01*
X0268665Y0047833D01*
X0271067Y0047833D01*
X0267384Y0047833D02*
X0266784Y0047232D01*
X0264982Y0047232D01*
X0264982Y0046031D02*
X0264982Y0049634D01*
X0266784Y0049634D01*
X0267384Y0049034D01*
X0267384Y0047833D01*
X0263701Y0049634D02*
X0262500Y0049634D01*
X0263100Y0049634D02*
X0263100Y0046632D01*
X0262500Y0046031D01*
X0261899Y0046031D01*
X0261299Y0046632D01*
X0259917Y0046532D02*
X0259917Y0047132D01*
X0259317Y0047733D01*
X0258716Y0047733D01*
X0259317Y0047733D02*
X0259917Y0048333D01*
X0259917Y0048934D01*
X0259317Y0049534D01*
X0258116Y0049534D01*
X0257515Y0048934D01*
X0256234Y0048934D02*
X0256234Y0047733D01*
X0255634Y0047132D01*
X0253832Y0047132D01*
X0253832Y0045931D02*
X0253832Y0049534D01*
X0255634Y0049534D01*
X0256234Y0048934D01*
X0257515Y0046532D02*
X0258116Y0045931D01*
X0259317Y0045931D01*
X0259917Y0046532D01*
X0252551Y0049534D02*
X0251350Y0049534D01*
X0251950Y0049534D02*
X0251950Y0046532D01*
X0251350Y0045931D01*
X0250749Y0045931D01*
X0250149Y0046532D01*
X0222334Y0063081D02*
X0219932Y0063081D01*
X0222334Y0065483D01*
X0222334Y0066084D01*
X0221734Y0066684D01*
X0220532Y0066684D01*
X0219932Y0066084D01*
X0218651Y0066084D02*
X0218651Y0064883D01*
X0218050Y0064282D01*
X0216249Y0064282D01*
X0217450Y0064282D02*
X0218651Y0063081D01*
X0216249Y0063081D02*
X0216249Y0066684D01*
X0218050Y0066684D01*
X0218651Y0066084D01*
X0161334Y0039034D02*
X0161334Y0038434D01*
X0158932Y0036032D01*
X0158932Y0035431D01*
X0157651Y0035431D02*
X0156450Y0036632D01*
X0157050Y0036632D02*
X0155249Y0036632D01*
X0155249Y0035431D02*
X0155249Y0039034D01*
X0157050Y0039034D01*
X0157651Y0038434D01*
X0157651Y0037233D01*
X0157050Y0036632D01*
X0158932Y0039034D02*
X0161334Y0039034D01*
X0283646Y0083731D02*
X0283646Y0085533D01*
X0284246Y0086133D01*
X0285447Y0086133D01*
X0286048Y0085533D01*
X0286048Y0083731D01*
X0287249Y0083731D02*
X0283646Y0083731D01*
X0286048Y0084932D02*
X0287249Y0086133D01*
X0287249Y0087414D02*
X0284847Y0089816D01*
X0284246Y0089816D01*
X0283646Y0089216D01*
X0283646Y0088015D01*
X0284246Y0087414D01*
X0287249Y0087414D02*
X0287249Y0089816D01*
X0286648Y0091097D02*
X0287249Y0091698D01*
X0287249Y0092899D01*
X0286648Y0093499D01*
X0285447Y0093499D01*
X0284847Y0092899D01*
X0284847Y0092298D01*
X0285447Y0091097D01*
X0283646Y0091097D01*
X0283646Y0093499D01*
X0369699Y0132581D02*
X0369699Y0136184D01*
X0371500Y0136184D01*
X0372101Y0135584D01*
X0372101Y0134383D01*
X0371500Y0133782D01*
X0369699Y0133782D01*
X0370900Y0133782D02*
X0372101Y0132581D01*
X0373382Y0132581D02*
X0375784Y0134983D01*
X0375784Y0135584D01*
X0375184Y0136184D01*
X0373982Y0136184D01*
X0373382Y0135584D01*
X0372532Y0137631D02*
X0374934Y0140033D01*
X0374934Y0140634D01*
X0374334Y0141234D01*
X0373132Y0141234D01*
X0372532Y0140634D01*
X0371251Y0140634D02*
X0370650Y0141234D01*
X0369449Y0141234D01*
X0368849Y0140634D01*
X0368849Y0138232D01*
X0369449Y0137631D01*
X0370650Y0137631D01*
X0371251Y0138232D01*
X0372532Y0137631D02*
X0374934Y0137631D01*
X0376215Y0137631D02*
X0378617Y0140033D01*
X0378617Y0140634D01*
X0378017Y0141234D01*
X0376816Y0141234D01*
X0376215Y0140634D01*
X0376215Y0137631D02*
X0378617Y0137631D01*
X0378867Y0136184D02*
X0377666Y0136184D01*
X0377065Y0135584D01*
X0377065Y0134983D01*
X0377666Y0134383D01*
X0378867Y0134383D01*
X0379467Y0133782D01*
X0379467Y0133182D01*
X0378867Y0132581D01*
X0377666Y0132581D01*
X0377065Y0133182D01*
X0377065Y0133782D01*
X0377666Y0134383D01*
X0378867Y0134383D02*
X0379467Y0134983D01*
X0379467Y0135584D01*
X0378867Y0136184D01*
X0375784Y0132581D02*
X0373382Y0132581D01*
X0345987Y0162431D02*
X0345987Y0163032D01*
X0348389Y0165434D01*
X0348389Y0166034D01*
X0345987Y0166034D01*
X0344706Y0165434D02*
X0344106Y0166034D01*
X0342905Y0166034D01*
X0342304Y0165434D01*
X0342304Y0163032D01*
X0342905Y0162431D01*
X0344106Y0162431D01*
X0344706Y0163032D01*
X0341050Y0162431D02*
X0339849Y0162431D01*
X0340449Y0162431D02*
X0340449Y0166034D01*
X0339849Y0166034D02*
X0341050Y0166034D01*
X0346846Y0168082D02*
X0346846Y0169283D01*
X0347446Y0169883D01*
X0349848Y0169883D01*
X0350449Y0169283D01*
X0350449Y0168082D01*
X0349848Y0167481D01*
X0347446Y0167481D01*
X0346846Y0168082D01*
X0349248Y0168682D02*
X0350449Y0169883D01*
X0349848Y0171164D02*
X0350449Y0171765D01*
X0350449Y0172966D01*
X0349848Y0173566D01*
X0349248Y0173566D01*
X0348647Y0172966D01*
X0348647Y0172365D01*
X0348647Y0172966D02*
X0348047Y0173566D01*
X0347446Y0173566D01*
X0346846Y0172966D01*
X0346846Y0171765D01*
X0347446Y0171164D01*
X0333199Y0171097D02*
X0330797Y0173499D01*
X0330196Y0173499D01*
X0329596Y0172899D01*
X0329596Y0171698D01*
X0330196Y0171097D01*
X0330196Y0169816D02*
X0331397Y0169816D01*
X0331998Y0169216D01*
X0331998Y0167414D01*
X0333199Y0167414D02*
X0329596Y0167414D01*
X0329596Y0169216D01*
X0330196Y0169816D01*
X0333199Y0171097D02*
X0333199Y0173499D01*
X0332598Y0165533D02*
X0329596Y0165533D01*
X0329596Y0166133D02*
X0329596Y0164932D01*
X0332598Y0165533D02*
X0333199Y0164932D01*
X0333199Y0164332D01*
X0332598Y0163731D01*
X0363899Y0166932D02*
X0364499Y0166331D01*
X0365700Y0166331D01*
X0366301Y0166932D01*
X0367582Y0166331D02*
X0369984Y0168733D01*
X0369984Y0169334D01*
X0369384Y0169934D01*
X0368182Y0169934D01*
X0367582Y0169334D01*
X0366301Y0169334D02*
X0365700Y0169934D01*
X0364499Y0169934D01*
X0363899Y0169334D01*
X0363899Y0166932D01*
X0367582Y0166331D02*
X0369984Y0166331D01*
X0371265Y0166331D02*
X0373667Y0166331D01*
X0372466Y0166331D02*
X0372466Y0169934D01*
X0371265Y0168733D01*
X0375046Y0167832D02*
X0375046Y0166631D01*
X0375046Y0167232D02*
X0378649Y0167232D01*
X0378649Y0167832D02*
X0378649Y0166631D01*
X0378048Y0169087D02*
X0378649Y0169687D01*
X0378649Y0170888D01*
X0378048Y0171489D01*
X0378048Y0172770D02*
X0378649Y0173370D01*
X0378649Y0174571D01*
X0378048Y0175172D01*
X0377448Y0175172D01*
X0376847Y0174571D01*
X0376847Y0172770D01*
X0378048Y0172770D01*
X0376847Y0172770D02*
X0375646Y0173971D01*
X0375046Y0175172D01*
X0383496Y0175749D02*
X0385297Y0173947D01*
X0385297Y0176349D01*
X0383496Y0175749D02*
X0387099Y0175749D01*
X0386498Y0172666D02*
X0387099Y0172066D01*
X0387099Y0170865D01*
X0386498Y0170264D01*
X0387099Y0168983D02*
X0385898Y0167782D01*
X0385898Y0168383D02*
X0385898Y0166581D01*
X0387099Y0166581D02*
X0383496Y0166581D01*
X0383496Y0168383D01*
X0384096Y0168983D01*
X0385297Y0168983D01*
X0385898Y0168383D01*
X0384096Y0170264D02*
X0383496Y0170865D01*
X0383496Y0172066D01*
X0384096Y0172666D01*
X0384697Y0172666D01*
X0385297Y0172066D01*
X0385898Y0172666D01*
X0386498Y0172666D01*
X0385297Y0172066D02*
X0385297Y0171465D01*
X0378048Y0169087D02*
X0375646Y0169087D01*
X0375046Y0169687D01*
X0375046Y0170888D01*
X0375646Y0171489D01*
X0332968Y0191431D02*
X0330566Y0191431D01*
X0331767Y0191431D02*
X0331767Y0195034D01*
X0330566Y0193833D01*
X0329285Y0194434D02*
X0328684Y0195034D01*
X0327483Y0195034D01*
X0326883Y0194434D01*
X0326883Y0193833D01*
X0327483Y0193233D01*
X0328684Y0193233D01*
X0329285Y0192632D01*
X0329285Y0192032D01*
X0328684Y0191431D01*
X0327483Y0191431D01*
X0326883Y0192032D01*
X0325601Y0192632D02*
X0324400Y0191431D01*
X0323199Y0192632D01*
X0323199Y0195034D01*
X0321918Y0195034D02*
X0319516Y0195034D01*
X0320717Y0195034D02*
X0320717Y0191431D01*
X0325601Y0192632D02*
X0325601Y0195034D01*
X0325748Y0200481D02*
X0325748Y0202283D01*
X0325147Y0202883D01*
X0323946Y0202883D01*
X0323346Y0202283D01*
X0323346Y0200481D01*
X0326949Y0200481D01*
X0325748Y0201682D02*
X0326949Y0202883D01*
X0326348Y0204164D02*
X0326949Y0204765D01*
X0326949Y0205966D01*
X0326348Y0206566D01*
X0325748Y0206566D01*
X0325147Y0205966D01*
X0325147Y0205365D01*
X0325147Y0205966D02*
X0324547Y0206566D01*
X0323946Y0206566D01*
X0323346Y0205966D01*
X0323346Y0204765D01*
X0323946Y0204164D01*
X0323346Y0207847D02*
X0325147Y0207847D01*
X0324547Y0209048D01*
X0324547Y0209649D01*
X0325147Y0210249D01*
X0326348Y0210249D01*
X0326949Y0209649D01*
X0326949Y0208448D01*
X0326348Y0207847D01*
X0323346Y0207847D02*
X0323346Y0210249D01*
X0250018Y0185081D02*
X0247616Y0185081D01*
X0248817Y0185081D02*
X0248817Y0188684D01*
X0247616Y0187483D01*
X0246335Y0186883D02*
X0245734Y0186282D01*
X0243933Y0186282D01*
X0243933Y0185081D02*
X0243933Y0188684D01*
X0245734Y0188684D01*
X0246335Y0188084D01*
X0246335Y0186883D01*
X0242651Y0188684D02*
X0241450Y0188684D01*
X0242051Y0188684D02*
X0242051Y0185682D01*
X0241450Y0185081D01*
X0240850Y0185081D01*
X0240249Y0185682D01*
X0196418Y0218581D02*
X0195217Y0219782D01*
X0195817Y0219782D02*
X0194016Y0219782D01*
X0194016Y0218581D02*
X0194016Y0222184D01*
X0195817Y0222184D01*
X0196418Y0221584D01*
X0196418Y0220383D01*
X0195817Y0219782D01*
X0201349Y0234231D02*
X0202550Y0234231D01*
X0201949Y0234231D02*
X0201949Y0237834D01*
X0201349Y0237834D02*
X0202550Y0237834D01*
X0203804Y0237234D02*
X0203804Y0234832D01*
X0204405Y0234231D01*
X0205606Y0234231D01*
X0206206Y0234832D01*
X0207487Y0234231D02*
X0209889Y0236633D01*
X0209889Y0237234D01*
X0209289Y0237834D01*
X0208088Y0237834D01*
X0207487Y0237234D01*
X0206206Y0237234D02*
X0205606Y0237834D01*
X0204405Y0237834D01*
X0203804Y0237234D01*
X0207487Y0234231D02*
X0209889Y0234231D01*
X0150586Y0266312D02*
X0150586Y0268714D01*
X0150586Y0269996D02*
X0150586Y0271797D01*
X0149985Y0272398D01*
X0147583Y0272398D01*
X0146983Y0271797D01*
X0146983Y0269996D01*
X0150586Y0269996D01*
X0147583Y0268714D02*
X0149985Y0266312D01*
X0150586Y0266312D01*
X0146983Y0266312D02*
X0146983Y0268714D01*
X0147583Y0268714D01*
X0148184Y0273679D02*
X0146983Y0274880D01*
X0150586Y0274880D01*
X0150586Y0273679D02*
X0150586Y0276081D01*
X0095399Y0221771D02*
X0095399Y0219369D01*
X0095399Y0220570D02*
X0091796Y0220570D01*
X0092997Y0219369D01*
X0095999Y0218087D02*
X0095999Y0215685D01*
X0095399Y0214404D02*
X0092997Y0214404D01*
X0091796Y0213203D01*
X0092997Y0212002D01*
X0095399Y0212002D01*
X0094798Y0210721D02*
X0095399Y0210121D01*
X0095399Y0208920D01*
X0094798Y0208319D01*
X0092396Y0210721D01*
X0094798Y0210721D01*
X0093597Y0212002D02*
X0093597Y0214404D01*
X0092396Y0210721D02*
X0091796Y0210121D01*
X0091796Y0208920D01*
X0092396Y0208319D01*
X0094798Y0208319D01*
X0095399Y0207038D02*
X0095399Y0204636D01*
X0095399Y0205837D02*
X0091796Y0205837D01*
X0092997Y0204636D01*
X0095399Y0203355D02*
X0095399Y0200953D01*
X0091796Y0200953D01*
X0091796Y0199672D02*
X0091796Y0197270D01*
X0095399Y0197270D01*
X0095399Y0199672D01*
X0093597Y0198471D02*
X0093597Y0197270D01*
X0094198Y0195989D02*
X0094798Y0195989D01*
X0095399Y0195388D01*
X0095399Y0194187D01*
X0094798Y0193587D01*
X0093597Y0194187D02*
X0093597Y0195388D01*
X0094198Y0195989D01*
X0092396Y0195989D02*
X0091796Y0195388D01*
X0091796Y0194187D01*
X0092396Y0193587D01*
X0092997Y0193587D01*
X0093597Y0194187D01*
X0091796Y0192332D02*
X0091796Y0191131D01*
X0091796Y0191732D02*
X0095399Y0191732D01*
X0095399Y0192332D02*
X0095399Y0191131D01*
X0120399Y0175284D02*
X0122200Y0175284D01*
X0122801Y0174684D01*
X0122801Y0173483D01*
X0122200Y0172882D01*
X0120399Y0172882D01*
X0121600Y0172882D02*
X0122801Y0171681D01*
X0124082Y0172282D02*
X0124082Y0172882D01*
X0124682Y0173483D01*
X0125884Y0173483D01*
X0126484Y0172882D01*
X0126484Y0172282D01*
X0125884Y0171681D01*
X0124682Y0171681D01*
X0124082Y0172282D01*
X0124682Y0173483D02*
X0124082Y0174083D01*
X0124082Y0174684D01*
X0124682Y0175284D01*
X0125884Y0175284D01*
X0126484Y0174684D01*
X0126484Y0174083D01*
X0125884Y0173483D01*
X0120399Y0171681D02*
X0120399Y0175284D01*
X0184819Y0123759D02*
X0184819Y0120156D01*
X0187221Y0120156D01*
X0188502Y0120757D02*
X0189102Y0120156D01*
X0190303Y0120156D01*
X0190904Y0120757D01*
X0190904Y0121357D01*
X0190303Y0121958D01*
X0189703Y0121958D01*
X0190303Y0121958D02*
X0190904Y0122558D01*
X0190904Y0123159D01*
X0190303Y0123759D01*
X0189102Y0123759D01*
X0188502Y0123159D01*
X0184338Y0114784D02*
X0184338Y0111181D01*
X0183137Y0111181D02*
X0185539Y0111181D01*
X0183137Y0113583D02*
X0184338Y0114784D01*
X0181856Y0114184D02*
X0181256Y0114784D01*
X0180055Y0114784D01*
X0179454Y0114184D01*
X0179454Y0111782D01*
X0180055Y0111181D01*
X0181256Y0111181D01*
X0181856Y0111782D01*
X0178200Y0111181D02*
X0176999Y0111181D01*
X0177599Y0111181D02*
X0177599Y0114784D01*
X0176999Y0114784D02*
X0178200Y0114784D01*
X0129067Y0113431D02*
X0126665Y0113431D01*
X0127866Y0113431D02*
X0127866Y0117034D01*
X0126665Y0115833D01*
X0125384Y0113431D02*
X0122982Y0113431D01*
X0124183Y0113431D02*
X0124183Y0117034D01*
X0122982Y0115833D01*
X0121701Y0115233D02*
X0121100Y0114632D01*
X0119299Y0114632D01*
X0120500Y0114632D02*
X0121701Y0113431D01*
X0121701Y0115233D02*
X0121701Y0116434D01*
X0121100Y0117034D01*
X0119299Y0117034D01*
X0119299Y0113431D01*
D14*
X0159349Y0279581D02*
X0160349Y0279581D01*
X0160349Y0281081D01*
X0159349Y0281081D01*
X0159349Y0279581D01*
X0159349Y0279628D02*
X0160349Y0279628D01*
X0160349Y0279727D02*
X0159349Y0279727D01*
X0159349Y0279825D02*
X0160349Y0279825D01*
X0160349Y0279924D02*
X0159349Y0279924D01*
X0159349Y0280022D02*
X0160349Y0280022D01*
X0160349Y0280121D02*
X0159349Y0280121D01*
X0159349Y0280219D02*
X0160349Y0280219D01*
X0160349Y0280318D02*
X0159349Y0280318D01*
X0159349Y0280416D02*
X0160349Y0280416D01*
X0160349Y0280515D02*
X0159349Y0280515D01*
X0159349Y0280614D02*
X0160349Y0280614D01*
X0160349Y0280712D02*
X0159349Y0280712D01*
X0159349Y0280811D02*
X0160349Y0280811D01*
X0160349Y0280909D02*
X0159349Y0280909D01*
X0159349Y0281008D02*
X0160349Y0281008D01*
X0451749Y0127328D02*
X0452749Y0127328D01*
X0452749Y0125828D01*
X0451749Y0125828D01*
X0451749Y0127328D01*
X0451749Y0127231D02*
X0452749Y0127231D01*
X0452749Y0127133D02*
X0451749Y0127133D01*
X0451749Y0127034D02*
X0452749Y0127034D01*
X0452749Y0126936D02*
X0451749Y0126936D01*
X0451749Y0126837D02*
X0452749Y0126837D01*
X0452749Y0126739D02*
X0451749Y0126739D01*
X0451749Y0126640D02*
X0452749Y0126640D01*
X0452749Y0126542D02*
X0451749Y0126542D01*
X0451749Y0126443D02*
X0452749Y0126443D01*
X0452749Y0126345D02*
X0451749Y0126345D01*
X0451749Y0126246D02*
X0452749Y0126246D01*
X0452749Y0126148D02*
X0451749Y0126148D01*
X0451749Y0126049D02*
X0452749Y0126049D01*
X0452749Y0125951D02*
X0451749Y0125951D01*
X0451749Y0125852D02*
X0452749Y0125852D01*
X0469541Y0103131D02*
X0471041Y0103131D01*
X0471041Y0102131D01*
X0469541Y0102131D01*
X0469541Y0103131D01*
X0469541Y0103096D02*
X0471041Y0103096D01*
X0471041Y0102998D02*
X0469541Y0102998D01*
X0469541Y0102899D02*
X0471041Y0102899D01*
X0471041Y0102801D02*
X0469541Y0102801D01*
X0469541Y0102702D02*
X0471041Y0102702D01*
X0471041Y0102604D02*
X0469541Y0102604D01*
X0469541Y0102505D02*
X0471041Y0102505D01*
X0471041Y0102407D02*
X0469541Y0102407D01*
X0469541Y0102308D02*
X0471041Y0102308D01*
X0471041Y0102210D02*
X0469541Y0102210D01*
X0489226Y0102210D02*
X0490726Y0102210D01*
X0490726Y0102131D02*
X0490726Y0103131D01*
X0489226Y0103131D01*
X0489226Y0102131D01*
X0490726Y0102131D01*
X0490726Y0102308D02*
X0489226Y0102308D01*
X0489226Y0102407D02*
X0490726Y0102407D01*
X0490726Y0102505D02*
X0489226Y0102505D01*
X0489226Y0102604D02*
X0490726Y0102604D01*
X0490726Y0102702D02*
X0489226Y0102702D01*
X0489226Y0102801D02*
X0490726Y0102801D01*
X0490726Y0102899D02*
X0489226Y0102899D01*
X0489226Y0102998D02*
X0490726Y0102998D01*
X0490726Y0103096D02*
X0489226Y0103096D01*
X0505549Y0127797D02*
X0505549Y0129297D01*
X0506549Y0129297D01*
X0506549Y0127797D01*
X0505549Y0127797D01*
X0505549Y0127822D02*
X0506549Y0127822D01*
X0506549Y0127921D02*
X0505549Y0127921D01*
X0505549Y0128019D02*
X0506549Y0128019D01*
X0506549Y0128118D02*
X0505549Y0128118D01*
X0505549Y0128216D02*
X0506549Y0128216D01*
X0506549Y0128315D02*
X0505549Y0128315D01*
X0505549Y0128414D02*
X0506549Y0128414D01*
X0506549Y0128512D02*
X0505549Y0128512D01*
X0505549Y0128611D02*
X0506549Y0128611D01*
X0506549Y0128709D02*
X0505549Y0128709D01*
X0505549Y0128808D02*
X0506549Y0128808D01*
X0506549Y0128906D02*
X0505549Y0128906D01*
X0505549Y0129005D02*
X0506549Y0129005D01*
X0506549Y0129103D02*
X0505549Y0129103D01*
X0505549Y0129202D02*
X0506549Y0129202D01*
X0492694Y0155931D02*
X0491194Y0155931D01*
X0491194Y0156931D01*
X0492694Y0156931D01*
X0492694Y0155931D01*
X0492694Y0155997D02*
X0491194Y0155997D01*
X0491194Y0156095D02*
X0492694Y0156095D01*
X0492694Y0156194D02*
X0491194Y0156194D01*
X0491194Y0156292D02*
X0492694Y0156292D01*
X0492694Y0156391D02*
X0491194Y0156391D01*
X0491194Y0156489D02*
X0492694Y0156489D01*
X0492694Y0156588D02*
X0491194Y0156588D01*
X0491194Y0156686D02*
X0492694Y0156686D01*
X0492694Y0156785D02*
X0491194Y0156785D01*
X0491194Y0156883D02*
X0492694Y0156883D01*
X0473009Y0156883D02*
X0471509Y0156883D01*
X0471509Y0156931D02*
X0473009Y0156931D01*
X0473009Y0155931D01*
X0471509Y0155931D01*
X0471509Y0156931D01*
X0471509Y0156785D02*
X0473009Y0156785D01*
X0473009Y0156686D02*
X0471509Y0156686D01*
X0471509Y0156588D02*
X0473009Y0156588D01*
X0473009Y0156489D02*
X0471509Y0156489D01*
X0471509Y0156391D02*
X0473009Y0156391D01*
X0473009Y0156292D02*
X0471509Y0156292D01*
X0471509Y0156194D02*
X0473009Y0156194D01*
X0473009Y0156095D02*
X0471509Y0156095D01*
X0471509Y0155997D02*
X0473009Y0155997D01*
D15*
X0154849Y0272343D03*
D16*
X0391396Y0205742D02*
X0394299Y0205742D01*
X0394299Y0206709D02*
X0394299Y0204774D01*
X0393815Y0203763D02*
X0394299Y0203279D01*
X0394299Y0202311D01*
X0393815Y0201828D01*
X0394299Y0200816D02*
X0393331Y0199849D01*
X0393331Y0200332D02*
X0393331Y0198881D01*
X0394299Y0198881D02*
X0391396Y0198881D01*
X0391396Y0200332D01*
X0391880Y0200816D01*
X0392848Y0200816D01*
X0393331Y0200332D01*
X0391880Y0201828D02*
X0391396Y0202311D01*
X0391396Y0203279D01*
X0391880Y0203763D01*
X0392364Y0203763D01*
X0392848Y0203279D01*
X0393331Y0203763D01*
X0393815Y0203763D01*
X0392848Y0203279D02*
X0392848Y0202795D01*
X0392364Y0204774D02*
X0391396Y0205742D01*
X0406846Y0209681D02*
X0406846Y0211132D01*
X0407330Y0211616D01*
X0409265Y0211616D01*
X0409749Y0211132D01*
X0409749Y0209681D01*
X0406846Y0209681D01*
X0408298Y0212628D02*
X0408298Y0214563D01*
X0409749Y0214079D02*
X0406846Y0214079D01*
X0408298Y0212628D01*
X0419546Y0212578D02*
X0420998Y0212578D01*
X0420514Y0213545D01*
X0420514Y0214029D01*
X0420998Y0214513D01*
X0421965Y0214513D01*
X0422449Y0214029D01*
X0422449Y0213061D01*
X0421965Y0212578D01*
X0421965Y0211566D02*
X0420030Y0211566D01*
X0419546Y0211082D01*
X0419546Y0209631D01*
X0422449Y0209631D01*
X0422449Y0211082D01*
X0421965Y0211566D01*
X0419546Y0212578D02*
X0419546Y0214513D01*
X0432809Y0208100D02*
X0432809Y0206165D01*
X0433293Y0205681D01*
X0434260Y0205681D01*
X0434744Y0206165D01*
X0435756Y0206165D02*
X0436240Y0205681D01*
X0437207Y0205681D01*
X0437691Y0206165D01*
X0437691Y0206649D01*
X0437207Y0207132D01*
X0436723Y0207132D01*
X0437207Y0207132D02*
X0437691Y0207616D01*
X0437691Y0208100D01*
X0437207Y0208584D01*
X0436240Y0208584D01*
X0435756Y0208100D01*
X0434744Y0208100D02*
X0434260Y0208584D01*
X0433293Y0208584D01*
X0432809Y0208100D01*
X0438702Y0208584D02*
X0438702Y0207132D01*
X0439670Y0207616D01*
X0440154Y0207616D01*
X0440637Y0207132D01*
X0440637Y0206165D01*
X0440154Y0205681D01*
X0439186Y0205681D01*
X0438702Y0206165D01*
X0438702Y0208584D02*
X0440637Y0208584D01*
X0447841Y0211981D02*
X0448809Y0211981D01*
X0448325Y0211981D02*
X0448325Y0214884D01*
X0447841Y0214884D02*
X0448809Y0214884D01*
X0449806Y0214400D02*
X0449806Y0212465D01*
X0450290Y0211981D01*
X0451257Y0211981D01*
X0451741Y0212465D01*
X0452752Y0212465D02*
X0453236Y0211981D01*
X0454204Y0211981D01*
X0454687Y0212465D01*
X0454687Y0214400D01*
X0454204Y0214884D01*
X0453236Y0214884D01*
X0452752Y0214400D01*
X0452752Y0213916D01*
X0453236Y0213432D01*
X0454687Y0213432D01*
X0451741Y0214400D02*
X0451257Y0214884D01*
X0450290Y0214884D01*
X0449806Y0214400D01*
X0454546Y0204325D02*
X0455998Y0202874D01*
X0455998Y0204809D01*
X0457449Y0204325D02*
X0454546Y0204325D01*
X0455030Y0201863D02*
X0454546Y0201379D01*
X0454546Y0200411D01*
X0455030Y0199928D01*
X0455030Y0198916D02*
X0454546Y0198432D01*
X0454546Y0197465D01*
X0455030Y0196981D01*
X0456965Y0196981D01*
X0457449Y0197465D01*
X0457449Y0198432D01*
X0456965Y0198916D01*
X0457449Y0199928D02*
X0455514Y0201863D01*
X0455030Y0201863D01*
X0457449Y0201863D02*
X0457449Y0199928D01*
X0457015Y0196209D02*
X0457499Y0195725D01*
X0457499Y0194758D01*
X0457015Y0194274D01*
X0455080Y0196209D01*
X0457015Y0196209D01*
X0457015Y0194274D02*
X0455080Y0194274D01*
X0454596Y0194758D01*
X0454596Y0195725D01*
X0455080Y0196209D01*
X0456048Y0193263D02*
X0456048Y0191328D01*
X0454596Y0192779D01*
X0457499Y0192779D01*
X0457499Y0190316D02*
X0456531Y0189349D01*
X0456531Y0189832D02*
X0456531Y0188381D01*
X0457499Y0188381D02*
X0454596Y0188381D01*
X0454596Y0189832D01*
X0455080Y0190316D01*
X0456048Y0190316D01*
X0456531Y0189832D01*
X0464530Y0179509D02*
X0465014Y0179509D01*
X0465498Y0179025D01*
X0465981Y0179509D01*
X0466465Y0179509D01*
X0466949Y0179025D01*
X0466949Y0178058D01*
X0466465Y0177574D01*
X0466465Y0176563D02*
X0465981Y0176563D01*
X0465498Y0176079D01*
X0465498Y0174628D01*
X0466465Y0174628D01*
X0466949Y0175111D01*
X0466949Y0176079D01*
X0466465Y0176563D01*
X0464530Y0175595D02*
X0465498Y0174628D01*
X0464530Y0175595D02*
X0464046Y0176563D01*
X0464530Y0177574D02*
X0464046Y0178058D01*
X0464046Y0179025D01*
X0464530Y0179509D01*
X0465498Y0179025D02*
X0465498Y0178542D01*
X0466465Y0173616D02*
X0466949Y0173132D01*
X0466949Y0172165D01*
X0466465Y0171681D01*
X0464530Y0171681D01*
X0464046Y0172165D01*
X0464046Y0173132D01*
X0464530Y0173616D01*
X0451599Y0171575D02*
X0448696Y0171575D01*
X0450148Y0170124D01*
X0450148Y0172059D01*
X0450631Y0169113D02*
X0450148Y0168629D01*
X0450148Y0167178D01*
X0451115Y0167178D01*
X0451599Y0167661D01*
X0451599Y0168629D01*
X0451115Y0169113D01*
X0450631Y0169113D01*
X0449180Y0168145D02*
X0450148Y0167178D01*
X0449180Y0168145D02*
X0448696Y0169113D01*
X0449180Y0166166D02*
X0448696Y0165682D01*
X0448696Y0164715D01*
X0449180Y0164231D01*
X0451115Y0164231D01*
X0451599Y0164715D01*
X0451599Y0165682D01*
X0451115Y0166166D01*
X0443199Y0161925D02*
X0443199Y0160958D01*
X0442715Y0160474D01*
X0440780Y0162409D01*
X0442715Y0162409D01*
X0443199Y0161925D01*
X0442715Y0160474D02*
X0440780Y0160474D01*
X0440296Y0160958D01*
X0440296Y0161925D01*
X0440780Y0162409D01*
X0440296Y0159463D02*
X0440296Y0157528D01*
X0441748Y0157528D01*
X0441264Y0158495D01*
X0441264Y0158979D01*
X0441748Y0159463D01*
X0442715Y0159463D01*
X0443199Y0158979D01*
X0443199Y0158011D01*
X0442715Y0157528D01*
X0443199Y0156516D02*
X0442231Y0155549D01*
X0442231Y0156032D02*
X0442231Y0154581D01*
X0441748Y0153959D02*
X0441748Y0152508D01*
X0441264Y0152024D01*
X0440780Y0152024D01*
X0440296Y0152508D01*
X0440296Y0153475D01*
X0440780Y0153959D01*
X0442715Y0153959D01*
X0443199Y0153475D01*
X0443199Y0152508D01*
X0442715Y0152024D01*
X0441748Y0151013D02*
X0441748Y0149078D01*
X0440296Y0150529D01*
X0443199Y0150529D01*
X0443199Y0148066D02*
X0442231Y0147099D01*
X0442231Y0147582D02*
X0442231Y0146131D01*
X0443199Y0146131D02*
X0440296Y0146131D01*
X0440296Y0147582D01*
X0440780Y0148066D01*
X0441748Y0148066D01*
X0442231Y0147582D01*
X0443199Y0154581D02*
X0440296Y0154581D01*
X0440296Y0156032D01*
X0440780Y0156516D01*
X0441748Y0156516D01*
X0442231Y0156032D01*
X0426499Y0162865D02*
X0426499Y0163832D01*
X0426015Y0164316D01*
X0426015Y0165328D02*
X0426499Y0165811D01*
X0426499Y0166779D01*
X0426015Y0167263D01*
X0425048Y0167263D01*
X0424564Y0166779D01*
X0424564Y0166295D01*
X0425048Y0165328D01*
X0423596Y0165328D01*
X0423596Y0167263D01*
X0424080Y0168274D02*
X0423596Y0168758D01*
X0423596Y0169725D01*
X0424080Y0170209D01*
X0424564Y0170209D01*
X0425048Y0169725D01*
X0425531Y0170209D01*
X0426015Y0170209D01*
X0426499Y0169725D01*
X0426499Y0168758D01*
X0426015Y0168274D01*
X0425048Y0169242D02*
X0425048Y0169725D01*
X0424080Y0164316D02*
X0423596Y0163832D01*
X0423596Y0162865D01*
X0424080Y0162381D01*
X0426015Y0162381D01*
X0426499Y0162865D01*
X0422499Y0158828D02*
X0422015Y0158828D01*
X0420080Y0160763D01*
X0419596Y0160763D01*
X0419596Y0158828D01*
X0420080Y0157816D02*
X0419596Y0157332D01*
X0419596Y0155881D01*
X0422499Y0155881D01*
X0422499Y0157332D01*
X0422015Y0157816D01*
X0420080Y0157816D01*
X0409699Y0157232D02*
X0409215Y0157716D01*
X0407280Y0157716D01*
X0406796Y0157232D01*
X0406796Y0155781D01*
X0409699Y0155781D01*
X0409699Y0157232D01*
X0409215Y0158728D02*
X0409699Y0159211D01*
X0409699Y0160179D01*
X0409215Y0160663D01*
X0408731Y0160663D01*
X0408248Y0160179D01*
X0408248Y0158728D01*
X0409215Y0158728D01*
X0408248Y0158728D02*
X0407280Y0159695D01*
X0406796Y0160663D01*
X0387299Y0149125D02*
X0387299Y0148158D01*
X0386815Y0147674D01*
X0386815Y0146663D02*
X0387299Y0146179D01*
X0387299Y0145211D01*
X0386815Y0144728D01*
X0387299Y0143716D02*
X0386331Y0142749D01*
X0386331Y0143232D02*
X0386331Y0141781D01*
X0387299Y0141781D02*
X0384396Y0141781D01*
X0384396Y0143232D01*
X0384880Y0143716D01*
X0385848Y0143716D01*
X0386331Y0143232D01*
X0384880Y0144728D02*
X0384396Y0145211D01*
X0384396Y0146179D01*
X0384880Y0146663D01*
X0385364Y0146663D01*
X0385848Y0146179D01*
X0386331Y0146663D01*
X0386815Y0146663D01*
X0385848Y0146179D02*
X0385848Y0145695D01*
X0384880Y0147674D02*
X0384396Y0148158D01*
X0384396Y0149125D01*
X0384880Y0149609D01*
X0385364Y0149609D01*
X0385848Y0149125D01*
X0386331Y0149609D01*
X0386815Y0149609D01*
X0387299Y0149125D01*
X0385848Y0149125D02*
X0385848Y0148642D01*
X0388249Y0142184D02*
X0389700Y0142184D01*
X0390184Y0141700D01*
X0390184Y0140732D01*
X0389700Y0140249D01*
X0388249Y0140249D01*
X0389216Y0140249D02*
X0390184Y0139281D01*
X0391195Y0139281D02*
X0393130Y0141216D01*
X0393130Y0141700D01*
X0392647Y0142184D01*
X0391679Y0142184D01*
X0391195Y0141700D01*
X0391195Y0139281D02*
X0393130Y0139281D01*
X0394142Y0139765D02*
X0394626Y0139281D01*
X0395593Y0139281D01*
X0396077Y0139765D01*
X0396077Y0141700D01*
X0395593Y0142184D01*
X0394626Y0142184D01*
X0394142Y0141700D01*
X0394142Y0141216D01*
X0394626Y0140732D01*
X0396077Y0140732D01*
X0388249Y0139281D02*
X0388249Y0142184D01*
X0411999Y0129234D02*
X0413450Y0129234D01*
X0413934Y0128750D01*
X0413934Y0126815D01*
X0413450Y0126331D01*
X0411999Y0126331D01*
X0411999Y0129234D01*
X0414945Y0128266D02*
X0415913Y0129234D01*
X0415913Y0126331D01*
X0416880Y0126331D02*
X0414945Y0126331D01*
X0417892Y0126815D02*
X0419827Y0128750D01*
X0419827Y0126815D01*
X0419343Y0126331D01*
X0418376Y0126331D01*
X0417892Y0126815D01*
X0417892Y0128750D01*
X0418376Y0129234D01*
X0419343Y0129234D01*
X0419827Y0128750D01*
X0417663Y0106784D02*
X0417663Y0103881D01*
X0418630Y0103881D02*
X0416695Y0103881D01*
X0415684Y0104365D02*
X0415684Y0106300D01*
X0415200Y0106784D01*
X0413749Y0106784D01*
X0413749Y0103881D01*
X0415200Y0103881D01*
X0415684Y0104365D01*
X0416695Y0105816D02*
X0417663Y0106784D01*
X0418343Y0086034D02*
X0417859Y0085550D01*
X0417859Y0083615D01*
X0418343Y0083131D01*
X0419310Y0083131D01*
X0419794Y0083615D01*
X0420806Y0083615D02*
X0421290Y0083131D01*
X0422257Y0083131D01*
X0422741Y0083615D01*
X0422741Y0084099D01*
X0422257Y0084582D01*
X0421773Y0084582D01*
X0422257Y0084582D02*
X0422741Y0085066D01*
X0422741Y0085550D01*
X0422257Y0086034D01*
X0421290Y0086034D01*
X0420806Y0085550D01*
X0419794Y0085550D02*
X0419310Y0086034D01*
X0418343Y0086034D01*
X0423752Y0085550D02*
X0424236Y0086034D01*
X0425204Y0086034D01*
X0425687Y0085550D01*
X0423752Y0083615D01*
X0424236Y0083131D01*
X0425204Y0083131D01*
X0425687Y0083615D01*
X0425687Y0085550D01*
X0423752Y0085550D02*
X0423752Y0083615D01*
X0434849Y0078834D02*
X0434849Y0075931D01*
X0434849Y0076899D02*
X0436300Y0076899D01*
X0436784Y0077382D01*
X0436784Y0078350D01*
X0436300Y0078834D01*
X0434849Y0078834D01*
X0435816Y0076899D02*
X0436784Y0075931D01*
X0437795Y0077382D02*
X0439730Y0077382D01*
X0440742Y0077382D02*
X0442677Y0077382D01*
X0442193Y0075931D02*
X0442193Y0078834D01*
X0440742Y0077382D01*
X0439247Y0075931D02*
X0439247Y0078834D01*
X0437795Y0077382D01*
X0452249Y0075550D02*
X0452249Y0073615D01*
X0452733Y0073131D01*
X0453700Y0073131D01*
X0454184Y0073615D01*
X0455195Y0074582D02*
X0457130Y0074582D01*
X0458142Y0074582D02*
X0459593Y0074582D01*
X0460077Y0074099D01*
X0460077Y0073615D01*
X0459593Y0073131D01*
X0458626Y0073131D01*
X0458142Y0073615D01*
X0458142Y0074582D01*
X0459109Y0075550D01*
X0460077Y0076034D01*
X0456647Y0076034D02*
X0455195Y0074582D01*
X0454184Y0075550D02*
X0453700Y0076034D01*
X0452733Y0076034D01*
X0452249Y0075550D01*
X0456647Y0076034D02*
X0456647Y0073131D01*
X0459580Y0084242D02*
X0461515Y0084242D01*
X0461999Y0084725D01*
X0461999Y0085693D01*
X0461515Y0086177D01*
X0461515Y0087188D02*
X0461999Y0087672D01*
X0461999Y0088639D01*
X0461515Y0089123D01*
X0461031Y0089123D01*
X0460548Y0088639D01*
X0460548Y0088156D01*
X0460548Y0088639D02*
X0460064Y0089123D01*
X0459580Y0089123D01*
X0459096Y0088639D01*
X0459096Y0087672D01*
X0459580Y0087188D01*
X0459580Y0086177D02*
X0459096Y0085693D01*
X0459096Y0084725D01*
X0459580Y0084242D01*
X0460548Y0090135D02*
X0460548Y0092070D01*
X0461999Y0091586D02*
X0459096Y0091586D01*
X0460548Y0090135D01*
X0491599Y0101115D02*
X0491599Y0103050D01*
X0492083Y0103534D01*
X0493050Y0103534D01*
X0493534Y0103050D01*
X0494545Y0103050D02*
X0495029Y0103534D01*
X0495997Y0103534D01*
X0496480Y0103050D01*
X0496480Y0102566D01*
X0495997Y0102082D01*
X0496480Y0101599D01*
X0496480Y0101115D01*
X0495997Y0100631D01*
X0495029Y0100631D01*
X0494545Y0101115D01*
X0493534Y0101115D02*
X0493050Y0100631D01*
X0492083Y0100631D01*
X0491599Y0101115D01*
X0495513Y0102082D02*
X0495997Y0102082D01*
X0497492Y0101115D02*
X0497976Y0100631D01*
X0498943Y0100631D01*
X0499427Y0101115D01*
X0499427Y0101599D01*
X0498943Y0102082D01*
X0498459Y0102082D01*
X0498943Y0102082D02*
X0499427Y0102566D01*
X0499427Y0103050D01*
X0498943Y0103534D01*
X0497976Y0103534D01*
X0497492Y0103050D01*
X0500299Y0103400D02*
X0500299Y0101465D01*
X0500783Y0100981D01*
X0501750Y0100981D01*
X0502234Y0101465D01*
X0503245Y0100981D02*
X0505180Y0102916D01*
X0505180Y0103400D01*
X0504697Y0103884D01*
X0503729Y0103884D01*
X0503245Y0103400D01*
X0502234Y0103400D02*
X0501750Y0103884D01*
X0500783Y0103884D01*
X0500299Y0103400D01*
X0503245Y0100981D02*
X0505180Y0100981D01*
X0506192Y0100981D02*
X0506192Y0101465D01*
X0508127Y0103400D01*
X0508127Y0103884D01*
X0506192Y0103884D01*
X0516046Y0090802D02*
X0518949Y0090802D01*
X0518949Y0089835D02*
X0518949Y0091770D01*
X0517014Y0089835D02*
X0516046Y0090802D01*
X0516046Y0088823D02*
X0516046Y0086888D01*
X0517498Y0086888D01*
X0517014Y0087856D01*
X0517014Y0088339D01*
X0517498Y0088823D01*
X0518465Y0088823D01*
X0518949Y0088339D01*
X0518949Y0087372D01*
X0518465Y0086888D01*
X0518949Y0085877D02*
X0517981Y0084909D01*
X0517981Y0085393D02*
X0517981Y0083942D01*
X0518949Y0083942D02*
X0516046Y0083942D01*
X0516046Y0085393D01*
X0516530Y0085877D01*
X0517498Y0085877D01*
X0517981Y0085393D01*
X0498743Y0050984D02*
X0497776Y0050984D01*
X0497292Y0050500D01*
X0497292Y0050016D01*
X0497776Y0049532D01*
X0499227Y0049532D01*
X0499227Y0048565D02*
X0499227Y0050500D01*
X0498743Y0050984D01*
X0499227Y0048565D02*
X0498743Y0048081D01*
X0497776Y0048081D01*
X0497292Y0048565D01*
X0496280Y0049532D02*
X0494345Y0049532D01*
X0495797Y0050984D01*
X0495797Y0048081D01*
X0493334Y0048565D02*
X0492850Y0048081D01*
X0491883Y0048081D01*
X0491399Y0048565D01*
X0491399Y0050500D01*
X0491883Y0050984D01*
X0492850Y0050984D01*
X0493334Y0050500D01*
X0457827Y0045234D02*
X0457827Y0044750D01*
X0455892Y0042815D01*
X0455892Y0042331D01*
X0454397Y0042331D02*
X0454397Y0045234D01*
X0452945Y0043782D01*
X0454880Y0043782D01*
X0455892Y0045234D02*
X0457827Y0045234D01*
X0451934Y0044750D02*
X0451450Y0045234D01*
X0450483Y0045234D01*
X0449999Y0044750D01*
X0449999Y0042815D01*
X0450483Y0042331D01*
X0451450Y0042331D01*
X0451934Y0042815D01*
X0417287Y0068715D02*
X0416804Y0068231D01*
X0415836Y0068231D01*
X0415352Y0068715D01*
X0416320Y0069682D02*
X0416804Y0069682D01*
X0417287Y0069199D01*
X0417287Y0068715D01*
X0416804Y0069682D02*
X0417287Y0070166D01*
X0417287Y0070650D01*
X0416804Y0071134D01*
X0415836Y0071134D01*
X0415352Y0070650D01*
X0414341Y0069682D02*
X0412406Y0069682D01*
X0413857Y0071134D01*
X0413857Y0068231D01*
X0411394Y0068231D02*
X0410427Y0069199D01*
X0410910Y0069199D02*
X0409459Y0069199D01*
X0409459Y0068231D02*
X0409459Y0071134D01*
X0410910Y0071134D01*
X0411394Y0070650D01*
X0411394Y0069682D01*
X0410910Y0069199D01*
X0411192Y0071731D02*
X0411192Y0072215D01*
X0413127Y0074150D01*
X0413127Y0074634D01*
X0411192Y0074634D01*
X0410180Y0074150D02*
X0409697Y0074634D01*
X0408729Y0074634D01*
X0408245Y0074150D01*
X0407234Y0074150D02*
X0407234Y0073182D01*
X0406750Y0072699D01*
X0405299Y0072699D01*
X0404577Y0072649D02*
X0404093Y0073132D01*
X0402642Y0073132D01*
X0402642Y0072165D01*
X0403126Y0071681D01*
X0404093Y0071681D01*
X0404577Y0072165D01*
X0404577Y0072649D01*
X0405299Y0071731D02*
X0405299Y0074634D01*
X0406750Y0074634D01*
X0407234Y0074150D01*
X0406266Y0072699D02*
X0407234Y0071731D01*
X0408245Y0071731D02*
X0410180Y0073666D01*
X0410180Y0074150D01*
X0410180Y0071731D02*
X0408245Y0071731D01*
X0404577Y0074584D02*
X0403609Y0074100D01*
X0402642Y0073132D01*
X0401630Y0073616D02*
X0401630Y0074100D01*
X0401147Y0074584D01*
X0400179Y0074584D01*
X0399695Y0074100D01*
X0398684Y0074100D02*
X0398684Y0073132D01*
X0398200Y0072649D01*
X0396749Y0072649D01*
X0397716Y0072649D02*
X0398684Y0071681D01*
X0399695Y0071681D02*
X0401630Y0073616D01*
X0401630Y0071681D02*
X0399695Y0071681D01*
X0398684Y0074100D02*
X0398200Y0074584D01*
X0396749Y0074584D01*
X0396749Y0071681D01*
X0343027Y0099165D02*
X0343027Y0100132D01*
X0342543Y0100616D01*
X0342059Y0100616D01*
X0341092Y0100132D01*
X0341092Y0101584D01*
X0343027Y0101584D01*
X0343027Y0099165D02*
X0342543Y0098681D01*
X0341576Y0098681D01*
X0341092Y0099165D01*
X0340080Y0098681D02*
X0338145Y0098681D01*
X0339113Y0098681D02*
X0339113Y0101584D01*
X0338145Y0100616D01*
X0337134Y0100132D02*
X0336650Y0099649D01*
X0335199Y0099649D01*
X0336166Y0099649D02*
X0337134Y0098681D01*
X0337134Y0100132D02*
X0337134Y0101100D01*
X0336650Y0101584D01*
X0335199Y0101584D01*
X0335199Y0098681D01*
X0332730Y0099015D02*
X0332730Y0099499D01*
X0332247Y0099982D01*
X0331763Y0099982D01*
X0332247Y0099982D02*
X0332730Y0100466D01*
X0332730Y0100950D01*
X0332247Y0101434D01*
X0331279Y0101434D01*
X0330795Y0100950D01*
X0329784Y0101434D02*
X0327849Y0101434D01*
X0327849Y0098531D01*
X0327849Y0099982D02*
X0328816Y0099982D01*
X0330795Y0099015D02*
X0331279Y0098531D01*
X0332247Y0098531D01*
X0332730Y0099015D01*
X0332234Y0130331D02*
X0331266Y0131299D01*
X0331750Y0131299D02*
X0330299Y0131299D01*
X0330299Y0130331D02*
X0330299Y0133234D01*
X0331750Y0133234D01*
X0332234Y0132750D01*
X0332234Y0131782D01*
X0331750Y0131299D01*
X0333245Y0132266D02*
X0334213Y0133234D01*
X0334213Y0130331D01*
X0335180Y0130331D02*
X0333245Y0130331D01*
X0336192Y0130815D02*
X0336676Y0130331D01*
X0337643Y0130331D01*
X0338127Y0130815D01*
X0338127Y0131299D01*
X0337643Y0131782D01*
X0337159Y0131782D01*
X0337643Y0131782D02*
X0338127Y0132266D01*
X0338127Y0132750D01*
X0337643Y0133234D01*
X0336676Y0133234D01*
X0336192Y0132750D01*
X0406796Y0182631D02*
X0406796Y0184082D01*
X0407280Y0184566D01*
X0409215Y0184566D01*
X0409699Y0184082D01*
X0409699Y0182631D01*
X0406796Y0182631D01*
X0407280Y0185578D02*
X0406796Y0186061D01*
X0406796Y0187029D01*
X0407280Y0187513D01*
X0409215Y0187513D01*
X0409699Y0187029D01*
X0409699Y0186061D01*
X0409215Y0185578D01*
X0408248Y0186061D02*
X0408248Y0187513D01*
X0408248Y0186061D02*
X0407764Y0185578D01*
X0407280Y0185578D01*
X0419596Y0186211D02*
X0419596Y0187179D01*
X0420080Y0187663D01*
X0420564Y0187663D01*
X0421048Y0187179D01*
X0421048Y0186211D01*
X0420564Y0185728D01*
X0420080Y0185728D01*
X0419596Y0186211D01*
X0421048Y0186211D02*
X0421531Y0185728D01*
X0422015Y0185728D01*
X0422499Y0186211D01*
X0422499Y0187179D01*
X0422015Y0187663D01*
X0421531Y0187663D01*
X0421048Y0187179D01*
X0422015Y0184716D02*
X0420080Y0184716D01*
X0419596Y0184232D01*
X0419596Y0182781D01*
X0422499Y0182781D01*
X0422499Y0184232D01*
X0422015Y0184716D01*
X0473349Y0214415D02*
X0473833Y0213931D01*
X0474800Y0213931D01*
X0475284Y0214415D01*
X0476295Y0215382D02*
X0478230Y0215382D01*
X0479242Y0215866D02*
X0480209Y0216834D01*
X0480209Y0213931D01*
X0479242Y0213931D02*
X0481177Y0213931D01*
X0477747Y0213931D02*
X0477747Y0216834D01*
X0476295Y0215382D01*
X0475284Y0216350D02*
X0474800Y0216834D01*
X0473833Y0216834D01*
X0473349Y0216350D01*
X0473349Y0214415D01*
X0490446Y0214779D02*
X0491898Y0213328D01*
X0491898Y0215263D01*
X0492865Y0216274D02*
X0490930Y0218209D01*
X0492865Y0218209D01*
X0493349Y0217725D01*
X0493349Y0216758D01*
X0492865Y0216274D01*
X0490930Y0216274D01*
X0490446Y0216758D01*
X0490446Y0217725D01*
X0490930Y0218209D01*
X0490446Y0214779D02*
X0493349Y0214779D01*
X0492865Y0212316D02*
X0493349Y0211832D01*
X0493349Y0210865D01*
X0492865Y0210381D01*
X0490930Y0210381D01*
X0490446Y0210865D01*
X0490446Y0211832D01*
X0490930Y0212316D01*
X0514246Y0220765D02*
X0514246Y0221732D01*
X0514730Y0222216D01*
X0514730Y0223228D02*
X0514246Y0223711D01*
X0514246Y0224679D01*
X0514730Y0225163D01*
X0515214Y0225163D01*
X0515698Y0224679D01*
X0516181Y0225163D01*
X0516665Y0225163D01*
X0517149Y0224679D01*
X0517149Y0223711D01*
X0516665Y0223228D01*
X0516665Y0222216D02*
X0517149Y0221732D01*
X0517149Y0220765D01*
X0516665Y0220281D01*
X0514730Y0220281D01*
X0514246Y0220765D01*
X0515698Y0224195D02*
X0515698Y0224679D01*
X0515214Y0226174D02*
X0515698Y0226658D01*
X0515698Y0228109D01*
X0516665Y0228109D02*
X0514730Y0228109D01*
X0514246Y0227625D01*
X0514246Y0226658D01*
X0514730Y0226174D01*
X0515214Y0226174D01*
X0516665Y0226174D02*
X0517149Y0226658D01*
X0517149Y0227625D01*
X0516665Y0228109D01*
X0476877Y0240715D02*
X0476393Y0240231D01*
X0475426Y0240231D01*
X0474942Y0240715D01*
X0474942Y0241199D01*
X0475426Y0241682D01*
X0476393Y0241682D01*
X0476877Y0241199D01*
X0476877Y0240715D01*
X0476393Y0241682D02*
X0476877Y0242166D01*
X0476877Y0242650D01*
X0476393Y0243134D01*
X0475426Y0243134D01*
X0474942Y0242650D01*
X0474942Y0242166D01*
X0475426Y0241682D01*
X0473930Y0241199D02*
X0473930Y0240715D01*
X0473447Y0240231D01*
X0472479Y0240231D01*
X0471995Y0240715D01*
X0470984Y0240715D02*
X0470500Y0240231D01*
X0469533Y0240231D01*
X0469049Y0240715D01*
X0469049Y0242650D01*
X0469533Y0243134D01*
X0470500Y0243134D01*
X0470984Y0242650D01*
X0471995Y0242650D02*
X0472479Y0243134D01*
X0473447Y0243134D01*
X0473930Y0242650D01*
X0473930Y0242166D01*
X0473447Y0241682D01*
X0473930Y0241199D01*
X0473447Y0241682D02*
X0472963Y0241682D01*
X0467327Y0242450D02*
X0465392Y0240515D01*
X0465392Y0240031D01*
X0464380Y0240515D02*
X0463897Y0240031D01*
X0462929Y0240031D01*
X0462445Y0240515D01*
X0461434Y0240515D02*
X0460950Y0240031D01*
X0459983Y0240031D01*
X0459499Y0240515D01*
X0459499Y0242450D01*
X0459983Y0242934D01*
X0460950Y0242934D01*
X0461434Y0242450D01*
X0462445Y0242450D02*
X0462929Y0242934D01*
X0463897Y0242934D01*
X0464380Y0242450D01*
X0464380Y0241966D01*
X0463897Y0241482D01*
X0464380Y0240999D01*
X0464380Y0240515D01*
X0463897Y0241482D02*
X0463413Y0241482D01*
X0465392Y0242934D02*
X0467327Y0242934D01*
X0467327Y0242450D01*
X0520446Y0191159D02*
X0520930Y0190192D01*
X0521898Y0189224D01*
X0521898Y0190675D01*
X0522381Y0191159D01*
X0522865Y0191159D01*
X0523349Y0190675D01*
X0523349Y0189708D01*
X0522865Y0189224D01*
X0521898Y0189224D01*
X0522381Y0188213D02*
X0522865Y0188213D01*
X0523349Y0187729D01*
X0523349Y0186761D01*
X0522865Y0186278D01*
X0522865Y0185266D02*
X0523349Y0184782D01*
X0523349Y0183815D01*
X0522865Y0183331D01*
X0520930Y0183331D01*
X0520446Y0183815D01*
X0520446Y0184782D01*
X0520930Y0185266D01*
X0520930Y0186278D02*
X0520446Y0186761D01*
X0520446Y0187729D01*
X0520930Y0188213D01*
X0521414Y0188213D01*
X0521898Y0187729D01*
X0522381Y0188213D01*
X0521898Y0187729D02*
X0521898Y0187245D01*
X0513887Y0180050D02*
X0513404Y0180534D01*
X0512436Y0180534D01*
X0511952Y0180050D01*
X0510941Y0180534D02*
X0509006Y0180534D01*
X0509006Y0179082D01*
X0509973Y0179566D01*
X0510457Y0179566D01*
X0510941Y0179082D01*
X0510941Y0178115D01*
X0510457Y0177631D01*
X0509490Y0177631D01*
X0509006Y0178115D01*
X0507994Y0177631D02*
X0507027Y0178599D01*
X0507510Y0178599D02*
X0506059Y0178599D01*
X0506059Y0177631D02*
X0506059Y0180534D01*
X0507510Y0180534D01*
X0507994Y0180050D01*
X0507994Y0179082D01*
X0507510Y0178599D01*
X0511952Y0177631D02*
X0513887Y0179566D01*
X0513887Y0180050D01*
X0513887Y0177631D02*
X0511952Y0177631D01*
X0518496Y0177335D02*
X0518980Y0177819D01*
X0519464Y0177819D01*
X0519948Y0177335D01*
X0519948Y0176368D01*
X0519464Y0175884D01*
X0518980Y0175884D01*
X0518496Y0176368D01*
X0518496Y0177335D01*
X0519948Y0177335D02*
X0520431Y0177819D01*
X0520915Y0177819D01*
X0521399Y0177335D01*
X0521399Y0176368D01*
X0520915Y0175884D01*
X0520431Y0175884D01*
X0519948Y0176368D01*
X0519948Y0174872D02*
X0518980Y0174872D01*
X0518496Y0174389D01*
X0518496Y0172937D01*
X0521399Y0172937D01*
X0520431Y0172937D02*
X0520431Y0174389D01*
X0519948Y0174872D01*
X0518496Y0171926D02*
X0518496Y0170958D01*
X0518496Y0171442D02*
X0520915Y0171442D01*
X0521399Y0170958D01*
X0521399Y0170475D01*
X0520915Y0169991D01*
X0518493Y0159484D02*
X0517526Y0159484D01*
X0517042Y0159000D01*
X0516030Y0159484D02*
X0515063Y0159000D01*
X0514095Y0158032D01*
X0515547Y0158032D01*
X0516030Y0157549D01*
X0516030Y0157065D01*
X0515547Y0156581D01*
X0514579Y0156581D01*
X0514095Y0157065D01*
X0514095Y0158032D01*
X0513084Y0157065D02*
X0512600Y0156581D01*
X0511633Y0156581D01*
X0511149Y0157065D01*
X0511149Y0159000D01*
X0511633Y0159484D01*
X0512600Y0159484D01*
X0513084Y0159000D01*
X0517042Y0156581D02*
X0518977Y0158516D01*
X0518977Y0159000D01*
X0518493Y0159484D01*
X0518977Y0156581D02*
X0517042Y0156581D01*
X0506299Y0153325D02*
X0506299Y0152358D01*
X0505815Y0151874D01*
X0503880Y0153809D01*
X0505815Y0153809D01*
X0506299Y0153325D01*
X0505815Y0151874D02*
X0503880Y0151874D01*
X0503396Y0152358D01*
X0503396Y0153325D01*
X0503880Y0153809D01*
X0503396Y0150863D02*
X0503880Y0149895D01*
X0504848Y0148928D01*
X0504848Y0150379D01*
X0505331Y0150863D01*
X0505815Y0150863D01*
X0506299Y0150379D01*
X0506299Y0149411D01*
X0505815Y0148928D01*
X0504848Y0148928D01*
X0505815Y0147916D02*
X0506299Y0147432D01*
X0506299Y0146465D01*
X0505815Y0145981D01*
X0503880Y0145981D01*
X0503396Y0146465D01*
X0503396Y0147432D01*
X0503880Y0147916D01*
X0490152Y0185881D02*
X0490152Y0186365D01*
X0492087Y0188300D01*
X0492087Y0188784D01*
X0490152Y0188784D01*
X0489140Y0188300D02*
X0489140Y0187332D01*
X0488656Y0186849D01*
X0487205Y0186849D01*
X0487205Y0185881D02*
X0487205Y0188784D01*
X0488656Y0188784D01*
X0489140Y0188300D01*
X0486194Y0188784D02*
X0485226Y0188784D01*
X0485710Y0188784D02*
X0485710Y0186365D01*
X0485226Y0185881D01*
X0484742Y0185881D01*
X0484259Y0186365D01*
X0223930Y0092934D02*
X0221995Y0092934D01*
X0221995Y0091482D01*
X0222963Y0091966D01*
X0223447Y0091966D01*
X0223930Y0091482D01*
X0223930Y0090515D01*
X0223447Y0090031D01*
X0222479Y0090031D01*
X0221995Y0090515D01*
X0220984Y0090515D02*
X0220500Y0090031D01*
X0219533Y0090031D01*
X0219049Y0090515D01*
X0219049Y0092450D01*
X0219533Y0092934D01*
X0220500Y0092934D01*
X0220984Y0092450D01*
X0221029Y0093631D02*
X0220545Y0094115D01*
X0221029Y0093631D02*
X0221997Y0093631D01*
X0222480Y0094115D01*
X0222480Y0094599D01*
X0221997Y0095082D01*
X0221513Y0095082D01*
X0221997Y0095082D02*
X0222480Y0095566D01*
X0222480Y0096050D01*
X0221997Y0096534D01*
X0221029Y0096534D01*
X0220545Y0096050D01*
X0219534Y0096050D02*
X0219050Y0096534D01*
X0218083Y0096534D01*
X0217599Y0096050D01*
X0217599Y0094115D01*
X0218083Y0093631D01*
X0219050Y0093631D01*
X0219534Y0094115D01*
X0164030Y0066384D02*
X0162095Y0066384D01*
X0161084Y0065900D02*
X0160600Y0066384D01*
X0159633Y0066384D01*
X0159149Y0065900D01*
X0159149Y0063965D01*
X0159633Y0063481D01*
X0160600Y0063481D01*
X0161084Y0063965D01*
X0162095Y0063965D02*
X0162095Y0063481D01*
X0162095Y0063965D02*
X0164030Y0065900D01*
X0164030Y0066384D01*
X0151099Y0129142D02*
X0148196Y0129142D01*
X0148196Y0130593D01*
X0148680Y0131077D01*
X0149648Y0131077D01*
X0150131Y0130593D01*
X0150131Y0129142D01*
X0150131Y0130109D02*
X0151099Y0131077D01*
X0151099Y0132088D02*
X0151099Y0134023D01*
X0151099Y0133056D02*
X0148196Y0133056D01*
X0149164Y0132088D01*
X0148680Y0135035D02*
X0148196Y0135518D01*
X0148196Y0136486D01*
X0148680Y0136970D01*
X0150615Y0135035D01*
X0151099Y0135518D01*
X0151099Y0136486D01*
X0150615Y0136970D01*
X0148680Y0136970D01*
X0148680Y0135035D02*
X0150615Y0135035D01*
D17*
X0095699Y0124631D02*
X0095699Y0083631D01*
X0059099Y0083631D02*
X0059099Y0124631D01*
X0226497Y0126881D02*
X0226497Y0127982D01*
X0226864Y0128349D01*
X0227598Y0128349D01*
X0227965Y0127982D01*
X0227965Y0126881D01*
X0228699Y0126881D02*
X0226497Y0126881D01*
X0227965Y0127615D02*
X0228699Y0128349D01*
X0228699Y0129091D02*
X0227231Y0130559D01*
X0226864Y0130559D01*
X0226497Y0130192D01*
X0226497Y0129458D01*
X0226864Y0129091D01*
X0228699Y0129091D02*
X0228699Y0130559D01*
X0228332Y0131301D02*
X0226864Y0132769D01*
X0228332Y0132769D01*
X0228699Y0132402D01*
X0228699Y0131668D01*
X0228332Y0131301D01*
X0226864Y0131301D01*
X0226497Y0131668D01*
X0226497Y0132402D01*
X0226864Y0132769D01*
X0246999Y0209931D02*
X0287999Y0209931D01*
X0287949Y0246481D02*
X0246949Y0246481D01*
X0424247Y0145152D02*
X0424247Y0144418D01*
X0424614Y0144051D01*
X0424247Y0143309D02*
X0424247Y0141841D01*
X0425348Y0141841D01*
X0424981Y0142575D01*
X0424981Y0142942D01*
X0425348Y0143309D01*
X0426082Y0143309D01*
X0426449Y0142942D01*
X0426449Y0142208D01*
X0426082Y0141841D01*
X0426082Y0141099D02*
X0426449Y0140732D01*
X0426449Y0139998D01*
X0426082Y0139631D01*
X0424614Y0139631D01*
X0424247Y0139998D01*
X0424247Y0140732D01*
X0424614Y0141099D01*
X0426449Y0139119D02*
X0426449Y0137651D01*
X0426449Y0138385D02*
X0424247Y0138385D01*
X0424981Y0137651D01*
X0425348Y0136909D02*
X0426082Y0136909D01*
X0426449Y0136542D01*
X0426449Y0135808D01*
X0426082Y0135441D01*
X0425348Y0135441D02*
X0424981Y0136175D01*
X0424981Y0136542D01*
X0425348Y0136909D01*
X0424247Y0136909D02*
X0424247Y0135441D01*
X0425348Y0135441D01*
X0426082Y0134699D02*
X0426449Y0134332D01*
X0426449Y0133598D01*
X0426082Y0133231D01*
X0424614Y0133231D01*
X0424247Y0133598D01*
X0424247Y0134332D01*
X0424614Y0134699D01*
X0440097Y0131602D02*
X0440097Y0130868D01*
X0440464Y0130501D01*
X0440831Y0130501D01*
X0441198Y0130868D01*
X0441198Y0131602D01*
X0441565Y0131969D01*
X0441932Y0131969D01*
X0442299Y0131602D01*
X0442299Y0130868D01*
X0441932Y0130501D01*
X0441565Y0130501D01*
X0441198Y0130868D01*
X0441198Y0131602D02*
X0440831Y0131969D01*
X0440464Y0131969D01*
X0440097Y0131602D01*
X0441198Y0129759D02*
X0441198Y0128291D01*
X0440097Y0129392D01*
X0442299Y0129392D01*
X0442299Y0127549D02*
X0441565Y0126815D01*
X0441565Y0127182D02*
X0441565Y0126081D01*
X0442299Y0126081D02*
X0440097Y0126081D01*
X0440097Y0127182D01*
X0440464Y0127549D01*
X0441198Y0127549D01*
X0441565Y0127182D01*
X0440664Y0124319D02*
X0442132Y0122851D01*
X0442499Y0122851D01*
X0442499Y0121742D02*
X0440297Y0121742D01*
X0441398Y0120641D01*
X0441398Y0122109D01*
X0440297Y0122851D02*
X0440297Y0124319D01*
X0440664Y0124319D01*
X0440664Y0119899D02*
X0441398Y0119899D01*
X0441765Y0119532D01*
X0441765Y0118431D01*
X0442499Y0118431D02*
X0440297Y0118431D01*
X0440297Y0119532D01*
X0440664Y0119899D01*
X0441765Y0119165D02*
X0442499Y0119899D01*
X0450847Y0119948D02*
X0451214Y0119581D01*
X0452682Y0119581D01*
X0453049Y0119948D01*
X0453049Y0120682D01*
X0452682Y0121049D01*
X0451948Y0121791D02*
X0451948Y0123259D01*
X0451948Y0124001D02*
X0451948Y0125469D01*
X0453049Y0125102D02*
X0450847Y0125102D01*
X0451948Y0124001D01*
X0453049Y0122892D02*
X0450847Y0122892D01*
X0451948Y0121791D01*
X0451214Y0121049D02*
X0450847Y0120682D01*
X0450847Y0119948D01*
X0451264Y0116369D02*
X0451631Y0116369D01*
X0451998Y0116002D01*
X0452365Y0116369D01*
X0452732Y0116369D01*
X0453099Y0116002D01*
X0453099Y0115268D01*
X0452732Y0114901D01*
X0451998Y0115635D02*
X0451998Y0116002D01*
X0451264Y0116369D02*
X0450897Y0116002D01*
X0450897Y0115268D01*
X0451264Y0114901D01*
X0451998Y0114159D02*
X0451998Y0112691D01*
X0450897Y0113792D01*
X0453099Y0113792D01*
X0452732Y0111949D02*
X0453099Y0111582D01*
X0453099Y0110848D01*
X0452732Y0110481D01*
X0451264Y0110481D01*
X0450897Y0110848D01*
X0450897Y0111582D01*
X0451264Y0111949D01*
X0446149Y0106519D02*
X0446149Y0105051D01*
X0444681Y0106519D01*
X0444314Y0106519D01*
X0443947Y0106152D01*
X0443947Y0105418D01*
X0444314Y0105051D01*
X0445048Y0104309D02*
X0445048Y0102841D01*
X0443947Y0103942D01*
X0446149Y0103942D01*
X0445782Y0102099D02*
X0446149Y0101732D01*
X0446149Y0100998D01*
X0445782Y0100631D01*
X0444314Y0100631D01*
X0443947Y0100998D01*
X0443947Y0101732D01*
X0444314Y0102099D01*
X0442549Y0101818D02*
X0442549Y0102552D01*
X0442182Y0102919D01*
X0441815Y0102919D01*
X0441448Y0102552D01*
X0441448Y0101451D01*
X0442182Y0101451D01*
X0442549Y0101818D01*
X0441448Y0101451D02*
X0440714Y0102185D01*
X0440347Y0102919D01*
X0441448Y0100709D02*
X0441448Y0099241D01*
X0440347Y0100342D01*
X0442549Y0100342D01*
X0442549Y0098499D02*
X0441815Y0097765D01*
X0441815Y0098132D02*
X0441815Y0097031D01*
X0442549Y0097031D02*
X0440347Y0097031D01*
X0440347Y0098132D01*
X0440714Y0098499D01*
X0441448Y0098499D01*
X0441815Y0098132D01*
X0442132Y0095119D02*
X0442499Y0094752D01*
X0442499Y0094018D01*
X0442132Y0093651D01*
X0441398Y0093651D02*
X0441031Y0094385D01*
X0441031Y0094752D01*
X0441398Y0095119D01*
X0442132Y0095119D01*
X0441398Y0093651D02*
X0440297Y0093651D01*
X0440297Y0095119D01*
X0441398Y0092909D02*
X0441398Y0091441D01*
X0440297Y0092542D01*
X0442499Y0092542D01*
X0442499Y0090699D02*
X0441765Y0089965D01*
X0441765Y0090332D02*
X0441765Y0089231D01*
X0442499Y0089231D02*
X0440297Y0089231D01*
X0440297Y0090332D01*
X0440664Y0090699D01*
X0441398Y0090699D01*
X0441765Y0090332D01*
X0444797Y0089912D02*
X0445164Y0090279D01*
X0445531Y0090279D01*
X0445898Y0089912D01*
X0446265Y0090279D01*
X0446632Y0090279D01*
X0446999Y0089912D01*
X0446999Y0089178D01*
X0446632Y0088811D01*
X0446632Y0088069D02*
X0446999Y0087702D01*
X0446999Y0086968D01*
X0446632Y0086601D01*
X0445164Y0086601D01*
X0444797Y0086968D01*
X0444797Y0087702D01*
X0445164Y0088069D01*
X0445164Y0088811D02*
X0444797Y0089178D01*
X0444797Y0089912D01*
X0445898Y0089912D02*
X0445898Y0089545D01*
X0445531Y0091021D02*
X0444797Y0091755D01*
X0446999Y0091755D01*
X0446999Y0091021D02*
X0446999Y0092489D01*
X0460949Y0100498D02*
X0461316Y0100131D01*
X0462050Y0100131D01*
X0462417Y0100498D01*
X0463159Y0100498D02*
X0463526Y0100131D01*
X0464260Y0100131D01*
X0464627Y0100498D01*
X0464627Y0101232D01*
X0464260Y0101599D01*
X0463893Y0101599D01*
X0463159Y0101232D01*
X0463159Y0102333D01*
X0464627Y0102333D01*
X0465369Y0102333D02*
X0466836Y0102333D01*
X0466836Y0101966D01*
X0465369Y0100498D01*
X0465369Y0100131D01*
X0462417Y0101966D02*
X0462050Y0102333D01*
X0461316Y0102333D01*
X0460949Y0101966D01*
X0460949Y0100498D01*
X0472769Y0100648D02*
X0473136Y0100281D01*
X0473870Y0100281D01*
X0474237Y0100648D01*
X0474979Y0100281D02*
X0476447Y0101749D01*
X0476447Y0102116D01*
X0476080Y0102483D01*
X0475346Y0102483D01*
X0474979Y0102116D01*
X0474237Y0102116D02*
X0473870Y0102483D01*
X0473136Y0102483D01*
X0472769Y0102116D01*
X0472769Y0100648D01*
X0474979Y0100281D02*
X0476447Y0100281D01*
X0477189Y0100648D02*
X0477189Y0101015D01*
X0477556Y0101382D01*
X0478290Y0101382D01*
X0478657Y0101015D01*
X0478657Y0100648D01*
X0478290Y0100281D01*
X0477556Y0100281D01*
X0477189Y0100648D01*
X0477556Y0101382D02*
X0477189Y0101749D01*
X0477189Y0102116D01*
X0477556Y0102483D01*
X0478290Y0102483D01*
X0478657Y0102116D01*
X0478657Y0101749D01*
X0478290Y0101382D01*
X0483966Y0084483D02*
X0483599Y0084116D01*
X0483599Y0082648D01*
X0483966Y0082281D01*
X0484700Y0082281D01*
X0485067Y0082648D01*
X0485809Y0082281D02*
X0487277Y0083749D01*
X0487277Y0084116D01*
X0486910Y0084483D01*
X0486176Y0084483D01*
X0485809Y0084116D01*
X0485067Y0084116D02*
X0484700Y0084483D01*
X0483966Y0084483D01*
X0484170Y0082033D02*
X0483069Y0080932D01*
X0484536Y0080932D01*
X0484170Y0079831D02*
X0484170Y0082033D01*
X0485809Y0082281D02*
X0487277Y0082281D01*
X0488019Y0082648D02*
X0488386Y0082281D01*
X0489120Y0082281D01*
X0489486Y0082648D01*
X0489486Y0083015D01*
X0489120Y0083382D01*
X0488753Y0083382D01*
X0489120Y0083382D02*
X0489486Y0083749D01*
X0489486Y0084116D01*
X0489120Y0084483D01*
X0488386Y0084483D01*
X0488019Y0084116D01*
X0482327Y0082033D02*
X0480859Y0082033D01*
X0480859Y0080932D01*
X0481593Y0081299D01*
X0481960Y0081299D01*
X0482327Y0080932D01*
X0482327Y0080198D01*
X0481960Y0079831D01*
X0481226Y0079831D01*
X0480859Y0080198D01*
X0480117Y0080198D02*
X0479750Y0079831D01*
X0479016Y0079831D01*
X0478649Y0080198D01*
X0478649Y0081666D01*
X0479016Y0082033D01*
X0479750Y0082033D01*
X0480117Y0081666D01*
X0469193Y0070533D02*
X0468459Y0070533D01*
X0468092Y0070166D01*
X0469193Y0070533D02*
X0469560Y0070166D01*
X0469560Y0069799D01*
X0468092Y0068331D01*
X0469560Y0068331D01*
X0467350Y0068331D02*
X0465882Y0068331D01*
X0466616Y0068331D02*
X0466616Y0070533D01*
X0465882Y0069799D01*
X0465140Y0070166D02*
X0464773Y0070533D01*
X0464039Y0070533D01*
X0463672Y0070166D01*
X0463672Y0068698D01*
X0464039Y0068331D01*
X0464773Y0068331D01*
X0465140Y0068698D01*
X0462933Y0068331D02*
X0462199Y0068331D01*
X0462566Y0068331D02*
X0462566Y0070533D01*
X0462199Y0070533D02*
X0462933Y0070533D01*
X0462582Y0075081D02*
X0462949Y0075448D01*
X0462949Y0076182D01*
X0462582Y0076549D01*
X0462582Y0077291D02*
X0462949Y0077658D01*
X0462949Y0078392D01*
X0462582Y0078759D01*
X0461848Y0078759D01*
X0461481Y0078392D01*
X0461481Y0078025D01*
X0461848Y0077291D01*
X0460747Y0077291D01*
X0460747Y0078759D01*
X0460747Y0079501D02*
X0461848Y0079501D01*
X0461481Y0080235D01*
X0461481Y0080602D01*
X0461848Y0080969D01*
X0462582Y0080969D01*
X0462949Y0080602D01*
X0462949Y0079868D01*
X0462582Y0079501D01*
X0460747Y0079501D02*
X0460747Y0080969D01*
X0461114Y0076549D02*
X0460747Y0076182D01*
X0460747Y0075448D01*
X0461114Y0075081D01*
X0462582Y0075081D01*
X0455686Y0077631D02*
X0454219Y0077631D01*
X0455686Y0079099D01*
X0455686Y0079466D01*
X0455320Y0079833D01*
X0454586Y0079833D01*
X0454219Y0079466D01*
X0453477Y0079466D02*
X0453477Y0079099D01*
X0453110Y0078732D01*
X0453477Y0078365D01*
X0453477Y0077998D01*
X0453110Y0077631D01*
X0452376Y0077631D01*
X0452009Y0077998D01*
X0451267Y0077998D02*
X0450900Y0077631D01*
X0450166Y0077631D01*
X0449799Y0077998D01*
X0449799Y0079466D01*
X0450166Y0079833D01*
X0450900Y0079833D01*
X0451267Y0079466D01*
X0452009Y0079466D02*
X0452376Y0079833D01*
X0453110Y0079833D01*
X0453477Y0079466D01*
X0453110Y0078732D02*
X0452743Y0078732D01*
X0475247Y0065272D02*
X0475614Y0065639D01*
X0475981Y0065639D01*
X0476348Y0065272D01*
X0476348Y0064538D01*
X0475981Y0064171D01*
X0475614Y0064171D01*
X0475247Y0064538D01*
X0475247Y0065272D01*
X0476348Y0065272D02*
X0476715Y0065639D01*
X0477082Y0065639D01*
X0477449Y0065272D01*
X0477449Y0064538D01*
X0477082Y0064171D01*
X0476715Y0064171D01*
X0476348Y0064538D01*
X0476348Y0063429D02*
X0476348Y0061961D01*
X0475247Y0063062D01*
X0477449Y0063062D01*
X0477082Y0061219D02*
X0477449Y0060852D01*
X0477449Y0060118D01*
X0477082Y0059751D01*
X0475614Y0059751D01*
X0475247Y0060118D01*
X0475247Y0060852D01*
X0475614Y0061219D01*
X0426499Y0104598D02*
X0426499Y0105332D01*
X0426132Y0105699D01*
X0426499Y0106441D02*
X0425031Y0107909D01*
X0424664Y0107909D01*
X0424297Y0107542D01*
X0424297Y0106808D01*
X0424664Y0106441D01*
X0424664Y0105699D02*
X0424297Y0105332D01*
X0424297Y0104598D01*
X0424664Y0104231D01*
X0426132Y0104231D01*
X0426499Y0104598D01*
X0426499Y0106441D02*
X0426499Y0107909D01*
X0426132Y0108651D02*
X0426499Y0109018D01*
X0426499Y0109752D01*
X0426132Y0110119D01*
X0424664Y0110119D01*
X0424297Y0109752D01*
X0424297Y0109018D01*
X0424664Y0108651D01*
X0425031Y0108651D01*
X0425398Y0109018D01*
X0425398Y0110119D01*
X0426132Y0110781D02*
X0426499Y0111148D01*
X0426499Y0111882D01*
X0426132Y0112249D01*
X0426132Y0112991D02*
X0426499Y0113358D01*
X0426499Y0114092D01*
X0426132Y0114459D01*
X0425398Y0114459D01*
X0425031Y0114092D01*
X0425031Y0113725D01*
X0425398Y0112991D01*
X0424297Y0112991D01*
X0424297Y0114459D01*
X0424664Y0115201D02*
X0424297Y0115568D01*
X0424297Y0116302D01*
X0424664Y0116669D01*
X0426132Y0115201D01*
X0426499Y0115568D01*
X0426499Y0116302D01*
X0426132Y0116669D01*
X0424664Y0116669D01*
X0424664Y0115201D02*
X0426132Y0115201D01*
X0424664Y0112249D02*
X0424297Y0111882D01*
X0424297Y0111148D01*
X0424664Y0110781D01*
X0426132Y0110781D01*
X0404686Y0130448D02*
X0404686Y0131916D01*
X0404320Y0132283D01*
X0403586Y0132283D01*
X0403219Y0131916D01*
X0403219Y0131549D01*
X0403586Y0131182D01*
X0404686Y0131182D01*
X0404686Y0130448D02*
X0404320Y0130081D01*
X0403586Y0130081D01*
X0403219Y0130448D01*
X0402477Y0130081D02*
X0401009Y0130081D01*
X0401743Y0130081D02*
X0401743Y0132283D01*
X0401009Y0131549D01*
X0400267Y0131916D02*
X0399900Y0132283D01*
X0399166Y0132283D01*
X0398799Y0131916D01*
X0398799Y0130448D01*
X0399166Y0130081D01*
X0399900Y0130081D01*
X0400267Y0130448D01*
X0424247Y0145152D02*
X0424614Y0145519D01*
X0424981Y0145519D01*
X0426449Y0144051D01*
X0426449Y0145519D01*
X0450897Y0141919D02*
X0450897Y0140451D01*
X0451998Y0140451D01*
X0451631Y0141185D01*
X0451631Y0141552D01*
X0451998Y0141919D01*
X0452732Y0141919D01*
X0453099Y0141552D01*
X0453099Y0140818D01*
X0452732Y0140451D01*
X0451998Y0139709D02*
X0451998Y0138241D01*
X0450897Y0139342D01*
X0453099Y0139342D01*
X0452732Y0137499D02*
X0453099Y0137132D01*
X0453099Y0136398D01*
X0452732Y0136031D01*
X0451264Y0136031D01*
X0450897Y0136398D01*
X0450897Y0137132D01*
X0451264Y0137499D01*
X0473249Y0155848D02*
X0473616Y0155481D01*
X0474350Y0155481D01*
X0474717Y0155848D01*
X0475459Y0155848D02*
X0475826Y0155481D01*
X0476560Y0155481D01*
X0476927Y0155848D01*
X0476927Y0156582D01*
X0476560Y0156949D01*
X0476193Y0156949D01*
X0475459Y0156582D01*
X0475459Y0157683D01*
X0476927Y0157683D01*
X0477669Y0157316D02*
X0478036Y0157683D01*
X0478770Y0157683D01*
X0479136Y0157316D01*
X0479136Y0156949D01*
X0478770Y0156582D01*
X0478036Y0156582D01*
X0477669Y0156949D01*
X0477669Y0157316D01*
X0478036Y0156582D02*
X0477669Y0156215D01*
X0477669Y0155848D01*
X0478036Y0155481D01*
X0478770Y0155481D01*
X0479136Y0155848D01*
X0479136Y0156215D01*
X0478770Y0156582D01*
X0474717Y0157316D02*
X0474350Y0157683D01*
X0473616Y0157683D01*
X0473249Y0157316D01*
X0473249Y0155848D01*
X0482869Y0159098D02*
X0482869Y0160566D01*
X0483236Y0160933D01*
X0483970Y0160933D01*
X0484337Y0160566D01*
X0485079Y0160566D02*
X0485446Y0160933D01*
X0486180Y0160933D01*
X0486547Y0160566D01*
X0486547Y0160199D01*
X0485079Y0158731D01*
X0486547Y0158731D01*
X0487289Y0159098D02*
X0487656Y0158731D01*
X0488390Y0158731D01*
X0488757Y0159098D01*
X0488757Y0159832D01*
X0488390Y0160199D01*
X0488023Y0160199D01*
X0487289Y0159832D01*
X0487289Y0160933D01*
X0488757Y0160933D01*
X0490219Y0160616D02*
X0490219Y0159148D01*
X0490586Y0158781D01*
X0491320Y0158781D01*
X0491687Y0159148D01*
X0492429Y0159148D02*
X0492796Y0158781D01*
X0493530Y0158781D01*
X0493897Y0159148D01*
X0493897Y0159882D01*
X0493530Y0160249D01*
X0493163Y0160249D01*
X0492429Y0159882D01*
X0492429Y0160983D01*
X0493897Y0160983D01*
X0494639Y0160616D02*
X0494639Y0160249D01*
X0495006Y0159882D01*
X0496107Y0159882D01*
X0496107Y0159148D02*
X0496107Y0160616D01*
X0495740Y0160983D01*
X0495006Y0160983D01*
X0494639Y0160616D01*
X0494639Y0159148D02*
X0495006Y0158781D01*
X0495740Y0158781D01*
X0496107Y0159148D01*
X0491687Y0160616D02*
X0491320Y0160983D01*
X0490586Y0160983D01*
X0490219Y0160616D01*
X0484337Y0159098D02*
X0483970Y0158731D01*
X0483236Y0158731D01*
X0482869Y0159098D01*
X0507347Y0145635D02*
X0509549Y0145635D01*
X0509549Y0144901D02*
X0509549Y0146369D01*
X0508081Y0144901D02*
X0507347Y0145635D01*
X0507347Y0144159D02*
X0507714Y0143425D01*
X0508448Y0142691D01*
X0508448Y0143792D01*
X0508815Y0144159D01*
X0509182Y0144159D01*
X0509549Y0143792D01*
X0509549Y0143058D01*
X0509182Y0142691D01*
X0508448Y0142691D01*
X0509182Y0141949D02*
X0509549Y0141582D01*
X0509549Y0140848D01*
X0509182Y0140481D01*
X0507714Y0140481D01*
X0507347Y0140848D01*
X0507347Y0141582D01*
X0507714Y0141949D01*
X0475182Y0178131D02*
X0473714Y0178131D01*
X0473347Y0178498D01*
X0473347Y0179232D01*
X0473714Y0179599D01*
X0473714Y0180341D02*
X0473347Y0180708D01*
X0473347Y0181442D01*
X0473714Y0181809D01*
X0474081Y0181809D01*
X0475549Y0180341D01*
X0475549Y0181809D01*
X0475182Y0182551D02*
X0475549Y0182918D01*
X0475549Y0183652D01*
X0475182Y0184019D01*
X0474815Y0184019D01*
X0474448Y0183652D01*
X0474448Y0182551D01*
X0475182Y0182551D01*
X0474448Y0182551D02*
X0473714Y0183285D01*
X0473347Y0184019D01*
X0470499Y0183752D02*
X0470132Y0184119D01*
X0469765Y0184119D01*
X0469398Y0183752D01*
X0469398Y0182651D01*
X0470132Y0182651D01*
X0470499Y0183018D01*
X0470499Y0183752D01*
X0469398Y0182651D02*
X0468664Y0183385D01*
X0468297Y0184119D01*
X0468297Y0181909D02*
X0468297Y0180441D01*
X0469398Y0180441D01*
X0469031Y0181175D01*
X0469031Y0181542D01*
X0469398Y0181909D01*
X0470132Y0181909D01*
X0470499Y0181542D01*
X0470499Y0180808D01*
X0470132Y0180441D01*
X0470132Y0179699D02*
X0470499Y0179332D01*
X0470499Y0178598D01*
X0470132Y0178231D01*
X0468664Y0178231D01*
X0468297Y0178598D01*
X0468297Y0179332D01*
X0468664Y0179699D01*
X0475182Y0179599D02*
X0475549Y0179232D01*
X0475549Y0178498D01*
X0475182Y0178131D01*
D18*
X0105949Y0125381D03*
X0085449Y0125381D03*
X0069349Y0125381D03*
X0048849Y0125381D03*
X0048849Y0082881D03*
X0069349Y0082881D03*
X0085449Y0082881D03*
X0105949Y0082881D03*
D19*
X0095699Y0082881D03*
X0059099Y0082881D03*
X0059099Y0125381D03*
X0095699Y0125381D03*
D20*
X0105199Y0104131D03*
X0086199Y0104131D03*
X0068599Y0104131D03*
X0049599Y0104131D03*
D21*
X0050599Y0072131D03*
X0067599Y0072131D03*
X0087199Y0072131D03*
X0104199Y0072131D03*
X0104199Y0136131D03*
X0087199Y0136131D03*
X0067599Y0136131D03*
X0050599Y0136131D03*
D22*
X0097578Y0180381D02*
X0097578Y0185696D01*
X0097578Y0180381D02*
X0211751Y0180381D01*
X0211751Y0230381D01*
X0097578Y0230381D01*
X0097578Y0225066D01*
X0097578Y0215224D02*
X0097578Y0195539D01*
X0252219Y0088328D02*
X0252219Y0081635D01*
X0258124Y0081635D01*
X0258125Y0081635D02*
X0258161Y0081708D01*
X0258202Y0081779D01*
X0258245Y0081849D01*
X0258292Y0081916D01*
X0258342Y0081981D01*
X0258395Y0082043D01*
X0258450Y0082103D01*
X0258509Y0082160D01*
X0258570Y0082215D01*
X0258634Y0082266D01*
X0258700Y0082315D01*
X0258768Y0082360D01*
X0258838Y0082402D01*
X0258910Y0082441D01*
X0258984Y0082477D01*
X0259059Y0082508D01*
X0259136Y0082537D01*
X0259214Y0082561D01*
X0259293Y0082582D01*
X0259373Y0082599D01*
X0259454Y0082613D01*
X0259535Y0082622D01*
X0259617Y0082628D01*
X0259699Y0082630D01*
X0259781Y0082628D01*
X0259863Y0082622D01*
X0259944Y0082613D01*
X0260025Y0082599D01*
X0260105Y0082582D01*
X0260184Y0082561D01*
X0260262Y0082537D01*
X0260339Y0082508D01*
X0260414Y0082477D01*
X0260488Y0082441D01*
X0260560Y0082402D01*
X0260630Y0082360D01*
X0260698Y0082315D01*
X0260764Y0082266D01*
X0260828Y0082215D01*
X0260889Y0082160D01*
X0260948Y0082103D01*
X0261003Y0082043D01*
X0261056Y0081981D01*
X0261106Y0081916D01*
X0261153Y0081849D01*
X0261196Y0081779D01*
X0261237Y0081708D01*
X0261273Y0081635D01*
X0261274Y0081635D02*
X0267179Y0081635D01*
X0267179Y0088328D01*
X0261274Y0088328D01*
X0261273Y0088328D02*
X0261237Y0088255D01*
X0261196Y0088184D01*
X0261153Y0088114D01*
X0261106Y0088047D01*
X0261056Y0087982D01*
X0261003Y0087920D01*
X0260948Y0087860D01*
X0260889Y0087803D01*
X0260828Y0087748D01*
X0260764Y0087697D01*
X0260698Y0087648D01*
X0260630Y0087603D01*
X0260560Y0087561D01*
X0260488Y0087522D01*
X0260414Y0087486D01*
X0260339Y0087455D01*
X0260262Y0087426D01*
X0260184Y0087402D01*
X0260105Y0087381D01*
X0260025Y0087364D01*
X0259944Y0087350D01*
X0259863Y0087341D01*
X0259781Y0087335D01*
X0259699Y0087333D01*
X0259617Y0087335D01*
X0259535Y0087341D01*
X0259454Y0087350D01*
X0259373Y0087364D01*
X0259293Y0087381D01*
X0259214Y0087402D01*
X0259136Y0087426D01*
X0259059Y0087455D01*
X0258984Y0087486D01*
X0258910Y0087522D01*
X0258838Y0087561D01*
X0258768Y0087603D01*
X0258700Y0087648D01*
X0258634Y0087697D01*
X0258570Y0087748D01*
X0258509Y0087803D01*
X0258450Y0087860D01*
X0258395Y0087920D01*
X0258342Y0087982D01*
X0258292Y0088047D01*
X0258245Y0088114D01*
X0258202Y0088184D01*
X0258161Y0088255D01*
X0258125Y0088328D01*
X0258124Y0088328D02*
X0252219Y0088328D01*
X0378952Y0178951D02*
X0378952Y0184856D01*
X0378952Y0184857D02*
X0379025Y0184893D01*
X0379096Y0184934D01*
X0379166Y0184977D01*
X0379233Y0185024D01*
X0379298Y0185074D01*
X0379360Y0185127D01*
X0379420Y0185182D01*
X0379477Y0185241D01*
X0379532Y0185302D01*
X0379583Y0185366D01*
X0379632Y0185432D01*
X0379677Y0185500D01*
X0379719Y0185570D01*
X0379758Y0185642D01*
X0379794Y0185716D01*
X0379825Y0185791D01*
X0379854Y0185868D01*
X0379878Y0185946D01*
X0379899Y0186025D01*
X0379916Y0186105D01*
X0379930Y0186186D01*
X0379939Y0186267D01*
X0379945Y0186349D01*
X0379947Y0186431D01*
X0379945Y0186513D01*
X0379939Y0186595D01*
X0379930Y0186676D01*
X0379916Y0186757D01*
X0379899Y0186837D01*
X0379878Y0186916D01*
X0379854Y0186994D01*
X0379825Y0187071D01*
X0379794Y0187146D01*
X0379758Y0187220D01*
X0379719Y0187292D01*
X0379677Y0187362D01*
X0379632Y0187430D01*
X0379583Y0187496D01*
X0379532Y0187560D01*
X0379477Y0187621D01*
X0379420Y0187680D01*
X0379360Y0187735D01*
X0379298Y0187788D01*
X0379233Y0187838D01*
X0379166Y0187885D01*
X0379096Y0187928D01*
X0379025Y0187969D01*
X0378952Y0188005D01*
X0378952Y0188006D02*
X0378952Y0193911D01*
X0385645Y0193911D01*
X0385645Y0188006D01*
X0385645Y0188005D02*
X0385572Y0187969D01*
X0385501Y0187928D01*
X0385431Y0187885D01*
X0385364Y0187838D01*
X0385299Y0187788D01*
X0385237Y0187735D01*
X0385177Y0187680D01*
X0385120Y0187621D01*
X0385065Y0187560D01*
X0385014Y0187496D01*
X0384965Y0187430D01*
X0384920Y0187362D01*
X0384878Y0187292D01*
X0384839Y0187220D01*
X0384803Y0187146D01*
X0384772Y0187071D01*
X0384743Y0186994D01*
X0384719Y0186916D01*
X0384698Y0186837D01*
X0384681Y0186757D01*
X0384667Y0186676D01*
X0384658Y0186595D01*
X0384652Y0186513D01*
X0384650Y0186431D01*
X0384652Y0186349D01*
X0384658Y0186267D01*
X0384667Y0186186D01*
X0384681Y0186105D01*
X0384698Y0186025D01*
X0384719Y0185946D01*
X0384743Y0185868D01*
X0384772Y0185791D01*
X0384803Y0185716D01*
X0384839Y0185642D01*
X0384878Y0185570D01*
X0384920Y0185500D01*
X0384965Y0185432D01*
X0385014Y0185366D01*
X0385065Y0185302D01*
X0385120Y0185241D01*
X0385177Y0185182D01*
X0385237Y0185127D01*
X0385299Y0185074D01*
X0385364Y0185024D01*
X0385431Y0184977D01*
X0385501Y0184934D01*
X0385572Y0184893D01*
X0385645Y0184857D01*
X0385645Y0184856D02*
X0385645Y0178951D01*
X0378952Y0178951D01*
X0334878Y0215481D02*
X0334878Y0220796D01*
X0334878Y0215481D02*
X0449051Y0215481D01*
X0449051Y0265481D01*
X0334878Y0265481D01*
X0334878Y0260166D01*
X0334878Y0250324D02*
X0334878Y0230639D01*
X0462249Y0067831D02*
X0469849Y0067831D01*
X0470249Y0059531D02*
X0465849Y0059531D01*
D23*
X0264199Y0101975D03*
X0251199Y0099587D03*
X0251199Y0090075D03*
X0264199Y0111487D03*
D24*
X0246249Y0199681D03*
X0246249Y0220181D03*
X0246199Y0236231D03*
X0246199Y0256731D03*
X0288699Y0256731D03*
X0288699Y0236231D03*
X0288749Y0220181D03*
X0288749Y0199681D03*
D25*
X0288749Y0209931D03*
X0246249Y0209931D03*
X0246199Y0246481D03*
X0288699Y0246481D03*
D26*
X0267449Y0236981D03*
X0267499Y0219431D03*
X0267499Y0200431D03*
X0267449Y0255981D03*
D27*
X0299449Y0254981D03*
X0299449Y0237981D03*
X0299499Y0218431D03*
X0299499Y0201431D03*
X0235499Y0201431D03*
X0235499Y0218431D03*
X0235449Y0237981D03*
X0235449Y0254981D03*
D28*
X0397893Y0205831D03*
X0407405Y0205831D03*
X0410643Y0192831D03*
X0420155Y0192831D03*
X0407405Y0178881D03*
X0397893Y0178881D03*
X0410643Y0165881D03*
X0420155Y0165881D03*
X0407405Y0151981D03*
X0397893Y0151981D03*
X0410643Y0138981D03*
X0420155Y0138981D03*
D29*
X0341977Y0193231D03*
D30*
X0503024Y0214631D03*
D31*
X0494399Y0214631D03*
M02*
