%TF.GenerationSoftware,KiCad,Pcbnew,7.0.10-7.0.10~ubuntu22.04.1*%
%TF.CreationDate,2024-01-07T19:37:00+01:00*%
%TF.ProjectId,EEZ DIB AFE3,45455a20-4449-4422-9041-4645332e6b69,rev?*%
%TF.SameCoordinates,Original*%
%TF.FileFunction,Soldermask,Bot*%
%TF.FilePolarity,Negative*%
%FSLAX46Y46*%
G04 Gerber Fmt 4.6, Leading zero omitted, Abs format (unit mm)*
G04 Created by KiCad (PCBNEW 7.0.10-7.0.10~ubuntu22.04.1) date 2024-01-07 19:37:00*
%MOMM*%
%LPD*%
G01*
G04 APERTURE LIST*
G04 Aperture macros list*
%AMRoundRect*
0 Rectangle with rounded corners*
0 $1 Rounding radius*
0 $2 $3 $4 $5 $6 $7 $8 $9 X,Y pos of 4 corners*
0 Add a 4 corners polygon primitive as box body*
4,1,4,$2,$3,$4,$5,$6,$7,$8,$9,$2,$3,0*
0 Add four circle primitives for the rounded corners*
1,1,$1+$1,$2,$3*
1,1,$1+$1,$4,$5*
1,1,$1+$1,$6,$7*
1,1,$1+$1,$8,$9*
0 Add four rect primitives between the rounded corners*
20,1,$1+$1,$2,$3,$4,$5,0*
20,1,$1+$1,$4,$5,$6,$7,0*
20,1,$1+$1,$6,$7,$8,$9,0*
20,1,$1+$1,$8,$9,$2,$3,0*%
%AMFreePoly0*
4,1,25,0.575031,1.328373,0.579933,1.323882,1.323882,0.579933,1.345910,0.532692,1.346200,0.526051,1.346200,-0.526051,1.328373,-0.575031,1.323882,-0.579933,0.579933,-1.323882,0.532692,-1.345910,0.526051,-1.346200,-0.526051,-1.346200,-0.575031,-1.328373,-0.579933,-1.323882,-1.323882,-0.579933,-1.345910,-0.532692,-1.346200,-0.526051,-1.346200,0.526051,-1.328373,0.575031,-1.323882,0.579933,
-0.579933,1.323882,-0.532692,1.345910,-0.526051,1.346200,0.526051,1.346200,0.575031,1.328373,0.575031,1.328373,$1*%
%AMFreePoly1*
4,1,17,0.355561,0.794901,0.794901,0.355561,0.813500,0.310660,0.813500,-0.310660,0.794901,-0.355561,0.355561,-0.794901,0.310660,-0.813500,-0.310660,-0.813500,-0.355561,-0.794901,-0.794901,-0.355561,-0.813500,-0.310660,-0.813500,0.310660,-0.794901,0.355561,-0.355561,0.794901,-0.310660,0.813500,0.310660,0.813500,0.355561,0.794901,0.355561,0.794901,$1*%
G04 Aperture macros list end*
%ADD10C,1.397000*%
%ADD11C,1.270000*%
%ADD12C,3.127000*%
%ADD13C,2.077000*%
%ADD14FreePoly0,270.000000*%
%ADD15C,2.227000*%
%ADD16FreePoly0,0.000000*%
%ADD17FreePoly0,180.000000*%
%ADD18RoundRect,0.063500X0.750000X0.750000X-0.750000X0.750000X-0.750000X-0.750000X0.750000X-0.750000X0*%
%ADD19FreePoly1,180.000000*%
G04 APERTURE END LIST*
D10*
%TO.C,JP6*%
X178362100Y-92206700D03*
X178362100Y-94206700D03*
%TD*%
D11*
%TO.C,TP2*%
X180340000Y-129540000D03*
%TD*%
%TO.C,TP1*%
X193040000Y-121920000D03*
%TD*%
D12*
%TO.C,ISEL10A_1*%
X112422300Y-96135800D03*
X117462300Y-96135800D03*
X107382300Y-96135800D03*
X112422300Y-88575800D03*
X117462300Y-88575800D03*
X107382300Y-88575800D03*
D13*
X132752300Y-88575800D03*
X132752300Y-96135800D03*
X132752300Y-92355800D03*
%TD*%
D12*
%TO.C,ISEL10A_2*%
X178475000Y-83600900D03*
X183515000Y-83600900D03*
X173435000Y-83600900D03*
X178475000Y-76040900D03*
X183515000Y-76040900D03*
X173435000Y-76040900D03*
D13*
X198805000Y-76040900D03*
X198805000Y-83600900D03*
X198805000Y-79820900D03*
%TD*%
D10*
%TO.C,JP5*%
X169357800Y-122705500D03*
X169357800Y-120705500D03*
%TD*%
D14*
%TO.C,F3*%
X160465600Y-91313000D03*
X137965600Y-91313000D03*
%TD*%
D15*
%TO.C,X3*%
X89600000Y-133085000D03*
X89600000Y-129275000D03*
X89600000Y-125465000D03*
X89600000Y-121655000D03*
X89600000Y-117845000D03*
X89600000Y-114035000D03*
X89600000Y-110225000D03*
X89600000Y-106415000D03*
%TD*%
D11*
%TO.C,GND1*%
X185420000Y-129540000D03*
%TD*%
D16*
%TO.C,F1*%
X96139000Y-106807000D03*
X96139000Y-129307000D03*
%TD*%
D14*
%TO.C,F4*%
X160452900Y-81916400D03*
X137952900Y-81916400D03*
%TD*%
D17*
%TO.C,F2*%
X105578400Y-129323300D03*
X105578400Y-106823300D03*
%TD*%
D11*
%TO.C,IN1N1*%
X142240000Y-129540000D03*
%TD*%
D18*
%TO.C,X2*%
X169020000Y-72713600D03*
D19*
X169020000Y-75253600D03*
X166480000Y-72713600D03*
X166480000Y-75253600D03*
X163940000Y-72713600D03*
X163940000Y-75253600D03*
X161400000Y-72713600D03*
X161400000Y-75253600D03*
X158860000Y-72713600D03*
X158860000Y-75253600D03*
X156320000Y-72713600D03*
X156320000Y-75253600D03*
X153780000Y-72713600D03*
X153780000Y-75253600D03*
X151240000Y-72713600D03*
X151240000Y-75253600D03*
X148700000Y-72713600D03*
X148700000Y-75253600D03*
X146160000Y-72713600D03*
X146160000Y-75253600D03*
X143620000Y-72713600D03*
X143620000Y-75253600D03*
X141080000Y-72713600D03*
X141080000Y-75253600D03*
X138540000Y-72713600D03*
X138540000Y-75253600D03*
X136000000Y-72713600D03*
X136000000Y-75253600D03*
%TD*%
D11*
%TO.C,IN1P1*%
X142240000Y-121920000D03*
%TD*%
%TO.C,IN2N1*%
X144780000Y-106680000D03*
%TD*%
%TO.C,IN2P1*%
X144780000Y-111760000D03*
%TD*%
D18*
%TO.C,X1*%
X169020000Y-134753600D03*
D19*
X169020000Y-137293600D03*
X166480000Y-134753600D03*
X166480000Y-137293600D03*
X163940000Y-134753600D03*
X163940000Y-137293600D03*
X161400000Y-134753600D03*
X161400000Y-137293600D03*
X158860000Y-134753600D03*
X158860000Y-137293600D03*
X156320000Y-134753600D03*
X156320000Y-137293600D03*
X153780000Y-134753600D03*
X153780000Y-137293600D03*
X151240000Y-134753600D03*
X151240000Y-137293600D03*
X148700000Y-134753600D03*
X148700000Y-137293600D03*
X146160000Y-134753600D03*
X146160000Y-137293600D03*
X143620000Y-134753600D03*
X143620000Y-137293600D03*
X141080000Y-134753600D03*
X141080000Y-137293600D03*
X138540000Y-134753600D03*
X138540000Y-137293600D03*
X136000000Y-134753600D03*
X136000000Y-137293600D03*
%TD*%
M02*
