%TF.GenerationSoftware,KiCad,Pcbnew,7.0.10-7.0.10~ubuntu22.04.1*%
%TF.CreationDate,2024-01-07T19:36:59+01:00*%
%TF.ProjectId,EEZ DIB AFE3,45455a20-4449-4422-9041-4645332e6b69,rev?*%
%TF.SameCoordinates,Original*%
%TF.FileFunction,Copper,L1,Top*%
%TF.FilePolarity,Positive*%
%FSLAX46Y46*%
G04 Gerber Fmt 4.6, Leading zero omitted, Abs format (unit mm)*
G04 Created by KiCad (PCBNEW 7.0.10-7.0.10~ubuntu22.04.1) date 2024-01-07 19:36:59*
%MOMM*%
%LPD*%
G01*
G04 APERTURE LIST*
G04 Aperture macros list*
%AMRoundRect*
0 Rectangle with rounded corners*
0 $1 Rounding radius*
0 $2 $3 $4 $5 $6 $7 $8 $9 X,Y pos of 4 corners*
0 Add a 4 corners polygon primitive as box body*
4,1,4,$2,$3,$4,$5,$6,$7,$8,$9,$2,$3,0*
0 Add four circle primitives for the rounded corners*
1,1,$1+$1,$2,$3*
1,1,$1+$1,$4,$5*
1,1,$1+$1,$6,$7*
1,1,$1+$1,$8,$9*
0 Add four rect primitives between the rounded corners*
20,1,$1+$1,$2,$3,$4,$5,0*
20,1,$1+$1,$4,$5,$6,$7,0*
20,1,$1+$1,$6,$7,$8,$9,0*
20,1,$1+$1,$8,$9,$2,$3,0*%
%AMOutline5P*
0 Free polygon, 5 corners , with rotation*
0 The origin of the aperture is its center*
0 number of corners: always 5*
0 $1 to $10 corner X, Y*
0 $11 Rotation angle, in degrees counterclockwise*
0 create outline with 5 corners*
4,1,5,$1,$2,$3,$4,$5,$6,$7,$8,$9,$10,$1,$2,$11*%
%AMOutline6P*
0 Free polygon, 6 corners , with rotation*
0 The origin of the aperture is its center*
0 number of corners: always 6*
0 $1 to $12 corner X, Y*
0 $13 Rotation angle, in degrees counterclockwise*
0 create outline with 6 corners*
4,1,6,$1,$2,$3,$4,$5,$6,$7,$8,$9,$10,$11,$12,$1,$2,$13*%
%AMOutline7P*
0 Free polygon, 7 corners , with rotation*
0 The origin of the aperture is its center*
0 number of corners: always 7*
0 $1 to $14 corner X, Y*
0 $15 Rotation angle, in degrees counterclockwise*
0 create outline with 7 corners*
4,1,7,$1,$2,$3,$4,$5,$6,$7,$8,$9,$10,$11,$12,$13,$14,$1,$2,$15*%
%AMOutline8P*
0 Free polygon, 8 corners , with rotation*
0 The origin of the aperture is its center*
0 number of corners: always 8*
0 $1 to $16 corner X, Y*
0 $17 Rotation angle, in degrees counterclockwise*
0 create outline with 8 corners*
4,1,8,$1,$2,$3,$4,$5,$6,$7,$8,$9,$10,$11,$12,$13,$14,$15,$16,$1,$2,$17*%
G04 Aperture macros list end*
%TA.AperFunction,SMDPad,CuDef*%
%ADD10RoundRect,0.050800X0.800100X-1.181100X0.800100X1.181100X-0.800100X1.181100X-0.800100X-1.181100X0*%
%TD*%
%TA.AperFunction,SMDPad,CuDef*%
%ADD11RoundRect,0.225000X-0.250000X0.225000X-0.250000X-0.225000X0.250000X-0.225000X0.250000X0.225000X0*%
%TD*%
%TA.AperFunction,SMDPad,CuDef*%
%ADD12RoundRect,0.050800X0.449200X0.499200X-0.449200X0.499200X-0.449200X-0.499200X0.449200X-0.499200X0*%
%TD*%
%TA.AperFunction,SMDPad,CuDef*%
%ADD13RoundRect,0.250000X0.650000X-0.325000X0.650000X0.325000X-0.650000X0.325000X-0.650000X-0.325000X0*%
%TD*%
%TA.AperFunction,SMDPad,CuDef*%
%ADD14RoundRect,0.250000X-0.625000X0.312500X-0.625000X-0.312500X0.625000X-0.312500X0.625000X0.312500X0*%
%TD*%
%TA.AperFunction,SMDPad,CuDef*%
%ADD15RoundRect,0.250000X0.262500X0.450000X-0.262500X0.450000X-0.262500X-0.450000X0.262500X-0.450000X0*%
%TD*%
%TA.AperFunction,SMDPad,CuDef*%
%ADD16R,0.889000X0.406400*%
%TD*%
%TA.AperFunction,SMDPad,CuDef*%
%ADD17R,1.778000X1.397000*%
%TD*%
%TA.AperFunction,SMDPad,CuDef*%
%ADD18RoundRect,0.050800X0.584200X0.076200X-0.584200X0.076200X-0.584200X-0.076200X0.584200X-0.076200X0*%
%TD*%
%TA.AperFunction,SMDPad,CuDef*%
%ADD19RoundRect,0.050800X-0.584200X-0.076200X0.584200X-0.076200X0.584200X0.076200X-0.584200X0.076200X0*%
%TD*%
%TA.AperFunction,SMDPad,CuDef*%
%ADD20RoundRect,0.225000X-0.225000X-0.250000X0.225000X-0.250000X0.225000X0.250000X-0.225000X0.250000X0*%
%TD*%
%TA.AperFunction,SMDPad,CuDef*%
%ADD21RoundRect,0.050800X-1.104900X-0.228600X1.104900X-0.228600X1.104900X0.228600X-1.104900X0.228600X0*%
%TD*%
%TA.AperFunction,SMDPad,CuDef*%
%ADD22RoundRect,0.250000X0.450000X-0.262500X0.450000X0.262500X-0.450000X0.262500X-0.450000X-0.262500X0*%
%TD*%
%TA.AperFunction,SMDPad,CuDef*%
%ADD23RoundRect,0.250000X-0.650000X0.325000X-0.650000X-0.325000X0.650000X-0.325000X0.650000X0.325000X0*%
%TD*%
%TA.AperFunction,SMDPad,CuDef*%
%ADD24RoundRect,0.050800X1.092200X0.228600X-1.092200X0.228600X-1.092200X-0.228600X1.092200X-0.228600X0*%
%TD*%
%TA.AperFunction,SMDPad,CuDef*%
%ADD25RoundRect,0.250000X0.312500X0.625000X-0.312500X0.625000X-0.312500X-0.625000X0.312500X-0.625000X0*%
%TD*%
%TA.AperFunction,SMDPad,CuDef*%
%ADD26RoundRect,0.050800X-0.377400X-0.123800X0.377400X-0.123800X0.377400X0.123800X-0.377400X0.123800X0*%
%TD*%
%TA.AperFunction,SMDPad,CuDef*%
%ADD27RoundRect,0.050800X-0.649200X0.649200X-0.649200X-0.649200X0.649200X-0.649200X0.649200X0.649200X0*%
%TD*%
%TA.AperFunction,SMDPad,CuDef*%
%ADD28RoundRect,0.050800X-0.685800X-0.228600X0.685800X-0.228600X0.685800X0.228600X-0.685800X0.228600X0*%
%TD*%
%TA.AperFunction,SMDPad,CuDef*%
%ADD29R,0.406400X0.889000*%
%TD*%
%TA.AperFunction,SMDPad,CuDef*%
%ADD30R,1.397000X1.778000*%
%TD*%
%TA.AperFunction,SMDPad,CuDef*%
%ADD31RoundRect,0.050800X0.076200X-0.584200X0.076200X0.584200X-0.076200X0.584200X-0.076200X-0.584200X0*%
%TD*%
%TA.AperFunction,SMDPad,CuDef*%
%ADD32RoundRect,0.050800X-0.076200X0.584200X-0.076200X-0.584200X0.076200X-0.584200X0.076200X0.584200X0*%
%TD*%
%TA.AperFunction,SMDPad,CuDef*%
%ADD33RoundRect,0.225000X0.225000X0.250000X-0.225000X0.250000X-0.225000X-0.250000X0.225000X-0.250000X0*%
%TD*%
%TA.AperFunction,FiducialPad,Global*%
%ADD34RoundRect,0.508000X0.000000X0.000000X0.000000X0.000000X0.000000X0.000000X0.000000X0.000000X0*%
%TD*%
%TA.AperFunction,SMDPad,CuDef*%
%ADD35RoundRect,0.050800X0.949200X-0.749200X0.949200X0.749200X-0.949200X0.749200X-0.949200X-0.749200X0*%
%TD*%
%TA.AperFunction,SMDPad,CuDef*%
%ADD36RoundRect,0.050800X-0.949200X0.749200X-0.949200X-0.749200X0.949200X-0.749200X0.949200X0.749200X0*%
%TD*%
%TA.AperFunction,ComponentPad*%
%ADD37C,1.270000*%
%TD*%
%TA.AperFunction,SMDPad,CuDef*%
%ADD38RoundRect,0.050800X-0.723900X-0.254000X0.723900X-0.254000X0.723900X0.254000X-0.723900X0.254000X0*%
%TD*%
%TA.AperFunction,SMDPad,CuDef*%
%ADD39RoundRect,0.050800X-0.800100X1.181100X-0.800100X-1.181100X0.800100X-1.181100X0.800100X1.181100X0*%
%TD*%
%TA.AperFunction,SMDPad,CuDef*%
%ADD40RoundRect,0.250000X-0.450000X0.262500X-0.450000X-0.262500X0.450000X-0.262500X0.450000X0.262500X0*%
%TD*%
%TA.AperFunction,SMDPad,CuDef*%
%ADD41RoundRect,0.225000X0.250000X-0.225000X0.250000X0.225000X-0.250000X0.225000X-0.250000X-0.225000X0*%
%TD*%
%TA.AperFunction,SMDPad,CuDef*%
%ADD42RoundRect,0.250000X0.625000X-0.312500X0.625000X0.312500X-0.625000X0.312500X-0.625000X-0.312500X0*%
%TD*%
%TA.AperFunction,ComponentPad*%
%ADD43C,3.000000*%
%TD*%
%TA.AperFunction,ComponentPad*%
%ADD44C,1.950000*%
%TD*%
%TA.AperFunction,SMDPad,CuDef*%
%ADD45RoundRect,0.050800X0.599200X0.699200X-0.599200X0.699200X-0.599200X-0.699200X0.599200X-0.699200X0*%
%TD*%
%TA.AperFunction,SMDPad,CuDef*%
%ADD46RoundRect,0.250000X-0.325000X-0.650000X0.325000X-0.650000X0.325000X0.650000X-0.325000X0.650000X0*%
%TD*%
%TA.AperFunction,SMDPad,CuDef*%
%ADD47RoundRect,0.050800X-0.449200X1.529200X-0.449200X-1.529200X0.449200X-1.529200X0.449200X1.529200X0*%
%TD*%
%TA.AperFunction,ComponentPad*%
%ADD48Outline8P,-1.270000X0.526051X-0.526051X1.270000X0.526051X1.270000X1.270000X0.526051X1.270000X-0.526051X0.526051X-1.270000X-0.526051X-1.270000X-1.270000X-0.526051X270.000000*%
%TD*%
%TA.AperFunction,SMDPad,CuDef*%
%ADD49RoundRect,0.250000X-0.262500X-0.450000X0.262500X-0.450000X0.262500X0.450000X-0.262500X0.450000X0*%
%TD*%
%TA.AperFunction,ComponentPad*%
%ADD50C,2.100000*%
%TD*%
%TA.AperFunction,SMDPad,CuDef*%
%ADD51RoundRect,0.050800X0.449200X0.649200X-0.449200X0.649200X-0.449200X-0.649200X0.449200X-0.649200X0*%
%TD*%
%TA.AperFunction,SMDPad,CuDef*%
%ADD52RoundRect,0.050800X0.628650X0.165100X-0.628650X0.165100X-0.628650X-0.165100X0.628650X-0.165100X0*%
%TD*%
%TA.AperFunction,SMDPad,CuDef*%
%ADD53RoundRect,0.060036X-0.701964X-0.270164X0.701964X-0.270164X0.701964X0.270164X-0.701964X0.270164X0*%
%TD*%
%TA.AperFunction,SMDPad,CuDef*%
%ADD54RoundRect,0.050800X0.228600X-0.609600X0.228600X0.609600X-0.228600X0.609600X-0.228600X-0.609600X0*%
%TD*%
%TA.AperFunction,SMDPad,CuDef*%
%ADD55RoundRect,0.050800X-0.499200X0.449200X-0.499200X-0.449200X0.499200X-0.449200X0.499200X0.449200X0*%
%TD*%
%TA.AperFunction,ComponentPad*%
%ADD56Outline8P,-1.270000X0.526051X-0.526051X1.270000X0.526051X1.270000X1.270000X0.526051X1.270000X-0.526051X0.526051X-1.270000X-0.526051X-1.270000X-1.270000X-0.526051X0.000000*%
%TD*%
%TA.AperFunction,SMDPad,CuDef*%
%ADD57RoundRect,0.250000X-0.312500X-0.625000X0.312500X-0.625000X0.312500X0.625000X-0.312500X0.625000X0*%
%TD*%
%TA.AperFunction,SMDPad,CuDef*%
%ADD58RoundRect,0.050800X0.127000X-0.787400X0.127000X0.787400X-0.127000X0.787400X-0.127000X-0.787400X0*%
%TD*%
%TA.AperFunction,SMDPad,CuDef*%
%ADD59RoundRect,0.050800X-0.781050X0.088900X-0.781050X-0.088900X0.781050X-0.088900X0.781050X0.088900X0*%
%TD*%
%TA.AperFunction,SMDPad,CuDef*%
%ADD60RoundRect,0.050800X0.088900X0.781050X-0.088900X0.781050X-0.088900X-0.781050X0.088900X-0.781050X0*%
%TD*%
%TA.AperFunction,SMDPad,CuDef*%
%ADD61RoundRect,0.050800X0.699200X-0.599200X0.699200X0.599200X-0.699200X0.599200X-0.699200X-0.599200X0*%
%TD*%
%TA.AperFunction,SMDPad,CuDef*%
%ADD62RoundRect,0.050800X0.254000X-0.723900X0.254000X0.723900X-0.254000X0.723900X-0.254000X-0.723900X0*%
%TD*%
%TA.AperFunction,SMDPad,CuDef*%
%ADD63RoundRect,0.050800X-0.449200X-0.649200X0.449200X-0.649200X0.449200X0.649200X-0.449200X0.649200X0*%
%TD*%
%TA.AperFunction,SMDPad,CuDef*%
%ADD64RoundRect,0.050800X0.374200X-0.149200X0.374200X0.149200X-0.374200X0.149200X-0.374200X-0.149200X0*%
%TD*%
%TA.AperFunction,ComponentPad*%
%ADD65Outline8P,-1.270000X0.526051X-0.526051X1.270000X0.526051X1.270000X1.270000X0.526051X1.270000X-0.526051X0.526051X-1.270000X-0.526051X-1.270000X-1.270000X-0.526051X180.000000*%
%TD*%
%TA.AperFunction,SMDPad,CuDef*%
%ADD66RoundRect,0.050800X-0.599200X-0.699200X0.599200X-0.699200X0.599200X0.699200X-0.599200X0.699200X0*%
%TD*%
%TA.AperFunction,ComponentPad*%
%ADD67R,1.500000X1.500000*%
%TD*%
%TA.AperFunction,ComponentPad*%
%ADD68Outline8P,-0.750000X0.310660X-0.310660X0.750000X0.310660X0.750000X0.750000X0.310660X0.750000X-0.310660X0.310660X-0.750000X-0.310660X-0.750000X-0.750000X-0.310660X180.000000*%
%TD*%
%TA.AperFunction,ViaPad*%
%ADD69C,0.806400*%
%TD*%
%TA.AperFunction,ViaPad*%
%ADD70C,0.600000*%
%TD*%
%TA.AperFunction,Conductor*%
%ADD71C,0.203200*%
%TD*%
%TA.AperFunction,Conductor*%
%ADD72C,0.406400*%
%TD*%
%TA.AperFunction,Conductor*%
%ADD73C,0.812800*%
%TD*%
%TA.AperFunction,Conductor*%
%ADD74C,0.254000*%
%TD*%
%TA.AperFunction,Conductor*%
%ADD75C,0.304800*%
%TD*%
%TA.AperFunction,Conductor*%
%ADD76C,0.609600*%
%TD*%
%TA.AperFunction,Conductor*%
%ADD77C,0.508000*%
%TD*%
%TA.AperFunction,Conductor*%
%ADD78C,1.016000*%
%TD*%
%TA.AperFunction,Conductor*%
%ADD79C,3.810000*%
%TD*%
G04 APERTURE END LIST*
%TA.AperFunction,EtchedComponent*%
%TO.C,JP2*%
G36*
X143141700Y-132537200D02*
G01*
X142481300Y-132537200D01*
X142481300Y-132003800D01*
X143141700Y-132003800D01*
X143141700Y-132537200D01*
G37*
%TD.AperFunction*%
%TA.AperFunction,EtchedComponent*%
%TO.C,JP8*%
G36*
X207429900Y-102833300D02*
G01*
X206769500Y-102833300D01*
X206769500Y-102299900D01*
X207429900Y-102299900D01*
X207429900Y-102833300D01*
G37*
%TD.AperFunction*%
%TA.AperFunction,EtchedComponent*%
%TO.C,JP3*%
G36*
X164023800Y-101309300D02*
G01*
X163490400Y-101309300D01*
X163490400Y-100648900D01*
X164023800Y-100648900D01*
X164023800Y-101309300D01*
G37*
%TD.AperFunction*%
%TA.AperFunction,EtchedComponent*%
%TO.C,JP4*%
G36*
X147209000Y-132525900D02*
G01*
X146548600Y-132525900D01*
X146548600Y-131992500D01*
X147209000Y-131992500D01*
X147209000Y-132525900D01*
G37*
%TD.AperFunction*%
%TA.AperFunction,EtchedComponent*%
%TO.C,JP1*%
G36*
X147475700Y-97385000D02*
G01*
X146815300Y-97385000D01*
X146815300Y-96851600D01*
X147475700Y-96851600D01*
X147475700Y-97385000D01*
G37*
%TD.AperFunction*%
%TD*%
D10*
%TO.P,D4,A,A*%
%TO.N,GND*%
X183543700Y-90679400D03*
%TO.P,D4,C,C*%
%TO.N,AIN4N*%
X183543700Y-94641800D03*
%TD*%
%TO.P,D8,A,A*%
%TO.N,Net-(D6-PadC)*%
X186782200Y-104319200D03*
%TO.P,D8,C,C*%
%TO.N,Net-(IC6B-S)*%
X186782200Y-108281600D03*
%TD*%
D11*
%TO.P,C2,1,1*%
%TO.N,Net-(IC1-DCDC_OUT)*%
X121094500Y-116942700D03*
%TO.P,C2,2,2*%
%TO.N,AIN1N*%
X121094500Y-118492700D03*
%TD*%
D12*
%TO.P,L5,1,1*%
%TO.N,Net-(IC11-EN)*%
X192013700Y-132106800D03*
%TO.P,L5,2,2*%
%TO.N,-5V_ISO*%
X190313700Y-132106800D03*
%TD*%
D13*
%TO.P,C22,1,1*%
%TO.N,+5V_ISO*%
X202936600Y-79898900D03*
%TO.P,C22,2,2*%
%TO.N,GND*%
X202936600Y-76948900D03*
%TD*%
D14*
%TO.P,R27,1,1*%
%TO.N,GND*%
X180622700Y-91756900D03*
%TO.P,R27,2,2*%
%TO.N,AIN4N*%
X180622700Y-94681900D03*
%TD*%
D15*
%TO.P,R6,1,1*%
%TO.N,Net-(IC2-INN)*%
X122645300Y-112612300D03*
%TO.P,R6,2,2*%
%TO.N,Net-(IC2-DCDC_HGND)*%
X120820300Y-112612300D03*
%TD*%
D16*
%TO.P,R29,1,1*%
%TO.N,Net-(R29-Pad1)*%
X172780450Y-92914600D03*
D17*
X172335600Y-93814600D03*
X172335600Y-92014600D03*
D18*
%TO.P,R29,1S,1S*%
X171635600Y-92914600D03*
D17*
%TO.P,R29,2,2*%
%TO.N,Net-(Q2-S)*%
X166735600Y-93814600D03*
X166735600Y-92014600D03*
D16*
X166290750Y-92914600D03*
D19*
%TO.P,R29,2S,2S*%
%TO.N,Net-(IC6C-D)*%
X167435600Y-92914600D03*
%TD*%
D16*
%TO.P,R30,1,1*%
%TO.N,AIN4N*%
X166303450Y-88723600D03*
D17*
X166748300Y-87823600D03*
X166748300Y-89623600D03*
D19*
%TO.P,R30,1S,1S*%
%TO.N,IN4N*%
X167448300Y-88723600D03*
D17*
%TO.P,R30,2,2*%
%TO.N,Net-(ISEL10A_2-Pad12)*%
X172348300Y-87823600D03*
X172348300Y-89623600D03*
D16*
X172793150Y-88723600D03*
D18*
%TO.P,R30,2S,2S*%
%TO.N,Net-(R29-Pad1)*%
X171648300Y-88723600D03*
%TD*%
D20*
%TO.P,C21,1,1*%
%TO.N,GND*%
X175771000Y-107595800D03*
%TO.P,C21,2,2*%
%TO.N,-2V5_ISO*%
X177321000Y-107595800D03*
%TD*%
D12*
%TO.P,L3,1,1*%
%TO.N,Net-(OK2-S2)*%
X142674200Y-114339500D03*
%TO.P,L3,2,2*%
%TO.N,AIN3P*%
X140974200Y-114339500D03*
%TD*%
D21*
%TO.P,IC1,1,DCDC_OUT*%
%TO.N,Net-(IC1-DCDC_OUT)*%
X125542800Y-117374800D03*
%TO.P,IC1,2,DCDC_HGND*%
%TO.N,AIN1N*%
X125542800Y-118644800D03*
%TO.P,IC1,3,HLDO_IN*%
%TO.N,Net-(IC1-DCDC_OUT)*%
X125542800Y-119914800D03*
%TO.P,IC1,4,NC*%
%TO.N,unconnected-(IC1-NC-Pad4)*%
X125542800Y-121184800D03*
%TO.P,IC1,5,HLDO_OUT*%
%TO.N,Net-(IC1-HLDO_OUT)*%
X125542800Y-122454800D03*
%TO.P,IC1,6,INP*%
%TO.N,Net-(IC1-INP)*%
X125542800Y-123724800D03*
%TO.P,IC1,7,INN*%
%TO.N,AIN1N*%
X125542800Y-124994800D03*
%TO.P,IC1,8,HGND*%
X125542800Y-126264800D03*
%TO.P,IC1,9,GND*%
%TO.N,GND*%
X134585200Y-126264800D03*
%TO.P,IC1,10,OUTN*%
%TO.N,IN1N*%
X134585200Y-124994800D03*
%TO.P,IC1,11,OUTP*%
%TO.N,IN1P*%
X134585200Y-123724800D03*
%TO.P,IC1,12,VDD*%
%TO.N,+3V3_ISO*%
X134585200Y-122454800D03*
%TO.P,IC1,13,LDO_OUT*%
%TO.N,Net-(IC1-DCDC_IN)*%
X134585200Y-121184800D03*
%TO.P,IC1,14,DIAG*%
%TO.N,/Isolated Ch#1\u002C Ch#2/DIAG#1*%
X134585200Y-119914800D03*
%TO.P,IC1,15,DCDC_GND*%
%TO.N,GND*%
X134585200Y-118644800D03*
%TO.P,IC1,16,DCDC_IN*%
%TO.N,Net-(IC1-DCDC_IN)*%
X134585200Y-117374800D03*
%TD*%
D15*
%TO.P,R5,1,1*%
%TO.N,Net-(IC2-INP)*%
X122645300Y-110643800D03*
%TO.P,R5,2,2*%
%TO.N,Net-(L1-Pad2)*%
X120820300Y-110643800D03*
%TD*%
D22*
%TO.P,R25,1,1*%
%TO.N,LO_CLAMP*%
X180825900Y-112191300D03*
%TO.P,R25,2,2*%
%TO.N,-2V5_ISO*%
X180825900Y-110366300D03*
%TD*%
D23*
%TO.P,C14,1,1*%
%TO.N,+3V3_ISO*%
X137544300Y-122808600D03*
%TO.P,C14,2,2*%
%TO.N,GND*%
X137544300Y-125758600D03*
%TD*%
D24*
%TO.P,IC3,1,1B*%
%TO.N,unconnected-(IC3-1B-Pad1)*%
X132870700Y-83478500D03*
%TO.P,IC3,2,2B*%
%TO.N,unconnected-(IC3-2B-Pad2)*%
X132870700Y-82208500D03*
%TO.P,IC3,3,3B*%
%TO.N,/Isolated Ch#1\u002C Ch#2/ISEL_S#2*%
X132870700Y-80938500D03*
%TO.P,IC3,4,4B*%
%TO.N,/Isolated Ch#1\u002C Ch#2/ISEL_R#2*%
X132870700Y-79668500D03*
%TO.P,IC3,5,5B*%
%TO.N,/Isolated Ch#1\u002C Ch#2/ISEL_S#4*%
X132870700Y-78398500D03*
%TO.P,IC3,6,6B*%
%TO.N,/Isolated Ch#1\u002C Ch#2/ISEL_R#4*%
X132870700Y-77128500D03*
%TO.P,IC3,7,7B*%
%TO.N,/Isolated Ch#1\u002C Ch#2/ISEL10_S#4*%
X132870700Y-75858500D03*
%TO.P,IC3,8,8B*%
%TO.N,/Isolated Ch#1\u002C Ch#2/ISEL10_R#4*%
X132870700Y-74588500D03*
%TO.P,IC3,9,GND*%
%TO.N,GND*%
X132870700Y-73318500D03*
%TO.P,IC3,10,COM*%
%TO.N,Net-(IC3-COM)*%
X123396500Y-73318500D03*
%TO.P,IC3,11,8C*%
%TO.N,ISEL10A_R4_OUT*%
X123396500Y-74588500D03*
%TO.P,IC3,12,7C*%
%TO.N,ISEL10A_S4_OUT*%
X123396500Y-75858500D03*
%TO.P,IC3,13,6C*%
%TO.N,ISEL_R4_OUT*%
X123396500Y-77128500D03*
%TO.P,IC3,14,5C*%
%TO.N,ISEL_S4_OUT*%
X123396500Y-78398500D03*
%TO.P,IC3,15,4C*%
%TO.N,/Isolated Ch#1\u002C Ch#2/ISEL_R2_OUT*%
X123396500Y-79668500D03*
%TO.P,IC3,16,3C*%
%TO.N,/Isolated Ch#1\u002C Ch#2/ISEL_S2_OUT*%
X123396500Y-80938500D03*
%TO.P,IC3,17,2C*%
%TO.N,unconnected-(IC3-2C-Pad17)*%
X123396500Y-82208500D03*
%TO.P,IC3,18,1C*%
%TO.N,unconnected-(IC3-1C-Pad18)*%
X123396500Y-83478500D03*
%TD*%
D11*
%TO.P,C32,1,1*%
%TO.N,/Voltage/current  ADC/AVSS*%
X201793600Y-100724800D03*
%TO.P,C32,2,2*%
%TO.N,Net-(IC8-VCAP3)*%
X201793600Y-102274800D03*
%TD*%
D25*
%TO.P,R21,1,1*%
%TO.N,Net-(IC4D-S)*%
X155021500Y-126087000D03*
%TO.P,R21,2,2*%
%TO.N,Net-(R19-Pad1)*%
X152096500Y-126087000D03*
%TD*%
D26*
%TO.P,L1,1,1*%
%TO.N,Net-(ISEL10A_1-Pad11)*%
X115571300Y-110117000D03*
%TO.P,L1,2,2*%
%TO.N,Net-(L1-Pad2)*%
X117727700Y-110117000D03*
%TO.P,L1,3,3*%
%TO.N,Net-(IC2-DCDC_HGND)*%
X117727700Y-111117000D03*
%TO.P,L1,4,4*%
%TO.N,Net-(L1-Pad4)*%
X115571300Y-111117000D03*
%TD*%
D11*
%TO.P,C7,1,1*%
%TO.N,AIN1N*%
X122596400Y-120143100D03*
%TO.P,C7,2,2*%
%TO.N,Net-(IC1-DCDC_OUT)*%
X122596400Y-121693100D03*
%TD*%
D27*
%TO.P,ZD1,A,A*%
%TO.N,+5V_ISO*%
X120602500Y-77593400D03*
%TO.P,ZD1,C,C*%
%TO.N,Net-(IC3-COM)*%
X120602500Y-73793400D03*
%TD*%
D15*
%TO.P,R34,1,1*%
%TO.N,/Voltage/current  ADC/AVSS*%
X204661900Y-129541400D03*
%TO.P,R34,2,2*%
%TO.N,-2V5_ISO*%
X202836900Y-129541400D03*
%TD*%
D28*
%TO.P,IC11,1,GND*%
%TO.N,GND*%
X195621400Y-131067900D03*
%TO.P,IC11,2,IN*%
%TO.N,Net-(IC11-EN)*%
X195621400Y-132017900D03*
%TO.P,IC11,3,EN*%
X195621400Y-132967900D03*
%TO.P,IC11,4,NR*%
%TO.N,unconnected-(IC11-NR-Pad4)*%
X198009000Y-132967900D03*
%TO.P,IC11,5,OUT*%
%TO.N,-2V5_ISO*%
X198009000Y-131067900D03*
%TD*%
D13*
%TO.P,C42,1,1*%
%TO.N,+5V_ISO*%
X210645500Y-97717000D03*
%TO.P,C42,2,2*%
%TO.N,-2V5_ISO*%
X210645500Y-94767000D03*
%TD*%
D29*
%TO.P,R1,1,1*%
%TO.N,Net-(ISEL10A_1-Pad22)*%
X112499900Y-106840150D03*
D30*
X111599900Y-106395300D03*
X113399900Y-106395300D03*
D31*
%TO.P,R1,1S,1S*%
X112499900Y-105695300D03*
D30*
%TO.P,R1,2,2*%
%TO.N,Net-(F2-Pad2)*%
X111599900Y-100795300D03*
X113399900Y-100795300D03*
D29*
X112499900Y-100350450D03*
D32*
%TO.P,R1,2S,2S*%
%TO.N,Net-(ISEL10A_1-Pad14)*%
X112499900Y-101495300D03*
%TD*%
D33*
%TO.P,C40,1,1*%
%TO.N,GND*%
X210007500Y-108091100D03*
%TO.P,C40,2,2*%
%TO.N,+3V3_ISO*%
X208457500Y-108091100D03*
%TD*%
D21*
%TO.P,IC2,1,DCDC_OUT*%
%TO.N,Net-(IC2-DCDC_OUT)*%
X127574800Y-100699700D03*
%TO.P,IC2,2,DCDC_HGND*%
%TO.N,Net-(IC2-DCDC_HGND)*%
X127574800Y-101969700D03*
%TO.P,IC2,3,HLDO_IN*%
%TO.N,Net-(IC2-DCDC_OUT)*%
X127574800Y-103239700D03*
%TO.P,IC2,4,NC*%
%TO.N,unconnected-(IC2-NC-Pad4)*%
X127574800Y-104509700D03*
%TO.P,IC2,5,HLDO_OUT*%
%TO.N,Net-(IC2-HLDO_OUT)*%
X127574800Y-105779700D03*
%TO.P,IC2,6,INP*%
%TO.N,Net-(IC2-INP)*%
X127574800Y-107049700D03*
%TO.P,IC2,7,INN*%
%TO.N,Net-(IC2-INN)*%
X127574800Y-108319700D03*
%TO.P,IC2,8,HGND*%
%TO.N,Net-(IC2-DCDC_HGND)*%
X127574800Y-109589700D03*
%TO.P,IC2,9,GND*%
%TO.N,GND*%
X136617200Y-109589700D03*
%TO.P,IC2,10,OUTN*%
%TO.N,IN2N*%
X136617200Y-108319700D03*
%TO.P,IC2,11,OUTP*%
%TO.N,IN2P*%
X136617200Y-107049700D03*
%TO.P,IC2,12,VDD*%
%TO.N,+3V3_ISO*%
X136617200Y-105779700D03*
%TO.P,IC2,13,LDO_OUT*%
%TO.N,Net-(IC2-DCDC_IN)*%
X136617200Y-104509700D03*
%TO.P,IC2,14,DIAG*%
%TO.N,/Isolated Ch#1\u002C Ch#2/DIAG#2*%
X136617200Y-103239700D03*
%TO.P,IC2,15,DCDC_GND*%
%TO.N,GND*%
X136617200Y-101969700D03*
%TO.P,IC2,16,DCDC_IN*%
%TO.N,Net-(IC2-DCDC_IN)*%
X136617200Y-100699700D03*
%TD*%
D20*
%TO.P,C18,1,1*%
%TO.N,GND*%
X179796900Y-122327800D03*
%TO.P,C18,2,2*%
%TO.N,+2V5_ISO*%
X181346900Y-122327800D03*
%TD*%
D25*
%TO.P,R9,1,1*%
%TO.N,Net-(IC1-INP)*%
X117251700Y-135358000D03*
%TO.P,R9,2,2*%
%TO.N,Net-(R8-Pad1)*%
X114326700Y-135358000D03*
%TD*%
D34*
%TO.P,FM3,*%
%TO.N,*%
X210000000Y-137000000D03*
%TD*%
D15*
%TO.P,R23,1,1*%
%TO.N,HI_CLAMP*%
X184681500Y-125031500D03*
%TO.P,R23,2,2*%
%TO.N,GND*%
X182856500Y-125031500D03*
%TD*%
D25*
%TO.P,R17,1,1*%
%TO.N,Net-(R17-Pad1)*%
X161419000Y-115101500D03*
%TO.P,R17,2,2*%
%TO.N,Net-(IC4A-S)*%
X158494000Y-115101500D03*
%TD*%
D35*
%TO.P,OK1,1,A*%
%TO.N,Net-(OK1-A)*%
X134186300Y-132221100D03*
%TO.P,OK1,2,C*%
%TO.N,GND*%
X134186300Y-129681100D03*
D36*
%TO.P,OK1,3,S2*%
%TO.N,Net-(OK1-S2)*%
X124646300Y-129681100D03*
%TO.P,OK1,4,S1*%
%TO.N,Net-(IC1-INP)*%
X124646300Y-132221100D03*
%TD*%
D20*
%TO.P,C36,1,1*%
%TO.N,Net-(IC8-VREFP)*%
X198605600Y-120105300D03*
%TO.P,C36,2,2*%
%TO.N,/Voltage/current  ADC/AVSS*%
X200155600Y-120105300D03*
%TD*%
D37*
%TO.P,JP6,1,Pin_1*%
%TO.N,GND*%
X178362100Y-92206700D03*
%TO.P,JP6,2,Pin_2*%
%TO.N,AIN4N*%
X178362100Y-94206700D03*
%TD*%
D38*
%TO.P,IC4,1,IN*%
%TO.N,USEL20#3*%
X171770800Y-121451500D03*
%TO.P,IC4,2,D*%
%TO.N,IN3P*%
X171770800Y-122721500D03*
%TO.P,IC4,3,S*%
%TO.N,Net-(IC4A-S)*%
X171770800Y-123991500D03*
%TO.P,IC4,4,V-*%
%TO.N,-15V_ISO*%
X171770800Y-125261500D03*
%TO.P,IC4,5,GND*%
%TO.N,GND*%
X171770800Y-126531500D03*
%TO.P,IC4,6,S*%
%TO.N,Net-(IC4D-S)*%
X171770800Y-127801500D03*
%TO.P,IC4,7,D*%
%TO.N,IN3P*%
X171770800Y-129071500D03*
%TO.P,IC4,8,IN*%
%TO.N,USEL1#3*%
X171770800Y-130341500D03*
%TO.P,IC4,9,IN*%
%TO.N,GND*%
X177155600Y-130341500D03*
%TO.P,IC4,10,D*%
%TO.N,unconnected-(IC4C-D-Pad10)*%
X177155600Y-129071500D03*
%TO.P,IC4,11,S*%
%TO.N,unconnected-(IC4C-S-Pad11)*%
X177155600Y-127801500D03*
%TO.P,IC4,12,VL*%
%TO.N,+5V_ISO*%
X177155600Y-126531500D03*
%TO.P,IC4,13,V+*%
%TO.N,+15V_ISO*%
X177155600Y-125261500D03*
%TO.P,IC4,14,S*%
%TO.N,Net-(IC4B-S)*%
X177155600Y-123991500D03*
%TO.P,IC4,15,D*%
%TO.N,IN3P*%
X177155600Y-122721500D03*
%TO.P,IC4,16,IN*%
%TO.N,USEL100#3*%
X177155600Y-121451500D03*
%TD*%
D39*
%TO.P,D5,A,A*%
%TO.N,AIN4N*%
X186782200Y-94641800D03*
%TO.P,D5,C,C*%
%TO.N,GND*%
X186782200Y-90679400D03*
%TD*%
D40*
%TO.P,R24,1,1*%
%TO.N,GND*%
X178857400Y-110366300D03*
%TO.P,R24,2,2*%
%TO.N,LO_CLAMP*%
X178857400Y-112191300D03*
%TD*%
D41*
%TO.P,C31,1,1*%
%TO.N,/Voltage/current  ADC/AVSS*%
X201971400Y-121769300D03*
%TO.P,C31,2,2*%
%TO.N,Net-(IC8-VCAP4)*%
X201971400Y-120219300D03*
%TD*%
D11*
%TO.P,C3,1,1*%
%TO.N,Net-(IC2-DCDC_OUT)*%
X123126500Y-100166000D03*
%TO.P,C3,2,2*%
%TO.N,Net-(IC2-DCDC_HGND)*%
X123126500Y-101716000D03*
%TD*%
D37*
%TO.P,TP2,1,P$1*%
%TO.N,-2V5_ISO*%
X180340000Y-129540000D03*
%TD*%
D25*
%TO.P,R20,1,1*%
%TO.N,IN3N*%
X170563000Y-115101500D03*
%TO.P,R20,2,2*%
%TO.N,Net-(IC4B-S)*%
X167638000Y-115101500D03*
%TD*%
D37*
%TO.P,TP1,1,P$1*%
%TO.N,+2V5_ISO*%
X193040000Y-121920000D03*
%TD*%
D39*
%TO.P,D9,A,A*%
%TO.N,Net-(D6-PadC)*%
X183543700Y-101449000D03*
%TO.P,D9,C,C*%
%TO.N,AIN4N*%
X183543700Y-97486600D03*
%TD*%
D23*
%TO.P,C15,1,1*%
%TO.N,+3V3_ISO*%
X140084300Y-106387500D03*
%TO.P,C15,2,2*%
%TO.N,GND*%
X140084300Y-109337500D03*
%TD*%
D11*
%TO.P,C6,1,1*%
%TO.N,Net-(IC1-DCDC_OUT)*%
X122596400Y-116942700D03*
%TO.P,C6,2,2*%
%TO.N,AIN1N*%
X122596400Y-118492700D03*
%TD*%
D42*
%TO.P,R13,1,1*%
%TO.N,GND*%
X167109900Y-123714100D03*
%TO.P,R13,2,2*%
%TO.N,IN3N*%
X167109900Y-120789100D03*
%TD*%
D43*
%TO.P,ISEL10A_1,11,11*%
%TO.N,Net-(ISEL10A_1-Pad11)*%
X112422300Y-96135800D03*
%TO.P,ISEL10A_1,12,12*%
%TO.N,Net-(ISEL10A_1-Pad12)*%
X117462300Y-96135800D03*
%TO.P,ISEL10A_1,14,14*%
%TO.N,Net-(ISEL10A_1-Pad14)*%
X107382300Y-96135800D03*
%TO.P,ISEL10A_1,21,21*%
%TO.N,Net-(F1-Pad1)*%
X112422300Y-88575800D03*
%TO.P,ISEL10A_1,22,22*%
%TO.N,Net-(ISEL10A_1-Pad22)*%
X117462300Y-88575800D03*
%TO.P,ISEL10A_1,24,24*%
%TO.N,unconnected-(ISEL10A_1-Pad24)*%
X107382300Y-88575800D03*
D44*
%TO.P,ISEL10A_1,A1,R*%
%TO.N,/Isolated Ch#1\u002C Ch#2/ISEL_R2_OUT*%
X132752300Y-88575800D03*
%TO.P,ISEL10A_1,A2,S*%
%TO.N,/Isolated Ch#1\u002C Ch#2/ISEL_S2_OUT*%
X132752300Y-96135800D03*
%TO.P,ISEL10A_1,A3,A3*%
%TO.N,+5V_ISO*%
X132752300Y-92355800D03*
%TD*%
D45*
%TO.P,JP2,1,1*%
%TO.N,IN3N*%
X143761500Y-132270500D03*
%TO.P,JP2,2,2*%
%TO.N,Net-(X1-Pin_25)*%
X141861500Y-132270500D03*
%TD*%
D46*
%TO.P,C37,1,1*%
%TO.N,Net-(IC8-VREFP)*%
X196889600Y-122137300D03*
%TO.P,C37,2,2*%
%TO.N,/Voltage/current  ADC/AVSS*%
X199839600Y-122137300D03*
%TD*%
D13*
%TO.P,C38,1,1*%
%TO.N,Net-(IC8-VREFP)*%
X201349100Y-97412200D03*
%TO.P,C38,2,2*%
%TO.N,Net-(C38-Pad2)*%
X201349100Y-94462200D03*
%TD*%
D41*
%TO.P,C33,1,1*%
%TO.N,/Voltage/current  ADC/AVSS*%
X206289400Y-121769300D03*
%TO.P,C33,2,2*%
%TO.N,Net-(IC8-VCAP2)*%
X206289400Y-120219300D03*
%TD*%
D47*
%TO.P,ISEL1A_1,1,S+*%
%TO.N,+5V_ISO*%
X161242500Y-101677100D03*
%TO.P,ISEL1A_1,3,NC*%
%TO.N,unconnected-(ISEL1A_1B-NC-Pad3)*%
X156162500Y-101677100D03*
%TO.P,ISEL1A_1,4,COM*%
%TO.N,Net-(ISEL1A_1B-COM)*%
X153622500Y-101677100D03*
%TO.P,ISEL1A_1,5,NO*%
%TO.N,Net-(IC6B-S)*%
X151082500Y-101677100D03*
%TO.P,ISEL1A_1,6,R+*%
%TO.N,+5V_ISO*%
X148542500Y-101677100D03*
%TO.P,ISEL1A_1,7,R-*%
%TO.N,ISEL_R4_OUT*%
X148542500Y-108917100D03*
%TO.P,ISEL1A_1,8,NO*%
%TO.N,Net-(IC6B-S)*%
X151082500Y-108917100D03*
%TO.P,ISEL1A_1,9,COM*%
%TO.N,Net-(ISEL1A_1B-COM)*%
X153622500Y-108917100D03*
%TO.P,ISEL1A_1,10,NC*%
%TO.N,unconnected-(ISEL1A_1C-NC-Pad10)*%
X156162500Y-108917100D03*
%TO.P,ISEL1A_1,12,S-*%
%TO.N,ISEL_S4_OUT*%
X161242500Y-108917100D03*
%TD*%
D43*
%TO.P,ISEL10A_2,11,11*%
%TO.N,Net-(F4-Pad1)*%
X178475000Y-83600900D03*
%TO.P,ISEL10A_2,12,12*%
%TO.N,Net-(ISEL10A_2-Pad12)*%
X183515000Y-83600900D03*
%TO.P,ISEL10A_2,14,14*%
%TO.N,unconnected-(ISEL10A_2-Pad14)*%
X173435000Y-83600900D03*
%TO.P,ISEL10A_2,21,21*%
%TO.N,Net-(F4-Pad1)*%
X178475000Y-76040900D03*
%TO.P,ISEL10A_2,22,22*%
%TO.N,Net-(ISEL10A_2-Pad12)*%
X183515000Y-76040900D03*
%TO.P,ISEL10A_2,24,24*%
%TO.N,unconnected-(ISEL10A_2-Pad24)*%
X173435000Y-76040900D03*
D44*
%TO.P,ISEL10A_2,A1,R*%
%TO.N,ISEL10A_R4_OUT*%
X198805000Y-76040900D03*
%TO.P,ISEL10A_2,A2,S*%
%TO.N,ISEL10A_S4_OUT*%
X198805000Y-83600900D03*
%TO.P,ISEL10A_2,A3,A3*%
%TO.N,+5V_ISO*%
X198805000Y-79820900D03*
%TD*%
D41*
%TO.P,C44,1,1*%
%TO.N,GND*%
X200790300Y-129325800D03*
%TO.P,C44,2,2*%
%TO.N,+2V5_ISO*%
X200790300Y-127775800D03*
%TD*%
D40*
%TO.P,R31,1,1*%
%TO.N,Net-(IC7A-+IN)*%
X180787800Y-105005500D03*
%TO.P,R31,2,2*%
%TO.N,Net-(IC6B-S)*%
X180787800Y-106830500D03*
%TD*%
D23*
%TO.P,C11,1,1*%
%TO.N,Net-(IC2-HLDO_OUT)*%
X120183400Y-105714400D03*
%TO.P,C11,2,2*%
%TO.N,Net-(IC2-DCDC_HGND)*%
X120183400Y-108664400D03*
%TD*%
D15*
%TO.P,R11,1,1*%
%TO.N,/Isolated Ch#1\u002C Ch#2/DIAG#1*%
X143460600Y-97092900D03*
%TO.P,R11,2,2*%
%TO.N,+3V3_ISO*%
X141635600Y-97092900D03*
%TD*%
D37*
%TO.P,JP5,1,Pin_1*%
%TO.N,GND*%
X169357800Y-122705500D03*
%TO.P,JP5,2,Pin_2*%
%TO.N,IN3N*%
X169357800Y-120705500D03*
%TD*%
D39*
%TO.P,D6,A,A*%
%TO.N,Net-(IC6B-S)*%
X183543700Y-108281600D03*
%TO.P,D6,C,C*%
%TO.N,Net-(D6-PadC)*%
X183543700Y-104319200D03*
%TD*%
D34*
%TO.P,FM1,*%
%TO.N,*%
X87000000Y-137000000D03*
%TD*%
D48*
%TO.P,F3,1,1*%
%TO.N,Net-(ISEL1A_1B-COM)*%
X160465600Y-91313000D03*
%TO.P,F3,2,2*%
%TO.N,AIN4P*%
X137965600Y-91313000D03*
%TD*%
D10*
%TO.P,D7,A,A*%
%TO.N,AIN4N*%
X186782200Y-97486600D03*
%TO.P,D7,C,C*%
%TO.N,Net-(D6-PadC)*%
X186782200Y-101449000D03*
%TD*%
D25*
%TO.P,R16,1,1*%
%TO.N,Net-(IC4A-S)*%
X156847000Y-115101500D03*
%TO.P,R16,2,2*%
%TO.N,Net-(R15-Pad1)*%
X153922000Y-115101500D03*
%TD*%
D33*
%TO.P,C46,1,1*%
%TO.N,GND*%
X201781200Y-131967100D03*
%TO.P,C46,2,2*%
%TO.N,-2V5_ISO*%
X200231200Y-131967100D03*
%TD*%
D49*
%TO.P,R22,1,1*%
%TO.N,+2V5_ISO*%
X182856500Y-123091700D03*
%TO.P,R22,2,2*%
%TO.N,HI_CLAMP*%
X184681500Y-123091700D03*
%TD*%
D22*
%TO.P,R4,1,1*%
%TO.N,Net-(OK1-A)*%
X136947400Y-131622300D03*
%TO.P,R4,2,2*%
%TO.N,/Isolated Ch#1\u002C Ch#2/USEL#1*%
X136947400Y-129797300D03*
%TD*%
D49*
%TO.P,R37,1,1*%
%TO.N,Net-(IC8-CLKSEL)*%
X206189700Y-100585400D03*
%TO.P,R37,2,2*%
%TO.N,Net-(JP8-PadCOM)*%
X208014700Y-100585400D03*
%TD*%
D41*
%TO.P,C20,1,1*%
%TO.N,GND*%
X175034700Y-104891000D03*
%TO.P,C20,2,2*%
%TO.N,+2V5_ISO*%
X175034700Y-103341000D03*
%TD*%
D15*
%TO.P,R33,1,1*%
%TO.N,+2V5_ISO*%
X202693400Y-125591700D03*
%TO.P,R33,2,2*%
%TO.N,Net-(IC8-AVDD)*%
X200868400Y-125591700D03*
%TD*%
D41*
%TO.P,C23,1,1*%
%TO.N,Net-(IC8-AVDD)*%
X198250300Y-101804900D03*
%TO.P,C23,2,2*%
%TO.N,GND*%
X198250300Y-100254900D03*
%TD*%
D40*
%TO.P,R35,1,1*%
%TO.N,Net-(C38-Pad2)*%
X199190100Y-94516700D03*
%TO.P,R35,2,2*%
%TO.N,/Voltage/current  ADC/AVSS*%
X199190100Y-96341700D03*
%TD*%
D50*
%TO.P,X3,1,Pin_1*%
%TO.N,AIN1P*%
X89600000Y-133085000D03*
%TO.P,X3,2,Pin_2*%
%TO.N,AIN1N*%
X89600000Y-129275000D03*
%TO.P,X3,3,Pin_3*%
%TO.N,AIN2P*%
X89600000Y-125465000D03*
%TO.P,X3,4,Pin_4*%
%TO.N,AIN2N*%
X89600000Y-121655000D03*
%TO.P,X3,5,Pin_5*%
%TO.N,AIN3P*%
X89600000Y-117845000D03*
%TO.P,X3,6,Pin_6*%
%TO.N,IN3N*%
X89600000Y-114035000D03*
%TO.P,X3,7,Pin_7*%
%TO.N,AIN4P*%
X89600000Y-110225000D03*
%TO.P,X3,8,Pin_8*%
%TO.N,AIN4N*%
X89600000Y-106415000D03*
%TD*%
D37*
%TO.P,GND1,1,P$1*%
%TO.N,GND*%
X185420000Y-129540000D03*
%TD*%
D41*
%TO.P,C45,1,1*%
%TO.N,Net-(IC11-EN)*%
X193640200Y-132030900D03*
%TO.P,C45,2,2*%
%TO.N,GND*%
X193640200Y-130480900D03*
%TD*%
D51*
%TO.P,D3,1,A*%
%TO.N,Net-(D3-A)*%
X187821100Y-119030700D03*
%TO.P,D3,2,C*%
%TO.N,Net-(D3-C)*%
X185921100Y-119030700D03*
%TO.P,D3,3,AC*%
%TO.N,IN3P*%
X186871100Y-121230700D03*
%TD*%
D52*
%TO.P,IC9,1,~{SHDN}*%
%TO.N,+5V_ISO*%
X208276950Y-98144100D03*
%TO.P,IC9,2,VIN*%
X208276950Y-97494100D03*
%TO.P,IC9,3,GND*%
%TO.N,/Voltage/current  ADC/AVSS*%
X208276950Y-96844100D03*
%TO.P,IC9,4,GND*%
X208276950Y-96194100D03*
%TO.P,IC9,5,GND*%
X203819250Y-96194100D03*
%TO.P,IC9,6,VOUT_S*%
%TO.N,Net-(IC8-VREFP)*%
X203819250Y-96844100D03*
%TO.P,IC9,7,VOUT_F*%
X203819250Y-97494100D03*
%TO.P,IC9,8,GND*%
%TO.N,/Voltage/current  ADC/AVSS*%
X203819250Y-98144100D03*
%TD*%
D40*
%TO.P,R12,1,1*%
%TO.N,/Isolated Ch#1\u002C Ch#2/DIAG#2*%
X142446500Y-102505000D03*
%TO.P,R12,2,2*%
%TO.N,+3V3_ISO*%
X142446500Y-104330000D03*
%TD*%
D53*
%TO.P,Q1,1,G*%
%TO.N,ISEL_MID#4*%
X175958500Y-98401000D03*
%TO.P,Q1,2,S*%
%TO.N,Net-(IC6B-S)*%
X175958500Y-100331400D03*
%TO.P,Q1,3,D*%
%TO.N,Net-(Q1-D)*%
X178117500Y-99366200D03*
%TD*%
D25*
%TO.P,R18,1,1*%
%TO.N,Net-(IC4B-S)*%
X165991000Y-115101500D03*
%TO.P,R18,2,2*%
%TO.N,Net-(R17-Pad1)*%
X163066000Y-115101500D03*
%TD*%
D13*
%TO.P,C30,1,1*%
%TO.N,/Voltage/current  ADC/AVSS*%
X194818000Y-103265500D03*
%TO.P,C30,2,2*%
%TO.N,GND*%
X194818000Y-100315500D03*
%TD*%
D54*
%TO.P,IC7,1,OUT*%
%TO.N,Net-(IC7A--IN)*%
X176751700Y-105601900D03*
%TO.P,IC7,2,V-*%
%TO.N,-2V5_ISO*%
X177701700Y-105601900D03*
%TO.P,IC7,3,+IN*%
%TO.N,Net-(IC7A-+IN)*%
X178651700Y-105601900D03*
%TO.P,IC7,4,-IN*%
%TO.N,Net-(IC7A--IN)*%
X178651700Y-103214300D03*
%TO.P,IC7,5,V+*%
%TO.N,+2V5_ISO*%
X176751700Y-103214300D03*
%TD*%
D39*
%TO.P,D1,A,A*%
%TO.N,GND*%
X161163000Y-124334400D03*
%TO.P,D1,C,C*%
%TO.N,IN3N*%
X161163000Y-120372000D03*
%TD*%
D25*
%TO.P,R14,1,1*%
%TO.N,Net-(R14-Pad1)*%
X147680900Y-115101500D03*
%TO.P,R14,2,2*%
%TO.N,Net-(OK2-S2)*%
X144755900Y-115101500D03*
%TD*%
D13*
%TO.P,C34,1,1*%
%TO.N,/Voltage/current  ADC/AVSS*%
X204130400Y-122977300D03*
%TO.P,C34,2,2*%
%TO.N,Net-(IC8-VCAP1)*%
X204130400Y-120027300D03*
%TD*%
D55*
%TO.P,L4,1,1*%
%TO.N,Net-(IC10-EN)*%
X192230500Y-126646700D03*
%TO.P,L4,2,2*%
%TO.N,+5V_ISO*%
X192230500Y-128346700D03*
%TD*%
D41*
%TO.P,C25,1,1*%
%TO.N,/Voltage/current  ADC/AVSS*%
X199136000Y-125552500D03*
%TO.P,C25,2,2*%
%TO.N,Net-(IC8-AVDD)*%
X199136000Y-124002500D03*
%TD*%
D11*
%TO.P,C9,1,1*%
%TO.N,Net-(IC2-DCDC_HGND)*%
X124628400Y-103366400D03*
%TO.P,C9,2,2*%
%TO.N,Net-(IC2-DCDC_OUT)*%
X124628400Y-104916400D03*
%TD*%
D56*
%TO.P,F1,1,1*%
%TO.N,Net-(F1-Pad1)*%
X96139000Y-106807000D03*
%TO.P,F1,2,2*%
%TO.N,AIN2P*%
X96139000Y-129307000D03*
%TD*%
D25*
%TO.P,R7,1,1*%
%TO.N,Net-(R7-Pad1)*%
X107358400Y-135358000D03*
%TO.P,R7,2,2*%
%TO.N,Net-(L2-Pad1)*%
X104433400Y-135358000D03*
%TD*%
D57*
%TO.P,R28,1,1*%
%TO.N,Net-(Q2-S)*%
X170714700Y-96419800D03*
%TO.P,R28,2,2*%
%TO.N,Net-(IC6B-S)*%
X173639700Y-96419800D03*
%TD*%
D34*
%TO.P,FM2,*%
%TO.N,*%
X210000000Y-73000000D03*
%TD*%
D11*
%TO.P,C26,1,1*%
%TO.N,/Voltage/current  ADC/AVSS*%
X203390500Y-100761500D03*
%TO.P,C26,2,2*%
%TO.N,Net-(IC8-AVDD)*%
X203390500Y-102311500D03*
%TD*%
D23*
%TO.P,C5,1,1*%
%TO.N,Net-(IC2-HLDO_OUT)*%
X122532900Y-105714400D03*
%TO.P,C5,2,2*%
%TO.N,Net-(IC2-DCDC_HGND)*%
X122532900Y-108664400D03*
%TD*%
D34*
%TO.P,FM4,*%
%TO.N,*%
X87000000Y-73000000D03*
%TD*%
D45*
%TO.P,JP7,1,1*%
%TO.N,AFE_CLK*%
X210096900Y-109945300D03*
%TO.P,JP7,2,2*%
%TO.N,Net-(IC8-CLK)*%
X208196900Y-109945300D03*
%TD*%
D33*
%TO.P,C41,1,1*%
%TO.N,GND*%
X207204100Y-104408100D03*
%TO.P,C41,2,2*%
%TO.N,+3V3_ISO*%
X205654100Y-104408100D03*
%TD*%
D45*
%TO.P,JP8,COM,COM*%
%TO.N,Net-(JP8-PadCOM)*%
X208054700Y-102566600D03*
%TO.P,JP8,NC,NC*%
%TO.N,+3V3_ISO*%
X206154700Y-102566600D03*
%TO.P,JP8,NO,NO*%
%TO.N,GND*%
X209954700Y-102566600D03*
%TD*%
D23*
%TO.P,C17,1,1*%
%TO.N,+3V3_ISO*%
X142433800Y-106387500D03*
%TO.P,C17,2,2*%
%TO.N,GND*%
X142433800Y-109337500D03*
%TD*%
D58*
%TO.P,IC5,1,OUT*%
%TO.N,Net-(D3-A)*%
X180285600Y-120016400D03*
%TO.P,IC5,2,-IN*%
%TO.N,IN3P*%
X180935600Y-120016400D03*
%TO.P,IC5,3,+IN*%
%TO.N,LO_CLAMP*%
X181585600Y-120016400D03*
%TO.P,IC5,4,V+*%
%TO.N,+2V5_ISO*%
X182235600Y-120016400D03*
%TO.P,IC5,5,+IN*%
%TO.N,HI_CLAMP*%
X182885600Y-120016400D03*
%TO.P,IC5,6,-IN*%
%TO.N,IN3P*%
X183535600Y-120016400D03*
%TO.P,IC5,7,OUT*%
%TO.N,Net-(D3-C)*%
X184185600Y-120016400D03*
%TO.P,IC5,8,OUT*%
%TO.N,Net-(D10-C)*%
X184185600Y-114377600D03*
%TO.P,IC5,9,-IN*%
%TO.N,IN4P*%
X183535600Y-114377600D03*
%TO.P,IC5,10,+IN*%
%TO.N,HI_CLAMP*%
X182885600Y-114377600D03*
%TO.P,IC5,11,V-*%
%TO.N,-2V5_ISO*%
X182235600Y-114377600D03*
%TO.P,IC5,12,+IN*%
%TO.N,LO_CLAMP*%
X181585600Y-114377600D03*
%TO.P,IC5,13,-IN*%
%TO.N,IN4P*%
X180935600Y-114377600D03*
%TO.P,IC5,14,OUT*%
%TO.N,Net-(D10-A)*%
X180285600Y-114377600D03*
%TD*%
D22*
%TO.P,R32,1,1*%
%TO.N,Net-(IC7A--IN)*%
X180800500Y-103110800D03*
%TO.P,R32,2,2*%
%TO.N,Net-(D6-PadC)*%
X180800500Y-101285800D03*
%TD*%
D59*
%TO.P,IC8,1,IN8N(NC)*%
%TO.N,unconnected-(IC8-IN8N(NC)-Pad1)*%
X194433950Y-107871700D03*
%TO.P,IC8,2,IN8P(NC)*%
%TO.N,unconnected-(IC8-IN8P(NC)-Pad2)*%
X194433950Y-108371700D03*
%TO.P,IC8,3,IN7N(NC)*%
%TO.N,unconnected-(IC8-IN7N(NC)-Pad3)*%
X194433950Y-108871700D03*
%TO.P,IC8,4,IN7P(NC)*%
%TO.N,unconnected-(IC8-IN7P(NC)-Pad4)*%
X194433950Y-109371700D03*
%TO.P,IC8,5,IN6N(NC)*%
%TO.N,unconnected-(IC8-IN6N(NC)-Pad5)*%
X194433950Y-109871700D03*
%TO.P,IC8,6,IN6P(NC)*%
%TO.N,unconnected-(IC8-IN6P(NC)-Pad6)*%
X194433950Y-110371700D03*
%TO.P,IC8,7,IN5N(NC)*%
%TO.N,unconnected-(IC8-IN5N(NC)-Pad7)*%
X194433950Y-110871700D03*
%TO.P,IC8,8,IN5P(NC)*%
%TO.N,unconnected-(IC8-IN5P(NC)-Pad8)*%
X194433950Y-111371700D03*
%TO.P,IC8,9,IN4N*%
%TO.N,IN4N*%
X194433950Y-111871700D03*
%TO.P,IC8,10,IN4P*%
%TO.N,IN4P*%
X194433950Y-112371700D03*
%TO.P,IC8,11,IN3N*%
%TO.N,IN3N*%
X194433950Y-112871700D03*
%TO.P,IC8,12,IN3P*%
%TO.N,IN3P*%
X194433950Y-113371700D03*
%TO.P,IC8,13,IN2N*%
%TO.N,IN2N*%
X194433950Y-113871700D03*
%TO.P,IC8,14,IN2P*%
%TO.N,IN2P*%
X194433950Y-114371700D03*
%TO.P,IC8,15,IN1N*%
%TO.N,IN1N*%
X194433950Y-114871700D03*
%TO.P,IC8,16,IN1P*%
%TO.N,IN1P*%
X194433950Y-115371700D03*
D60*
%TO.P,IC8,17,TESTP*%
%TO.N,unconnected-(IC8-TESTP-Pad17)*%
X196303700Y-117241450D03*
%TO.P,IC8,18,TESTN*%
%TO.N,unconnected-(IC8-TESTN-Pad18)*%
X196803700Y-117241450D03*
%TO.P,IC8,19,AVDD_2*%
%TO.N,Net-(IC8-AVDD)*%
X197303700Y-117241450D03*
%TO.P,IC8,20,AVSS_2*%
%TO.N,/Voltage/current  ADC/AVSS*%
X197803700Y-117241450D03*
%TO.P,IC8,21,AVDD_3*%
%TO.N,Net-(IC8-AVDD)*%
X198303700Y-117241450D03*
%TO.P,IC8,22,AVDD_4*%
X198803700Y-117241450D03*
%TO.P,IC8,23,AVSS_3*%
%TO.N,/Voltage/current  ADC/AVSS*%
X199303700Y-117241450D03*
%TO.P,IC8,24,VREFP*%
%TO.N,Net-(IC8-VREFP)*%
X199803700Y-117241450D03*
%TO.P,IC8,25,VREFN*%
%TO.N,/Voltage/current  ADC/AVSS*%
X200303700Y-117241450D03*
%TO.P,IC8,26,VCAP4*%
%TO.N,Net-(IC8-VCAP4)*%
X200803700Y-117241450D03*
%TO.P,IC8,27,NC*%
%TO.N,unconnected-(IC8-NC-Pad27)*%
X201303700Y-117241450D03*
%TO.P,IC8,28,VCAP1*%
%TO.N,Net-(IC8-VCAP1)*%
X201803700Y-117241450D03*
%TO.P,IC8,29,NC*%
%TO.N,unconnected-(IC8-NC-Pad29)*%
X202303700Y-117241450D03*
%TO.P,IC8,30,VCAP2*%
%TO.N,Net-(IC8-VCAP2)*%
X202803700Y-117241450D03*
%TO.P,IC8,31,RESV1*%
%TO.N,GND*%
X203303700Y-117241450D03*
%TO.P,IC8,32,AVSS_4*%
%TO.N,/Voltage/current  ADC/AVSS*%
X203803700Y-117241450D03*
D59*
%TO.P,IC8,33,DGND_2*%
%TO.N,GND*%
X205673450Y-115371700D03*
%TO.P,IC8,34,DIN*%
%TO.N,ADC_MOSI*%
X205673450Y-114871700D03*
%TO.P,IC8,35,~{PWDN}*%
%TO.N,Net-(IC8-~{PWDN})*%
X205673450Y-114371700D03*
%TO.P,IC8,36,~{RESET}*%
%TO.N,~{RESET}*%
X205673450Y-113871700D03*
%TO.P,IC8,37,CLK*%
%TO.N,Net-(IC8-CLK)*%
X205673450Y-113371700D03*
%TO.P,IC8,38,START*%
%TO.N,ADC_START*%
X205673450Y-112871700D03*
%TO.P,IC8,39,~{CS}*%
%TO.N,~{ADC_CS}*%
X205673450Y-112371700D03*
%TO.P,IC8,40,SCLK*%
%TO.N,ADC_SCK*%
X205673450Y-111871700D03*
%TO.P,IC8,41,DAISY_IN*%
%TO.N,GND*%
X205673450Y-111371700D03*
%TO.P,IC8,42,GPIO1*%
%TO.N,unconnected-(IC8-GPIO1-Pad42)*%
X205673450Y-110871700D03*
%TO.P,IC8,43,DOUT*%
%TO.N,ADC_MISO*%
X205673450Y-110371700D03*
%TO.P,IC8,44,GPIO2*%
%TO.N,unconnected-(IC8-GPIO2-Pad44)*%
X205673450Y-109871700D03*
%TO.P,IC8,45,GPIO3*%
%TO.N,unconnected-(IC8-GPIO3-Pad45)*%
X205673450Y-109371700D03*
%TO.P,IC8,46,GPIO4*%
%TO.N,unconnected-(IC8-GPIO4-Pad46)*%
X205673450Y-108871700D03*
%TO.P,IC8,47,~{DRDY}*%
%TO.N,~{ADC_DRDY}*%
X205673450Y-108371700D03*
%TO.P,IC8,48,DVDD_2*%
%TO.N,+3V3_ISO*%
X205673450Y-107871700D03*
D60*
%TO.P,IC8,49,DGND_3*%
%TO.N,GND*%
X203803700Y-106001950D03*
%TO.P,IC8,50,DVDD*%
%TO.N,+3V3_ISO*%
X203303700Y-106001950D03*
%TO.P,IC8,51,DGND*%
%TO.N,GND*%
X202803700Y-106001950D03*
%TO.P,IC8,52,CLKSEL*%
%TO.N,Net-(IC8-CLKSEL)*%
X202303700Y-106001950D03*
%TO.P,IC8,53,AVSS1*%
%TO.N,/Voltage/current  ADC/AVSS*%
X201803700Y-106001950D03*
%TO.P,IC8,54,AVDD1*%
%TO.N,Net-(IC8-AVDD)*%
X201303700Y-106001950D03*
%TO.P,IC8,55,VCAP3*%
%TO.N,Net-(IC8-VCAP3)*%
X200803700Y-106001950D03*
%TO.P,IC8,56,AVDD_5*%
%TO.N,Net-(IC8-AVDD)*%
X200303700Y-106001950D03*
%TO.P,IC8,57,AVSS_5*%
%TO.N,/Voltage/current  ADC/AVSS*%
X199803700Y-106001950D03*
%TO.P,IC8,58,AVSS*%
X199303700Y-106001950D03*
%TO.P,IC8,59,AVDD*%
%TO.N,Net-(IC8-AVDD)*%
X198803700Y-106001950D03*
%TO.P,IC8,60,OPAMPP*%
%TO.N,unconnected-(IC8-OPAMPP-Pad60)*%
X198303700Y-106001950D03*
%TO.P,IC8,61,OPAMPN*%
%TO.N,unconnected-(IC8-OPAMPN-Pad61)*%
X197803700Y-106001950D03*
%TO.P,IC8,62,NC*%
%TO.N,unconnected-(IC8-NC-Pad62)*%
X197303700Y-106001950D03*
%TO.P,IC8,63,OPAMPOUT*%
%TO.N,unconnected-(IC8-OPAMPOUT-Pad63)*%
X196803700Y-106001950D03*
%TO.P,IC8,64,NC*%
%TO.N,unconnected-(IC8-NC-Pad64)*%
X196303700Y-106001950D03*
%TD*%
D61*
%TO.P,JP3,1,1*%
%TO.N,Net-(X1-Pin_24)*%
X163757100Y-101929100D03*
%TO.P,JP3,2,2*%
%TO.N,IN4P*%
X163757100Y-100029100D03*
%TD*%
D11*
%TO.P,C13,1,1*%
%TO.N,Net-(IC2-DCDC_IN)*%
X139246100Y-100534300D03*
%TO.P,C13,2,2*%
%TO.N,GND*%
X139246100Y-102084300D03*
%TD*%
%TO.P,C8,1,1*%
%TO.N,Net-(IC2-DCDC_OUT)*%
X124628400Y-100166000D03*
%TO.P,C8,2,2*%
%TO.N,Net-(IC2-DCDC_HGND)*%
X124628400Y-101716000D03*
%TD*%
D48*
%TO.P,F4,1,1*%
%TO.N,Net-(F4-Pad1)*%
X160452900Y-81916400D03*
%TO.P,F4,2,2*%
%TO.N,AIN4P*%
X137952900Y-81916400D03*
%TD*%
D11*
%TO.P,C27,1,1*%
%TO.N,Net-(IC8-AVDD)*%
X197612000Y-124002500D03*
%TO.P,C27,2,2*%
%TO.N,/Voltage/current  ADC/AVSS*%
X197612000Y-125552500D03*
%TD*%
D53*
%TO.P,Q2,1,G*%
%TO.N,ISEL_MID#4*%
X171974000Y-98401000D03*
%TO.P,Q2,2,S*%
%TO.N,Net-(Q2-S)*%
X171974000Y-100331400D03*
%TO.P,Q2,3,D*%
%TO.N,Net-(Q1-D)*%
X174133000Y-99366200D03*
%TD*%
D40*
%TO.P,R36,1,1*%
%TO.N,Net-(IC8-~{PWDN})*%
X208257900Y-121034300D03*
%TO.P,R36,2,2*%
%TO.N,+3V3_ISO*%
X208257900Y-122859300D03*
%TD*%
D62*
%TO.P,IC6,1,IN*%
%TO.N,GND*%
X163998400Y-109665900D03*
%TO.P,IC6,2,D*%
%TO.N,unconnected-(IC6A-D-Pad2)*%
X165268400Y-109665900D03*
%TO.P,IC6,3,S*%
%TO.N,unconnected-(IC6A-S-Pad3)*%
X166538400Y-109665900D03*
%TO.P,IC6,4,V-*%
%TO.N,-15V_ISO*%
X167808400Y-109665900D03*
%TO.P,IC6,5,GND*%
%TO.N,GND*%
X169078400Y-109665900D03*
%TO.P,IC6,6,S*%
%TO.N,unconnected-(IC6D-S-Pad6)*%
X170348400Y-109665900D03*
%TO.P,IC6,7,D*%
%TO.N,unconnected-(IC6D-D-Pad7)*%
X171618400Y-109665900D03*
%TO.P,IC6,8,IN*%
%TO.N,GND*%
X172888400Y-109665900D03*
%TO.P,IC6,9,IN*%
%TO.N,ISEL_MID#4*%
X172888400Y-104281100D03*
%TO.P,IC6,10,D*%
%TO.N,Net-(IC6C-D)*%
X171618400Y-104281100D03*
%TO.P,IC6,11,S*%
%TO.N,IN4P*%
X170348400Y-104281100D03*
%TO.P,IC6,12,VL*%
%TO.N,+5V_ISO*%
X169078400Y-104281100D03*
%TO.P,IC6,13,V+*%
%TO.N,+15V_ISO*%
X167808400Y-104281100D03*
%TO.P,IC6,14,S*%
%TO.N,Net-(IC6B-S)*%
X166538400Y-104281100D03*
%TO.P,IC6,15,D*%
%TO.N,IN4P*%
X165268400Y-104281100D03*
%TO.P,IC6,16,IN*%
%TO.N,ISEL_LOW#4*%
X163998400Y-104281100D03*
%TD*%
D33*
%TO.P,C19,1,1*%
%TO.N,GND*%
X184191700Y-112396400D03*
%TO.P,C19,2,2*%
%TO.N,-2V5_ISO*%
X182641700Y-112396400D03*
%TD*%
D23*
%TO.P,C4,1,1*%
%TO.N,Net-(IC1-HLDO_OUT)*%
X122278900Y-123519800D03*
%TO.P,C4,2,2*%
%TO.N,AIN1N*%
X122278900Y-126469800D03*
%TD*%
D63*
%TO.P,D10,1,A*%
%TO.N,Net-(D10-A)*%
X185946500Y-115477600D03*
%TO.P,D10,2,C*%
%TO.N,Net-(D10-C)*%
X187846500Y-115477600D03*
%TO.P,D10,3,AC*%
%TO.N,IN4P*%
X186896500Y-113277600D03*
%TD*%
D11*
%TO.P,C43,1,1*%
%TO.N,Net-(IC10-EN)*%
X194056000Y-126796500D03*
%TO.P,C43,2,2*%
%TO.N,GND*%
X194056000Y-128346500D03*
%TD*%
D12*
%TO.P,L2,1,1*%
%TO.N,Net-(L2-Pad1)*%
X102593000Y-135358000D03*
%TO.P,L2,2,2*%
%TO.N,AIN1P*%
X100893000Y-135358000D03*
%TD*%
D25*
%TO.P,R15,1,1*%
%TO.N,Net-(R15-Pad1)*%
X152275000Y-115101500D03*
%TO.P,R15,2,2*%
%TO.N,Net-(R14-Pad1)*%
X149350000Y-115101500D03*
%TD*%
D20*
%TO.P,C28,1,1*%
%TO.N,Net-(IC8-AVDD)*%
X198440500Y-103314500D03*
%TO.P,C28,2,2*%
%TO.N,/Voltage/current  ADC/AVSS*%
X199990500Y-103314500D03*
%TD*%
D23*
%TO.P,C16,1,1*%
%TO.N,+3V3_ISO*%
X139893800Y-122808600D03*
%TO.P,C16,2,2*%
%TO.N,GND*%
X139893800Y-125758600D03*
%TD*%
D41*
%TO.P,C35,1,1*%
%TO.N,Net-(IC8-VCAP3)*%
X199952100Y-101804900D03*
%TO.P,C35,2,2*%
%TO.N,/Voltage/current  ADC/AVSS*%
X199952100Y-100254900D03*
%TD*%
D33*
%TO.P,C24,1,1*%
%TO.N,Net-(IC8-AVDD)*%
X196955200Y-120105300D03*
%TO.P,C24,2,2*%
%TO.N,GND*%
X195405200Y-120105300D03*
%TD*%
D64*
%TO.P,IC10,1,IN*%
%TO.N,Net-(IC10-EN)*%
X196109300Y-127735700D03*
%TO.P,IC10,2,GND*%
%TO.N,GND*%
X196109300Y-128385700D03*
%TO.P,IC10,3,EN*%
%TO.N,Net-(IC10-EN)*%
X196109300Y-129035700D03*
%TO.P,IC10,4,NR*%
%TO.N,unconnected-(IC10-NR-Pad4)*%
X198359300Y-129035700D03*
%TO.P,IC10,5,OUT*%
%TO.N,+2V5_ISO*%
X198359300Y-127735700D03*
%TD*%
D20*
%TO.P,C39,1,1*%
%TO.N,+3V3_ISO*%
X208457500Y-106553000D03*
%TO.P,C39,2,2*%
%TO.N,GND*%
X210007500Y-106553000D03*
%TD*%
D25*
%TO.P,R8,1,1*%
%TO.N,Net-(R8-Pad1)*%
X112298700Y-135358000D03*
%TO.P,R8,2,2*%
%TO.N,Net-(R7-Pad1)*%
X109373700Y-135358000D03*
%TD*%
D41*
%TO.P,C29,1,1*%
%TO.N,/Voltage/current  ADC/AVSS*%
X196723000Y-103327500D03*
%TO.P,C29,2,2*%
%TO.N,GND*%
X196723000Y-101777500D03*
%TD*%
D35*
%TO.P,OK2,1,A*%
%TO.N,Net-(OK2-A)*%
X155890600Y-123089800D03*
%TO.P,OK2,2,C*%
%TO.N,GND*%
X155890600Y-120549800D03*
D36*
%TO.P,OK2,3,S2*%
%TO.N,Net-(OK2-S2)*%
X146350600Y-120549800D03*
%TO.P,OK2,4,S1*%
%TO.N,Net-(OK2-S1)*%
X146350600Y-123089800D03*
%TD*%
D10*
%TO.P,D2,A,A*%
%TO.N,IN3N*%
X164392100Y-120372000D03*
%TO.P,D2,C,C*%
%TO.N,GND*%
X164392100Y-124334400D03*
%TD*%
D65*
%TO.P,F2,1,1*%
%TO.N,Net-(F1-Pad1)*%
X105578400Y-129323300D03*
%TO.P,F2,2,2*%
%TO.N,Net-(F2-Pad2)*%
X105578400Y-106823300D03*
%TD*%
D66*
%TO.P,JP4,1,1*%
%TO.N,Net-(X1-Pin_26)*%
X145928800Y-132259200D03*
%TO.P,JP4,2,2*%
%TO.N,IN3P*%
X147828800Y-132259200D03*
%TD*%
D23*
%TO.P,C10,1,1*%
%TO.N,Net-(IC1-HLDO_OUT)*%
X119929400Y-123519800D03*
%TO.P,C10,2,2*%
%TO.N,AIN1N*%
X119929400Y-126469800D03*
%TD*%
D42*
%TO.P,R3,1,1*%
%TO.N,AIN1N*%
X121605800Y-132515200D03*
%TO.P,R3,2,2*%
%TO.N,Net-(OK1-S2)*%
X121605800Y-129590200D03*
%TD*%
D14*
%TO.P,R10,1,1*%
%TO.N,AIN1N*%
X119316500Y-132473100D03*
%TO.P,R10,2,2*%
%TO.N,Net-(IC1-INP)*%
X119316500Y-135398100D03*
%TD*%
D45*
%TO.P,JP1,1,1*%
%TO.N,IN4N*%
X148095500Y-97118300D03*
%TO.P,JP1,2,2*%
%TO.N,Net-(X1-Pin_23)*%
X146195500Y-97118300D03*
%TD*%
D25*
%TO.P,R19,1,1*%
%TO.N,Net-(R19-Pad1)*%
X150433500Y-126087000D03*
%TO.P,R19,2,2*%
%TO.N,Net-(OK2-S1)*%
X147508500Y-126087000D03*
%TD*%
D11*
%TO.P,C12,1,1*%
%TO.N,Net-(IC1-DCDC_IN)*%
X137061700Y-117450700D03*
%TO.P,C12,2,2*%
%TO.N,GND*%
X137061700Y-119000700D03*
%TD*%
D29*
%TO.P,R2,1,1*%
%TO.N,AIN2N*%
X112511000Y-114883850D03*
D30*
X111611000Y-114439000D03*
X113411000Y-114439000D03*
D31*
%TO.P,R2,1S,1S*%
%TO.N,Net-(L1-Pad4)*%
X112511000Y-113739000D03*
D30*
%TO.P,R2,2,2*%
%TO.N,Net-(ISEL10A_1-Pad22)*%
X111611000Y-108839000D03*
X113411000Y-108839000D03*
D29*
X112511000Y-108394150D03*
D32*
%TO.P,R2,2S,2S*%
%TO.N,Net-(ISEL10A_1-Pad12)*%
X112511000Y-109539000D03*
%TD*%
D11*
%TO.P,C1,1,1*%
%TO.N,Net-(IC2-INP)*%
X124564900Y-110491100D03*
%TO.P,C1,2,2*%
%TO.N,Net-(IC2-INN)*%
X124564900Y-112041100D03*
%TD*%
D40*
%TO.P,R26,1,1*%
%TO.N,USEL1#3*%
X158296100Y-121047000D03*
%TO.P,R26,2,2*%
%TO.N,Net-(OK2-A)*%
X158296100Y-122872000D03*
%TD*%
D37*
%TO.P,IN1N1,1,P$1*%
%TO.N,IN1N*%
X142240000Y-129540000D03*
%TD*%
D67*
%TO.P,X2,1,Pin_1*%
%TO.N,GND*%
X169020000Y-72713600D03*
D68*
%TO.P,X2,2,Pin_2*%
%TO.N,unconnected-(X2-Pin_2-Pad2)*%
X169020000Y-75253600D03*
%TO.P,X2,3,Pin_3*%
%TO.N,/Isolated Ch#1\u002C Ch#2/DIAG#1*%
X166480000Y-72713600D03*
%TO.P,X2,4,Pin_4*%
%TO.N,/Isolated Ch#1\u002C Ch#2/DIAG#2*%
X166480000Y-75253600D03*
%TO.P,X2,5,Pin_5*%
%TO.N,/Isolated Ch#1\u002C Ch#2/USEL#1*%
X163940000Y-72713600D03*
%TO.P,X2,6,Pin_6*%
%TO.N,/Isolated Ch#1\u002C Ch#2/ISEL_S#2*%
X163940000Y-75253600D03*
%TO.P,X2,7,Pin_7*%
%TO.N,unconnected-(X2-Pin_7-Pad7)*%
X161400000Y-72713600D03*
%TO.P,X2,8,Pin_8*%
%TO.N,/Isolated Ch#1\u002C Ch#2/ISEL_R#2*%
X161400000Y-75253600D03*
%TO.P,X2,9,Pin_9*%
%TO.N,USEL100#3*%
X158860000Y-72713600D03*
%TO.P,X2,10,Pin_10*%
%TO.N,unconnected-(X2-Pin_10-Pad10)*%
X158860000Y-75253600D03*
%TO.P,X2,11,Pin_11*%
%TO.N,USEL1#3*%
X156320000Y-72713600D03*
%TO.P,X2,12,Pin_12*%
%TO.N,unconnected-(X2-Pin_12-Pad12)*%
X156320000Y-75253600D03*
%TO.P,X2,13,Pin_13*%
%TO.N,USEL20#3*%
X153780000Y-72713600D03*
%TO.P,X2,14,Pin_14*%
%TO.N,unconnected-(X2-Pin_14-Pad14)*%
X153780000Y-75253600D03*
%TO.P,X2,15,Pin_15*%
%TO.N,unconnected-(X2-Pin_15-Pad15)*%
X151240000Y-72713600D03*
%TO.P,X2,16,Pin_16*%
%TO.N,/Isolated Ch#1\u002C Ch#2/ISEL_S#4*%
X151240000Y-75253600D03*
%TO.P,X2,17,Pin_17*%
%TO.N,unconnected-(X2-Pin_17-Pad17)*%
X148700000Y-72713600D03*
%TO.P,X2,18,Pin_18*%
%TO.N,/Isolated Ch#1\u002C Ch#2/ISEL_R#4*%
X148700000Y-75253600D03*
%TO.P,X2,19,Pin_19*%
%TO.N,unconnected-(X2-Pin_19-Pad19)*%
X146160000Y-72713600D03*
%TO.P,X2,20,Pin_20*%
%TO.N,/Isolated Ch#1\u002C Ch#2/ISEL10_S#4*%
X146160000Y-75253600D03*
%TO.P,X2,21,Pin_21*%
%TO.N,unconnected-(X2-Pin_21-Pad21)*%
X143620000Y-72713600D03*
%TO.P,X2,22,Pin_22*%
%TO.N,/Isolated Ch#1\u002C Ch#2/ISEL10_R#4*%
X143620000Y-75253600D03*
%TO.P,X2,23,Pin_23*%
%TO.N,ISEL_LOW#4*%
X141080000Y-72713600D03*
%TO.P,X2,24,Pin_24*%
%TO.N,ISEL_MID#4*%
X141080000Y-75253600D03*
%TO.P,X2,25,Pin_25*%
%TO.N,unconnected-(X2-Pin_25-Pad25)*%
X138540000Y-72713600D03*
%TO.P,X2,26,Pin_26*%
%TO.N,unconnected-(X2-Pin_26-Pad26)*%
X138540000Y-75253600D03*
%TO.P,X2,27,Pin_27*%
%TO.N,GND*%
X136000000Y-72713600D03*
%TO.P,X2,28,Pin_28*%
X136000000Y-75253600D03*
%TD*%
D37*
%TO.P,IN1P1,1,P$1*%
%TO.N,IN1P*%
X142240000Y-121920000D03*
%TD*%
%TO.P,IN2N1,1,P$1*%
%TO.N,IN2N*%
X144780000Y-106680000D03*
%TD*%
%TO.P,IN2P1,1,P$1*%
%TO.N,IN2P*%
X144780000Y-111760000D03*
%TD*%
D67*
%TO.P,X1,1,Pin_1*%
%TO.N,GND*%
X169020000Y-134753600D03*
D68*
%TO.P,X1,2,Pin_2*%
X169020000Y-137293600D03*
%TO.P,X1,3,Pin_3*%
%TO.N,ADC_MOSI*%
X166480000Y-134753600D03*
%TO.P,X1,4,Pin_4*%
%TO.N,unconnected-(X1-Pin_4-Pad4)*%
X166480000Y-137293600D03*
%TO.P,X1,5,Pin_5*%
%TO.N,~{ADC_CS}*%
X163940000Y-134753600D03*
%TO.P,X1,6,Pin_6*%
%TO.N,ADC_SCK*%
X163940000Y-137293600D03*
%TO.P,X1,7,Pin_7*%
%TO.N,~{ADC_DRDY}*%
X161400000Y-134753600D03*
%TO.P,X1,8,Pin_8*%
%TO.N,ADC_MISO*%
X161400000Y-137293600D03*
%TO.P,X1,9,Pin_9*%
%TO.N,~{RESET}*%
X158860000Y-134753600D03*
%TO.P,X1,10,Pin_10*%
%TO.N,ADC_START*%
X158860000Y-137293600D03*
%TO.P,X1,11,Pin_11*%
%TO.N,GND*%
X156320000Y-134753600D03*
%TO.P,X1,12,Pin_12*%
X156320000Y-137293600D03*
%TO.P,X1,13,Pin_13*%
%TO.N,+3V3_ISO*%
X153780000Y-134753600D03*
%TO.P,X1,14,Pin_14*%
%TO.N,AFE_CLK*%
X153780000Y-137293600D03*
%TO.P,X1,15,Pin_15*%
%TO.N,-5V_ISO*%
X151240000Y-134753600D03*
%TO.P,X1,16,Pin_16*%
%TO.N,+5V_ISO*%
X151240000Y-137293600D03*
%TO.P,X1,17,Pin_17*%
%TO.N,unconnected-(X1-Pin_17-Pad17)*%
X148700000Y-134753600D03*
%TO.P,X1,18,Pin_18*%
%TO.N,unconnected-(X1-Pin_18-Pad18)*%
X148700000Y-137293600D03*
%TO.P,X1,19,Pin_19*%
%TO.N,-15V_ISO*%
X146160000Y-134753600D03*
%TO.P,X1,20,Pin_20*%
%TO.N,+15V_ISO*%
X146160000Y-137293600D03*
%TO.P,X1,21,Pin_21*%
%TO.N,GND*%
X143620000Y-134753600D03*
%TO.P,X1,22,Pin_22*%
X143620000Y-137293600D03*
%TO.P,X1,23,Pin_23*%
%TO.N,Net-(X1-Pin_23)*%
X141080000Y-134753600D03*
%TO.P,X1,24,Pin_24*%
%TO.N,Net-(X1-Pin_24)*%
X141080000Y-137293600D03*
%TO.P,X1,25,Pin_25*%
%TO.N,Net-(X1-Pin_25)*%
X138540000Y-134753600D03*
%TO.P,X1,26,Pin_26*%
%TO.N,Net-(X1-Pin_26)*%
X138540000Y-137293600D03*
%TO.P,X1,27,Pin_27*%
%TO.N,GND*%
X136000000Y-134753600D03*
%TO.P,X1,28,Pin_28*%
X136000000Y-137293600D03*
%TD*%
D69*
%TO.N,Net-(IC2-DCDC_HGND)*%
X121402600Y-108586400D03*
X123333000Y-103112700D03*
X118811800Y-111113700D03*
%TO.N,Net-(IC8-AVDD)*%
X203361101Y-102904099D03*
X198275700Y-102719000D03*
X198374000Y-123952000D03*
X196840600Y-119292500D03*
X200307700Y-107405300D03*
%TO.N,/Voltage/current  ADC/AVSS*%
X201577700Y-107506900D03*
X200803000Y-100331400D03*
X199317100Y-115838100D03*
X202809600Y-98997900D03*
X202565000Y-100647500D03*
X197805800Y-115850800D03*
X205359000Y-129540000D03*
X200815700Y-103747700D03*
X195964300Y-103569900D03*
X204308200Y-117730400D03*
X200180700Y-120930800D03*
X198374000Y-125539500D03*
%TO.N,Net-(IC8-VREFP)*%
X200320400Y-98426400D03*
X196065900Y-122150000D03*
%TO.N,Net-(D3-A)*%
X179886100Y-120067200D03*
X187569600Y-119965600D03*
%TO.N,Net-(IC6B-S)*%
X151082500Y-103620700D03*
X174641000Y-96419800D03*
X166551100Y-102503100D03*
X174272700Y-100382200D03*
X183543700Y-106719500D03*
%TO.N,Net-(D10-A)*%
X179873400Y-114377600D03*
X185207400Y-115469800D03*
%TO.N,Net-(F2-Pad2)*%
X112042700Y-99213800D03*
X113681000Y-99213800D03*
X112855500Y-99213800D03*
X111217200Y-99213800D03*
%TO.N,Net-(ISEL1A_1B-COM)*%
X153686000Y-99213800D03*
X152873200Y-99213800D03*
%TO.N,/Isolated Ch#1\u002C Ch#2/DIAG#1*%
X143183100Y-96013400D03*
X140652500Y-120015000D03*
X136045700Y-120016400D03*
%TO.N,/Isolated Ch#1\u002C Ch#2/ISEL_S2_OUT*%
X130851400Y-86653500D03*
%TO.N,/Isolated Ch#1\u002C Ch#2/DIAG#2*%
X144211800Y-102376100D03*
X138179300Y-103214300D03*
%TO.N,Net-(IC4A-S)*%
X170069000Y-124651900D03*
X160290000Y-117222400D03*
D70*
%TO.N,Net-(IC6C-D)*%
X168402000Y-92900500D03*
D69*
X170970700Y-101957000D03*
%TO.N,Net-(IC4B-S)*%
X167478200Y-117311300D03*
X175517300Y-123623200D03*
%TO.N,Net-(IC8-~{PWDN})*%
X207534000Y-115126900D03*
X207838800Y-119737000D03*
%TO.N,Net-(IC8-CLK)*%
X204346300Y-113387000D03*
X208359500Y-111037500D03*
%TO.N,Net-(X1-Pin_23)*%
X145164300Y-97118300D03*
%TO.N,/Isolated Ch#1\u002C Ch#2/USEL#1*%
X136947400Y-128804800D03*
%TO.N,Net-(X1-Pin_24)*%
X162652200Y-102147500D03*
X146576200Y-102592000D03*
%TO.N,GND*%
X139246100Y-103100000D03*
X180022500Y-121602500D03*
X169078400Y-110707300D03*
X175047400Y-105640000D03*
X195037200Y-119343300D03*
X202606400Y-110783500D03*
X210074000Y-105119300D03*
X203419200Y-112409100D03*
X185067700Y-112383700D03*
X132870700Y-72658100D03*
X170411900Y-126074300D03*
X207899000Y-104408100D03*
X138430000Y-109728000D03*
X203419200Y-110783500D03*
X194516500Y-130595500D03*
X182181500Y-125730000D03*
X135486900Y-129681100D03*
X202936600Y-77724000D03*
X155883100Y-119533800D03*
X202606400Y-111596300D03*
X141224000Y-109537500D03*
X202606400Y-112409100D03*
X178244500Y-130619500D03*
X195100700Y-128385700D03*
X196548500Y-101017200D03*
X203419200Y-111596300D03*
X136398000Y-118644800D03*
X210201000Y-107316400D03*
X194818000Y-101219000D03*
X133670800Y-72658100D03*
X138725400Y-125807600D03*
X176761900Y-110326300D03*
X132070600Y-72658100D03*
X174844200Y-107570400D03*
X202580996Y-131967104D03*
X197412100Y-100026600D03*
X200088500Y-129349500D03*
%TO.N,+15V_ISO*%
X175225200Y-125261500D03*
X167808400Y-105932100D03*
%TO.N,-15V_ISO*%
X167808400Y-108522900D03*
X173383700Y-125261500D03*
%TO.N,+3V3_ISO*%
X147320002Y-105410000D03*
X154105100Y-128893700D03*
X208461100Y-107303700D03*
X207800700Y-123902600D03*
X205400400Y-105309800D03*
X139893800Y-121756300D03*
%TO.N,+5V_ISO*%
X175707800Y-128106300D03*
X169078400Y-100915600D03*
X157661100Y-100915600D03*
X191570100Y-129135000D03*
X210645500Y-96901000D03*
X157661100Y-133021200D03*
X175707800Y-133021200D03*
X147780500Y-100915600D03*
X191570100Y-97105600D03*
X157661100Y-128703200D03*
%TO.N,+2V5_ISO*%
X195215000Y-125807600D03*
X175441100Y-102160200D03*
X181422800Y-124639200D03*
%TO.N,-2V5_ISO*%
X177790600Y-108383200D03*
X182565800Y-111558200D03*
X188801500Y-130976500D03*
X210239100Y-93879800D03*
%TO.N,-5V_ISO*%
X190554100Y-131217800D03*
%TO.N,IN1P*%
X180051200Y-126493400D03*
X142395700Y-124220100D03*
%TO.N,IN1N*%
X180063900Y-127509400D03*
X142383000Y-125236100D03*
%TO.N,IN2P*%
X192624200Y-115126900D03*
X138065000Y-107049700D03*
%TO.N,IN2N*%
X192636900Y-114098200D03*
X138814300Y-108040300D03*
%TO.N,IN3P*%
X180864000Y-118530500D03*
X176114200Y-122721500D03*
X183594500Y-118530500D03*
%TO.N,IN4N*%
X162664900Y-94768800D03*
X169040300Y-94768800D03*
X173561500Y-106554400D03*
%TO.N,ISEL10A_S4_OUT*%
X128603500Y-75350500D03*
X166373300Y-78779500D03*
X143348200Y-79846300D03*
%TO.N,ISEL10A_R4_OUT*%
X165751000Y-77954000D03*
X142573500Y-79135100D03*
X129403600Y-74537700D03*
%TO.N,ISEL_S4_OUT*%
X148313900Y-94565600D03*
X155044900Y-106325800D03*
%TO.N,ISEL_R4_OUT*%
X146789900Y-92000200D03*
X148517100Y-104330500D03*
%TO.N,IN4P*%
X180864000Y-115774600D03*
X170723050Y-106725850D03*
X183645300Y-115774600D03*
%TO.N,ISEL_MID#4*%
X146091400Y-81700500D03*
X158258000Y-92139900D03*
X171974000Y-98934400D03*
X165966900Y-95899100D03*
%TO.N,~{RESET}*%
X208550000Y-117146200D03*
D70*
%TO.N,~{ADC_CS}*%
X210390999Y-118379499D03*
%TO.N,ADC_MOSI*%
X211201000Y-119570500D03*
D69*
%TO.N,ADC_MISO*%
X210696300Y-115190400D03*
%TO.N,~{ADC_DRDY}*%
X210582000Y-114174400D03*
%TO.N,ADC_START*%
X209261200Y-116422300D03*
%TO.N,ADC_SCK*%
X211102700Y-116206400D03*
%TO.N,USEL1#3*%
X159299400Y-120968900D03*
X159299400Y-128804800D03*
X154511500Y-83351500D03*
%TO.N,USEL20#3*%
X171770800Y-119190900D03*
X155159200Y-82386300D03*
%TO.N,USEL100#3*%
X156187900Y-83529300D03*
X162715700Y-110859700D03*
%TO.N,ISEL_LOW#4*%
X153038300Y-89790400D03*
X155108400Y-104878000D03*
X146891500Y-80735300D03*
%TO.N,Net-(ISEL10A_1-Pad11)*%
X115903500Y-100280600D03*
%TO.N,Net-(ISEL10A_1-Pad22)*%
X110518700Y-109208700D03*
X110518700Y-108408600D03*
X109705900Y-108408600D03*
X109705900Y-109208700D03*
X112093500Y-105081200D03*
X111293400Y-104281100D03*
X112093500Y-104281100D03*
X108905800Y-109208700D03*
X111293400Y-105081200D03*
X112893600Y-104281100D03*
X112893600Y-105081200D03*
X113693700Y-104281100D03*
X113693700Y-105081200D03*
X108905800Y-108408600D03*
%TO.N,Net-(ISEL10A_2-Pad12)*%
X173990000Y-88799800D03*
X173990000Y-87174200D03*
X173990000Y-89612600D03*
X173990000Y-87987000D03*
%TO.N,AIN1N*%
X121088100Y-126369400D03*
X120488200Y-132487800D03*
X121466100Y-119724300D03*
%TO.N,AIN4N*%
X159997900Y-87313900D03*
X165484300Y-88355300D03*
X163884100Y-87567900D03*
X159197800Y-85802600D03*
X159997900Y-86539200D03*
X165484300Y-89155400D03*
X159197800Y-86551900D03*
X159197800Y-88050500D03*
X163884100Y-89168100D03*
X164684200Y-88355300D03*
X159997900Y-85053300D03*
X164684200Y-87567900D03*
X163884100Y-88368000D03*
X163884100Y-89955500D03*
X165484300Y-89955500D03*
X159997900Y-88050500D03*
X159197800Y-87301200D03*
X165484300Y-87567900D03*
X159997900Y-85802600D03*
X164684200Y-89955500D03*
X164684200Y-89155400D03*
X159197800Y-85053300D03*
%TO.N,AIN4P*%
X85309200Y-110097700D03*
X85309200Y-108472100D03*
X85309200Y-109284900D03*
X86122000Y-110097700D03*
X86122000Y-109284900D03*
X86122000Y-108472100D03*
%TO.N,AIN2N*%
X114608100Y-115076100D03*
X114608100Y-114314100D03*
X109617000Y-115888900D03*
X115370100Y-114314100D03*
X109617000Y-115088800D03*
X110417100Y-114301400D03*
X110417100Y-115888900D03*
X110417100Y-115088800D03*
X115370100Y-115838100D03*
X109617000Y-114301400D03*
X115370100Y-115076100D03*
X114608100Y-115838100D03*
%TO.N,IN3N*%
X171681900Y-116943000D03*
X143449800Y-120410100D03*
X128501900Y-112891700D03*
X184432700Y-117730400D03*
%TO.N,AIN3P*%
X140224000Y-114504600D03*
%TD*%
D71*
%TO.N,AFE_CLK*%
X153780000Y-137293600D02*
X155056600Y-136017000D01*
X155056600Y-136017000D02*
X203263500Y-136017000D01*
X211102700Y-109945300D02*
X210096900Y-109945300D01*
X203263500Y-136017000D02*
X211810700Y-127469800D01*
X211810700Y-127469800D02*
X211810700Y-110655200D01*
X211810700Y-110655200D02*
X211102700Y-109947200D01*
X211102700Y-109947200D02*
X211102700Y-109945300D01*
D72*
%TO.N,Net-(IC1-DCDC_OUT)*%
X119789700Y-117222400D02*
X120144400Y-116867700D01*
X124056900Y-119914800D02*
X123841000Y-120130700D01*
X122521400Y-121768100D02*
X122341500Y-121768100D01*
X123841000Y-120448500D02*
X122521400Y-121768100D01*
X123841000Y-120130700D02*
X123841000Y-120448500D01*
X122596400Y-116867700D02*
X123103500Y-117374800D01*
X120144400Y-116867700D02*
X122596400Y-116867700D01*
X119789700Y-119216300D02*
X119789700Y-117222400D01*
X122341500Y-121768100D02*
X119789700Y-119216300D01*
X123103500Y-117374800D02*
X125542800Y-117374800D01*
X125542800Y-119914800D02*
X124056900Y-119914800D01*
%TO.N,Net-(IC1-DCDC_IN)*%
X138077700Y-118391700D02*
X137061700Y-117375700D01*
X137176000Y-121184800D02*
X138077700Y-120283100D01*
X137060800Y-117374800D02*
X137061700Y-117375700D01*
X134585200Y-121184800D02*
X137176000Y-121184800D01*
X138077700Y-120283100D02*
X138077700Y-118391700D01*
X134585200Y-117374800D02*
X137060800Y-117374800D01*
%TO.N,Net-(IC1-HLDO_OUT)*%
X119929400Y-123594800D02*
X122278900Y-123594800D01*
X123853700Y-122454800D02*
X122788700Y-123519800D01*
X125542800Y-122454800D02*
X123853700Y-122454800D01*
X122788700Y-123519800D02*
X122278900Y-123519800D01*
X121593100Y-123585100D02*
X122269200Y-123585100D01*
X122269200Y-123585100D02*
X122278900Y-123594800D01*
%TO.N,Net-(IC2-INP)*%
X127574800Y-107049700D02*
X126185800Y-107049700D01*
X124564900Y-110416100D02*
X124337200Y-110643800D01*
X124337200Y-110643800D02*
X122682800Y-110643800D01*
X124564900Y-108670600D02*
X124564900Y-110416100D01*
X126185800Y-107049700D02*
X124564900Y-108670600D01*
%TO.N,Net-(IC2-INN)*%
X122682800Y-112525900D02*
X122682800Y-112612300D01*
X127574800Y-108319700D02*
X126312800Y-108319700D01*
X125657100Y-108975400D02*
X125657100Y-111023900D01*
X122850400Y-112358300D02*
X122682800Y-112525900D01*
X126312800Y-108319700D02*
X125657100Y-108975400D01*
X125657100Y-111023900D02*
X124322700Y-112358300D01*
X124322700Y-112358300D02*
X122850400Y-112358300D01*
%TO.N,Net-(IC2-DCDC_OUT)*%
X126249300Y-103239700D02*
X127574800Y-103239700D01*
X124628400Y-100091000D02*
X122278000Y-100091000D01*
X124497600Y-104991400D02*
X126249300Y-103239700D01*
X125237100Y-100699700D02*
X124628400Y-100091000D01*
X123914400Y-104991400D02*
X124497600Y-104991400D01*
X121885200Y-102962200D02*
X123914400Y-104991400D01*
X122278000Y-100091000D02*
X121885200Y-100483800D01*
X127574800Y-100699700D02*
X125237100Y-100699700D01*
X121885200Y-100483800D02*
X121885200Y-102962200D01*
D73*
%TO.N,Net-(IC2-DCDC_HGND)*%
X120186400Y-108586400D02*
X121402600Y-108586400D01*
D72*
X127574800Y-109589700D02*
X126876300Y-109589700D01*
X118811800Y-111113700D02*
X117731000Y-111113700D01*
D73*
X121443700Y-108589400D02*
X121402600Y-108586400D01*
X120183400Y-108589400D02*
X120186400Y-108586400D01*
D72*
X126266700Y-112815500D02*
X125199900Y-113882300D01*
X121694700Y-113882300D02*
X120782800Y-112970400D01*
X118811800Y-111113700D02*
X119243600Y-111113700D01*
X126266700Y-110199300D02*
X126266700Y-112815500D01*
X120742200Y-112612300D02*
X119243600Y-111113700D01*
X120782800Y-112612300D02*
X120589800Y-112805300D01*
X117731000Y-111113700D02*
X117727700Y-111117000D01*
D73*
X122532900Y-108589400D02*
X121443700Y-108589400D01*
D72*
X120782800Y-112612300D02*
X120742200Y-112612300D01*
X126876300Y-109589700D02*
X126266700Y-110199300D01*
X125199900Y-113882300D02*
X121694700Y-113882300D01*
X120782800Y-112612300D02*
X120782800Y-112970400D01*
%TO.N,Net-(IC2-DCDC_IN)*%
X136617200Y-104509700D02*
X139220700Y-104509700D01*
X140224000Y-103506400D02*
X140224000Y-101437200D01*
X140224000Y-101437200D02*
X139246100Y-100459300D01*
X139005700Y-100699700D02*
X139246100Y-100459300D01*
X136617200Y-100699700D02*
X139005700Y-100699700D01*
X139220700Y-104509700D02*
X140224000Y-103506400D01*
D74*
%TO.N,Net-(IC8-AVDD)*%
X201303700Y-104961500D02*
X201303700Y-106001950D01*
D75*
X198275700Y-102084900D02*
X198275700Y-102719000D01*
D74*
X198803700Y-117241450D02*
X198803700Y-118383500D01*
X200303700Y-107401300D02*
X200307700Y-107405300D01*
D76*
X199241700Y-124002500D02*
X200830900Y-125591700D01*
D74*
X203361101Y-102904099D02*
X203361101Y-102277399D01*
X198803700Y-106001950D02*
X198803700Y-103931900D01*
X198303700Y-118698200D02*
X198313800Y-118708300D01*
X203361101Y-102904099D02*
X201303700Y-104961500D01*
D76*
X199136000Y-124002500D02*
X199241700Y-124002500D01*
D71*
X196840600Y-119292500D02*
X197265600Y-119292500D01*
D72*
X198250300Y-101879900D02*
X198365500Y-101995100D01*
D71*
X197303700Y-119831800D02*
X197030200Y-120105300D01*
D74*
X198250300Y-118708300D02*
X197030200Y-119928400D01*
X198313800Y-118708300D02*
X198250300Y-118708300D01*
X198803700Y-103931900D02*
X198365500Y-103493700D01*
D75*
X198365500Y-101995100D02*
X198275700Y-102084900D01*
D71*
X197265600Y-119292500D02*
X197303700Y-119254400D01*
D74*
X198303700Y-117241450D02*
X198303700Y-118698200D01*
D71*
X197303700Y-119781900D02*
X197303700Y-119831800D01*
D74*
X198803700Y-118383500D02*
X198478900Y-118708300D01*
D72*
X198365500Y-101995100D02*
X198365500Y-103493700D01*
D75*
X198323500Y-124002500D02*
X198374000Y-123952000D01*
D74*
X198478900Y-118708300D02*
X198313800Y-118708300D01*
X197303700Y-117241450D02*
X197303700Y-119254400D01*
X197303700Y-119254400D02*
X197303700Y-119781900D01*
X197030200Y-119928400D02*
X197030200Y-120105300D01*
X200303700Y-106001950D02*
X200303700Y-107401300D01*
X203361101Y-102277399D02*
X203390500Y-102248000D01*
D75*
X197612000Y-124002500D02*
X198323500Y-124002500D01*
D74*
%TO.N,/Voltage/current  ADC/AVSS*%
X195988800Y-103594400D02*
X195964300Y-103569900D01*
X197803700Y-117241450D02*
X197803700Y-115852900D01*
D71*
X199952100Y-100179900D02*
X200651500Y-100179900D01*
D74*
X201803700Y-106001950D02*
X201803700Y-107280900D01*
X195964300Y-103569900D02*
X195034200Y-103569900D01*
D71*
X200651500Y-100179900D02*
X200803000Y-100331400D01*
D74*
X200303700Y-120032200D02*
X200230600Y-120105300D01*
X200303700Y-117241450D02*
X200303700Y-119584600D01*
D71*
X203838300Y-117730400D02*
X203812900Y-117755800D01*
D74*
X195034200Y-103569900D02*
X194516500Y-103255400D01*
X196548500Y-103581700D02*
X195988800Y-103594400D01*
D71*
X200180700Y-120930800D02*
X200180700Y-121721200D01*
X204308200Y-117730400D02*
X203838300Y-117730400D01*
D74*
X199803700Y-103755500D02*
X200065500Y-103493700D01*
D76*
X205357600Y-129541400D02*
X205359000Y-129540000D01*
D75*
X197612000Y-125552500D02*
X198361000Y-125552500D01*
D74*
X199303700Y-106001950D02*
X199303700Y-104255500D01*
X201803700Y-107280900D02*
X201577700Y-107506900D01*
D75*
X198361000Y-125552500D02*
X198374000Y-125539500D01*
D74*
X200303700Y-119584600D02*
X200303700Y-120032200D01*
X197803700Y-115852900D02*
X197805800Y-115850800D01*
X199803700Y-106001950D02*
X199803700Y-103755500D01*
X200815700Y-103747700D02*
X200319500Y-103747700D01*
D71*
X200230600Y-120880900D02*
X200180700Y-120930800D01*
X203812900Y-117755800D02*
X203812900Y-117250650D01*
D74*
X199303700Y-115851500D02*
X199317100Y-115838100D01*
X199303700Y-117241450D02*
X199303700Y-115851500D01*
D71*
X201793600Y-100549800D02*
X201021400Y-100549800D01*
D72*
X203651700Y-100647500D02*
X202565000Y-100647500D01*
D74*
X199904300Y-119984000D02*
X200303700Y-119584600D01*
D75*
X198387000Y-125552500D02*
X198374000Y-125539500D01*
D74*
X200319500Y-103747700D02*
X200065500Y-103493700D01*
D76*
X204699400Y-129541400D02*
X205357600Y-129541400D01*
D74*
X199303700Y-104255500D02*
X200065500Y-103493700D01*
D71*
X200180700Y-121721200D02*
X199764600Y-122137300D01*
X200230600Y-120105300D02*
X200230600Y-120880900D01*
X201021400Y-100549800D02*
X200803000Y-100331400D01*
X203812900Y-117250650D02*
X203803700Y-117241450D01*
D75*
X199136000Y-125552500D02*
X198387000Y-125552500D01*
D74*
%TO.N,Net-(IC8-VCAP4)*%
X201971400Y-120044300D02*
X201971400Y-119368700D01*
X200803700Y-117241450D02*
X200803700Y-118201000D01*
X200803700Y-118201000D02*
X201971400Y-119368700D01*
D72*
%TO.N,Net-(IC8-VCAP3)*%
X201793600Y-102449800D02*
X201453200Y-102109400D01*
X200181600Y-102109400D02*
X201453200Y-102109400D01*
D74*
X201793600Y-103811200D02*
X200803700Y-104801100D01*
D72*
X201793600Y-102449800D02*
X201742800Y-102399000D01*
X199952100Y-101879900D02*
X200181600Y-102109400D01*
D74*
X201793600Y-102449800D02*
X201793600Y-103811200D01*
X200803700Y-106001950D02*
X200803700Y-104801100D01*
%TO.N,Net-(IC8-VCAP2)*%
X202803700Y-117241450D02*
X202803700Y-118397600D01*
X206289400Y-120044300D02*
X206241100Y-120044300D01*
X202987400Y-118581300D02*
X204778100Y-118581300D01*
X202803700Y-118397600D02*
X202987400Y-118581300D01*
X204778100Y-118581300D02*
X206241100Y-120044300D01*
%TO.N,Net-(IC8-VCAP1)*%
X201803700Y-117241450D02*
X201803700Y-118540600D01*
X203066600Y-119038500D02*
X202301600Y-119038500D01*
X201803700Y-118540600D02*
X202301600Y-119038500D01*
X203066600Y-119038500D02*
X204130400Y-120102300D01*
%TO.N,Net-(IC8-VREFP)*%
X197104300Y-121531600D02*
X197687600Y-121531600D01*
D71*
X201842200Y-96844100D02*
X201349100Y-97337200D01*
D74*
X199803700Y-118832200D02*
X198530600Y-120105300D01*
D71*
X203819250Y-96844100D02*
X201842200Y-96844100D01*
D72*
X203819250Y-97494100D02*
X201506000Y-97494100D01*
D74*
X198530600Y-120688600D02*
X197687600Y-121531600D01*
D72*
X201506000Y-97494100D02*
X201349100Y-97337200D01*
X201506000Y-97494100D02*
X201252700Y-97494100D01*
D74*
X199803700Y-117241450D02*
X199803700Y-118832200D01*
X196065900Y-122150000D02*
X196964600Y-122137300D01*
X196964600Y-122137300D02*
X197104300Y-121531600D01*
D72*
X201252700Y-97494100D02*
X200320400Y-98426400D01*
D74*
X198530600Y-120105300D02*
X198530600Y-120688600D01*
D76*
%TO.N,Net-(IC10-EN)*%
X194160900Y-126887100D02*
X194160900Y-126888000D01*
D72*
X195261600Y-126888000D02*
X196109300Y-127735700D01*
D71*
X196787500Y-129035700D02*
X196929500Y-128893700D01*
D76*
X192230500Y-126646700D02*
X193919600Y-126646700D01*
D71*
X196929500Y-127953900D02*
X196713600Y-127738000D01*
D72*
X194160900Y-126888000D02*
X195261600Y-126888000D01*
D71*
X196109300Y-129035700D02*
X196787500Y-129035700D01*
D76*
X193919600Y-126646700D02*
X194160900Y-126888000D01*
D71*
X196713600Y-127738000D02*
X196111600Y-127738000D01*
D77*
X194160900Y-126888000D02*
X193918700Y-126888000D01*
D71*
X196929500Y-128893700D02*
X196929500Y-127953900D01*
X196111600Y-127738000D02*
X196109300Y-127735700D01*
D77*
%TO.N,Net-(IC11-EN)*%
X195621400Y-132017900D02*
X193728200Y-132017900D01*
X193728200Y-132017900D02*
X193640200Y-132105900D01*
D76*
X192013700Y-132106800D02*
X193640200Y-132106800D01*
X193640200Y-132106800D02*
X193640200Y-132105900D01*
D71*
X195621400Y-132967900D02*
X194502200Y-132967900D01*
X194502200Y-132967900D02*
X193640200Y-132105900D01*
D76*
%TO.N,Net-(C38-Pad2)*%
X199248100Y-94537200D02*
X199190100Y-94479200D01*
X201349100Y-94537200D02*
X199248100Y-94537200D01*
D71*
%TO.N,Net-(D3-A)*%
X180279800Y-120010600D02*
X180285600Y-120016400D01*
X180234800Y-120067200D02*
X180285600Y-120016400D01*
X179886100Y-120067200D02*
X180234800Y-120067200D01*
X187821100Y-119030700D02*
X187821100Y-118731200D01*
X187569600Y-118982700D02*
X187569600Y-119965600D01*
X187821100Y-118731200D02*
X187569600Y-118982700D01*
%TO.N,Net-(D3-C)*%
X185921100Y-119030700D02*
X185921100Y-119328100D01*
X185921100Y-119328100D02*
X185905900Y-119343300D01*
X184191400Y-119343300D02*
X184178700Y-119330600D01*
X184178700Y-120009500D02*
X184185600Y-120016400D01*
X184178700Y-119330600D02*
X184178700Y-120009500D01*
X185905900Y-119343300D02*
X184191400Y-119343300D01*
D74*
%TO.N,Net-(IC6B-S)*%
X180787800Y-107110700D02*
X183152500Y-107110700D01*
D78*
X186782200Y-108281600D02*
X183543700Y-108281600D01*
X183543700Y-108281600D02*
X183543700Y-106719500D01*
D71*
X166551100Y-102503100D02*
X166551100Y-104268400D01*
D73*
X173599200Y-96419800D02*
X174641000Y-96419800D01*
X151082500Y-108917100D02*
X151082500Y-103620700D01*
D74*
X175352200Y-100382200D02*
X174272700Y-100382200D01*
D73*
X151082500Y-101677100D02*
X151082500Y-103620700D01*
D74*
X183152500Y-107110700D02*
X183543700Y-106719500D01*
D71*
X166551100Y-104268400D02*
X166538400Y-104281100D01*
D78*
%TO.N,Net-(D6-PadC)*%
X183543700Y-104319200D02*
X183543700Y-101449000D01*
D74*
X183343000Y-101248300D02*
X183543700Y-101449000D01*
D78*
X186782200Y-104319200D02*
X186782200Y-101449000D01*
X186782200Y-101449000D02*
X183543700Y-101449000D01*
D74*
X180800500Y-101248300D02*
X183343000Y-101248300D01*
D71*
%TO.N,Net-(D10-A)*%
X180285600Y-114377600D02*
X179873400Y-114377600D01*
X185938700Y-115469800D02*
X185946500Y-115477600D01*
X185207400Y-115469800D02*
X185938700Y-115469800D01*
%TO.N,Net-(D10-C)*%
X184185600Y-114377600D02*
X186746500Y-114377600D01*
X186746500Y-114377600D02*
X187846500Y-115477600D01*
D73*
%TO.N,Net-(ISEL1A_1B-COM)*%
X153622500Y-108917100D02*
X153622500Y-101677100D01*
D78*
X153686000Y-99213800D02*
X153622500Y-99277300D01*
X153622500Y-101677100D02*
X153622500Y-99277300D01*
X152873200Y-99213800D02*
X153686000Y-99213800D01*
D71*
%TO.N,/Isolated Ch#1\u002C Ch#2/DIAG#1*%
X135944100Y-119914800D02*
X136045700Y-120016400D01*
X143498100Y-96328400D02*
X143183100Y-96013400D01*
X134585200Y-119914800D02*
X135944100Y-119914800D01*
X143498100Y-97092900D02*
X143498100Y-96328400D01*
D72*
%TO.N,Net-(IC1-INP)*%
X124615700Y-132932300D02*
X124615700Y-132251700D01*
X124615700Y-132251700D02*
X124646300Y-132221100D01*
X119370600Y-135357600D02*
X117211600Y-135357600D01*
X122190400Y-135357600D02*
X124615700Y-132932300D01*
X126772800Y-123724800D02*
X125542800Y-123724800D01*
X125479300Y-132271900D02*
X127308100Y-130443100D01*
X124646300Y-132221100D02*
X124697100Y-132271900D01*
X127308100Y-124260100D02*
X126772800Y-123724800D01*
X127308100Y-130443100D02*
X127308100Y-124260100D01*
X124697100Y-132271900D02*
X125479300Y-132271900D01*
X119370600Y-135357600D02*
X122190400Y-135357600D01*
X117211600Y-135357600D02*
X117211200Y-135358000D01*
D71*
%TO.N,/Isolated Ch#1\u002C Ch#2/ISEL_S2_OUT*%
X130851400Y-86031200D02*
X125758700Y-80938500D01*
X130851400Y-86653500D02*
X130851400Y-86031200D01*
X123396500Y-80938500D02*
X125758700Y-80938500D01*
%TO.N,/Isolated Ch#1\u002C Ch#2/ISEL_R2_OUT*%
X125098300Y-79668500D02*
X132705600Y-87275800D01*
X123396500Y-79668500D02*
X125098300Y-79668500D01*
X132705600Y-88605800D02*
X132705600Y-87275800D01*
D77*
%TO.N,Net-(IC3-COM)*%
X121077400Y-73318500D02*
X120602500Y-73793400D01*
X123396500Y-73318500D02*
X121077400Y-73318500D01*
D71*
%TO.N,/Isolated Ch#1\u002C Ch#2/ISEL10_R#4*%
X142482800Y-76391900D02*
X143621100Y-75253600D01*
X133759700Y-74588500D02*
X135563100Y-76391900D01*
X135563100Y-76391900D02*
X142482800Y-76391900D01*
X132870700Y-74588500D02*
X133759700Y-74588500D01*
%TO.N,/Isolated Ch#1\u002C Ch#2/ISEL10_S#4*%
X144616400Y-76798300D02*
X146161100Y-75253600D01*
X132870700Y-75858500D02*
X134432800Y-75858500D01*
X134432800Y-75858500D02*
X135372600Y-76798300D01*
X135372600Y-76798300D02*
X144616400Y-76798300D01*
%TO.N,/Isolated Ch#1\u002C Ch#2/ISEL_R#4*%
X132870700Y-77128500D02*
X132946900Y-77204700D01*
X132946900Y-77204700D02*
X146750000Y-77204700D01*
X146750000Y-77204700D02*
X148701100Y-75253600D01*
%TO.N,/Isolated Ch#1\u002C Ch#2/ISEL_S#4*%
X132870700Y-78398500D02*
X134580500Y-78398500D01*
X148883600Y-77611100D02*
X151241100Y-75253600D01*
X135367900Y-77611100D02*
X148883600Y-77611100D01*
X134580500Y-78398500D02*
X135367900Y-77611100D01*
%TO.N,/Isolated Ch#1\u002C Ch#2/ISEL_R#2*%
X132870700Y-79668500D02*
X133885236Y-79668500D01*
X133885236Y-79668500D02*
X135536236Y-78017500D01*
X135536236Y-78017500D02*
X158637200Y-78017500D01*
X158637200Y-78017500D02*
X161401100Y-75253600D01*
%TO.N,/Isolated Ch#1\u002C Ch#2/ISEL_S#2*%
X132870700Y-80938500D02*
X133988300Y-80938500D01*
X160770800Y-78423900D02*
X163941100Y-75253600D01*
X134572500Y-79613000D02*
X135761600Y-78423900D01*
X135761600Y-78423900D02*
X160770800Y-78423900D01*
X133988300Y-80938500D02*
X134572500Y-80354300D01*
X134572500Y-80354300D02*
X134572500Y-79613000D01*
%TO.N,/Isolated Ch#1\u002C Ch#2/DIAG#2*%
X142459200Y-102454800D02*
X142446500Y-102467500D01*
X136617200Y-103239700D02*
X138153900Y-103239700D01*
X144120400Y-102467500D02*
X144211800Y-102376100D01*
X138153900Y-103239700D02*
X138179300Y-103214300D01*
X142446500Y-102467500D02*
X144120400Y-102467500D01*
%TO.N,Net-(IC4A-S)*%
X170729400Y-123991500D02*
X170069000Y-124651900D01*
X160288600Y-117221000D02*
X159321500Y-117221000D01*
X158494000Y-116393500D02*
X158494000Y-115101500D01*
D75*
X156847000Y-115101500D02*
X158494000Y-115101500D01*
D71*
X159321500Y-117221000D02*
X158494000Y-116393500D01*
X171770800Y-123991500D02*
X170729400Y-123991500D01*
X160290000Y-117222400D02*
X160288600Y-117221000D01*
D74*
%TO.N,Net-(IC4D-S)*%
X156022400Y-127128400D02*
X154981000Y-126087000D01*
X171770800Y-127801500D02*
X169141900Y-127801500D01*
X168468800Y-127128400D02*
X156022400Y-127128400D01*
X169141900Y-127801500D02*
X168468800Y-127128400D01*
D71*
%TO.N,Net-(IC6C-D)*%
X171618400Y-102604700D02*
X170970700Y-101957000D01*
X168402000Y-92900500D02*
X167929400Y-92900500D01*
X171618400Y-104281100D02*
X171618400Y-102604700D01*
D74*
%TO.N,Net-(IC7A--IN)*%
X180800500Y-103148300D02*
X178717700Y-103148300D01*
X178651700Y-103214300D02*
X178501800Y-103214300D01*
X178717700Y-103148300D02*
X178651700Y-103214300D01*
X178501800Y-103214300D02*
X176751700Y-104964400D01*
X176751700Y-105601900D02*
X176751700Y-104964400D01*
%TO.N,Net-(IC7A-+IN)*%
X178641500Y-105591700D02*
X178651700Y-105601900D01*
X180191400Y-105601900D02*
X180787800Y-105005500D01*
X178651700Y-105601900D02*
X180191400Y-105601900D01*
D71*
%TO.N,Net-(IC4B-S)*%
X175885600Y-123991500D02*
X175517300Y-123623200D01*
X167427000Y-117260100D02*
X167478200Y-117311300D01*
D75*
X167638000Y-115101500D02*
X167638000Y-117151500D01*
D71*
X177155600Y-123991500D02*
X175885600Y-123991500D01*
D75*
X167638000Y-117151500D02*
X167478200Y-117311300D01*
X165991000Y-115101500D02*
X167638000Y-115101500D01*
D71*
%TO.N,Net-(IC8-~{PWDN})*%
X207876900Y-119775100D02*
X207838800Y-119737000D01*
X207876900Y-120615800D02*
X207876900Y-119775100D01*
X207838800Y-120996800D02*
X208257900Y-120996800D01*
X207876900Y-120615800D02*
X208257900Y-120996800D01*
X205673450Y-114371700D02*
X206778800Y-114371700D01*
X206778800Y-114371700D02*
X207534000Y-115126900D01*
%TO.N,Net-(IC8-CLK)*%
X208196900Y-109945300D02*
X208196900Y-110874900D01*
X208196900Y-110874900D02*
X208359500Y-111037500D01*
X205673450Y-113371700D02*
X204361600Y-113371700D01*
X204361600Y-113371700D02*
X204346300Y-113387000D01*
%TO.N,Net-(IC8-CLKSEL)*%
X202303700Y-105091800D02*
X203012800Y-104382700D01*
X206152200Y-100585400D02*
X205578200Y-100585400D01*
X205006700Y-101156900D02*
X205006700Y-103239700D01*
X205578200Y-100585400D02*
X205006700Y-101156900D01*
X202303700Y-106001950D02*
X202303700Y-105091800D01*
X205006700Y-103239700D02*
X203863700Y-104382700D01*
X203012800Y-104382700D02*
X203863700Y-104382700D01*
D74*
%TO.N,Net-(X1-Pin_23)*%
X146195500Y-97118300D02*
X145164300Y-97118300D01*
D72*
%TO.N,Net-(OK1-S2)*%
X124595900Y-129630700D02*
X121605800Y-129630700D01*
X124646300Y-129681100D02*
X124595900Y-129630700D01*
D71*
%TO.N,Net-(OK1-A)*%
X134186300Y-132221100D02*
X134747600Y-131659800D01*
X134747600Y-131659800D02*
X136947400Y-131659800D01*
D74*
%TO.N,Net-(OK2-S1)*%
X146350600Y-125507600D02*
X146350600Y-123089800D01*
X146350600Y-123089800D02*
X146878800Y-123089800D01*
X146878800Y-123089800D02*
X146891500Y-123077100D01*
X146930000Y-126087000D02*
X146350600Y-125507600D01*
%TO.N,Net-(OK2-A)*%
X155890600Y-123089800D02*
X158115800Y-123089800D01*
X158115800Y-123089800D02*
X158296100Y-122909500D01*
D73*
%TO.N,Net-(Q1-D)*%
X174133000Y-99366200D02*
X177511200Y-99366200D01*
%TO.N,Net-(Q2-S)*%
X166868600Y-94946600D02*
X167846500Y-95924500D01*
X171021500Y-100382200D02*
X170424600Y-99785300D01*
X170424600Y-99785300D02*
X170424600Y-96750400D01*
X170424600Y-96750400D02*
X170755200Y-96419800D01*
X170755200Y-96419800D02*
X170259900Y-95924500D01*
X166868600Y-94946600D02*
X166868600Y-93947600D01*
X166868600Y-93947600D02*
X166735600Y-93814600D01*
X167846500Y-95924500D02*
X170259900Y-95924500D01*
X171974000Y-100382200D02*
X171021500Y-100382200D01*
D74*
%TO.N,Net-(X1-Pin_25)*%
X138541100Y-134753600D02*
X138541100Y-134478000D01*
D75*
X141861500Y-132270500D02*
X141023100Y-132270500D01*
X141023100Y-132270500D02*
X138540000Y-134753600D01*
D71*
%TO.N,/Isolated Ch#1\u002C Ch#2/USEL#1*%
X136947400Y-128804800D02*
X136947400Y-129759800D01*
D74*
%TO.N,Net-(X1-Pin_24)*%
X162652200Y-102147500D02*
X163746900Y-101918900D01*
X163746900Y-101918900D02*
X163757100Y-101929100D01*
D75*
%TO.N,Net-(R14-Pad1)*%
X147680900Y-115101500D02*
X149350000Y-115101500D01*
%TO.N,Net-(R17-Pad1)*%
X161419000Y-115101500D02*
X163066000Y-115101500D01*
D74*
%TO.N,Net-(X1-Pin_26)*%
X140555600Y-133477000D02*
X144711000Y-133477000D01*
X139843000Y-134189600D02*
X140555600Y-133477000D01*
X138541100Y-137293600D02*
X139843000Y-135991700D01*
X144711000Y-133477000D02*
X145928800Y-132259200D01*
X139843000Y-135991700D02*
X139843000Y-134189600D01*
D71*
%TO.N,Net-(JP8-PadCOM)*%
X208054700Y-100587900D02*
X208054700Y-102566600D01*
X208052200Y-100585400D02*
X208054700Y-100587900D01*
D78*
%TO.N,Net-(R29-Pad1)*%
X170665900Y-88723600D02*
X170348400Y-89041100D01*
X170742100Y-92901900D02*
X171935900Y-92901900D01*
X172335600Y-92914600D02*
X171948600Y-92914600D01*
X170348400Y-92508200D02*
X170742100Y-92901900D01*
X170348400Y-89041100D02*
X170348400Y-92508200D01*
X171961300Y-88723600D02*
X170665900Y-88723600D01*
X171935900Y-92901900D02*
X171948600Y-92914600D01*
D77*
%TO.N,GND*%
X132870700Y-72658100D02*
X132870700Y-73318500D01*
D72*
X171770800Y-126531500D02*
X170869100Y-126531500D01*
D77*
X161369500Y-124334400D02*
X164392100Y-124334400D01*
D72*
X196109300Y-128385700D02*
X195100700Y-128385700D01*
D75*
X177155600Y-130341500D02*
X177966500Y-130341500D01*
D71*
X195037200Y-119812300D02*
X195330200Y-120105300D01*
D75*
X172089600Y-107764100D02*
X172888400Y-108562900D01*
D71*
X178857400Y-110328800D02*
X176764400Y-110328800D01*
D75*
X169078400Y-109665900D02*
X169078400Y-107786200D01*
D71*
X169078400Y-109665900D02*
X169078400Y-110707300D01*
D72*
X202936600Y-77023900D02*
X202936600Y-77724000D01*
D74*
X182181500Y-125730000D02*
X182181500Y-125666500D01*
D72*
X136617200Y-101969700D02*
X139056500Y-101969700D01*
X198250300Y-100179900D02*
X197412100Y-100026600D01*
D78*
X180213400Y-92206700D02*
X180622700Y-91797400D01*
D72*
X194516500Y-130595500D02*
X195149000Y-130595500D01*
D75*
X168389700Y-123673600D02*
X169357800Y-122705500D01*
X163998400Y-109665900D02*
X163998400Y-108480100D01*
D76*
X193829800Y-130595500D02*
X194516500Y-130595500D01*
D75*
X172888400Y-108562900D02*
X172888400Y-109665900D01*
X163998400Y-108480100D02*
X164714400Y-107764100D01*
D74*
X182181500Y-125666500D02*
X182816500Y-125031500D01*
D71*
X195037200Y-119343300D02*
X195037200Y-119812300D01*
D78*
X186782200Y-90679400D02*
X183543700Y-90679400D01*
D75*
X165052900Y-123673600D02*
X167109900Y-123673600D01*
D72*
X170869100Y-126531500D02*
X170411900Y-126074300D01*
D71*
X184266700Y-112396400D02*
X185055000Y-112396400D01*
D78*
X178362100Y-92206700D02*
X180213400Y-92206700D01*
D72*
X194352300Y-128385700D02*
X195100700Y-128385700D01*
X136398000Y-118644800D02*
X134585200Y-118644800D01*
X195621400Y-131067900D02*
X195149000Y-130595500D01*
X139056500Y-101969700D02*
X139246100Y-102159300D01*
D74*
X155890600Y-119541300D02*
X155883100Y-119533800D01*
D71*
X175696000Y-107595800D02*
X174869600Y-107595800D01*
D76*
X201956200Y-131967100D02*
X202580992Y-131967100D01*
D72*
X139246100Y-102159300D02*
X139246100Y-103100000D01*
X194160900Y-128588000D02*
X194352300Y-128385700D01*
D74*
X196548500Y-101881700D02*
X196548500Y-101017200D01*
D75*
X169100500Y-107764100D02*
X172089600Y-107764100D01*
D78*
X183543700Y-90679400D02*
X181740700Y-90679400D01*
D76*
X202580992Y-131967100D02*
X202580996Y-131967104D01*
D75*
X164714400Y-107764100D02*
X169100500Y-107764100D01*
X169078400Y-107786200D02*
X169100500Y-107764100D01*
D72*
X175034700Y-105627300D02*
X175047400Y-105640000D01*
D75*
X164392100Y-124334400D02*
X165052900Y-123673600D01*
D71*
X180022500Y-121602500D02*
X180022500Y-122027200D01*
D72*
X175034700Y-104966000D02*
X175034700Y-105627300D01*
D78*
X181740700Y-90679400D02*
X180622700Y-91797400D01*
D75*
X177966500Y-130341500D02*
X178244500Y-130619500D01*
D71*
X180022500Y-122027200D02*
X179721900Y-122327800D01*
X134186300Y-129681100D02*
X135486900Y-129681100D01*
X185055000Y-112396400D02*
X185067700Y-112383700D01*
X174869600Y-107595800D02*
X174844200Y-107570400D01*
X176764400Y-110328800D02*
X176761900Y-110326300D01*
D74*
X155890600Y-120549800D02*
X155890600Y-119541300D01*
D75*
X167109900Y-123673600D02*
X168389700Y-123673600D01*
D76*
X193640200Y-130405900D02*
X193829800Y-130595500D01*
D72*
%TO.N,+15V_ISO*%
X167808400Y-104281100D02*
X167808400Y-105932100D01*
X175225200Y-125261500D02*
X177155600Y-125261500D01*
%TO.N,-15V_ISO*%
X171770800Y-125261500D02*
X173383700Y-125261500D01*
X167808400Y-108522900D02*
X167808400Y-109665900D01*
%TO.N,+3V3_ISO*%
X139401500Y-105779700D02*
X140084300Y-106462500D01*
D71*
X208257900Y-122896800D02*
X207800700Y-123354000D01*
D74*
X203303700Y-106001950D02*
X203303700Y-104968100D01*
D71*
X141598100Y-97092900D02*
X141598100Y-97255500D01*
D76*
X143486300Y-105410000D02*
X147320002Y-105410000D01*
D71*
X142433800Y-104380200D02*
X142433800Y-106462500D01*
X208461100Y-107856400D02*
X208461100Y-107303700D01*
X142446500Y-104367500D02*
X142433800Y-104380200D01*
X141598100Y-97255500D02*
X141163800Y-97689800D01*
D74*
X206154700Y-102630100D02*
X205844900Y-102630100D01*
X205673450Y-107871700D02*
X208445800Y-107871700D01*
X205490200Y-104827200D02*
X205579100Y-104408100D01*
D76*
X142433800Y-106462500D02*
X143486300Y-105410000D01*
D71*
X207800700Y-123354000D02*
X207800700Y-123902600D01*
D74*
X205844900Y-102630100D02*
X205844900Y-104408100D01*
X205844900Y-104408100D02*
X205579100Y-104408100D01*
D72*
X136617200Y-105779700D02*
X139401500Y-105779700D01*
D71*
X142446500Y-104367500D02*
X142151900Y-104367500D01*
D72*
X137115500Y-122454800D02*
X137544300Y-122883600D01*
D74*
X203303700Y-104968100D02*
X203444600Y-104827200D01*
D72*
X134585200Y-122454800D02*
X137115500Y-122454800D01*
D74*
X205400400Y-105309800D02*
X205400400Y-104827200D01*
X208445800Y-107871700D02*
X208665200Y-108091100D01*
D71*
X141163800Y-97689800D02*
X141163800Y-103379400D01*
D73*
X139893800Y-122883600D02*
X139893800Y-121756300D01*
D74*
X205400400Y-104827200D02*
X205490200Y-104827200D01*
D71*
X208445800Y-107871700D02*
X208461100Y-107856400D01*
D74*
X206154700Y-102566600D02*
X206154700Y-102630100D01*
D71*
X141163800Y-103379400D02*
X142151900Y-104367500D01*
D72*
X142433800Y-106462500D02*
X140084300Y-106462500D01*
D74*
X203444600Y-104827200D02*
X205400400Y-104827200D01*
D72*
X137544300Y-122883600D02*
X139893800Y-122883600D01*
%TO.N,+5V_ISO*%
X210143400Y-98144100D02*
X210645500Y-97642000D01*
X161191700Y-101626300D02*
X161242500Y-101677100D01*
D73*
X161242500Y-100966400D02*
X161242500Y-101677100D01*
D72*
X169078400Y-100915600D02*
X169078400Y-104281100D01*
X191570100Y-97105600D02*
X191570100Y-95576900D01*
D73*
X192230500Y-128346700D02*
X192230500Y-128474600D01*
D71*
X175707800Y-128106300D02*
X175707800Y-126747400D01*
D77*
X132692900Y-92343100D02*
X132705600Y-92355800D01*
D73*
X148542500Y-101677100D02*
X148542500Y-100941000D01*
X148567900Y-100915600D02*
X147780500Y-100915600D01*
X148542500Y-100941000D02*
X148567900Y-100915600D01*
D72*
X202936600Y-84210400D02*
X202936600Y-79823900D01*
D71*
X177155600Y-126531500D02*
X177574700Y-126531500D01*
D77*
X129429000Y-92343100D02*
X132692900Y-92343100D01*
X120602500Y-83516600D02*
X129429000Y-92343100D01*
D72*
X202936600Y-79823900D02*
X202933600Y-79820900D01*
D71*
X208276950Y-97494100D02*
X210497600Y-97494100D01*
D73*
X161191700Y-100915600D02*
X161242500Y-100966400D01*
D71*
X175707800Y-126747400D02*
X175923700Y-126531500D01*
D72*
X202933600Y-79820900D02*
X198758300Y-79820900D01*
D71*
X177155600Y-126531500D02*
X175923700Y-126531500D01*
D77*
X120602500Y-77593400D02*
X120602500Y-83516600D01*
D72*
X208276950Y-98144100D02*
X210143400Y-98144100D01*
X191570100Y-95576900D02*
X202936600Y-84210400D01*
D71*
X210497600Y-97494100D02*
X210645500Y-97642000D01*
D73*
X192230500Y-128474600D02*
X191570100Y-129135000D01*
X157661100Y-100915600D02*
X161191700Y-100915600D01*
X210645500Y-97642000D02*
X210645500Y-96901000D01*
D72*
%TO.N,+2V5_ISO*%
X181421900Y-124638300D02*
X181422800Y-124639200D01*
D76*
X201499000Y-127600800D02*
X202730900Y-126368900D01*
X202730900Y-125591700D02*
X202730900Y-126368900D01*
D74*
X182235600Y-121514100D02*
X181421900Y-122327800D01*
D72*
X181421900Y-122925600D02*
X181421900Y-124638300D01*
D73*
X175034700Y-103266000D02*
X175034700Y-102566600D01*
D76*
X198359300Y-127735700D02*
X200655400Y-127735700D01*
X200790300Y-127600800D02*
X201499000Y-127600800D01*
X196345300Y-126937900D02*
X195215000Y-125807600D01*
D74*
X182235600Y-120016400D02*
X182235600Y-121514100D01*
D76*
X200655400Y-127735700D02*
X200790300Y-127600800D01*
D73*
X175034700Y-102566600D02*
X175441100Y-102160200D01*
D72*
X176751700Y-103214300D02*
X175086400Y-103214300D01*
D76*
X196980300Y-126937900D02*
X196345300Y-126937900D01*
X198359300Y-127735700D02*
X197778100Y-127735700D01*
D72*
X175086400Y-103214300D02*
X175034700Y-103266000D01*
D76*
X197778100Y-127735700D02*
X196980300Y-126937900D01*
D74*
X182816500Y-122095000D02*
X182235600Y-121514100D01*
X182816500Y-123091700D02*
X182816500Y-122095000D01*
D72*
X181421900Y-122327800D02*
X181421900Y-122925600D01*
D74*
%TO.N,-2V5_ISO*%
X182527700Y-112435400D02*
X182566700Y-112396400D01*
D73*
X188801500Y-132805300D02*
X190147700Y-134151500D01*
X210645500Y-94842000D02*
X210645500Y-94286200D01*
D76*
X198009000Y-131067900D02*
X199157000Y-131067900D01*
D72*
X182565800Y-111558200D02*
X182565800Y-112395500D01*
D71*
X180825900Y-110328800D02*
X181336400Y-110328800D01*
D76*
X200056200Y-131482000D02*
X200056200Y-131967100D01*
D73*
X177790600Y-107990400D02*
X177790600Y-108383200D01*
X210645500Y-94286200D02*
X210239100Y-93879800D01*
D72*
X177701700Y-107290100D02*
X177396000Y-107595800D01*
D71*
X182235600Y-114377600D02*
X182235600Y-112727500D01*
D76*
X201985500Y-130619500D02*
X200918700Y-130619500D01*
D72*
X177701700Y-105601900D02*
X177701700Y-107290100D01*
D71*
X182235600Y-112727500D02*
X182566700Y-112396400D01*
D76*
X199157000Y-131067900D02*
X200056200Y-131967100D01*
D73*
X188801500Y-130976500D02*
X188801500Y-132805300D01*
X177396000Y-107595800D02*
X177790600Y-107990400D01*
D72*
X182565800Y-112395500D02*
X182566700Y-112396400D01*
D76*
X200918700Y-130619500D02*
X200056200Y-131482000D01*
X202799400Y-129541400D02*
X202822700Y-129782300D01*
D73*
X200056200Y-131967100D02*
X200056200Y-133361600D01*
X200056200Y-133361600D02*
X199266300Y-134151500D01*
D76*
X202822700Y-129782300D02*
X201985500Y-130619500D01*
D71*
X181336400Y-110328800D02*
X182565800Y-111558200D01*
D73*
X199266300Y-134151500D02*
X190147700Y-134151500D01*
D76*
%TO.N,-5V_ISO*%
X190313700Y-132106800D02*
X190313700Y-131458200D01*
X190313700Y-131458200D02*
X190554100Y-131217800D01*
D71*
%TO.N,IN1P*%
X142167100Y-123991500D02*
X142395700Y-124220100D01*
X185808200Y-126548300D02*
X188404500Y-123952000D01*
X180106100Y-126548300D02*
X185808200Y-126548300D01*
X142240000Y-124064400D02*
X142240000Y-121920000D01*
X180051200Y-126493400D02*
X180106100Y-126548300D01*
X134585200Y-123724800D02*
X135575800Y-123724800D01*
X142395700Y-124220100D02*
X142240000Y-124064400D01*
X188404500Y-123952000D02*
X188404500Y-122364500D01*
X135842500Y-123991500D02*
X135575800Y-123724800D01*
X194433950Y-116335050D02*
X194433950Y-115371700D01*
X188404500Y-122364500D02*
X194433950Y-116335050D01*
X135842500Y-123991500D02*
X142167100Y-123991500D01*
%TO.N,IN1N*%
X142383000Y-125236100D02*
X142240000Y-125379100D01*
X195608700Y-115025300D02*
X195608700Y-115735036D01*
X136464800Y-124397900D02*
X141544800Y-124397900D01*
X188865000Y-122478736D02*
X188865000Y-124126500D01*
X195455100Y-114871700D02*
X195608700Y-115025300D01*
X188865000Y-124126500D02*
X185482100Y-127509400D01*
X194433950Y-114871700D02*
X195455100Y-114871700D01*
X142240000Y-125379100D02*
X142240000Y-129540000D01*
X134585200Y-124994800D02*
X135867900Y-124994800D01*
X185482100Y-127509400D02*
X180063900Y-127509400D01*
X195608700Y-115735036D02*
X188865000Y-122478736D01*
X141544800Y-124397900D02*
X142383000Y-125236100D01*
X135867900Y-124994800D02*
X136464800Y-124397900D01*
%TO.N,IN2P*%
X193379400Y-114371700D02*
X192624200Y-115126900D01*
D74*
X138065000Y-107049700D02*
X136629900Y-107062400D01*
X136629900Y-107062400D02*
X136617200Y-107049700D01*
D71*
X194433950Y-114371700D02*
X193379400Y-114371700D01*
%TO.N,IN2N*%
X192863400Y-113871700D02*
X192636900Y-114098200D01*
D74*
X138534900Y-108319700D02*
X138814300Y-108040300D01*
X136617200Y-108319700D02*
X138534900Y-108319700D01*
D71*
X194433950Y-113871700D02*
X192863400Y-113871700D01*
%TO.N,IN3P*%
X174361600Y-129058800D02*
X174361600Y-122797700D01*
X186756800Y-121222900D02*
X186820300Y-121159400D01*
X180935600Y-120016400D02*
X180935600Y-118602100D01*
X186871100Y-121230700D02*
X186764600Y-121230700D01*
X184801000Y-118530500D02*
X183594500Y-118530500D01*
D75*
X171770800Y-122721500D02*
X174437800Y-122721500D01*
D71*
X183535600Y-118589400D02*
X183594500Y-118530500D01*
X148225000Y-131827400D02*
X173371000Y-131827400D01*
X147828800Y-132223600D02*
X148225000Y-131827400D01*
X192156900Y-113371700D02*
X187633100Y-117895500D01*
X184801000Y-118530500D02*
X185436000Y-117895500D01*
X187633100Y-117895500D02*
X186820300Y-117895500D01*
X174361600Y-130836800D02*
X174361600Y-129058800D01*
X147828800Y-132259200D02*
X147828800Y-132223600D01*
X173371000Y-131827400D02*
X174361600Y-130836800D01*
X171770800Y-129071500D02*
X174348900Y-129071500D01*
X194433950Y-113371700D02*
X192156900Y-113371700D01*
X174348900Y-129071500D02*
X174361600Y-129058800D01*
X186820300Y-121159400D02*
X186820300Y-117895500D01*
X176114200Y-122721500D02*
X177155600Y-122721500D01*
X180935600Y-118602100D02*
X180864000Y-118530500D01*
X183535600Y-120016400D02*
X183535600Y-118589400D01*
X186764600Y-121230700D02*
X186756800Y-121222900D01*
X186820300Y-117895500D02*
X185436000Y-117895500D01*
X174361600Y-122797700D02*
X174437800Y-122721500D01*
D75*
X174437800Y-122721500D02*
X176114200Y-122721500D01*
D71*
%TO.N,IN4N*%
X188949900Y-111871700D02*
X188191900Y-111113700D01*
X174729900Y-109221400D02*
X173561500Y-108053000D01*
X169040300Y-94768800D02*
X169040300Y-89879300D01*
X188191900Y-111113700D02*
X183658000Y-111113700D01*
X194433950Y-111871700D02*
X188949900Y-111871700D01*
X183658000Y-111113700D02*
X181765700Y-109221400D01*
X167135300Y-88723600D02*
X167884600Y-88723600D01*
X148095500Y-97118300D02*
X150295500Y-97118300D01*
X150295500Y-97118300D02*
X152645000Y-94768800D01*
X181765700Y-109221400D02*
X174729900Y-109221400D01*
X168670100Y-88723600D02*
X167942100Y-88723600D01*
X162664900Y-94768800D02*
X152645000Y-94768800D01*
X169040300Y-89879300D02*
X169037000Y-89876000D01*
X169037000Y-89876000D02*
X169037000Y-89090500D01*
X169037000Y-89090500D02*
X168670100Y-88723600D01*
X173561500Y-108053000D02*
X173561500Y-106554400D01*
%TO.N,HI_CLAMP*%
X184641500Y-122610500D02*
X184641500Y-123091700D01*
X182885600Y-114377600D02*
X182885600Y-120016400D01*
D74*
X182885600Y-120016400D02*
X182921400Y-120052200D01*
D71*
X184641500Y-123091700D02*
X184641500Y-125031500D01*
X182885600Y-120854600D02*
X184641500Y-122610500D01*
X182885600Y-120016400D02*
X182885600Y-120854600D01*
%TO.N,LO_CLAMP*%
X181585600Y-114377600D02*
X181585600Y-112988500D01*
X181585600Y-114377600D02*
X181585600Y-120016400D01*
X181585600Y-112988500D02*
X180825900Y-112228800D01*
X180825900Y-112228800D02*
X178857400Y-112228800D01*
%TO.N,ISEL10A_S4_OUT*%
X123396500Y-75858500D02*
X128095500Y-75858500D01*
X143348200Y-79846300D02*
X143957800Y-79236700D01*
X128095500Y-75858500D02*
X128603500Y-75350500D01*
X143957800Y-79236700D02*
X165916100Y-79236700D01*
X165916100Y-79236700D02*
X166373300Y-78779500D01*
%TO.N,ISEL10A_R4_OUT*%
X123396500Y-74588500D02*
X129352800Y-74588500D01*
X142878300Y-78830300D02*
X142573500Y-79135100D01*
X129352800Y-74588500D02*
X129403600Y-74537700D01*
X142878300Y-78830300D02*
X164874700Y-78830300D01*
X164874700Y-78830300D02*
X165751000Y-77954000D01*
%TO.N,ISEL_S4_OUT*%
X131232400Y-85218400D02*
X139652500Y-85218400D01*
X123396500Y-78398500D02*
X124412500Y-78398500D01*
X145913600Y-91479500D02*
X145913600Y-92152600D01*
X155044900Y-106325800D02*
X159680400Y-106325800D01*
X148313900Y-94565600D02*
X148313900Y-94552900D01*
X159680400Y-106325800D02*
X161242500Y-107887900D01*
X161242500Y-108917100D02*
X161242500Y-107887900D01*
X139652500Y-85218400D02*
X145913600Y-91479500D01*
X148313900Y-94552900D02*
X145913600Y-92152600D01*
X124412500Y-78398500D02*
X131232400Y-85218400D01*
%TO.N,ISEL_R4_OUT*%
X139830300Y-84812000D02*
X131410200Y-84812000D01*
X146789900Y-92000200D02*
X146789900Y-91771600D01*
X123409200Y-77115800D02*
X123396500Y-77128500D01*
X125517400Y-78246100D02*
X124387100Y-77115800D01*
X148542500Y-104355900D02*
X148517100Y-104330500D01*
X148542500Y-108917100D02*
X148542500Y-104355900D01*
X131410200Y-84812000D02*
X125517400Y-78919200D01*
X124387100Y-77115800D02*
X123409200Y-77115800D01*
X146789900Y-91771600D02*
X139830300Y-84812000D01*
X148543000Y-108916600D02*
X148542500Y-108917100D01*
X125517400Y-78919200D02*
X125517400Y-78246100D01*
%TO.N,IN4P*%
X165268400Y-100826700D02*
X164455600Y-100013900D01*
D74*
X170348400Y-104281100D02*
X170348400Y-106719500D01*
D71*
X170716700Y-106719500D02*
X170723050Y-106725850D01*
D74*
X165268400Y-105767000D02*
X166233600Y-106732200D01*
D71*
X183543700Y-113412400D02*
X183543700Y-114369500D01*
X183772300Y-113183800D02*
X183543700Y-113412400D01*
D74*
X170335700Y-106732200D02*
X170348400Y-106719500D01*
X166233600Y-106732200D02*
X170335700Y-106732200D01*
D71*
X183543700Y-114369500D02*
X183535600Y-114377600D01*
X187802400Y-112371700D02*
X186896500Y-113277600D01*
X163772300Y-100013900D02*
X163757100Y-100029100D01*
X165268400Y-104281100D02*
X165268400Y-100826700D01*
X180935600Y-115703000D02*
X180864000Y-115774600D01*
D74*
X165268400Y-104281100D02*
X165268400Y-105767000D01*
D71*
X183645300Y-115774600D02*
X183535600Y-115664900D01*
X183772300Y-113183800D02*
X186802700Y-113183800D01*
X180935600Y-115703000D02*
X180935600Y-114377600D01*
X194433950Y-112371700D02*
X187802400Y-112371700D01*
X170348400Y-106719500D02*
X170716700Y-106719500D01*
X186802700Y-113183800D02*
X186896500Y-113277600D01*
X164455600Y-100013900D02*
X163772300Y-100013900D01*
X183535600Y-115664900D02*
X183535600Y-114377600D01*
%TO.N,ISEL_MID#4*%
X173218600Y-101144200D02*
X172888400Y-101474400D01*
X173218600Y-100003100D02*
X173218600Y-101144200D01*
X172888400Y-101474400D02*
X172888400Y-104281100D01*
D74*
X171974000Y-98350200D02*
X175352200Y-98350200D01*
D71*
X146091400Y-83872200D02*
X146091400Y-81700500D01*
D74*
X175504600Y-98502600D02*
X175352200Y-98350200D01*
D71*
X171974000Y-98350200D02*
X171974000Y-98934400D01*
X171974000Y-98934400D02*
X172149900Y-98934400D01*
X172149900Y-98934400D02*
X173218600Y-100003100D01*
X154359100Y-92139900D02*
X146091400Y-83872200D01*
X158258000Y-92139900D02*
X154359100Y-92139900D01*
%TO.N,~{RESET}*%
X205673450Y-113871700D02*
X207288328Y-113871700D01*
X207288328Y-113871700D02*
X208245200Y-114828572D01*
X208245200Y-116904900D02*
X208550000Y-117146200D01*
X208245200Y-114828572D02*
X208245200Y-116904900D01*
%TO.N,~{ADC_CS}*%
X205673450Y-112371700D02*
X206937800Y-112371700D01*
X210455000Y-116612800D02*
X210455000Y-118416200D01*
X209058000Y-115215800D02*
X210455000Y-116612800D01*
X206937800Y-112371700D02*
X209058000Y-114491900D01*
X209058000Y-114491900D02*
X209058000Y-115215800D01*
%TO.N,ADC_MOSI*%
X206822800Y-116447700D02*
X209959700Y-119584600D01*
X206681900Y-114871700D02*
X206822800Y-115012600D01*
X206822800Y-115012600D02*
X206822800Y-116447700D01*
X205673450Y-114871700D02*
X206681900Y-114871700D01*
X211305900Y-119584600D02*
X209959700Y-119584600D01*
%TO.N,ADC_MISO*%
X206810100Y-110542200D02*
X206810100Y-111078836D01*
X206810100Y-111078836D02*
X209870800Y-114139536D01*
X209870800Y-114139536D02*
X209870800Y-114466500D01*
X206639600Y-110371700D02*
X206810100Y-110542200D01*
X209870800Y-114466500D02*
X210594700Y-115190400D01*
X205673450Y-110371700D02*
X206639600Y-110371700D01*
X210594700Y-115190400D02*
X210696300Y-115190400D01*
%TO.N,~{ADC_DRDY}*%
X207242100Y-108942200D02*
X206671600Y-108371700D01*
X206671600Y-108371700D02*
X205673450Y-108371700D01*
X210582000Y-114174400D02*
X210480400Y-114174400D01*
X207242100Y-110936100D02*
X207242100Y-108942200D01*
X210480400Y-114174400D02*
X207242100Y-110936100D01*
%TO.N,ADC_START*%
X206863064Y-112871700D02*
X208651600Y-114660236D01*
X208651600Y-115812700D02*
X209261200Y-116422300D01*
X205673450Y-112871700D02*
X206863064Y-112871700D01*
X208651600Y-114660236D02*
X208651600Y-115812700D01*
%TO.N,ADC_SCK*%
X210683600Y-116206400D02*
X211102700Y-116206400D01*
X205673450Y-111871700D02*
X207012536Y-111871700D01*
X209464400Y-114987200D02*
X210683600Y-116206400D01*
X208421600Y-113271300D02*
X209464400Y-114314100D01*
X209464400Y-114314100D02*
X209464400Y-114987200D01*
X208412136Y-113271300D02*
X208421600Y-113271300D01*
X207012536Y-111871700D02*
X208412136Y-113271300D01*
%TO.N,USEL1#3*%
X159299400Y-128804800D02*
X160836100Y-130341500D01*
X158336700Y-120968900D02*
X159299400Y-120968900D01*
X158296100Y-121009500D02*
X158336700Y-120968900D01*
X160836100Y-130341500D02*
X171770800Y-130341500D01*
%TO.N,USEL20#3*%
X171770800Y-121451500D02*
X171770800Y-119190900D01*
%TO.N,USEL100#3*%
X177155600Y-121451500D02*
X177155600Y-114720500D01*
X174107600Y-111672500D02*
X163528500Y-111672500D01*
X163528500Y-111672500D02*
X162715700Y-110859700D01*
X177155600Y-114720500D02*
X174107600Y-111672500D01*
%TO.N,ISEL_LOW#4*%
X163998400Y-104281100D02*
X155705300Y-104281100D01*
X146891500Y-84090000D02*
X146891500Y-80735300D01*
X155705300Y-104281100D02*
X155108400Y-104878000D01*
X163998400Y-104281100D02*
X163998400Y-104522400D01*
X153038300Y-89790400D02*
X152591900Y-89790400D01*
X152591900Y-89790400D02*
X146891500Y-84090000D01*
D74*
%TO.N,Net-(ISEL10A_1-Pad11)*%
X115443000Y-100741100D02*
X115443000Y-109988700D01*
X115903500Y-100280600D02*
X115443000Y-100741100D01*
X115443000Y-109988700D02*
X115571300Y-110117000D01*
%TO.N,Net-(ISEL10A_1-Pad12)*%
X114341400Y-110067600D02*
X113919000Y-110490000D01*
X114938300Y-98613100D02*
X114938300Y-109462700D01*
X114938300Y-109462700D02*
X114341400Y-110059600D01*
X112511000Y-110161500D02*
X112511000Y-110058200D01*
X117445600Y-96105800D02*
X114938300Y-98613100D01*
X112839500Y-110490000D02*
X112511000Y-110161500D01*
X114341400Y-110059600D02*
X114341400Y-110067600D01*
X113919000Y-110490000D02*
X112839500Y-110490000D01*
%TO.N,Net-(ISEL10A_1-Pad14)*%
X110556800Y-102325300D02*
X107365600Y-99134100D01*
X112499900Y-102185600D02*
X112360200Y-102325300D01*
X107365600Y-96105800D02*
X107365600Y-99134100D01*
X112499900Y-101182300D02*
X112499900Y-102185600D01*
X112360200Y-102325300D02*
X110556800Y-102325300D01*
D79*
%TO.N,Net-(ISEL10A_1-Pad22)*%
X117445600Y-89213500D02*
X114252500Y-92406600D01*
X103584500Y-99467800D02*
X103584500Y-94083000D01*
X105260900Y-92406600D02*
X103584500Y-94083000D01*
X103658800Y-99467800D02*
X103658800Y-99594800D01*
X103658800Y-99594800D02*
X109029500Y-104965500D01*
X114252500Y-92406600D02*
X105260900Y-92406600D01*
X117445600Y-88605800D02*
X117445600Y-89213500D01*
%TO.N,Net-(ISEL10A_2-Pad12)*%
X183498300Y-84946300D02*
X180013100Y-88431500D01*
X183498300Y-76070900D02*
X183498300Y-83570900D01*
X183498300Y-83570900D02*
X183498300Y-84946300D01*
D75*
%TO.N,Net-(L1-Pad2)*%
X117727700Y-110117000D02*
X120293500Y-110117000D01*
X120293500Y-110117000D02*
X120820300Y-110643800D01*
D73*
%TO.N,AIN1N*%
X121088100Y-126369400D02*
X121085100Y-126366400D01*
D72*
X122596400Y-118567700D02*
X122596400Y-120068100D01*
X122596400Y-118567700D02*
X120881900Y-118567700D01*
X119370600Y-132513600D02*
X120462400Y-132513600D01*
D73*
X119738900Y-126366400D02*
X119484900Y-126620400D01*
X119957800Y-126366400D02*
X119738900Y-126366400D01*
D72*
X120850150Y-132125850D02*
X120488200Y-132487800D01*
X121605800Y-132474700D02*
X121199000Y-132474700D01*
X120462400Y-132513600D02*
X120488200Y-132487800D01*
X126685800Y-130189100D02*
X125923800Y-130951100D01*
D73*
X119957800Y-126366400D02*
X121085100Y-126366400D01*
D72*
X125542800Y-118644800D02*
X122673500Y-118644800D01*
D73*
X119929400Y-126394800D02*
X119957800Y-126366400D01*
X121113500Y-126394800D02*
X121088100Y-126369400D01*
X121056700Y-126394800D02*
X121085100Y-126366400D01*
D72*
X121199000Y-132474700D02*
X120850150Y-132125850D01*
X125542800Y-126264800D02*
X126685800Y-127407800D01*
D73*
X122278900Y-126394800D02*
X121113500Y-126394800D01*
D72*
X122024900Y-130951100D02*
X120850150Y-132125850D01*
X122673500Y-118644800D02*
X122596400Y-118567700D01*
X125923800Y-130951100D02*
X122024900Y-130951100D01*
X126685800Y-127407800D02*
X126685800Y-130189100D01*
D78*
%TO.N,AIN4N*%
X183543700Y-94641800D02*
X180623100Y-94641800D01*
X178362100Y-94206700D02*
X180188000Y-94206700D01*
D73*
X164684200Y-89955500D02*
X164366700Y-89955500D01*
D78*
X180188000Y-94206700D02*
X180622700Y-94641400D01*
X186782200Y-94641800D02*
X183543700Y-94641800D01*
X165852600Y-88723600D02*
X165484300Y-88355300D01*
X186782200Y-97486600D02*
X186782200Y-94641800D01*
X183543700Y-97486600D02*
X183543700Y-94641800D01*
X180623100Y-94641800D02*
X180622700Y-94641400D01*
D73*
X163884100Y-89955500D02*
X164684200Y-89955500D01*
D74*
%TO.N,Net-(L1-Pad4)*%
X113482500Y-111117000D02*
X112511000Y-112088500D01*
X115571300Y-111117000D02*
X113482500Y-111117000D01*
X112511000Y-112088500D02*
X112511000Y-113219800D01*
D72*
%TO.N,Net-(L2-Pad1)*%
X104473900Y-135358000D02*
X102593000Y-135358000D01*
%TO.N,AIN1P*%
X100893000Y-135358000D02*
X91870500Y-135358000D01*
X91870500Y-135358000D02*
X89601100Y-133088600D01*
D79*
%TO.N,AIN2N*%
X108147900Y-121658600D02*
X112522000Y-117284500D01*
X106590500Y-121658600D02*
X95981100Y-121658600D01*
X95981100Y-121658600D02*
X95977200Y-121654700D01*
X106590500Y-121658600D02*
X108147900Y-121658600D01*
D75*
%TO.N,IN3N*%
X171681900Y-116943000D02*
X171681900Y-116220400D01*
D77*
X161369500Y-120372000D02*
X164392100Y-120372000D01*
D71*
X192072700Y-112871700D02*
X187455300Y-117489100D01*
X184674000Y-117489100D02*
X184432700Y-117730400D01*
X187455300Y-117489100D02*
X184674000Y-117489100D01*
D75*
X167109900Y-120829600D02*
X166652300Y-120372000D01*
X169357800Y-119267100D02*
X171681900Y-116943000D01*
X169233700Y-120829600D02*
X169357800Y-120705500D01*
X166652300Y-120372000D02*
X164392100Y-120372000D01*
D71*
X143449800Y-120410100D02*
X143879100Y-120839400D01*
X194433950Y-112871700D02*
X192072700Y-112871700D01*
D75*
X171681900Y-116220400D02*
X170563000Y-115101500D01*
D71*
X143879100Y-132152900D02*
X143761500Y-132270500D01*
D75*
X169233700Y-120829600D02*
X167109900Y-120829600D01*
D71*
X143879100Y-120839400D02*
X143879100Y-132152900D01*
D75*
X169357800Y-120705500D02*
X169357800Y-119267100D01*
D72*
%TO.N,Net-(R7-Pad1)*%
X109414200Y-135358000D02*
X107317900Y-135358000D01*
%TO.N,Net-(R8-Pad1)*%
X114367200Y-135358000D02*
X112258200Y-135358000D01*
D75*
%TO.N,Net-(R15-Pad1)*%
X152275000Y-115101500D02*
X153922000Y-115101500D01*
%TO.N,Net-(R19-Pad1)*%
X152096500Y-126087000D02*
X150433500Y-126087000D01*
%TO.N,AIN3P*%
X140974200Y-114339500D02*
X140389100Y-114339500D01*
X140389100Y-114339500D02*
X140224000Y-114504600D01*
D74*
%TO.N,Net-(OK2-S2)*%
X144884900Y-115190000D02*
X144884900Y-119084100D01*
X144884900Y-115190000D02*
X144796400Y-115101500D01*
D75*
X144034400Y-114339500D02*
X144796400Y-115101500D01*
X146350600Y-120549800D02*
X146154900Y-120321200D01*
D74*
X144884900Y-119084100D02*
X146350600Y-120549800D01*
D75*
X142674200Y-114339500D02*
X144034400Y-114339500D01*
%TD*%
%TA.AperFunction,Conductor*%
%TO.N,AIN2N*%
G36*
X112114914Y-113401586D02*
G01*
X112129500Y-113436800D01*
X112129500Y-114368776D01*
X112129501Y-114368786D01*
X112132461Y-114394306D01*
X112178565Y-114498724D01*
X112178566Y-114498725D01*
X112259275Y-114579434D01*
X112363691Y-114625538D01*
X112389221Y-114628500D01*
X112632778Y-114628499D01*
X112658309Y-114625538D01*
X112762725Y-114579434D01*
X112843434Y-114498725D01*
X112889538Y-114394309D01*
X112892500Y-114368779D01*
X112892499Y-113436799D01*
X112907085Y-113401586D01*
X112942299Y-113387000D01*
X115391556Y-113387000D01*
X115426770Y-113401586D01*
X115774614Y-113749430D01*
X115789200Y-113784644D01*
X115789200Y-117320056D01*
X115774614Y-117355270D01*
X114918770Y-118211114D01*
X114883556Y-118225700D01*
X112435028Y-118225700D01*
X112432387Y-118225630D01*
X108076659Y-117994352D01*
X108042268Y-117977919D01*
X108029500Y-117944622D01*
X108029500Y-114165644D01*
X108044086Y-114130430D01*
X108772930Y-113401586D01*
X108808144Y-113387000D01*
X112079700Y-113387000D01*
X112114914Y-113401586D01*
G37*
%TD.AperFunction*%
%TD*%
%TA.AperFunction,Conductor*%
%TO.N,AIN4N*%
G36*
X164016970Y-84661486D02*
G01*
X166511114Y-87155630D01*
X166525700Y-87190844D01*
X166525700Y-90274000D01*
X166511114Y-90309214D01*
X166475900Y-90323800D01*
X162757744Y-90323800D01*
X162722530Y-90309214D01*
X162687316Y-90274000D01*
X160870216Y-88456900D01*
X160870215Y-88456900D01*
X158909644Y-88456900D01*
X158874430Y-88442314D01*
X158831386Y-88399270D01*
X158816800Y-88364056D01*
X158816800Y-84696700D01*
X158831386Y-84661486D01*
X158866600Y-84646900D01*
X163981756Y-84646900D01*
X164016970Y-84661486D01*
G37*
%TD.AperFunction*%
%TD*%
%TA.AperFunction,Conductor*%
%TO.N,GND*%
G36*
X138928286Y-108843657D02*
G01*
X138942872Y-108878871D01*
X138939733Y-108896271D01*
X138936753Y-108904261D01*
X138930300Y-108964294D01*
X138930300Y-109083500D01*
X141258552Y-109083500D01*
X141258846Y-109083377D01*
X141259172Y-109083510D01*
X141259172Y-109083500D01*
X142638000Y-109083500D01*
X142673214Y-109098086D01*
X142687800Y-109133300D01*
X142687800Y-110166499D01*
X143132005Y-110166499D01*
X143192034Y-110160047D01*
X143280996Y-110126865D01*
X143319087Y-110128225D01*
X143345060Y-110156121D01*
X143348200Y-110173525D01*
X143348200Y-110573799D01*
X143347774Y-110580300D01*
X143331745Y-110702046D01*
X143328380Y-110714602D01*
X143282650Y-110825005D01*
X143276150Y-110836264D01*
X143201398Y-110933682D01*
X143197103Y-110938580D01*
X143058780Y-111076903D01*
X143053882Y-111081198D01*
X142956464Y-111155950D01*
X142945205Y-111162450D01*
X142834802Y-111208180D01*
X142822246Y-111211545D01*
X142731283Y-111223521D01*
X142700498Y-111227574D01*
X142694000Y-111228000D01*
X138636000Y-111228000D01*
X138600786Y-111213414D01*
X138586200Y-111178200D01*
X138586200Y-111121110D01*
X138589990Y-111102054D01*
X138590427Y-111101000D01*
X138574164Y-111061736D01*
X138574163Y-111061735D01*
X138574162Y-111061734D01*
X138545105Y-111049699D01*
X138545104Y-111049699D01*
X138534901Y-111045473D01*
X138534900Y-111045473D01*
X138533845Y-111045909D01*
X138514790Y-111049700D01*
X136721602Y-111049700D01*
X136702544Y-111045909D01*
X136677292Y-111035449D01*
X136666034Y-111028949D01*
X136568617Y-110954198D01*
X136563719Y-110949903D01*
X135821929Y-110208113D01*
X135807343Y-110172899D01*
X135821929Y-110137685D01*
X135857143Y-110123099D01*
X136363200Y-110123099D01*
X136363200Y-109843700D01*
X136871200Y-109843700D01*
X136871200Y-110123099D01*
X137767611Y-110123099D01*
X137767620Y-110123098D01*
X137793090Y-110120144D01*
X137897336Y-110074115D01*
X137977914Y-109993537D01*
X138023945Y-109889290D01*
X138026899Y-109863819D01*
X138026900Y-109863813D01*
X138026900Y-109843700D01*
X136871200Y-109843700D01*
X136363200Y-109843700D01*
X136363200Y-109591500D01*
X138930301Y-109591500D01*
X138930301Y-109710705D01*
X138936752Y-109770734D01*
X138987402Y-109906527D01*
X139074252Y-110022546D01*
X139074253Y-110022547D01*
X139190272Y-110109397D01*
X139190271Y-110109397D01*
X139326064Y-110160046D01*
X139386094Y-110166499D01*
X139830300Y-110166499D01*
X140338300Y-110166499D01*
X140782505Y-110166499D01*
X140842534Y-110160047D01*
X140978327Y-110109397D01*
X141094346Y-110022547D01*
X141094347Y-110022546D01*
X141181197Y-109906527D01*
X141212390Y-109822900D01*
X141238363Y-109795004D01*
X141276454Y-109793644D01*
X141304350Y-109819617D01*
X141305710Y-109822900D01*
X141336902Y-109906527D01*
X141423752Y-110022546D01*
X141423753Y-110022547D01*
X141539772Y-110109397D01*
X141539771Y-110109397D01*
X141675564Y-110160046D01*
X141735594Y-110166499D01*
X142179800Y-110166499D01*
X142179800Y-109591500D01*
X141259173Y-109591500D01*
X141259173Y-109591488D01*
X141258847Y-109591622D01*
X141258554Y-109591500D01*
X140338300Y-109591500D01*
X140338300Y-110166499D01*
X139830300Y-110166499D01*
X139830300Y-109591500D01*
X138930301Y-109591500D01*
X136363200Y-109591500D01*
X136363200Y-109385500D01*
X136377786Y-109350286D01*
X136413000Y-109335700D01*
X138026899Y-109335700D01*
X138037713Y-109324886D01*
X138072927Y-109310300D01*
X138180792Y-109310300D01*
X138180796Y-109310300D01*
X138391216Y-109310300D01*
X138857859Y-108843656D01*
X138893072Y-108829071D01*
X138928286Y-108843657D01*
G37*
%TD.AperFunction*%
%TD*%
%TA.AperFunction,Conductor*%
%TO.N,Net-(IC2-HLDO_OUT)*%
G36*
X122672599Y-104433925D02*
G01*
X122781231Y-104448227D01*
X122809944Y-104462387D01*
X123147943Y-104800386D01*
X123162529Y-104835600D01*
X123147943Y-104870814D01*
X123112729Y-104885400D01*
X122786900Y-104885400D01*
X122786900Y-105460400D01*
X123686899Y-105460400D01*
X123686899Y-105413864D01*
X123701485Y-105378650D01*
X123736699Y-105364064D01*
X123752104Y-105366507D01*
X123753435Y-105366939D01*
X123754499Y-105367286D01*
X123761699Y-105370270D01*
X123787094Y-105383209D01*
X123815252Y-105387668D01*
X123822831Y-105389487D01*
X123841999Y-105395715D01*
X123933884Y-105487600D01*
X124120351Y-105487600D01*
X124131811Y-105492222D01*
X124175817Y-105524700D01*
X124175821Y-105524702D01*
X124297796Y-105567383D01*
X124297798Y-105567383D01*
X124297800Y-105567384D01*
X124326764Y-105570100D01*
X124326770Y-105570100D01*
X124930030Y-105570100D01*
X124930036Y-105570100D01*
X124959000Y-105567384D01*
X125080981Y-105524701D01*
X125118065Y-105497330D01*
X125147638Y-105487600D01*
X126115300Y-105487600D01*
X126150514Y-105502186D01*
X126156826Y-105517426D01*
X126165100Y-105525700D01*
X127524470Y-105525700D01*
X127592706Y-105571294D01*
X127654649Y-105663998D01*
X127676400Y-105773350D01*
X127654649Y-105882702D01*
X127592706Y-105975406D01*
X127505463Y-106033700D01*
X126165101Y-106033700D01*
X126165101Y-106053820D01*
X126168055Y-106079292D01*
X126169039Y-106082908D01*
X126167065Y-106083444D01*
X126167419Y-106098864D01*
X126058394Y-106207889D01*
X126058390Y-106207893D01*
X124948580Y-107317703D01*
X124943682Y-107321998D01*
X124846264Y-107396750D01*
X124835005Y-107403250D01*
X124724602Y-107448980D01*
X124712046Y-107452345D01*
X124621083Y-107464321D01*
X124590298Y-107468374D01*
X124583800Y-107468800D01*
X119440600Y-107468800D01*
X119434101Y-107468374D01*
X119395666Y-107463314D01*
X119312353Y-107452345D01*
X119299797Y-107448980D01*
X119189394Y-107403250D01*
X119178135Y-107396750D01*
X119080717Y-107321998D01*
X119075819Y-107317703D01*
X118861296Y-107103180D01*
X118857001Y-107098282D01*
X118782249Y-107000864D01*
X118775749Y-106989605D01*
X118730019Y-106879202D01*
X118726654Y-106866645D01*
X118710626Y-106744899D01*
X118710200Y-106738399D01*
X118710200Y-105968400D01*
X119029401Y-105968400D01*
X119029401Y-106087605D01*
X119035852Y-106147634D01*
X119086502Y-106283427D01*
X119173352Y-106399446D01*
X119173353Y-106399447D01*
X119289372Y-106486297D01*
X119289371Y-106486297D01*
X119425164Y-106536946D01*
X119485194Y-106543399D01*
X119929400Y-106543399D01*
X120437400Y-106543399D01*
X120881605Y-106543399D01*
X120941634Y-106536947D01*
X121077427Y-106486297D01*
X121193446Y-106399447D01*
X121193447Y-106399446D01*
X121280297Y-106283427D01*
X121311490Y-106199800D01*
X121337463Y-106171904D01*
X121375554Y-106170544D01*
X121403450Y-106196517D01*
X121404810Y-106199800D01*
X121436002Y-106283427D01*
X121522852Y-106399446D01*
X121522853Y-106399447D01*
X121638872Y-106486297D01*
X121638871Y-106486297D01*
X121774664Y-106536946D01*
X121834694Y-106543399D01*
X122278900Y-106543399D01*
X122278900Y-105968400D01*
X122786900Y-105968400D01*
X122786900Y-106543399D01*
X123231105Y-106543399D01*
X123291134Y-106536947D01*
X123426927Y-106486297D01*
X123542946Y-106399447D01*
X123542947Y-106399446D01*
X123629797Y-106283427D01*
X123680446Y-106147635D01*
X123686900Y-106087605D01*
X123686900Y-105968400D01*
X122786900Y-105968400D01*
X122278900Y-105968400D01*
X121358273Y-105968400D01*
X121358273Y-105968388D01*
X121357947Y-105968522D01*
X121357654Y-105968400D01*
X120437400Y-105968400D01*
X120437400Y-106543399D01*
X119929400Y-106543399D01*
X119929400Y-105968400D01*
X119029401Y-105968400D01*
X118710200Y-105968400D01*
X118710200Y-105460400D01*
X119029400Y-105460400D01*
X119929400Y-105460400D01*
X119929400Y-104885400D01*
X120437400Y-104885400D01*
X120437400Y-105460400D01*
X121357652Y-105460400D01*
X121357946Y-105460277D01*
X121358272Y-105460410D01*
X121358272Y-105460400D01*
X122278900Y-105460400D01*
X122278900Y-104885400D01*
X121834693Y-104885400D01*
X121774665Y-104891852D01*
X121638872Y-104942502D01*
X121522853Y-105029352D01*
X121522852Y-105029353D01*
X121436002Y-105145372D01*
X121404809Y-105228999D01*
X121378836Y-105256895D01*
X121340745Y-105258255D01*
X121312849Y-105232282D01*
X121311489Y-105228998D01*
X121280298Y-105145373D01*
X121280297Y-105145372D01*
X121193447Y-105029353D01*
X121193446Y-105029352D01*
X121077427Y-104942502D01*
X121077428Y-104942502D01*
X120941635Y-104891853D01*
X120881606Y-104885400D01*
X120437400Y-104885400D01*
X119929400Y-104885400D01*
X119485193Y-104885400D01*
X119425165Y-104891852D01*
X119289372Y-104942502D01*
X119173353Y-105029352D01*
X119173352Y-105029353D01*
X119086502Y-105145372D01*
X119035853Y-105281164D01*
X119029400Y-105341194D01*
X119029400Y-105460400D01*
X118710200Y-105460400D01*
X118710200Y-105024200D01*
X118710626Y-105017700D01*
X118720526Y-104942502D01*
X118726654Y-104895950D01*
X118730017Y-104883401D01*
X118775751Y-104772989D01*
X118782246Y-104761739D01*
X118857007Y-104664309D01*
X118861288Y-104659427D01*
X118936127Y-104584588D01*
X118941009Y-104580307D01*
X119038439Y-104505546D01*
X119049689Y-104499051D01*
X119160101Y-104453317D01*
X119172650Y-104449954D01*
X119294400Y-104433925D01*
X119300900Y-104433500D01*
X122666100Y-104433500D01*
X122672599Y-104433925D01*
G37*
%TD.AperFunction*%
%TD*%
%TA.AperFunction,Conductor*%
%TO.N,/Voltage/current  ADC/AVSS*%
G36*
X211978999Y-92356225D02*
G01*
X212100747Y-92372254D01*
X212113300Y-92375618D01*
X212223706Y-92421350D01*
X212234964Y-92427849D01*
X212332382Y-92502601D01*
X212337280Y-92506896D01*
X212475603Y-92645219D01*
X212479898Y-92650117D01*
X212554650Y-92747535D01*
X212561150Y-92758794D01*
X212606880Y-92869197D01*
X212610245Y-92881753D01*
X212626274Y-93003499D01*
X212626700Y-93010000D01*
X212626700Y-98635799D01*
X212626274Y-98642300D01*
X212610245Y-98764046D01*
X212606880Y-98776602D01*
X212561150Y-98887005D01*
X212554650Y-98898264D01*
X212479898Y-98995682D01*
X212475603Y-99000580D01*
X212337280Y-99138903D01*
X212332382Y-99143198D01*
X212234964Y-99217950D01*
X212223705Y-99224450D01*
X212113302Y-99270180D01*
X212100746Y-99273545D01*
X212009783Y-99285521D01*
X211978998Y-99289574D01*
X211972500Y-99290000D01*
X198409200Y-99290000D01*
X198402701Y-99289574D01*
X198364266Y-99284514D01*
X198280953Y-99273545D01*
X198268397Y-99270180D01*
X198157994Y-99224450D01*
X198146735Y-99217950D01*
X198049317Y-99143198D01*
X198044419Y-99138903D01*
X198033096Y-99127580D01*
X198028801Y-99122682D01*
X197954049Y-99025264D01*
X197947549Y-99014005D01*
X197941988Y-99000580D01*
X197901818Y-98903600D01*
X197898454Y-98891045D01*
X197894267Y-98859244D01*
X197882426Y-98769299D01*
X197882000Y-98762799D01*
X197882000Y-98426400D01*
X199708263Y-98426400D01*
X199726511Y-98565014D01*
X199729121Y-98584833D01*
X199741202Y-98613998D01*
X199790274Y-98732470D01*
X199887552Y-98859244D01*
X199887555Y-98859247D01*
X200014329Y-98956525D01*
X200014330Y-98956525D01*
X200014331Y-98956526D01*
X200161967Y-99017679D01*
X200320400Y-99038537D01*
X200478833Y-99017679D01*
X200626469Y-98956526D01*
X200753246Y-98859246D01*
X200850526Y-98732469D01*
X200911679Y-98584833D01*
X200932537Y-98426400D01*
X200931473Y-98418323D01*
X200941336Y-98381509D01*
X200945626Y-98376616D01*
X200962242Y-98360000D01*
X202886414Y-98360000D01*
X202888754Y-98380189D01*
X202888755Y-98380191D01*
X202934784Y-98484436D01*
X203015362Y-98565014D01*
X203119610Y-98611045D01*
X203119609Y-98611045D01*
X203145083Y-98613999D01*
X203603350Y-98613999D01*
X203603350Y-98360000D01*
X204035150Y-98360000D01*
X204035150Y-98613999D01*
X204493411Y-98613999D01*
X204493420Y-98613998D01*
X204518890Y-98611044D01*
X204623136Y-98565015D01*
X204703714Y-98484437D01*
X204749743Y-98380193D01*
X204752087Y-98360000D01*
X204035150Y-98360000D01*
X203603350Y-98360000D01*
X202886414Y-98360000D01*
X200962242Y-98360000D01*
X201116757Y-98205484D01*
X201151971Y-98190899D01*
X202053746Y-98190899D01*
X202053752Y-98190899D01*
X202084401Y-98188026D01*
X202213495Y-98142854D01*
X202323538Y-98061638D01*
X202404754Y-97951595D01*
X202410787Y-97934352D01*
X202436185Y-97905932D01*
X202457793Y-97901000D01*
X202839853Y-97901000D01*
X202875067Y-97915586D01*
X202877041Y-97917678D01*
X202886413Y-97928200D01*
X204752086Y-97928200D01*
X204749745Y-97908010D01*
X204749744Y-97908008D01*
X204703715Y-97803763D01*
X204701614Y-97801662D01*
X204687028Y-97766448D01*
X204687984Y-97756740D01*
X204702400Y-97684267D01*
X204702399Y-97303934D01*
X204687634Y-97229699D01*
X204665628Y-97196766D01*
X204658193Y-97159385D01*
X204665630Y-97141432D01*
X204687631Y-97108505D01*
X204687634Y-97108501D01*
X204697281Y-97060000D01*
X207344114Y-97060000D01*
X207346454Y-97080189D01*
X207346455Y-97080191D01*
X207392484Y-97184436D01*
X207394585Y-97186537D01*
X207409171Y-97221751D01*
X207408214Y-97231466D01*
X207393800Y-97303930D01*
X207393800Y-97684260D01*
X207393801Y-97684267D01*
X207408566Y-97758500D01*
X207408566Y-97758502D01*
X207430570Y-97791433D01*
X207438006Y-97828816D01*
X207430570Y-97846767D01*
X207408566Y-97879697D01*
X207408565Y-97879699D01*
X207393800Y-97953930D01*
X207393800Y-98334260D01*
X207393801Y-98334267D01*
X207408565Y-98408500D01*
X207408566Y-98408501D01*
X207464816Y-98492684D01*
X207548999Y-98548934D01*
X207623233Y-98563700D01*
X208930666Y-98563699D01*
X208967893Y-98556294D01*
X208989703Y-98551957D01*
X208999417Y-98551000D01*
X210207848Y-98551000D01*
X210234954Y-98542192D01*
X210242549Y-98540368D01*
X210270706Y-98535909D01*
X210296106Y-98522965D01*
X210303305Y-98519983D01*
X210330432Y-98511170D01*
X210338633Y-98505210D01*
X210367906Y-98495699D01*
X211350146Y-98495699D01*
X211350152Y-98495699D01*
X211380801Y-98492826D01*
X211509895Y-98447654D01*
X211619938Y-98366438D01*
X211701154Y-98256395D01*
X211746326Y-98127301D01*
X211749200Y-98096653D01*
X211749199Y-97337348D01*
X211746326Y-97306699D01*
X211715423Y-97218384D01*
X211701155Y-97177607D01*
X211701153Y-97177604D01*
X211619939Y-97067563D01*
X211619936Y-97067560D01*
X211509895Y-96986346D01*
X211509892Y-96986344D01*
X211380804Y-96941174D01*
X211380799Y-96941173D01*
X211363844Y-96939583D01*
X211350153Y-96938300D01*
X211350146Y-96938300D01*
X211306221Y-96938300D01*
X211271007Y-96923714D01*
X211256847Y-96894998D01*
X211256026Y-96888760D01*
X211255600Y-96882262D01*
X211255600Y-96862617D01*
X211241130Y-96748072D01*
X211241129Y-96748070D01*
X211241129Y-96748068D01*
X211203858Y-96653932D01*
X211184385Y-96604747D01*
X211160267Y-96571552D01*
X211093779Y-96480038D01*
X210975006Y-96381781D01*
X210975004Y-96381780D01*
X210975003Y-96381779D01*
X210835530Y-96316149D01*
X210810733Y-96311418D01*
X210807136Y-96310358D01*
X210807081Y-96310565D01*
X210803926Y-96309719D01*
X210798574Y-96309014D01*
X210795749Y-96308559D01*
X210684114Y-96287264D01*
X210684113Y-96287264D01*
X210681986Y-96287397D01*
X210654588Y-96289120D01*
X210646995Y-96288863D01*
X210645498Y-96288863D01*
X210635105Y-96290231D01*
X210631733Y-96290559D01*
X210530269Y-96296943D01*
X210530267Y-96296943D01*
X210497931Y-96307449D01*
X210489054Y-96309459D01*
X210487066Y-96309721D01*
X210474753Y-96314819D01*
X210471093Y-96316169D01*
X210383670Y-96344576D01*
X210383662Y-96344580D01*
X210351129Y-96365226D01*
X210343507Y-96369186D01*
X210339432Y-96370873D01*
X210331118Y-96377252D01*
X210327795Y-96379803D01*
X210324175Y-96382332D01*
X210302390Y-96396157D01*
X210253517Y-96427173D01*
X210223940Y-96458668D01*
X210217959Y-96464082D01*
X210212656Y-96468151D01*
X210212650Y-96468157D01*
X210203530Y-96480043D01*
X210200325Y-96483816D01*
X210147997Y-96539539D01*
X210147996Y-96539541D01*
X210124851Y-96581639D01*
X210120724Y-96587959D01*
X210115374Y-96594931D01*
X210115372Y-96594936D01*
X210109783Y-96608425D01*
X210107417Y-96613352D01*
X210073734Y-96674622D01*
X210073734Y-96674624D01*
X210060538Y-96726016D01*
X210058314Y-96732684D01*
X210054221Y-96742567D01*
X210052435Y-96756129D01*
X210051296Y-96762012D01*
X210035401Y-96823918D01*
X210035400Y-96823927D01*
X210035400Y-96882262D01*
X210034973Y-96888768D01*
X210034151Y-96895006D01*
X210015090Y-96928013D01*
X209984779Y-96938300D01*
X209940853Y-96938300D01*
X209910198Y-96941174D01*
X209781107Y-96986344D01*
X209781104Y-96986346D01*
X209671063Y-97067560D01*
X209671060Y-97067563D01*
X209596513Y-97168572D01*
X209563866Y-97188244D01*
X209556444Y-97188800D01*
X209235917Y-97188800D01*
X209200703Y-97174214D01*
X209186117Y-97139000D01*
X209190360Y-97118885D01*
X209207443Y-97080194D01*
X209209787Y-97060000D01*
X207344114Y-97060000D01*
X204697281Y-97060000D01*
X204702400Y-97034267D01*
X204702399Y-96653934D01*
X204697281Y-96628200D01*
X207344113Y-96628200D01*
X208061050Y-96628200D01*
X208061050Y-96410000D01*
X208492850Y-96410000D01*
X208492850Y-96628200D01*
X209209786Y-96628200D01*
X209207444Y-96608009D01*
X209177069Y-96539216D01*
X209176189Y-96501111D01*
X209177069Y-96498984D01*
X209207443Y-96430193D01*
X209209787Y-96410000D01*
X208492850Y-96410000D01*
X208061050Y-96410000D01*
X207344114Y-96410000D01*
X207346454Y-96430189D01*
X207346455Y-96430191D01*
X207376830Y-96498984D01*
X207377710Y-96537089D01*
X207376830Y-96539214D01*
X207346457Y-96608002D01*
X207346456Y-96608007D01*
X207344113Y-96628200D01*
X204697281Y-96628200D01*
X204687985Y-96581464D01*
X204695421Y-96544082D01*
X204701617Y-96536533D01*
X204703715Y-96534434D01*
X204703716Y-96534434D01*
X204749743Y-96430193D01*
X204752087Y-96410000D01*
X202886414Y-96410000D01*
X202888754Y-96430189D01*
X202888756Y-96430194D01*
X202905840Y-96468884D01*
X202906721Y-96506989D01*
X202880400Y-96534556D01*
X202860284Y-96538800D01*
X201900126Y-96538800D01*
X201889685Y-96537096D01*
X201889681Y-96537128D01*
X201885111Y-96536490D01*
X201885110Y-96536490D01*
X201885108Y-96536490D01*
X201846789Y-96538261D01*
X201836287Y-96538747D01*
X201833989Y-96538800D01*
X201813911Y-96538800D01*
X201810329Y-96539469D01*
X201803488Y-96540262D01*
X201771089Y-96541760D01*
X201756566Y-96548173D01*
X201745605Y-96551568D01*
X201730004Y-96554484D01*
X201702438Y-96571552D01*
X201696341Y-96574766D01*
X201666675Y-96587866D01*
X201666673Y-96587867D01*
X201655446Y-96599093D01*
X201646456Y-96606213D01*
X201632958Y-96614571D01*
X201629547Y-96617682D01*
X201628607Y-96616651D01*
X201600740Y-96633023D01*
X201593867Y-96633500D01*
X200644453Y-96633500D01*
X200613798Y-96636374D01*
X200484707Y-96681544D01*
X200484704Y-96681546D01*
X200374663Y-96762760D01*
X200374660Y-96762763D01*
X200293446Y-96872804D01*
X200293444Y-96872807D01*
X200248274Y-97001895D01*
X200248273Y-97001900D01*
X200246606Y-97019677D01*
X200245400Y-97032547D01*
X200245400Y-97032553D01*
X200245400Y-97032554D01*
X200245400Y-97780463D01*
X200230814Y-97815677D01*
X200202101Y-97829837D01*
X200161970Y-97835120D01*
X200161967Y-97835120D01*
X200161967Y-97835121D01*
X200136636Y-97845613D01*
X200014330Y-97896274D01*
X199887555Y-97993552D01*
X199887552Y-97993555D01*
X199790274Y-98120330D01*
X199729122Y-98267965D01*
X199729120Y-98267971D01*
X199708263Y-98426400D01*
X197882000Y-98426400D01*
X197882000Y-96595700D01*
X198236101Y-96595700D01*
X198236101Y-96652405D01*
X198242552Y-96712434D01*
X198293202Y-96848227D01*
X198380052Y-96964246D01*
X198380053Y-96964247D01*
X198496072Y-97051097D01*
X198496071Y-97051097D01*
X198631864Y-97101746D01*
X198691893Y-97108199D01*
X198936100Y-97108199D01*
X198936100Y-96595700D01*
X199444100Y-96595700D01*
X199444100Y-97108199D01*
X199688305Y-97108199D01*
X199748334Y-97101747D01*
X199884127Y-97051097D01*
X200000146Y-96964247D01*
X200000147Y-96964246D01*
X200086997Y-96848227D01*
X200137646Y-96712435D01*
X200144100Y-96652405D01*
X200144100Y-96595700D01*
X199444100Y-96595700D01*
X198936100Y-96595700D01*
X198236101Y-96595700D01*
X197882000Y-96595700D01*
X197882000Y-96087700D01*
X198236100Y-96087700D01*
X198936100Y-96087700D01*
X198936100Y-95575200D01*
X199444100Y-95575200D01*
X199444100Y-96087700D01*
X200144099Y-96087700D01*
X200144099Y-96030994D01*
X200138425Y-95978200D01*
X202886413Y-95978200D01*
X203603350Y-95978200D01*
X203603350Y-95724200D01*
X204035150Y-95724200D01*
X204035150Y-95978200D01*
X204752086Y-95978200D01*
X207344113Y-95978200D01*
X208061050Y-95978200D01*
X208061050Y-95724200D01*
X208492850Y-95724200D01*
X208492850Y-95978200D01*
X209209786Y-95978200D01*
X209207445Y-95958010D01*
X209207444Y-95958008D01*
X209161415Y-95853763D01*
X209080837Y-95773185D01*
X208976589Y-95727154D01*
X208976590Y-95727154D01*
X208951119Y-95724200D01*
X208492850Y-95724200D01*
X208061050Y-95724200D01*
X207602789Y-95724200D01*
X207602779Y-95724201D01*
X207577309Y-95727155D01*
X207473063Y-95773184D01*
X207392485Y-95853762D01*
X207346456Y-95958006D01*
X207344113Y-95978200D01*
X204752086Y-95978200D01*
X204749745Y-95958010D01*
X204749744Y-95958008D01*
X204703715Y-95853763D01*
X204623137Y-95773185D01*
X204518889Y-95727154D01*
X204518890Y-95727154D01*
X204493419Y-95724200D01*
X204035150Y-95724200D01*
X203603350Y-95724200D01*
X203145089Y-95724200D01*
X203145079Y-95724201D01*
X203119609Y-95727155D01*
X203015363Y-95773184D01*
X202934785Y-95853762D01*
X202888756Y-95958006D01*
X202886413Y-95978200D01*
X200138425Y-95978200D01*
X200137647Y-95970965D01*
X200086997Y-95835172D01*
X200000147Y-95719153D01*
X200000146Y-95719152D01*
X199884127Y-95632302D01*
X199884128Y-95632302D01*
X199748335Y-95581653D01*
X199688306Y-95575200D01*
X199444100Y-95575200D01*
X198936100Y-95575200D01*
X198691893Y-95575200D01*
X198631865Y-95581652D01*
X198496072Y-95632302D01*
X198380053Y-95719152D01*
X198380052Y-95719153D01*
X198293202Y-95835172D01*
X198242553Y-95970964D01*
X198236100Y-96030994D01*
X198236100Y-96087700D01*
X197882000Y-96087700D01*
X197882000Y-94833846D01*
X198286400Y-94833846D01*
X198289274Y-94864501D01*
X198334444Y-94993592D01*
X198334446Y-94993595D01*
X198415660Y-95103636D01*
X198415663Y-95103639D01*
X198426503Y-95111639D01*
X198515468Y-95177299D01*
X198525704Y-95184853D01*
X198525707Y-95184855D01*
X198654795Y-95230025D01*
X198654797Y-95230025D01*
X198654799Y-95230026D01*
X198685447Y-95232900D01*
X199694752Y-95232899D01*
X199725401Y-95230026D01*
X199854495Y-95184854D01*
X199964538Y-95103638D01*
X199992369Y-95065927D01*
X200025015Y-95046256D01*
X200032438Y-95045700D01*
X200300857Y-95045700D01*
X200336071Y-95060286D01*
X200340926Y-95065928D01*
X200374660Y-95111636D01*
X200374662Y-95111638D01*
X200473865Y-95184854D01*
X200484704Y-95192853D01*
X200484707Y-95192855D01*
X200613795Y-95238025D01*
X200613797Y-95238025D01*
X200613799Y-95238026D01*
X200644447Y-95240900D01*
X202053752Y-95240899D01*
X202084401Y-95238026D01*
X202213495Y-95192854D01*
X202276104Y-95146646D01*
X209541800Y-95146646D01*
X209544674Y-95177301D01*
X209589844Y-95306392D01*
X209589846Y-95306395D01*
X209671060Y-95416436D01*
X209671063Y-95416439D01*
X209781104Y-95497653D01*
X209781107Y-95497655D01*
X209910195Y-95542825D01*
X209910197Y-95542825D01*
X209910199Y-95542826D01*
X209940847Y-95545700D01*
X211350152Y-95545699D01*
X211380801Y-95542826D01*
X211509895Y-95497654D01*
X211619938Y-95416438D01*
X211701154Y-95306395D01*
X211746326Y-95177301D01*
X211749200Y-95146653D01*
X211749199Y-94387348D01*
X211746326Y-94356699D01*
X211701154Y-94227605D01*
X211619938Y-94117562D01*
X211619936Y-94117560D01*
X211509895Y-94036346D01*
X211509892Y-94036344D01*
X211380804Y-93991174D01*
X211380799Y-93991173D01*
X211363844Y-93989583D01*
X211350153Y-93988300D01*
X211350146Y-93988300D01*
X211208562Y-93988300D01*
X211173348Y-93973714D01*
X211168273Y-93967771D01*
X211157370Y-93952764D01*
X211154794Y-93948843D01*
X211131405Y-93909293D01*
X211113628Y-93891516D01*
X211108558Y-93885580D01*
X211093779Y-93865238D01*
X211093618Y-93865105D01*
X211058365Y-93835940D01*
X211054895Y-93832783D01*
X210683749Y-93461637D01*
X210679461Y-93456748D01*
X210671946Y-93446954D01*
X210671944Y-93446952D01*
X210671943Y-93446951D01*
X210662153Y-93439439D01*
X210657257Y-93435145D01*
X210643366Y-93421254D01*
X210643365Y-93421253D01*
X210552134Y-93350487D01*
X210552133Y-93350486D01*
X210552131Y-93350485D01*
X210410667Y-93289268D01*
X210410664Y-93289267D01*
X210258414Y-93265153D01*
X210104953Y-93279661D01*
X209959919Y-93331875D01*
X209959918Y-93331875D01*
X209939030Y-93346071D01*
X209935739Y-93347852D01*
X209935851Y-93348046D01*
X209933029Y-93349675D01*
X209928751Y-93352957D01*
X209926434Y-93354631D01*
X209832430Y-93418517D01*
X209832423Y-93418523D01*
X209812866Y-93440705D01*
X209807310Y-93445898D01*
X209806252Y-93446956D01*
X209799872Y-93455269D01*
X209797723Y-93457881D01*
X209730488Y-93534145D01*
X209715049Y-93564445D01*
X209710193Y-93572142D01*
X209708977Y-93573727D01*
X209708971Y-93573737D01*
X209703879Y-93586027D01*
X209702245Y-93589572D01*
X209660506Y-93671494D01*
X209660504Y-93671498D01*
X209652099Y-93709098D01*
X209649511Y-93717285D01*
X209647820Y-93721366D01*
X209645906Y-93735906D01*
X209645133Y-93740265D01*
X209626881Y-93821927D01*
X209626880Y-93821936D01*
X209628236Y-93865105D01*
X209627836Y-93873161D01*
X209626963Y-93879799D01*
X209626963Y-93879804D01*
X209628919Y-93894669D01*
X209629320Y-93899601D01*
X209631721Y-93975997D01*
X209631721Y-93975998D01*
X209645121Y-94022121D01*
X209646671Y-94029506D01*
X209647821Y-94038232D01*
X209647822Y-94038235D01*
X209653407Y-94051719D01*
X209655221Y-94056884D01*
X209665473Y-94092174D01*
X209661290Y-94130059D01*
X209657719Y-94135639D01*
X209589846Y-94227603D01*
X209589844Y-94227607D01*
X209544674Y-94356695D01*
X209544673Y-94356700D01*
X209543006Y-94374477D01*
X209541800Y-94387347D01*
X209541800Y-94387353D01*
X209541800Y-94387354D01*
X209541800Y-95146646D01*
X202276104Y-95146646D01*
X202323538Y-95111638D01*
X202404754Y-95001595D01*
X202449926Y-94872501D01*
X202452800Y-94841853D01*
X202452799Y-94082548D01*
X202449926Y-94051899D01*
X202407189Y-93929763D01*
X202404755Y-93922807D01*
X202404753Y-93922804D01*
X202394781Y-93909293D01*
X202340644Y-93835940D01*
X202323539Y-93812763D01*
X202323536Y-93812760D01*
X202213495Y-93731546D01*
X202213492Y-93731544D01*
X202084404Y-93686374D01*
X202084399Y-93686373D01*
X202068461Y-93684879D01*
X202053753Y-93683500D01*
X202053745Y-93683500D01*
X200644453Y-93683500D01*
X200613798Y-93686374D01*
X200484707Y-93731544D01*
X200484704Y-93731546D01*
X200374663Y-93812760D01*
X200374660Y-93812763D01*
X200293448Y-93922800D01*
X200293443Y-93922809D01*
X200268062Y-93995348D01*
X200242665Y-94023768D01*
X200221057Y-94028700D01*
X200062698Y-94028700D01*
X200027484Y-94014114D01*
X200022629Y-94008472D01*
X199964539Y-93929763D01*
X199964536Y-93929760D01*
X199854495Y-93848546D01*
X199854492Y-93848544D01*
X199725404Y-93803374D01*
X199725399Y-93803373D01*
X199709461Y-93801879D01*
X199694753Y-93800500D01*
X199694745Y-93800500D01*
X198685453Y-93800500D01*
X198654798Y-93803374D01*
X198525707Y-93848544D01*
X198525704Y-93848546D01*
X198415663Y-93929760D01*
X198415660Y-93929763D01*
X198334446Y-94039804D01*
X198334444Y-94039807D01*
X198289274Y-94168895D01*
X198289273Y-94168900D01*
X198287606Y-94186677D01*
X198286400Y-94199547D01*
X198286400Y-94199553D01*
X198286400Y-94199554D01*
X198286400Y-94833846D01*
X197882000Y-94833846D01*
X197882000Y-92946500D01*
X197882426Y-92940000D01*
X197898454Y-92818250D01*
X197901817Y-92805701D01*
X197947551Y-92695289D01*
X197954046Y-92684039D01*
X198028807Y-92586609D01*
X198033088Y-92581727D01*
X198107927Y-92506888D01*
X198112809Y-92502607D01*
X198210239Y-92427846D01*
X198221489Y-92421351D01*
X198331901Y-92375617D01*
X198344450Y-92372254D01*
X198466200Y-92356225D01*
X198472700Y-92355800D01*
X211972500Y-92355800D01*
X211978999Y-92356225D01*
G37*
%TD.AperFunction*%
%TD*%
%TA.AperFunction,Conductor*%
%TO.N,Net-(ISEL10A_1-Pad22)*%
G36*
X113690210Y-103874479D02*
G01*
X113699889Y-103875447D01*
X113840398Y-103903581D01*
X113858302Y-103911015D01*
X113973253Y-103987893D01*
X113986975Y-104001621D01*
X114063767Y-104116549D01*
X114071203Y-104134500D01*
X114099143Y-104274961D01*
X114100100Y-104284677D01*
X114100100Y-109116535D01*
X114099674Y-109123036D01*
X114083645Y-109244782D01*
X114080280Y-109257338D01*
X114034550Y-109367741D01*
X114028050Y-109379000D01*
X113955301Y-109473808D01*
X113946108Y-109483001D01*
X113851300Y-109555750D01*
X113840041Y-109562250D01*
X113729638Y-109607980D01*
X113717082Y-109611345D01*
X113626119Y-109623321D01*
X113595334Y-109627374D01*
X113588836Y-109627800D01*
X112891499Y-109627800D01*
X112856285Y-109613214D01*
X112841699Y-109578000D01*
X112841699Y-108929739D01*
X112841699Y-108929734D01*
X112826934Y-108855499D01*
X112770684Y-108771316D01*
X112686501Y-108715066D01*
X112686500Y-108715065D01*
X112627032Y-108703236D01*
X112612267Y-108700300D01*
X112612266Y-108700300D01*
X112409739Y-108700300D01*
X112409732Y-108700301D01*
X112335499Y-108715065D01*
X112251316Y-108771316D01*
X112195065Y-108855500D01*
X112180300Y-108929730D01*
X112180300Y-109578000D01*
X112165714Y-109613214D01*
X112130500Y-109627800D01*
X108518600Y-109627800D01*
X108512101Y-109627374D01*
X108473666Y-109622314D01*
X108390353Y-109611345D01*
X108377797Y-109607980D01*
X108267394Y-109562250D01*
X108256135Y-109555750D01*
X108158717Y-109480998D01*
X108153819Y-109476703D01*
X108091696Y-109414580D01*
X108087401Y-109409682D01*
X108012649Y-109312264D01*
X108006149Y-109301005D01*
X107985552Y-109251280D01*
X107960418Y-109190600D01*
X107957054Y-109178045D01*
X107941026Y-109056299D01*
X107940600Y-109049799D01*
X107940600Y-106718007D01*
X107940600Y-106718004D01*
X107940600Y-106507584D01*
X106348954Y-104915938D01*
X106344744Y-104911150D01*
X106271300Y-104815986D01*
X106264878Y-104805006D01*
X106219208Y-104697295D01*
X106215779Y-104685042D01*
X106198434Y-104566081D01*
X106197921Y-104559749D01*
X106193911Y-104319069D01*
X106194407Y-104311180D01*
X106212684Y-104183558D01*
X106217357Y-104168509D01*
X106272822Y-104056584D01*
X106281966Y-104043749D01*
X106369631Y-103954760D01*
X106382319Y-103945432D01*
X106493402Y-103888297D01*
X106508373Y-103883399D01*
X106635719Y-103863209D01*
X106643588Y-103862596D01*
X113690210Y-103874479D01*
G37*
%TD.AperFunction*%
%TD*%
%TA.AperFunction,Conductor*%
%TO.N,GND*%
G36*
X141123774Y-125304442D02*
G01*
X141124143Y-125304725D01*
X141133301Y-125313891D01*
X141206050Y-125408699D01*
X141212550Y-125419958D01*
X141258280Y-125530361D01*
X141261645Y-125542917D01*
X141277674Y-125664663D01*
X141278100Y-125671164D01*
X141278100Y-127261599D01*
X141277674Y-127268100D01*
X141261645Y-127389846D01*
X141258280Y-127402402D01*
X141212550Y-127512805D01*
X141206050Y-127524064D01*
X141131298Y-127621482D01*
X141127003Y-127626380D01*
X140988680Y-127764703D01*
X140983782Y-127768998D01*
X140886364Y-127843750D01*
X140875105Y-127850250D01*
X140764702Y-127895980D01*
X140752146Y-127899345D01*
X140661183Y-127911321D01*
X140630398Y-127915374D01*
X140623900Y-127915800D01*
X134985400Y-127915800D01*
X134978901Y-127915374D01*
X134940466Y-127910314D01*
X134857153Y-127899345D01*
X134844597Y-127895980D01*
X134734194Y-127850250D01*
X134722935Y-127843750D01*
X134625517Y-127768998D01*
X134620619Y-127764703D01*
X133739129Y-126883213D01*
X133724543Y-126847999D01*
X133739129Y-126812785D01*
X133774343Y-126798199D01*
X134331200Y-126798199D01*
X134331200Y-126518800D01*
X134839200Y-126518800D01*
X134839200Y-126798199D01*
X135735611Y-126798199D01*
X135735620Y-126798198D01*
X135761090Y-126795244D01*
X135865336Y-126749215D01*
X135945914Y-126668637D01*
X135991945Y-126564390D01*
X135994899Y-126538919D01*
X135994900Y-126538913D01*
X135994900Y-126518800D01*
X134839200Y-126518800D01*
X134331200Y-126518800D01*
X134331200Y-126060600D01*
X134345786Y-126025386D01*
X134381000Y-126010800D01*
X135997566Y-126010800D01*
X136028227Y-125998100D01*
X136110692Y-125998100D01*
X136110696Y-125998100D01*
X136321116Y-125998100D01*
X136365408Y-125953807D01*
X136386509Y-125974909D01*
X136390300Y-125993966D01*
X136390300Y-126131806D01*
X136396752Y-126191834D01*
X136447402Y-126327627D01*
X136534252Y-126443646D01*
X136534253Y-126443647D01*
X136650272Y-126530497D01*
X136650271Y-126530497D01*
X136786064Y-126581146D01*
X136846094Y-126587599D01*
X137290300Y-126587599D01*
X137798300Y-126587599D01*
X138242505Y-126587599D01*
X138302534Y-126581147D01*
X138438327Y-126530497D01*
X138554346Y-126443647D01*
X138554347Y-126443646D01*
X138641197Y-126327627D01*
X138672390Y-126244000D01*
X138698363Y-126216104D01*
X138736454Y-126214744D01*
X138764350Y-126240717D01*
X138765710Y-126244000D01*
X138796902Y-126327627D01*
X138883752Y-126443646D01*
X138883753Y-126443647D01*
X138999772Y-126530497D01*
X138999771Y-126530497D01*
X139135564Y-126581146D01*
X139195594Y-126587599D01*
X139639800Y-126587599D01*
X139639800Y-126012600D01*
X140147800Y-126012600D01*
X140147800Y-126587599D01*
X140592005Y-126587599D01*
X140652034Y-126581147D01*
X140787827Y-126530497D01*
X140903846Y-126443647D01*
X140903847Y-126443646D01*
X140990697Y-126327627D01*
X141041346Y-126191835D01*
X141047800Y-126131805D01*
X141047800Y-126012600D01*
X140147800Y-126012600D01*
X139639800Y-126012600D01*
X138719173Y-126012600D01*
X138719173Y-126012588D01*
X138718847Y-126012722D01*
X138718554Y-126012600D01*
X137798300Y-126012600D01*
X137798300Y-126587599D01*
X137290300Y-126587599D01*
X137290300Y-125554400D01*
X137304886Y-125519186D01*
X137340100Y-125504600D01*
X138718552Y-125504600D01*
X138718846Y-125504477D01*
X138719172Y-125504610D01*
X138719172Y-125504600D01*
X141047799Y-125504600D01*
X141047799Y-125385394D01*
X141043914Y-125349250D01*
X141054653Y-125312679D01*
X141088107Y-125294413D01*
X141123774Y-125304442D01*
G37*
%TD.AperFunction*%
%TD*%
%TA.AperFunction,Conductor*%
%TO.N,Net-(F2-Pad2)*%
G36*
X113654851Y-98795125D02*
G01*
X113761195Y-98809126D01*
X113773748Y-98812490D01*
X113869800Y-98852276D01*
X113881058Y-98858775D01*
X113963540Y-98922066D01*
X113972733Y-98931259D01*
X114036024Y-99013741D01*
X114042524Y-99025000D01*
X114082308Y-99121049D01*
X114085673Y-99133605D01*
X114099674Y-99239947D01*
X114100100Y-99246448D01*
X114100100Y-100239235D01*
X114099674Y-100245736D01*
X114083645Y-100367482D01*
X114080280Y-100380038D01*
X114034550Y-100490441D01*
X114028050Y-100501700D01*
X113955301Y-100596508D01*
X113946108Y-100605701D01*
X113851300Y-100678450D01*
X113840041Y-100684950D01*
X113729638Y-100730680D01*
X113717082Y-100734045D01*
X113626119Y-100746021D01*
X113595334Y-100750074D01*
X113588836Y-100750500D01*
X112801493Y-100750500D01*
X112766279Y-100735914D01*
X112760085Y-100728366D01*
X112759584Y-100727616D01*
X112722370Y-100702750D01*
X112675401Y-100671366D01*
X112675400Y-100671365D01*
X112615932Y-100659536D01*
X112601167Y-100656600D01*
X112601166Y-100656600D01*
X112398639Y-100656600D01*
X112398632Y-100656601D01*
X112324399Y-100671365D01*
X112240215Y-100727616D01*
X112239715Y-100728366D01*
X112238964Y-100728867D01*
X112236748Y-100731084D01*
X112236307Y-100730643D01*
X112208025Y-100749543D01*
X112198307Y-100750500D01*
X111420645Y-100750500D01*
X111419836Y-100750493D01*
X111419180Y-100750482D01*
X111404560Y-100750244D01*
X111402941Y-100750192D01*
X111387556Y-100749440D01*
X111386755Y-100749393D01*
X111366992Y-100748104D01*
X111105598Y-100731055D01*
X111096357Y-100729571D01*
X110992760Y-100702750D01*
X110975913Y-100694787D01*
X110893296Y-100634581D01*
X110880554Y-100620982D01*
X110825851Y-100534619D01*
X110819001Y-100517288D01*
X110798979Y-100412163D01*
X110798100Y-100402846D01*
X110798100Y-99246448D01*
X110798526Y-99239948D01*
X110798526Y-99239947D01*
X110812526Y-99133602D01*
X110815889Y-99121053D01*
X110855677Y-99024995D01*
X110862172Y-99013745D01*
X110925470Y-98931254D01*
X110934654Y-98922070D01*
X111017145Y-98858772D01*
X111028395Y-98852277D01*
X111124453Y-98812489D01*
X111137002Y-98809126D01*
X111243348Y-98795125D01*
X111249848Y-98794700D01*
X113648352Y-98794700D01*
X113654851Y-98795125D01*
G37*
%TD.AperFunction*%
%TD*%
%TA.AperFunction,Conductor*%
%TO.N,Net-(IC2-DCDC_HGND)*%
G36*
X122502014Y-101120686D02*
G01*
X122516600Y-101155900D01*
X122506667Y-101185744D01*
X122451767Y-101259079D01*
X122403633Y-101388131D01*
X122403632Y-101388134D01*
X122397500Y-101445185D01*
X122397500Y-101462000D01*
X123874258Y-101462000D01*
X123877450Y-101460678D01*
X123880642Y-101462000D01*
X125357400Y-101462000D01*
X125357400Y-101445185D01*
X125351267Y-101388134D01*
X125351266Y-101388131D01*
X125303132Y-101259079D01*
X125248607Y-101186244D01*
X125239181Y-101149313D01*
X125258630Y-101116533D01*
X125288474Y-101106600D01*
X126047356Y-101106600D01*
X126082570Y-101121186D01*
X126348703Y-101387319D01*
X126363289Y-101422533D01*
X126348703Y-101457747D01*
X126333605Y-101468089D01*
X126294665Y-101485283D01*
X126294664Y-101485284D01*
X126214085Y-101565862D01*
X126168054Y-101670109D01*
X126165100Y-101695580D01*
X126165100Y-101715700D01*
X126571500Y-101715700D01*
X126571500Y-102223700D01*
X126165101Y-102223700D01*
X126165101Y-102243820D01*
X126168055Y-102269290D01*
X126214084Y-102373536D01*
X126294662Y-102454114D01*
X126398910Y-102500145D01*
X126398909Y-102500145D01*
X126424383Y-102503099D01*
X126521699Y-102503099D01*
X126556914Y-102517685D01*
X126571500Y-102552898D01*
X126571500Y-102706800D01*
X126556914Y-102742014D01*
X126521701Y-102756600D01*
X126444840Y-102756600D01*
X126444831Y-102756601D01*
X126370599Y-102771365D01*
X126291219Y-102824407D01*
X126263551Y-102832800D01*
X126184852Y-102832800D01*
X126157747Y-102841606D01*
X126150152Y-102843430D01*
X126121994Y-102847890D01*
X126096598Y-102860830D01*
X126089382Y-102863819D01*
X126062265Y-102872631D01*
X126039209Y-102889382D01*
X126032550Y-102893464D01*
X126007148Y-102906408D01*
X125663043Y-103250514D01*
X125627829Y-103265100D01*
X125584884Y-103265100D01*
X125229584Y-103620400D01*
X123899400Y-103620400D01*
X123899400Y-103637214D01*
X123905532Y-103694265D01*
X123928819Y-103756696D01*
X123927459Y-103794787D01*
X123899563Y-103820760D01*
X123882159Y-103823900D01*
X123342971Y-103823900D01*
X123307757Y-103809314D01*
X122610843Y-103112400D01*
X123899400Y-103112400D01*
X124374400Y-103112400D01*
X124374400Y-102662400D01*
X124882400Y-102662400D01*
X124882400Y-103112400D01*
X125357400Y-103112400D01*
X125357400Y-103095585D01*
X125351267Y-103038534D01*
X125351266Y-103038531D01*
X125303132Y-102909479D01*
X125220587Y-102799214D01*
X125220585Y-102799212D01*
X125110319Y-102716667D01*
X125110320Y-102716667D01*
X124981268Y-102668533D01*
X124981265Y-102668532D01*
X124924215Y-102662400D01*
X124882400Y-102662400D01*
X124374400Y-102662400D01*
X124332585Y-102662400D01*
X124275534Y-102668532D01*
X124275531Y-102668533D01*
X124146479Y-102716667D01*
X124036214Y-102799212D01*
X124036212Y-102799214D01*
X123953667Y-102909479D01*
X123905533Y-103038531D01*
X123905532Y-103038534D01*
X123899400Y-103095585D01*
X123899400Y-103112400D01*
X122610843Y-103112400D01*
X122306686Y-102808243D01*
X122292100Y-102773029D01*
X122292100Y-101970000D01*
X122397500Y-101970000D01*
X122397500Y-101986814D01*
X122403632Y-102043865D01*
X122403633Y-102043868D01*
X122451767Y-102172920D01*
X122534312Y-102283185D01*
X122534314Y-102283187D01*
X122644580Y-102365732D01*
X122644579Y-102365732D01*
X122773631Y-102413866D01*
X122773634Y-102413867D01*
X122830685Y-102420000D01*
X122872500Y-102420000D01*
X122872500Y-101970000D01*
X123380500Y-101970000D01*
X123380500Y-102420000D01*
X123422315Y-102420000D01*
X123479365Y-102413867D01*
X123479368Y-102413866D01*
X123608420Y-102365732D01*
X123718685Y-102283187D01*
X123718687Y-102283185D01*
X123801232Y-102172920D01*
X123830790Y-102093673D01*
X123856762Y-102065776D01*
X123894853Y-102064416D01*
X123922750Y-102090388D01*
X123924110Y-102093673D01*
X123953667Y-102172920D01*
X124036212Y-102283185D01*
X124036214Y-102283187D01*
X124146480Y-102365732D01*
X124146479Y-102365732D01*
X124275531Y-102413866D01*
X124275534Y-102413867D01*
X124332585Y-102420000D01*
X124374400Y-102420000D01*
X124374400Y-101970000D01*
X124882400Y-101970000D01*
X124882400Y-102420000D01*
X124924215Y-102420000D01*
X124981265Y-102413867D01*
X124981268Y-102413866D01*
X125110320Y-102365732D01*
X125220585Y-102283187D01*
X125220587Y-102283185D01*
X125303132Y-102172920D01*
X125351266Y-102043868D01*
X125351267Y-102043865D01*
X125357400Y-101986814D01*
X125357400Y-101970000D01*
X124882400Y-101970000D01*
X124374400Y-101970000D01*
X123880642Y-101970000D01*
X123877450Y-101971322D01*
X123874258Y-101970000D01*
X123380500Y-101970000D01*
X122872500Y-101970000D01*
X122397500Y-101970000D01*
X122292100Y-101970000D01*
X122292100Y-101155900D01*
X122306686Y-101120686D01*
X122341900Y-101106100D01*
X122466800Y-101106100D01*
X122502014Y-101120686D01*
G37*
%TD.AperFunction*%
%TD*%
%TA.AperFunction,Conductor*%
%TO.N,AIN1N*%
G36*
X124118909Y-124679186D02*
G01*
X124133495Y-124714400D01*
X124133164Y-124720130D01*
X124133100Y-124720678D01*
X124133100Y-124740800D01*
X125738759Y-124740800D01*
X125758326Y-124753874D01*
X125796800Y-124811454D01*
X125796800Y-125127345D01*
X125758326Y-125184926D01*
X125662732Y-125248800D01*
X124133101Y-125248800D01*
X124133101Y-125268920D01*
X124136055Y-125294390D01*
X124182084Y-125398636D01*
X124214552Y-125431104D01*
X124229138Y-125466318D01*
X124214552Y-125501532D01*
X123964393Y-125751690D01*
X123964389Y-125751694D01*
X123815600Y-125900484D01*
X123815600Y-126110896D01*
X123815600Y-127667999D01*
X123815174Y-127674500D01*
X123799145Y-127796246D01*
X123795780Y-127808802D01*
X123750050Y-127919205D01*
X123743550Y-127930464D01*
X123668798Y-128027882D01*
X123664503Y-128032780D01*
X123589680Y-128107603D01*
X123584782Y-128111898D01*
X123487364Y-128186650D01*
X123476105Y-128193150D01*
X123365702Y-128238880D01*
X123353146Y-128242245D01*
X123262183Y-128254221D01*
X123231398Y-128258274D01*
X123224900Y-128258700D01*
X119330868Y-128258700D01*
X119321152Y-128257743D01*
X119197236Y-128233094D01*
X119179285Y-128225658D01*
X119078394Y-128158245D01*
X119064654Y-128144505D01*
X119041538Y-128109910D01*
X118997240Y-128043613D01*
X118989805Y-128025662D01*
X118965157Y-127901747D01*
X118964200Y-127892032D01*
X118964200Y-127286767D01*
X118978786Y-127251553D01*
X119014000Y-127236967D01*
X119031654Y-127241482D01*
X119032038Y-127240454D01*
X119171164Y-127292346D01*
X119231194Y-127298799D01*
X119675400Y-127298799D01*
X120183400Y-127298799D01*
X120627605Y-127298799D01*
X120687634Y-127292347D01*
X120823427Y-127241697D01*
X120939446Y-127154847D01*
X120939447Y-127154846D01*
X121026297Y-127038827D01*
X121057490Y-126955200D01*
X121083463Y-126927304D01*
X121121554Y-126925944D01*
X121149450Y-126951917D01*
X121150810Y-126955200D01*
X121182002Y-127038827D01*
X121268852Y-127154846D01*
X121268853Y-127154847D01*
X121384872Y-127241697D01*
X121384871Y-127241697D01*
X121520664Y-127292346D01*
X121580694Y-127298799D01*
X122024900Y-127298799D01*
X122024900Y-126723800D01*
X122532900Y-126723800D01*
X122532900Y-127298799D01*
X122977105Y-127298799D01*
X123037134Y-127292347D01*
X123172927Y-127241697D01*
X123288946Y-127154847D01*
X123288947Y-127154846D01*
X123375797Y-127038827D01*
X123426446Y-126903035D01*
X123432900Y-126843005D01*
X123432900Y-126723800D01*
X122532900Y-126723800D01*
X122024900Y-126723800D01*
X121104273Y-126723800D01*
X121104273Y-126723788D01*
X121103947Y-126723922D01*
X121103654Y-126723800D01*
X120183400Y-126723800D01*
X120183400Y-127298799D01*
X119675400Y-127298799D01*
X119675400Y-125640800D01*
X120183400Y-125640800D01*
X120183400Y-126215800D01*
X121103652Y-126215800D01*
X121103946Y-126215677D01*
X121104272Y-126215810D01*
X121104272Y-126215800D01*
X122024900Y-126215800D01*
X122024900Y-125640800D01*
X122532900Y-125640800D01*
X122532900Y-126215800D01*
X123432899Y-126215800D01*
X123432899Y-126096594D01*
X123426447Y-126036565D01*
X123375797Y-125900772D01*
X123288947Y-125784753D01*
X123288946Y-125784752D01*
X123172927Y-125697902D01*
X123172928Y-125697902D01*
X123037135Y-125647253D01*
X122977106Y-125640800D01*
X122532900Y-125640800D01*
X122024900Y-125640800D01*
X121580693Y-125640800D01*
X121520665Y-125647252D01*
X121384872Y-125697902D01*
X121268853Y-125784752D01*
X121268852Y-125784753D01*
X121182002Y-125900772D01*
X121150809Y-125984399D01*
X121124836Y-126012295D01*
X121086745Y-126013655D01*
X121058849Y-125987682D01*
X121057489Y-125984398D01*
X121026298Y-125900773D01*
X121026297Y-125900772D01*
X120939447Y-125784753D01*
X120939446Y-125784752D01*
X120823427Y-125697902D01*
X120823428Y-125697902D01*
X120687635Y-125647253D01*
X120627606Y-125640800D01*
X120183400Y-125640800D01*
X119675400Y-125640800D01*
X119231193Y-125640800D01*
X119171165Y-125647252D01*
X119032038Y-125699146D01*
X119031329Y-125697246D01*
X118999959Y-125700612D01*
X118970286Y-125676688D01*
X118964200Y-125652832D01*
X118964200Y-125074627D01*
X118965157Y-125064912D01*
X118993106Y-124924402D01*
X119000539Y-124906456D01*
X119077356Y-124791491D01*
X119091091Y-124777756D01*
X119206056Y-124700939D01*
X119224002Y-124693506D01*
X119364513Y-124665557D01*
X119374228Y-124664600D01*
X124083695Y-124664600D01*
X124118909Y-124679186D01*
G37*
%TD.AperFunction*%
%TD*%
%TA.AperFunction,Conductor*%
%TO.N,AIN4P*%
G36*
X89874370Y-107991386D02*
G01*
X91212814Y-109329830D01*
X91227400Y-109365044D01*
X91227400Y-111084356D01*
X91212814Y-111119570D01*
X90776570Y-111555814D01*
X90741356Y-111570400D01*
X86573910Y-111570400D01*
X86554854Y-111566609D01*
X86553800Y-111566173D01*
X86553799Y-111566173D01*
X86543595Y-111570400D01*
X86543595Y-111570399D01*
X86514537Y-111582434D01*
X86514536Y-111582435D01*
X86514536Y-111582436D01*
X86498273Y-111621700D01*
X86498709Y-111622754D01*
X86502500Y-111641810D01*
X86502500Y-111991000D01*
X86487914Y-112026214D01*
X86452700Y-112040800D01*
X84601944Y-112040800D01*
X84566730Y-112026214D01*
X84358512Y-111817996D01*
X84343926Y-111782782D01*
X84343926Y-111782610D01*
X84344478Y-111622751D01*
X84356879Y-108026428D01*
X84371587Y-107991265D01*
X84406679Y-107976800D01*
X89839156Y-107976800D01*
X89874370Y-107991386D01*
G37*
%TD.AperFunction*%
%TD*%
%TA.AperFunction,Conductor*%
%TO.N,AIN2N*%
G36*
X96225795Y-119757068D02*
G01*
X96284839Y-119768812D01*
X96303937Y-119776722D01*
X96349570Y-119807214D01*
X96364185Y-119821829D01*
X96394677Y-119867462D01*
X96402587Y-119886559D01*
X96414332Y-119945603D01*
X96415350Y-119955938D01*
X96415350Y-123054575D01*
X96414897Y-123061490D01*
X96398950Y-123182614D01*
X96395371Y-123195971D01*
X96349959Y-123305607D01*
X96343044Y-123317585D01*
X96270805Y-123411727D01*
X96261027Y-123421505D01*
X96166885Y-123493744D01*
X96154907Y-123500659D01*
X96045271Y-123546071D01*
X96031914Y-123549650D01*
X95910791Y-123565597D01*
X95903876Y-123566050D01*
X88983580Y-123566050D01*
X88976665Y-123565597D01*
X88855541Y-123549650D01*
X88842184Y-123546071D01*
X88732548Y-123500659D01*
X88720571Y-123493744D01*
X88623650Y-123419373D01*
X88618440Y-123414804D01*
X88324295Y-123120659D01*
X88319726Y-123115449D01*
X88245353Y-123018525D01*
X88238440Y-123006551D01*
X88193028Y-122896915D01*
X88189449Y-122883558D01*
X88173503Y-122762434D01*
X88173050Y-122755519D01*
X88173050Y-120381706D01*
X88174067Y-120371375D01*
X88177993Y-120351638D01*
X88200519Y-120317928D01*
X88229950Y-120309000D01*
X92362358Y-120309000D01*
X92382628Y-120313031D01*
X92383100Y-120313227D01*
X92422364Y-120296964D01*
X92434400Y-120267905D01*
X92438627Y-120257700D01*
X92438432Y-120257229D01*
X92434400Y-120236958D01*
X92434400Y-119878756D01*
X92443327Y-119849327D01*
X92443605Y-119848910D01*
X92450711Y-119838275D01*
X92465322Y-119823663D01*
X92529178Y-119780995D01*
X92548269Y-119773087D01*
X92628807Y-119757067D01*
X92639142Y-119756050D01*
X96215461Y-119756050D01*
X96225795Y-119757068D01*
G37*
%TD.AperFunction*%
%TD*%
%TA.AperFunction,Conductor*%
%TO.N,GND*%
G36*
X209036114Y-101984286D02*
G01*
X209050700Y-102019500D01*
X209050700Y-102312600D01*
X210858699Y-102312600D01*
X210858699Y-102024884D01*
X210873285Y-101989670D01*
X210908499Y-101975084D01*
X210914990Y-101975509D01*
X210995847Y-101986154D01*
X211008400Y-101989518D01*
X211118806Y-102035250D01*
X211130064Y-102041749D01*
X211227482Y-102116501D01*
X211232380Y-102120796D01*
X211446903Y-102335319D01*
X211451198Y-102340217D01*
X211525950Y-102437635D01*
X211532450Y-102448894D01*
X211578180Y-102559297D01*
X211581545Y-102571853D01*
X211597574Y-102693599D01*
X211598000Y-102700100D01*
X211598000Y-109890513D01*
X211583414Y-109925727D01*
X211548200Y-109940313D01*
X211512986Y-109925727D01*
X211361424Y-109774165D01*
X211352058Y-109761147D01*
X211350556Y-109758130D01*
X211350122Y-109757734D01*
X211344981Y-109753048D01*
X211336194Y-109742466D01*
X211332227Y-109736058D01*
X211332226Y-109736057D01*
X211299785Y-109711558D01*
X211296248Y-109708620D01*
X211266206Y-109681235D01*
X211266204Y-109681233D01*
X211259171Y-109678508D01*
X211247157Y-109671816D01*
X211241140Y-109667272D01*
X211234665Y-109665430D01*
X211228186Y-109663090D01*
X211228153Y-109663075D01*
X211219094Y-109660944D01*
X211216874Y-109660367D01*
X211202047Y-109656149D01*
X211197684Y-109654687D01*
X211159773Y-109640000D01*
X211159770Y-109640000D01*
X211152233Y-109640000D01*
X211138604Y-109638099D01*
X211138386Y-109638037D01*
X211131357Y-109636037D01*
X211123503Y-109636764D01*
X211117298Y-109636907D01*
X211109196Y-109638037D01*
X211106916Y-109638301D01*
X211096862Y-109639232D01*
X211090884Y-109639787D01*
X211086289Y-109640000D01*
X211000399Y-109640000D01*
X210965185Y-109625414D01*
X210950599Y-109590200D01*
X210950599Y-109221039D01*
X210950599Y-109221034D01*
X210935834Y-109146799D01*
X210879584Y-109062616D01*
X210795401Y-109006366D01*
X210795400Y-109006365D01*
X210735932Y-108994536D01*
X210721167Y-108991600D01*
X210721166Y-108991600D01*
X209472639Y-108991600D01*
X209472632Y-108991601D01*
X209398399Y-109006365D01*
X209314216Y-109062616D01*
X209257965Y-109146800D01*
X209243200Y-109221030D01*
X209243200Y-110669560D01*
X209243201Y-110669567D01*
X209257965Y-110743800D01*
X209257966Y-110743801D01*
X209314216Y-110827984D01*
X209398399Y-110884234D01*
X209472633Y-110899000D01*
X210721166Y-110898999D01*
X210795401Y-110884234D01*
X210879584Y-110827984D01*
X210935834Y-110743801D01*
X210950600Y-110669567D01*
X210950600Y-110347087D01*
X210965186Y-110311873D01*
X211000400Y-110297287D01*
X211035614Y-110311873D01*
X211490814Y-110767073D01*
X211505400Y-110802287D01*
X211505400Y-115649437D01*
X211490814Y-115684651D01*
X211455600Y-115699237D01*
X211425284Y-115688946D01*
X211408770Y-115676274D01*
X211311143Y-115635836D01*
X211261133Y-115615121D01*
X211261129Y-115615120D01*
X211261128Y-115615120D01*
X211232437Y-115611343D01*
X211199428Y-115592285D01*
X211189563Y-115555469D01*
X211199427Y-115531653D01*
X211226426Y-115496469D01*
X211287579Y-115348833D01*
X211308437Y-115190400D01*
X211287579Y-115031967D01*
X211226426Y-114884332D01*
X211226425Y-114884331D01*
X211226425Y-114884330D01*
X211129147Y-114757555D01*
X211024120Y-114676964D01*
X211005063Y-114643955D01*
X211014927Y-114607139D01*
X211112126Y-114480469D01*
X211173279Y-114332833D01*
X211194137Y-114174400D01*
X211173279Y-114015967D01*
X211112126Y-113868332D01*
X211112125Y-113868331D01*
X211112125Y-113868330D01*
X211014847Y-113741555D01*
X211014844Y-113741552D01*
X210888070Y-113644274D01*
X210826917Y-113618943D01*
X210740433Y-113583121D01*
X210740429Y-113583120D01*
X210740428Y-113583120D01*
X210582000Y-113562263D01*
X210423571Y-113583120D01*
X210423562Y-113583122D01*
X210381698Y-113600463D01*
X210343583Y-113600463D01*
X210327427Y-113589668D01*
X208455557Y-111717798D01*
X208440971Y-111682584D01*
X208455557Y-111647370D01*
X208484271Y-111633210D01*
X208517933Y-111628779D01*
X208665569Y-111567626D01*
X208792346Y-111470346D01*
X208889626Y-111343569D01*
X208950779Y-111195933D01*
X208971637Y-111037500D01*
X208950968Y-110880504D01*
X208960833Y-110843690D01*
X208972672Y-110832601D01*
X208979584Y-110827984D01*
X209035834Y-110743801D01*
X209050600Y-110669567D01*
X209050599Y-109221034D01*
X209035834Y-109146799D01*
X208979584Y-109062616D01*
X208895401Y-109006366D01*
X208895400Y-109006365D01*
X208821169Y-108991600D01*
X207597560Y-108991600D01*
X207562346Y-108977014D01*
X207547813Y-108944096D01*
X207547453Y-108936291D01*
X207547400Y-108933996D01*
X207547400Y-108913916D01*
X207547400Y-108913911D01*
X207546731Y-108910332D01*
X207545935Y-108903477D01*
X207544438Y-108871090D01*
X207538026Y-108856570D01*
X207534632Y-108845612D01*
X207531715Y-108830003D01*
X207514638Y-108802425D01*
X207511428Y-108796333D01*
X207498334Y-108766675D01*
X207487109Y-108755450D01*
X207479981Y-108746451D01*
X207471626Y-108732957D01*
X207445755Y-108713420D01*
X207440552Y-108708893D01*
X207019073Y-108287414D01*
X207004487Y-108252200D01*
X207019073Y-108216986D01*
X207054287Y-108202400D01*
X207754000Y-108202400D01*
X207789214Y-108216986D01*
X207803800Y-108252200D01*
X207803800Y-108392736D01*
X207805013Y-108405674D01*
X207806515Y-108421698D01*
X207806516Y-108421703D01*
X207849197Y-108543678D01*
X207849198Y-108543680D01*
X207849199Y-108543681D01*
X207925940Y-108647660D01*
X208029919Y-108724401D01*
X208029920Y-108724401D01*
X208029921Y-108724402D01*
X208151896Y-108767083D01*
X208151898Y-108767083D01*
X208151900Y-108767084D01*
X208180864Y-108769800D01*
X208180870Y-108769800D01*
X208734130Y-108769800D01*
X208734136Y-108769800D01*
X208763100Y-108767084D01*
X208885081Y-108724401D01*
X208989060Y-108647660D01*
X209065801Y-108543681D01*
X209108484Y-108421700D01*
X209111200Y-108392736D01*
X209111200Y-108345100D01*
X209303500Y-108345100D01*
X209303500Y-108386914D01*
X209309632Y-108443965D01*
X209309633Y-108443968D01*
X209357767Y-108573020D01*
X209440312Y-108683285D01*
X209440314Y-108683287D01*
X209550580Y-108765832D01*
X209550579Y-108765832D01*
X209679631Y-108813966D01*
X209679634Y-108813967D01*
X209736685Y-108820100D01*
X209753500Y-108820100D01*
X209753500Y-108345100D01*
X210261500Y-108345100D01*
X210261500Y-108820100D01*
X210278315Y-108820100D01*
X210335365Y-108813967D01*
X210335368Y-108813966D01*
X210464420Y-108765832D01*
X210574685Y-108683287D01*
X210574687Y-108683285D01*
X210657232Y-108573020D01*
X210705366Y-108443968D01*
X210705367Y-108443965D01*
X210711500Y-108386914D01*
X210711500Y-108345100D01*
X210261500Y-108345100D01*
X209753500Y-108345100D01*
X209303500Y-108345100D01*
X209111200Y-108345100D01*
X209111200Y-107789464D01*
X209108484Y-107760500D01*
X209081540Y-107683499D01*
X209065802Y-107638521D01*
X209044146Y-107609179D01*
X209027112Y-107586099D01*
X209017938Y-107549105D01*
X209021173Y-107537469D01*
X209024971Y-107528300D01*
X209052379Y-107462133D01*
X209073237Y-107303700D01*
X209052379Y-107145267D01*
X209030910Y-107093437D01*
X209030910Y-107055321D01*
X209036851Y-107044806D01*
X209065800Y-107005582D01*
X209065801Y-107005581D01*
X209108484Y-106883600D01*
X209111200Y-106854636D01*
X209111200Y-106807000D01*
X209303500Y-106807000D01*
X209303500Y-106848814D01*
X209309632Y-106905865D01*
X209309633Y-106905868D01*
X209357767Y-107034920D01*
X209440312Y-107145185D01*
X209440314Y-107145187D01*
X209550580Y-107227732D01*
X209550579Y-107227732D01*
X209678354Y-107275390D01*
X209706251Y-107301362D01*
X209707611Y-107339453D01*
X209681639Y-107367350D01*
X209678354Y-107368710D01*
X209550579Y-107416367D01*
X209440314Y-107498912D01*
X209440312Y-107498914D01*
X209357767Y-107609179D01*
X209309633Y-107738231D01*
X209309632Y-107738234D01*
X209303500Y-107795285D01*
X209303500Y-107837100D01*
X209753500Y-107837100D01*
X209753500Y-107362100D01*
X209748664Y-107357264D01*
X209734078Y-107322050D01*
X209748664Y-107286836D01*
X209753500Y-107282000D01*
X209753500Y-106807000D01*
X210261500Y-106807000D01*
X210261500Y-107282000D01*
X210266336Y-107286836D01*
X210280922Y-107322050D01*
X210266336Y-107357264D01*
X210261500Y-107362100D01*
X210261500Y-107837100D01*
X210711500Y-107837100D01*
X210711500Y-107795285D01*
X210705367Y-107738234D01*
X210705366Y-107738231D01*
X210657232Y-107609179D01*
X210574687Y-107498914D01*
X210574685Y-107498912D01*
X210464419Y-107416367D01*
X210464420Y-107416367D01*
X210336645Y-107368710D01*
X210308748Y-107342738D01*
X210307388Y-107304647D01*
X210333360Y-107276750D01*
X210336645Y-107275390D01*
X210464420Y-107227732D01*
X210574685Y-107145187D01*
X210574687Y-107145185D01*
X210657232Y-107034920D01*
X210705366Y-106905868D01*
X210705367Y-106905865D01*
X210711500Y-106848814D01*
X210711500Y-106807000D01*
X210261500Y-106807000D01*
X209753500Y-106807000D01*
X209303500Y-106807000D01*
X209111200Y-106807000D01*
X209111200Y-106299000D01*
X209303500Y-106299000D01*
X209753500Y-106299000D01*
X209753500Y-105824000D01*
X210261500Y-105824000D01*
X210261500Y-106299000D01*
X210711500Y-106299000D01*
X210711500Y-106257185D01*
X210705367Y-106200134D01*
X210705366Y-106200131D01*
X210657232Y-106071079D01*
X210574687Y-105960814D01*
X210574685Y-105960812D01*
X210464419Y-105878267D01*
X210464420Y-105878267D01*
X210335368Y-105830133D01*
X210335365Y-105830132D01*
X210278315Y-105824000D01*
X210261500Y-105824000D01*
X209753500Y-105824000D01*
X209736685Y-105824000D01*
X209679634Y-105830132D01*
X209679631Y-105830133D01*
X209550579Y-105878267D01*
X209440314Y-105960812D01*
X209440312Y-105960814D01*
X209357767Y-106071079D01*
X209309633Y-106200131D01*
X209309632Y-106200134D01*
X209303500Y-106257185D01*
X209303500Y-106299000D01*
X209111200Y-106299000D01*
X209111200Y-106251364D01*
X209108484Y-106222400D01*
X209080228Y-106141650D01*
X209065802Y-106100421D01*
X209065801Y-106100419D01*
X208989060Y-105996440D01*
X208885081Y-105919699D01*
X208885080Y-105919698D01*
X208885078Y-105919697D01*
X208763103Y-105877016D01*
X208763098Y-105877015D01*
X208745982Y-105875410D01*
X208734136Y-105874300D01*
X208180864Y-105874300D01*
X208169773Y-105875339D01*
X208151901Y-105877015D01*
X208151896Y-105877016D01*
X208029921Y-105919697D01*
X207925940Y-105996440D01*
X207849197Y-106100421D01*
X207806516Y-106222396D01*
X207806515Y-106222401D01*
X207804839Y-106240273D01*
X207803800Y-106251364D01*
X207803800Y-106854636D01*
X207805013Y-106867574D01*
X207806515Y-106883598D01*
X207806516Y-106883603D01*
X207849197Y-107005578D01*
X207849199Y-107005581D01*
X207882761Y-107051056D01*
X207891936Y-107088050D01*
X207888701Y-107099685D01*
X207869822Y-107145262D01*
X207869820Y-107145271D01*
X207848963Y-107303700D01*
X207869820Y-107462128D01*
X207869822Y-107462137D01*
X207873967Y-107472143D01*
X207873967Y-107510258D01*
X207847015Y-107537209D01*
X207827958Y-107541000D01*
X206548319Y-107541000D01*
X206538604Y-107540043D01*
X206507051Y-107533767D01*
X206479567Y-107528300D01*
X206479566Y-107528300D01*
X204867339Y-107528300D01*
X204867332Y-107528301D01*
X204793099Y-107543065D01*
X204708916Y-107599316D01*
X204652665Y-107683500D01*
X204637900Y-107757730D01*
X204637900Y-107985660D01*
X204637901Y-107985667D01*
X204652665Y-108059899D01*
X204675472Y-108094033D01*
X204682907Y-108131416D01*
X204675472Y-108149367D01*
X204652665Y-108183500D01*
X204637900Y-108257730D01*
X204637900Y-108485660D01*
X204637901Y-108485667D01*
X204652665Y-108559899D01*
X204675472Y-108594033D01*
X204682907Y-108631416D01*
X204675472Y-108649367D01*
X204652665Y-108683500D01*
X204637900Y-108757730D01*
X204637900Y-108985660D01*
X204637901Y-108985667D01*
X204652665Y-109059899D01*
X204675472Y-109094033D01*
X204682907Y-109131416D01*
X204675472Y-109149367D01*
X204652665Y-109183500D01*
X204637900Y-109257730D01*
X204637900Y-109485660D01*
X204637901Y-109485667D01*
X204652665Y-109559899D01*
X204675472Y-109594033D01*
X204682907Y-109631416D01*
X204675472Y-109649367D01*
X204652665Y-109683500D01*
X204637900Y-109757730D01*
X204637900Y-109985660D01*
X204637901Y-109985667D01*
X204652665Y-110059899D01*
X204675472Y-110094033D01*
X204682907Y-110131416D01*
X204675472Y-110149367D01*
X204652665Y-110183500D01*
X204637900Y-110257730D01*
X204637900Y-110485660D01*
X204637901Y-110485667D01*
X204652665Y-110559899D01*
X204675472Y-110594033D01*
X204682907Y-110631416D01*
X204675472Y-110649367D01*
X204652665Y-110683500D01*
X204637900Y-110757730D01*
X204637900Y-110985660D01*
X204637901Y-110985670D01*
X204652712Y-111060136D01*
X204645275Y-111097519D01*
X204639089Y-111105058D01*
X204636585Y-111107562D01*
X204590556Y-111211806D01*
X204588213Y-111232000D01*
X205763350Y-111232000D01*
X205798564Y-111246586D01*
X205813150Y-111281800D01*
X205813150Y-111461600D01*
X205798564Y-111496814D01*
X205763350Y-111511400D01*
X204588214Y-111511400D01*
X204590554Y-111531589D01*
X204590555Y-111531591D01*
X204636584Y-111635836D01*
X204639083Y-111638335D01*
X204653669Y-111673549D01*
X204652712Y-111683264D01*
X204637900Y-111757730D01*
X204637900Y-111985660D01*
X204637901Y-111985667D01*
X204652665Y-112059899D01*
X204675472Y-112094033D01*
X204682907Y-112131416D01*
X204675472Y-112149367D01*
X204652665Y-112183500D01*
X204637900Y-112257730D01*
X204637900Y-112485660D01*
X204637901Y-112485667D01*
X204652665Y-112559899D01*
X204675472Y-112594033D01*
X204682907Y-112631416D01*
X204675472Y-112649367D01*
X204652665Y-112683500D01*
X204637900Y-112757730D01*
X204637900Y-112776349D01*
X204623314Y-112811563D01*
X204588100Y-112826149D01*
X204569043Y-112822358D01*
X204504737Y-112795722D01*
X204504728Y-112795720D01*
X204346300Y-112774863D01*
X204187871Y-112795720D01*
X204187868Y-112795720D01*
X204187867Y-112795721D01*
X204187865Y-112795722D01*
X204040230Y-112856874D01*
X203913455Y-112954152D01*
X203913452Y-112954155D01*
X203816174Y-113080930D01*
X203755022Y-113228565D01*
X203755020Y-113228571D01*
X203734163Y-113387000D01*
X203747152Y-113485667D01*
X203755021Y-113545433D01*
X203773344Y-113589668D01*
X203816174Y-113693070D01*
X203913452Y-113819844D01*
X203913455Y-113819847D01*
X204040229Y-113917125D01*
X204040230Y-113917125D01*
X204040231Y-113917126D01*
X204187867Y-113978279D01*
X204346300Y-113999137D01*
X204504733Y-113978279D01*
X204570345Y-113951101D01*
X204608459Y-113951101D01*
X204635411Y-113978052D01*
X204638245Y-113987395D01*
X204652665Y-114059899D01*
X204675472Y-114094033D01*
X204682907Y-114131416D01*
X204675472Y-114149367D01*
X204652665Y-114183500D01*
X204637900Y-114257730D01*
X204637900Y-114485660D01*
X204637901Y-114485667D01*
X204652665Y-114559899D01*
X204675472Y-114594033D01*
X204682907Y-114631416D01*
X204675472Y-114649367D01*
X204652665Y-114683500D01*
X204637900Y-114757730D01*
X204637900Y-114985660D01*
X204637901Y-114985670D01*
X204652712Y-115060136D01*
X204645275Y-115097519D01*
X204639089Y-115105058D01*
X204636585Y-115107562D01*
X204590556Y-115211806D01*
X204588213Y-115232000D01*
X205763350Y-115232000D01*
X205798564Y-115246586D01*
X205813150Y-115281800D01*
X205813150Y-115765399D01*
X206467700Y-115765399D01*
X206502914Y-115779985D01*
X206517500Y-115815199D01*
X206517500Y-116389774D01*
X206515797Y-116400216D01*
X206515827Y-116400221D01*
X206515189Y-116404787D01*
X206517447Y-116453602D01*
X206517500Y-116455902D01*
X206517500Y-116475993D01*
X206518169Y-116479574D01*
X206518963Y-116486416D01*
X206520461Y-116518809D01*
X206520462Y-116518811D01*
X206526872Y-116533329D01*
X206530267Y-116544290D01*
X206533185Y-116559897D01*
X206550255Y-116587466D01*
X206553471Y-116593567D01*
X206566566Y-116623225D01*
X206577789Y-116634448D01*
X206584915Y-116643444D01*
X206593273Y-116656942D01*
X206619151Y-116676484D01*
X206624346Y-116681005D01*
X206826727Y-116883386D01*
X206841313Y-116918600D01*
X206826727Y-116953814D01*
X206791513Y-116968400D01*
X204196899Y-116968400D01*
X204161685Y-116953814D01*
X204147099Y-116918600D01*
X204147099Y-116435339D01*
X204147099Y-116435334D01*
X204132334Y-116361099D01*
X204076084Y-116276916D01*
X203991901Y-116220666D01*
X203991900Y-116220665D01*
X203932432Y-116208836D01*
X203917667Y-116205900D01*
X203917666Y-116205900D01*
X203689739Y-116205900D01*
X203689729Y-116205901D01*
X203615263Y-116220712D01*
X203577880Y-116213275D01*
X203570335Y-116207083D01*
X203567837Y-116204585D01*
X203463593Y-116158556D01*
X203443400Y-116156213D01*
X203443400Y-116968400D01*
X203164000Y-116968400D01*
X203164000Y-116156213D01*
X203143810Y-116158554D01*
X203143808Y-116158555D01*
X203039563Y-116204584D01*
X203037058Y-116207089D01*
X203001841Y-116221669D01*
X202992135Y-116220712D01*
X202937569Y-116209858D01*
X202917667Y-116205900D01*
X202917666Y-116205900D01*
X202689739Y-116205900D01*
X202689732Y-116205901D01*
X202615500Y-116220665D01*
X202581367Y-116243472D01*
X202543984Y-116250907D01*
X202526033Y-116243472D01*
X202493402Y-116221669D01*
X202491901Y-116220666D01*
X202491900Y-116220665D01*
X202417669Y-116205900D01*
X202249800Y-116205900D01*
X202214586Y-116191314D01*
X202200000Y-116156100D01*
X202200000Y-115511400D01*
X204588214Y-115511400D01*
X204590554Y-115531589D01*
X204590555Y-115531591D01*
X204636584Y-115635836D01*
X204717162Y-115716414D01*
X204821410Y-115762445D01*
X204821409Y-115762445D01*
X204846883Y-115765399D01*
X205533750Y-115765399D01*
X205533750Y-115511400D01*
X204588214Y-115511400D01*
X202200000Y-115511400D01*
X202200000Y-107087299D01*
X202214586Y-107052085D01*
X202249798Y-107037499D01*
X202417666Y-107037499D01*
X202491901Y-107022734D01*
X202491901Y-107022733D01*
X202492135Y-107022687D01*
X202529518Y-107030123D01*
X202537064Y-107036316D01*
X202539563Y-107038815D01*
X202643808Y-107084844D01*
X202643810Y-107084845D01*
X202664000Y-107087186D01*
X202664000Y-105912050D01*
X202678586Y-105876836D01*
X202713800Y-105862250D01*
X202893600Y-105862250D01*
X202928814Y-105876836D01*
X202943400Y-105912050D01*
X202943400Y-107087184D01*
X202963594Y-107084843D01*
X203067835Y-107038815D01*
X203070332Y-107036319D01*
X203105545Y-107021730D01*
X203115265Y-107022687D01*
X203115498Y-107022733D01*
X203115499Y-107022734D01*
X203189733Y-107037500D01*
X203417666Y-107037499D01*
X203491901Y-107022734D01*
X203491901Y-107022733D01*
X203492135Y-107022687D01*
X203529518Y-107030123D01*
X203537064Y-107036316D01*
X203539563Y-107038815D01*
X203643808Y-107084844D01*
X203643810Y-107084845D01*
X203664000Y-107087186D01*
X203664000Y-106141650D01*
X203943400Y-106141650D01*
X203943400Y-107087184D01*
X203963594Y-107084843D01*
X204067836Y-107038815D01*
X204148414Y-106958237D01*
X204194445Y-106853990D01*
X204197399Y-106828519D01*
X204197400Y-106828513D01*
X204197400Y-106141650D01*
X203943400Y-106141650D01*
X203664000Y-106141650D01*
X203664000Y-105912050D01*
X203678586Y-105876836D01*
X203713800Y-105862250D01*
X204197399Y-105862250D01*
X204197399Y-105207700D01*
X204211985Y-105172486D01*
X204247199Y-105157900D01*
X204751475Y-105157900D01*
X204786689Y-105172486D01*
X204801275Y-105207700D01*
X204800849Y-105214199D01*
X204788263Y-105309800D01*
X204809121Y-105468233D01*
X204844943Y-105554717D01*
X204870274Y-105615870D01*
X204967552Y-105742644D01*
X204967555Y-105742647D01*
X205094329Y-105839925D01*
X205094330Y-105839925D01*
X205094331Y-105839926D01*
X205241967Y-105901079D01*
X205400400Y-105921937D01*
X205558833Y-105901079D01*
X205706469Y-105839926D01*
X205833246Y-105742646D01*
X205930526Y-105615869D01*
X205991679Y-105468233D01*
X206012537Y-105309800D01*
X205991679Y-105151367D01*
X205983445Y-105131490D01*
X205983445Y-105093378D01*
X206010396Y-105066426D01*
X206012956Y-105065448D01*
X206081681Y-105041401D01*
X206185660Y-104964660D01*
X206262401Y-104860681D01*
X206305084Y-104738700D01*
X206307800Y-104709736D01*
X206307800Y-104662100D01*
X206500100Y-104662100D01*
X206500100Y-104703914D01*
X206506232Y-104760965D01*
X206506233Y-104760968D01*
X206554367Y-104890020D01*
X206636912Y-105000285D01*
X206636914Y-105000287D01*
X206747180Y-105082832D01*
X206747179Y-105082832D01*
X206876231Y-105130966D01*
X206876234Y-105130967D01*
X206933285Y-105137100D01*
X206950100Y-105137100D01*
X206950100Y-104662100D01*
X207458100Y-104662100D01*
X207458100Y-105137100D01*
X207474915Y-105137100D01*
X207531965Y-105130967D01*
X207531968Y-105130966D01*
X207661020Y-105082832D01*
X207771285Y-105000287D01*
X207771287Y-105000285D01*
X207853832Y-104890020D01*
X207901966Y-104760968D01*
X207901967Y-104760965D01*
X207908100Y-104703914D01*
X207908100Y-104662100D01*
X207458100Y-104662100D01*
X206950100Y-104662100D01*
X206500100Y-104662100D01*
X206307800Y-104662100D01*
X206307800Y-104154100D01*
X206500100Y-104154100D01*
X206950100Y-104154100D01*
X206950100Y-103679100D01*
X207458100Y-103679100D01*
X207458100Y-104154100D01*
X207908100Y-104154100D01*
X207908100Y-104112285D01*
X207901967Y-104055234D01*
X207901966Y-104055231D01*
X207853832Y-103926179D01*
X207771287Y-103815914D01*
X207771285Y-103815912D01*
X207661019Y-103733367D01*
X207661020Y-103733367D01*
X207531968Y-103685233D01*
X207531965Y-103685232D01*
X207474915Y-103679100D01*
X207458100Y-103679100D01*
X206950100Y-103679100D01*
X206933285Y-103679100D01*
X206876234Y-103685232D01*
X206876231Y-103685233D01*
X206747179Y-103733367D01*
X206636914Y-103815912D01*
X206636912Y-103815914D01*
X206554367Y-103926179D01*
X206506233Y-104055231D01*
X206506232Y-104055234D01*
X206500100Y-104112285D01*
X206500100Y-104154100D01*
X206307800Y-104154100D01*
X206307800Y-104106464D01*
X206305084Y-104077500D01*
X206305030Y-104077347D01*
X206262402Y-103955521D01*
X206262400Y-103955518D01*
X206185331Y-103851093D01*
X206175600Y-103821521D01*
X206175600Y-103570099D01*
X206190186Y-103534885D01*
X206225400Y-103520299D01*
X206778960Y-103520299D01*
X206778966Y-103520299D01*
X206853201Y-103505534D01*
X206937384Y-103449284D01*
X206993634Y-103365101D01*
X207008400Y-103290867D01*
X207008400Y-103086800D01*
X207022986Y-103051586D01*
X207058200Y-103037000D01*
X207151201Y-103037000D01*
X207186415Y-103051586D01*
X207201001Y-103086800D01*
X207201001Y-103290867D01*
X207215765Y-103365100D01*
X207232018Y-103389424D01*
X207272016Y-103449284D01*
X207356199Y-103505534D01*
X207430433Y-103520300D01*
X208678966Y-103520299D01*
X208753201Y-103505534D01*
X208837384Y-103449284D01*
X208893634Y-103365101D01*
X208908400Y-103290867D01*
X208908400Y-102820600D01*
X209050701Y-102820600D01*
X209050701Y-103311320D01*
X209053655Y-103336790D01*
X209099684Y-103441036D01*
X209180262Y-103521614D01*
X209284510Y-103567645D01*
X209284509Y-103567645D01*
X209309983Y-103570599D01*
X209700700Y-103570599D01*
X209700700Y-102820600D01*
X210208700Y-102820600D01*
X210208700Y-103570599D01*
X210599411Y-103570599D01*
X210599420Y-103570598D01*
X210624890Y-103567644D01*
X210729136Y-103521615D01*
X210809714Y-103441037D01*
X210855745Y-103336790D01*
X210858699Y-103311319D01*
X210858700Y-103311313D01*
X210858700Y-102820600D01*
X210208700Y-102820600D01*
X209700700Y-102820600D01*
X209050701Y-102820600D01*
X208908400Y-102820600D01*
X208908399Y-102019499D01*
X208922985Y-101984286D01*
X208958199Y-101969700D01*
X209000900Y-101969700D01*
X209036114Y-101984286D01*
G37*
%TD.AperFunction*%
%TD*%
%TA.AperFunction,Conductor*%
%TO.N,/Voltage/current  ADC/AVSS*%
G36*
X201327900Y-121199386D02*
G01*
X201342486Y-121234600D01*
X201332553Y-121264445D01*
X201296666Y-121312381D01*
X201248533Y-121441431D01*
X201248532Y-121441434D01*
X201242400Y-121498485D01*
X201242400Y-121515300D01*
X202700400Y-121515300D01*
X202700400Y-121498485D01*
X202694267Y-121441434D01*
X202694266Y-121441431D01*
X202646133Y-121312381D01*
X202610247Y-121264445D01*
X202600821Y-121227513D01*
X202620269Y-121194733D01*
X202650114Y-121184800D01*
X205610686Y-121184800D01*
X205645900Y-121199386D01*
X205660486Y-121234600D01*
X205650553Y-121264445D01*
X205614666Y-121312381D01*
X205566533Y-121441431D01*
X205566532Y-121441434D01*
X205560400Y-121498485D01*
X205560400Y-121515300D01*
X206493600Y-121515300D01*
X206528814Y-121529886D01*
X206543400Y-121565100D01*
X206543400Y-122473300D01*
X206585215Y-122473300D01*
X206642265Y-122467167D01*
X206642268Y-122467166D01*
X206771320Y-122419032D01*
X206881585Y-122336487D01*
X206881587Y-122336485D01*
X206964132Y-122226220D01*
X206993040Y-122148716D01*
X207019012Y-122120819D01*
X207057103Y-122119459D01*
X207085000Y-122145431D01*
X207089500Y-122166119D01*
X207089500Y-123565899D01*
X207089074Y-123572400D01*
X207073045Y-123694146D01*
X207069680Y-123706702D01*
X207023950Y-123817105D01*
X207017450Y-123828364D01*
X206942698Y-123925782D01*
X206938403Y-123930680D01*
X206584180Y-124284903D01*
X206579282Y-124289198D01*
X206481864Y-124363950D01*
X206470605Y-124370450D01*
X206360202Y-124416180D01*
X206347646Y-124419545D01*
X206256683Y-124431521D01*
X206225898Y-124435574D01*
X206219400Y-124436000D01*
X200746000Y-124436000D01*
X200739501Y-124435574D01*
X200701066Y-124430514D01*
X200617753Y-124419545D01*
X200605197Y-124416180D01*
X200494794Y-124370450D01*
X200483535Y-124363950D01*
X200386117Y-124289198D01*
X200381219Y-124284903D01*
X199826618Y-123730302D01*
X199812249Y-123699729D01*
X199811984Y-123696903D01*
X199811983Y-123696896D01*
X199769302Y-123574921D01*
X199769301Y-123574919D01*
X199692560Y-123470940D01*
X199588581Y-123394199D01*
X199588579Y-123394198D01*
X199571165Y-123388105D01*
X199542744Y-123362707D01*
X199540606Y-123324652D01*
X199566004Y-123296231D01*
X199585004Y-123291894D01*
X199585600Y-123291299D01*
X199585600Y-122391300D01*
X200093600Y-122391300D01*
X200093600Y-123291299D01*
X200212805Y-123291299D01*
X200272834Y-123284847D01*
X200408627Y-123234197D01*
X200412497Y-123231300D01*
X202976401Y-123231300D01*
X202976401Y-123350505D01*
X202982852Y-123410534D01*
X203033502Y-123546327D01*
X203120352Y-123662346D01*
X203120353Y-123662347D01*
X203236372Y-123749197D01*
X203236371Y-123749197D01*
X203372164Y-123799846D01*
X203432194Y-123806299D01*
X203876400Y-123806299D01*
X203876400Y-123231300D01*
X204384400Y-123231300D01*
X204384400Y-123806299D01*
X204828605Y-123806299D01*
X204888634Y-123799847D01*
X205024427Y-123749197D01*
X205140446Y-123662347D01*
X205140447Y-123662346D01*
X205227297Y-123546327D01*
X205277946Y-123410535D01*
X205284400Y-123350505D01*
X205284400Y-123231300D01*
X204384400Y-123231300D01*
X203876400Y-123231300D01*
X202976401Y-123231300D01*
X200412497Y-123231300D01*
X200524646Y-123147347D01*
X200524647Y-123147346D01*
X200611497Y-123031327D01*
X200662146Y-122895535D01*
X200668600Y-122835505D01*
X200668600Y-122723300D01*
X202976400Y-122723300D01*
X203876400Y-122723300D01*
X203876400Y-122148300D01*
X204384400Y-122148300D01*
X204384400Y-122723300D01*
X205284399Y-122723300D01*
X205284399Y-122604094D01*
X205277947Y-122544065D01*
X205227297Y-122408272D01*
X205140447Y-122292253D01*
X205140446Y-122292252D01*
X205024427Y-122205402D01*
X205024428Y-122205402D01*
X204888635Y-122154753D01*
X204828606Y-122148300D01*
X204384400Y-122148300D01*
X203876400Y-122148300D01*
X203432193Y-122148300D01*
X203372165Y-122154752D01*
X203236372Y-122205402D01*
X203120353Y-122292252D01*
X203120352Y-122292253D01*
X203033502Y-122408272D01*
X202982853Y-122544064D01*
X202976400Y-122604094D01*
X202976400Y-122723300D01*
X200668600Y-122723300D01*
X200668600Y-122391300D01*
X200093600Y-122391300D01*
X199585600Y-122391300D01*
X199585600Y-122023300D01*
X201242400Y-122023300D01*
X201242400Y-122040114D01*
X201248532Y-122097165D01*
X201248533Y-122097168D01*
X201296667Y-122226220D01*
X201379212Y-122336485D01*
X201379214Y-122336487D01*
X201489480Y-122419032D01*
X201489479Y-122419032D01*
X201618531Y-122467166D01*
X201618534Y-122467167D01*
X201675585Y-122473300D01*
X201717400Y-122473300D01*
X201717400Y-122023300D01*
X202225400Y-122023300D01*
X202225400Y-122473300D01*
X202267215Y-122473300D01*
X202324265Y-122467167D01*
X202324268Y-122467166D01*
X202453320Y-122419032D01*
X202563585Y-122336487D01*
X202563587Y-122336485D01*
X202646132Y-122226220D01*
X202694266Y-122097168D01*
X202694267Y-122097165D01*
X202700400Y-122040114D01*
X202700400Y-122023300D01*
X205560400Y-122023300D01*
X205560400Y-122040114D01*
X205566532Y-122097165D01*
X205566533Y-122097168D01*
X205614667Y-122226220D01*
X205697212Y-122336485D01*
X205697214Y-122336487D01*
X205807480Y-122419032D01*
X205807479Y-122419032D01*
X205936531Y-122467166D01*
X205936534Y-122467167D01*
X205993585Y-122473300D01*
X206035400Y-122473300D01*
X206035400Y-122023300D01*
X205560400Y-122023300D01*
X202700400Y-122023300D01*
X202225400Y-122023300D01*
X201717400Y-122023300D01*
X201242400Y-122023300D01*
X199585600Y-122023300D01*
X199585600Y-121933100D01*
X199600186Y-121897886D01*
X199635400Y-121883300D01*
X200668599Y-121883300D01*
X200668599Y-121439094D01*
X200662147Y-121379065D01*
X200614754Y-121252004D01*
X200616114Y-121213913D01*
X200644010Y-121187940D01*
X200661414Y-121184800D01*
X201292686Y-121184800D01*
X201327900Y-121199386D01*
G37*
%TD.AperFunction*%
%TD*%
%TA.AperFunction,Conductor*%
%TO.N,AIN1N*%
G36*
X120461507Y-117910086D02*
G01*
X120476093Y-117945300D01*
X120466160Y-117975144D01*
X120420479Y-118036165D01*
X120420477Y-118036168D01*
X120372424Y-118165003D01*
X120372423Y-118165007D01*
X120366300Y-118221971D01*
X120366300Y-118366100D01*
X121840327Y-118366100D01*
X121845450Y-118363978D01*
X121850573Y-118366100D01*
X123324600Y-118366100D01*
X123324600Y-118221971D01*
X123318476Y-118165007D01*
X123318475Y-118165003D01*
X123270422Y-118036168D01*
X123270420Y-118036165D01*
X123224740Y-117975144D01*
X123215314Y-117938213D01*
X123234763Y-117905433D01*
X123264607Y-117895500D01*
X124052956Y-117895500D01*
X124088170Y-117910086D01*
X124265917Y-118087833D01*
X124280503Y-118123047D01*
X124265917Y-118158261D01*
X124182755Y-118241423D01*
X124136850Y-118345388D01*
X124136849Y-118345394D01*
X124133900Y-118370809D01*
X124133900Y-118518200D01*
X124577600Y-118518200D01*
X124577600Y-118771400D01*
X124133901Y-118771400D01*
X124133901Y-118918796D01*
X124136848Y-118944204D01*
X124182755Y-119048176D01*
X124263123Y-119128544D01*
X124367088Y-119174449D01*
X124367094Y-119174450D01*
X124392510Y-119177399D01*
X124527800Y-119177399D01*
X124563014Y-119191985D01*
X124577600Y-119227199D01*
X124577600Y-119381900D01*
X124563014Y-119417114D01*
X124527800Y-119431700D01*
X124412840Y-119431700D01*
X124412831Y-119431701D01*
X124338599Y-119446465D01*
X124259219Y-119499507D01*
X124231551Y-119507900D01*
X123992452Y-119507900D01*
X123965347Y-119516706D01*
X123957752Y-119518530D01*
X123929594Y-119522990D01*
X123904198Y-119535930D01*
X123896982Y-119538919D01*
X123869865Y-119547731D01*
X123846809Y-119564482D01*
X123840150Y-119568564D01*
X123814748Y-119581508D01*
X123507708Y-119888548D01*
X123494764Y-119913950D01*
X123490682Y-119920609D01*
X123473931Y-119943665D01*
X123465119Y-119970782D01*
X123462130Y-119977998D01*
X123449190Y-120003394D01*
X123444730Y-120031552D01*
X123442906Y-120039147D01*
X123434100Y-120066252D01*
X123434100Y-120190756D01*
X123419514Y-120225970D01*
X123385406Y-120260078D01*
X123350192Y-120274664D01*
X123338208Y-120269700D01*
X121868200Y-120269700D01*
X121868200Y-120413828D01*
X121874323Y-120470792D01*
X121874324Y-120470796D01*
X121902410Y-120546097D01*
X121901050Y-120584188D01*
X121873153Y-120610160D01*
X121855750Y-120613300D01*
X121782771Y-120613300D01*
X121747557Y-120598714D01*
X121165343Y-120016500D01*
X121868200Y-120016500D01*
X122469800Y-120016500D01*
X122469800Y-119439900D01*
X122723000Y-119439900D01*
X122723000Y-120016500D01*
X123324600Y-120016500D01*
X123324600Y-119872371D01*
X123318476Y-119815407D01*
X123318475Y-119815403D01*
X123270422Y-119686568D01*
X123270420Y-119686565D01*
X123188015Y-119576486D01*
X123188013Y-119576484D01*
X123077934Y-119494079D01*
X123077931Y-119494077D01*
X122949096Y-119446024D01*
X122949092Y-119446023D01*
X122892129Y-119439900D01*
X122723000Y-119439900D01*
X122469800Y-119439900D01*
X122300671Y-119439900D01*
X122243707Y-119446023D01*
X122243703Y-119446024D01*
X122114868Y-119494077D01*
X122114865Y-119494079D01*
X122004786Y-119576484D01*
X122004784Y-119576486D01*
X121922379Y-119686565D01*
X121922377Y-119686568D01*
X121874324Y-119815403D01*
X121874323Y-119815407D01*
X121868200Y-119872371D01*
X121868200Y-120016500D01*
X121165343Y-120016500D01*
X120211186Y-119062343D01*
X120196600Y-119027129D01*
X120196600Y-118619300D01*
X120366300Y-118619300D01*
X120366300Y-118763428D01*
X120372423Y-118820392D01*
X120372424Y-118820396D01*
X120420477Y-118949231D01*
X120420479Y-118949234D01*
X120502884Y-119059313D01*
X120502886Y-119059315D01*
X120612965Y-119141720D01*
X120612968Y-119141722D01*
X120741803Y-119189775D01*
X120741807Y-119189776D01*
X120798771Y-119195900D01*
X120967900Y-119195900D01*
X120967900Y-118619300D01*
X121221100Y-118619300D01*
X121221100Y-119195900D01*
X121390229Y-119195900D01*
X121447192Y-119189776D01*
X121447196Y-119189775D01*
X121576031Y-119141722D01*
X121576034Y-119141720D01*
X121686113Y-119059315D01*
X121686115Y-119059313D01*
X121768520Y-118949234D01*
X121768522Y-118949231D01*
X121798790Y-118868080D01*
X121824762Y-118840183D01*
X121862853Y-118838823D01*
X121890750Y-118864795D01*
X121892110Y-118868080D01*
X121922377Y-118949231D01*
X121922379Y-118949234D01*
X122004784Y-119059313D01*
X122004786Y-119059315D01*
X122114865Y-119141720D01*
X122114868Y-119141722D01*
X122243703Y-119189775D01*
X122243707Y-119189776D01*
X122300671Y-119195900D01*
X122469800Y-119195900D01*
X122469800Y-118619300D01*
X122723000Y-118619300D01*
X122723000Y-119195900D01*
X122892129Y-119195900D01*
X122949092Y-119189776D01*
X122949096Y-119189775D01*
X123077931Y-119141722D01*
X123077934Y-119141720D01*
X123188013Y-119059315D01*
X123188015Y-119059313D01*
X123270420Y-118949234D01*
X123270422Y-118949231D01*
X123318475Y-118820396D01*
X123318476Y-118820392D01*
X123324600Y-118763428D01*
X123324600Y-118619300D01*
X122723000Y-118619300D01*
X122469800Y-118619300D01*
X121850573Y-118619300D01*
X121845450Y-118621422D01*
X121840327Y-118619300D01*
X121221100Y-118619300D01*
X120967900Y-118619300D01*
X120366300Y-118619300D01*
X120196600Y-118619300D01*
X120196600Y-117945300D01*
X120211186Y-117910086D01*
X120246400Y-117895500D01*
X120426293Y-117895500D01*
X120461507Y-117910086D01*
G37*
%TD.AperFunction*%
%TD*%
%TA.AperFunction,Conductor*%
%TO.N,Net-(ISEL10A_2-Pad12)*%
G36*
X180343235Y-86360425D02*
G01*
X180464983Y-86376454D01*
X180477536Y-86379818D01*
X180587942Y-86425550D01*
X180599200Y-86432049D01*
X180694008Y-86504798D01*
X180703201Y-86513991D01*
X180775950Y-86608799D01*
X180782450Y-86620058D01*
X180828180Y-86730461D01*
X180831545Y-86743017D01*
X180847574Y-86864763D01*
X180848000Y-86871264D01*
X180848000Y-89912735D01*
X180847574Y-89919236D01*
X180831545Y-90040982D01*
X180828180Y-90053538D01*
X180782450Y-90163941D01*
X180775950Y-90175200D01*
X180703201Y-90270008D01*
X180694008Y-90279201D01*
X180599200Y-90351950D01*
X180587941Y-90358450D01*
X180477538Y-90404180D01*
X180464982Y-90407545D01*
X180374019Y-90419521D01*
X180343234Y-90423574D01*
X180336736Y-90424000D01*
X172723264Y-90424000D01*
X172716765Y-90423574D01*
X172678330Y-90418514D01*
X172595017Y-90407545D01*
X172582461Y-90404180D01*
X172472058Y-90358450D01*
X172460799Y-90351950D01*
X172365991Y-90279201D01*
X172356798Y-90270008D01*
X172284049Y-90175200D01*
X172277549Y-90163941D01*
X172231819Y-90053538D01*
X172228454Y-90040983D01*
X172212426Y-89919235D01*
X172212000Y-89912735D01*
X172212000Y-89478658D01*
X172226586Y-89443444D01*
X172244764Y-89431863D01*
X172305839Y-89409634D01*
X172454762Y-89311685D01*
X172577083Y-89182033D01*
X172666206Y-89027667D01*
X172717328Y-88856908D01*
X172727692Y-88678963D01*
X172696740Y-88503424D01*
X172626140Y-88339755D01*
X172570612Y-88265167D01*
X172519698Y-88196777D01*
X172446687Y-88135515D01*
X172383153Y-88082204D01*
X172239449Y-88010032D01*
X172214528Y-87981193D01*
X172212000Y-87965529D01*
X172212000Y-86871264D01*
X172212426Y-86864764D01*
X172212426Y-86864763D01*
X172228454Y-86743014D01*
X172231817Y-86730465D01*
X172277551Y-86620053D01*
X172284046Y-86608803D01*
X172356802Y-86513986D01*
X172365986Y-86504802D01*
X172460803Y-86432046D01*
X172472053Y-86425551D01*
X172582465Y-86379817D01*
X172595014Y-86376454D01*
X172716764Y-86360425D01*
X172723264Y-86360000D01*
X180336736Y-86360000D01*
X180343235Y-86360425D01*
G37*
%TD.AperFunction*%
%TD*%
M02*
