%TF.GenerationSoftware,KiCad,Pcbnew,7.0.10-7.0.10~ubuntu22.04.1*%
%TF.CreationDate,2024-01-07T19:37:00+01:00*%
%TF.ProjectId,EEZ DIB AFE3,45455a20-4449-4422-9041-4645332e6b69,rev?*%
%TF.SameCoordinates,Original*%
%TF.FileFunction,Soldermask,Top*%
%TF.FilePolarity,Negative*%
%FSLAX46Y46*%
G04 Gerber Fmt 4.6, Leading zero omitted, Abs format (unit mm)*
G04 Created by KiCad (PCBNEW 7.0.10-7.0.10~ubuntu22.04.1) date 2024-01-07 19:37:00*
%MOMM*%
%LPD*%
G01*
G04 APERTURE LIST*
G04 Aperture macros list*
%AMRoundRect*
0 Rectangle with rounded corners*
0 $1 Rounding radius*
0 $2 $3 $4 $5 $6 $7 $8 $9 X,Y pos of 4 corners*
0 Add a 4 corners polygon primitive as box body*
4,1,4,$2,$3,$4,$5,$6,$7,$8,$9,$2,$3,0*
0 Add four circle primitives for the rounded corners*
1,1,$1+$1,$2,$3*
1,1,$1+$1,$4,$5*
1,1,$1+$1,$6,$7*
1,1,$1+$1,$8,$9*
0 Add four rect primitives between the rounded corners*
20,1,$1+$1,$2,$3,$4,$5,0*
20,1,$1+$1,$4,$5,$6,$7,0*
20,1,$1+$1,$6,$7,$8,$9,0*
20,1,$1+$1,$8,$9,$2,$3,0*%
%AMFreePoly0*
4,1,25,0.575031,1.328373,0.579933,1.323882,1.323882,0.579933,1.345910,0.532692,1.346200,0.526051,1.346200,-0.526051,1.328373,-0.575031,1.323882,-0.579933,0.579933,-1.323882,0.532692,-1.345910,0.526051,-1.346200,-0.526051,-1.346200,-0.575031,-1.328373,-0.579933,-1.323882,-1.323882,-0.579933,-1.345910,-0.532692,-1.346200,-0.526051,-1.346200,0.526051,-1.328373,0.575031,-1.323882,0.579933,
-0.579933,1.323882,-0.532692,1.345910,-0.526051,1.346200,0.526051,1.346200,0.575031,1.328373,0.575031,1.328373,$1*%
%AMFreePoly1*
4,1,17,0.355561,0.794901,0.794901,0.355561,0.813500,0.310660,0.813500,-0.310660,0.794901,-0.355561,0.355561,-0.794901,0.310660,-0.813500,-0.310660,-0.813500,-0.355561,-0.794901,-0.794901,-0.355561,-0.813500,-0.310660,-0.813500,0.310660,-0.794901,0.355561,-0.355561,0.794901,-0.310660,0.813500,0.310660,0.813500,0.355561,0.794901,0.355561,0.794901,$1*%
G04 Aperture macros list end*
%ADD10C,1.327913*%
%ADD11RoundRect,0.054591X0.859809X-1.240809X0.859809X1.240809X-0.859809X1.240809X-0.859809X-1.240809X0*%
%ADD12RoundRect,0.225000X-0.250000X0.225000X-0.250000X-0.225000X0.250000X-0.225000X0.250000X0.225000X0*%
%ADD13RoundRect,0.057252X0.506248X0.556248X-0.506248X0.556248X-0.506248X-0.556248X0.506248X-0.556248X0*%
%ADD14RoundRect,0.250000X0.650000X-0.325000X0.650000X0.325000X-0.650000X0.325000X-0.650000X-0.325000X0*%
%ADD15RoundRect,0.250000X-0.625000X0.312500X-0.625000X-0.312500X0.625000X-0.312500X0.625000X0.312500X0*%
%ADD16RoundRect,0.250000X0.262500X0.450000X-0.262500X0.450000X-0.262500X-0.450000X0.262500X-0.450000X0*%
%ADD17RoundRect,0.076200X0.444500X0.203200X-0.444500X0.203200X-0.444500X-0.203200X0.444500X-0.203200X0*%
%ADD18RoundRect,0.076200X0.889000X0.698500X-0.889000X0.698500X-0.889000X-0.698500X0.889000X-0.698500X0*%
%ADD19RoundRect,0.081280X0.629920X0.121920X-0.629920X0.121920X-0.629920X-0.121920X0.629920X-0.121920X0*%
%ADD20RoundRect,0.076200X-0.889000X-0.698500X0.889000X-0.698500X0.889000X0.698500X-0.889000X0.698500X0*%
%ADD21RoundRect,0.076200X-0.444500X-0.203200X0.444500X-0.203200X0.444500X0.203200X-0.444500X0.203200X0*%
%ADD22RoundRect,0.081280X-0.629920X-0.121920X0.629920X-0.121920X0.629920X0.121920X-0.629920X0.121920X0*%
%ADD23RoundRect,0.225000X-0.225000X-0.250000X0.225000X-0.250000X0.225000X0.250000X-0.225000X0.250000X0*%
%ADD24RoundRect,0.062345X-1.156855X-0.280555X1.156855X-0.280555X1.156855X0.280555X-1.156855X0.280555X0*%
%ADD25RoundRect,0.250000X0.450000X-0.262500X0.450000X0.262500X-0.450000X0.262500X-0.450000X-0.262500X0*%
%ADD26RoundRect,0.250000X-0.650000X0.325000X-0.650000X-0.325000X0.650000X-0.325000X0.650000X0.325000X0*%
%ADD27RoundRect,0.062345X1.144155X0.280555X-1.144155X0.280555X-1.144155X-0.280555X1.144155X-0.280555X0*%
%ADD28RoundRect,0.250000X0.312500X0.625000X-0.312500X0.625000X-0.312500X-0.625000X0.312500X-0.625000X0*%
%ADD29RoundRect,0.069275X-0.422425X-0.168825X0.422425X-0.168825X0.422425X0.168825X-0.422425X0.168825X0*%
%ADD30RoundRect,0.055408X-0.708092X0.708092X-0.708092X-0.708092X0.708092X-0.708092X0.708092X0.708092X0*%
%ADD31RoundRect,0.062345X-0.737755X-0.280555X0.737755X-0.280555X0.737755X0.280555X-0.737755X0.280555X0*%
%ADD32RoundRect,0.076200X0.203200X-0.444500X0.203200X0.444500X-0.203200X0.444500X-0.203200X-0.444500X0*%
%ADD33RoundRect,0.076200X0.698500X-0.889000X0.698500X0.889000X-0.698500X0.889000X-0.698500X-0.889000X0*%
%ADD34RoundRect,0.081280X0.121920X-0.629920X0.121920X0.629920X-0.121920X0.629920X-0.121920X-0.629920X0*%
%ADD35RoundRect,0.076200X-0.698500X0.889000X-0.698500X-0.889000X0.698500X-0.889000X0.698500X0.889000X0*%
%ADD36RoundRect,0.076200X-0.203200X0.444500X-0.203200X-0.444500X0.203200X-0.444500X0.203200X0.444500X0*%
%ADD37RoundRect,0.081280X-0.121920X0.629920X-0.121920X-0.629920X0.121920X-0.629920X0.121920X0.629920X0*%
%ADD38RoundRect,0.225000X0.225000X0.250000X-0.225000X0.250000X-0.225000X-0.250000X0.225000X-0.250000X0*%
%ADD39RoundRect,0.508000X0.000000X0.000000X0.000000X0.000000X0.000000X0.000000X0.000000X0.000000X0*%
%ADD40RoundRect,0.054832X1.008668X-0.808668X1.008668X0.808668X-1.008668X0.808668X-1.008668X-0.808668X0*%
%ADD41RoundRect,0.054832X-1.008668X0.808668X-1.008668X-0.808668X1.008668X-0.808668X1.008668X0.808668X0*%
%ADD42C,1.397000*%
%ADD43RoundRect,0.061383X-0.776817X-0.306917X0.776817X-0.306917X0.776817X0.306917X-0.776817X0.306917X0*%
%ADD44RoundRect,0.054591X-0.859809X1.240809X-0.859809X-1.240809X0.859809X-1.240809X0.859809X1.240809X0*%
%ADD45RoundRect,0.250000X-0.450000X0.262500X-0.450000X-0.262500X0.450000X-0.262500X0.450000X0.262500X0*%
%ADD46RoundRect,0.225000X0.250000X-0.225000X0.250000X0.225000X-0.250000X0.225000X-0.250000X-0.225000X0*%
%ADD47C,1.270000*%
%ADD48RoundRect,0.250000X0.625000X-0.312500X0.625000X0.312500X-0.625000X0.312500X-0.625000X-0.312500X0*%
%ADD49C,3.127000*%
%ADD50C,2.077000*%
%ADD51RoundRect,0.055763X0.657737X0.757737X-0.657737X0.757737X-0.657737X-0.757737X0.657737X-0.757737X0*%
%ADD52RoundRect,0.250000X-0.325000X-0.650000X0.325000X-0.650000X0.325000X0.650000X-0.325000X0.650000X0*%
%ADD53RoundRect,0.057252X-0.506248X1.586248X-0.506248X-1.586248X0.506248X-1.586248X0.506248X1.586248X0*%
%ADD54FreePoly0,270.000000*%
%ADD55RoundRect,0.250000X-0.262500X-0.450000X0.262500X-0.450000X0.262500X0.450000X-0.262500X0.450000X0*%
%ADD56C,2.227000*%
%ADD57RoundRect,0.057252X0.506248X0.706248X-0.506248X0.706248X-0.506248X-0.706248X0.506248X-0.706248X0*%
%ADD58RoundRect,0.065741X0.677209X0.213659X-0.677209X0.213659X-0.677209X-0.213659X0.677209X-0.213659X0*%
%ADD59RoundRect,0.071581X-0.753919X-0.322119X0.753919X-0.322119X0.753919X0.322119X-0.753919X0.322119X0*%
%ADD60RoundRect,0.062345X0.280555X-0.661555X0.280555X0.661555X-0.280555X0.661555X-0.280555X-0.661555X0*%
%ADD61RoundRect,0.057252X-0.556248X0.506248X-0.556248X-0.506248X0.556248X-0.506248X0.556248X0.506248X0*%
%ADD62FreePoly0,0.000000*%
%ADD63RoundRect,0.250000X-0.312500X-0.625000X0.312500X-0.625000X0.312500X0.625000X-0.312500X0.625000X0*%
%ADD64RoundRect,0.068943X0.172357X-0.832757X0.172357X0.832757X-0.172357X0.832757X-0.172357X-0.832757X0*%
%ADD65RoundRect,0.073891X-0.821459X0.129309X-0.821459X-0.129309X0.821459X-0.129309X0.821459X0.129309X0*%
%ADD66RoundRect,0.073891X0.129309X0.821459X-0.129309X0.821459X-0.129309X-0.821459X0.129309X-0.821459X0*%
%ADD67RoundRect,0.055763X0.757737X-0.657737X0.757737X0.657737X-0.757737X0.657737X-0.757737X-0.657737X0*%
%ADD68RoundRect,0.061383X0.306917X-0.776817X0.306917X0.776817X-0.306917X0.776817X-0.306917X-0.776817X0*%
%ADD69RoundRect,0.057252X-0.506248X-0.706248X0.506248X-0.706248X0.506248X0.706248X-0.506248X0.706248X0*%
%ADD70RoundRect,0.066929X0.421571X-0.196571X0.421571X0.196571X-0.421571X0.196571X-0.421571X-0.196571X0*%
%ADD71FreePoly0,180.000000*%
%ADD72RoundRect,0.055763X-0.657737X-0.757737X0.657737X-0.757737X0.657737X0.757737X-0.657737X0.757737X0*%
%ADD73RoundRect,0.063500X0.750000X0.750000X-0.750000X0.750000X-0.750000X-0.750000X0.750000X-0.750000X0*%
%ADD74FreePoly1,180.000000*%
G04 APERTURE END LIST*
%TO.C,FM3*%
D10*
X210663956Y-137000000D02*
G75*
G03*
X209336044Y-137000000I-663956J0D01*
G01*
X209336044Y-137000000D02*
G75*
G03*
X210663956Y-137000000I663956J0D01*
G01*
%TO.C,FM1*%
X87663956Y-137000000D02*
G75*
G03*
X86336044Y-137000000I-663956J0D01*
G01*
X86336044Y-137000000D02*
G75*
G03*
X87663956Y-137000000I663956J0D01*
G01*
%TO.C,FM2*%
X210663956Y-73000000D02*
G75*
G03*
X209336044Y-73000000I-663956J0D01*
G01*
X209336044Y-73000000D02*
G75*
G03*
X210663956Y-73000000I663956J0D01*
G01*
%TO.C,FM4*%
X87663956Y-73000000D02*
G75*
G03*
X86336044Y-73000000I-663956J0D01*
G01*
X86336044Y-73000000D02*
G75*
G03*
X87663956Y-73000000I663956J0D01*
G01*
%TD*%
D11*
%TO.C,D4*%
X183543700Y-90679400D03*
X183543700Y-94641800D03*
%TD*%
%TO.C,D8*%
X186782200Y-104319200D03*
X186782200Y-108281600D03*
%TD*%
D12*
%TO.C,C2*%
X121094500Y-116942700D03*
X121094500Y-118492700D03*
%TD*%
D13*
%TO.C,L5*%
X192013700Y-132106800D03*
X190313700Y-132106800D03*
%TD*%
D14*
%TO.C,C22*%
X202936600Y-79898900D03*
X202936600Y-76948900D03*
%TD*%
D15*
%TO.C,R27*%
X180622700Y-91756900D03*
X180622700Y-94681900D03*
%TD*%
D16*
%TO.C,R6*%
X122645300Y-112612300D03*
X120820300Y-112612300D03*
%TD*%
D17*
%TO.C,R29*%
X172780450Y-92914600D03*
D18*
X172335600Y-93814600D03*
X172335600Y-92014600D03*
D19*
X171635600Y-92914600D03*
D20*
X166735600Y-93814600D03*
X166735600Y-92014600D03*
D21*
X166290750Y-92914600D03*
D22*
X167435600Y-92914600D03*
%TD*%
D21*
%TO.C,R30*%
X166303450Y-88723600D03*
D20*
X166748300Y-87823600D03*
X166748300Y-89623600D03*
D22*
X167448300Y-88723600D03*
D18*
X172348300Y-87823600D03*
X172348300Y-89623600D03*
D17*
X172793150Y-88723600D03*
D19*
X171648300Y-88723600D03*
%TD*%
D23*
%TO.C,C21*%
X175771000Y-107595800D03*
X177321000Y-107595800D03*
%TD*%
D13*
%TO.C,L3*%
X142674200Y-114339500D03*
X140974200Y-114339500D03*
%TD*%
D24*
%TO.C,IC1*%
X125542800Y-117374800D03*
X125542800Y-118644800D03*
X125542800Y-119914800D03*
X125542800Y-121184800D03*
X125542800Y-122454800D03*
X125542800Y-123724800D03*
X125542800Y-124994800D03*
X125542800Y-126264800D03*
X134585200Y-126264800D03*
X134585200Y-124994800D03*
X134585200Y-123724800D03*
X134585200Y-122454800D03*
X134585200Y-121184800D03*
X134585200Y-119914800D03*
X134585200Y-118644800D03*
X134585200Y-117374800D03*
%TD*%
D16*
%TO.C,R5*%
X122645300Y-110643800D03*
X120820300Y-110643800D03*
%TD*%
D25*
%TO.C,R25*%
X180825900Y-112191300D03*
X180825900Y-110366300D03*
%TD*%
D26*
%TO.C,C14*%
X137544300Y-122808600D03*
X137544300Y-125758600D03*
%TD*%
D27*
%TO.C,IC3*%
X132870700Y-83478500D03*
X132870700Y-82208500D03*
X132870700Y-80938500D03*
X132870700Y-79668500D03*
X132870700Y-78398500D03*
X132870700Y-77128500D03*
X132870700Y-75858500D03*
X132870700Y-74588500D03*
X132870700Y-73318500D03*
X123396500Y-73318500D03*
X123396500Y-74588500D03*
X123396500Y-75858500D03*
X123396500Y-77128500D03*
X123396500Y-78398500D03*
X123396500Y-79668500D03*
X123396500Y-80938500D03*
X123396500Y-82208500D03*
X123396500Y-83478500D03*
%TD*%
D12*
%TO.C,C32*%
X201793600Y-100724800D03*
X201793600Y-102274800D03*
%TD*%
D28*
%TO.C,R21*%
X155021500Y-126087000D03*
X152096500Y-126087000D03*
%TD*%
D29*
%TO.C,L1*%
X115571300Y-110117000D03*
X117727700Y-110117000D03*
X117727700Y-111117000D03*
X115571300Y-111117000D03*
%TD*%
D12*
%TO.C,C7*%
X122596400Y-120143100D03*
X122596400Y-121693100D03*
%TD*%
D30*
%TO.C,ZD1*%
X120602500Y-77593400D03*
X120602500Y-73793400D03*
%TD*%
D16*
%TO.C,R34*%
X204661900Y-129541400D03*
X202836900Y-129541400D03*
%TD*%
D31*
%TO.C,IC11*%
X195621400Y-131067900D03*
X195621400Y-132017900D03*
X195621400Y-132967900D03*
X198009000Y-132967900D03*
X198009000Y-131067900D03*
%TD*%
D14*
%TO.C,C42*%
X210645500Y-97717000D03*
X210645500Y-94767000D03*
%TD*%
D32*
%TO.C,R1*%
X112499900Y-106840150D03*
D33*
X111599900Y-106395300D03*
X113399900Y-106395300D03*
D34*
X112499900Y-105695300D03*
D35*
X111599900Y-100795300D03*
X113399900Y-100795300D03*
D36*
X112499900Y-100350450D03*
D37*
X112499900Y-101495300D03*
%TD*%
D38*
%TO.C,C40*%
X210007500Y-108091100D03*
X208457500Y-108091100D03*
%TD*%
D24*
%TO.C,IC2*%
X127574800Y-100699700D03*
X127574800Y-101969700D03*
X127574800Y-103239700D03*
X127574800Y-104509700D03*
X127574800Y-105779700D03*
X127574800Y-107049700D03*
X127574800Y-108319700D03*
X127574800Y-109589700D03*
X136617200Y-109589700D03*
X136617200Y-108319700D03*
X136617200Y-107049700D03*
X136617200Y-105779700D03*
X136617200Y-104509700D03*
X136617200Y-103239700D03*
X136617200Y-101969700D03*
X136617200Y-100699700D03*
%TD*%
D23*
%TO.C,C18*%
X179796900Y-122327800D03*
X181346900Y-122327800D03*
%TD*%
D28*
%TO.C,R9*%
X117251700Y-135358000D03*
X114326700Y-135358000D03*
%TD*%
D39*
%TO.C,FM3*%
X210000000Y-137000000D03*
%TD*%
D16*
%TO.C,R23*%
X184681500Y-125031500D03*
X182856500Y-125031500D03*
%TD*%
D28*
%TO.C,R17*%
X161419000Y-115101500D03*
X158494000Y-115101500D03*
%TD*%
D40*
%TO.C,OK1*%
X134186300Y-132221100D03*
X134186300Y-129681100D03*
D41*
X124646300Y-129681100D03*
X124646300Y-132221100D03*
%TD*%
D23*
%TO.C,C36*%
X198605600Y-120105300D03*
X200155600Y-120105300D03*
%TD*%
D42*
%TO.C,JP6*%
X178362100Y-92206700D03*
X178362100Y-94206700D03*
%TD*%
D43*
%TO.C,IC4*%
X171770800Y-121451500D03*
X171770800Y-122721500D03*
X171770800Y-123991500D03*
X171770800Y-125261500D03*
X171770800Y-126531500D03*
X171770800Y-127801500D03*
X171770800Y-129071500D03*
X171770800Y-130341500D03*
X177155600Y-130341500D03*
X177155600Y-129071500D03*
X177155600Y-127801500D03*
X177155600Y-126531500D03*
X177155600Y-125261500D03*
X177155600Y-123991500D03*
X177155600Y-122721500D03*
X177155600Y-121451500D03*
%TD*%
D44*
%TO.C,D5*%
X186782200Y-94641800D03*
X186782200Y-90679400D03*
%TD*%
D45*
%TO.C,R24*%
X178857400Y-110366300D03*
X178857400Y-112191300D03*
%TD*%
D46*
%TO.C,C31*%
X201971400Y-121769300D03*
X201971400Y-120219300D03*
%TD*%
D12*
%TO.C,C3*%
X123126500Y-100166000D03*
X123126500Y-101716000D03*
%TD*%
D47*
%TO.C,TP2*%
X180340000Y-129540000D03*
%TD*%
D28*
%TO.C,R20*%
X170563000Y-115101500D03*
X167638000Y-115101500D03*
%TD*%
D47*
%TO.C,TP1*%
X193040000Y-121920000D03*
%TD*%
D44*
%TO.C,D9*%
X183543700Y-101449000D03*
X183543700Y-97486600D03*
%TD*%
D26*
%TO.C,C15*%
X140084300Y-106387500D03*
X140084300Y-109337500D03*
%TD*%
D12*
%TO.C,C6*%
X122596400Y-116942700D03*
X122596400Y-118492700D03*
%TD*%
D48*
%TO.C,R13*%
X167109900Y-123714100D03*
X167109900Y-120789100D03*
%TD*%
D49*
%TO.C,ISEL10A_1*%
X112422300Y-96135800D03*
X117462300Y-96135800D03*
X107382300Y-96135800D03*
X112422300Y-88575800D03*
X117462300Y-88575800D03*
X107382300Y-88575800D03*
D50*
X132752300Y-88575800D03*
X132752300Y-96135800D03*
X132752300Y-92355800D03*
%TD*%
D51*
%TO.C,JP2*%
X143761500Y-132270500D03*
X141861500Y-132270500D03*
%TD*%
D52*
%TO.C,C37*%
X196889600Y-122137300D03*
X199839600Y-122137300D03*
%TD*%
D14*
%TO.C,C38*%
X201349100Y-97412200D03*
X201349100Y-94462200D03*
%TD*%
D46*
%TO.C,C33*%
X206289400Y-121769300D03*
X206289400Y-120219300D03*
%TD*%
D53*
%TO.C,ISEL1A_1*%
X161242500Y-101677100D03*
X156162500Y-101677100D03*
X153622500Y-101677100D03*
X151082500Y-101677100D03*
X148542500Y-101677100D03*
X148542500Y-108917100D03*
X151082500Y-108917100D03*
X153622500Y-108917100D03*
X156162500Y-108917100D03*
X161242500Y-108917100D03*
%TD*%
D49*
%TO.C,ISEL10A_2*%
X178475000Y-83600900D03*
X183515000Y-83600900D03*
X173435000Y-83600900D03*
X178475000Y-76040900D03*
X183515000Y-76040900D03*
X173435000Y-76040900D03*
D50*
X198805000Y-76040900D03*
X198805000Y-83600900D03*
X198805000Y-79820900D03*
%TD*%
D46*
%TO.C,C44*%
X200790300Y-129325800D03*
X200790300Y-127775800D03*
%TD*%
D45*
%TO.C,R31*%
X180787800Y-105005500D03*
X180787800Y-106830500D03*
%TD*%
D26*
%TO.C,C11*%
X120183400Y-105714400D03*
X120183400Y-108664400D03*
%TD*%
D16*
%TO.C,R11*%
X143460600Y-97092900D03*
X141635600Y-97092900D03*
%TD*%
D42*
%TO.C,JP5*%
X169357800Y-122705500D03*
X169357800Y-120705500D03*
%TD*%
D44*
%TO.C,D6*%
X183543700Y-108281600D03*
X183543700Y-104319200D03*
%TD*%
D39*
%TO.C,FM1*%
X87000000Y-137000000D03*
%TD*%
D54*
%TO.C,F3*%
X160465600Y-91313000D03*
X137965600Y-91313000D03*
%TD*%
D11*
%TO.C,D7*%
X186782200Y-97486600D03*
X186782200Y-101449000D03*
%TD*%
D28*
%TO.C,R16*%
X156847000Y-115101500D03*
X153922000Y-115101500D03*
%TD*%
D38*
%TO.C,C46*%
X201781200Y-131967100D03*
X200231200Y-131967100D03*
%TD*%
D55*
%TO.C,R22*%
X182856500Y-123091700D03*
X184681500Y-123091700D03*
%TD*%
D25*
%TO.C,R4*%
X136947400Y-131622300D03*
X136947400Y-129797300D03*
%TD*%
D55*
%TO.C,R37*%
X206189700Y-100585400D03*
X208014700Y-100585400D03*
%TD*%
D46*
%TO.C,C20*%
X175034700Y-104891000D03*
X175034700Y-103341000D03*
%TD*%
D16*
%TO.C,R33*%
X202693400Y-125591700D03*
X200868400Y-125591700D03*
%TD*%
D46*
%TO.C,C23*%
X198250300Y-101804900D03*
X198250300Y-100254900D03*
%TD*%
D45*
%TO.C,R35*%
X199190100Y-94516700D03*
X199190100Y-96341700D03*
%TD*%
D56*
%TO.C,X3*%
X89600000Y-133085000D03*
X89600000Y-129275000D03*
X89600000Y-125465000D03*
X89600000Y-121655000D03*
X89600000Y-117845000D03*
X89600000Y-114035000D03*
X89600000Y-110225000D03*
X89600000Y-106415000D03*
%TD*%
D47*
%TO.C,GND1*%
X185420000Y-129540000D03*
%TD*%
D46*
%TO.C,C45*%
X193640200Y-132030900D03*
X193640200Y-130480900D03*
%TD*%
D57*
%TO.C,D3*%
X187821100Y-119030700D03*
X185921100Y-119030700D03*
X186871100Y-121230700D03*
%TD*%
D58*
%TO.C,IC9*%
X208276950Y-98144100D03*
X208276950Y-97494100D03*
X208276950Y-96844100D03*
X208276950Y-96194100D03*
X203819250Y-96194100D03*
X203819250Y-96844100D03*
X203819250Y-97494100D03*
X203819250Y-98144100D03*
%TD*%
D45*
%TO.C,R12*%
X142446500Y-102505000D03*
X142446500Y-104330000D03*
%TD*%
D59*
%TO.C,Q1*%
X175958500Y-98401000D03*
X175958500Y-100331400D03*
X178117500Y-99366200D03*
%TD*%
D28*
%TO.C,R18*%
X165991000Y-115101500D03*
X163066000Y-115101500D03*
%TD*%
D14*
%TO.C,C30*%
X194818000Y-103265500D03*
X194818000Y-100315500D03*
%TD*%
D60*
%TO.C,IC7*%
X176751700Y-105601900D03*
X177701700Y-105601900D03*
X178651700Y-105601900D03*
X178651700Y-103214300D03*
X176751700Y-103214300D03*
%TD*%
D44*
%TO.C,D1*%
X161163000Y-124334400D03*
X161163000Y-120372000D03*
%TD*%
D28*
%TO.C,R14*%
X147680900Y-115101500D03*
X144755900Y-115101500D03*
%TD*%
D14*
%TO.C,C34*%
X204130400Y-122977300D03*
X204130400Y-120027300D03*
%TD*%
D61*
%TO.C,L4*%
X192230500Y-126646700D03*
X192230500Y-128346700D03*
%TD*%
D46*
%TO.C,C25*%
X199136000Y-125552500D03*
X199136000Y-124002500D03*
%TD*%
D12*
%TO.C,C9*%
X124628400Y-103366400D03*
X124628400Y-104916400D03*
%TD*%
D62*
%TO.C,F1*%
X96139000Y-106807000D03*
X96139000Y-129307000D03*
%TD*%
D28*
%TO.C,R7*%
X107358400Y-135358000D03*
X104433400Y-135358000D03*
%TD*%
D63*
%TO.C,R28*%
X170714700Y-96419800D03*
X173639700Y-96419800D03*
%TD*%
D39*
%TO.C,FM2*%
X210000000Y-73000000D03*
%TD*%
D12*
%TO.C,C26*%
X203390500Y-100761500D03*
X203390500Y-102311500D03*
%TD*%
D26*
%TO.C,C5*%
X122532900Y-105714400D03*
X122532900Y-108664400D03*
%TD*%
D39*
%TO.C,FM4*%
X87000000Y-73000000D03*
%TD*%
D51*
%TO.C,JP7*%
X210096900Y-109945300D03*
X208196900Y-109945300D03*
%TD*%
D38*
%TO.C,C41*%
X207204100Y-104408100D03*
X205654100Y-104408100D03*
%TD*%
D51*
%TO.C,JP8*%
X208054700Y-102566600D03*
X206154700Y-102566600D03*
X209954700Y-102566600D03*
%TD*%
D26*
%TO.C,C17*%
X142433800Y-106387500D03*
X142433800Y-109337500D03*
%TD*%
D64*
%TO.C,IC5*%
X180285600Y-120016400D03*
X180935600Y-120016400D03*
X181585600Y-120016400D03*
X182235600Y-120016400D03*
X182885600Y-120016400D03*
X183535600Y-120016400D03*
X184185600Y-120016400D03*
X184185600Y-114377600D03*
X183535600Y-114377600D03*
X182885600Y-114377600D03*
X182235600Y-114377600D03*
X181585600Y-114377600D03*
X180935600Y-114377600D03*
X180285600Y-114377600D03*
%TD*%
D25*
%TO.C,R32*%
X180800500Y-103110800D03*
X180800500Y-101285800D03*
%TD*%
D65*
%TO.C,IC8*%
X194433950Y-107871700D03*
X194433950Y-108371700D03*
X194433950Y-108871700D03*
X194433950Y-109371700D03*
X194433950Y-109871700D03*
X194433950Y-110371700D03*
X194433950Y-110871700D03*
X194433950Y-111371700D03*
X194433950Y-111871700D03*
X194433950Y-112371700D03*
X194433950Y-112871700D03*
X194433950Y-113371700D03*
X194433950Y-113871700D03*
X194433950Y-114371700D03*
X194433950Y-114871700D03*
X194433950Y-115371700D03*
D66*
X196303700Y-117241450D03*
X196803700Y-117241450D03*
X197303700Y-117241450D03*
X197803700Y-117241450D03*
X198303700Y-117241450D03*
X198803700Y-117241450D03*
X199303700Y-117241450D03*
X199803700Y-117241450D03*
X200303700Y-117241450D03*
X200803700Y-117241450D03*
X201303700Y-117241450D03*
X201803700Y-117241450D03*
X202303700Y-117241450D03*
X202803700Y-117241450D03*
X203303700Y-117241450D03*
X203803700Y-117241450D03*
D65*
X205673450Y-115371700D03*
X205673450Y-114871700D03*
X205673450Y-114371700D03*
X205673450Y-113871700D03*
X205673450Y-113371700D03*
X205673450Y-112871700D03*
X205673450Y-112371700D03*
X205673450Y-111871700D03*
X205673450Y-111371700D03*
X205673450Y-110871700D03*
X205673450Y-110371700D03*
X205673450Y-109871700D03*
X205673450Y-109371700D03*
X205673450Y-108871700D03*
X205673450Y-108371700D03*
X205673450Y-107871700D03*
D66*
X203803700Y-106001950D03*
X203303700Y-106001950D03*
X202803700Y-106001950D03*
X202303700Y-106001950D03*
X201803700Y-106001950D03*
X201303700Y-106001950D03*
X200803700Y-106001950D03*
X200303700Y-106001950D03*
X199803700Y-106001950D03*
X199303700Y-106001950D03*
X198803700Y-106001950D03*
X198303700Y-106001950D03*
X197803700Y-106001950D03*
X197303700Y-106001950D03*
X196803700Y-106001950D03*
X196303700Y-106001950D03*
%TD*%
D67*
%TO.C,JP3*%
X163757100Y-101929100D03*
X163757100Y-100029100D03*
%TD*%
D12*
%TO.C,C13*%
X139246100Y-100534300D03*
X139246100Y-102084300D03*
%TD*%
%TO.C,C8*%
X124628400Y-100166000D03*
X124628400Y-101716000D03*
%TD*%
D54*
%TO.C,F4*%
X160452900Y-81916400D03*
X137952900Y-81916400D03*
%TD*%
D12*
%TO.C,C27*%
X197612000Y-124002500D03*
X197612000Y-125552500D03*
%TD*%
D59*
%TO.C,Q2*%
X171974000Y-98401000D03*
X171974000Y-100331400D03*
X174133000Y-99366200D03*
%TD*%
D45*
%TO.C,R36*%
X208257900Y-121034300D03*
X208257900Y-122859300D03*
%TD*%
D68*
%TO.C,IC6*%
X163998400Y-109665900D03*
X165268400Y-109665900D03*
X166538400Y-109665900D03*
X167808400Y-109665900D03*
X169078400Y-109665900D03*
X170348400Y-109665900D03*
X171618400Y-109665900D03*
X172888400Y-109665900D03*
X172888400Y-104281100D03*
X171618400Y-104281100D03*
X170348400Y-104281100D03*
X169078400Y-104281100D03*
X167808400Y-104281100D03*
X166538400Y-104281100D03*
X165268400Y-104281100D03*
X163998400Y-104281100D03*
%TD*%
D38*
%TO.C,C19*%
X184191700Y-112396400D03*
X182641700Y-112396400D03*
%TD*%
D26*
%TO.C,C4*%
X122278900Y-123519800D03*
X122278900Y-126469800D03*
%TD*%
D69*
%TO.C,D10*%
X185946500Y-115477600D03*
X187846500Y-115477600D03*
X186896500Y-113277600D03*
%TD*%
D12*
%TO.C,C43*%
X194056000Y-126796500D03*
X194056000Y-128346500D03*
%TD*%
D13*
%TO.C,L2*%
X102593000Y-135358000D03*
X100893000Y-135358000D03*
%TD*%
D28*
%TO.C,R15*%
X152275000Y-115101500D03*
X149350000Y-115101500D03*
%TD*%
D23*
%TO.C,C28*%
X198440500Y-103314500D03*
X199990500Y-103314500D03*
%TD*%
D26*
%TO.C,C16*%
X139893800Y-122808600D03*
X139893800Y-125758600D03*
%TD*%
D46*
%TO.C,C35*%
X199952100Y-101804900D03*
X199952100Y-100254900D03*
%TD*%
D38*
%TO.C,C24*%
X196955200Y-120105300D03*
X195405200Y-120105300D03*
%TD*%
D70*
%TO.C,IC10*%
X196109300Y-127735700D03*
X196109300Y-128385700D03*
X196109300Y-129035700D03*
X198359300Y-129035700D03*
X198359300Y-127735700D03*
%TD*%
D23*
%TO.C,C39*%
X208457500Y-106553000D03*
X210007500Y-106553000D03*
%TD*%
D28*
%TO.C,R8*%
X112298700Y-135358000D03*
X109373700Y-135358000D03*
%TD*%
D46*
%TO.C,C29*%
X196723000Y-103327500D03*
X196723000Y-101777500D03*
%TD*%
D40*
%TO.C,OK2*%
X155890600Y-123089800D03*
X155890600Y-120549800D03*
D41*
X146350600Y-120549800D03*
X146350600Y-123089800D03*
%TD*%
D11*
%TO.C,D2*%
X164392100Y-120372000D03*
X164392100Y-124334400D03*
%TD*%
D71*
%TO.C,F2*%
X105578400Y-129323300D03*
X105578400Y-106823300D03*
%TD*%
D72*
%TO.C,JP4*%
X145928800Y-132259200D03*
X147828800Y-132259200D03*
%TD*%
D26*
%TO.C,C10*%
X119929400Y-123519800D03*
X119929400Y-126469800D03*
%TD*%
D48*
%TO.C,R3*%
X121605800Y-132515200D03*
X121605800Y-129590200D03*
%TD*%
D15*
%TO.C,R10*%
X119316500Y-132473100D03*
X119316500Y-135398100D03*
%TD*%
D51*
%TO.C,JP1*%
X148095500Y-97118300D03*
X146195500Y-97118300D03*
%TD*%
D28*
%TO.C,R19*%
X150433500Y-126087000D03*
X147508500Y-126087000D03*
%TD*%
D12*
%TO.C,C12*%
X137061700Y-117450700D03*
X137061700Y-119000700D03*
%TD*%
D32*
%TO.C,R2*%
X112511000Y-114883850D03*
D33*
X111611000Y-114439000D03*
X113411000Y-114439000D03*
D34*
X112511000Y-113739000D03*
D35*
X111611000Y-108839000D03*
X113411000Y-108839000D03*
D36*
X112511000Y-108394150D03*
D37*
X112511000Y-109539000D03*
%TD*%
D12*
%TO.C,C1*%
X124564900Y-110491100D03*
X124564900Y-112041100D03*
%TD*%
D45*
%TO.C,R26*%
X158296100Y-121047000D03*
X158296100Y-122872000D03*
%TD*%
D47*
%TO.C,IN1N1*%
X142240000Y-129540000D03*
%TD*%
D73*
%TO.C,X2*%
X169020000Y-72713600D03*
D74*
X169020000Y-75253600D03*
X166480000Y-72713600D03*
X166480000Y-75253600D03*
X163940000Y-72713600D03*
X163940000Y-75253600D03*
X161400000Y-72713600D03*
X161400000Y-75253600D03*
X158860000Y-72713600D03*
X158860000Y-75253600D03*
X156320000Y-72713600D03*
X156320000Y-75253600D03*
X153780000Y-72713600D03*
X153780000Y-75253600D03*
X151240000Y-72713600D03*
X151240000Y-75253600D03*
X148700000Y-72713600D03*
X148700000Y-75253600D03*
X146160000Y-72713600D03*
X146160000Y-75253600D03*
X143620000Y-72713600D03*
X143620000Y-75253600D03*
X141080000Y-72713600D03*
X141080000Y-75253600D03*
X138540000Y-72713600D03*
X138540000Y-75253600D03*
X136000000Y-72713600D03*
X136000000Y-75253600D03*
%TD*%
D47*
%TO.C,IN1P1*%
X142240000Y-121920000D03*
%TD*%
%TO.C,IN2N1*%
X144780000Y-106680000D03*
%TD*%
%TO.C,IN2P1*%
X144780000Y-111760000D03*
%TD*%
D73*
%TO.C,X1*%
X169020000Y-134753600D03*
D74*
X169020000Y-137293600D03*
X166480000Y-134753600D03*
X166480000Y-137293600D03*
X163940000Y-134753600D03*
X163940000Y-137293600D03*
X161400000Y-134753600D03*
X161400000Y-137293600D03*
X158860000Y-134753600D03*
X158860000Y-137293600D03*
X156320000Y-134753600D03*
X156320000Y-137293600D03*
X153780000Y-134753600D03*
X153780000Y-137293600D03*
X151240000Y-134753600D03*
X151240000Y-137293600D03*
X148700000Y-134753600D03*
X148700000Y-137293600D03*
X146160000Y-134753600D03*
X146160000Y-137293600D03*
X143620000Y-134753600D03*
X143620000Y-137293600D03*
X141080000Y-134753600D03*
X141080000Y-137293600D03*
X138540000Y-134753600D03*
X138540000Y-137293600D03*
X136000000Y-134753600D03*
X136000000Y-137293600D03*
%TD*%
M02*
