%TF.GenerationSoftware,KiCad,Pcbnew,7.0.10-7.0.10~ubuntu22.04.1*%
%TF.CreationDate,2024-01-07T19:37:00+01:00*%
%TF.ProjectId,EEZ DIB AFE3,45455a20-4449-4422-9041-4645332e6b69,rev?*%
%TF.SameCoordinates,Original*%
%TF.FileFunction,Profile,NP*%
%FSLAX46Y46*%
G04 Gerber Fmt 4.6, Leading zero omitted, Abs format (unit mm)*
G04 Created by KiCad (PCBNEW 7.0.10-7.0.10~ubuntu22.04.1) date 2024-01-07 19:37:00*
%MOMM*%
%LPD*%
G01*
G04 APERTURE LIST*
%TA.AperFunction,Profile*%
%ADD10C,0.101600*%
%TD*%
%TA.AperFunction,Profile*%
%ADD11C,0.100000*%
%TD*%
G04 APERTURE END LIST*
D10*
X92484700Y-111621700D02*
X93030800Y-111075600D01*
D11*
X85401100Y-70753600D02*
G75*
G03*
X84001100Y-72153600I0J-1400000D01*
G01*
D10*
X119103900Y-86196300D02*
X105807000Y-86196300D01*
X86541100Y-126849000D02*
X86541100Y-127865000D01*
X92484700Y-111621700D02*
X86553800Y-111621700D01*
X92383100Y-126849000D02*
X86541100Y-126849000D01*
X121250200Y-90590500D02*
X121250200Y-86894800D01*
X120234200Y-87326600D02*
X119103900Y-86196300D01*
X131664200Y-116866800D02*
X132210300Y-116320700D01*
X108753400Y-131903600D02*
X102911400Y-131903600D01*
X93030800Y-99112200D02*
X94046800Y-99112200D01*
X130648200Y-134951600D02*
X130648200Y-116435000D01*
D11*
X85401100Y-70753600D02*
X211601100Y-70753600D01*
D10*
X129517900Y-97829500D02*
X128286000Y-97829500D01*
D11*
X213001100Y-72153600D02*
X213001100Y-137853600D01*
D10*
X108753400Y-132919600D02*
X102911400Y-132919600D01*
X92916500Y-112637700D02*
X94046800Y-111507400D01*
D11*
X213001100Y-72153600D02*
G75*
G03*
X211601100Y-70753600I-1400000J0D01*
G01*
D10*
X86541100Y-119241700D02*
X86541100Y-120257700D01*
X92383100Y-120257700D02*
X86541100Y-120257700D01*
X92383100Y-127865000D02*
X86541100Y-127865000D01*
X121250200Y-86894800D02*
X119535700Y-85180300D01*
X92383100Y-126849000D02*
X92383100Y-127865000D01*
X138534900Y-111101000D02*
X138534900Y-112117000D01*
X131664200Y-134951600D02*
X130648200Y-134951600D01*
X108753400Y-131903600D02*
X108753400Y-132919600D01*
X120234200Y-90590500D02*
X120234200Y-87326600D01*
X132210300Y-111101000D02*
X131664200Y-110554900D01*
X92916500Y-112637700D02*
X86553800Y-112637700D01*
D11*
X85401100Y-139253600D02*
X211601100Y-139253600D01*
D10*
X92383100Y-119241700D02*
X92383100Y-120257700D01*
X132210300Y-116320700D02*
X138534900Y-116320700D01*
X129949700Y-96813500D02*
X128286000Y-96813500D01*
X94046800Y-99112200D02*
X94046800Y-111507400D01*
D11*
X211601100Y-139253600D02*
G75*
G03*
X213001100Y-137853600I0J1400000D01*
G01*
D10*
X138534900Y-116320700D02*
X138534900Y-115304700D01*
X130648200Y-116435000D02*
X131778500Y-115304700D01*
X131778500Y-115304700D02*
X138534900Y-115304700D01*
X102911400Y-131903600D02*
X102911400Y-132919600D01*
X130648200Y-110986700D02*
X130648200Y-98959800D01*
X138534900Y-112117000D02*
X131778500Y-112117000D01*
X93030800Y-99112200D02*
X93030800Y-111075600D01*
X131664200Y-110554900D02*
X131664200Y-98528000D01*
X131778500Y-112117000D02*
X130648200Y-110986700D01*
X128286000Y-96813500D02*
X128286000Y-97829500D01*
X131664200Y-98528000D02*
X129949700Y-96813500D01*
X119535700Y-85180300D02*
X105807000Y-85180300D01*
D11*
X84001100Y-72153600D02*
X84001100Y-137853600D01*
D10*
X138534900Y-111101000D02*
X132210300Y-111101000D01*
D11*
X84001100Y-137853600D02*
G75*
G03*
X85401100Y-139253600I1400000J0D01*
G01*
D10*
X86553800Y-111621700D02*
X86553800Y-112637700D01*
X131664200Y-134951600D02*
X131664200Y-116866800D01*
X120234200Y-90590500D02*
X121250200Y-90590500D01*
X105807000Y-85180300D02*
X105807000Y-86196300D01*
X92383100Y-119241700D02*
X86541100Y-119241700D01*
X130648200Y-98959800D02*
X129517900Y-97829500D01*
M02*
