%TF.GenerationSoftware,KiCad,Pcbnew,7.0.10-7.0.10~ubuntu22.04.1*%
%TF.CreationDate,2024-01-07T19:37:00+01:00*%
%TF.ProjectId,EEZ DIB AFE3,45455a20-4449-4422-9041-4645332e6b69,rev?*%
%TF.SameCoordinates,Original*%
%TF.FileFunction,Copper,L4,Bot*%
%TF.FilePolarity,Positive*%
%FSLAX46Y46*%
G04 Gerber Fmt 4.6, Leading zero omitted, Abs format (unit mm)*
G04 Created by KiCad (PCBNEW 7.0.10-7.0.10~ubuntu22.04.1) date 2024-01-07 19:37:00*
%MOMM*%
%LPD*%
G01*
G04 APERTURE LIST*
G04 Aperture macros list*
%AMOutline5P*
0 Free polygon, 5 corners , with rotation*
0 The origin of the aperture is its center*
0 number of corners: always 5*
0 $1 to $10 corner X, Y*
0 $11 Rotation angle, in degrees counterclockwise*
0 create outline with 5 corners*
4,1,5,$1,$2,$3,$4,$5,$6,$7,$8,$9,$10,$1,$2,$11*%
%AMOutline6P*
0 Free polygon, 6 corners , with rotation*
0 The origin of the aperture is its center*
0 number of corners: always 6*
0 $1 to $12 corner X, Y*
0 $13 Rotation angle, in degrees counterclockwise*
0 create outline with 6 corners*
4,1,6,$1,$2,$3,$4,$5,$6,$7,$8,$9,$10,$11,$12,$1,$2,$13*%
%AMOutline7P*
0 Free polygon, 7 corners , with rotation*
0 The origin of the aperture is its center*
0 number of corners: always 7*
0 $1 to $14 corner X, Y*
0 $15 Rotation angle, in degrees counterclockwise*
0 create outline with 7 corners*
4,1,7,$1,$2,$3,$4,$5,$6,$7,$8,$9,$10,$11,$12,$13,$14,$1,$2,$15*%
%AMOutline8P*
0 Free polygon, 8 corners , with rotation*
0 The origin of the aperture is its center*
0 number of corners: always 8*
0 $1 to $16 corner X, Y*
0 $17 Rotation angle, in degrees counterclockwise*
0 create outline with 8 corners*
4,1,8,$1,$2,$3,$4,$5,$6,$7,$8,$9,$10,$11,$12,$13,$14,$15,$16,$1,$2,$17*%
G04 Aperture macros list end*
%TA.AperFunction,ComponentPad*%
%ADD10C,1.270000*%
%TD*%
%TA.AperFunction,ComponentPad*%
%ADD11C,3.000000*%
%TD*%
%TA.AperFunction,ComponentPad*%
%ADD12C,1.950000*%
%TD*%
%TA.AperFunction,ComponentPad*%
%ADD13Outline8P,-1.270000X0.526051X-0.526051X1.270000X0.526051X1.270000X1.270000X0.526051X1.270000X-0.526051X0.526051X-1.270000X-0.526051X-1.270000X-1.270000X-0.526051X270.000000*%
%TD*%
%TA.AperFunction,ComponentPad*%
%ADD14C,2.100000*%
%TD*%
%TA.AperFunction,ComponentPad*%
%ADD15Outline8P,-1.270000X0.526051X-0.526051X1.270000X0.526051X1.270000X1.270000X0.526051X1.270000X-0.526051X0.526051X-1.270000X-0.526051X-1.270000X-1.270000X-0.526051X0.000000*%
%TD*%
%TA.AperFunction,ComponentPad*%
%ADD16Outline8P,-1.270000X0.526051X-0.526051X1.270000X0.526051X1.270000X1.270000X0.526051X1.270000X-0.526051X0.526051X-1.270000X-0.526051X-1.270000X-1.270000X-0.526051X180.000000*%
%TD*%
%TA.AperFunction,ComponentPad*%
%ADD17R,1.500000X1.500000*%
%TD*%
%TA.AperFunction,ComponentPad*%
%ADD18Outline8P,-0.750000X0.310660X-0.310660X0.750000X0.310660X0.750000X0.750000X0.310660X0.750000X-0.310660X0.310660X-0.750000X-0.310660X-0.750000X-0.750000X-0.310660X180.000000*%
%TD*%
%TA.AperFunction,ViaPad*%
%ADD19C,0.806400*%
%TD*%
%TA.AperFunction,ViaPad*%
%ADD20C,0.600000*%
%TD*%
%TA.AperFunction,Conductor*%
%ADD21C,0.812800*%
%TD*%
%TA.AperFunction,Conductor*%
%ADD22C,0.304800*%
%TD*%
%TA.AperFunction,Conductor*%
%ADD23C,0.203200*%
%TD*%
%TA.AperFunction,Conductor*%
%ADD24C,1.016000*%
%TD*%
%TA.AperFunction,Conductor*%
%ADD25C,0.254000*%
%TD*%
%TA.AperFunction,Conductor*%
%ADD26C,1.270000*%
%TD*%
%TA.AperFunction,Conductor*%
%ADD27C,3.810000*%
%TD*%
%TA.AperFunction,Conductor*%
%ADD28C,0.406400*%
%TD*%
%TA.AperFunction,Conductor*%
%ADD29C,0.200000*%
%TD*%
%TA.AperFunction,Conductor*%
%ADD30C,0.508000*%
%TD*%
G04 APERTURE END LIST*
D10*
%TO.P,JP6,1,Pin_1*%
%TO.N,GND*%
X178362100Y-92206700D03*
%TO.P,JP6,2,Pin_2*%
%TO.N,AIN4N*%
X178362100Y-94206700D03*
%TD*%
%TO.P,TP2,1,P$1*%
%TO.N,-2V5_ISO*%
X180340000Y-129540000D03*
%TD*%
%TO.P,TP1,1,P$1*%
%TO.N,+2V5_ISO*%
X193040000Y-121920000D03*
%TD*%
D11*
%TO.P,ISEL10A_1,11,11*%
%TO.N,Net-(ISEL10A_1-Pad11)*%
X112422300Y-96135800D03*
%TO.P,ISEL10A_1,12,12*%
%TO.N,Net-(ISEL10A_1-Pad12)*%
X117462300Y-96135800D03*
%TO.P,ISEL10A_1,14,14*%
%TO.N,Net-(ISEL10A_1-Pad14)*%
X107382300Y-96135800D03*
%TO.P,ISEL10A_1,21,21*%
%TO.N,Net-(F1-Pad1)*%
X112422300Y-88575800D03*
%TO.P,ISEL10A_1,22,22*%
%TO.N,Net-(ISEL10A_1-Pad22)*%
X117462300Y-88575800D03*
%TO.P,ISEL10A_1,24,24*%
%TO.N,unconnected-(ISEL10A_1-Pad24)*%
X107382300Y-88575800D03*
D12*
%TO.P,ISEL10A_1,A1,R*%
%TO.N,/Isolated Ch#1\u002C Ch#2/ISEL_R2_OUT*%
X132752300Y-88575800D03*
%TO.P,ISEL10A_1,A2,S*%
%TO.N,/Isolated Ch#1\u002C Ch#2/ISEL_S2_OUT*%
X132752300Y-96135800D03*
%TO.P,ISEL10A_1,A3,A3*%
%TO.N,+5V_ISO*%
X132752300Y-92355800D03*
%TD*%
D11*
%TO.P,ISEL10A_2,11,11*%
%TO.N,Net-(F4-Pad1)*%
X178475000Y-83600900D03*
%TO.P,ISEL10A_2,12,12*%
%TO.N,Net-(ISEL10A_2-Pad12)*%
X183515000Y-83600900D03*
%TO.P,ISEL10A_2,14,14*%
%TO.N,unconnected-(ISEL10A_2-Pad14)*%
X173435000Y-83600900D03*
%TO.P,ISEL10A_2,21,21*%
%TO.N,Net-(F4-Pad1)*%
X178475000Y-76040900D03*
%TO.P,ISEL10A_2,22,22*%
%TO.N,Net-(ISEL10A_2-Pad12)*%
X183515000Y-76040900D03*
%TO.P,ISEL10A_2,24,24*%
%TO.N,unconnected-(ISEL10A_2-Pad24)*%
X173435000Y-76040900D03*
D12*
%TO.P,ISEL10A_2,A1,R*%
%TO.N,ISEL10A_R4_OUT*%
X198805000Y-76040900D03*
%TO.P,ISEL10A_2,A2,S*%
%TO.N,ISEL10A_S4_OUT*%
X198805000Y-83600900D03*
%TO.P,ISEL10A_2,A3,A3*%
%TO.N,+5V_ISO*%
X198805000Y-79820900D03*
%TD*%
D10*
%TO.P,JP5,1,Pin_1*%
%TO.N,GND*%
X169357800Y-122705500D03*
%TO.P,JP5,2,Pin_2*%
%TO.N,IN3N*%
X169357800Y-120705500D03*
%TD*%
D13*
%TO.P,F3,1,1*%
%TO.N,Net-(ISEL1A_1B-COM)*%
X160465600Y-91313000D03*
%TO.P,F3,2,2*%
%TO.N,AIN4P*%
X137965600Y-91313000D03*
%TD*%
D14*
%TO.P,X3,1,Pin_1*%
%TO.N,AIN1P*%
X89600000Y-133085000D03*
%TO.P,X3,2,Pin_2*%
%TO.N,AIN1N*%
X89600000Y-129275000D03*
%TO.P,X3,3,Pin_3*%
%TO.N,AIN2P*%
X89600000Y-125465000D03*
%TO.P,X3,4,Pin_4*%
%TO.N,AIN2N*%
X89600000Y-121655000D03*
%TO.P,X3,5,Pin_5*%
%TO.N,AIN3P*%
X89600000Y-117845000D03*
%TO.P,X3,6,Pin_6*%
%TO.N,IN3N*%
X89600000Y-114035000D03*
%TO.P,X3,7,Pin_7*%
%TO.N,AIN4P*%
X89600000Y-110225000D03*
%TO.P,X3,8,Pin_8*%
%TO.N,AIN4N*%
X89600000Y-106415000D03*
%TD*%
D10*
%TO.P,GND1,1,P$1*%
%TO.N,GND*%
X185420000Y-129540000D03*
%TD*%
D15*
%TO.P,F1,1,1*%
%TO.N,Net-(F1-Pad1)*%
X96139000Y-106807000D03*
%TO.P,F1,2,2*%
%TO.N,AIN2P*%
X96139000Y-129307000D03*
%TD*%
D13*
%TO.P,F4,1,1*%
%TO.N,Net-(F4-Pad1)*%
X160452900Y-81916400D03*
%TO.P,F4,2,2*%
%TO.N,AIN4P*%
X137952900Y-81916400D03*
%TD*%
D16*
%TO.P,F2,1,1*%
%TO.N,Net-(F1-Pad1)*%
X105578400Y-129323300D03*
%TO.P,F2,2,2*%
%TO.N,Net-(F2-Pad2)*%
X105578400Y-106823300D03*
%TD*%
D10*
%TO.P,IN1N1,1,P$1*%
%TO.N,IN1N*%
X142240000Y-129540000D03*
%TD*%
D17*
%TO.P,X2,1,Pin_1*%
%TO.N,GND*%
X169020000Y-72713600D03*
D18*
%TO.P,X2,2,Pin_2*%
%TO.N,unconnected-(X2-Pin_2-Pad2)*%
X169020000Y-75253600D03*
%TO.P,X2,3,Pin_3*%
%TO.N,/Isolated Ch#1\u002C Ch#2/DIAG#1*%
X166480000Y-72713600D03*
%TO.P,X2,4,Pin_4*%
%TO.N,/Isolated Ch#1\u002C Ch#2/DIAG#2*%
X166480000Y-75253600D03*
%TO.P,X2,5,Pin_5*%
%TO.N,/Isolated Ch#1\u002C Ch#2/USEL#1*%
X163940000Y-72713600D03*
%TO.P,X2,6,Pin_6*%
%TO.N,/Isolated Ch#1\u002C Ch#2/ISEL_S#2*%
X163940000Y-75253600D03*
%TO.P,X2,7,Pin_7*%
%TO.N,unconnected-(X2-Pin_7-Pad7)*%
X161400000Y-72713600D03*
%TO.P,X2,8,Pin_8*%
%TO.N,/Isolated Ch#1\u002C Ch#2/ISEL_R#2*%
X161400000Y-75253600D03*
%TO.P,X2,9,Pin_9*%
%TO.N,USEL100#3*%
X158860000Y-72713600D03*
%TO.P,X2,10,Pin_10*%
%TO.N,unconnected-(X2-Pin_10-Pad10)*%
X158860000Y-75253600D03*
%TO.P,X2,11,Pin_11*%
%TO.N,USEL1#3*%
X156320000Y-72713600D03*
%TO.P,X2,12,Pin_12*%
%TO.N,unconnected-(X2-Pin_12-Pad12)*%
X156320000Y-75253600D03*
%TO.P,X2,13,Pin_13*%
%TO.N,USEL20#3*%
X153780000Y-72713600D03*
%TO.P,X2,14,Pin_14*%
%TO.N,unconnected-(X2-Pin_14-Pad14)*%
X153780000Y-75253600D03*
%TO.P,X2,15,Pin_15*%
%TO.N,unconnected-(X2-Pin_15-Pad15)*%
X151240000Y-72713600D03*
%TO.P,X2,16,Pin_16*%
%TO.N,/Isolated Ch#1\u002C Ch#2/ISEL_S#4*%
X151240000Y-75253600D03*
%TO.P,X2,17,Pin_17*%
%TO.N,unconnected-(X2-Pin_17-Pad17)*%
X148700000Y-72713600D03*
%TO.P,X2,18,Pin_18*%
%TO.N,/Isolated Ch#1\u002C Ch#2/ISEL_R#4*%
X148700000Y-75253600D03*
%TO.P,X2,19,Pin_19*%
%TO.N,unconnected-(X2-Pin_19-Pad19)*%
X146160000Y-72713600D03*
%TO.P,X2,20,Pin_20*%
%TO.N,/Isolated Ch#1\u002C Ch#2/ISEL10_S#4*%
X146160000Y-75253600D03*
%TO.P,X2,21,Pin_21*%
%TO.N,unconnected-(X2-Pin_21-Pad21)*%
X143620000Y-72713600D03*
%TO.P,X2,22,Pin_22*%
%TO.N,/Isolated Ch#1\u002C Ch#2/ISEL10_R#4*%
X143620000Y-75253600D03*
%TO.P,X2,23,Pin_23*%
%TO.N,ISEL_LOW#4*%
X141080000Y-72713600D03*
%TO.P,X2,24,Pin_24*%
%TO.N,ISEL_MID#4*%
X141080000Y-75253600D03*
%TO.P,X2,25,Pin_25*%
%TO.N,unconnected-(X2-Pin_25-Pad25)*%
X138540000Y-72713600D03*
%TO.P,X2,26,Pin_26*%
%TO.N,unconnected-(X2-Pin_26-Pad26)*%
X138540000Y-75253600D03*
%TO.P,X2,27,Pin_27*%
%TO.N,GND*%
X136000000Y-72713600D03*
%TO.P,X2,28,Pin_28*%
X136000000Y-75253600D03*
%TD*%
D10*
%TO.P,IN1P1,1,P$1*%
%TO.N,IN1P*%
X142240000Y-121920000D03*
%TD*%
%TO.P,IN2N1,1,P$1*%
%TO.N,IN2N*%
X144780000Y-106680000D03*
%TD*%
%TO.P,IN2P1,1,P$1*%
%TO.N,IN2P*%
X144780000Y-111760000D03*
%TD*%
D17*
%TO.P,X1,1,Pin_1*%
%TO.N,GND*%
X169020000Y-134753600D03*
D18*
%TO.P,X1,2,Pin_2*%
X169020000Y-137293600D03*
%TO.P,X1,3,Pin_3*%
%TO.N,ADC_MOSI*%
X166480000Y-134753600D03*
%TO.P,X1,4,Pin_4*%
%TO.N,unconnected-(X1-Pin_4-Pad4)*%
X166480000Y-137293600D03*
%TO.P,X1,5,Pin_5*%
%TO.N,~{ADC_CS}*%
X163940000Y-134753600D03*
%TO.P,X1,6,Pin_6*%
%TO.N,ADC_SCK*%
X163940000Y-137293600D03*
%TO.P,X1,7,Pin_7*%
%TO.N,~{ADC_DRDY}*%
X161400000Y-134753600D03*
%TO.P,X1,8,Pin_8*%
%TO.N,ADC_MISO*%
X161400000Y-137293600D03*
%TO.P,X1,9,Pin_9*%
%TO.N,~{RESET}*%
X158860000Y-134753600D03*
%TO.P,X1,10,Pin_10*%
%TO.N,ADC_START*%
X158860000Y-137293600D03*
%TO.P,X1,11,Pin_11*%
%TO.N,GND*%
X156320000Y-134753600D03*
%TO.P,X1,12,Pin_12*%
X156320000Y-137293600D03*
%TO.P,X1,13,Pin_13*%
%TO.N,+3V3_ISO*%
X153780000Y-134753600D03*
%TO.P,X1,14,Pin_14*%
%TO.N,AFE_CLK*%
X153780000Y-137293600D03*
%TO.P,X1,15,Pin_15*%
%TO.N,-5V_ISO*%
X151240000Y-134753600D03*
%TO.P,X1,16,Pin_16*%
%TO.N,+5V_ISO*%
X151240000Y-137293600D03*
%TO.P,X1,17,Pin_17*%
%TO.N,unconnected-(X1-Pin_17-Pad17)*%
X148700000Y-134753600D03*
%TO.P,X1,18,Pin_18*%
%TO.N,unconnected-(X1-Pin_18-Pad18)*%
X148700000Y-137293600D03*
%TO.P,X1,19,Pin_19*%
%TO.N,-15V_ISO*%
X146160000Y-134753600D03*
%TO.P,X1,20,Pin_20*%
%TO.N,+15V_ISO*%
X146160000Y-137293600D03*
%TO.P,X1,21,Pin_21*%
%TO.N,GND*%
X143620000Y-134753600D03*
%TO.P,X1,22,Pin_22*%
X143620000Y-137293600D03*
%TO.P,X1,23,Pin_23*%
%TO.N,Net-(X1-Pin_23)*%
X141080000Y-134753600D03*
%TO.P,X1,24,Pin_24*%
%TO.N,Net-(X1-Pin_24)*%
X141080000Y-137293600D03*
%TO.P,X1,25,Pin_25*%
%TO.N,Net-(X1-Pin_25)*%
X138540000Y-134753600D03*
%TO.P,X1,26,Pin_26*%
%TO.N,Net-(X1-Pin_26)*%
X138540000Y-137293600D03*
%TO.P,X1,27,Pin_27*%
%TO.N,GND*%
X136000000Y-134753600D03*
%TO.P,X1,28,Pin_28*%
X136000000Y-137293600D03*
%TD*%
D19*
%TO.N,Net-(IC2-DCDC_HGND)*%
X121402600Y-108586400D03*
X123333000Y-103112700D03*
X118811800Y-111113700D03*
%TO.N,Net-(IC8-AVDD)*%
X203361101Y-102904099D03*
X198275700Y-102719000D03*
X198374000Y-123952000D03*
X196840600Y-119292500D03*
X200307700Y-107405300D03*
%TO.N,/Voltage/current  ADC/AVSS*%
X201577700Y-107506900D03*
X200803000Y-100331400D03*
X199317100Y-115838100D03*
X202809600Y-98997900D03*
X202565000Y-100647500D03*
X197805800Y-115850800D03*
X205359000Y-129540000D03*
X200815700Y-103747700D03*
X195964300Y-103569900D03*
X204308200Y-117730400D03*
X200180700Y-120930800D03*
X198374000Y-125539500D03*
%TO.N,Net-(IC8-VREFP)*%
X200320400Y-98426400D03*
X196065900Y-122150000D03*
%TO.N,Net-(D3-A)*%
X179886100Y-120067200D03*
X187569600Y-119965600D03*
%TO.N,Net-(IC6B-S)*%
X151082500Y-103620700D03*
X174641000Y-96419800D03*
X166551100Y-102503100D03*
X174272700Y-100382200D03*
X183543700Y-106719500D03*
%TO.N,Net-(D10-A)*%
X179873400Y-114377600D03*
X185207400Y-115469800D03*
%TO.N,Net-(F2-Pad2)*%
X112042700Y-99213800D03*
X113681000Y-99213800D03*
X112855500Y-99213800D03*
X111217200Y-99213800D03*
%TO.N,Net-(ISEL1A_1B-COM)*%
X153686000Y-99213800D03*
X152873200Y-99213800D03*
%TO.N,/Isolated Ch#1\u002C Ch#2/DIAG#1*%
X143183100Y-96013400D03*
X140652500Y-120015000D03*
X136045700Y-120016400D03*
%TO.N,/Isolated Ch#1\u002C Ch#2/ISEL_S2_OUT*%
X130851400Y-86653500D03*
%TO.N,/Isolated Ch#1\u002C Ch#2/DIAG#2*%
X144211800Y-102376100D03*
X138179300Y-103214300D03*
%TO.N,Net-(IC4A-S)*%
X170069000Y-124651900D03*
X160290000Y-117222400D03*
D20*
%TO.N,Net-(IC6C-D)*%
X168402000Y-92900500D03*
D19*
X170970700Y-101957000D03*
%TO.N,Net-(IC4B-S)*%
X167478200Y-117311300D03*
X175517300Y-123623200D03*
%TO.N,Net-(IC8-~{PWDN})*%
X207534000Y-115126900D03*
X207838800Y-119737000D03*
%TO.N,Net-(IC8-CLK)*%
X204346300Y-113387000D03*
X208359500Y-111037500D03*
%TO.N,Net-(X1-Pin_23)*%
X145164300Y-97118300D03*
%TO.N,/Isolated Ch#1\u002C Ch#2/USEL#1*%
X136947400Y-128804800D03*
%TO.N,Net-(X1-Pin_24)*%
X162652200Y-102147500D03*
X146576200Y-102592000D03*
%TO.N,GND*%
X139246100Y-103100000D03*
X180022500Y-121602500D03*
X169078400Y-110707300D03*
X175047400Y-105640000D03*
X195037200Y-119343300D03*
X202606400Y-110783500D03*
X210074000Y-105119300D03*
X203419200Y-112409100D03*
X185067700Y-112383700D03*
X132870700Y-72658100D03*
X170411900Y-126074300D03*
X207899000Y-104408100D03*
X138430000Y-109728000D03*
X203419200Y-110783500D03*
X194516500Y-130595500D03*
X182181500Y-125730000D03*
X135486900Y-129681100D03*
X202936600Y-77724000D03*
X155883100Y-119533800D03*
X202606400Y-111596300D03*
X141224000Y-109537500D03*
X202606400Y-112409100D03*
X178244500Y-130619500D03*
X195100700Y-128385700D03*
X196548500Y-101017200D03*
X203419200Y-111596300D03*
X136398000Y-118644800D03*
X210201000Y-107316400D03*
X194818000Y-101219000D03*
X133670800Y-72658100D03*
X138725400Y-125807600D03*
X176761900Y-110326300D03*
X132070600Y-72658100D03*
X174844200Y-107570400D03*
X202580996Y-131967104D03*
X197412100Y-100026600D03*
X200088500Y-129349500D03*
%TO.N,+15V_ISO*%
X175225200Y-125261500D03*
X167808400Y-105932100D03*
%TO.N,-15V_ISO*%
X167808400Y-108522900D03*
X173383700Y-125261500D03*
%TO.N,+3V3_ISO*%
X147320002Y-105410000D03*
X154105100Y-128893700D03*
X208461100Y-107303700D03*
X207800700Y-123902600D03*
X205400400Y-105309800D03*
X139893800Y-121756300D03*
%TO.N,+5V_ISO*%
X175707800Y-128106300D03*
X169078400Y-100915600D03*
X157661100Y-100915600D03*
X191570100Y-129135000D03*
X210645500Y-96901000D03*
X157661100Y-133021200D03*
X175707800Y-133021200D03*
X147780500Y-100915600D03*
X191570100Y-97105600D03*
X157661100Y-128703200D03*
%TO.N,+2V5_ISO*%
X195215000Y-125807600D03*
X175441100Y-102160200D03*
X181422800Y-124639200D03*
%TO.N,-2V5_ISO*%
X177790600Y-108383200D03*
X182565800Y-111558200D03*
X188801500Y-130976500D03*
X210239100Y-93879800D03*
%TO.N,-5V_ISO*%
X190554100Y-131217800D03*
%TO.N,IN1P*%
X180051200Y-126493400D03*
X142395700Y-124220100D03*
%TO.N,IN1N*%
X180063900Y-127509400D03*
X142383000Y-125236100D03*
%TO.N,IN2P*%
X192624200Y-115126900D03*
X138065000Y-107049700D03*
%TO.N,IN2N*%
X192636900Y-114098200D03*
X138814300Y-108040300D03*
%TO.N,IN3P*%
X180864000Y-118530500D03*
X176114200Y-122721500D03*
X183594500Y-118530500D03*
%TO.N,IN4N*%
X162664900Y-94768800D03*
X169040300Y-94768800D03*
X173561500Y-106554400D03*
%TO.N,ISEL10A_S4_OUT*%
X128603500Y-75350500D03*
X166373300Y-78779500D03*
X143348200Y-79846300D03*
%TO.N,ISEL10A_R4_OUT*%
X165751000Y-77954000D03*
X142573500Y-79135100D03*
X129403600Y-74537700D03*
%TO.N,ISEL_S4_OUT*%
X148313900Y-94565600D03*
X155044900Y-106325800D03*
%TO.N,ISEL_R4_OUT*%
X146789900Y-92000200D03*
X148517100Y-104330500D03*
%TO.N,IN4P*%
X180864000Y-115774600D03*
X170723050Y-106725850D03*
X183645300Y-115774600D03*
%TO.N,ISEL_MID#4*%
X146091400Y-81700500D03*
X158258000Y-92139900D03*
X171974000Y-98934400D03*
X165966900Y-95899100D03*
%TO.N,~{RESET}*%
X208550000Y-117146200D03*
D20*
%TO.N,~{ADC_CS}*%
X210390999Y-118379499D03*
%TO.N,ADC_MOSI*%
X211201000Y-119570500D03*
D19*
%TO.N,ADC_MISO*%
X210696300Y-115190400D03*
%TO.N,~{ADC_DRDY}*%
X210582000Y-114174400D03*
%TO.N,ADC_START*%
X209261200Y-116422300D03*
%TO.N,ADC_SCK*%
X211102700Y-116206400D03*
%TO.N,USEL1#3*%
X159299400Y-120968900D03*
X159299400Y-128804800D03*
X154511500Y-83351500D03*
%TO.N,USEL20#3*%
X171770800Y-119190900D03*
X155159200Y-82386300D03*
%TO.N,USEL100#3*%
X156187900Y-83529300D03*
X162715700Y-110859700D03*
%TO.N,ISEL_LOW#4*%
X153038300Y-89790400D03*
X155108400Y-104878000D03*
X146891500Y-80735300D03*
%TO.N,Net-(ISEL10A_1-Pad11)*%
X115903500Y-100280600D03*
%TO.N,Net-(ISEL10A_1-Pad22)*%
X110518700Y-109208700D03*
X110518700Y-108408600D03*
X109705900Y-108408600D03*
X109705900Y-109208700D03*
X112093500Y-105081200D03*
X111293400Y-104281100D03*
X112093500Y-104281100D03*
X108905800Y-109208700D03*
X111293400Y-105081200D03*
X112893600Y-104281100D03*
X112893600Y-105081200D03*
X113693700Y-104281100D03*
X113693700Y-105081200D03*
X108905800Y-108408600D03*
%TO.N,Net-(ISEL10A_2-Pad12)*%
X173990000Y-88799800D03*
X173990000Y-87174200D03*
X173990000Y-89612600D03*
X173990000Y-87987000D03*
%TO.N,AIN1N*%
X121088100Y-126369400D03*
X120488200Y-132487800D03*
X121466100Y-119724300D03*
%TO.N,AIN4N*%
X159997900Y-87313900D03*
X165484300Y-88355300D03*
X163884100Y-87567900D03*
X159197800Y-85802600D03*
X159997900Y-86539200D03*
X165484300Y-89155400D03*
X159197800Y-86551900D03*
X159197800Y-88050500D03*
X163884100Y-89168100D03*
X164684200Y-88355300D03*
X159997900Y-85053300D03*
X164684200Y-87567900D03*
X163884100Y-88368000D03*
X163884100Y-89955500D03*
X165484300Y-89955500D03*
X159997900Y-88050500D03*
X159197800Y-87301200D03*
X165484300Y-87567900D03*
X159997900Y-85802600D03*
X164684200Y-89955500D03*
X164684200Y-89155400D03*
X159197800Y-85053300D03*
%TO.N,AIN4P*%
X85309200Y-110097700D03*
X85309200Y-108472100D03*
X85309200Y-109284900D03*
X86122000Y-110097700D03*
X86122000Y-109284900D03*
X86122000Y-108472100D03*
%TO.N,AIN2N*%
X114608100Y-115076100D03*
X114608100Y-114314100D03*
X109617000Y-115888900D03*
X115370100Y-114314100D03*
X109617000Y-115088800D03*
X110417100Y-114301400D03*
X110417100Y-115888900D03*
X110417100Y-115088800D03*
X115370100Y-115838100D03*
X109617000Y-114301400D03*
X115370100Y-115076100D03*
X114608100Y-115838100D03*
%TO.N,IN3N*%
X171681900Y-116943000D03*
X143449800Y-120410100D03*
X128501900Y-112891700D03*
X184432700Y-117730400D03*
%TO.N,AIN3P*%
X140224000Y-114504600D03*
%TD*%
D21*
%TO.N,Net-(IC2-DCDC_HGND)*%
X123320300Y-103125400D02*
X121402600Y-105043100D01*
X121402600Y-105043100D02*
X121402600Y-108586400D01*
X121402600Y-108586400D02*
X121339100Y-108586400D01*
X121339100Y-108586400D02*
X118811800Y-111113700D01*
D22*
%TO.N,/Voltage/current  ADC/AVSS*%
X202809600Y-98997900D02*
X202809600Y-99798000D01*
%TO.N,Net-(IC8-VREFP)*%
X195291200Y-98426400D02*
X193691000Y-100026600D01*
X200320400Y-98426400D02*
X195291200Y-98426400D01*
X193691000Y-119775100D02*
X196065900Y-122150000D01*
X193691000Y-100026600D02*
X193691000Y-119775100D01*
D23*
%TO.N,Net-(D3-A)*%
X187569600Y-119965600D02*
X187468000Y-120067200D01*
X187468000Y-120067200D02*
X179886100Y-120067200D01*
D21*
%TO.N,Net-(IC6B-S)*%
X174272700Y-96788100D02*
X174641000Y-96419800D01*
D24*
X174577500Y-103620700D02*
X180444900Y-103620700D01*
D23*
X166560500Y-103560500D02*
X166560500Y-102512500D01*
D24*
X151082500Y-103620700D02*
X166500300Y-103620700D01*
X180444900Y-103620700D02*
X183543700Y-106719500D01*
D25*
X166551100Y-103582600D02*
X166500300Y-103620700D01*
D21*
X174272700Y-100382200D02*
X174272700Y-96788100D01*
D24*
X166500300Y-103620700D02*
X174577500Y-103620700D01*
D21*
X174272700Y-103315900D02*
X174577500Y-103620700D01*
X174272700Y-100382200D02*
X174272700Y-103315900D01*
D23*
X166500300Y-103620700D02*
X166560500Y-103560500D01*
X166560500Y-102512500D02*
X166551100Y-102503100D01*
%TO.N,Net-(D10-A)*%
X179873400Y-114377600D02*
X184115200Y-114377600D01*
X184115200Y-114377600D02*
X185207400Y-115469800D01*
D26*
%TO.N,Net-(F2-Pad2)*%
X113480000Y-99213800D02*
X111217200Y-99213800D01*
X105578400Y-101690300D02*
X108054900Y-99213800D01*
X105578400Y-106823300D02*
X105578400Y-101690300D01*
X108054900Y-99213800D02*
X111217200Y-99213800D01*
D24*
%TO.N,Net-(ISEL1A_1B-COM)*%
X160465600Y-91200100D02*
X160465600Y-92434200D01*
X152873200Y-99213800D02*
X153686000Y-99213800D01*
X160465600Y-92434200D02*
X153686000Y-99213800D01*
D23*
%TO.N,/Isolated Ch#1\u002C Ch#2/DIAG#1*%
X136045700Y-120016400D02*
X136047100Y-120015000D01*
X136047100Y-120015000D02*
X140652500Y-120015000D01*
%TO.N,/Isolated Ch#1\u002C Ch#2/ISEL_S2_OUT*%
X131003800Y-86805900D02*
X130851400Y-86653500D01*
X131003800Y-94404000D02*
X132705600Y-96105800D01*
X131003800Y-94404000D02*
X131003800Y-86805900D01*
%TO.N,/Isolated Ch#1\u002C Ch#2/DIAG#2*%
X138458700Y-102363400D02*
X144199100Y-102363400D01*
X138179300Y-102642800D02*
X138179300Y-103214300D01*
X138458700Y-102363400D02*
X138179300Y-102642800D01*
X144199100Y-102363400D02*
X144211800Y-102376100D01*
%TO.N,Net-(IC4A-S)*%
X170069000Y-124651900D02*
X167719500Y-124651900D01*
X167719500Y-124651900D02*
X160290000Y-117222400D01*
%TO.N,Net-(IC4B-S)*%
X174209200Y-123623200D02*
X167897300Y-117311300D01*
X167478200Y-117311300D02*
X167897300Y-117311300D01*
X175517300Y-123623200D02*
X174209200Y-123623200D01*
%TO.N,Net-(IC8-~{PWDN})*%
X207534000Y-115126900D02*
X207534000Y-119432200D01*
X207534000Y-119432200D02*
X207838800Y-119737000D01*
X207724500Y-119622700D02*
X207838800Y-119737000D01*
%TO.N,Net-(IC8-CLK)*%
X206010000Y-113387000D02*
X208359500Y-111037500D01*
X204346300Y-113387000D02*
X206010000Y-113387000D01*
D25*
%TO.N,Net-(X1-Pin_24)*%
X162652200Y-102147500D02*
X147020700Y-102147500D01*
X147020700Y-102147500D02*
X146576200Y-102592000D01*
D27*
%TO.N,Net-(F1-Pad1)*%
X96282000Y-106823300D02*
X96282000Y-101372800D01*
X96282000Y-106823300D02*
X96282000Y-120026900D01*
X109502700Y-92406600D02*
X105248200Y-92406600D01*
X96282000Y-120026900D02*
X105578400Y-129323300D01*
X112405600Y-88605800D02*
X112405600Y-89503700D01*
X105248200Y-92406600D02*
X96282000Y-101372800D01*
X112405600Y-89503700D02*
X109502700Y-92406600D01*
%TO.N,Net-(F4-Pad1)*%
X160452900Y-81916400D02*
X168087800Y-81916400D01*
X168087800Y-81916400D02*
X170221400Y-79782800D01*
X178451000Y-79782800D02*
X178451000Y-76078200D01*
X170221400Y-79782800D02*
X178451000Y-79782800D01*
X178451000Y-83563600D02*
X178458300Y-83570900D01*
X178451000Y-79782800D02*
X178451000Y-83563600D01*
X178451000Y-76078200D02*
X178458300Y-76070900D01*
D21*
%TO.N,+3V3_ISO*%
X154105100Y-134429600D02*
X153781100Y-134753600D01*
X145494500Y-130239900D02*
X154105100Y-130239900D01*
X154105100Y-128893700D02*
X154105100Y-130239900D01*
X139893800Y-121756300D02*
X139893800Y-124639200D01*
X154105100Y-130239900D02*
X154105100Y-134429600D01*
X139893800Y-124639200D02*
X145494500Y-130239900D01*
%TO.N,+5V_ISO*%
X157661100Y-100915600D02*
X169078400Y-100915600D01*
X147780500Y-100915600D02*
X141265400Y-100915600D01*
X157661100Y-100915600D02*
X147780500Y-100915600D01*
X157661100Y-128703200D02*
X157661100Y-133021200D01*
X141265400Y-100915600D02*
X132705600Y-92355800D01*
D23*
X175707800Y-128106300D02*
X175707800Y-133021200D01*
D21*
%TO.N,+2V5_ISO*%
X194046600Y-124639200D02*
X193040000Y-124639200D01*
X195215000Y-125807600D02*
X194046600Y-124639200D01*
X193040000Y-124639200D02*
X181422800Y-124639200D01*
D22*
X193040000Y-121920000D02*
X193040000Y-124639200D01*
D28*
%TO.N,-2V5_ISO*%
X177790600Y-108383200D02*
X179390800Y-108383200D01*
X179390800Y-108383200D02*
X182565800Y-111558200D01*
D23*
%TO.N,IN1P*%
X144973800Y-126798200D02*
X142395700Y-124220100D01*
X179746400Y-126798200D02*
X144973800Y-126798200D01*
X179746400Y-126798200D02*
X180051200Y-126493400D01*
%TO.N,IN1N*%
X144796000Y-127204600D02*
X142827500Y-125236100D01*
X179759100Y-127204600D02*
X180063900Y-127509400D01*
X142383000Y-125236100D02*
X142827500Y-125236100D01*
X144796000Y-127204600D02*
X179759100Y-127204600D01*
%TO.N,IN2P*%
X174387000Y-112345600D02*
X148860000Y-112345600D01*
X138065000Y-108294300D02*
X138065000Y-107049700D01*
X190389000Y-116943000D02*
X192205100Y-115126900D01*
X144780000Y-108726100D02*
X144730600Y-108775500D01*
X179733700Y-116244500D02*
X178285900Y-116244500D01*
X144730600Y-108775500D02*
X138546200Y-108775500D01*
X145240500Y-108726100D02*
X144780000Y-108726100D01*
X190389000Y-116943000D02*
X180432200Y-116943000D01*
X192624200Y-115126900D02*
X192205100Y-115126900D01*
X138546200Y-108775500D02*
X138065000Y-108294300D01*
X180432200Y-116943000D02*
X179733700Y-116244500D01*
X178285900Y-116244500D02*
X174387000Y-112345600D01*
X148860000Y-112345600D02*
X145240500Y-108726100D01*
D29*
X144780000Y-111760000D02*
X144780000Y-108726100D01*
D23*
%TO.N,IN2N*%
X138814300Y-108040300D02*
X138814300Y-108053000D01*
X139068300Y-108307000D02*
X144843500Y-108307000D01*
X138814300Y-108053000D02*
X139068300Y-108307000D01*
X174577500Y-111888400D02*
X148987000Y-111888400D01*
X179898800Y-115825400D02*
X178514500Y-115825400D01*
X144843500Y-108307000D02*
X144780000Y-108243500D01*
X180610000Y-116536600D02*
X190198500Y-116536600D01*
X178514500Y-115825400D02*
X174577500Y-111888400D01*
X144780000Y-108243500D02*
X144780000Y-106680000D01*
X144843500Y-108307000D02*
X145405600Y-108307000D01*
X179898800Y-115825400D02*
X180610000Y-116536600D01*
X148987000Y-111888400D02*
X145405600Y-108307000D01*
X190198500Y-116536600D02*
X192636900Y-114098200D01*
%TO.N,IN3P*%
X176114200Y-122721500D02*
X176114200Y-121807100D01*
X180864000Y-118530500D02*
X179390800Y-118530500D01*
X180864000Y-118530500D02*
X183594500Y-118530500D01*
X176114200Y-121807100D02*
X179390800Y-118530500D01*
%TO.N,IN4P*%
X180864000Y-115774600D02*
X180444900Y-115774600D01*
X179401600Y-115393600D02*
X170733850Y-106725850D01*
X170733850Y-106725850D02*
X170723050Y-106725850D01*
X180444900Y-115774600D02*
X180063900Y-115393600D01*
X180063900Y-115393600D02*
X179401600Y-115393600D01*
X183645300Y-115774600D02*
X180864000Y-115774600D01*
%TO.N,ISEL_MID#4*%
X169002200Y-98934400D02*
X165966900Y-95899100D01*
X171974000Y-98934400D02*
X169002200Y-98934400D01*
%TO.N,~{RESET}*%
X162396900Y-131217800D02*
X171021500Y-131217800D01*
X173904400Y-134100700D02*
X205686182Y-134100700D01*
X205686182Y-134100700D02*
X208550000Y-131236882D01*
X208550000Y-131236882D02*
X208550000Y-117146200D01*
X171021500Y-131217800D02*
X173904400Y-134100700D01*
X158861100Y-134753600D02*
X162396900Y-131217800D01*
%TO.N,~{ADC_CS}*%
X210427700Y-118416200D02*
X210390999Y-118379499D01*
X210175600Y-118695600D02*
X210390999Y-118480201D01*
X170323000Y-132856100D02*
X173193200Y-135726300D01*
X165838600Y-132856100D02*
X170323000Y-132856100D01*
X210175600Y-131941700D02*
X210175600Y-118695600D01*
X206391000Y-135726300D02*
X210175600Y-131941700D01*
X173193200Y-135726300D02*
X206391000Y-135726300D01*
X210390999Y-118480201D02*
X210390999Y-118379499D01*
X163941100Y-134753600D02*
X165838600Y-132856100D01*
X210455000Y-118416200D02*
X210427700Y-118416200D01*
%TO.N,ADC_MOSI*%
X210988400Y-132297300D02*
X210988400Y-119783100D01*
X167565800Y-133668900D02*
X169967400Y-133668900D01*
X172837600Y-136539100D02*
X206746600Y-136539100D01*
X211291800Y-119570500D02*
X211201000Y-119570500D01*
X211305900Y-119584600D02*
X211291800Y-119570500D01*
X169967400Y-133668900D02*
X172837600Y-136539100D01*
X166481100Y-134753600D02*
X167565800Y-133668900D01*
X210988400Y-119783100D02*
X211201000Y-119570500D01*
X206746600Y-136539100D02*
X210988400Y-132297300D01*
%TO.N,ADC_MISO*%
X173371000Y-135319900D02*
X206213200Y-135319900D01*
X162677600Y-136017100D02*
X162677600Y-134303900D01*
X209769200Y-118098700D02*
X210391500Y-117476400D01*
X162677600Y-134303900D02*
X164544500Y-132437000D01*
X206213200Y-135319900D02*
X209769200Y-131763900D01*
X210391500Y-115495200D02*
X210696300Y-115190400D01*
X164544500Y-132437000D02*
X170488100Y-132437000D01*
X210391500Y-117476400D02*
X210391500Y-115495200D01*
X161401100Y-137293600D02*
X162677600Y-136017100D01*
X170488100Y-132437000D02*
X173371000Y-135319900D01*
X209769200Y-131763900D02*
X209769200Y-118098700D01*
%TO.N,~{ADC_DRDY}*%
X161401100Y-134753600D02*
X164124100Y-132030600D01*
X209985100Y-114771300D02*
X210582000Y-114174400D01*
X173548800Y-134913500D02*
X206022854Y-134913500D01*
X209985100Y-117298600D02*
X209985100Y-114771300D01*
X170665900Y-132030600D02*
X173548800Y-134913500D01*
X206022854Y-134913500D02*
X209362800Y-131573554D01*
X209362800Y-131573554D02*
X209362800Y-117920900D01*
X209362800Y-117920900D02*
X209985100Y-117298600D01*
X164124100Y-132030600D02*
X170665900Y-132030600D01*
%TO.N,ADC_START*%
X173726600Y-134507100D02*
X205854518Y-134507100D01*
X162944300Y-131624200D02*
X170843700Y-131624200D01*
X209261200Y-117438300D02*
X209261200Y-116422300D01*
X160112200Y-134456300D02*
X162944300Y-131624200D01*
X160112200Y-136042500D02*
X160112200Y-134456300D01*
X205854518Y-134507100D02*
X208956400Y-131405218D01*
X158861100Y-137293600D02*
X160112200Y-136042500D01*
X170843700Y-131624200D02*
X173726600Y-134507100D01*
X208956400Y-117743100D02*
X209261200Y-117438300D01*
X208956400Y-131405218D02*
X208956400Y-117743100D01*
%TO.N,unconnected-(X1-Pin_4-Pad4)*%
X166481100Y-137293600D02*
X166481100Y-137282200D01*
%TO.N,ADC_SCK*%
X170145200Y-133262500D02*
X173015400Y-136132700D01*
X210582000Y-119110000D02*
X211178900Y-118513100D01*
X165204900Y-134261100D02*
X166203500Y-133262500D01*
X166203500Y-133262500D02*
X170145200Y-133262500D01*
X173015400Y-136132700D02*
X206568800Y-136132700D01*
X163941100Y-137293600D02*
X165204900Y-136029800D01*
X210582000Y-132119500D02*
X210582000Y-119110000D01*
X206568800Y-136132700D02*
X210582000Y-132119500D01*
X165204900Y-136029800D02*
X165204900Y-134261100D01*
X211178900Y-116282600D02*
X211102700Y-116206400D01*
X211178900Y-118513100D02*
X211178900Y-116282600D01*
%TO.N,USEL1#3*%
X156746700Y-77141200D02*
X157610300Y-76277600D01*
X157610300Y-76277600D02*
X157610300Y-74002800D01*
X156746700Y-77141200D02*
X156746700Y-81878300D01*
X157610300Y-74002800D02*
X156321100Y-72713600D01*
X156746700Y-81878300D02*
X155273500Y-83351500D01*
X154511500Y-83351500D02*
X155273500Y-83351500D01*
%TO.N,USEL20#3*%
X155057600Y-82284700D02*
X155057600Y-73990100D01*
X153781100Y-72713600D02*
X155057600Y-73990100D01*
X155159200Y-82386300D02*
X155057600Y-82284700D01*
%TO.N,USEL100#3*%
X157381700Y-82335500D02*
X156187900Y-83529300D01*
X157381700Y-79274800D02*
X160124900Y-76531600D01*
X158861100Y-72713600D02*
X160124900Y-73977400D01*
X157381700Y-79274800D02*
X157381700Y-82335500D01*
X160124900Y-76531600D02*
X160124900Y-73977400D01*
D25*
%TO.N,Net-(ISEL10A_1-Pad11)*%
X115903500Y-99387800D02*
X115903500Y-100280600D01*
X115903500Y-99387800D02*
X112621500Y-96105800D01*
X112621500Y-96105800D02*
X112405600Y-96105800D01*
D23*
%TO.N,Net-(ISEL10A_2-Pad12)*%
X174983900Y-87987000D02*
X174983900Y-88799800D01*
D27*
X183498300Y-76070900D02*
X183498300Y-83570900D01*
X183498300Y-84946300D02*
X180013100Y-88431500D01*
X178197000Y-88431500D02*
X176520600Y-88431500D01*
X183498300Y-83570900D02*
X183498300Y-84946300D01*
X180013100Y-88431500D02*
X178197000Y-88431500D01*
D28*
%TO.N,AIN1N*%
X117960900Y-135015100D02*
X120488200Y-132487800D01*
D21*
X121088100Y-120102300D02*
X121088100Y-126369400D01*
X121088100Y-126369400D02*
X121088100Y-131887900D01*
D28*
X90050200Y-129278600D02*
X95786700Y-135015100D01*
X89601100Y-129278600D02*
X90050200Y-129278600D01*
D21*
X121113500Y-120076900D02*
X121466100Y-119724300D01*
D28*
X95786700Y-135015100D02*
X117960900Y-135015100D01*
D21*
X121088100Y-131887900D02*
X120488200Y-132487800D01*
D27*
%TO.N,AIN4N*%
X137074400Y-86551900D02*
X136248900Y-85726400D01*
D28*
X164684200Y-89155400D02*
X163896800Y-89155400D01*
D27*
X162880800Y-86551900D02*
X164684200Y-88355300D01*
D24*
X165065200Y-88736300D02*
X164684200Y-88355300D01*
X178362100Y-94206700D02*
X174788200Y-94206700D01*
D27*
X90808300Y-105211400D02*
X90808300Y-93600400D01*
D28*
X164684200Y-89955500D02*
X165484300Y-89955500D01*
X165497000Y-88368000D02*
X165484300Y-88355300D01*
X163896800Y-89155400D02*
X163884100Y-89168100D01*
D24*
X174788200Y-94206700D02*
X169317800Y-88736300D01*
D27*
X135912350Y-85389850D02*
X136248900Y-85726400D01*
X102022400Y-82386300D02*
X132908800Y-82386300D01*
D24*
X169317800Y-88736300D02*
X165065200Y-88736300D01*
D28*
X163884100Y-89955500D02*
X163884100Y-89168100D01*
X163884100Y-88368000D02*
X163884100Y-89168100D01*
D27*
X90808300Y-93600400D02*
X102022400Y-82386300D01*
D28*
X164684200Y-88355300D02*
X163896800Y-88355300D01*
D27*
X132908800Y-82386300D02*
X135912350Y-85389850D01*
X137074400Y-86551900D02*
X162880800Y-86551900D01*
D28*
X163884100Y-87567900D02*
X164684200Y-87567900D01*
X163896800Y-88355300D02*
X163884100Y-88368000D01*
X164684200Y-87567900D02*
X164684200Y-88355300D01*
X165484300Y-87567900D02*
X165484300Y-88355300D01*
X165484300Y-89955500D02*
X165484300Y-89155400D01*
X165497000Y-88444200D02*
X165497000Y-88368000D01*
X165484300Y-89155400D02*
X165484300Y-88355300D01*
D27*
%TO.N,AIN4P*%
X134712200Y-78309600D02*
X138134850Y-81732250D01*
X86744300Y-91962100D02*
X100396800Y-78309600D01*
D30*
X138255500Y-81852900D02*
X138134850Y-81732250D01*
X137952900Y-81916400D02*
X138255500Y-81852900D01*
D27*
X138134850Y-81732250D02*
X138268200Y-81865600D01*
X100396800Y-78309600D02*
X134712200Y-78309600D01*
X86744300Y-91962100D02*
X86744300Y-103150800D01*
D23*
%TO.N,IN3N*%
X184343800Y-117819300D02*
X184432700Y-117730400D01*
D22*
X142395700Y-113094900D02*
X128705100Y-113094900D01*
D23*
X184343800Y-117819300D02*
X172558200Y-117819300D01*
X144288000Y-114987200D02*
X144288000Y-119571900D01*
D22*
X169726100Y-114987200D02*
X171681900Y-116943000D01*
D23*
X172558200Y-117819300D02*
X171681900Y-116943000D01*
D22*
X128705100Y-113094900D02*
X128501900Y-112891700D01*
X144288000Y-114987200D02*
X169726100Y-114987200D01*
X142395700Y-113094900D02*
X144288000Y-114987200D01*
D23*
X144288000Y-119571900D02*
X143449800Y-120410100D01*
%TD*%
%TA.AperFunction,Conductor*%
%TO.N,Net-(ISEL10A_2-Pad12)*%
G36*
X180343235Y-86360425D02*
G01*
X180464983Y-86376454D01*
X180477536Y-86379818D01*
X180587942Y-86425550D01*
X180599200Y-86432049D01*
X180694008Y-86504798D01*
X180703201Y-86513991D01*
X180775950Y-86608799D01*
X180782450Y-86620058D01*
X180828180Y-86730461D01*
X180831545Y-86743017D01*
X180847574Y-86864763D01*
X180848000Y-86871264D01*
X180848000Y-89912735D01*
X180847574Y-89919236D01*
X180831545Y-90040982D01*
X180828180Y-90053538D01*
X180782450Y-90163941D01*
X180775950Y-90175200D01*
X180703201Y-90270008D01*
X180694008Y-90279201D01*
X180599200Y-90351950D01*
X180587941Y-90358450D01*
X180477538Y-90404180D01*
X180464982Y-90407545D01*
X180374019Y-90419521D01*
X180343234Y-90423574D01*
X180336736Y-90424000D01*
X172723264Y-90424000D01*
X172716765Y-90423574D01*
X172678330Y-90418514D01*
X172595017Y-90407545D01*
X172582461Y-90404180D01*
X172472058Y-90358450D01*
X172460799Y-90351950D01*
X172365991Y-90279201D01*
X172356798Y-90270008D01*
X172284049Y-90175200D01*
X172277549Y-90163941D01*
X172231819Y-90053538D01*
X172228454Y-90040983D01*
X172212426Y-89919235D01*
X172212000Y-89912735D01*
X172212000Y-86871264D01*
X172212426Y-86864764D01*
X172212426Y-86864763D01*
X172228454Y-86743014D01*
X172231817Y-86730465D01*
X172277551Y-86620053D01*
X172284046Y-86608803D01*
X172356802Y-86513986D01*
X172365986Y-86504802D01*
X172460803Y-86432046D01*
X172472053Y-86425551D01*
X172582465Y-86379817D01*
X172595014Y-86376454D01*
X172716764Y-86360425D01*
X172723264Y-86360000D01*
X180336736Y-86360000D01*
X180343235Y-86360425D01*
G37*
%TD.AperFunction*%
%TD*%
%TA.AperFunction,Conductor*%
%TO.N,AIN2P*%
G36*
X94662270Y-123409186D02*
G01*
X98337514Y-127084430D01*
X98352100Y-127119644D01*
X98352100Y-129740656D01*
X98337514Y-129775870D01*
X97164170Y-130949214D01*
X97128956Y-130963800D01*
X95562044Y-130963800D01*
X95526830Y-130949214D01*
X93299386Y-128721770D01*
X93284800Y-128686556D01*
X93284800Y-126776785D01*
X93284800Y-126776784D01*
X93026816Y-126518800D01*
X93026815Y-126518800D01*
X88818344Y-126518800D01*
X88783130Y-126504214D01*
X88219386Y-125940470D01*
X88204800Y-125905256D01*
X88204800Y-124122444D01*
X88219386Y-124087230D01*
X88897430Y-123409186D01*
X88932644Y-123394600D01*
X94627056Y-123394600D01*
X94662270Y-123409186D01*
G37*
%TD.AperFunction*%
%TD*%
%TA.AperFunction,Conductor*%
%TO.N,AIN4P*%
G36*
X88634214Y-102428786D02*
G01*
X88648800Y-102464000D01*
X88648800Y-104224659D01*
X88647843Y-104234374D01*
X88643800Y-104254697D01*
X88643800Y-104707799D01*
X88629214Y-104743013D01*
X88175590Y-105196636D01*
X88119336Y-105280829D01*
X88104751Y-105316040D01*
X88085000Y-105415340D01*
X88085000Y-106753658D01*
X88104750Y-106852952D01*
X88104752Y-106852957D01*
X88104753Y-106852962D01*
X88119339Y-106888176D01*
X88119340Y-106888177D01*
X88175588Y-106972360D01*
X89089712Y-107886484D01*
X89092262Y-107889922D01*
X89179118Y-107947958D01*
X89179121Y-107947959D01*
X89179124Y-107947961D01*
X89214338Y-107962547D01*
X89214345Y-107962548D01*
X89214347Y-107962549D01*
X89248327Y-107969307D01*
X89313644Y-107982300D01*
X89313648Y-107982300D01*
X89844656Y-107982300D01*
X89879870Y-107996886D01*
X91225514Y-109342530D01*
X91240100Y-109377744D01*
X91240100Y-111097056D01*
X91225514Y-111132270D01*
X90801970Y-111555814D01*
X90766756Y-111570400D01*
X86573910Y-111570400D01*
X86554854Y-111566609D01*
X86553800Y-111566173D01*
X86553799Y-111566173D01*
X86543595Y-111570400D01*
X86543595Y-111570399D01*
X86514537Y-111582434D01*
X86514536Y-111582435D01*
X86514536Y-111582436D01*
X86498273Y-111621700D01*
X86498709Y-111622754D01*
X86502500Y-111641810D01*
X86502500Y-112003700D01*
X86487914Y-112038914D01*
X86452700Y-112053500D01*
X84614644Y-112053500D01*
X84579430Y-112038914D01*
X84371286Y-111830770D01*
X84356700Y-111795556D01*
X84356700Y-102464000D01*
X84371286Y-102428786D01*
X84406500Y-102414200D01*
X88599000Y-102414200D01*
X88634214Y-102428786D01*
G37*
%TD.AperFunction*%
%TD*%
%TA.AperFunction,Conductor*%
%TO.N,Net-(ISEL10A_1-Pad22)*%
G36*
X117118231Y-101170025D02*
G01*
X117218960Y-101183287D01*
X117231518Y-101186652D01*
X117322341Y-101224272D01*
X117333599Y-101230772D01*
X117411590Y-101290616D01*
X117420783Y-101299809D01*
X117480627Y-101377800D01*
X117487127Y-101389058D01*
X117524747Y-101479881D01*
X117528112Y-101492438D01*
X117541374Y-101593167D01*
X117541800Y-101599668D01*
X117541800Y-110383993D01*
X117540843Y-110393709D01*
X117519495Y-110501030D01*
X117512059Y-110518981D01*
X117454045Y-110605805D01*
X117440305Y-110619545D01*
X117353481Y-110677559D01*
X117335530Y-110684995D01*
X117257872Y-110700442D01*
X117228207Y-110706343D01*
X117218493Y-110707300D01*
X108263907Y-110707300D01*
X108254192Y-110706343D01*
X108209483Y-110697450D01*
X108146869Y-110684995D01*
X108128918Y-110677559D01*
X108042094Y-110619545D01*
X108028354Y-110605805D01*
X107970340Y-110518981D01*
X107962904Y-110501030D01*
X107941557Y-110393708D01*
X107940600Y-110383993D01*
X107940600Y-101696800D01*
X107941026Y-101690300D01*
X107953814Y-101593167D01*
X107957054Y-101568550D01*
X107960417Y-101556001D01*
X108006151Y-101445589D01*
X108012646Y-101434339D01*
X108087407Y-101336909D01*
X108091688Y-101332027D01*
X108103027Y-101320688D01*
X108107909Y-101316407D01*
X108205339Y-101241646D01*
X108216589Y-101235151D01*
X108327001Y-101189417D01*
X108339550Y-101186054D01*
X108461300Y-101170025D01*
X108467800Y-101169600D01*
X117111732Y-101169600D01*
X117118231Y-101170025D01*
G37*
%TD.AperFunction*%
%TD*%
%TA.AperFunction,Conductor*%
%TO.N,AIN2N*%
G36*
X117143631Y-112815925D02*
G01*
X117244360Y-112829187D01*
X117256918Y-112832552D01*
X117347741Y-112870172D01*
X117358999Y-112876672D01*
X117436990Y-112936516D01*
X117446183Y-112945709D01*
X117506027Y-113023700D01*
X117512527Y-113034958D01*
X117550147Y-113125781D01*
X117553512Y-113138338D01*
X117566774Y-113239067D01*
X117567200Y-113245568D01*
X117567200Y-122029893D01*
X117566243Y-122039609D01*
X117544895Y-122146930D01*
X117537459Y-122164881D01*
X117479445Y-122251705D01*
X117465705Y-122265445D01*
X117378881Y-122323459D01*
X117360930Y-122330895D01*
X117283272Y-122346342D01*
X117253607Y-122352243D01*
X117243893Y-122353200D01*
X108289307Y-122353200D01*
X108279592Y-122352243D01*
X108234883Y-122343350D01*
X108172269Y-122330895D01*
X108154318Y-122323459D01*
X108067494Y-122265445D01*
X108053754Y-122251705D01*
X107995740Y-122164881D01*
X107988304Y-122146930D01*
X107966957Y-122039608D01*
X107966000Y-122029893D01*
X107966000Y-113342700D01*
X107966426Y-113336200D01*
X107979214Y-113239067D01*
X107982454Y-113214450D01*
X107985817Y-113201901D01*
X108031551Y-113091489D01*
X108038046Y-113080239D01*
X108112807Y-112982809D01*
X108117088Y-112977927D01*
X108128427Y-112966588D01*
X108133309Y-112962307D01*
X108230739Y-112887546D01*
X108241989Y-112881051D01*
X108352401Y-112835317D01*
X108364950Y-112831954D01*
X108486700Y-112815925D01*
X108493200Y-112815500D01*
X117137132Y-112815500D01*
X117143631Y-112815925D01*
G37*
%TD.AperFunction*%
%TD*%
%TA.AperFunction,Conductor*%
%TO.N,/Voltage/current  ADC/AVSS*%
G36*
X197144073Y-99406186D02*
G01*
X197158659Y-99441400D01*
X197144073Y-99476614D01*
X197127917Y-99487409D01*
X197106030Y-99496474D01*
X196979255Y-99593752D01*
X196979252Y-99593755D01*
X196881974Y-99720530D01*
X196845439Y-99808735D01*
X196826370Y-99854772D01*
X196820822Y-99868165D01*
X196820820Y-99868171D01*
X196799963Y-100026600D01*
X196819381Y-100174101D01*
X196820821Y-100185033D01*
X196856643Y-100271517D01*
X196881974Y-100332670D01*
X196979063Y-100459198D01*
X196988928Y-100496014D01*
X196969870Y-100529023D01*
X196933054Y-100538888D01*
X196909238Y-100529023D01*
X196854570Y-100487074D01*
X196787864Y-100459444D01*
X196706933Y-100425921D01*
X196706929Y-100425920D01*
X196706928Y-100425920D01*
X196548500Y-100405063D01*
X196390071Y-100425920D01*
X196390068Y-100425920D01*
X196390067Y-100425921D01*
X196390065Y-100425922D01*
X196242430Y-100487074D01*
X196115655Y-100584352D01*
X196115652Y-100584355D01*
X196018374Y-100711130D01*
X195987298Y-100786155D01*
X195957221Y-100858767D01*
X195936363Y-101017200D01*
X195957221Y-101175633D01*
X195993043Y-101262117D01*
X196018374Y-101323270D01*
X196115652Y-101450044D01*
X196115655Y-101450047D01*
X196242429Y-101547325D01*
X196242430Y-101547325D01*
X196242431Y-101547326D01*
X196390067Y-101608479D01*
X196548500Y-101629337D01*
X196706933Y-101608479D01*
X196854569Y-101547326D01*
X196981346Y-101450046D01*
X197078626Y-101323269D01*
X197139779Y-101175633D01*
X197160637Y-101017200D01*
X197139779Y-100858767D01*
X197078626Y-100711132D01*
X197078625Y-100711131D01*
X197078625Y-100711130D01*
X196981536Y-100584601D01*
X196971671Y-100547785D01*
X196990729Y-100514776D01*
X197027545Y-100504911D01*
X197051359Y-100514775D01*
X197106031Y-100556726D01*
X197253667Y-100617879D01*
X197412100Y-100638737D01*
X197570533Y-100617879D01*
X197718169Y-100556726D01*
X197844946Y-100459446D01*
X197942226Y-100332669D01*
X198003379Y-100185033D01*
X198024237Y-100026600D01*
X198003379Y-99868167D01*
X197942226Y-99720532D01*
X197942225Y-99720531D01*
X197942225Y-99720530D01*
X197844947Y-99593755D01*
X197844944Y-99593752D01*
X197718170Y-99496474D01*
X197696284Y-99487409D01*
X197669333Y-99460458D01*
X197669333Y-99422342D01*
X197696284Y-99395391D01*
X197715342Y-99391600D01*
X204085800Y-99391600D01*
X204092299Y-99392025D01*
X204214047Y-99408054D01*
X204226600Y-99411418D01*
X204337006Y-99457150D01*
X204348263Y-99463648D01*
X204445682Y-99538401D01*
X204450580Y-99542696D01*
X204614303Y-99706419D01*
X204618598Y-99711317D01*
X204693350Y-99808735D01*
X204699850Y-99819994D01*
X204745580Y-99930397D01*
X204748945Y-99942953D01*
X204764974Y-100064699D01*
X204765400Y-100071200D01*
X204765400Y-102877599D01*
X204764974Y-102884100D01*
X204748945Y-103005846D01*
X204745580Y-103018402D01*
X204699850Y-103128805D01*
X204693350Y-103140064D01*
X204618598Y-103237482D01*
X204614303Y-103242380D01*
X204412480Y-103444203D01*
X204407582Y-103448498D01*
X204310164Y-103523250D01*
X204298905Y-103529750D01*
X204188502Y-103575480D01*
X204175946Y-103578845D01*
X204084983Y-103590821D01*
X204054198Y-103594874D01*
X204047700Y-103595300D01*
X203520353Y-103595300D01*
X203485139Y-103580714D01*
X203470553Y-103545500D01*
X203485139Y-103510286D01*
X203513852Y-103496126D01*
X203519534Y-103495378D01*
X203667170Y-103434225D01*
X203793947Y-103336945D01*
X203891227Y-103210168D01*
X203952380Y-103062532D01*
X203973238Y-102904099D01*
X203952380Y-102745666D01*
X203891227Y-102598031D01*
X203891226Y-102598030D01*
X203891226Y-102598029D01*
X203793948Y-102471254D01*
X203793945Y-102471251D01*
X203667171Y-102373973D01*
X203606018Y-102348642D01*
X203519534Y-102312820D01*
X203519530Y-102312819D01*
X203519529Y-102312819D01*
X203361101Y-102291962D01*
X203202672Y-102312819D01*
X203202669Y-102312819D01*
X203202668Y-102312820D01*
X203202666Y-102312821D01*
X203055031Y-102373973D01*
X202928256Y-102471251D01*
X202928253Y-102471254D01*
X202830975Y-102598029D01*
X202780868Y-102719000D01*
X202769822Y-102745666D01*
X202748964Y-102904099D01*
X202769822Y-103062532D01*
X202797273Y-103128805D01*
X202830975Y-103210169D01*
X202928253Y-103336943D01*
X202928256Y-103336946D01*
X203055030Y-103434224D01*
X203055031Y-103434224D01*
X203055032Y-103434225D01*
X203202668Y-103495378D01*
X203208350Y-103496126D01*
X203241358Y-103515184D01*
X203251223Y-103552001D01*
X203232165Y-103585009D01*
X203201849Y-103595300D01*
X202369084Y-103595300D01*
X202220294Y-103744089D01*
X202220290Y-103744093D01*
X202145593Y-103818790D01*
X202145589Y-103818794D01*
X201996800Y-103967584D01*
X201996800Y-104177996D01*
X201996800Y-110760964D01*
X201996374Y-110767464D01*
X201994263Y-110783499D01*
X201996374Y-110799534D01*
X201996800Y-110806034D01*
X201996800Y-111573764D01*
X201996374Y-111580264D01*
X201994263Y-111596299D01*
X201996374Y-111612334D01*
X201996800Y-111618834D01*
X201996800Y-112386564D01*
X201996374Y-112393064D01*
X201994263Y-112409099D01*
X201996374Y-112425134D01*
X201996800Y-112431634D01*
X201996800Y-116037316D01*
X202369084Y-116409600D01*
X203349200Y-116409600D01*
X203355699Y-116410025D01*
X203477447Y-116426054D01*
X203490000Y-116429418D01*
X203600406Y-116475150D01*
X203611664Y-116481649D01*
X203709082Y-116556401D01*
X203713980Y-116560696D01*
X204563503Y-117410219D01*
X204567798Y-117415117D01*
X204642550Y-117512535D01*
X204649050Y-117523794D01*
X204694780Y-117634197D01*
X204698145Y-117646753D01*
X204714174Y-117768499D01*
X204714600Y-117775000D01*
X204714600Y-118323316D01*
X204863390Y-118472106D01*
X204863393Y-118472109D01*
X206989203Y-120597919D01*
X206993498Y-120602817D01*
X207068250Y-120700235D01*
X207074750Y-120711494D01*
X207120480Y-120821897D01*
X207123845Y-120834453D01*
X207139874Y-120956199D01*
X207140300Y-120962700D01*
X207140300Y-132194195D01*
X207125714Y-132229409D01*
X205853209Y-133501914D01*
X205817995Y-133516500D01*
X196364500Y-133516500D01*
X196358001Y-133516074D01*
X196319566Y-133511014D01*
X196236253Y-133500045D01*
X196223697Y-133496680D01*
X196113294Y-133450950D01*
X196102035Y-133444450D01*
X196004617Y-133369698D01*
X195999719Y-133365403D01*
X195848696Y-133214380D01*
X195844401Y-133209482D01*
X195769649Y-133112064D01*
X195763149Y-133100805D01*
X195717419Y-132990402D01*
X195714054Y-132977845D01*
X195698026Y-132856099D01*
X195697600Y-132849599D01*
X195697600Y-131967104D01*
X201968859Y-131967104D01*
X201972526Y-131994962D01*
X201989717Y-132125537D01*
X202018156Y-132194195D01*
X202050870Y-132273174D01*
X202148148Y-132399948D01*
X202148151Y-132399951D01*
X202274925Y-132497229D01*
X202274926Y-132497229D01*
X202274927Y-132497230D01*
X202422563Y-132558383D01*
X202580996Y-132579241D01*
X202739429Y-132558383D01*
X202887065Y-132497230D01*
X203013842Y-132399950D01*
X203111122Y-132273173D01*
X203172275Y-132125537D01*
X203193133Y-131967104D01*
X203172275Y-131808671D01*
X203111122Y-131661036D01*
X203111121Y-131661035D01*
X203111121Y-131661034D01*
X203013843Y-131534259D01*
X203013840Y-131534256D01*
X202887066Y-131436978D01*
X202825913Y-131411647D01*
X202739429Y-131375825D01*
X202739425Y-131375824D01*
X202739424Y-131375824D01*
X202580996Y-131354967D01*
X202422567Y-131375824D01*
X202422564Y-131375824D01*
X202422563Y-131375825D01*
X202422561Y-131375826D01*
X202274926Y-131436978D01*
X202148151Y-131534256D01*
X202148148Y-131534259D01*
X202050870Y-131661034D01*
X201989718Y-131808669D01*
X201989716Y-131808675D01*
X201968859Y-131967104D01*
X195697600Y-131967104D01*
X195697600Y-129349500D01*
X199476363Y-129349500D01*
X199497221Y-129507933D01*
X199533043Y-129594417D01*
X199558374Y-129655570D01*
X199655652Y-129782344D01*
X199655655Y-129782347D01*
X199782429Y-129879625D01*
X199782430Y-129879625D01*
X199782431Y-129879626D01*
X199930067Y-129940779D01*
X200088500Y-129961637D01*
X200246933Y-129940779D01*
X200394569Y-129879626D01*
X200521346Y-129782346D01*
X200618626Y-129655569D01*
X200679779Y-129507933D01*
X200700637Y-129349500D01*
X200679779Y-129191067D01*
X200618626Y-129043432D01*
X200618625Y-129043431D01*
X200618625Y-129043430D01*
X200521347Y-128916655D01*
X200521344Y-128916652D01*
X200394570Y-128819374D01*
X200333417Y-128794043D01*
X200246933Y-128758221D01*
X200246929Y-128758220D01*
X200246928Y-128758220D01*
X200088500Y-128737363D01*
X199930071Y-128758220D01*
X199930068Y-128758220D01*
X199930067Y-128758221D01*
X199930065Y-128758222D01*
X199782430Y-128819374D01*
X199655655Y-128916652D01*
X199655652Y-128916655D01*
X199558374Y-129043430D01*
X199507713Y-129165736D01*
X199497221Y-129191067D01*
X199476363Y-129349500D01*
X195697600Y-129349500D01*
X195697600Y-128504701D01*
X195698026Y-128498201D01*
X195712837Y-128385700D01*
X195698026Y-128273197D01*
X195697600Y-128266697D01*
X195697600Y-126201575D01*
X195710044Y-126168643D01*
X195723613Y-126153253D01*
X195739049Y-126122954D01*
X195743916Y-126115245D01*
X195745126Y-126113669D01*
X195750222Y-126101365D01*
X195751848Y-126097836D01*
X195793594Y-126015906D01*
X195801999Y-125978300D01*
X195804592Y-125970104D01*
X195806279Y-125966032D01*
X195806279Y-125966031D01*
X195808192Y-125951500D01*
X195808965Y-125947135D01*
X195827219Y-125865472D01*
X195825862Y-125822295D01*
X195826262Y-125814240D01*
X195827137Y-125807600D01*
X195825176Y-125792706D01*
X195824778Y-125787809D01*
X195822378Y-125711401D01*
X195808976Y-125665274D01*
X195807426Y-125657880D01*
X195806279Y-125649168D01*
X195800691Y-125635678D01*
X195798877Y-125630512D01*
X195779372Y-125563375D01*
X195779371Y-125563373D01*
X195752360Y-125517701D01*
X195749217Y-125511410D01*
X195745126Y-125501532D01*
X195736800Y-125490681D01*
X195733443Y-125485714D01*
X195704535Y-125436832D01*
X195697600Y-125411482D01*
X195697600Y-123952000D01*
X197761863Y-123952000D01*
X197774589Y-124048668D01*
X197782721Y-124110433D01*
X197811807Y-124180653D01*
X197843874Y-124258070D01*
X197941152Y-124384844D01*
X197941155Y-124384847D01*
X198067929Y-124482125D01*
X198067930Y-124482125D01*
X198067931Y-124482126D01*
X198215567Y-124543279D01*
X198374000Y-124564137D01*
X198532433Y-124543279D01*
X198680069Y-124482126D01*
X198806846Y-124384846D01*
X198904126Y-124258069D01*
X198965279Y-124110433D01*
X198986137Y-123952000D01*
X198965279Y-123793567D01*
X198904126Y-123645932D01*
X198904125Y-123645931D01*
X198904125Y-123645930D01*
X198806847Y-123519155D01*
X198806844Y-123519152D01*
X198680070Y-123421874D01*
X198618917Y-123396543D01*
X198532433Y-123360721D01*
X198532429Y-123360720D01*
X198532428Y-123360720D01*
X198374000Y-123339863D01*
X198215571Y-123360720D01*
X198215568Y-123360720D01*
X198215567Y-123360721D01*
X198215565Y-123360722D01*
X198067930Y-123421874D01*
X197941155Y-123519152D01*
X197941152Y-123519155D01*
X197843874Y-123645930D01*
X197782722Y-123793565D01*
X197782720Y-123793571D01*
X197761863Y-123952000D01*
X195697600Y-123952000D01*
X195697600Y-122728879D01*
X195712186Y-122693665D01*
X195747400Y-122679079D01*
X195766453Y-122682869D01*
X195907467Y-122741279D01*
X196065900Y-122762137D01*
X196224333Y-122741279D01*
X196371969Y-122680126D01*
X196498746Y-122582846D01*
X196596026Y-122456069D01*
X196657179Y-122308433D01*
X196678037Y-122150000D01*
X196657179Y-121991567D01*
X196596026Y-121843932D01*
X196596025Y-121843931D01*
X196596025Y-121843930D01*
X196498747Y-121717155D01*
X196498744Y-121717152D01*
X196371970Y-121619874D01*
X196310817Y-121594543D01*
X196224333Y-121558721D01*
X196224329Y-121558720D01*
X196224328Y-121558720D01*
X196065900Y-121537863D01*
X196065899Y-121537863D01*
X195994337Y-121547283D01*
X195957521Y-121537417D01*
X195952624Y-121533123D01*
X195712186Y-121292685D01*
X195697600Y-121257471D01*
X195697600Y-119292500D01*
X196228463Y-119292500D01*
X196247782Y-119439249D01*
X196249321Y-119450933D01*
X196270363Y-119501733D01*
X196310474Y-119598570D01*
X196407752Y-119725344D01*
X196407755Y-119725347D01*
X196534529Y-119822625D01*
X196534530Y-119822625D01*
X196534531Y-119822626D01*
X196682167Y-119883779D01*
X196840600Y-119904637D01*
X196999033Y-119883779D01*
X197146669Y-119822626D01*
X197273446Y-119725346D01*
X197370726Y-119598569D01*
X197431879Y-119450933D01*
X197452737Y-119292500D01*
X197431879Y-119134067D01*
X197370726Y-118986432D01*
X197370725Y-118986431D01*
X197370725Y-118986430D01*
X197273447Y-118859655D01*
X197273444Y-118859652D01*
X197146670Y-118762374D01*
X197071319Y-118731163D01*
X196999033Y-118701221D01*
X196999029Y-118701220D01*
X196999028Y-118701220D01*
X196840600Y-118680363D01*
X196682171Y-118701220D01*
X196682168Y-118701220D01*
X196682167Y-118701221D01*
X196682165Y-118701222D01*
X196534530Y-118762374D01*
X196407755Y-118859652D01*
X196407752Y-118859655D01*
X196310474Y-118986430D01*
X196249322Y-119134065D01*
X196249320Y-119134071D01*
X196228463Y-119292500D01*
X195697600Y-119292500D01*
X195697600Y-107405300D01*
X199695563Y-107405300D01*
X199716421Y-107563733D01*
X199752243Y-107650217D01*
X199777574Y-107711370D01*
X199874852Y-107838144D01*
X199874855Y-107838147D01*
X200001629Y-107935425D01*
X200001630Y-107935425D01*
X200001631Y-107935426D01*
X200149267Y-107996579D01*
X200307700Y-108017437D01*
X200466133Y-107996579D01*
X200613769Y-107935426D01*
X200740546Y-107838146D01*
X200837826Y-107711369D01*
X200898979Y-107563733D01*
X200919837Y-107405300D01*
X200898979Y-107246867D01*
X200837826Y-107099232D01*
X200837825Y-107099231D01*
X200837825Y-107099230D01*
X200740547Y-106972455D01*
X200740544Y-106972452D01*
X200613770Y-106875174D01*
X200552617Y-106849843D01*
X200466133Y-106814021D01*
X200466129Y-106814020D01*
X200466128Y-106814020D01*
X200307700Y-106793163D01*
X200149271Y-106814020D01*
X200149268Y-106814020D01*
X200149267Y-106814021D01*
X200149265Y-106814022D01*
X200001630Y-106875174D01*
X199874855Y-106972452D01*
X199874852Y-106972455D01*
X199777574Y-107099230D01*
X199716422Y-107246865D01*
X199716420Y-107246871D01*
X199714151Y-107264107D01*
X199695563Y-107405300D01*
X195697600Y-107405300D01*
X195697600Y-107264107D01*
X195697600Y-107264104D01*
X195697600Y-107053684D01*
X194061686Y-105417770D01*
X194047100Y-105382556D01*
X194047100Y-102719000D01*
X197663563Y-102719000D01*
X197684421Y-102877433D01*
X197720243Y-102963917D01*
X197745574Y-103025070D01*
X197842852Y-103151844D01*
X197842855Y-103151847D01*
X197969629Y-103249125D01*
X197969630Y-103249125D01*
X197969631Y-103249126D01*
X198117267Y-103310279D01*
X198275700Y-103331137D01*
X198434133Y-103310279D01*
X198581769Y-103249126D01*
X198708546Y-103151846D01*
X198805826Y-103025069D01*
X198866979Y-102877433D01*
X198887837Y-102719000D01*
X198866979Y-102560567D01*
X198805826Y-102412932D01*
X198805825Y-102412931D01*
X198805825Y-102412930D01*
X198708547Y-102286155D01*
X198708544Y-102286152D01*
X198581770Y-102188874D01*
X198520617Y-102163543D01*
X198434133Y-102127721D01*
X198434129Y-102127720D01*
X198434128Y-102127720D01*
X198275700Y-102106863D01*
X198117271Y-102127720D01*
X198117268Y-102127720D01*
X198117267Y-102127721D01*
X198117265Y-102127722D01*
X197969630Y-102188874D01*
X197842855Y-102286152D01*
X197842852Y-102286155D01*
X197745574Y-102412930D01*
X197684422Y-102560565D01*
X197684420Y-102560571D01*
X197663563Y-102719000D01*
X194047100Y-102719000D01*
X194047100Y-101219000D01*
X194205863Y-101219000D01*
X194226721Y-101377433D01*
X194256798Y-101450044D01*
X194287874Y-101525070D01*
X194385152Y-101651844D01*
X194385155Y-101651847D01*
X194511929Y-101749125D01*
X194511930Y-101749125D01*
X194511931Y-101749126D01*
X194659567Y-101810279D01*
X194818000Y-101831137D01*
X194976433Y-101810279D01*
X195124069Y-101749126D01*
X195250846Y-101651846D01*
X195348126Y-101525069D01*
X195409279Y-101377433D01*
X195430137Y-101219000D01*
X195409279Y-101060567D01*
X195348126Y-100912932D01*
X195348125Y-100912931D01*
X195348125Y-100912930D01*
X195250847Y-100786155D01*
X195250844Y-100786152D01*
X195124070Y-100688874D01*
X195062917Y-100663543D01*
X194976433Y-100627721D01*
X194976429Y-100627720D01*
X194976428Y-100627720D01*
X194818000Y-100606863D01*
X194659571Y-100627720D01*
X194659568Y-100627720D01*
X194659567Y-100627721D01*
X194659565Y-100627722D01*
X194511930Y-100688874D01*
X194385155Y-100786152D01*
X194385152Y-100786155D01*
X194287874Y-100912930D01*
X194244684Y-101017200D01*
X194226721Y-101060567D01*
X194205863Y-101219000D01*
X194047100Y-101219000D01*
X194047100Y-100194729D01*
X194061686Y-100159515D01*
X194815015Y-99406186D01*
X194850229Y-99391600D01*
X197108859Y-99391600D01*
X197144073Y-99406186D01*
G37*
%TD.AperFunction*%
%TD*%
%TA.AperFunction,Conductor*%
%TO.N,AIN4N*%
G36*
X92708259Y-104219486D02*
G01*
X92722845Y-104254700D01*
X92722141Y-104263043D01*
X92378898Y-106282896D01*
X92365016Y-106309767D01*
X90966570Y-107708214D01*
X90931356Y-107722800D01*
X89313644Y-107722800D01*
X89278430Y-107708214D01*
X88359086Y-106788870D01*
X88344500Y-106753656D01*
X88344500Y-105415343D01*
X88359085Y-105380130D01*
X88903300Y-104835916D01*
X88903300Y-104254700D01*
X88917886Y-104219486D01*
X88953100Y-104204900D01*
X92673045Y-104204900D01*
X92708259Y-104219486D01*
G37*
%TD.AperFunction*%
%TD*%
M02*
