%TF.GenerationSoftware,KiCad,Pcbnew,7.0.10-7.0.10~ubuntu22.04.1*%
%TF.CreationDate,2024-01-07T19:37:00+01:00*%
%TF.ProjectId,EEZ DIB AFE3,45455a20-4449-4422-9041-4645332e6b69,rev?*%
%TF.SameCoordinates,Original*%
%TF.FileFunction,Legend,Bot*%
%TF.FilePolarity,Positive*%
%FSLAX46Y46*%
G04 Gerber Fmt 4.6, Leading zero omitted, Abs format (unit mm)*
G04 Created by KiCad (PCBNEW 7.0.10-7.0.10~ubuntu22.04.1) date 2024-01-07 19:37:00*
%MOMM*%
%LPD*%
G01*
G04 APERTURE LIST*
%ADD10C,0.152400*%
%ADD11C,0.127000*%
%ADD12C,0.203200*%
G04 APERTURE END LIST*
D10*
X92734667Y-77129147D02*
X93073334Y-77129147D01*
X93218477Y-76596957D02*
X92734667Y-76596957D01*
X92734667Y-76596957D02*
X92734667Y-77612957D01*
X92734667Y-77612957D02*
X93218477Y-77612957D01*
X93653905Y-77129147D02*
X93992572Y-77129147D01*
X94137715Y-76596957D02*
X93653905Y-76596957D01*
X93653905Y-76596957D02*
X93653905Y-77612957D01*
X93653905Y-77612957D02*
X94137715Y-77612957D01*
X94476381Y-77612957D02*
X95153715Y-77612957D01*
X95153715Y-77612957D02*
X94476381Y-76596957D01*
X94476381Y-76596957D02*
X95153715Y-76596957D01*
X96314857Y-76596957D02*
X96314857Y-77612957D01*
X96314857Y-77612957D02*
X96556762Y-77612957D01*
X96556762Y-77612957D02*
X96701905Y-77564576D01*
X96701905Y-77564576D02*
X96798667Y-77467814D01*
X96798667Y-77467814D02*
X96847048Y-77371052D01*
X96847048Y-77371052D02*
X96895429Y-77177528D01*
X96895429Y-77177528D02*
X96895429Y-77032385D01*
X96895429Y-77032385D02*
X96847048Y-76838861D01*
X96847048Y-76838861D02*
X96798667Y-76742099D01*
X96798667Y-76742099D02*
X96701905Y-76645338D01*
X96701905Y-76645338D02*
X96556762Y-76596957D01*
X96556762Y-76596957D02*
X96314857Y-76596957D01*
X97330857Y-76596957D02*
X97330857Y-77612957D01*
X98153334Y-77129147D02*
X98298477Y-77080766D01*
X98298477Y-77080766D02*
X98346858Y-77032385D01*
X98346858Y-77032385D02*
X98395239Y-76935623D01*
X98395239Y-76935623D02*
X98395239Y-76790480D01*
X98395239Y-76790480D02*
X98346858Y-76693718D01*
X98346858Y-76693718D02*
X98298477Y-76645338D01*
X98298477Y-76645338D02*
X98201715Y-76596957D01*
X98201715Y-76596957D02*
X97814667Y-76596957D01*
X97814667Y-76596957D02*
X97814667Y-77612957D01*
X97814667Y-77612957D02*
X98153334Y-77612957D01*
X98153334Y-77612957D02*
X98250096Y-77564576D01*
X98250096Y-77564576D02*
X98298477Y-77516195D01*
X98298477Y-77516195D02*
X98346858Y-77419433D01*
X98346858Y-77419433D02*
X98346858Y-77322671D01*
X98346858Y-77322671D02*
X98298477Y-77225909D01*
X98298477Y-77225909D02*
X98250096Y-77177528D01*
X98250096Y-77177528D02*
X98153334Y-77129147D01*
X98153334Y-77129147D02*
X97814667Y-77129147D01*
X99556381Y-76887242D02*
X100040191Y-76887242D01*
X99459619Y-76596957D02*
X99798286Y-77612957D01*
X99798286Y-77612957D02*
X100136953Y-76596957D01*
X100814286Y-77129147D02*
X100475619Y-77129147D01*
X100475619Y-76596957D02*
X100475619Y-77612957D01*
X100475619Y-77612957D02*
X100959429Y-77612957D01*
X101346476Y-77129147D02*
X101685143Y-77129147D01*
X101830286Y-76596957D02*
X101346476Y-76596957D01*
X101346476Y-76596957D02*
X101346476Y-77612957D01*
X101346476Y-77612957D02*
X101830286Y-77612957D01*
X102168952Y-77612957D02*
X102797905Y-77612957D01*
X102797905Y-77612957D02*
X102459238Y-77225909D01*
X102459238Y-77225909D02*
X102604381Y-77225909D01*
X102604381Y-77225909D02*
X102701143Y-77177528D01*
X102701143Y-77177528D02*
X102749524Y-77129147D01*
X102749524Y-77129147D02*
X102797905Y-77032385D01*
X102797905Y-77032385D02*
X102797905Y-76790480D01*
X102797905Y-76790480D02*
X102749524Y-76693718D01*
X102749524Y-76693718D02*
X102701143Y-76645338D01*
X102701143Y-76645338D02*
X102604381Y-76596957D01*
X102604381Y-76596957D02*
X102314095Y-76596957D01*
X102314095Y-76596957D02*
X102217333Y-76645338D01*
X102217333Y-76645338D02*
X102168952Y-76693718D01*
X93024953Y-74574149D02*
X92976572Y-74622530D01*
X92976572Y-74622530D02*
X92879810Y-74767673D01*
X92879810Y-74767673D02*
X92831429Y-74864435D01*
X92831429Y-74864435D02*
X92783048Y-75009578D01*
X92783048Y-75009578D02*
X92734667Y-75251482D01*
X92734667Y-75251482D02*
X92734667Y-75445006D01*
X92734667Y-75445006D02*
X92783048Y-75686911D01*
X92783048Y-75686911D02*
X92831429Y-75832054D01*
X92831429Y-75832054D02*
X92879810Y-75928816D01*
X92879810Y-75928816D02*
X92976572Y-76073958D01*
X92976572Y-76073958D02*
X93024953Y-76122339D01*
X93605524Y-75977197D02*
X93702286Y-75977197D01*
X93702286Y-75977197D02*
X93799048Y-75928816D01*
X93799048Y-75928816D02*
X93847429Y-75880435D01*
X93847429Y-75880435D02*
X93895810Y-75783673D01*
X93895810Y-75783673D02*
X93944191Y-75590149D01*
X93944191Y-75590149D02*
X93944191Y-75348244D01*
X93944191Y-75348244D02*
X93895810Y-75154720D01*
X93895810Y-75154720D02*
X93847429Y-75057958D01*
X93847429Y-75057958D02*
X93799048Y-75009578D01*
X93799048Y-75009578D02*
X93702286Y-74961197D01*
X93702286Y-74961197D02*
X93605524Y-74961197D01*
X93605524Y-74961197D02*
X93508762Y-75009578D01*
X93508762Y-75009578D02*
X93460381Y-75057958D01*
X93460381Y-75057958D02*
X93412000Y-75154720D01*
X93412000Y-75154720D02*
X93363619Y-75348244D01*
X93363619Y-75348244D02*
X93363619Y-75590149D01*
X93363619Y-75590149D02*
X93412000Y-75783673D01*
X93412000Y-75783673D02*
X93460381Y-75880435D01*
X93460381Y-75880435D02*
X93508762Y-75928816D01*
X93508762Y-75928816D02*
X93605524Y-75977197D01*
X94524762Y-75541768D02*
X94428000Y-75590149D01*
X94428000Y-75590149D02*
X94379619Y-75638530D01*
X94379619Y-75638530D02*
X94331238Y-75735292D01*
X94331238Y-75735292D02*
X94331238Y-75783673D01*
X94331238Y-75783673D02*
X94379619Y-75880435D01*
X94379619Y-75880435D02*
X94428000Y-75928816D01*
X94428000Y-75928816D02*
X94524762Y-75977197D01*
X94524762Y-75977197D02*
X94718286Y-75977197D01*
X94718286Y-75977197D02*
X94815048Y-75928816D01*
X94815048Y-75928816D02*
X94863429Y-75880435D01*
X94863429Y-75880435D02*
X94911810Y-75783673D01*
X94911810Y-75783673D02*
X94911810Y-75735292D01*
X94911810Y-75735292D02*
X94863429Y-75638530D01*
X94863429Y-75638530D02*
X94815048Y-75590149D01*
X94815048Y-75590149D02*
X94718286Y-75541768D01*
X94718286Y-75541768D02*
X94524762Y-75541768D01*
X94524762Y-75541768D02*
X94428000Y-75493387D01*
X94428000Y-75493387D02*
X94379619Y-75445006D01*
X94379619Y-75445006D02*
X94331238Y-75348244D01*
X94331238Y-75348244D02*
X94331238Y-75154720D01*
X94331238Y-75154720D02*
X94379619Y-75057958D01*
X94379619Y-75057958D02*
X94428000Y-75009578D01*
X94428000Y-75009578D02*
X94524762Y-74961197D01*
X94524762Y-74961197D02*
X94718286Y-74961197D01*
X94718286Y-74961197D02*
X94815048Y-75009578D01*
X94815048Y-75009578D02*
X94863429Y-75057958D01*
X94863429Y-75057958D02*
X94911810Y-75154720D01*
X94911810Y-75154720D02*
X94911810Y-75348244D01*
X94911810Y-75348244D02*
X94863429Y-75445006D01*
X94863429Y-75445006D02*
X94815048Y-75493387D01*
X94815048Y-75493387D02*
X94718286Y-75541768D01*
X96072953Y-76025578D02*
X95202095Y-74719292D01*
X96363238Y-75880435D02*
X96411619Y-75928816D01*
X96411619Y-75928816D02*
X96508381Y-75977197D01*
X96508381Y-75977197D02*
X96750286Y-75977197D01*
X96750286Y-75977197D02*
X96847048Y-75928816D01*
X96847048Y-75928816D02*
X96895429Y-75880435D01*
X96895429Y-75880435D02*
X96943810Y-75783673D01*
X96943810Y-75783673D02*
X96943810Y-75686911D01*
X96943810Y-75686911D02*
X96895429Y-75541768D01*
X96895429Y-75541768D02*
X96314857Y-74961197D01*
X96314857Y-74961197D02*
X96943810Y-74961197D01*
X97572762Y-75977197D02*
X97669524Y-75977197D01*
X97669524Y-75977197D02*
X97766286Y-75928816D01*
X97766286Y-75928816D02*
X97814667Y-75880435D01*
X97814667Y-75880435D02*
X97863048Y-75783673D01*
X97863048Y-75783673D02*
X97911429Y-75590149D01*
X97911429Y-75590149D02*
X97911429Y-75348244D01*
X97911429Y-75348244D02*
X97863048Y-75154720D01*
X97863048Y-75154720D02*
X97814667Y-75057958D01*
X97814667Y-75057958D02*
X97766286Y-75009578D01*
X97766286Y-75009578D02*
X97669524Y-74961197D01*
X97669524Y-74961197D02*
X97572762Y-74961197D01*
X97572762Y-74961197D02*
X97476000Y-75009578D01*
X97476000Y-75009578D02*
X97427619Y-75057958D01*
X97427619Y-75057958D02*
X97379238Y-75154720D01*
X97379238Y-75154720D02*
X97330857Y-75348244D01*
X97330857Y-75348244D02*
X97330857Y-75590149D01*
X97330857Y-75590149D02*
X97379238Y-75783673D01*
X97379238Y-75783673D02*
X97427619Y-75880435D01*
X97427619Y-75880435D02*
X97476000Y-75928816D01*
X97476000Y-75928816D02*
X97572762Y-75977197D01*
X98298476Y-75880435D02*
X98346857Y-75928816D01*
X98346857Y-75928816D02*
X98443619Y-75977197D01*
X98443619Y-75977197D02*
X98685524Y-75977197D01*
X98685524Y-75977197D02*
X98782286Y-75928816D01*
X98782286Y-75928816D02*
X98830667Y-75880435D01*
X98830667Y-75880435D02*
X98879048Y-75783673D01*
X98879048Y-75783673D02*
X98879048Y-75686911D01*
X98879048Y-75686911D02*
X98830667Y-75541768D01*
X98830667Y-75541768D02*
X98250095Y-74961197D01*
X98250095Y-74961197D02*
X98879048Y-74961197D01*
X99846667Y-74961197D02*
X99266095Y-74961197D01*
X99556381Y-74961197D02*
X99556381Y-75977197D01*
X99556381Y-75977197D02*
X99459619Y-75832054D01*
X99459619Y-75832054D02*
X99362857Y-75735292D01*
X99362857Y-75735292D02*
X99266095Y-75686911D01*
X101056190Y-74961197D02*
X101056190Y-75638530D01*
X101056190Y-75445006D02*
X101104571Y-75541768D01*
X101104571Y-75541768D02*
X101152952Y-75590149D01*
X101152952Y-75590149D02*
X101249714Y-75638530D01*
X101249714Y-75638530D02*
X101346476Y-75638530D01*
X102217333Y-74961197D02*
X101636761Y-74961197D01*
X101927047Y-74961197D02*
X101927047Y-75977197D01*
X101927047Y-75977197D02*
X101830285Y-75832054D01*
X101830285Y-75832054D02*
X101733523Y-75735292D01*
X101733523Y-75735292D02*
X101636761Y-75686911D01*
X102991428Y-75493387D02*
X103136571Y-75445006D01*
X103136571Y-75445006D02*
X103184952Y-75396625D01*
X103184952Y-75396625D02*
X103233333Y-75299863D01*
X103233333Y-75299863D02*
X103233333Y-75154720D01*
X103233333Y-75154720D02*
X103184952Y-75057958D01*
X103184952Y-75057958D02*
X103136571Y-75009578D01*
X103136571Y-75009578D02*
X103039809Y-74961197D01*
X103039809Y-74961197D02*
X102652761Y-74961197D01*
X102652761Y-74961197D02*
X102652761Y-75977197D01*
X102652761Y-75977197D02*
X102991428Y-75977197D01*
X102991428Y-75977197D02*
X103088190Y-75928816D01*
X103088190Y-75928816D02*
X103136571Y-75880435D01*
X103136571Y-75880435D02*
X103184952Y-75783673D01*
X103184952Y-75783673D02*
X103184952Y-75686911D01*
X103184952Y-75686911D02*
X103136571Y-75590149D01*
X103136571Y-75590149D02*
X103088190Y-75541768D01*
X103088190Y-75541768D02*
X102991428Y-75493387D01*
X102991428Y-75493387D02*
X102652761Y-75493387D01*
X104104190Y-75638530D02*
X104104190Y-74961197D01*
X103862285Y-76025578D02*
X103620380Y-75299863D01*
X103620380Y-75299863D02*
X104249333Y-75299863D01*
X104539618Y-74574149D02*
X104587999Y-74622530D01*
X104587999Y-74622530D02*
X104684761Y-74767673D01*
X104684761Y-74767673D02*
X104733142Y-74864435D01*
X104733142Y-74864435D02*
X104781523Y-75009578D01*
X104781523Y-75009578D02*
X104829904Y-75251482D01*
X104829904Y-75251482D02*
X104829904Y-75445006D01*
X104829904Y-75445006D02*
X104781523Y-75686911D01*
X104781523Y-75686911D02*
X104733142Y-75832054D01*
X104733142Y-75832054D02*
X104684761Y-75928816D01*
X104684761Y-75928816D02*
X104587999Y-76073958D01*
X104587999Y-76073958D02*
X104539618Y-76122339D01*
X92734667Y-73325437D02*
X92734667Y-74341437D01*
X92734667Y-74341437D02*
X93121715Y-74341437D01*
X93121715Y-74341437D02*
X93218477Y-74293056D01*
X93218477Y-74293056D02*
X93266858Y-74244675D01*
X93266858Y-74244675D02*
X93315239Y-74147913D01*
X93315239Y-74147913D02*
X93315239Y-74002770D01*
X93315239Y-74002770D02*
X93266858Y-73906008D01*
X93266858Y-73906008D02*
X93218477Y-73857627D01*
X93218477Y-73857627D02*
X93121715Y-73809246D01*
X93121715Y-73809246D02*
X92734667Y-73809246D01*
X93750667Y-73325437D02*
X93750667Y-74002770D01*
X93750667Y-73809246D02*
X93799048Y-73906008D01*
X93799048Y-73906008D02*
X93847429Y-73954389D01*
X93847429Y-73954389D02*
X93944191Y-74002770D01*
X93944191Y-74002770D02*
X94040953Y-74002770D01*
X94524762Y-73325437D02*
X94428000Y-73373818D01*
X94428000Y-73373818D02*
X94379619Y-73422198D01*
X94379619Y-73422198D02*
X94331238Y-73518960D01*
X94331238Y-73518960D02*
X94331238Y-73809246D01*
X94331238Y-73809246D02*
X94379619Y-73906008D01*
X94379619Y-73906008D02*
X94428000Y-73954389D01*
X94428000Y-73954389D02*
X94524762Y-74002770D01*
X94524762Y-74002770D02*
X94669905Y-74002770D01*
X94669905Y-74002770D02*
X94766667Y-73954389D01*
X94766667Y-73954389D02*
X94815048Y-73906008D01*
X94815048Y-73906008D02*
X94863429Y-73809246D01*
X94863429Y-73809246D02*
X94863429Y-73518960D01*
X94863429Y-73518960D02*
X94815048Y-73422198D01*
X94815048Y-73422198D02*
X94766667Y-73373818D01*
X94766667Y-73373818D02*
X94669905Y-73325437D01*
X94669905Y-73325437D02*
X94524762Y-73325437D01*
X95298857Y-74002770D02*
X95298857Y-73131913D01*
X95298857Y-73131913D02*
X95250476Y-73035151D01*
X95250476Y-73035151D02*
X95153714Y-72986770D01*
X95153714Y-72986770D02*
X95105333Y-72986770D01*
X95298857Y-74341437D02*
X95250476Y-74293056D01*
X95250476Y-74293056D02*
X95298857Y-74244675D01*
X95298857Y-74244675D02*
X95347238Y-74293056D01*
X95347238Y-74293056D02*
X95298857Y-74341437D01*
X95298857Y-74341437D02*
X95298857Y-74244675D01*
X96169715Y-73373818D02*
X96072953Y-73325437D01*
X96072953Y-73325437D02*
X95879429Y-73325437D01*
X95879429Y-73325437D02*
X95782667Y-73373818D01*
X95782667Y-73373818D02*
X95734286Y-73470579D01*
X95734286Y-73470579D02*
X95734286Y-73857627D01*
X95734286Y-73857627D02*
X95782667Y-73954389D01*
X95782667Y-73954389D02*
X95879429Y-74002770D01*
X95879429Y-74002770D02*
X96072953Y-74002770D01*
X96072953Y-74002770D02*
X96169715Y-73954389D01*
X96169715Y-73954389D02*
X96218096Y-73857627D01*
X96218096Y-73857627D02*
X96218096Y-73760865D01*
X96218096Y-73760865D02*
X95734286Y-73664103D01*
X97088953Y-73373818D02*
X96992191Y-73325437D01*
X96992191Y-73325437D02*
X96798667Y-73325437D01*
X96798667Y-73325437D02*
X96701905Y-73373818D01*
X96701905Y-73373818D02*
X96653524Y-73422198D01*
X96653524Y-73422198D02*
X96605143Y-73518960D01*
X96605143Y-73518960D02*
X96605143Y-73809246D01*
X96605143Y-73809246D02*
X96653524Y-73906008D01*
X96653524Y-73906008D02*
X96701905Y-73954389D01*
X96701905Y-73954389D02*
X96798667Y-74002770D01*
X96798667Y-74002770D02*
X96992191Y-74002770D01*
X96992191Y-74002770D02*
X97088953Y-73954389D01*
X97379238Y-74002770D02*
X97766286Y-74002770D01*
X97524381Y-74341437D02*
X97524381Y-73470579D01*
X97524381Y-73470579D02*
X97572762Y-73373818D01*
X97572762Y-73373818D02*
X97669524Y-73325437D01*
X97669524Y-73325437D02*
X97766286Y-73325437D01*
X98830666Y-73373818D02*
X98927428Y-73325437D01*
X98927428Y-73325437D02*
X99120952Y-73325437D01*
X99120952Y-73325437D02*
X99217714Y-73373818D01*
X99217714Y-73373818D02*
X99266095Y-73470579D01*
X99266095Y-73470579D02*
X99266095Y-73518960D01*
X99266095Y-73518960D02*
X99217714Y-73615722D01*
X99217714Y-73615722D02*
X99120952Y-73664103D01*
X99120952Y-73664103D02*
X98975809Y-73664103D01*
X98975809Y-73664103D02*
X98879047Y-73712484D01*
X98879047Y-73712484D02*
X98830666Y-73809246D01*
X98830666Y-73809246D02*
X98830666Y-73857627D01*
X98830666Y-73857627D02*
X98879047Y-73954389D01*
X98879047Y-73954389D02*
X98975809Y-74002770D01*
X98975809Y-74002770D02*
X99120952Y-74002770D01*
X99120952Y-74002770D02*
X99217714Y-73954389D01*
X99846666Y-73325437D02*
X99749904Y-73373818D01*
X99749904Y-73373818D02*
X99701523Y-73422198D01*
X99701523Y-73422198D02*
X99653142Y-73518960D01*
X99653142Y-73518960D02*
X99653142Y-73809246D01*
X99653142Y-73809246D02*
X99701523Y-73906008D01*
X99701523Y-73906008D02*
X99749904Y-73954389D01*
X99749904Y-73954389D02*
X99846666Y-74002770D01*
X99846666Y-74002770D02*
X99991809Y-74002770D01*
X99991809Y-74002770D02*
X100088571Y-73954389D01*
X100088571Y-73954389D02*
X100136952Y-73906008D01*
X100136952Y-73906008D02*
X100185333Y-73809246D01*
X100185333Y-73809246D02*
X100185333Y-73518960D01*
X100185333Y-73518960D02*
X100136952Y-73422198D01*
X100136952Y-73422198D02*
X100088571Y-73373818D01*
X100088571Y-73373818D02*
X99991809Y-73325437D01*
X99991809Y-73325437D02*
X99846666Y-73325437D01*
X101056190Y-74002770D02*
X101056190Y-73325437D01*
X100620761Y-74002770D02*
X100620761Y-73470579D01*
X100620761Y-73470579D02*
X100669142Y-73373818D01*
X100669142Y-73373818D02*
X100765904Y-73325437D01*
X100765904Y-73325437D02*
X100911047Y-73325437D01*
X100911047Y-73325437D02*
X101007809Y-73373818D01*
X101007809Y-73373818D02*
X101056190Y-73422198D01*
X101539999Y-73325437D02*
X101539999Y-74002770D01*
X101539999Y-73809246D02*
X101588380Y-73906008D01*
X101588380Y-73906008D02*
X101636761Y-73954389D01*
X101636761Y-73954389D02*
X101733523Y-74002770D01*
X101733523Y-74002770D02*
X101830285Y-74002770D01*
X102604380Y-73373818D02*
X102507618Y-73325437D01*
X102507618Y-73325437D02*
X102314094Y-73325437D01*
X102314094Y-73325437D02*
X102217332Y-73373818D01*
X102217332Y-73373818D02*
X102168951Y-73422198D01*
X102168951Y-73422198D02*
X102120570Y-73518960D01*
X102120570Y-73518960D02*
X102120570Y-73809246D01*
X102120570Y-73809246D02*
X102168951Y-73906008D01*
X102168951Y-73906008D02*
X102217332Y-73954389D01*
X102217332Y-73954389D02*
X102314094Y-74002770D01*
X102314094Y-74002770D02*
X102507618Y-74002770D01*
X102507618Y-74002770D02*
X102604380Y-73954389D01*
X103426856Y-73373818D02*
X103330094Y-73325437D01*
X103330094Y-73325437D02*
X103136570Y-73325437D01*
X103136570Y-73325437D02*
X103039808Y-73373818D01*
X103039808Y-73373818D02*
X102991427Y-73470579D01*
X102991427Y-73470579D02*
X102991427Y-73857627D01*
X102991427Y-73857627D02*
X103039808Y-73954389D01*
X103039808Y-73954389D02*
X103136570Y-74002770D01*
X103136570Y-74002770D02*
X103330094Y-74002770D01*
X103330094Y-74002770D02*
X103426856Y-73954389D01*
X103426856Y-73954389D02*
X103475237Y-73857627D01*
X103475237Y-73857627D02*
X103475237Y-73760865D01*
X103475237Y-73760865D02*
X102991427Y-73664103D01*
X105120189Y-73373818D02*
X105023427Y-73325437D01*
X105023427Y-73325437D02*
X104829903Y-73325437D01*
X104829903Y-73325437D02*
X104733141Y-73373818D01*
X104733141Y-73373818D02*
X104684760Y-73422198D01*
X104684760Y-73422198D02*
X104636379Y-73518960D01*
X104636379Y-73518960D02*
X104636379Y-73809246D01*
X104636379Y-73809246D02*
X104684760Y-73906008D01*
X104684760Y-73906008D02*
X104733141Y-73954389D01*
X104733141Y-73954389D02*
X104829903Y-74002770D01*
X104829903Y-74002770D02*
X105023427Y-74002770D01*
X105023427Y-74002770D02*
X105120189Y-73954389D01*
X105700760Y-73325437D02*
X105603998Y-73373818D01*
X105603998Y-73373818D02*
X105555617Y-73422198D01*
X105555617Y-73422198D02*
X105507236Y-73518960D01*
X105507236Y-73518960D02*
X105507236Y-73809246D01*
X105507236Y-73809246D02*
X105555617Y-73906008D01*
X105555617Y-73906008D02*
X105603998Y-73954389D01*
X105603998Y-73954389D02*
X105700760Y-74002770D01*
X105700760Y-74002770D02*
X105845903Y-74002770D01*
X105845903Y-74002770D02*
X105942665Y-73954389D01*
X105942665Y-73954389D02*
X105991046Y-73906008D01*
X105991046Y-73906008D02*
X106039427Y-73809246D01*
X106039427Y-73809246D02*
X106039427Y-73518960D01*
X106039427Y-73518960D02*
X105991046Y-73422198D01*
X105991046Y-73422198D02*
X105942665Y-73373818D01*
X105942665Y-73373818D02*
X105845903Y-73325437D01*
X105845903Y-73325437D02*
X105700760Y-73325437D01*
X106910284Y-73325437D02*
X106910284Y-74341437D01*
X106910284Y-73373818D02*
X106813522Y-73325437D01*
X106813522Y-73325437D02*
X106619998Y-73325437D01*
X106619998Y-73325437D02*
X106523236Y-73373818D01*
X106523236Y-73373818D02*
X106474855Y-73422198D01*
X106474855Y-73422198D02*
X106426474Y-73518960D01*
X106426474Y-73518960D02*
X106426474Y-73809246D01*
X106426474Y-73809246D02*
X106474855Y-73906008D01*
X106474855Y-73906008D02*
X106523236Y-73954389D01*
X106523236Y-73954389D02*
X106619998Y-74002770D01*
X106619998Y-74002770D02*
X106813522Y-74002770D01*
X106813522Y-74002770D02*
X106910284Y-73954389D01*
X107781141Y-73373818D02*
X107684379Y-73325437D01*
X107684379Y-73325437D02*
X107490855Y-73325437D01*
X107490855Y-73325437D02*
X107394093Y-73373818D01*
X107394093Y-73373818D02*
X107345712Y-73470579D01*
X107345712Y-73470579D02*
X107345712Y-73857627D01*
X107345712Y-73857627D02*
X107394093Y-73954389D01*
X107394093Y-73954389D02*
X107490855Y-74002770D01*
X107490855Y-74002770D02*
X107684379Y-74002770D01*
X107684379Y-74002770D02*
X107781141Y-73954389D01*
X107781141Y-73954389D02*
X107829522Y-73857627D01*
X107829522Y-73857627D02*
X107829522Y-73760865D01*
X107829522Y-73760865D02*
X107345712Y-73664103D01*
X108264950Y-73422198D02*
X108313331Y-73373818D01*
X108313331Y-73373818D02*
X108264950Y-73325437D01*
X108264950Y-73325437D02*
X108216569Y-73373818D01*
X108216569Y-73373818D02*
X108264950Y-73422198D01*
X108264950Y-73422198D02*
X108264950Y-73325437D01*
X108264950Y-73954389D02*
X108313331Y-73906008D01*
X108313331Y-73906008D02*
X108264950Y-73857627D01*
X108264950Y-73857627D02*
X108216569Y-73906008D01*
X108216569Y-73906008D02*
X108264950Y-73954389D01*
X108264950Y-73954389D02*
X108264950Y-73857627D01*
X109958284Y-74002770D02*
X109958284Y-73180294D01*
X109958284Y-73180294D02*
X109909903Y-73083532D01*
X109909903Y-73083532D02*
X109861522Y-73035151D01*
X109861522Y-73035151D02*
X109764760Y-72986770D01*
X109764760Y-72986770D02*
X109619617Y-72986770D01*
X109619617Y-72986770D02*
X109522855Y-73035151D01*
X109958284Y-73373818D02*
X109861522Y-73325437D01*
X109861522Y-73325437D02*
X109667998Y-73325437D01*
X109667998Y-73325437D02*
X109571236Y-73373818D01*
X109571236Y-73373818D02*
X109522855Y-73422198D01*
X109522855Y-73422198D02*
X109474474Y-73518960D01*
X109474474Y-73518960D02*
X109474474Y-73809246D01*
X109474474Y-73809246D02*
X109522855Y-73906008D01*
X109522855Y-73906008D02*
X109571236Y-73954389D01*
X109571236Y-73954389D02*
X109667998Y-74002770D01*
X109667998Y-74002770D02*
X109861522Y-74002770D01*
X109861522Y-74002770D02*
X109958284Y-73954389D01*
X110442093Y-73325437D02*
X110442093Y-74002770D01*
X110442093Y-74341437D02*
X110393712Y-74293056D01*
X110393712Y-74293056D02*
X110442093Y-74244675D01*
X110442093Y-74244675D02*
X110490474Y-74293056D01*
X110490474Y-74293056D02*
X110442093Y-74341437D01*
X110442093Y-74341437D02*
X110442093Y-74244675D01*
X110780760Y-74002770D02*
X111167808Y-74002770D01*
X110925903Y-74341437D02*
X110925903Y-73470579D01*
X110925903Y-73470579D02*
X110974284Y-73373818D01*
X110974284Y-73373818D02*
X111071046Y-73325437D01*
X111071046Y-73325437D02*
X111167808Y-73325437D01*
X111506474Y-73325437D02*
X111506474Y-74341437D01*
X111941903Y-73325437D02*
X111941903Y-73857627D01*
X111941903Y-73857627D02*
X111893522Y-73954389D01*
X111893522Y-73954389D02*
X111796760Y-74002770D01*
X111796760Y-74002770D02*
X111651617Y-74002770D01*
X111651617Y-74002770D02*
X111554855Y-73954389D01*
X111554855Y-73954389D02*
X111506474Y-73906008D01*
X112861141Y-74002770D02*
X112861141Y-73325437D01*
X112425712Y-74002770D02*
X112425712Y-73470579D01*
X112425712Y-73470579D02*
X112474093Y-73373818D01*
X112474093Y-73373818D02*
X112570855Y-73325437D01*
X112570855Y-73325437D02*
X112715998Y-73325437D01*
X112715998Y-73325437D02*
X112812760Y-73373818D01*
X112812760Y-73373818D02*
X112861141Y-73422198D01*
X113344950Y-73325437D02*
X113344950Y-74341437D01*
X113344950Y-73954389D02*
X113441712Y-74002770D01*
X113441712Y-74002770D02*
X113635236Y-74002770D01*
X113635236Y-74002770D02*
X113731998Y-73954389D01*
X113731998Y-73954389D02*
X113780379Y-73906008D01*
X113780379Y-73906008D02*
X113828760Y-73809246D01*
X113828760Y-73809246D02*
X113828760Y-73518960D01*
X113828760Y-73518960D02*
X113780379Y-73422198D01*
X113780379Y-73422198D02*
X113731998Y-73373818D01*
X113731998Y-73373818D02*
X113635236Y-73325437D01*
X113635236Y-73325437D02*
X113441712Y-73325437D01*
X113441712Y-73325437D02*
X113344950Y-73373818D01*
X114264188Y-73422198D02*
X114312569Y-73373818D01*
X114312569Y-73373818D02*
X114264188Y-73325437D01*
X114264188Y-73325437D02*
X114215807Y-73373818D01*
X114215807Y-73373818D02*
X114264188Y-73422198D01*
X114264188Y-73422198D02*
X114264188Y-73325437D01*
X115183427Y-73373818D02*
X115086665Y-73325437D01*
X115086665Y-73325437D02*
X114893141Y-73325437D01*
X114893141Y-73325437D02*
X114796379Y-73373818D01*
X114796379Y-73373818D02*
X114747998Y-73422198D01*
X114747998Y-73422198D02*
X114699617Y-73518960D01*
X114699617Y-73518960D02*
X114699617Y-73809246D01*
X114699617Y-73809246D02*
X114747998Y-73906008D01*
X114747998Y-73906008D02*
X114796379Y-73954389D01*
X114796379Y-73954389D02*
X114893141Y-74002770D01*
X114893141Y-74002770D02*
X115086665Y-74002770D01*
X115086665Y-74002770D02*
X115183427Y-73954389D01*
X115763998Y-73325437D02*
X115667236Y-73373818D01*
X115667236Y-73373818D02*
X115618855Y-73422198D01*
X115618855Y-73422198D02*
X115570474Y-73518960D01*
X115570474Y-73518960D02*
X115570474Y-73809246D01*
X115570474Y-73809246D02*
X115618855Y-73906008D01*
X115618855Y-73906008D02*
X115667236Y-73954389D01*
X115667236Y-73954389D02*
X115763998Y-74002770D01*
X115763998Y-74002770D02*
X115909141Y-74002770D01*
X115909141Y-74002770D02*
X116005903Y-73954389D01*
X116005903Y-73954389D02*
X116054284Y-73906008D01*
X116054284Y-73906008D02*
X116102665Y-73809246D01*
X116102665Y-73809246D02*
X116102665Y-73518960D01*
X116102665Y-73518960D02*
X116054284Y-73422198D01*
X116054284Y-73422198D02*
X116005903Y-73373818D01*
X116005903Y-73373818D02*
X115909141Y-73325437D01*
X115909141Y-73325437D02*
X115763998Y-73325437D01*
X116538093Y-73325437D02*
X116538093Y-74002770D01*
X116538093Y-73906008D02*
X116586474Y-73954389D01*
X116586474Y-73954389D02*
X116683236Y-74002770D01*
X116683236Y-74002770D02*
X116828379Y-74002770D01*
X116828379Y-74002770D02*
X116925141Y-73954389D01*
X116925141Y-73954389D02*
X116973522Y-73857627D01*
X116973522Y-73857627D02*
X116973522Y-73325437D01*
X116973522Y-73857627D02*
X117021903Y-73954389D01*
X117021903Y-73954389D02*
X117118665Y-74002770D01*
X117118665Y-74002770D02*
X117263808Y-74002770D01*
X117263808Y-74002770D02*
X117360569Y-73954389D01*
X117360569Y-73954389D02*
X117408950Y-73857627D01*
X117408950Y-73857627D02*
X117408950Y-73325437D01*
X118618475Y-74389818D02*
X117747617Y-73083532D01*
X119344189Y-73373818D02*
X119247427Y-73325437D01*
X119247427Y-73325437D02*
X119053903Y-73325437D01*
X119053903Y-73325437D02*
X118957141Y-73373818D01*
X118957141Y-73373818D02*
X118908760Y-73470579D01*
X118908760Y-73470579D02*
X118908760Y-73857627D01*
X118908760Y-73857627D02*
X118957141Y-73954389D01*
X118957141Y-73954389D02*
X119053903Y-74002770D01*
X119053903Y-74002770D02*
X119247427Y-74002770D01*
X119247427Y-74002770D02*
X119344189Y-73954389D01*
X119344189Y-73954389D02*
X119392570Y-73857627D01*
X119392570Y-73857627D02*
X119392570Y-73760865D01*
X119392570Y-73760865D02*
X118908760Y-73664103D01*
X120215046Y-73373818D02*
X120118284Y-73325437D01*
X120118284Y-73325437D02*
X119924760Y-73325437D01*
X119924760Y-73325437D02*
X119827998Y-73373818D01*
X119827998Y-73373818D02*
X119779617Y-73470579D01*
X119779617Y-73470579D02*
X119779617Y-73857627D01*
X119779617Y-73857627D02*
X119827998Y-73954389D01*
X119827998Y-73954389D02*
X119924760Y-74002770D01*
X119924760Y-74002770D02*
X120118284Y-74002770D01*
X120118284Y-74002770D02*
X120215046Y-73954389D01*
X120215046Y-73954389D02*
X120263427Y-73857627D01*
X120263427Y-73857627D02*
X120263427Y-73760865D01*
X120263427Y-73760865D02*
X119779617Y-73664103D01*
X120602093Y-74002770D02*
X121134284Y-74002770D01*
X121134284Y-74002770D02*
X120602093Y-73325437D01*
X120602093Y-73325437D02*
X121134284Y-73325437D01*
X121521331Y-73712484D02*
X122295427Y-73712484D01*
X122924379Y-73325437D02*
X122827617Y-73373818D01*
X122827617Y-73373818D02*
X122779236Y-73422198D01*
X122779236Y-73422198D02*
X122730855Y-73518960D01*
X122730855Y-73518960D02*
X122730855Y-73809246D01*
X122730855Y-73809246D02*
X122779236Y-73906008D01*
X122779236Y-73906008D02*
X122827617Y-73954389D01*
X122827617Y-73954389D02*
X122924379Y-74002770D01*
X122924379Y-74002770D02*
X123069522Y-74002770D01*
X123069522Y-74002770D02*
X123166284Y-73954389D01*
X123166284Y-73954389D02*
X123214665Y-73906008D01*
X123214665Y-73906008D02*
X123263046Y-73809246D01*
X123263046Y-73809246D02*
X123263046Y-73518960D01*
X123263046Y-73518960D02*
X123214665Y-73422198D01*
X123214665Y-73422198D02*
X123166284Y-73373818D01*
X123166284Y-73373818D02*
X123069522Y-73325437D01*
X123069522Y-73325437D02*
X122924379Y-73325437D01*
X123698474Y-74002770D02*
X123698474Y-72986770D01*
X123698474Y-73954389D02*
X123795236Y-74002770D01*
X123795236Y-74002770D02*
X123988760Y-74002770D01*
X123988760Y-74002770D02*
X124085522Y-73954389D01*
X124085522Y-73954389D02*
X124133903Y-73906008D01*
X124133903Y-73906008D02*
X124182284Y-73809246D01*
X124182284Y-73809246D02*
X124182284Y-73518960D01*
X124182284Y-73518960D02*
X124133903Y-73422198D01*
X124133903Y-73422198D02*
X124085522Y-73373818D01*
X124085522Y-73373818D02*
X123988760Y-73325437D01*
X123988760Y-73325437D02*
X123795236Y-73325437D01*
X123795236Y-73325437D02*
X123698474Y-73373818D01*
X125004760Y-73373818D02*
X124907998Y-73325437D01*
X124907998Y-73325437D02*
X124714474Y-73325437D01*
X124714474Y-73325437D02*
X124617712Y-73373818D01*
X124617712Y-73373818D02*
X124569331Y-73470579D01*
X124569331Y-73470579D02*
X124569331Y-73857627D01*
X124569331Y-73857627D02*
X124617712Y-73954389D01*
X124617712Y-73954389D02*
X124714474Y-74002770D01*
X124714474Y-74002770D02*
X124907998Y-74002770D01*
X124907998Y-74002770D02*
X125004760Y-73954389D01*
X125004760Y-73954389D02*
X125053141Y-73857627D01*
X125053141Y-73857627D02*
X125053141Y-73760865D01*
X125053141Y-73760865D02*
X124569331Y-73664103D01*
X125488569Y-74002770D02*
X125488569Y-73325437D01*
X125488569Y-73906008D02*
X125536950Y-73954389D01*
X125536950Y-73954389D02*
X125633712Y-74002770D01*
X125633712Y-74002770D02*
X125778855Y-74002770D01*
X125778855Y-74002770D02*
X125875617Y-73954389D01*
X125875617Y-73954389D02*
X125923998Y-73857627D01*
X125923998Y-73857627D02*
X125923998Y-73325437D01*
X91368182Y-118135048D02*
X91755229Y-118135048D01*
X91290772Y-117902820D02*
X91561705Y-118715620D01*
X91561705Y-118715620D02*
X91832639Y-117902820D01*
X92103572Y-117902820D02*
X92103572Y-118715620D01*
X92490620Y-117902820D02*
X92490620Y-118715620D01*
X92490620Y-118715620D02*
X92955077Y-117902820D01*
X92955077Y-117902820D02*
X92955077Y-118715620D01*
X93264716Y-118715620D02*
X93767878Y-118715620D01*
X93767878Y-118715620D02*
X93496944Y-118405982D01*
X93496944Y-118405982D02*
X93613059Y-118405982D01*
X93613059Y-118405982D02*
X93690468Y-118367277D01*
X93690468Y-118367277D02*
X93729173Y-118328572D01*
X93729173Y-118328572D02*
X93767878Y-118251163D01*
X93767878Y-118251163D02*
X93767878Y-118057639D01*
X93767878Y-118057639D02*
X93729173Y-117980229D01*
X93729173Y-117980229D02*
X93690468Y-117941525D01*
X93690468Y-117941525D02*
X93613059Y-117902820D01*
X93613059Y-117902820D02*
X93380830Y-117902820D01*
X93380830Y-117902820D02*
X93303421Y-117941525D01*
X93303421Y-117941525D02*
X93264716Y-117980229D01*
X94116220Y-118212458D02*
X94735497Y-118212458D01*
X94425858Y-117902820D02*
X94425858Y-118522096D01*
X91368182Y-114209224D02*
X91755229Y-114209224D01*
X91290772Y-113976996D02*
X91561705Y-114789796D01*
X91561705Y-114789796D02*
X91832639Y-113976996D01*
X92103572Y-113976996D02*
X92103572Y-114789796D01*
X92490620Y-113976996D02*
X92490620Y-114789796D01*
X92490620Y-114789796D02*
X92955077Y-113976996D01*
X92955077Y-113976996D02*
X92955077Y-114789796D01*
X93264716Y-114789796D02*
X93767878Y-114789796D01*
X93767878Y-114789796D02*
X93496944Y-114480158D01*
X93496944Y-114480158D02*
X93613059Y-114480158D01*
X93613059Y-114480158D02*
X93690468Y-114441453D01*
X93690468Y-114441453D02*
X93729173Y-114402748D01*
X93729173Y-114402748D02*
X93767878Y-114325339D01*
X93767878Y-114325339D02*
X93767878Y-114131815D01*
X93767878Y-114131815D02*
X93729173Y-114054405D01*
X93729173Y-114054405D02*
X93690468Y-114015701D01*
X93690468Y-114015701D02*
X93613059Y-113976996D01*
X93613059Y-113976996D02*
X93380830Y-113976996D01*
X93380830Y-113976996D02*
X93303421Y-114015701D01*
X93303421Y-114015701D02*
X93264716Y-114054405D01*
X94116220Y-114286634D02*
X94735497Y-114286634D01*
X91368182Y-125755048D02*
X91755229Y-125755048D01*
X91290772Y-125522820D02*
X91561705Y-126335620D01*
X91561705Y-126335620D02*
X91832639Y-125522820D01*
X92103572Y-125522820D02*
X92103572Y-126335620D01*
X92490620Y-125522820D02*
X92490620Y-126335620D01*
X92490620Y-126335620D02*
X92955077Y-125522820D01*
X92955077Y-125522820D02*
X92955077Y-126335620D01*
X93303421Y-126258210D02*
X93342125Y-126296915D01*
X93342125Y-126296915D02*
X93419535Y-126335620D01*
X93419535Y-126335620D02*
X93613059Y-126335620D01*
X93613059Y-126335620D02*
X93690468Y-126296915D01*
X93690468Y-126296915D02*
X93729173Y-126258210D01*
X93729173Y-126258210D02*
X93767878Y-126180801D01*
X93767878Y-126180801D02*
X93767878Y-126103391D01*
X93767878Y-126103391D02*
X93729173Y-125987277D01*
X93729173Y-125987277D02*
X93264716Y-125522820D01*
X93264716Y-125522820D02*
X93767878Y-125522820D01*
X94116220Y-125832458D02*
X94735497Y-125832458D01*
X94425858Y-125522820D02*
X94425858Y-126142096D01*
X91368182Y-121829224D02*
X91755229Y-121829224D01*
X91290772Y-121596996D02*
X91561705Y-122409796D01*
X91561705Y-122409796D02*
X91832639Y-121596996D01*
X92103572Y-121596996D02*
X92103572Y-122409796D01*
X92490620Y-121596996D02*
X92490620Y-122409796D01*
X92490620Y-122409796D02*
X92955077Y-121596996D01*
X92955077Y-121596996D02*
X92955077Y-122409796D01*
X93303421Y-122332386D02*
X93342125Y-122371091D01*
X93342125Y-122371091D02*
X93419535Y-122409796D01*
X93419535Y-122409796D02*
X93613059Y-122409796D01*
X93613059Y-122409796D02*
X93690468Y-122371091D01*
X93690468Y-122371091D02*
X93729173Y-122332386D01*
X93729173Y-122332386D02*
X93767878Y-122254977D01*
X93767878Y-122254977D02*
X93767878Y-122177567D01*
X93767878Y-122177567D02*
X93729173Y-122061453D01*
X93729173Y-122061453D02*
X93264716Y-121596996D01*
X93264716Y-121596996D02*
X93767878Y-121596996D01*
X94116220Y-121906634D02*
X94735497Y-121906634D01*
X84964082Y-110310448D02*
X85351129Y-110310448D01*
X84886672Y-110078220D02*
X85157605Y-110891020D01*
X85157605Y-110891020D02*
X85428539Y-110078220D01*
X85699472Y-110078220D02*
X85699472Y-110891020D01*
X86086520Y-110078220D02*
X86086520Y-110891020D01*
X86086520Y-110891020D02*
X86550977Y-110078220D01*
X86550977Y-110078220D02*
X86550977Y-110891020D01*
X87286368Y-110620086D02*
X87286368Y-110078220D01*
X87092844Y-110929725D02*
X86899321Y-110349153D01*
X86899321Y-110349153D02*
X87402482Y-110349153D01*
X87712120Y-110387858D02*
X88331397Y-110387858D01*
X88021758Y-110078220D02*
X88021758Y-110697496D01*
X84964082Y-106384624D02*
X85351129Y-106384624D01*
X84886672Y-106152396D02*
X85157605Y-106965196D01*
X85157605Y-106965196D02*
X85428539Y-106152396D01*
X85699472Y-106152396D02*
X85699472Y-106965196D01*
X86086520Y-106152396D02*
X86086520Y-106965196D01*
X86086520Y-106965196D02*
X86550977Y-106152396D01*
X86550977Y-106152396D02*
X86550977Y-106965196D01*
X87286368Y-106694262D02*
X87286368Y-106152396D01*
X87092844Y-107003901D02*
X86899321Y-106423329D01*
X86899321Y-106423329D02*
X87402482Y-106423329D01*
X87712120Y-106462034D02*
X88331397Y-106462034D01*
D11*
X86687585Y-125553505D02*
X87830585Y-125553505D01*
X86742014Y-125063647D02*
X86687585Y-124900362D01*
X86687585Y-124900362D02*
X86687585Y-124628219D01*
X86687585Y-124628219D02*
X86742014Y-124519362D01*
X86742014Y-124519362D02*
X86796442Y-124464933D01*
X86796442Y-124464933D02*
X86905299Y-124410504D01*
X86905299Y-124410504D02*
X87014156Y-124410504D01*
X87014156Y-124410504D02*
X87123014Y-124464933D01*
X87123014Y-124464933D02*
X87177442Y-124519362D01*
X87177442Y-124519362D02*
X87231871Y-124628219D01*
X87231871Y-124628219D02*
X87286299Y-124845933D01*
X87286299Y-124845933D02*
X87340728Y-124954790D01*
X87340728Y-124954790D02*
X87395156Y-125009219D01*
X87395156Y-125009219D02*
X87504014Y-125063647D01*
X87504014Y-125063647D02*
X87612871Y-125063647D01*
X87612871Y-125063647D02*
X87721728Y-125009219D01*
X87721728Y-125009219D02*
X87776156Y-124954790D01*
X87776156Y-124954790D02*
X87830585Y-124845933D01*
X87830585Y-124845933D02*
X87830585Y-124573790D01*
X87830585Y-124573790D02*
X87776156Y-124410504D01*
X87830585Y-123702933D02*
X87830585Y-123485219D01*
X87830585Y-123485219D02*
X87776156Y-123376362D01*
X87776156Y-123376362D02*
X87667299Y-123267505D01*
X87667299Y-123267505D02*
X87449585Y-123213076D01*
X87449585Y-123213076D02*
X87068585Y-123213076D01*
X87068585Y-123213076D02*
X86850871Y-123267505D01*
X86850871Y-123267505D02*
X86742014Y-123376362D01*
X86742014Y-123376362D02*
X86687585Y-123485219D01*
X86687585Y-123485219D02*
X86687585Y-123702933D01*
X86687585Y-123702933D02*
X86742014Y-123811791D01*
X86742014Y-123811791D02*
X86850871Y-123920648D01*
X86850871Y-123920648D02*
X87068585Y-123975076D01*
X87068585Y-123975076D02*
X87449585Y-123975076D01*
X87449585Y-123975076D02*
X87667299Y-123920648D01*
X87667299Y-123920648D02*
X87776156Y-123811791D01*
X87776156Y-123811791D02*
X87830585Y-123702933D01*
X86578728Y-122995362D02*
X86578728Y-122124504D01*
X86687585Y-121852362D02*
X87830585Y-121852362D01*
D10*
X91250582Y-133222648D02*
X91637629Y-133222648D01*
X91173172Y-132990420D02*
X91444105Y-133803220D01*
X91444105Y-133803220D02*
X91715039Y-132990420D01*
X91985972Y-132990420D02*
X91985972Y-133803220D01*
X92373020Y-132990420D02*
X92373020Y-133803220D01*
X92373020Y-133803220D02*
X92837477Y-132990420D01*
X92837477Y-132990420D02*
X92837477Y-133803220D01*
X93650278Y-132990420D02*
X93185821Y-132990420D01*
X93418049Y-132990420D02*
X93418049Y-133803220D01*
X93418049Y-133803220D02*
X93340640Y-133687105D01*
X93340640Y-133687105D02*
X93263230Y-133609696D01*
X93263230Y-133609696D02*
X93185821Y-133570991D01*
X93998620Y-133300058D02*
X94617897Y-133300058D01*
X94308258Y-132990420D02*
X94308258Y-133609696D01*
X91250582Y-129296824D02*
X91637629Y-129296824D01*
X91173172Y-129064596D02*
X91444105Y-129877396D01*
X91444105Y-129877396D02*
X91715039Y-129064596D01*
X91985972Y-129064596D02*
X91985972Y-129877396D01*
X92373020Y-129064596D02*
X92373020Y-129877396D01*
X92373020Y-129877396D02*
X92837477Y-129064596D01*
X92837477Y-129064596D02*
X92837477Y-129877396D01*
X93650278Y-129064596D02*
X93185821Y-129064596D01*
X93418049Y-129064596D02*
X93418049Y-129877396D01*
X93418049Y-129877396D02*
X93340640Y-129761281D01*
X93340640Y-129761281D02*
X93263230Y-129683872D01*
X93263230Y-129683872D02*
X93185821Y-129645167D01*
X93998620Y-129374234D02*
X94617897Y-129374234D01*
D11*
X86687585Y-133452905D02*
X87830585Y-133452905D01*
X86742014Y-132963047D02*
X86687585Y-132799762D01*
X86687585Y-132799762D02*
X86687585Y-132527619D01*
X86687585Y-132527619D02*
X86742014Y-132418762D01*
X86742014Y-132418762D02*
X86796442Y-132364333D01*
X86796442Y-132364333D02*
X86905299Y-132309904D01*
X86905299Y-132309904D02*
X87014156Y-132309904D01*
X87014156Y-132309904D02*
X87123014Y-132364333D01*
X87123014Y-132364333D02*
X87177442Y-132418762D01*
X87177442Y-132418762D02*
X87231871Y-132527619D01*
X87231871Y-132527619D02*
X87286299Y-132745333D01*
X87286299Y-132745333D02*
X87340728Y-132854190D01*
X87340728Y-132854190D02*
X87395156Y-132908619D01*
X87395156Y-132908619D02*
X87504014Y-132963047D01*
X87504014Y-132963047D02*
X87612871Y-132963047D01*
X87612871Y-132963047D02*
X87721728Y-132908619D01*
X87721728Y-132908619D02*
X87776156Y-132854190D01*
X87776156Y-132854190D02*
X87830585Y-132745333D01*
X87830585Y-132745333D02*
X87830585Y-132473190D01*
X87830585Y-132473190D02*
X87776156Y-132309904D01*
X87830585Y-131602333D02*
X87830585Y-131384619D01*
X87830585Y-131384619D02*
X87776156Y-131275762D01*
X87776156Y-131275762D02*
X87667299Y-131166905D01*
X87667299Y-131166905D02*
X87449585Y-131112476D01*
X87449585Y-131112476D02*
X87068585Y-131112476D01*
X87068585Y-131112476D02*
X86850871Y-131166905D01*
X86850871Y-131166905D02*
X86742014Y-131275762D01*
X86742014Y-131275762D02*
X86687585Y-131384619D01*
X86687585Y-131384619D02*
X86687585Y-131602333D01*
X86687585Y-131602333D02*
X86742014Y-131711191D01*
X86742014Y-131711191D02*
X86850871Y-131820048D01*
X86850871Y-131820048D02*
X87068585Y-131874476D01*
X87068585Y-131874476D02*
X87449585Y-131874476D01*
X87449585Y-131874476D02*
X87667299Y-131820048D01*
X87667299Y-131820048D02*
X87776156Y-131711191D01*
X87776156Y-131711191D02*
X87830585Y-131602333D01*
X86578728Y-130894762D02*
X86578728Y-130023904D01*
X87830585Y-129751762D02*
X86905299Y-129751762D01*
X86905299Y-129751762D02*
X86796442Y-129697333D01*
X86796442Y-129697333D02*
X86742014Y-129642905D01*
X86742014Y-129642905D02*
X86687585Y-129534047D01*
X86687585Y-129534047D02*
X86687585Y-129316333D01*
X86687585Y-129316333D02*
X86742014Y-129207476D01*
X86742014Y-129207476D02*
X86796442Y-129153047D01*
X86796442Y-129153047D02*
X86905299Y-129098619D01*
X86905299Y-129098619D02*
X87830585Y-129098619D01*
D10*
X140614399Y-127901908D02*
X140614399Y-128714708D01*
X141001447Y-127901908D02*
X141001447Y-128714708D01*
X141001447Y-128714708D02*
X141465904Y-127901908D01*
X141465904Y-127901908D02*
X141465904Y-128714708D01*
X142278705Y-127901908D02*
X141814248Y-127901908D01*
X142046476Y-127901908D02*
X142046476Y-128714708D01*
X142046476Y-128714708D02*
X141969067Y-128598593D01*
X141969067Y-128598593D02*
X141891657Y-128521184D01*
X141891657Y-128521184D02*
X141814248Y-128482479D01*
X142627047Y-127901908D02*
X142627047Y-128714708D01*
X142627047Y-128714708D02*
X143091504Y-127901908D01*
X143091504Y-127901908D02*
X143091504Y-128714708D01*
X143904305Y-127901908D02*
X143439848Y-127901908D01*
X143672076Y-127901908D02*
X143672076Y-128714708D01*
X143672076Y-128714708D02*
X143594667Y-128598593D01*
X143594667Y-128598593D02*
X143517257Y-128521184D01*
X143517257Y-128521184D02*
X143439848Y-128482479D01*
X133281235Y-73103141D02*
X134297235Y-73780475D01*
X133281235Y-73780475D02*
X134297235Y-73103141D01*
X133377997Y-74119141D02*
X133329616Y-74167522D01*
X133329616Y-74167522D02*
X133281235Y-74264284D01*
X133281235Y-74264284D02*
X133281235Y-74506189D01*
X133281235Y-74506189D02*
X133329616Y-74602951D01*
X133329616Y-74602951D02*
X133377997Y-74651332D01*
X133377997Y-74651332D02*
X133474759Y-74699713D01*
X133474759Y-74699713D02*
X133571521Y-74699713D01*
X133571521Y-74699713D02*
X133716664Y-74651332D01*
X133716664Y-74651332D02*
X134297235Y-74070760D01*
X134297235Y-74070760D02*
X134297235Y-74699713D01*
X140633752Y-120218408D02*
X140633752Y-121031208D01*
X141020800Y-120218408D02*
X141020800Y-121031208D01*
X141020800Y-121031208D02*
X141485257Y-120218408D01*
X141485257Y-120218408D02*
X141485257Y-121031208D01*
X142298058Y-120218408D02*
X141833601Y-120218408D01*
X142065829Y-120218408D02*
X142065829Y-121031208D01*
X142065829Y-121031208D02*
X141988420Y-120915093D01*
X141988420Y-120915093D02*
X141911010Y-120837684D01*
X141911010Y-120837684D02*
X141833601Y-120798979D01*
X142646400Y-120218408D02*
X142646400Y-121031208D01*
X142646400Y-121031208D02*
X142956038Y-121031208D01*
X142956038Y-121031208D02*
X143033448Y-120992503D01*
X143033448Y-120992503D02*
X143072153Y-120953798D01*
X143072153Y-120953798D02*
X143110857Y-120876389D01*
X143110857Y-120876389D02*
X143110857Y-120760274D01*
X143110857Y-120760274D02*
X143072153Y-120682865D01*
X143072153Y-120682865D02*
X143033448Y-120644160D01*
X143033448Y-120644160D02*
X142956038Y-120605455D01*
X142956038Y-120605455D02*
X142646400Y-120605455D01*
X143884953Y-120218408D02*
X143420496Y-120218408D01*
X143652724Y-120218408D02*
X143652724Y-121031208D01*
X143652724Y-121031208D02*
X143575315Y-120915093D01*
X143575315Y-120915093D02*
X143497905Y-120837684D01*
X143497905Y-120837684D02*
X143420496Y-120798979D01*
X143154399Y-104978408D02*
X143154399Y-105791208D01*
X143541447Y-104978408D02*
X143541447Y-105791208D01*
X143541447Y-105791208D02*
X144005904Y-104978408D01*
X144005904Y-104978408D02*
X144005904Y-105791208D01*
X144354248Y-105713798D02*
X144392952Y-105752503D01*
X144392952Y-105752503D02*
X144470362Y-105791208D01*
X144470362Y-105791208D02*
X144663886Y-105791208D01*
X144663886Y-105791208D02*
X144741295Y-105752503D01*
X144741295Y-105752503D02*
X144780000Y-105713798D01*
X144780000Y-105713798D02*
X144818705Y-105636389D01*
X144818705Y-105636389D02*
X144818705Y-105558979D01*
X144818705Y-105558979D02*
X144780000Y-105442865D01*
X144780000Y-105442865D02*
X144315543Y-104978408D01*
X144315543Y-104978408D02*
X144818705Y-104978408D01*
X145167047Y-104978408D02*
X145167047Y-105791208D01*
X145167047Y-105791208D02*
X145631504Y-104978408D01*
X145631504Y-104978408D02*
X145631504Y-105791208D01*
X146444305Y-104978408D02*
X145979848Y-104978408D01*
X146212076Y-104978408D02*
X146212076Y-105791208D01*
X146212076Y-105791208D02*
X146134667Y-105675093D01*
X146134667Y-105675093D02*
X146057257Y-105597684D01*
X146057257Y-105597684D02*
X145979848Y-105558979D01*
X143173752Y-110058408D02*
X143173752Y-110871208D01*
X143560800Y-110058408D02*
X143560800Y-110871208D01*
X143560800Y-110871208D02*
X144025257Y-110058408D01*
X144025257Y-110058408D02*
X144025257Y-110871208D01*
X144373601Y-110793798D02*
X144412305Y-110832503D01*
X144412305Y-110832503D02*
X144489715Y-110871208D01*
X144489715Y-110871208D02*
X144683239Y-110871208D01*
X144683239Y-110871208D02*
X144760648Y-110832503D01*
X144760648Y-110832503D02*
X144799353Y-110793798D01*
X144799353Y-110793798D02*
X144838058Y-110716389D01*
X144838058Y-110716389D02*
X144838058Y-110638979D01*
X144838058Y-110638979D02*
X144799353Y-110522865D01*
X144799353Y-110522865D02*
X144334896Y-110058408D01*
X144334896Y-110058408D02*
X144838058Y-110058408D01*
X145186400Y-110058408D02*
X145186400Y-110871208D01*
X145186400Y-110871208D02*
X145496038Y-110871208D01*
X145496038Y-110871208D02*
X145573448Y-110832503D01*
X145573448Y-110832503D02*
X145612153Y-110793798D01*
X145612153Y-110793798D02*
X145650857Y-110716389D01*
X145650857Y-110716389D02*
X145650857Y-110600274D01*
X145650857Y-110600274D02*
X145612153Y-110522865D01*
X145612153Y-110522865D02*
X145573448Y-110484160D01*
X145573448Y-110484160D02*
X145496038Y-110445455D01*
X145496038Y-110445455D02*
X145186400Y-110445455D01*
X146424953Y-110058408D02*
X145960496Y-110058408D01*
X146192724Y-110058408D02*
X146192724Y-110871208D01*
X146192724Y-110871208D02*
X146115315Y-110755093D01*
X146115315Y-110755093D02*
X146037905Y-110677684D01*
X146037905Y-110677684D02*
X145960496Y-110638979D01*
X133217735Y-135079141D02*
X134233735Y-135756475D01*
X133217735Y-135756475D02*
X134233735Y-135079141D01*
X134233735Y-136675713D02*
X134233735Y-136095141D01*
X134233735Y-136385427D02*
X133217735Y-136385427D01*
X133217735Y-136385427D02*
X133362878Y-136288665D01*
X133362878Y-136288665D02*
X133459640Y-136191903D01*
X133459640Y-136191903D02*
X133508021Y-136095141D01*
D12*
%TO.C,X2*%
X134601000Y-71558600D02*
X134601000Y-76408600D01*
X134601000Y-76408600D02*
X170419000Y-76408600D01*
X170419000Y-71558600D02*
X134601000Y-71558600D01*
X170419000Y-76408600D02*
X170419000Y-71558600D01*
G36*
X170480500Y-74733170D02*
G01*
X169281188Y-73983600D01*
X170480500Y-73234030D01*
X170480500Y-74733170D01*
G37*
%TO.C,LOGO1*%
G36*
X207594050Y-72729520D02*
G01*
X207594050Y-73058499D01*
X207328002Y-73067414D01*
X207233126Y-73071308D01*
X207133425Y-73078523D01*
X207052878Y-73089707D01*
X206979504Y-73106648D01*
X206901322Y-73131137D01*
X206744941Y-73194037D01*
X206533529Y-73314112D01*
X206346309Y-73464877D01*
X206185700Y-73643915D01*
X206054124Y-73848810D01*
X205954002Y-74077142D01*
X205953473Y-74078655D01*
X205931539Y-74144559D01*
X205916255Y-74201760D01*
X205906434Y-74260030D01*
X205900890Y-74329140D01*
X205898434Y-74418860D01*
X205897879Y-74538961D01*
X205897879Y-74541796D01*
X205898461Y-74661175D01*
X205900969Y-74750374D01*
X205906589Y-74819163D01*
X205916510Y-74877313D01*
X205931918Y-74934594D01*
X205954002Y-75000779D01*
X206018564Y-75158515D01*
X206140343Y-75371169D01*
X206291929Y-75558740D01*
X206470901Y-75718811D01*
X206674839Y-75848965D01*
X206901322Y-75946784D01*
X206961052Y-75965980D01*
X207034500Y-75984624D01*
X207112154Y-75997067D01*
X207205994Y-76005098D01*
X207328002Y-76010507D01*
X207594050Y-76019422D01*
X207594050Y-76348401D01*
X207594050Y-76677379D01*
X207385850Y-76677379D01*
X207347734Y-76677076D01*
X207050235Y-76653061D01*
X206765418Y-76591187D01*
X206494947Y-76492180D01*
X206240484Y-76356764D01*
X206003689Y-76185664D01*
X205786226Y-75979605D01*
X205698744Y-75879121D01*
X205535998Y-75649688D01*
X205407392Y-75404516D01*
X205312926Y-75147293D01*
X205252599Y-74881709D01*
X205226412Y-74611451D01*
X205234365Y-74340208D01*
X205276458Y-74071669D01*
X205352690Y-73809521D01*
X205463063Y-73557455D01*
X205607575Y-73319157D01*
X205786226Y-73098316D01*
X205955367Y-72933836D01*
X206188986Y-72755116D01*
X206442035Y-72610840D01*
X206712364Y-72502195D01*
X206997819Y-72430369D01*
X207044938Y-72423265D01*
X207144654Y-72413033D01*
X207257906Y-72405646D01*
X207368160Y-72402354D01*
X207594050Y-72400542D01*
X207594050Y-72729520D01*
G37*
G36*
X211228358Y-72731846D02*
G01*
X211228358Y-73063150D01*
X211010700Y-73063150D01*
X210948784Y-73064145D01*
X210715494Y-73088370D01*
X210498691Y-73146533D01*
X210292254Y-73240691D01*
X210090062Y-73372905D01*
X210019181Y-73430704D01*
X209869749Y-73584960D01*
X209740840Y-73763816D01*
X209638868Y-73957600D01*
X209570247Y-74156641D01*
X209557443Y-74207656D01*
X210182070Y-74207656D01*
X210806698Y-74207656D01*
X210806698Y-74538961D01*
X210806698Y-74870265D01*
X210182070Y-74870265D01*
X209557443Y-74870265D01*
X209570247Y-74921280D01*
X209596036Y-75009231D01*
X209680180Y-75207142D01*
X209794842Y-75395524D01*
X209933607Y-75564706D01*
X210090062Y-75705016D01*
X210132216Y-75735845D01*
X210337442Y-75861197D01*
X210548966Y-75948593D01*
X210772189Y-75999859D01*
X211012508Y-76016821D01*
X211228358Y-76017180D01*
X211228358Y-76347280D01*
X211228358Y-76677379D01*
X211020158Y-76677379D01*
X211019689Y-76677379D01*
X210726868Y-76658077D01*
X210445565Y-76601647D01*
X210178408Y-76510126D01*
X209928030Y-76385546D01*
X209697061Y-76229942D01*
X209488131Y-76045347D01*
X209303870Y-75833796D01*
X209146911Y-75597324D01*
X209019884Y-75337962D01*
X208925418Y-75057747D01*
X208909177Y-74994404D01*
X208893218Y-74920486D01*
X208882665Y-74848502D01*
X208876448Y-74767932D01*
X208873502Y-74668258D01*
X208872757Y-74538961D01*
X208873155Y-74438390D01*
X208875459Y-74332388D01*
X208880770Y-74248084D01*
X208890155Y-74174960D01*
X208904682Y-74102496D01*
X208925418Y-74020174D01*
X208977856Y-73850682D01*
X209092287Y-73583746D01*
X209238468Y-73337372D01*
X209413727Y-73114049D01*
X209615394Y-72916264D01*
X209840796Y-72746506D01*
X210087262Y-72607262D01*
X210352119Y-72501022D01*
X210632695Y-72430273D01*
X210679746Y-72423184D01*
X210779235Y-72412994D01*
X210892306Y-72405635D01*
X211002469Y-72402354D01*
X211228358Y-72400542D01*
X211228358Y-72731846D01*
G37*
%TO.C,LOGO3*%
G36*
X90922019Y-76796834D02*
G01*
X90902426Y-76967365D01*
X90860795Y-77133377D01*
X90853224Y-77156091D01*
X90784752Y-77320968D01*
X90695440Y-77479750D01*
X90587072Y-77631034D01*
X90461430Y-77773415D01*
X90320298Y-77905490D01*
X90165457Y-78025856D01*
X89998692Y-78133110D01*
X89821786Y-78225847D01*
X89636520Y-78302664D01*
X89444679Y-78362158D01*
X89248044Y-78402925D01*
X89195080Y-78409711D01*
X89108972Y-78416263D01*
X89018200Y-78418895D01*
X88929673Y-78417602D01*
X88850297Y-78412379D01*
X88786981Y-78403224D01*
X88723857Y-78386741D01*
X88613041Y-78340719D01*
X88513665Y-78276623D01*
X88428149Y-78196508D01*
X88358912Y-78102433D01*
X88308376Y-77996453D01*
X88305615Y-77988713D01*
X88290311Y-77935999D01*
X88282399Y-77882370D01*
X88280147Y-77816798D01*
X88280941Y-77801969D01*
X88410033Y-77801969D01*
X88419431Y-77901788D01*
X88449534Y-77994223D01*
X88498713Y-78077414D01*
X88565335Y-78149500D01*
X88647770Y-78208621D01*
X88744385Y-78252916D01*
X88853550Y-78280524D01*
X88858380Y-78281293D01*
X88988896Y-78291880D01*
X89131134Y-78285736D01*
X89281776Y-78263784D01*
X89437506Y-78226944D01*
X89595007Y-78176140D01*
X89750963Y-78112295D01*
X89902056Y-78036330D01*
X90044969Y-77949169D01*
X90089352Y-77918620D01*
X90250052Y-77793555D01*
X90391210Y-77659265D01*
X90512268Y-77516557D01*
X90612669Y-77366240D01*
X90691854Y-77209120D01*
X90749266Y-77046008D01*
X90784349Y-76877710D01*
X90793039Y-76790611D01*
X90791717Y-76630761D01*
X90769057Y-76472827D01*
X90726318Y-76318667D01*
X90664760Y-76170140D01*
X90585644Y-76029104D01*
X90490228Y-75897418D01*
X90379772Y-75776940D01*
X90255537Y-75669529D01*
X90118782Y-75577043D01*
X89970767Y-75501341D01*
X89812751Y-75444282D01*
X89775919Y-75433859D01*
X89719714Y-75420379D01*
X89681401Y-75417113D01*
X89658306Y-75425626D01*
X89647756Y-75447484D01*
X89647075Y-75484254D01*
X89653591Y-75537502D01*
X89666055Y-75686441D01*
X89657846Y-75852452D01*
X89626833Y-76020121D01*
X89573195Y-76188897D01*
X89497111Y-76358227D01*
X89398758Y-76527562D01*
X89278317Y-76696348D01*
X89243167Y-76739313D01*
X89177759Y-76812814D01*
X89101334Y-76892888D01*
X89018404Y-76974989D01*
X88933477Y-77054569D01*
X88851064Y-77127083D01*
X88806754Y-77165158D01*
X88698940Y-77263845D01*
X88610453Y-77355435D01*
X88539954Y-77441901D01*
X88486108Y-77525212D01*
X88447578Y-77607340D01*
X88423028Y-77690257D01*
X88411120Y-77775933D01*
X88410033Y-77801969D01*
X88280941Y-77801969D01*
X88284964Y-77726783D01*
X88303012Y-77628335D01*
X88335580Y-77532981D01*
X88383857Y-77438771D01*
X88449033Y-77343756D01*
X88532298Y-77245988D01*
X88634841Y-77143518D01*
X88757853Y-77034397D01*
X88836883Y-76965038D01*
X88926927Y-76880556D01*
X89014210Y-76793322D01*
X89094730Y-76707479D01*
X89164487Y-76627169D01*
X89219480Y-76556532D01*
X89251981Y-76510237D01*
X89352163Y-76350125D01*
X89430148Y-76194027D01*
X89486294Y-76040818D01*
X89520957Y-75889375D01*
X89534495Y-75738573D01*
X89527264Y-75587288D01*
X89522425Y-75538744D01*
X89518940Y-75486330D01*
X89518077Y-75444712D01*
X89520099Y-75420035D01*
X89541132Y-75370436D01*
X89581470Y-75325746D01*
X89635436Y-75296816D01*
X89699159Y-75286532D01*
X89755156Y-75292230D01*
X89829401Y-75309883D01*
X89914151Y-75337772D01*
X90005061Y-75374149D01*
X90097785Y-75417266D01*
X90187977Y-75465373D01*
X90271290Y-75516722D01*
X90355574Y-75578793D01*
X90467380Y-75678285D01*
X90572683Y-75790948D01*
X90666254Y-75911057D01*
X90742862Y-76032886D01*
X90784941Y-76115452D01*
X90851036Y-76281093D01*
X90896078Y-76451401D01*
X90919821Y-76624081D01*
X90921940Y-76790611D01*
X90922019Y-76796834D01*
G37*
G36*
X92143609Y-75664334D02*
G01*
X92133353Y-75757220D01*
X92114464Y-75837794D01*
X92084774Y-75913701D01*
X92042110Y-75992587D01*
X92041483Y-75993627D01*
X91983343Y-76070480D01*
X91908754Y-76139736D01*
X91823243Y-76197642D01*
X91732338Y-76240447D01*
X91641569Y-76264400D01*
X91603218Y-76268813D01*
X91487057Y-76266707D01*
X91369250Y-76241998D01*
X91250826Y-76195060D01*
X91132816Y-76126270D01*
X91016248Y-76036004D01*
X91006184Y-76026959D01*
X90966413Y-75988294D01*
X90918698Y-75938681D01*
X90868167Y-75883547D01*
X90819953Y-75828321D01*
X90747553Y-75744505D01*
X90646516Y-75633848D01*
X90551063Y-75537914D01*
X90457655Y-75453379D01*
X90362748Y-75376916D01*
X90262803Y-75305201D01*
X90120573Y-75218239D01*
X89973380Y-75147356D01*
X89825989Y-75094846D01*
X89680846Y-75061426D01*
X89540398Y-75047812D01*
X89407093Y-75054720D01*
X89399329Y-75055761D01*
X89331110Y-75063851D01*
X89280505Y-75067074D01*
X89242753Y-75065232D01*
X89213099Y-75058127D01*
X89186784Y-75045561D01*
X89149598Y-75018341D01*
X89116364Y-74974277D01*
X89100528Y-74919060D01*
X89101235Y-74874853D01*
X89229002Y-74874853D01*
X89229191Y-74901793D01*
X89240484Y-74918678D01*
X89265311Y-74927206D01*
X89306100Y-74929077D01*
X89365282Y-74925987D01*
X89445284Y-74919637D01*
X89481078Y-74917407D01*
X89631376Y-74921997D01*
X89785753Y-74948103D01*
X89942682Y-74994913D01*
X90100633Y-75061618D01*
X90258077Y-75147407D01*
X90413486Y-75251470D01*
X90565330Y-75372997D01*
X90712081Y-75511177D01*
X90852210Y-75665202D01*
X90908147Y-75731403D01*
X90956379Y-75787930D01*
X90994827Y-75831986D01*
X91026141Y-75866393D01*
X91052975Y-75893972D01*
X91077980Y-75917543D01*
X91103810Y-75939929D01*
X91133117Y-75963949D01*
X91139115Y-75968756D01*
X91234365Y-76036219D01*
X91329702Y-76087936D01*
X91420192Y-76121205D01*
X91425925Y-76122703D01*
X91527416Y-76137438D01*
X91626830Y-76130494D01*
X91720996Y-76102784D01*
X91806742Y-76055219D01*
X91880897Y-75988711D01*
X91916803Y-75943435D01*
X91967121Y-75853453D01*
X92000207Y-75750498D01*
X92016411Y-75633305D01*
X92016084Y-75500609D01*
X91997260Y-75330775D01*
X91954953Y-75135921D01*
X91891758Y-74944393D01*
X91808926Y-74758947D01*
X91707712Y-74582340D01*
X91589367Y-74417329D01*
X91455147Y-74266670D01*
X91453972Y-74265489D01*
X91369076Y-74183600D01*
X91290952Y-74116470D01*
X91213449Y-74059576D01*
X91130414Y-74008399D01*
X91035697Y-73958419D01*
X90989526Y-73936479D01*
X90830801Y-73875845D01*
X90672206Y-73838391D01*
X90513045Y-73824040D01*
X90352625Y-73832716D01*
X90190252Y-73864340D01*
X90178782Y-73867417D01*
X90017369Y-73923337D01*
X89865512Y-73999433D01*
X89724944Y-74094005D01*
X89597397Y-74205354D01*
X89484603Y-74331782D01*
X89388296Y-74471588D01*
X89310207Y-74623073D01*
X89252069Y-74784539D01*
X89237488Y-74836159D01*
X89229002Y-74874853D01*
X89101235Y-74874853D01*
X89101621Y-74850758D01*
X89119174Y-74767438D01*
X89171845Y-74612523D01*
X89250639Y-74448120D01*
X89350009Y-74294646D01*
X89469991Y-74152036D01*
X89501912Y-74119208D01*
X89630770Y-74002515D01*
X89765251Y-73906308D01*
X89908779Y-73828366D01*
X90064780Y-73766470D01*
X90131754Y-73745786D01*
X90305485Y-73708086D01*
X90478355Y-73693653D01*
X90650180Y-73702482D01*
X90820773Y-73734568D01*
X90989950Y-73789906D01*
X91026697Y-73805146D01*
X91185720Y-73885953D01*
X91337199Y-73986714D01*
X91479809Y-74105323D01*
X91612223Y-74239671D01*
X91733118Y-74387651D01*
X91841169Y-74547155D01*
X91935050Y-74716076D01*
X92013436Y-74892305D01*
X92075002Y-75073735D01*
X92118424Y-75258258D01*
X92142376Y-75443766D01*
X92145534Y-75628152D01*
X92145260Y-75633305D01*
X92143609Y-75664334D01*
G37*
G36*
X89282165Y-75924902D02*
G01*
X89280004Y-75956058D01*
X89266952Y-76022304D01*
X89243669Y-76100746D01*
X89211987Y-76186923D01*
X89173737Y-76276374D01*
X89130753Y-76364637D01*
X89084865Y-76447252D01*
X89037906Y-76519756D01*
X89023323Y-76539914D01*
X88904570Y-76681896D01*
X88769780Y-76808018D01*
X88621001Y-76916937D01*
X88460279Y-77007314D01*
X88289664Y-77077804D01*
X88111202Y-77127066D01*
X88052532Y-77137225D01*
X87940403Y-77147826D01*
X87820914Y-77149914D01*
X87703111Y-77143467D01*
X87596041Y-77128459D01*
X87581126Y-77125458D01*
X87406461Y-77077550D01*
X87237573Y-77007601D01*
X87075473Y-76916336D01*
X86921172Y-76804481D01*
X86775680Y-76672761D01*
X86640008Y-76521904D01*
X86515168Y-76352633D01*
X86475869Y-76291980D01*
X86364860Y-76095154D01*
X86276917Y-75895043D01*
X86212038Y-75691634D01*
X86170218Y-75484917D01*
X86151454Y-75274881D01*
X86151269Y-75269332D01*
X86151012Y-75239926D01*
X86283553Y-75239926D01*
X86284307Y-75288708D01*
X86294644Y-75438369D01*
X86318050Y-75581781D01*
X86355819Y-75724131D01*
X86409245Y-75870607D01*
X86479619Y-76026394D01*
X86526294Y-76116815D01*
X86632127Y-76291529D01*
X86750086Y-76449958D01*
X86879038Y-76591155D01*
X87017851Y-76714171D01*
X87165393Y-76818059D01*
X87320530Y-76901869D01*
X87482130Y-76964655D01*
X87649061Y-77005467D01*
X87744948Y-77017947D01*
X87906938Y-77020503D01*
X88069971Y-77000400D01*
X88232064Y-76957802D01*
X88300568Y-76933050D01*
X88464279Y-76857361D01*
X88614126Y-76763535D01*
X88749078Y-76652617D01*
X88868101Y-76525655D01*
X88970163Y-76383694D01*
X89054232Y-76227779D01*
X89119275Y-76058957D01*
X89127897Y-76030875D01*
X89144373Y-75967247D01*
X89149529Y-75921822D01*
X89142418Y-75892524D01*
X89122097Y-75877280D01*
X89087619Y-75874012D01*
X89038039Y-75880647D01*
X89009133Y-75885022D01*
X88940519Y-75890395D01*
X88860808Y-75891952D01*
X88777783Y-75889806D01*
X88699229Y-75884067D01*
X88632929Y-75874848D01*
X88622441Y-75872817D01*
X88447800Y-75826578D01*
X88274399Y-75757255D01*
X88102518Y-75665034D01*
X87932435Y-75550102D01*
X87764429Y-75412647D01*
X87598779Y-75252855D01*
X87435763Y-75070915D01*
X87362629Y-74986349D01*
X87276525Y-74895605D01*
X87195222Y-74821238D01*
X87115638Y-74760717D01*
X87034695Y-74711511D01*
X86949312Y-74671087D01*
X86948750Y-74670854D01*
X86907445Y-74655476D01*
X86868908Y-74646237D01*
X86824471Y-74641689D01*
X86765468Y-74640385D01*
X86742011Y-74640433D01*
X86692644Y-74642047D01*
X86655485Y-74646955D01*
X86622508Y-74656582D01*
X86585685Y-74672358D01*
X86496344Y-74724322D01*
X86418635Y-74794043D01*
X86356692Y-74880295D01*
X86309499Y-74984225D01*
X86301002Y-75009633D01*
X86293063Y-75040085D01*
X86287873Y-75073178D01*
X86284907Y-75114073D01*
X86283642Y-75167935D01*
X86283553Y-75239926D01*
X86151012Y-75239926D01*
X86150354Y-75164784D01*
X86155597Y-75077341D01*
X86167846Y-75001669D01*
X86187950Y-74932430D01*
X86216758Y-74864287D01*
X86257749Y-74790608D01*
X86330261Y-74696628D01*
X86415312Y-74620711D01*
X86510822Y-74563539D01*
X86614710Y-74525798D01*
X86724897Y-74508172D01*
X86839302Y-74511344D01*
X86955847Y-74535999D01*
X87072450Y-74582822D01*
X87102571Y-74598449D01*
X87165519Y-74635185D01*
X87226361Y-74677230D01*
X87287659Y-74726893D01*
X87351974Y-74786482D01*
X87421869Y-74858305D01*
X87499904Y-74944670D01*
X87588644Y-75047885D01*
X87714701Y-75186923D01*
X87859342Y-75324159D01*
X88009204Y-75444664D01*
X88162604Y-75547428D01*
X88317859Y-75631442D01*
X88473285Y-75695697D01*
X88627200Y-75739184D01*
X88777921Y-75760893D01*
X88800631Y-75762010D01*
X88865419Y-75762047D01*
X88938099Y-75758789D01*
X89008103Y-75752616D01*
X89140113Y-75737411D01*
X89192146Y-75767904D01*
X89241351Y-75808033D01*
X89271923Y-75860783D01*
X89281673Y-75921822D01*
X89282165Y-75924902D01*
G37*
G36*
X89997382Y-73055581D02*
G01*
X89983903Y-73168138D01*
X89948608Y-73282490D01*
X89890826Y-73396765D01*
X89857725Y-73447804D01*
X89781482Y-73546352D01*
X89688800Y-73643818D01*
X89576604Y-73743599D01*
X89561504Y-73756196D01*
X89387932Y-73911520D01*
X89236788Y-74067522D01*
X89108181Y-74224002D01*
X89002218Y-74380761D01*
X88919004Y-74537600D01*
X88858647Y-74694319D01*
X88821254Y-74850719D01*
X88806933Y-75006600D01*
X88815789Y-75161764D01*
X88820067Y-75196535D01*
X88824176Y-75247443D01*
X88823193Y-75284214D01*
X88817169Y-75312450D01*
X88795313Y-75354321D01*
X88756643Y-75396624D01*
X88711248Y-75425300D01*
X88688339Y-75430826D01*
X88637890Y-75430664D01*
X88573413Y-75420452D01*
X88498660Y-75401211D01*
X88417379Y-75373965D01*
X88333320Y-75339737D01*
X88250234Y-75299549D01*
X88245589Y-75297093D01*
X88088205Y-75200719D01*
X87946365Y-75087468D01*
X87821053Y-74958641D01*
X87713256Y-74815542D01*
X87623958Y-74659475D01*
X87554144Y-74491740D01*
X87504800Y-74313642D01*
X87495784Y-74257994D01*
X87488445Y-74177726D01*
X87484870Y-74089388D01*
X87484917Y-74075581D01*
X87616815Y-74075581D01*
X87620618Y-74181972D01*
X87632748Y-74277201D01*
X87638172Y-74304319D01*
X87684236Y-74467498D01*
X87750792Y-74621558D01*
X87836412Y-74764876D01*
X87939668Y-74895828D01*
X88059131Y-75012790D01*
X88193373Y-75114139D01*
X88340965Y-75198250D01*
X88500479Y-75263502D01*
X88532084Y-75273816D01*
X88595793Y-75291680D01*
X88641536Y-75298358D01*
X88671457Y-75293105D01*
X88687702Y-75275173D01*
X88692413Y-75243816D01*
X88687735Y-75198286D01*
X88682978Y-75162576D01*
X88677456Y-75076697D01*
X88677622Y-74982717D01*
X88683312Y-74890364D01*
X88694360Y-74809370D01*
X88734765Y-74652610D01*
X88797586Y-74491422D01*
X88881059Y-74330585D01*
X88983970Y-74171968D01*
X89105103Y-74017440D01*
X89243243Y-73868871D01*
X89397176Y-73728130D01*
X89475182Y-73661111D01*
X89569777Y-73575210D01*
X89647740Y-73497669D01*
X89710982Y-73426283D01*
X89761415Y-73358844D01*
X89800953Y-73293146D01*
X89831507Y-73226983D01*
X89843250Y-73193721D01*
X89852321Y-73153788D01*
X89857017Y-73106385D01*
X89858497Y-73043642D01*
X89858404Y-73008602D01*
X89856624Y-72961547D01*
X89851704Y-72926046D01*
X89842385Y-72894647D01*
X89827405Y-72859901D01*
X89786059Y-72791175D01*
X89720401Y-72720432D01*
X89639390Y-72662337D01*
X89546520Y-72619323D01*
X89445284Y-72593823D01*
X89437993Y-72592752D01*
X89331780Y-72585130D01*
X89211369Y-72589315D01*
X89081876Y-72604715D01*
X88948417Y-72630736D01*
X88816110Y-72666786D01*
X88815327Y-72667032D01*
X88731776Y-72697251D01*
X88636330Y-72738126D01*
X88535635Y-72786326D01*
X88436333Y-72838516D01*
X88345072Y-72891361D01*
X88268495Y-72941529D01*
X88261477Y-72946565D01*
X88167357Y-73020726D01*
X88072122Y-73106884D01*
X87981273Y-73199458D01*
X87900312Y-73292867D01*
X87834739Y-73381532D01*
X87795953Y-73442200D01*
X87738283Y-73545405D01*
X87692653Y-73648439D01*
X87654834Y-73760202D01*
X87651913Y-73770415D01*
X87632808Y-73861703D01*
X87620994Y-73966125D01*
X87616815Y-74075581D01*
X87484917Y-74075581D01*
X87485174Y-74000725D01*
X87489475Y-73919484D01*
X87497889Y-73853413D01*
X87538043Y-73693174D01*
X87603129Y-73525120D01*
X87690398Y-73363502D01*
X87799630Y-73208721D01*
X87930605Y-73061179D01*
X87993805Y-72999776D01*
X88160520Y-72860352D01*
X88340818Y-72739419D01*
X88533388Y-72637706D01*
X88736919Y-72555939D01*
X88950101Y-72494848D01*
X88951491Y-72494526D01*
X89006944Y-72482266D01*
X89054799Y-72473518D01*
X89101235Y-72467686D01*
X89152431Y-72464174D01*
X89214565Y-72462388D01*
X89293816Y-72461731D01*
X89349563Y-72461727D01*
X89415098Y-72462587D01*
X89464702Y-72464786D01*
X89502764Y-72468672D01*
X89533667Y-72474590D01*
X89561798Y-72482887D01*
X89657863Y-72522651D01*
X89761131Y-72585168D01*
X89846623Y-72660701D01*
X89913668Y-72747378D01*
X89961592Y-72843331D01*
X89989721Y-72946689D01*
X89996542Y-73043642D01*
X89997382Y-73055581D01*
G37*
%TO.C,X1*%
X134601000Y-133598600D02*
X134601000Y-138448600D01*
X134601000Y-138448600D02*
X170419000Y-138448600D01*
X170419000Y-133598600D02*
X134601000Y-133598600D01*
X170419000Y-138448600D02*
X170419000Y-133598600D01*
G36*
X170480500Y-136773170D02*
G01*
X169281188Y-136023600D01*
X170480500Y-135274030D01*
X170480500Y-136773170D01*
G37*
%TD*%
M02*
