%TF.GenerationSoftware,KiCad,Pcbnew,7.0.10-7.0.10~ubuntu22.04.1*%
%TF.CreationDate,2024-01-07T19:37:02+01:00*%
%TF.ProjectId,EEZ DIB AFE3,45455a20-4449-4422-9041-4645332e6b69,rev?*%
%TF.SameCoordinates,Original*%
%TF.FileFunction,Drillmap*%
%TF.FilePolarity,Positive*%
%FSLAX45Y45*%
G04 Gerber Fmt 4.5, Leading zero omitted, Abs format (unit mm)*
G04 Created by KiCad (PCBNEW 7.0.10-7.0.10~ubuntu22.04.1) date 2024-01-07 19:37:02*
%MOMM*%
%LPD*%
G01*
G04 APERTURE LIST*
%ADD10C,0.101600*%
%ADD11C,0.100000*%
%ADD12C,0.200000*%
%ADD13C,0.130000*%
%ADD14C,0.140000*%
%ADD15C,0.150000*%
G04 APERTURE END LIST*
D10*
X9248470Y-11162170D02*
X9303080Y-11107560D01*
D11*
X8540110Y-7075360D02*
G75*
G03*
X8400110Y-7215360I0J-140000D01*
G01*
D10*
X11910390Y-8619630D02*
X10580700Y-8619630D01*
X8654110Y-12684900D02*
X8654110Y-12786500D01*
X9248470Y-11162170D02*
X8655380Y-11162170D01*
X9238310Y-12684900D02*
X8654110Y-12684900D01*
X12125020Y-9059050D02*
X12125020Y-8689480D01*
X12023420Y-8732660D02*
X11910390Y-8619630D01*
X13166420Y-11686680D02*
X13221030Y-11632070D01*
X10875340Y-13190360D02*
X10291140Y-13190360D01*
X9303080Y-9911220D02*
X9404680Y-9911220D01*
X13064820Y-13495160D02*
X13064820Y-11643500D01*
D11*
X8540110Y-7075360D02*
X21160110Y-7075360D01*
D10*
X12951790Y-9782950D02*
X12828600Y-9782950D01*
D11*
X21300110Y-7215360D02*
X21300110Y-13785360D01*
D10*
X10875340Y-13291960D02*
X10291140Y-13291960D01*
X9291650Y-11263770D02*
X9404680Y-11150740D01*
D11*
X21300110Y-7215360D02*
G75*
G03*
X21160110Y-7075360I-140000J0D01*
G01*
D10*
X8654110Y-11924170D02*
X8654110Y-12025770D01*
X9238310Y-12025770D02*
X8654110Y-12025770D01*
X9238310Y-12786500D02*
X8654110Y-12786500D01*
X12125020Y-8689480D02*
X11953570Y-8518030D01*
X9238310Y-12684900D02*
X9238310Y-12786500D01*
X13853490Y-11110100D02*
X13853490Y-11211700D01*
X13166420Y-13495160D02*
X13064820Y-13495160D01*
X10875340Y-13190360D02*
X10875340Y-13291960D01*
X12023420Y-9059050D02*
X12023420Y-8732660D01*
X13221030Y-11110100D02*
X13166420Y-11055490D01*
X9291650Y-11263770D02*
X8655380Y-11263770D01*
D11*
X8540110Y-13925360D02*
X21160110Y-13925360D01*
D10*
X9238310Y-11924170D02*
X9238310Y-12025770D01*
X13221030Y-11632070D02*
X13853490Y-11632070D01*
X12994970Y-9681350D02*
X12828600Y-9681350D01*
X9404680Y-9911220D02*
X9404680Y-11150740D01*
D11*
X21160110Y-13925360D02*
G75*
G03*
X21300110Y-13785360I0J140000D01*
G01*
D10*
X13853490Y-11632070D02*
X13853490Y-11530470D01*
X13064820Y-11643500D02*
X13177850Y-11530470D01*
X13177850Y-11530470D02*
X13853490Y-11530470D01*
X10291140Y-13190360D02*
X10291140Y-13291960D01*
X13064820Y-11098670D02*
X13064820Y-9895980D01*
X13853490Y-11211700D02*
X13177850Y-11211700D01*
X9303080Y-9911220D02*
X9303080Y-11107560D01*
X13166420Y-11055490D02*
X13166420Y-9852800D01*
X13177850Y-11211700D02*
X13064820Y-11098670D01*
X12828600Y-9681350D02*
X12828600Y-9782950D01*
X13166420Y-9852800D02*
X12994970Y-9681350D01*
X11953570Y-8518030D02*
X10580700Y-8518030D01*
D11*
X8400110Y-7215360D02*
X8400110Y-13785360D01*
D10*
X13853490Y-11110100D02*
X13221030Y-11110100D01*
D11*
X8400110Y-13785360D02*
G75*
G03*
X8540110Y-13925360I140000J0D01*
G01*
D10*
X8655380Y-11162170D02*
X8655380Y-11263770D01*
X13166420Y-13495160D02*
X13166420Y-11686680D01*
X12023420Y-9059050D02*
X12125020Y-9059050D01*
X10580700Y-8518030D02*
X10580700Y-8619630D01*
X9238310Y-11924170D02*
X8654110Y-11924170D01*
X13064820Y-9895980D02*
X12951790Y-9782950D01*
D12*
D11*
X16825200Y-9275050D02*
X16855200Y-9305050D01*
X16855200Y-9275050D02*
X16825200Y-9305050D01*
X21024100Y-11822950D02*
X21054100Y-11852950D01*
X21054100Y-11822950D02*
X21024100Y-11852950D01*
X21105100Y-11942050D02*
X21135100Y-11972050D01*
X21135100Y-11942050D02*
X21105100Y-11972050D01*
X8550920Y-10847210D02*
G75*
G03*
X8510920Y-10847210I-20000J0D01*
G01*
X8510920Y-10847210D02*
G75*
G03*
X8550920Y-10847210I20000J0D01*
G01*
X8550920Y-10928490D02*
G75*
G03*
X8510920Y-10928490I-20000J0D01*
G01*
X8510920Y-10928490D02*
G75*
G03*
X8550920Y-10928490I20000J0D01*
G01*
X8550920Y-11009770D02*
G75*
G03*
X8510920Y-11009770I-20000J0D01*
G01*
X8510920Y-11009770D02*
G75*
G03*
X8550920Y-11009770I20000J0D01*
G01*
X8632200Y-10847210D02*
G75*
G03*
X8592200Y-10847210I-20000J0D01*
G01*
X8592200Y-10847210D02*
G75*
G03*
X8632200Y-10847210I20000J0D01*
G01*
X8632200Y-10928490D02*
G75*
G03*
X8592200Y-10928490I-20000J0D01*
G01*
X8592200Y-10928490D02*
G75*
G03*
X8632200Y-10928490I20000J0D01*
G01*
X8632200Y-11009770D02*
G75*
G03*
X8592200Y-11009770I-20000J0D01*
G01*
X8592200Y-11009770D02*
G75*
G03*
X8632200Y-11009770I20000J0D01*
G01*
X10910580Y-10840860D02*
G75*
G03*
X10870580Y-10840860I-20000J0D01*
G01*
X10870580Y-10840860D02*
G75*
G03*
X10910580Y-10840860I20000J0D01*
G01*
X10910580Y-10920870D02*
G75*
G03*
X10870580Y-10920870I-20000J0D01*
G01*
X10870580Y-10920870D02*
G75*
G03*
X10910580Y-10920870I20000J0D01*
G01*
X10981700Y-11430140D02*
G75*
G03*
X10941700Y-11430140I-20000J0D01*
G01*
X10941700Y-11430140D02*
G75*
G03*
X10981700Y-11430140I20000J0D01*
G01*
X10981700Y-11508880D02*
G75*
G03*
X10941700Y-11508880I-20000J0D01*
G01*
X10941700Y-11508880D02*
G75*
G03*
X10981700Y-11508880I20000J0D01*
G01*
X10981700Y-11588890D02*
G75*
G03*
X10941700Y-11588890I-20000J0D01*
G01*
X10941700Y-11588890D02*
G75*
G03*
X10981700Y-11588890I20000J0D01*
G01*
X10990590Y-10840860D02*
G75*
G03*
X10950590Y-10840860I-20000J0D01*
G01*
X10950590Y-10840860D02*
G75*
G03*
X10990590Y-10840860I20000J0D01*
G01*
X10990590Y-10920870D02*
G75*
G03*
X10950590Y-10920870I-20000J0D01*
G01*
X10950590Y-10920870D02*
G75*
G03*
X10990590Y-10920870I20000J0D01*
G01*
X11061710Y-11430140D02*
G75*
G03*
X11021710Y-11430140I-20000J0D01*
G01*
X11021710Y-11430140D02*
G75*
G03*
X11061710Y-11430140I20000J0D01*
G01*
X11061710Y-11508880D02*
G75*
G03*
X11021710Y-11508880I-20000J0D01*
G01*
X11021710Y-11508880D02*
G75*
G03*
X11061710Y-11508880I20000J0D01*
G01*
X11061710Y-11588890D02*
G75*
G03*
X11021710Y-11588890I-20000J0D01*
G01*
X11021710Y-11588890D02*
G75*
G03*
X11061710Y-11588890I20000J0D01*
G01*
X11071870Y-10840860D02*
G75*
G03*
X11031870Y-10840860I-20000J0D01*
G01*
X11031870Y-10840860D02*
G75*
G03*
X11071870Y-10840860I20000J0D01*
G01*
X11071870Y-10920870D02*
G75*
G03*
X11031870Y-10920870I-20000J0D01*
G01*
X11031870Y-10920870D02*
G75*
G03*
X11071870Y-10920870I20000J0D01*
G01*
X11141720Y-9921380D02*
G75*
G03*
X11101720Y-9921380I-20000J0D01*
G01*
X11101720Y-9921380D02*
G75*
G03*
X11141720Y-9921380I20000J0D01*
G01*
X11149340Y-10428110D02*
G75*
G03*
X11109340Y-10428110I-20000J0D01*
G01*
X11109340Y-10428110D02*
G75*
G03*
X11149340Y-10428110I20000J0D01*
G01*
X11149340Y-10508120D02*
G75*
G03*
X11109340Y-10508120I-20000J0D01*
G01*
X11109340Y-10508120D02*
G75*
G03*
X11149340Y-10508120I20000J0D01*
G01*
X11224270Y-9921380D02*
G75*
G03*
X11184270Y-9921380I-20000J0D01*
G01*
X11184270Y-9921380D02*
G75*
G03*
X11224270Y-9921380I20000J0D01*
G01*
X11229350Y-10428110D02*
G75*
G03*
X11189350Y-10428110I-20000J0D01*
G01*
X11189350Y-10428110D02*
G75*
G03*
X11229350Y-10428110I20000J0D01*
G01*
X11229350Y-10508120D02*
G75*
G03*
X11189350Y-10508120I-20000J0D01*
G01*
X11189350Y-10508120D02*
G75*
G03*
X11229350Y-10508120I20000J0D01*
G01*
X11305550Y-9921380D02*
G75*
G03*
X11265550Y-9921380I-20000J0D01*
G01*
X11265550Y-9921380D02*
G75*
G03*
X11305550Y-9921380I20000J0D01*
G01*
X11309360Y-10428110D02*
G75*
G03*
X11269360Y-10428110I-20000J0D01*
G01*
X11269360Y-10428110D02*
G75*
G03*
X11309360Y-10428110I20000J0D01*
G01*
X11309360Y-10508120D02*
G75*
G03*
X11269360Y-10508120I-20000J0D01*
G01*
X11269360Y-10508120D02*
G75*
G03*
X11309360Y-10508120I20000J0D01*
G01*
X11388100Y-9921380D02*
G75*
G03*
X11348100Y-9921380I-20000J0D01*
G01*
X11348100Y-9921380D02*
G75*
G03*
X11388100Y-9921380I20000J0D01*
G01*
X11389370Y-10428110D02*
G75*
G03*
X11349370Y-10428110I-20000J0D01*
G01*
X11349370Y-10428110D02*
G75*
G03*
X11389370Y-10428110I20000J0D01*
G01*
X11389370Y-10508120D02*
G75*
G03*
X11349370Y-10508120I-20000J0D01*
G01*
X11349370Y-10508120D02*
G75*
G03*
X11389370Y-10508120I20000J0D01*
G01*
X11480810Y-11431410D02*
G75*
G03*
X11440810Y-11431410I-20000J0D01*
G01*
X11440810Y-11431410D02*
G75*
G03*
X11480810Y-11431410I20000J0D01*
G01*
X11480810Y-11507610D02*
G75*
G03*
X11440810Y-11507610I-20000J0D01*
G01*
X11440810Y-11507610D02*
G75*
G03*
X11480810Y-11507610I20000J0D01*
G01*
X11480810Y-11583810D02*
G75*
G03*
X11440810Y-11583810I-20000J0D01*
G01*
X11440810Y-11583810D02*
G75*
G03*
X11480810Y-11583810I20000J0D01*
G01*
X11557010Y-11431410D02*
G75*
G03*
X11517010Y-11431410I-20000J0D01*
G01*
X11517010Y-11431410D02*
G75*
G03*
X11557010Y-11431410I20000J0D01*
G01*
X11557010Y-11507610D02*
G75*
G03*
X11517010Y-11507610I-20000J0D01*
G01*
X11517010Y-11507610D02*
G75*
G03*
X11557010Y-11507610I20000J0D01*
G01*
X11557010Y-11583810D02*
G75*
G03*
X11517010Y-11583810I-20000J0D01*
G01*
X11517010Y-11583810D02*
G75*
G03*
X11557010Y-11583810I20000J0D01*
G01*
X11610350Y-10028060D02*
G75*
G03*
X11570350Y-10028060I-20000J0D01*
G01*
X11570350Y-10028060D02*
G75*
G03*
X11610350Y-10028060I20000J0D01*
G01*
X11901180Y-11111370D02*
G75*
G03*
X11861180Y-11111370I-20000J0D01*
G01*
X11861180Y-11111370D02*
G75*
G03*
X11901180Y-11111370I20000J0D01*
G01*
X12068820Y-13248780D02*
G75*
G03*
X12028820Y-13248780I-20000J0D01*
G01*
X12028820Y-13248780D02*
G75*
G03*
X12068820Y-13248780I20000J0D01*
G01*
X12128810Y-12636940D02*
G75*
G03*
X12088810Y-12636940I-20000J0D01*
G01*
X12088810Y-12636940D02*
G75*
G03*
X12128810Y-12636940I20000J0D01*
G01*
X12160260Y-10858640D02*
G75*
G03*
X12120260Y-10858640I-20000J0D01*
G01*
X12120260Y-10858640D02*
G75*
G03*
X12160260Y-10858640I20000J0D01*
G01*
X12166610Y-11972430D02*
G75*
G03*
X12126610Y-11972430I-20000J0D01*
G01*
X12126610Y-11972430D02*
G75*
G03*
X12166610Y-11972430I20000J0D01*
G01*
X12353300Y-10311270D02*
G75*
G03*
X12313300Y-10311270I-20000J0D01*
G01*
X12313300Y-10311270D02*
G75*
G03*
X12353300Y-10311270I20000J0D01*
G01*
X12870190Y-11289170D02*
G75*
G03*
X12830190Y-11289170I-20000J0D01*
G01*
X12830190Y-11289170D02*
G75*
G03*
X12870190Y-11289170I20000J0D01*
G01*
X12880350Y-7535050D02*
G75*
G03*
X12840350Y-7535050I-20000J0D01*
G01*
X12840350Y-7535050D02*
G75*
G03*
X12880350Y-7535050I20000J0D01*
G01*
X12960360Y-7453770D02*
G75*
G03*
X12920360Y-7453770I-20000J0D01*
G01*
X12920360Y-7453770D02*
G75*
G03*
X12960360Y-7453770I20000J0D01*
G01*
X13105140Y-8665350D02*
G75*
G03*
X13065140Y-8665350I-20000J0D01*
G01*
X13065140Y-8665350D02*
G75*
G03*
X13105140Y-8665350I20000J0D01*
G01*
X13227060Y-7265810D02*
G75*
G03*
X13187060Y-7265810I-20000J0D01*
G01*
X13187060Y-7265810D02*
G75*
G03*
X13227060Y-7265810I20000J0D01*
G01*
X13307070Y-7265810D02*
G75*
G03*
X13267070Y-7265810I-20000J0D01*
G01*
X13267070Y-7265810D02*
G75*
G03*
X13307070Y-7265810I20000J0D01*
G01*
X13387080Y-7265810D02*
G75*
G03*
X13347080Y-7265810I-20000J0D01*
G01*
X13347080Y-7265810D02*
G75*
G03*
X13387080Y-7265810I20000J0D01*
G01*
X13568690Y-12968110D02*
G75*
G03*
X13528690Y-12968110I-20000J0D01*
G01*
X13528690Y-12968110D02*
G75*
G03*
X13568690Y-12968110I20000J0D01*
G01*
X13624570Y-12001640D02*
G75*
G03*
X13584570Y-12001640I-20000J0D01*
G01*
X13584570Y-12001640D02*
G75*
G03*
X13624570Y-12001640I20000J0D01*
G01*
X13659800Y-11864480D02*
G75*
G03*
X13619800Y-11864480I-20000J0D01*
G01*
X13619800Y-11864480D02*
G75*
G03*
X13659800Y-11864480I20000J0D01*
G01*
X13714740Y-12880480D02*
G75*
G03*
X13674740Y-12880480I-20000J0D01*
G01*
X13674740Y-12880480D02*
G75*
G03*
X13714740Y-12880480I20000J0D01*
G01*
X13826500Y-10704970D02*
G75*
G03*
X13786500Y-10704970I-20000J0D01*
G01*
X13786500Y-10704970D02*
G75*
G03*
X13826500Y-10704970I20000J0D01*
G01*
X13837930Y-10321430D02*
G75*
G03*
X13797930Y-10321430I-20000J0D01*
G01*
X13797930Y-10321430D02*
G75*
G03*
X13837930Y-10321430I20000J0D01*
G01*
X13863000Y-10972800D02*
G75*
G03*
X13823000Y-10972800I-20000J0D01*
G01*
X13823000Y-10972800D02*
G75*
G03*
X13863000Y-10972800I20000J0D01*
G01*
X13892540Y-12580760D02*
G75*
G03*
X13852540Y-12580760I-20000J0D01*
G01*
X13852540Y-12580760D02*
G75*
G03*
X13892540Y-12580760I20000J0D01*
G01*
X13901430Y-10804030D02*
G75*
G03*
X13861430Y-10804030I-20000J0D01*
G01*
X13861430Y-10804030D02*
G75*
G03*
X13901430Y-10804030I20000J0D01*
G01*
X13944610Y-10310000D02*
G75*
G03*
X13904610Y-10310000I-20000J0D01*
G01*
X13904610Y-10310000D02*
G75*
G03*
X13944610Y-10310000I20000J0D01*
G01*
X14009380Y-12175630D02*
G75*
G03*
X13969380Y-12175630I-20000J0D01*
G01*
X13969380Y-12175630D02*
G75*
G03*
X14009380Y-12175630I20000J0D01*
G01*
X14042400Y-11450460D02*
G75*
G03*
X14002400Y-11450460I-20000J0D01*
G01*
X14002400Y-11450460D02*
G75*
G03*
X14042400Y-11450460I20000J0D01*
G01*
X14085250Y-12001500D02*
G75*
G03*
X14045250Y-12001500I-20000J0D01*
G01*
X14045250Y-12001500D02*
G75*
G03*
X14085250Y-12001500I20000J0D01*
G01*
X14142400Y-10953750D02*
G75*
G03*
X14102400Y-10953750I-20000J0D01*
G01*
X14102400Y-10953750D02*
G75*
G03*
X14142400Y-10953750I20000J0D01*
G01*
X14258300Y-12523610D02*
G75*
G03*
X14218300Y-12523610I-20000J0D01*
G01*
X14218300Y-12523610D02*
G75*
G03*
X14258300Y-12523610I20000J0D01*
G01*
X14259570Y-12422010D02*
G75*
G03*
X14219570Y-12422010I-20000J0D01*
G01*
X14219570Y-12422010D02*
G75*
G03*
X14259570Y-12422010I20000J0D01*
G01*
X14277350Y-7913510D02*
G75*
G03*
X14237350Y-7913510I-20000J0D01*
G01*
X14237350Y-7913510D02*
G75*
G03*
X14277350Y-7913510I20000J0D01*
G01*
X14338310Y-9601340D02*
G75*
G03*
X14298310Y-9601340I-20000J0D01*
G01*
X14298310Y-9601340D02*
G75*
G03*
X14338310Y-9601340I20000J0D01*
G01*
X14354820Y-7984630D02*
G75*
G03*
X14314820Y-7984630I-20000J0D01*
G01*
X14314820Y-7984630D02*
G75*
G03*
X14354820Y-7984630I20000J0D01*
G01*
X14364980Y-12041010D02*
G75*
G03*
X14324980Y-12041010I-20000J0D01*
G01*
X14324980Y-12041010D02*
G75*
G03*
X14364980Y-12041010I20000J0D01*
G01*
X14441180Y-10237610D02*
G75*
G03*
X14401180Y-10237610I-20000J0D01*
G01*
X14401180Y-10237610D02*
G75*
G03*
X14441180Y-10237610I20000J0D01*
G01*
X14536430Y-9711830D02*
G75*
G03*
X14496430Y-9711830I-20000J0D01*
G01*
X14496430Y-9711830D02*
G75*
G03*
X14536430Y-9711830I20000J0D01*
G01*
X14629140Y-8170050D02*
G75*
G03*
X14589140Y-8170050I-20000J0D01*
G01*
X14589140Y-8170050D02*
G75*
G03*
X14629140Y-8170050I20000J0D01*
G01*
X14677620Y-10259200D02*
G75*
G03*
X14637620Y-10259200I-20000J0D01*
G01*
X14637620Y-10259200D02*
G75*
G03*
X14677620Y-10259200I20000J0D01*
G01*
X14698990Y-9200020D02*
G75*
G03*
X14658990Y-9200020I-20000J0D01*
G01*
X14658990Y-9200020D02*
G75*
G03*
X14698990Y-9200020I20000J0D01*
G01*
X14709150Y-8073530D02*
G75*
G03*
X14669150Y-8073530I-20000J0D01*
G01*
X14669150Y-8073530D02*
G75*
G03*
X14709150Y-8073530I20000J0D01*
G01*
X14752000Y-10541000D02*
G75*
G03*
X14712000Y-10541000I-20000J0D01*
G01*
X14712000Y-10541000D02*
G75*
G03*
X14752000Y-10541000I20000J0D01*
G01*
X14798050Y-10091560D02*
G75*
G03*
X14758050Y-10091560I-20000J0D01*
G01*
X14758050Y-10091560D02*
G75*
G03*
X14798050Y-10091560I20000J0D01*
G01*
X14851390Y-9456560D02*
G75*
G03*
X14811390Y-9456560I-20000J0D01*
G01*
X14811390Y-9456560D02*
G75*
G03*
X14851390Y-9456560I20000J0D01*
G01*
X14871710Y-10433050D02*
G75*
G03*
X14831710Y-10433050I-20000J0D01*
G01*
X14831710Y-10433050D02*
G75*
G03*
X14871710Y-10433050I20000J0D01*
G01*
X15128250Y-10362070D02*
G75*
G03*
X15088250Y-10362070I-20000J0D01*
G01*
X15088250Y-10362070D02*
G75*
G03*
X15128250Y-10362070I20000J0D01*
G01*
X15307320Y-9921380D02*
G75*
G03*
X15267320Y-9921380I-20000J0D01*
G01*
X15267320Y-9921380D02*
G75*
G03*
X15307320Y-9921380I20000J0D01*
G01*
X15323830Y-8979040D02*
G75*
G03*
X15283830Y-8979040I-20000J0D01*
G01*
X15283830Y-8979040D02*
G75*
G03*
X15323830Y-8979040I20000J0D01*
G01*
X15388600Y-9921380D02*
G75*
G03*
X15348600Y-9921380I-20000J0D01*
G01*
X15348600Y-9921380D02*
G75*
G03*
X15388600Y-9921380I20000J0D01*
G01*
X15430510Y-12889370D02*
G75*
G03*
X15390510Y-12889370I-20000J0D01*
G01*
X15390510Y-12889370D02*
G75*
G03*
X15430510Y-12889370I20000J0D01*
G01*
X15471150Y-8335150D02*
G75*
G03*
X15431150Y-8335150I-20000J0D01*
G01*
X15431150Y-8335150D02*
G75*
G03*
X15471150Y-8335150I20000J0D01*
G01*
X15524490Y-10632580D02*
G75*
G03*
X15484490Y-10632580I-20000J0D01*
G01*
X15484490Y-10632580D02*
G75*
G03*
X15524490Y-10632580I20000J0D01*
G01*
X15530840Y-10487800D02*
G75*
G03*
X15490840Y-10487800I-20000J0D01*
G01*
X15490840Y-10487800D02*
G75*
G03*
X15530840Y-10487800I20000J0D01*
G01*
X15535920Y-8238630D02*
G75*
G03*
X15495920Y-8238630I-20000J0D01*
G01*
X15495920Y-8238630D02*
G75*
G03*
X15535920Y-8238630I20000J0D01*
G01*
X15608310Y-11953380D02*
G75*
G03*
X15568310Y-11953380I-20000J0D01*
G01*
X15568310Y-11953380D02*
G75*
G03*
X15608310Y-11953380I20000J0D01*
G01*
X15638790Y-8352930D02*
G75*
G03*
X15598790Y-8352930I-20000J0D01*
G01*
X15598790Y-8352930D02*
G75*
G03*
X15638790Y-8352930I20000J0D01*
G01*
X15786110Y-10091560D02*
G75*
G03*
X15746110Y-10091560I-20000J0D01*
G01*
X15746110Y-10091560D02*
G75*
G03*
X15786110Y-10091560I20000J0D01*
G01*
X15786110Y-12870320D02*
G75*
G03*
X15746110Y-12870320I-20000J0D01*
G01*
X15746110Y-12870320D02*
G75*
G03*
X15786110Y-12870320I20000J0D01*
G01*
X15786110Y-13302120D02*
G75*
G03*
X15746110Y-13302120I-20000J0D01*
G01*
X15746110Y-13302120D02*
G75*
G03*
X15786110Y-13302120I20000J0D01*
G01*
X15845800Y-9213990D02*
G75*
G03*
X15805800Y-9213990I-20000J0D01*
G01*
X15805800Y-9213990D02*
G75*
G03*
X15845800Y-9213990I20000J0D01*
G01*
X15939780Y-8505330D02*
G75*
G03*
X15899780Y-8505330I-20000J0D01*
G01*
X15899780Y-8505330D02*
G75*
G03*
X15939780Y-8505330I20000J0D01*
G01*
X15939780Y-8580260D02*
G75*
G03*
X15899780Y-8580260I-20000J0D01*
G01*
X15899780Y-8580260D02*
G75*
G03*
X15939780Y-8580260I20000J0D01*
G01*
X15939780Y-8655190D02*
G75*
G03*
X15899780Y-8655190I-20000J0D01*
G01*
X15899780Y-8655190D02*
G75*
G03*
X15939780Y-8655190I20000J0D01*
G01*
X15939780Y-8730120D02*
G75*
G03*
X15899780Y-8730120I-20000J0D01*
G01*
X15899780Y-8730120D02*
G75*
G03*
X15939780Y-8730120I20000J0D01*
G01*
X15939780Y-8805050D02*
G75*
G03*
X15899780Y-8805050I-20000J0D01*
G01*
X15899780Y-8805050D02*
G75*
G03*
X15939780Y-8805050I20000J0D01*
G01*
X15949940Y-12096890D02*
G75*
G03*
X15909940Y-12096890I-20000J0D01*
G01*
X15909940Y-12096890D02*
G75*
G03*
X15949940Y-12096890I20000J0D01*
G01*
X15949940Y-12880480D02*
G75*
G03*
X15909940Y-12880480I-20000J0D01*
G01*
X15909940Y-12880480D02*
G75*
G03*
X15949940Y-12880480I20000J0D01*
G01*
X16019790Y-8505330D02*
G75*
G03*
X15979790Y-8505330I-20000J0D01*
G01*
X15979790Y-8505330D02*
G75*
G03*
X16019790Y-8505330I20000J0D01*
G01*
X16019790Y-8580260D02*
G75*
G03*
X15979790Y-8580260I-20000J0D01*
G01*
X15979790Y-8580260D02*
G75*
G03*
X16019790Y-8580260I20000J0D01*
G01*
X16019790Y-8653920D02*
G75*
G03*
X15979790Y-8653920I-20000J0D01*
G01*
X15979790Y-8653920D02*
G75*
G03*
X16019790Y-8653920I20000J0D01*
G01*
X16019790Y-8731390D02*
G75*
G03*
X15979790Y-8731390I-20000J0D01*
G01*
X15979790Y-8731390D02*
G75*
G03*
X16019790Y-8731390I20000J0D01*
G01*
X16019790Y-8805050D02*
G75*
G03*
X15979790Y-8805050I-20000J0D01*
G01*
X15979790Y-8805050D02*
G75*
G03*
X16019790Y-8805050I20000J0D01*
G01*
X16049000Y-11722240D02*
G75*
G03*
X16009000Y-11722240I-20000J0D01*
G01*
X16009000Y-11722240D02*
G75*
G03*
X16049000Y-11722240I20000J0D01*
G01*
X16285220Y-10214750D02*
G75*
G03*
X16245220Y-10214750I-20000J0D01*
G01*
X16245220Y-10214750D02*
G75*
G03*
X16285220Y-10214750I20000J0D01*
G01*
X16286490Y-9476880D02*
G75*
G03*
X16246490Y-9476880I-20000J0D01*
G01*
X16246490Y-9476880D02*
G75*
G03*
X16286490Y-9476880I20000J0D01*
G01*
X16291570Y-11085970D02*
G75*
G03*
X16251570Y-11085970I-20000J0D01*
G01*
X16251570Y-11085970D02*
G75*
G03*
X16291570Y-11085970I20000J0D01*
G01*
X16408410Y-8756790D02*
G75*
G03*
X16368410Y-8756790I-20000J0D01*
G01*
X16368410Y-8756790D02*
G75*
G03*
X16408410Y-8756790I20000J0D01*
G01*
X16408410Y-8836800D02*
G75*
G03*
X16368410Y-8836800I-20000J0D01*
G01*
X16368410Y-8836800D02*
G75*
G03*
X16408410Y-8836800I20000J0D01*
G01*
X16408410Y-8916810D02*
G75*
G03*
X16368410Y-8916810I-20000J0D01*
G01*
X16368410Y-8916810D02*
G75*
G03*
X16408410Y-8916810I20000J0D01*
G01*
X16408410Y-8995550D02*
G75*
G03*
X16368410Y-8995550I-20000J0D01*
G01*
X16368410Y-8995550D02*
G75*
G03*
X16408410Y-8995550I20000J0D01*
G01*
X16488420Y-8756790D02*
G75*
G03*
X16448420Y-8756790I-20000J0D01*
G01*
X16448420Y-8756790D02*
G75*
G03*
X16488420Y-8756790I20000J0D01*
G01*
X16488420Y-8835530D02*
G75*
G03*
X16448420Y-8835530I-20000J0D01*
G01*
X16448420Y-8835530D02*
G75*
G03*
X16488420Y-8835530I20000J0D01*
G01*
X16488420Y-8915540D02*
G75*
G03*
X16448420Y-8915540I-20000J0D01*
G01*
X16448420Y-8915540D02*
G75*
G03*
X16488420Y-8915540I20000J0D01*
G01*
X16488420Y-8995550D02*
G75*
G03*
X16448420Y-8995550I-20000J0D01*
G01*
X16448420Y-8995550D02*
G75*
G03*
X16488420Y-8995550I20000J0D01*
G01*
X16568430Y-8756790D02*
G75*
G03*
X16528430Y-8756790I-20000J0D01*
G01*
X16528430Y-8756790D02*
G75*
G03*
X16568430Y-8756790I20000J0D01*
G01*
X16568430Y-8835530D02*
G75*
G03*
X16528430Y-8835530I-20000J0D01*
G01*
X16528430Y-8835530D02*
G75*
G03*
X16568430Y-8835530I20000J0D01*
G01*
X16568430Y-8915540D02*
G75*
G03*
X16528430Y-8915540I-20000J0D01*
G01*
X16528430Y-8915540D02*
G75*
G03*
X16568430Y-8915540I20000J0D01*
G01*
X16568430Y-8995550D02*
G75*
G03*
X16528430Y-8995550I-20000J0D01*
G01*
X16528430Y-8995550D02*
G75*
G03*
X16568430Y-8995550I20000J0D01*
G01*
X16595100Y-7795400D02*
G75*
G03*
X16555100Y-7795400I-20000J0D01*
G01*
X16555100Y-7795400D02*
G75*
G03*
X16595100Y-7795400I20000J0D01*
G01*
X16616690Y-9589910D02*
G75*
G03*
X16576690Y-9589910I-20000J0D01*
G01*
X16576690Y-9589910D02*
G75*
G03*
X16616690Y-9589910I20000J0D01*
G01*
X16657330Y-7877950D02*
G75*
G03*
X16617330Y-7877950I-20000J0D01*
G01*
X16617330Y-7877950D02*
G75*
G03*
X16657330Y-7877950I20000J0D01*
G01*
X16675110Y-10250310D02*
G75*
G03*
X16635110Y-10250310I-20000J0D01*
G01*
X16635110Y-10250310D02*
G75*
G03*
X16675110Y-10250310I20000J0D01*
G01*
X16767820Y-11731130D02*
G75*
G03*
X16727820Y-11731130I-20000J0D01*
G01*
X16727820Y-11731130D02*
G75*
G03*
X16767820Y-11731130I20000J0D01*
G01*
X16800840Y-10593210D02*
G75*
G03*
X16760840Y-10593210I-20000J0D01*
G01*
X16760840Y-10593210D02*
G75*
G03*
X16800840Y-10593210I20000J0D01*
G01*
X16800840Y-10852290D02*
G75*
G03*
X16760840Y-10852290I-20000J0D01*
G01*
X16760840Y-10852290D02*
G75*
G03*
X16800840Y-10852290I20000J0D01*
G01*
X16924030Y-9476880D02*
G75*
G03*
X16884030Y-9476880I-20000J0D01*
G01*
X16884030Y-9476880D02*
G75*
G03*
X16924030Y-9476880I20000J0D01*
G01*
X16927840Y-10091560D02*
G75*
G03*
X16887840Y-10091560I-20000J0D01*
G01*
X16887840Y-10091560D02*
G75*
G03*
X16927840Y-10091560I20000J0D01*
G01*
X16927840Y-11070730D02*
G75*
G03*
X16887840Y-11070730I-20000J0D01*
G01*
X16887840Y-11070730D02*
G75*
G03*
X16927840Y-11070730I20000J0D01*
G01*
X17026900Y-12465190D02*
G75*
G03*
X16986900Y-12465190I-20000J0D01*
G01*
X16986900Y-12465190D02*
G75*
G03*
X17026900Y-12465190I20000J0D01*
G01*
X17061190Y-12607430D02*
G75*
G03*
X17021190Y-12607430I-20000J0D01*
G01*
X17021190Y-12607430D02*
G75*
G03*
X17061190Y-12607430I20000J0D01*
G01*
X17092305Y-10672585D02*
G75*
G03*
X17052305Y-10672585I-20000J0D01*
G01*
X17052305Y-10672585D02*
G75*
G03*
X17092305Y-10672585I20000J0D01*
G01*
X17117070Y-10195700D02*
G75*
G03*
X17077070Y-10195700I-20000J0D01*
G01*
X17077070Y-10195700D02*
G75*
G03*
X17117070Y-10195700I20000J0D01*
G01*
X17188190Y-11694300D02*
G75*
G03*
X17148190Y-11694300I-20000J0D01*
G01*
X17148190Y-11694300D02*
G75*
G03*
X17188190Y-11694300I20000J0D01*
G01*
X17197080Y-11919090D02*
G75*
G03*
X17157080Y-11919090I-20000J0D01*
G01*
X17157080Y-11919090D02*
G75*
G03*
X17197080Y-11919090I20000J0D01*
G01*
X17217400Y-9893440D02*
G75*
G03*
X17177400Y-9893440I-20000J0D01*
G01*
X17177400Y-9893440D02*
G75*
G03*
X17217400Y-9893440I20000J0D01*
G01*
X17358370Y-12526150D02*
G75*
G03*
X17318370Y-12526150I-20000J0D01*
G01*
X17318370Y-12526150D02*
G75*
G03*
X17358370Y-12526150I20000J0D01*
G01*
X17376150Y-10655440D02*
G75*
G03*
X17336150Y-10655440I-20000J0D01*
G01*
X17336150Y-10655440D02*
G75*
G03*
X17376150Y-10655440I20000J0D01*
G01*
X17419000Y-8717420D02*
G75*
G03*
X17379000Y-8717420I-20000J0D01*
G01*
X17379000Y-8717420D02*
G75*
G03*
X17419000Y-8717420I20000J0D01*
G01*
X17419000Y-8798700D02*
G75*
G03*
X17379000Y-8798700I-20000J0D01*
G01*
X17379000Y-8798700D02*
G75*
G03*
X17419000Y-8798700I20000J0D01*
G01*
X17419000Y-8879980D02*
G75*
G03*
X17379000Y-8879980I-20000J0D01*
G01*
X17379000Y-8879980D02*
G75*
G03*
X17419000Y-8879980I20000J0D01*
G01*
X17419000Y-8961260D02*
G75*
G03*
X17379000Y-8961260I-20000J0D01*
G01*
X17379000Y-8961260D02*
G75*
G03*
X17419000Y-8961260I20000J0D01*
G01*
X17447270Y-10038220D02*
G75*
G03*
X17407270Y-10038220I-20000J0D01*
G01*
X17407270Y-10038220D02*
G75*
G03*
X17447270Y-10038220I20000J0D01*
G01*
X17484100Y-9641980D02*
G75*
G03*
X17444100Y-9641980I-20000J0D01*
G01*
X17444100Y-9641980D02*
G75*
G03*
X17484100Y-9641980I20000J0D01*
G01*
X17504420Y-10757040D02*
G75*
G03*
X17464420Y-10757040I-20000J0D01*
G01*
X17464420Y-10757040D02*
G75*
G03*
X17504420Y-10757040I20000J0D01*
G01*
X17524740Y-10564000D02*
G75*
G03*
X17484740Y-10564000I-20000J0D01*
G01*
X17484740Y-10564000D02*
G75*
G03*
X17524740Y-10564000I20000J0D01*
G01*
X17542520Y-12526150D02*
G75*
G03*
X17502520Y-12526150I-20000J0D01*
G01*
X17502520Y-12526150D02*
G75*
G03*
X17542520Y-12526150I20000J0D01*
G01*
X17564110Y-10216020D02*
G75*
G03*
X17524110Y-10216020I-20000J0D01*
G01*
X17524110Y-10216020D02*
G75*
G03*
X17564110Y-10216020I20000J0D01*
G01*
X17571730Y-12362320D02*
G75*
G03*
X17531730Y-12362320I-20000J0D01*
G01*
X17531730Y-12362320D02*
G75*
G03*
X17571730Y-12362320I20000J0D01*
G01*
X17590780Y-12810630D02*
G75*
G03*
X17550780Y-12810630I-20000J0D01*
G01*
X17550780Y-12810630D02*
G75*
G03*
X17590780Y-12810630I20000J0D01*
G01*
X17590780Y-13302120D02*
G75*
G03*
X17550780Y-13302120I-20000J0D01*
G01*
X17550780Y-13302120D02*
G75*
G03*
X17590780Y-13302120I20000J0D01*
G01*
X17631420Y-12272150D02*
G75*
G03*
X17591420Y-12272150I-20000J0D01*
G01*
X17591420Y-12272150D02*
G75*
G03*
X17631420Y-12272150I20000J0D01*
G01*
X17696190Y-11032630D02*
G75*
G03*
X17656190Y-11032630I-20000J0D01*
G01*
X17656190Y-11032630D02*
G75*
G03*
X17696190Y-11032630I20000J0D01*
G01*
X17799060Y-10838320D02*
G75*
G03*
X17759060Y-10838320I-20000J0D01*
G01*
X17759060Y-10838320D02*
G75*
G03*
X17799060Y-10838320I20000J0D01*
G01*
X17844450Y-13061950D02*
G75*
G03*
X17804450Y-13061950I-20000J0D01*
G01*
X17804450Y-13061950D02*
G75*
G03*
X17844450Y-13061950I20000J0D01*
G01*
X18007340Y-11437760D02*
G75*
G03*
X17967340Y-11437760I-20000J0D01*
G01*
X17967340Y-11437760D02*
G75*
G03*
X18007340Y-11437760I20000J0D01*
G01*
X18008610Y-12006720D02*
G75*
G03*
X17968610Y-12006720I-20000J0D01*
G01*
X17968610Y-12006720D02*
G75*
G03*
X18008610Y-12006720I20000J0D01*
G01*
X18022250Y-12160250D02*
G75*
G03*
X17982250Y-12160250I-20000J0D01*
G01*
X17982250Y-12160250D02*
G75*
G03*
X18022250Y-12160250I20000J0D01*
G01*
X18025120Y-12649340D02*
G75*
G03*
X17985120Y-12649340I-20000J0D01*
G01*
X17985120Y-12649340D02*
G75*
G03*
X18025120Y-12649340I20000J0D01*
G01*
X18026390Y-12750940D02*
G75*
G03*
X17986390Y-12750940I-20000J0D01*
G01*
X17986390Y-12750940D02*
G75*
G03*
X18026390Y-12750940I20000J0D01*
G01*
X18106400Y-11577460D02*
G75*
G03*
X18066400Y-11577460I-20000J0D01*
G01*
X18066400Y-11577460D02*
G75*
G03*
X18106400Y-11577460I20000J0D01*
G01*
X18106400Y-11853050D02*
G75*
G03*
X18066400Y-11853050I-20000J0D01*
G01*
X18066400Y-11853050D02*
G75*
G03*
X18106400Y-11853050I20000J0D01*
G01*
X18162280Y-12463920D02*
G75*
G03*
X18122280Y-12463920I-20000J0D01*
G01*
X18122280Y-12463920D02*
G75*
G03*
X18162280Y-12463920I20000J0D01*
G01*
X18238150Y-12573000D02*
G75*
G03*
X18198150Y-12573000I-20000J0D01*
G01*
X18198150Y-12573000D02*
G75*
G03*
X18238150Y-12573000I20000J0D01*
G01*
X18276580Y-11155820D02*
G75*
G03*
X18236580Y-11155820I-20000J0D01*
G01*
X18236580Y-11155820D02*
G75*
G03*
X18276580Y-11155820I20000J0D01*
G01*
X18374370Y-10671950D02*
G75*
G03*
X18334370Y-10671950I-20000J0D01*
G01*
X18334370Y-10671950D02*
G75*
G03*
X18374370Y-10671950I20000J0D01*
G01*
X18379450Y-11853050D02*
G75*
G03*
X18339450Y-11853050I-20000J0D01*
G01*
X18339450Y-11853050D02*
G75*
G03*
X18379450Y-11853050I20000J0D01*
G01*
X18384530Y-11577460D02*
G75*
G03*
X18344530Y-11577460I-20000J0D01*
G01*
X18344530Y-11577460D02*
G75*
G03*
X18384530Y-11577460I20000J0D01*
G01*
X18463270Y-11773040D02*
G75*
G03*
X18423270Y-11773040I-20000J0D01*
G01*
X18423270Y-11773040D02*
G75*
G03*
X18463270Y-11773040I20000J0D01*
G01*
X18526770Y-11238370D02*
G75*
G03*
X18486770Y-11238370I-20000J0D01*
G01*
X18486770Y-11238370D02*
G75*
G03*
X18526770Y-11238370I20000J0D01*
G01*
X18540740Y-11546980D02*
G75*
G03*
X18500740Y-11546980I-20000J0D01*
G01*
X18500740Y-11546980D02*
G75*
G03*
X18540740Y-11546980I20000J0D01*
G01*
X18776960Y-11996560D02*
G75*
G03*
X18736960Y-11996560I-20000J0D01*
G01*
X18736960Y-11996560D02*
G75*
G03*
X18776960Y-11996560I20000J0D01*
G01*
X18900150Y-13097650D02*
G75*
G03*
X18860150Y-13097650I-20000J0D01*
G01*
X18860150Y-13097650D02*
G75*
G03*
X18900150Y-13097650I20000J0D01*
G01*
X19075410Y-13121780D02*
G75*
G03*
X19035410Y-13121780I-20000J0D01*
G01*
X19035410Y-13121780D02*
G75*
G03*
X19075410Y-13121780I20000J0D01*
G01*
X19177010Y-9710560D02*
G75*
G03*
X19137010Y-9710560I-20000J0D01*
G01*
X19137010Y-9710560D02*
G75*
G03*
X19177010Y-9710560I20000J0D01*
G01*
X19177010Y-12913500D02*
G75*
G03*
X19137010Y-12913500I-20000J0D01*
G01*
X19137010Y-12913500D02*
G75*
G03*
X19177010Y-12913500I20000J0D01*
G01*
X19282420Y-11512690D02*
G75*
G03*
X19242420Y-11512690I-20000J0D01*
G01*
X19242420Y-11512690D02*
G75*
G03*
X19282420Y-11512690I20000J0D01*
G01*
X19283690Y-11409820D02*
G75*
G03*
X19243690Y-11409820I-20000J0D01*
G01*
X19243690Y-11409820D02*
G75*
G03*
X19283690Y-11409820I20000J0D01*
G01*
X19471650Y-13059550D02*
G75*
G03*
X19431650Y-13059550I-20000J0D01*
G01*
X19431650Y-13059550D02*
G75*
G03*
X19471650Y-13059550I20000J0D01*
G01*
X19501800Y-10121900D02*
G75*
G03*
X19461800Y-10121900I-20000J0D01*
G01*
X19461800Y-10121900D02*
G75*
G03*
X19501800Y-10121900I20000J0D01*
G01*
X19523720Y-11934330D02*
G75*
G03*
X19483720Y-11934330I-20000J0D01*
G01*
X19483720Y-11934330D02*
G75*
G03*
X19523720Y-11934330I20000J0D01*
G01*
X19530070Y-12838570D02*
G75*
G03*
X19490070Y-12838570I-20000J0D01*
G01*
X19490070Y-12838570D02*
G75*
G03*
X19530070Y-12838570I20000J0D01*
G01*
X19541500Y-12580760D02*
G75*
G03*
X19501500Y-12580760I-20000J0D01*
G01*
X19501500Y-12580760D02*
G75*
G03*
X19541500Y-12580760I20000J0D01*
G01*
X19616430Y-10356990D02*
G75*
G03*
X19576430Y-10356990I-20000J0D01*
G01*
X19576430Y-10356990D02*
G75*
G03*
X19616430Y-10356990I20000J0D01*
G01*
X19626590Y-12215000D02*
G75*
G03*
X19586590Y-12215000I-20000J0D01*
G01*
X19586590Y-12215000D02*
G75*
G03*
X19626590Y-12215000I20000J0D01*
G01*
X19674850Y-10101720D02*
G75*
G03*
X19634850Y-10101720I-20000J0D01*
G01*
X19634850Y-10101720D02*
G75*
G03*
X19674850Y-10101720I20000J0D01*
G01*
X19704060Y-11929250D02*
G75*
G03*
X19664060Y-11929250I-20000J0D01*
G01*
X19664060Y-11929250D02*
G75*
G03*
X19704060Y-11929250I20000J0D01*
G01*
X19761210Y-10002660D02*
G75*
G03*
X19721210Y-10002660I-20000J0D01*
G01*
X19721210Y-10002660D02*
G75*
G03*
X19761210Y-10002660I20000J0D01*
G01*
X19800580Y-11585080D02*
G75*
G03*
X19760580Y-11585080I-20000J0D01*
G01*
X19760580Y-11585080D02*
G75*
G03*
X19800580Y-11585080I20000J0D01*
G01*
X19847570Y-10271900D02*
G75*
G03*
X19807570Y-10271900I-20000J0D01*
G01*
X19807570Y-10271900D02*
G75*
G03*
X19847570Y-10271900I20000J0D01*
G01*
X19857400Y-12395200D02*
G75*
G03*
X19817400Y-12395200I-20000J0D01*
G01*
X19817400Y-12395200D02*
G75*
G03*
X19857400Y-12395200I20000J0D01*
G01*
X19857400Y-12553950D02*
G75*
G03*
X19817400Y-12553950I-20000J0D01*
G01*
X19817400Y-12553950D02*
G75*
G03*
X19857400Y-12553950I20000J0D01*
G01*
X19951710Y-11583810D02*
G75*
G03*
X19911710Y-11583810I-20000J0D01*
G01*
X19911710Y-11583810D02*
G75*
G03*
X19951710Y-11583810I20000J0D01*
G01*
X20028850Y-12934950D02*
G75*
G03*
X19988850Y-12934950I-20000J0D01*
G01*
X19988850Y-12934950D02*
G75*
G03*
X20028850Y-12934950I20000J0D01*
G01*
X20038070Y-12093080D02*
G75*
G03*
X19998070Y-12093080I-20000J0D01*
G01*
X19998070Y-12093080D02*
G75*
G03*
X20038070Y-12093080I20000J0D01*
G01*
X20050770Y-10740530D02*
G75*
G03*
X20010770Y-10740530I-20000J0D01*
G01*
X20010770Y-10740530D02*
G75*
G03*
X20050770Y-10740530I20000J0D01*
G01*
X20052040Y-9842640D02*
G75*
G03*
X20012040Y-9842640I-20000J0D01*
G01*
X20012040Y-9842640D02*
G75*
G03*
X20052040Y-9842640I20000J0D01*
G01*
X20100300Y-10033140D02*
G75*
G03*
X20060300Y-10033140I-20000J0D01*
G01*
X20060300Y-10033140D02*
G75*
G03*
X20100300Y-10033140I20000J0D01*
G01*
X20101570Y-10374770D02*
G75*
G03*
X20061570Y-10374770I-20000J0D01*
G01*
X20061570Y-10374770D02*
G75*
G03*
X20101570Y-10374770I20000J0D01*
G01*
X20177770Y-10750690D02*
G75*
G03*
X20137770Y-10750690I-20000J0D01*
G01*
X20137770Y-10750690D02*
G75*
G03*
X20177770Y-10750690I20000J0D01*
G01*
X20276500Y-10064750D02*
G75*
G03*
X20236500Y-10064750I-20000J0D01*
G01*
X20236500Y-10064750D02*
G75*
G03*
X20276500Y-10064750I20000J0D01*
G01*
X20278100Y-13196710D02*
G75*
G03*
X20238100Y-13196710I-20000J0D01*
G01*
X20238100Y-13196710D02*
G75*
G03*
X20278100Y-13196710I20000J0D01*
G01*
X20280640Y-11078350D02*
G75*
G03*
X20240640Y-11078350I-20000J0D01*
G01*
X20240640Y-11078350D02*
G75*
G03*
X20280640Y-11078350I20000J0D01*
G01*
X20280640Y-11159630D02*
G75*
G03*
X20240640Y-11159630I-20000J0D01*
G01*
X20240640Y-11159630D02*
G75*
G03*
X20280640Y-11159630I20000J0D01*
G01*
X20280640Y-11240910D02*
G75*
G03*
X20240640Y-11240910I-20000J0D01*
G01*
X20240640Y-11240910D02*
G75*
G03*
X20280640Y-11240910I20000J0D01*
G01*
X20300960Y-9899790D02*
G75*
G03*
X20260960Y-9899790I-20000J0D01*
G01*
X20260960Y-9899790D02*
G75*
G03*
X20300960Y-9899790I20000J0D01*
G01*
X20313660Y-7772400D02*
G75*
G03*
X20273660Y-7772400I-20000J0D01*
G01*
X20273660Y-7772400D02*
G75*
G03*
X20313660Y-7772400I20000J0D01*
G01*
X20356110Y-10290410D02*
G75*
G03*
X20316110Y-10290410I-20000J0D01*
G01*
X20316110Y-10290410D02*
G75*
G03*
X20356110Y-10290410I20000J0D01*
G01*
X20361920Y-11078350D02*
G75*
G03*
X20321920Y-11078350I-20000J0D01*
G01*
X20321920Y-11078350D02*
G75*
G03*
X20361920Y-11078350I20000J0D01*
G01*
X20361920Y-11159630D02*
G75*
G03*
X20321920Y-11159630I-20000J0D01*
G01*
X20321920Y-11159630D02*
G75*
G03*
X20361920Y-11159630I20000J0D01*
G01*
X20361920Y-11240910D02*
G75*
G03*
X20321920Y-11240910I-20000J0D01*
G01*
X20321920Y-11240910D02*
G75*
G03*
X20361920Y-11240910I20000J0D01*
G01*
X20450820Y-11773040D02*
G75*
G03*
X20410820Y-11773040I-20000J0D01*
G01*
X20410820Y-11773040D02*
G75*
G03*
X20450820Y-11773040I20000J0D01*
G01*
X20454630Y-11338700D02*
G75*
G03*
X20414630Y-11338700I-20000J0D01*
G01*
X20414630Y-11338700D02*
G75*
G03*
X20454630Y-11338700I20000J0D01*
G01*
X20555900Y-12954000D02*
G75*
G03*
X20515900Y-12954000I-20000J0D01*
G01*
X20515900Y-12954000D02*
G75*
G03*
X20555900Y-12954000I20000J0D01*
G01*
X20560040Y-10530980D02*
G75*
G03*
X20520040Y-10530980I-20000J0D01*
G01*
X20520040Y-10530980D02*
G75*
G03*
X20560040Y-10530980I20000J0D01*
G01*
X20773400Y-11512690D02*
G75*
G03*
X20733400Y-11512690I-20000J0D01*
G01*
X20733400Y-11512690D02*
G75*
G03*
X20773400Y-11512690I20000J0D01*
G01*
X20800070Y-12390260D02*
G75*
G03*
X20760070Y-12390260I-20000J0D01*
G01*
X20760070Y-12390260D02*
G75*
G03*
X20800070Y-12390260I20000J0D01*
G01*
X20803880Y-11973700D02*
G75*
G03*
X20763880Y-11973700I-20000J0D01*
G01*
X20763880Y-11973700D02*
G75*
G03*
X20803880Y-11973700I20000J0D01*
G01*
X20809900Y-10440810D02*
G75*
G03*
X20769900Y-10440810I-20000J0D01*
G01*
X20769900Y-10440810D02*
G75*
G03*
X20809900Y-10440810I20000J0D01*
G01*
X20855950Y-11103750D02*
G75*
G03*
X20815950Y-11103750I-20000J0D01*
G01*
X20815950Y-11103750D02*
G75*
G03*
X20855950Y-11103750I20000J0D01*
G01*
X20866110Y-10730370D02*
G75*
G03*
X20826110Y-10730370I-20000J0D01*
G01*
X20826110Y-10730370D02*
G75*
G03*
X20866110Y-10730370I20000J0D01*
G01*
X20875000Y-11714620D02*
G75*
G03*
X20835000Y-11714620I-20000J0D01*
G01*
X20835000Y-11714620D02*
G75*
G03*
X20875000Y-11714620I20000J0D01*
G01*
X20946120Y-11642230D02*
G75*
G03*
X20906120Y-11642230I-20000J0D01*
G01*
X20906120Y-11642230D02*
G75*
G03*
X20946120Y-11642230I20000J0D01*
G01*
X21027400Y-10511930D02*
G75*
G03*
X20987400Y-10511930I-20000J0D01*
G01*
X20987400Y-10511930D02*
G75*
G03*
X21027400Y-10511930I20000J0D01*
G01*
X21040100Y-10731640D02*
G75*
G03*
X21000100Y-10731640I-20000J0D01*
G01*
X21000100Y-10731640D02*
G75*
G03*
X21040100Y-10731640I20000J0D01*
G01*
X21043910Y-9387980D02*
G75*
G03*
X21003910Y-9387980I-20000J0D01*
G01*
X21003910Y-9387980D02*
G75*
G03*
X21043910Y-9387980I20000J0D01*
G01*
X21078200Y-11417440D02*
G75*
G03*
X21038200Y-11417440I-20000J0D01*
G01*
X21038200Y-11417440D02*
G75*
G03*
X21078200Y-11417440I20000J0D01*
G01*
X21084550Y-9690100D02*
G75*
G03*
X21044550Y-9690100I-20000J0D01*
G01*
X21044550Y-9690100D02*
G75*
G03*
X21084550Y-9690100I20000J0D01*
G01*
X21089630Y-11519040D02*
G75*
G03*
X21049630Y-11519040I-20000J0D01*
G01*
X21049630Y-11519040D02*
G75*
G03*
X21089630Y-11519040I20000J0D01*
G01*
X21130270Y-11620640D02*
G75*
G03*
X21090270Y-11620640I-20000J0D01*
G01*
X21090270Y-11620640D02*
G75*
G03*
X21130270Y-11620640I20000J0D01*
G01*
X14224000Y-12161520D02*
X14224000Y-12222480D01*
X14193520Y-12192000D02*
X14254480Y-12192000D01*
X14224000Y-12923520D02*
X14224000Y-12984480D01*
X14193520Y-12954000D02*
X14254480Y-12954000D01*
X14478000Y-10637520D02*
X14478000Y-10698480D01*
X14447520Y-10668000D02*
X14508480Y-10668000D01*
X14478000Y-11145520D02*
X14478000Y-11206480D01*
X14447520Y-11176000D02*
X14508480Y-11176000D01*
X18034000Y-12923520D02*
X18034000Y-12984480D01*
X18003520Y-12954000D02*
X18064480Y-12954000D01*
X18542000Y-12923520D02*
X18542000Y-12984480D01*
X18511520Y-12954000D02*
X18572480Y-12954000D01*
X19304000Y-12161520D02*
X19304000Y-12222480D01*
X19273520Y-12192000D02*
X19334480Y-12192000D01*
X16964065Y-12098834D02*
X16964065Y-12042265D01*
X16907496Y-12042265D01*
X16907496Y-12098834D01*
X16964065Y-12098834D01*
X16964065Y-12298834D02*
X16964065Y-12242265D01*
X16907496Y-12242265D01*
X16907496Y-12298834D01*
X16964065Y-12298834D01*
X17864495Y-9248955D02*
X17864495Y-9192386D01*
X17807926Y-9192386D01*
X17807926Y-9248955D01*
X17864495Y-9248955D01*
X17864495Y-9448955D02*
X17864495Y-9392386D01*
X17807926Y-9392386D01*
X17807926Y-9448955D01*
X17864495Y-9448955D01*
X13600000Y-7321360D02*
X13650000Y-7271360D01*
X13600000Y-7221360D01*
X13550000Y-7271360D01*
X13600000Y-7321360D01*
X13600000Y-7575360D02*
X13650000Y-7525360D01*
X13600000Y-7475360D01*
X13550000Y-7525360D01*
X13600000Y-7575360D01*
X13600000Y-13525360D02*
X13650000Y-13475360D01*
X13600000Y-13425360D01*
X13550000Y-13475360D01*
X13600000Y-13525360D01*
X13600000Y-13779360D02*
X13650000Y-13729360D01*
X13600000Y-13679360D01*
X13550000Y-13729360D01*
X13600000Y-13779360D01*
X13854000Y-7321360D02*
X13904000Y-7271360D01*
X13854000Y-7221360D01*
X13804000Y-7271360D01*
X13854000Y-7321360D01*
X13854000Y-7575360D02*
X13904000Y-7525360D01*
X13854000Y-7475360D01*
X13804000Y-7525360D01*
X13854000Y-7575360D01*
X13854000Y-13525360D02*
X13904000Y-13475360D01*
X13854000Y-13425360D01*
X13804000Y-13475360D01*
X13854000Y-13525360D01*
X13854000Y-13779360D02*
X13904000Y-13729360D01*
X13854000Y-13679360D01*
X13804000Y-13729360D01*
X13854000Y-13779360D01*
X14108000Y-7321360D02*
X14158000Y-7271360D01*
X14108000Y-7221360D01*
X14058000Y-7271360D01*
X14108000Y-7321360D01*
X14108000Y-7575360D02*
X14158000Y-7525360D01*
X14108000Y-7475360D01*
X14058000Y-7525360D01*
X14108000Y-7575360D01*
X14108000Y-13525360D02*
X14158000Y-13475360D01*
X14108000Y-13425360D01*
X14058000Y-13475360D01*
X14108000Y-13525360D01*
X14108000Y-13779360D02*
X14158000Y-13729360D01*
X14108000Y-13679360D01*
X14058000Y-13729360D01*
X14108000Y-13779360D01*
X14362000Y-7321360D02*
X14412000Y-7271360D01*
X14362000Y-7221360D01*
X14312000Y-7271360D01*
X14362000Y-7321360D01*
X14362000Y-7575360D02*
X14412000Y-7525360D01*
X14362000Y-7475360D01*
X14312000Y-7525360D01*
X14362000Y-7575360D01*
X14362000Y-13525360D02*
X14412000Y-13475360D01*
X14362000Y-13425360D01*
X14312000Y-13475360D01*
X14362000Y-13525360D01*
X14362000Y-13779360D02*
X14412000Y-13729360D01*
X14362000Y-13679360D01*
X14312000Y-13729360D01*
X14362000Y-13779360D01*
X14616000Y-7321360D02*
X14666000Y-7271360D01*
X14616000Y-7221360D01*
X14566000Y-7271360D01*
X14616000Y-7321360D01*
X14616000Y-7575360D02*
X14666000Y-7525360D01*
X14616000Y-7475360D01*
X14566000Y-7525360D01*
X14616000Y-7575360D01*
X14616000Y-13525360D02*
X14666000Y-13475360D01*
X14616000Y-13425360D01*
X14566000Y-13475360D01*
X14616000Y-13525360D01*
X14616000Y-13779360D02*
X14666000Y-13729360D01*
X14616000Y-13679360D01*
X14566000Y-13729360D01*
X14616000Y-13779360D01*
X14870000Y-7321360D02*
X14920000Y-7271360D01*
X14870000Y-7221360D01*
X14820000Y-7271360D01*
X14870000Y-7321360D01*
X14870000Y-7575360D02*
X14920000Y-7525360D01*
X14870000Y-7475360D01*
X14820000Y-7525360D01*
X14870000Y-7575360D01*
X14870000Y-13525360D02*
X14920000Y-13475360D01*
X14870000Y-13425360D01*
X14820000Y-13475360D01*
X14870000Y-13525360D01*
X14870000Y-13779360D02*
X14920000Y-13729360D01*
X14870000Y-13679360D01*
X14820000Y-13729360D01*
X14870000Y-13779360D01*
X15124000Y-7321360D02*
X15174000Y-7271360D01*
X15124000Y-7221360D01*
X15074000Y-7271360D01*
X15124000Y-7321360D01*
X15124000Y-7575360D02*
X15174000Y-7525360D01*
X15124000Y-7475360D01*
X15074000Y-7525360D01*
X15124000Y-7575360D01*
X15124000Y-13525360D02*
X15174000Y-13475360D01*
X15124000Y-13425360D01*
X15074000Y-13475360D01*
X15124000Y-13525360D01*
X15124000Y-13779360D02*
X15174000Y-13729360D01*
X15124000Y-13679360D01*
X15074000Y-13729360D01*
X15124000Y-13779360D01*
X15378000Y-7321360D02*
X15428000Y-7271360D01*
X15378000Y-7221360D01*
X15328000Y-7271360D01*
X15378000Y-7321360D01*
X15378000Y-7575360D02*
X15428000Y-7525360D01*
X15378000Y-7475360D01*
X15328000Y-7525360D01*
X15378000Y-7575360D01*
X15378000Y-13525360D02*
X15428000Y-13475360D01*
X15378000Y-13425360D01*
X15328000Y-13475360D01*
X15378000Y-13525360D01*
X15378000Y-13779360D02*
X15428000Y-13729360D01*
X15378000Y-13679360D01*
X15328000Y-13729360D01*
X15378000Y-13779360D01*
X15632000Y-7321360D02*
X15682000Y-7271360D01*
X15632000Y-7221360D01*
X15582000Y-7271360D01*
X15632000Y-7321360D01*
X15632000Y-7575360D02*
X15682000Y-7525360D01*
X15632000Y-7475360D01*
X15582000Y-7525360D01*
X15632000Y-7575360D01*
X15632000Y-13525360D02*
X15682000Y-13475360D01*
X15632000Y-13425360D01*
X15582000Y-13475360D01*
X15632000Y-13525360D01*
X15632000Y-13779360D02*
X15682000Y-13729360D01*
X15632000Y-13679360D01*
X15582000Y-13729360D01*
X15632000Y-13779360D01*
X15886000Y-7321360D02*
X15936000Y-7271360D01*
X15886000Y-7221360D01*
X15836000Y-7271360D01*
X15886000Y-7321360D01*
X15886000Y-7575360D02*
X15936000Y-7525360D01*
X15886000Y-7475360D01*
X15836000Y-7525360D01*
X15886000Y-7575360D01*
X15886000Y-13525360D02*
X15936000Y-13475360D01*
X15886000Y-13425360D01*
X15836000Y-13475360D01*
X15886000Y-13525360D01*
X15886000Y-13779360D02*
X15936000Y-13729360D01*
X15886000Y-13679360D01*
X15836000Y-13729360D01*
X15886000Y-13779360D01*
X16140000Y-7321360D02*
X16190000Y-7271360D01*
X16140000Y-7221360D01*
X16090000Y-7271360D01*
X16140000Y-7321360D01*
X16140000Y-7575360D02*
X16190000Y-7525360D01*
X16140000Y-7475360D01*
X16090000Y-7525360D01*
X16140000Y-7575360D01*
X16140000Y-13525360D02*
X16190000Y-13475360D01*
X16140000Y-13425360D01*
X16090000Y-13475360D01*
X16140000Y-13525360D01*
X16140000Y-13779360D02*
X16190000Y-13729360D01*
X16140000Y-13679360D01*
X16090000Y-13729360D01*
X16140000Y-13779360D01*
X16394000Y-7321360D02*
X16444000Y-7271360D01*
X16394000Y-7221360D01*
X16344000Y-7271360D01*
X16394000Y-7321360D01*
X16394000Y-7575360D02*
X16444000Y-7525360D01*
X16394000Y-7475360D01*
X16344000Y-7525360D01*
X16394000Y-7575360D01*
X16394000Y-13525360D02*
X16444000Y-13475360D01*
X16394000Y-13425360D01*
X16344000Y-13475360D01*
X16394000Y-13525360D01*
X16394000Y-13779360D02*
X16444000Y-13729360D01*
X16394000Y-13679360D01*
X16344000Y-13729360D01*
X16394000Y-13779360D01*
X16648000Y-7321360D02*
X16698000Y-7271360D01*
X16648000Y-7221360D01*
X16598000Y-7271360D01*
X16648000Y-7321360D01*
X16648000Y-7575360D02*
X16698000Y-7525360D01*
X16648000Y-7475360D01*
X16598000Y-7525360D01*
X16648000Y-7575360D01*
X16648000Y-13525360D02*
X16698000Y-13475360D01*
X16648000Y-13425360D01*
X16598000Y-13475360D01*
X16648000Y-13525360D01*
X16648000Y-13779360D02*
X16698000Y-13729360D01*
X16648000Y-13679360D01*
X16598000Y-13729360D01*
X16648000Y-13779360D01*
X16902000Y-7321360D02*
X16952000Y-7271360D01*
X16902000Y-7221360D01*
X16852000Y-7271360D01*
X16902000Y-7321360D01*
X16902000Y-7575360D02*
X16952000Y-7525360D01*
X16902000Y-7475360D01*
X16852000Y-7525360D01*
X16902000Y-7575360D01*
X16902000Y-13525360D02*
X16952000Y-13475360D01*
X16902000Y-13425360D01*
X16852000Y-13475360D01*
X16902000Y-13525360D01*
X16902000Y-13779360D02*
X16952000Y-13729360D01*
X16902000Y-13679360D01*
X16852000Y-13729360D01*
X16902000Y-13779360D01*
D13*
X10673230Y-8792580D02*
X10803230Y-8922580D01*
X10803230Y-8792580D02*
X10673230Y-8922580D01*
X10803230Y-8857580D02*
G75*
G03*
X10673230Y-8857580I-65000J0D01*
G01*
X10673230Y-8857580D02*
G75*
G03*
X10803230Y-8857580I65000J0D01*
G01*
X10673230Y-9548580D02*
X10803230Y-9678580D01*
X10803230Y-9548580D02*
X10673230Y-9678580D01*
X10803230Y-9613580D02*
G75*
G03*
X10673230Y-9613580I-65000J0D01*
G01*
X10673230Y-9613580D02*
G75*
G03*
X10803230Y-9613580I65000J0D01*
G01*
X11177230Y-8792580D02*
X11307230Y-8922580D01*
X11307230Y-8792580D02*
X11177230Y-8922580D01*
X11307230Y-8857580D02*
G75*
G03*
X11177230Y-8857580I-65000J0D01*
G01*
X11177230Y-8857580D02*
G75*
G03*
X11307230Y-8857580I65000J0D01*
G01*
X11177230Y-9548580D02*
X11307230Y-9678580D01*
X11307230Y-9548580D02*
X11177230Y-9678580D01*
X11307230Y-9613580D02*
G75*
G03*
X11177230Y-9613580I-65000J0D01*
G01*
X11177230Y-9613580D02*
G75*
G03*
X11307230Y-9613580I65000J0D01*
G01*
X11681230Y-8792580D02*
X11811230Y-8922580D01*
X11811230Y-8792580D02*
X11681230Y-8922580D01*
X11811230Y-8857580D02*
G75*
G03*
X11681230Y-8857580I-65000J0D01*
G01*
X11681230Y-8857580D02*
G75*
G03*
X11811230Y-8857580I65000J0D01*
G01*
X11681230Y-9548580D02*
X11811230Y-9678580D01*
X11811230Y-9548580D02*
X11681230Y-9678580D01*
X11811230Y-9613580D02*
G75*
G03*
X11681230Y-9613580I-65000J0D01*
G01*
X11681230Y-9613580D02*
G75*
G03*
X11811230Y-9613580I65000J0D01*
G01*
X13210230Y-8792580D02*
X13340230Y-8922580D01*
X13340230Y-8792580D02*
X13210230Y-8922580D01*
X13340230Y-8857580D02*
G75*
G03*
X13210230Y-8857580I-65000J0D01*
G01*
X13210230Y-8857580D02*
G75*
G03*
X13340230Y-8857580I65000J0D01*
G01*
X13210230Y-9170580D02*
X13340230Y-9300580D01*
X13340230Y-9170580D02*
X13210230Y-9300580D01*
X13340230Y-9235580D02*
G75*
G03*
X13210230Y-9235580I-65000J0D01*
G01*
X13210230Y-9235580D02*
G75*
G03*
X13340230Y-9235580I65000J0D01*
G01*
X13210230Y-9548580D02*
X13340230Y-9678580D01*
X13340230Y-9548580D02*
X13210230Y-9678580D01*
X13340230Y-9613580D02*
G75*
G03*
X13210230Y-9613580I-65000J0D01*
G01*
X13210230Y-9613580D02*
G75*
G03*
X13340230Y-9613580I65000J0D01*
G01*
X17278500Y-7539090D02*
X17408500Y-7669090D01*
X17408500Y-7539090D02*
X17278500Y-7669090D01*
X17408500Y-7604090D02*
G75*
G03*
X17278500Y-7604090I-65000J0D01*
G01*
X17278500Y-7604090D02*
G75*
G03*
X17408500Y-7604090I65000J0D01*
G01*
X17278500Y-8295090D02*
X17408500Y-8425090D01*
X17408500Y-8295090D02*
X17278500Y-8425090D01*
X17408500Y-8360090D02*
G75*
G03*
X17278500Y-8360090I-65000J0D01*
G01*
X17278500Y-8360090D02*
G75*
G03*
X17408500Y-8360090I65000J0D01*
G01*
X17782500Y-7539090D02*
X17912500Y-7669090D01*
X17912500Y-7539090D02*
X17782500Y-7669090D01*
X17912500Y-7604090D02*
G75*
G03*
X17782500Y-7604090I-65000J0D01*
G01*
X17782500Y-7604090D02*
G75*
G03*
X17912500Y-7604090I65000J0D01*
G01*
X17782500Y-8295090D02*
X17912500Y-8425090D01*
X17912500Y-8295090D02*
X17782500Y-8425090D01*
X17912500Y-8360090D02*
G75*
G03*
X17782500Y-8360090I-65000J0D01*
G01*
X17782500Y-8360090D02*
G75*
G03*
X17912500Y-8360090I65000J0D01*
G01*
X18286500Y-7539090D02*
X18416500Y-7669090D01*
X18416500Y-7539090D02*
X18286500Y-7669090D01*
X18416500Y-7604090D02*
G75*
G03*
X18286500Y-7604090I-65000J0D01*
G01*
X18286500Y-7604090D02*
G75*
G03*
X18416500Y-7604090I65000J0D01*
G01*
X18286500Y-8295090D02*
X18416500Y-8425090D01*
X18416500Y-8295090D02*
X18286500Y-8425090D01*
X18416500Y-8360090D02*
G75*
G03*
X18286500Y-8360090I-65000J0D01*
G01*
X18286500Y-8360090D02*
G75*
G03*
X18416500Y-8360090I65000J0D01*
G01*
X19815500Y-7539090D02*
X19945500Y-7669090D01*
X19945500Y-7539090D02*
X19815500Y-7669090D01*
X19945500Y-7604090D02*
G75*
G03*
X19815500Y-7604090I-65000J0D01*
G01*
X19815500Y-7604090D02*
G75*
G03*
X19945500Y-7604090I65000J0D01*
G01*
X19815500Y-7917090D02*
X19945500Y-8047090D01*
X19945500Y-7917090D02*
X19815500Y-8047090D01*
X19945500Y-7982090D02*
G75*
G03*
X19815500Y-7982090I-65000J0D01*
G01*
X19815500Y-7982090D02*
G75*
G03*
X19945500Y-7982090I65000J0D01*
G01*
X19815500Y-8295090D02*
X19945500Y-8425090D01*
X19945500Y-8295090D02*
X19815500Y-8425090D01*
X19945500Y-8360090D02*
G75*
G03*
X19815500Y-8360090I-65000J0D01*
G01*
X19815500Y-8360090D02*
G75*
G03*
X19945500Y-8360090I65000J0D01*
G01*
D14*
X8890000Y-10571500D02*
X9030000Y-10711500D01*
X9030000Y-10571500D02*
X8890000Y-10711500D01*
X8960000Y-10571500D02*
X8960000Y-10711500D01*
X8890000Y-10641500D02*
X9030000Y-10641500D01*
X8890000Y-10952500D02*
X9030000Y-11092500D01*
X9030000Y-10952500D02*
X8890000Y-11092500D01*
X8960000Y-10952500D02*
X8960000Y-11092500D01*
X8890000Y-11022500D02*
X9030000Y-11022500D01*
X8890000Y-11333500D02*
X9030000Y-11473500D01*
X9030000Y-11333500D02*
X8890000Y-11473500D01*
X8960000Y-11333500D02*
X8960000Y-11473500D01*
X8890000Y-11403500D02*
X9030000Y-11403500D01*
X8890000Y-11714500D02*
X9030000Y-11854500D01*
X9030000Y-11714500D02*
X8890000Y-11854500D01*
X8960000Y-11714500D02*
X8960000Y-11854500D01*
X8890000Y-11784500D02*
X9030000Y-11784500D01*
X8890000Y-12095500D02*
X9030000Y-12235500D01*
X9030000Y-12095500D02*
X8890000Y-12235500D01*
X8960000Y-12095500D02*
X8960000Y-12235500D01*
X8890000Y-12165500D02*
X9030000Y-12165500D01*
X8890000Y-12476500D02*
X9030000Y-12616500D01*
X9030000Y-12476500D02*
X8890000Y-12616500D01*
X8960000Y-12476500D02*
X8960000Y-12616500D01*
X8890000Y-12546500D02*
X9030000Y-12546500D01*
X8890000Y-12857500D02*
X9030000Y-12997500D01*
X9030000Y-12857500D02*
X8890000Y-12997500D01*
X8960000Y-12857500D02*
X8960000Y-12997500D01*
X8890000Y-12927500D02*
X9030000Y-12927500D01*
X8890000Y-13238500D02*
X9030000Y-13378500D01*
X9030000Y-13238500D02*
X8890000Y-13378500D01*
X8960000Y-13238500D02*
X8960000Y-13378500D01*
X8890000Y-13308500D02*
X9030000Y-13308500D01*
D15*
X9538900Y-10605700D02*
X9688900Y-10755700D01*
X9688900Y-10605700D02*
X9538900Y-10755700D01*
X9666934Y-10733734D02*
X9666934Y-10627667D01*
X9560867Y-10627667D01*
X9560867Y-10733734D01*
X9666934Y-10733734D01*
X9538900Y-12855700D02*
X9688900Y-13005700D01*
X9688900Y-12855700D02*
X9538900Y-13005700D01*
X9666934Y-12983733D02*
X9666934Y-12877666D01*
X9560867Y-12877666D01*
X9560867Y-12983733D01*
X9666934Y-12983733D01*
X10482840Y-10607330D02*
X10632840Y-10757330D01*
X10632840Y-10607330D02*
X10482840Y-10757330D01*
X10610874Y-10735364D02*
X10610874Y-10629297D01*
X10504807Y-10629297D01*
X10504807Y-10735364D01*
X10610874Y-10735364D01*
X10482840Y-12857330D02*
X10632840Y-13007330D01*
X10632840Y-12857330D02*
X10482840Y-13007330D01*
X10610874Y-12985363D02*
X10610874Y-12879296D01*
X10504807Y-12879296D01*
X10504807Y-12985363D01*
X10610874Y-12985363D01*
X13720290Y-8116640D02*
X13870290Y-8266640D01*
X13870290Y-8116640D02*
X13720290Y-8266640D01*
X13848323Y-8244673D02*
X13848323Y-8138606D01*
X13742256Y-8138606D01*
X13742256Y-8244673D01*
X13848323Y-8244673D01*
X13721560Y-9056300D02*
X13871560Y-9206300D01*
X13871560Y-9056300D02*
X13721560Y-9206300D01*
X13849593Y-9184334D02*
X13849593Y-9078267D01*
X13743526Y-9078267D01*
X13743526Y-9184334D01*
X13849593Y-9184334D01*
X15970290Y-8116640D02*
X16120290Y-8266640D01*
X16120290Y-8116640D02*
X15970290Y-8266640D01*
X16098323Y-8244673D02*
X16098323Y-8138606D01*
X15992256Y-8138606D01*
X15992256Y-8244673D01*
X16098323Y-8244673D01*
X15971560Y-9056300D02*
X16121560Y-9206300D01*
X16121560Y-9056300D02*
X15971560Y-9206300D01*
X16099593Y-9184334D02*
X16099593Y-9078267D01*
X15993526Y-9078267D01*
X15993526Y-9184334D01*
X16099593Y-9184334D01*
D12*
X8655887Y-14241844D02*
X8655887Y-14041844D01*
X8655887Y-14041844D02*
X8703506Y-14041844D01*
X8703506Y-14041844D02*
X8732077Y-14051368D01*
X8732077Y-14051368D02*
X8751125Y-14070415D01*
X8751125Y-14070415D02*
X8760649Y-14089463D01*
X8760649Y-14089463D02*
X8770173Y-14127558D01*
X8770173Y-14127558D02*
X8770173Y-14156129D01*
X8770173Y-14156129D02*
X8760649Y-14194225D01*
X8760649Y-14194225D02*
X8751125Y-14213272D01*
X8751125Y-14213272D02*
X8732077Y-14232320D01*
X8732077Y-14232320D02*
X8703506Y-14241844D01*
X8703506Y-14241844D02*
X8655887Y-14241844D01*
X8855887Y-14241844D02*
X8855887Y-14108510D01*
X8855887Y-14146606D02*
X8865411Y-14127558D01*
X8865411Y-14127558D02*
X8874934Y-14118034D01*
X8874934Y-14118034D02*
X8893982Y-14108510D01*
X8893982Y-14108510D02*
X8913030Y-14108510D01*
X8979696Y-14241844D02*
X8979696Y-14108510D01*
X8979696Y-14041844D02*
X8970173Y-14051368D01*
X8970173Y-14051368D02*
X8979696Y-14060891D01*
X8979696Y-14060891D02*
X8989220Y-14051368D01*
X8989220Y-14051368D02*
X8979696Y-14041844D01*
X8979696Y-14041844D02*
X8979696Y-14060891D01*
X9103506Y-14241844D02*
X9084458Y-14232320D01*
X9084458Y-14232320D02*
X9074934Y-14213272D01*
X9074934Y-14213272D02*
X9074934Y-14041844D01*
X9208268Y-14241844D02*
X9189220Y-14232320D01*
X9189220Y-14232320D02*
X9179696Y-14213272D01*
X9179696Y-14213272D02*
X9179696Y-14041844D01*
X9436839Y-14241844D02*
X9436839Y-14041844D01*
X9436839Y-14041844D02*
X9503506Y-14184701D01*
X9503506Y-14184701D02*
X9570173Y-14041844D01*
X9570173Y-14041844D02*
X9570173Y-14241844D01*
X9751125Y-14241844D02*
X9751125Y-14137082D01*
X9751125Y-14137082D02*
X9741601Y-14118034D01*
X9741601Y-14118034D02*
X9722554Y-14108510D01*
X9722554Y-14108510D02*
X9684458Y-14108510D01*
X9684458Y-14108510D02*
X9665411Y-14118034D01*
X9751125Y-14232320D02*
X9732077Y-14241844D01*
X9732077Y-14241844D02*
X9684458Y-14241844D01*
X9684458Y-14241844D02*
X9665411Y-14232320D01*
X9665411Y-14232320D02*
X9655887Y-14213272D01*
X9655887Y-14213272D02*
X9655887Y-14194225D01*
X9655887Y-14194225D02*
X9665411Y-14175177D01*
X9665411Y-14175177D02*
X9684458Y-14165653D01*
X9684458Y-14165653D02*
X9732077Y-14165653D01*
X9732077Y-14165653D02*
X9751125Y-14156129D01*
X9846363Y-14108510D02*
X9846363Y-14308510D01*
X9846363Y-14118034D02*
X9865411Y-14108510D01*
X9865411Y-14108510D02*
X9903506Y-14108510D01*
X9903506Y-14108510D02*
X9922554Y-14118034D01*
X9922554Y-14118034D02*
X9932077Y-14127558D01*
X9932077Y-14127558D02*
X9941601Y-14146606D01*
X9941601Y-14146606D02*
X9941601Y-14203748D01*
X9941601Y-14203748D02*
X9932077Y-14222796D01*
X9932077Y-14222796D02*
X9922554Y-14232320D01*
X9922554Y-14232320D02*
X9903506Y-14241844D01*
X9903506Y-14241844D02*
X9865411Y-14241844D01*
X9865411Y-14241844D02*
X9846363Y-14232320D01*
X10027315Y-14222796D02*
X10036839Y-14232320D01*
X10036839Y-14232320D02*
X10027315Y-14241844D01*
X10027315Y-14241844D02*
X10017792Y-14232320D01*
X10017792Y-14232320D02*
X10027315Y-14222796D01*
X10027315Y-14222796D02*
X10027315Y-14241844D01*
X10027315Y-14118034D02*
X10036839Y-14127558D01*
X10036839Y-14127558D02*
X10027315Y-14137082D01*
X10027315Y-14137082D02*
X10017792Y-14127558D01*
X10017792Y-14127558D02*
X10027315Y-14118034D01*
X10027315Y-14118034D02*
X10027315Y-14137082D01*
D11*
X8365110Y-14555360D02*
X8395110Y-14585360D01*
X8395110Y-14555360D02*
X8365110Y-14585360D01*
D12*
X8693982Y-14461844D02*
X8713030Y-14461844D01*
X8713030Y-14461844D02*
X8732077Y-14471368D01*
X8732077Y-14471368D02*
X8741601Y-14480891D01*
X8741601Y-14480891D02*
X8751125Y-14499939D01*
X8751125Y-14499939D02*
X8760649Y-14538034D01*
X8760649Y-14538034D02*
X8760649Y-14585653D01*
X8760649Y-14585653D02*
X8751125Y-14623748D01*
X8751125Y-14623748D02*
X8741601Y-14642796D01*
X8741601Y-14642796D02*
X8732077Y-14652320D01*
X8732077Y-14652320D02*
X8713030Y-14661844D01*
X8713030Y-14661844D02*
X8693982Y-14661844D01*
X8693982Y-14661844D02*
X8674934Y-14652320D01*
X8674934Y-14652320D02*
X8665411Y-14642796D01*
X8665411Y-14642796D02*
X8655887Y-14623748D01*
X8655887Y-14623748D02*
X8646363Y-14585653D01*
X8646363Y-14585653D02*
X8646363Y-14538034D01*
X8646363Y-14538034D02*
X8655887Y-14499939D01*
X8655887Y-14499939D02*
X8665411Y-14480891D01*
X8665411Y-14480891D02*
X8674934Y-14471368D01*
X8674934Y-14471368D02*
X8693982Y-14461844D01*
X8846363Y-14642796D02*
X8855887Y-14652320D01*
X8855887Y-14652320D02*
X8846363Y-14661844D01*
X8846363Y-14661844D02*
X8836839Y-14652320D01*
X8836839Y-14652320D02*
X8846363Y-14642796D01*
X8846363Y-14642796D02*
X8846363Y-14661844D01*
X8922554Y-14461844D02*
X9046363Y-14461844D01*
X9046363Y-14461844D02*
X8979696Y-14538034D01*
X8979696Y-14538034D02*
X9008268Y-14538034D01*
X9008268Y-14538034D02*
X9027315Y-14547558D01*
X9027315Y-14547558D02*
X9036839Y-14557082D01*
X9036839Y-14557082D02*
X9046363Y-14576129D01*
X9046363Y-14576129D02*
X9046363Y-14623748D01*
X9046363Y-14623748D02*
X9036839Y-14642796D01*
X9036839Y-14642796D02*
X9027315Y-14652320D01*
X9027315Y-14652320D02*
X9008268Y-14661844D01*
X9008268Y-14661844D02*
X8951125Y-14661844D01*
X8951125Y-14661844D02*
X8932077Y-14652320D01*
X8932077Y-14652320D02*
X8922554Y-14642796D01*
X9170173Y-14461844D02*
X9189220Y-14461844D01*
X9189220Y-14461844D02*
X9208268Y-14471368D01*
X9208268Y-14471368D02*
X9217792Y-14480891D01*
X9217792Y-14480891D02*
X9227315Y-14499939D01*
X9227315Y-14499939D02*
X9236839Y-14538034D01*
X9236839Y-14538034D02*
X9236839Y-14585653D01*
X9236839Y-14585653D02*
X9227315Y-14623748D01*
X9227315Y-14623748D02*
X9217792Y-14642796D01*
X9217792Y-14642796D02*
X9208268Y-14652320D01*
X9208268Y-14652320D02*
X9189220Y-14661844D01*
X9189220Y-14661844D02*
X9170173Y-14661844D01*
X9170173Y-14661844D02*
X9151125Y-14652320D01*
X9151125Y-14652320D02*
X9141601Y-14642796D01*
X9141601Y-14642796D02*
X9132077Y-14623748D01*
X9132077Y-14623748D02*
X9122554Y-14585653D01*
X9122554Y-14585653D02*
X9122554Y-14538034D01*
X9122554Y-14538034D02*
X9132077Y-14499939D01*
X9132077Y-14499939D02*
X9141601Y-14480891D01*
X9141601Y-14480891D02*
X9151125Y-14471368D01*
X9151125Y-14471368D02*
X9170173Y-14461844D01*
X9360649Y-14461844D02*
X9379696Y-14461844D01*
X9379696Y-14461844D02*
X9398744Y-14471368D01*
X9398744Y-14471368D02*
X9408268Y-14480891D01*
X9408268Y-14480891D02*
X9417792Y-14499939D01*
X9417792Y-14499939D02*
X9427315Y-14538034D01*
X9427315Y-14538034D02*
X9427315Y-14585653D01*
X9427315Y-14585653D02*
X9417792Y-14623748D01*
X9417792Y-14623748D02*
X9408268Y-14642796D01*
X9408268Y-14642796D02*
X9398744Y-14652320D01*
X9398744Y-14652320D02*
X9379696Y-14661844D01*
X9379696Y-14661844D02*
X9360649Y-14661844D01*
X9360649Y-14661844D02*
X9341601Y-14652320D01*
X9341601Y-14652320D02*
X9332077Y-14642796D01*
X9332077Y-14642796D02*
X9322554Y-14623748D01*
X9322554Y-14623748D02*
X9313030Y-14585653D01*
X9313030Y-14585653D02*
X9313030Y-14538034D01*
X9313030Y-14538034D02*
X9322554Y-14499939D01*
X9322554Y-14499939D02*
X9332077Y-14480891D01*
X9332077Y-14480891D02*
X9341601Y-14471368D01*
X9341601Y-14471368D02*
X9360649Y-14461844D01*
X9513030Y-14661844D02*
X9513030Y-14528510D01*
X9513030Y-14547558D02*
X9522554Y-14538034D01*
X9522554Y-14538034D02*
X9541601Y-14528510D01*
X9541601Y-14528510D02*
X9570173Y-14528510D01*
X9570173Y-14528510D02*
X9589220Y-14538034D01*
X9589220Y-14538034D02*
X9598744Y-14557082D01*
X9598744Y-14557082D02*
X9598744Y-14661844D01*
X9598744Y-14557082D02*
X9608268Y-14538034D01*
X9608268Y-14538034D02*
X9627315Y-14528510D01*
X9627315Y-14528510D02*
X9655887Y-14528510D01*
X9655887Y-14528510D02*
X9674935Y-14538034D01*
X9674935Y-14538034D02*
X9684458Y-14557082D01*
X9684458Y-14557082D02*
X9684458Y-14661844D01*
X9779696Y-14661844D02*
X9779696Y-14528510D01*
X9779696Y-14547558D02*
X9789220Y-14538034D01*
X9789220Y-14538034D02*
X9808268Y-14528510D01*
X9808268Y-14528510D02*
X9836839Y-14528510D01*
X9836839Y-14528510D02*
X9855887Y-14538034D01*
X9855887Y-14538034D02*
X9865411Y-14557082D01*
X9865411Y-14557082D02*
X9865411Y-14661844D01*
X9865411Y-14557082D02*
X9874935Y-14538034D01*
X9874935Y-14538034D02*
X9893982Y-14528510D01*
X9893982Y-14528510D02*
X9922554Y-14528510D01*
X9922554Y-14528510D02*
X9941601Y-14538034D01*
X9941601Y-14538034D02*
X9951125Y-14557082D01*
X9951125Y-14557082D02*
X9951125Y-14661844D01*
X10341601Y-14452320D02*
X10170173Y-14709463D01*
X10598744Y-14461844D02*
X10617792Y-14461844D01*
X10617792Y-14461844D02*
X10636839Y-14471368D01*
X10636839Y-14471368D02*
X10646363Y-14480891D01*
X10646363Y-14480891D02*
X10655887Y-14499939D01*
X10655887Y-14499939D02*
X10665411Y-14538034D01*
X10665411Y-14538034D02*
X10665411Y-14585653D01*
X10665411Y-14585653D02*
X10655887Y-14623748D01*
X10655887Y-14623748D02*
X10646363Y-14642796D01*
X10646363Y-14642796D02*
X10636839Y-14652320D01*
X10636839Y-14652320D02*
X10617792Y-14661844D01*
X10617792Y-14661844D02*
X10598744Y-14661844D01*
X10598744Y-14661844D02*
X10579697Y-14652320D01*
X10579697Y-14652320D02*
X10570173Y-14642796D01*
X10570173Y-14642796D02*
X10560649Y-14623748D01*
X10560649Y-14623748D02*
X10551125Y-14585653D01*
X10551125Y-14585653D02*
X10551125Y-14538034D01*
X10551125Y-14538034D02*
X10560649Y-14499939D01*
X10560649Y-14499939D02*
X10570173Y-14480891D01*
X10570173Y-14480891D02*
X10579697Y-14471368D01*
X10579697Y-14471368D02*
X10598744Y-14461844D01*
X10751125Y-14642796D02*
X10760649Y-14652320D01*
X10760649Y-14652320D02*
X10751125Y-14661844D01*
X10751125Y-14661844D02*
X10741601Y-14652320D01*
X10741601Y-14652320D02*
X10751125Y-14642796D01*
X10751125Y-14642796D02*
X10751125Y-14661844D01*
X10884458Y-14461844D02*
X10903506Y-14461844D01*
X10903506Y-14461844D02*
X10922554Y-14471368D01*
X10922554Y-14471368D02*
X10932078Y-14480891D01*
X10932078Y-14480891D02*
X10941601Y-14499939D01*
X10941601Y-14499939D02*
X10951125Y-14538034D01*
X10951125Y-14538034D02*
X10951125Y-14585653D01*
X10951125Y-14585653D02*
X10941601Y-14623748D01*
X10941601Y-14623748D02*
X10932078Y-14642796D01*
X10932078Y-14642796D02*
X10922554Y-14652320D01*
X10922554Y-14652320D02*
X10903506Y-14661844D01*
X10903506Y-14661844D02*
X10884458Y-14661844D01*
X10884458Y-14661844D02*
X10865411Y-14652320D01*
X10865411Y-14652320D02*
X10855887Y-14642796D01*
X10855887Y-14642796D02*
X10846363Y-14623748D01*
X10846363Y-14623748D02*
X10836839Y-14585653D01*
X10836839Y-14585653D02*
X10836839Y-14538034D01*
X10836839Y-14538034D02*
X10846363Y-14499939D01*
X10846363Y-14499939D02*
X10855887Y-14480891D01*
X10855887Y-14480891D02*
X10865411Y-14471368D01*
X10865411Y-14471368D02*
X10884458Y-14461844D01*
X11141601Y-14661844D02*
X11027316Y-14661844D01*
X11084458Y-14661844D02*
X11084458Y-14461844D01*
X11084458Y-14461844D02*
X11065411Y-14490415D01*
X11065411Y-14490415D02*
X11046363Y-14509463D01*
X11046363Y-14509463D02*
X11027316Y-14518987D01*
X11332077Y-14661844D02*
X11217792Y-14661844D01*
X11274935Y-14661844D02*
X11274935Y-14461844D01*
X11274935Y-14461844D02*
X11255887Y-14490415D01*
X11255887Y-14490415D02*
X11236839Y-14509463D01*
X11236839Y-14509463D02*
X11217792Y-14518987D01*
X11446363Y-14547558D02*
X11427316Y-14538034D01*
X11427316Y-14538034D02*
X11417792Y-14528510D01*
X11417792Y-14528510D02*
X11408268Y-14509463D01*
X11408268Y-14509463D02*
X11408268Y-14499939D01*
X11408268Y-14499939D02*
X11417792Y-14480891D01*
X11417792Y-14480891D02*
X11427316Y-14471368D01*
X11427316Y-14471368D02*
X11446363Y-14461844D01*
X11446363Y-14461844D02*
X11484458Y-14461844D01*
X11484458Y-14461844D02*
X11503506Y-14471368D01*
X11503506Y-14471368D02*
X11513030Y-14480891D01*
X11513030Y-14480891D02*
X11522554Y-14499939D01*
X11522554Y-14499939D02*
X11522554Y-14509463D01*
X11522554Y-14509463D02*
X11513030Y-14528510D01*
X11513030Y-14528510D02*
X11503506Y-14538034D01*
X11503506Y-14538034D02*
X11484458Y-14547558D01*
X11484458Y-14547558D02*
X11446363Y-14547558D01*
X11446363Y-14547558D02*
X11427316Y-14557082D01*
X11427316Y-14557082D02*
X11417792Y-14566606D01*
X11417792Y-14566606D02*
X11408268Y-14585653D01*
X11408268Y-14585653D02*
X11408268Y-14623748D01*
X11408268Y-14623748D02*
X11417792Y-14642796D01*
X11417792Y-14642796D02*
X11427316Y-14652320D01*
X11427316Y-14652320D02*
X11446363Y-14661844D01*
X11446363Y-14661844D02*
X11484458Y-14661844D01*
X11484458Y-14661844D02*
X11503506Y-14652320D01*
X11503506Y-14652320D02*
X11513030Y-14642796D01*
X11513030Y-14642796D02*
X11522554Y-14623748D01*
X11522554Y-14623748D02*
X11522554Y-14585653D01*
X11522554Y-14585653D02*
X11513030Y-14566606D01*
X11513030Y-14566606D02*
X11503506Y-14557082D01*
X11503506Y-14557082D02*
X11484458Y-14547558D01*
X11598744Y-14461844D02*
X11598744Y-14499939D01*
X11674935Y-14461844D02*
X11674935Y-14499939D01*
X11970173Y-14738034D02*
X11960649Y-14728510D01*
X11960649Y-14728510D02*
X11941601Y-14699939D01*
X11941601Y-14699939D02*
X11932078Y-14680891D01*
X11932078Y-14680891D02*
X11922554Y-14652320D01*
X11922554Y-14652320D02*
X11913030Y-14604701D01*
X11913030Y-14604701D02*
X11913030Y-14566606D01*
X11913030Y-14566606D02*
X11922554Y-14518987D01*
X11922554Y-14518987D02*
X11932078Y-14490415D01*
X11932078Y-14490415D02*
X11941601Y-14471368D01*
X11941601Y-14471368D02*
X11960649Y-14442796D01*
X11960649Y-14442796D02*
X11970173Y-14433272D01*
X12027316Y-14461844D02*
X12151125Y-14461844D01*
X12151125Y-14461844D02*
X12084458Y-14538034D01*
X12084458Y-14538034D02*
X12113030Y-14538034D01*
X12113030Y-14538034D02*
X12132078Y-14547558D01*
X12132078Y-14547558D02*
X12141601Y-14557082D01*
X12141601Y-14557082D02*
X12151125Y-14576129D01*
X12151125Y-14576129D02*
X12151125Y-14623748D01*
X12151125Y-14623748D02*
X12141601Y-14642796D01*
X12141601Y-14642796D02*
X12132078Y-14652320D01*
X12132078Y-14652320D02*
X12113030Y-14661844D01*
X12113030Y-14661844D02*
X12055887Y-14661844D01*
X12055887Y-14661844D02*
X12036839Y-14652320D01*
X12036839Y-14652320D02*
X12027316Y-14642796D01*
X12389220Y-14661844D02*
X12389220Y-14461844D01*
X12474935Y-14661844D02*
X12474935Y-14557082D01*
X12474935Y-14557082D02*
X12465411Y-14538034D01*
X12465411Y-14538034D02*
X12446363Y-14528510D01*
X12446363Y-14528510D02*
X12417792Y-14528510D01*
X12417792Y-14528510D02*
X12398744Y-14538034D01*
X12398744Y-14538034D02*
X12389220Y-14547558D01*
X12598744Y-14661844D02*
X12579697Y-14652320D01*
X12579697Y-14652320D02*
X12570173Y-14642796D01*
X12570173Y-14642796D02*
X12560649Y-14623748D01*
X12560649Y-14623748D02*
X12560649Y-14566606D01*
X12560649Y-14566606D02*
X12570173Y-14547558D01*
X12570173Y-14547558D02*
X12579697Y-14538034D01*
X12579697Y-14538034D02*
X12598744Y-14528510D01*
X12598744Y-14528510D02*
X12627316Y-14528510D01*
X12627316Y-14528510D02*
X12646363Y-14538034D01*
X12646363Y-14538034D02*
X12655887Y-14547558D01*
X12655887Y-14547558D02*
X12665411Y-14566606D01*
X12665411Y-14566606D02*
X12665411Y-14623748D01*
X12665411Y-14623748D02*
X12655887Y-14642796D01*
X12655887Y-14642796D02*
X12646363Y-14652320D01*
X12646363Y-14652320D02*
X12627316Y-14661844D01*
X12627316Y-14661844D02*
X12598744Y-14661844D01*
X12779697Y-14661844D02*
X12760649Y-14652320D01*
X12760649Y-14652320D02*
X12751125Y-14633272D01*
X12751125Y-14633272D02*
X12751125Y-14461844D01*
X12932078Y-14652320D02*
X12913030Y-14661844D01*
X12913030Y-14661844D02*
X12874935Y-14661844D01*
X12874935Y-14661844D02*
X12855887Y-14652320D01*
X12855887Y-14652320D02*
X12846363Y-14633272D01*
X12846363Y-14633272D02*
X12846363Y-14557082D01*
X12846363Y-14557082D02*
X12855887Y-14538034D01*
X12855887Y-14538034D02*
X12874935Y-14528510D01*
X12874935Y-14528510D02*
X12913030Y-14528510D01*
X12913030Y-14528510D02*
X12932078Y-14538034D01*
X12932078Y-14538034D02*
X12941601Y-14557082D01*
X12941601Y-14557082D02*
X12941601Y-14576129D01*
X12941601Y-14576129D02*
X12846363Y-14595177D01*
X13017792Y-14652320D02*
X13036840Y-14661844D01*
X13036840Y-14661844D02*
X13074935Y-14661844D01*
X13074935Y-14661844D02*
X13093982Y-14652320D01*
X13093982Y-14652320D02*
X13103506Y-14633272D01*
X13103506Y-14633272D02*
X13103506Y-14623748D01*
X13103506Y-14623748D02*
X13093982Y-14604701D01*
X13093982Y-14604701D02*
X13074935Y-14595177D01*
X13074935Y-14595177D02*
X13046363Y-14595177D01*
X13046363Y-14595177D02*
X13027316Y-14585653D01*
X13027316Y-14585653D02*
X13017792Y-14566606D01*
X13017792Y-14566606D02*
X13017792Y-14557082D01*
X13017792Y-14557082D02*
X13027316Y-14538034D01*
X13027316Y-14538034D02*
X13046363Y-14528510D01*
X13046363Y-14528510D02*
X13074935Y-14528510D01*
X13074935Y-14528510D02*
X13093982Y-14538034D01*
X13170173Y-14738034D02*
X13179697Y-14728510D01*
X13179697Y-14728510D02*
X13198744Y-14699939D01*
X13198744Y-14699939D02*
X13208268Y-14680891D01*
X13208268Y-14680891D02*
X13217792Y-14652320D01*
X13217792Y-14652320D02*
X13227316Y-14604701D01*
X13227316Y-14604701D02*
X13227316Y-14566606D01*
X13227316Y-14566606D02*
X13217792Y-14518987D01*
X13217792Y-14518987D02*
X13208268Y-14490415D01*
X13208268Y-14490415D02*
X13198744Y-14471368D01*
X13198744Y-14471368D02*
X13179697Y-14442796D01*
X13179697Y-14442796D02*
X13170173Y-14433272D01*
D11*
X8395110Y-14834360D02*
G75*
G03*
X8355110Y-14834360I-20000J0D01*
G01*
X8355110Y-14834360D02*
G75*
G03*
X8395110Y-14834360I20000J0D01*
G01*
D12*
X8693982Y-14725844D02*
X8713030Y-14725844D01*
X8713030Y-14725844D02*
X8732077Y-14735368D01*
X8732077Y-14735368D02*
X8741601Y-14744891D01*
X8741601Y-14744891D02*
X8751125Y-14763939D01*
X8751125Y-14763939D02*
X8760649Y-14802034D01*
X8760649Y-14802034D02*
X8760649Y-14849653D01*
X8760649Y-14849653D02*
X8751125Y-14887748D01*
X8751125Y-14887748D02*
X8741601Y-14906796D01*
X8741601Y-14906796D02*
X8732077Y-14916320D01*
X8732077Y-14916320D02*
X8713030Y-14925844D01*
X8713030Y-14925844D02*
X8693982Y-14925844D01*
X8693982Y-14925844D02*
X8674934Y-14916320D01*
X8674934Y-14916320D02*
X8665411Y-14906796D01*
X8665411Y-14906796D02*
X8655887Y-14887748D01*
X8655887Y-14887748D02*
X8646363Y-14849653D01*
X8646363Y-14849653D02*
X8646363Y-14802034D01*
X8646363Y-14802034D02*
X8655887Y-14763939D01*
X8655887Y-14763939D02*
X8665411Y-14744891D01*
X8665411Y-14744891D02*
X8674934Y-14735368D01*
X8674934Y-14735368D02*
X8693982Y-14725844D01*
X8846363Y-14906796D02*
X8855887Y-14916320D01*
X8855887Y-14916320D02*
X8846363Y-14925844D01*
X8846363Y-14925844D02*
X8836839Y-14916320D01*
X8836839Y-14916320D02*
X8846363Y-14906796D01*
X8846363Y-14906796D02*
X8846363Y-14925844D01*
X9027315Y-14792510D02*
X9027315Y-14925844D01*
X8979696Y-14716320D02*
X8932077Y-14859177D01*
X8932077Y-14859177D02*
X9055887Y-14859177D01*
X9170173Y-14725844D02*
X9189220Y-14725844D01*
X9189220Y-14725844D02*
X9208268Y-14735368D01*
X9208268Y-14735368D02*
X9217792Y-14744891D01*
X9217792Y-14744891D02*
X9227315Y-14763939D01*
X9227315Y-14763939D02*
X9236839Y-14802034D01*
X9236839Y-14802034D02*
X9236839Y-14849653D01*
X9236839Y-14849653D02*
X9227315Y-14887748D01*
X9227315Y-14887748D02*
X9217792Y-14906796D01*
X9217792Y-14906796D02*
X9208268Y-14916320D01*
X9208268Y-14916320D02*
X9189220Y-14925844D01*
X9189220Y-14925844D02*
X9170173Y-14925844D01*
X9170173Y-14925844D02*
X9151125Y-14916320D01*
X9151125Y-14916320D02*
X9141601Y-14906796D01*
X9141601Y-14906796D02*
X9132077Y-14887748D01*
X9132077Y-14887748D02*
X9122554Y-14849653D01*
X9122554Y-14849653D02*
X9122554Y-14802034D01*
X9122554Y-14802034D02*
X9132077Y-14763939D01*
X9132077Y-14763939D02*
X9141601Y-14744891D01*
X9141601Y-14744891D02*
X9151125Y-14735368D01*
X9151125Y-14735368D02*
X9170173Y-14725844D01*
X9360649Y-14725844D02*
X9379696Y-14725844D01*
X9379696Y-14725844D02*
X9398744Y-14735368D01*
X9398744Y-14735368D02*
X9408268Y-14744891D01*
X9408268Y-14744891D02*
X9417792Y-14763939D01*
X9417792Y-14763939D02*
X9427315Y-14802034D01*
X9427315Y-14802034D02*
X9427315Y-14849653D01*
X9427315Y-14849653D02*
X9417792Y-14887748D01*
X9417792Y-14887748D02*
X9408268Y-14906796D01*
X9408268Y-14906796D02*
X9398744Y-14916320D01*
X9398744Y-14916320D02*
X9379696Y-14925844D01*
X9379696Y-14925844D02*
X9360649Y-14925844D01*
X9360649Y-14925844D02*
X9341601Y-14916320D01*
X9341601Y-14916320D02*
X9332077Y-14906796D01*
X9332077Y-14906796D02*
X9322554Y-14887748D01*
X9322554Y-14887748D02*
X9313030Y-14849653D01*
X9313030Y-14849653D02*
X9313030Y-14802034D01*
X9313030Y-14802034D02*
X9322554Y-14763939D01*
X9322554Y-14763939D02*
X9332077Y-14744891D01*
X9332077Y-14744891D02*
X9341601Y-14735368D01*
X9341601Y-14735368D02*
X9360649Y-14725844D01*
X9513030Y-14925844D02*
X9513030Y-14792510D01*
X9513030Y-14811558D02*
X9522554Y-14802034D01*
X9522554Y-14802034D02*
X9541601Y-14792510D01*
X9541601Y-14792510D02*
X9570173Y-14792510D01*
X9570173Y-14792510D02*
X9589220Y-14802034D01*
X9589220Y-14802034D02*
X9598744Y-14821082D01*
X9598744Y-14821082D02*
X9598744Y-14925844D01*
X9598744Y-14821082D02*
X9608268Y-14802034D01*
X9608268Y-14802034D02*
X9627315Y-14792510D01*
X9627315Y-14792510D02*
X9655887Y-14792510D01*
X9655887Y-14792510D02*
X9674935Y-14802034D01*
X9674935Y-14802034D02*
X9684458Y-14821082D01*
X9684458Y-14821082D02*
X9684458Y-14925844D01*
X9779696Y-14925844D02*
X9779696Y-14792510D01*
X9779696Y-14811558D02*
X9789220Y-14802034D01*
X9789220Y-14802034D02*
X9808268Y-14792510D01*
X9808268Y-14792510D02*
X9836839Y-14792510D01*
X9836839Y-14792510D02*
X9855887Y-14802034D01*
X9855887Y-14802034D02*
X9865411Y-14821082D01*
X9865411Y-14821082D02*
X9865411Y-14925844D01*
X9865411Y-14821082D02*
X9874935Y-14802034D01*
X9874935Y-14802034D02*
X9893982Y-14792510D01*
X9893982Y-14792510D02*
X9922554Y-14792510D01*
X9922554Y-14792510D02*
X9941601Y-14802034D01*
X9941601Y-14802034D02*
X9951125Y-14821082D01*
X9951125Y-14821082D02*
X9951125Y-14925844D01*
X10341601Y-14716320D02*
X10170173Y-14973463D01*
X10598744Y-14725844D02*
X10617792Y-14725844D01*
X10617792Y-14725844D02*
X10636839Y-14735368D01*
X10636839Y-14735368D02*
X10646363Y-14744891D01*
X10646363Y-14744891D02*
X10655887Y-14763939D01*
X10655887Y-14763939D02*
X10665411Y-14802034D01*
X10665411Y-14802034D02*
X10665411Y-14849653D01*
X10665411Y-14849653D02*
X10655887Y-14887748D01*
X10655887Y-14887748D02*
X10646363Y-14906796D01*
X10646363Y-14906796D02*
X10636839Y-14916320D01*
X10636839Y-14916320D02*
X10617792Y-14925844D01*
X10617792Y-14925844D02*
X10598744Y-14925844D01*
X10598744Y-14925844D02*
X10579697Y-14916320D01*
X10579697Y-14916320D02*
X10570173Y-14906796D01*
X10570173Y-14906796D02*
X10560649Y-14887748D01*
X10560649Y-14887748D02*
X10551125Y-14849653D01*
X10551125Y-14849653D02*
X10551125Y-14802034D01*
X10551125Y-14802034D02*
X10560649Y-14763939D01*
X10560649Y-14763939D02*
X10570173Y-14744891D01*
X10570173Y-14744891D02*
X10579697Y-14735368D01*
X10579697Y-14735368D02*
X10598744Y-14725844D01*
X10751125Y-14906796D02*
X10760649Y-14916320D01*
X10760649Y-14916320D02*
X10751125Y-14925844D01*
X10751125Y-14925844D02*
X10741601Y-14916320D01*
X10741601Y-14916320D02*
X10751125Y-14906796D01*
X10751125Y-14906796D02*
X10751125Y-14925844D01*
X10884458Y-14725844D02*
X10903506Y-14725844D01*
X10903506Y-14725844D02*
X10922554Y-14735368D01*
X10922554Y-14735368D02*
X10932078Y-14744891D01*
X10932078Y-14744891D02*
X10941601Y-14763939D01*
X10941601Y-14763939D02*
X10951125Y-14802034D01*
X10951125Y-14802034D02*
X10951125Y-14849653D01*
X10951125Y-14849653D02*
X10941601Y-14887748D01*
X10941601Y-14887748D02*
X10932078Y-14906796D01*
X10932078Y-14906796D02*
X10922554Y-14916320D01*
X10922554Y-14916320D02*
X10903506Y-14925844D01*
X10903506Y-14925844D02*
X10884458Y-14925844D01*
X10884458Y-14925844D02*
X10865411Y-14916320D01*
X10865411Y-14916320D02*
X10855887Y-14906796D01*
X10855887Y-14906796D02*
X10846363Y-14887748D01*
X10846363Y-14887748D02*
X10836839Y-14849653D01*
X10836839Y-14849653D02*
X10836839Y-14802034D01*
X10836839Y-14802034D02*
X10846363Y-14763939D01*
X10846363Y-14763939D02*
X10855887Y-14744891D01*
X10855887Y-14744891D02*
X10865411Y-14735368D01*
X10865411Y-14735368D02*
X10884458Y-14725844D01*
X11141601Y-14925844D02*
X11027316Y-14925844D01*
X11084458Y-14925844D02*
X11084458Y-14725844D01*
X11084458Y-14725844D02*
X11065411Y-14754415D01*
X11065411Y-14754415D02*
X11046363Y-14773463D01*
X11046363Y-14773463D02*
X11027316Y-14782987D01*
X11322554Y-14725844D02*
X11227316Y-14725844D01*
X11227316Y-14725844D02*
X11217792Y-14821082D01*
X11217792Y-14821082D02*
X11227316Y-14811558D01*
X11227316Y-14811558D02*
X11246363Y-14802034D01*
X11246363Y-14802034D02*
X11293982Y-14802034D01*
X11293982Y-14802034D02*
X11313030Y-14811558D01*
X11313030Y-14811558D02*
X11322554Y-14821082D01*
X11322554Y-14821082D02*
X11332077Y-14840129D01*
X11332077Y-14840129D02*
X11332077Y-14887748D01*
X11332077Y-14887748D02*
X11322554Y-14906796D01*
X11322554Y-14906796D02*
X11313030Y-14916320D01*
X11313030Y-14916320D02*
X11293982Y-14925844D01*
X11293982Y-14925844D02*
X11246363Y-14925844D01*
X11246363Y-14925844D02*
X11227316Y-14916320D01*
X11227316Y-14916320D02*
X11217792Y-14906796D01*
X11398744Y-14725844D02*
X11532077Y-14725844D01*
X11532077Y-14725844D02*
X11446363Y-14925844D01*
X11598744Y-14725844D02*
X11598744Y-14763939D01*
X11674935Y-14725844D02*
X11674935Y-14763939D01*
X11970173Y-15002034D02*
X11960649Y-14992510D01*
X11960649Y-14992510D02*
X11941601Y-14963939D01*
X11941601Y-14963939D02*
X11932078Y-14944891D01*
X11932078Y-14944891D02*
X11922554Y-14916320D01*
X11922554Y-14916320D02*
X11913030Y-14868701D01*
X11913030Y-14868701D02*
X11913030Y-14830606D01*
X11913030Y-14830606D02*
X11922554Y-14782987D01*
X11922554Y-14782987D02*
X11932078Y-14754415D01*
X11932078Y-14754415D02*
X11941601Y-14735368D01*
X11941601Y-14735368D02*
X11960649Y-14706796D01*
X11960649Y-14706796D02*
X11970173Y-14697272D01*
X12036839Y-14744891D02*
X12046363Y-14735368D01*
X12046363Y-14735368D02*
X12065411Y-14725844D01*
X12065411Y-14725844D02*
X12113030Y-14725844D01*
X12113030Y-14725844D02*
X12132078Y-14735368D01*
X12132078Y-14735368D02*
X12141601Y-14744891D01*
X12141601Y-14744891D02*
X12151125Y-14763939D01*
X12151125Y-14763939D02*
X12151125Y-14782987D01*
X12151125Y-14782987D02*
X12141601Y-14811558D01*
X12141601Y-14811558D02*
X12027316Y-14925844D01*
X12027316Y-14925844D02*
X12151125Y-14925844D01*
X12217792Y-14725844D02*
X12341601Y-14725844D01*
X12341601Y-14725844D02*
X12274935Y-14802034D01*
X12274935Y-14802034D02*
X12303506Y-14802034D01*
X12303506Y-14802034D02*
X12322554Y-14811558D01*
X12322554Y-14811558D02*
X12332078Y-14821082D01*
X12332078Y-14821082D02*
X12341601Y-14840129D01*
X12341601Y-14840129D02*
X12341601Y-14887748D01*
X12341601Y-14887748D02*
X12332078Y-14906796D01*
X12332078Y-14906796D02*
X12322554Y-14916320D01*
X12322554Y-14916320D02*
X12303506Y-14925844D01*
X12303506Y-14925844D02*
X12246363Y-14925844D01*
X12246363Y-14925844D02*
X12227316Y-14916320D01*
X12227316Y-14916320D02*
X12217792Y-14906796D01*
X12513030Y-14792510D02*
X12513030Y-14925844D01*
X12465411Y-14716320D02*
X12417792Y-14859177D01*
X12417792Y-14859177D02*
X12541601Y-14859177D01*
X12770173Y-14925844D02*
X12770173Y-14725844D01*
X12855887Y-14925844D02*
X12855887Y-14821082D01*
X12855887Y-14821082D02*
X12846363Y-14802034D01*
X12846363Y-14802034D02*
X12827316Y-14792510D01*
X12827316Y-14792510D02*
X12798744Y-14792510D01*
X12798744Y-14792510D02*
X12779697Y-14802034D01*
X12779697Y-14802034D02*
X12770173Y-14811558D01*
X12979697Y-14925844D02*
X12960649Y-14916320D01*
X12960649Y-14916320D02*
X12951125Y-14906796D01*
X12951125Y-14906796D02*
X12941601Y-14887748D01*
X12941601Y-14887748D02*
X12941601Y-14830606D01*
X12941601Y-14830606D02*
X12951125Y-14811558D01*
X12951125Y-14811558D02*
X12960649Y-14802034D01*
X12960649Y-14802034D02*
X12979697Y-14792510D01*
X12979697Y-14792510D02*
X13008268Y-14792510D01*
X13008268Y-14792510D02*
X13027316Y-14802034D01*
X13027316Y-14802034D02*
X13036840Y-14811558D01*
X13036840Y-14811558D02*
X13046363Y-14830606D01*
X13046363Y-14830606D02*
X13046363Y-14887748D01*
X13046363Y-14887748D02*
X13036840Y-14906796D01*
X13036840Y-14906796D02*
X13027316Y-14916320D01*
X13027316Y-14916320D02*
X13008268Y-14925844D01*
X13008268Y-14925844D02*
X12979697Y-14925844D01*
X13160649Y-14925844D02*
X13141601Y-14916320D01*
X13141601Y-14916320D02*
X13132078Y-14897272D01*
X13132078Y-14897272D02*
X13132078Y-14725844D01*
X13313030Y-14916320D02*
X13293982Y-14925844D01*
X13293982Y-14925844D02*
X13255887Y-14925844D01*
X13255887Y-14925844D02*
X13236840Y-14916320D01*
X13236840Y-14916320D02*
X13227316Y-14897272D01*
X13227316Y-14897272D02*
X13227316Y-14821082D01*
X13227316Y-14821082D02*
X13236840Y-14802034D01*
X13236840Y-14802034D02*
X13255887Y-14792510D01*
X13255887Y-14792510D02*
X13293982Y-14792510D01*
X13293982Y-14792510D02*
X13313030Y-14802034D01*
X13313030Y-14802034D02*
X13322554Y-14821082D01*
X13322554Y-14821082D02*
X13322554Y-14840129D01*
X13322554Y-14840129D02*
X13227316Y-14859177D01*
X13398744Y-14916320D02*
X13417792Y-14925844D01*
X13417792Y-14925844D02*
X13455887Y-14925844D01*
X13455887Y-14925844D02*
X13474935Y-14916320D01*
X13474935Y-14916320D02*
X13484459Y-14897272D01*
X13484459Y-14897272D02*
X13484459Y-14887748D01*
X13484459Y-14887748D02*
X13474935Y-14868701D01*
X13474935Y-14868701D02*
X13455887Y-14859177D01*
X13455887Y-14859177D02*
X13427316Y-14859177D01*
X13427316Y-14859177D02*
X13408268Y-14849653D01*
X13408268Y-14849653D02*
X13398744Y-14830606D01*
X13398744Y-14830606D02*
X13398744Y-14821082D01*
X13398744Y-14821082D02*
X13408268Y-14802034D01*
X13408268Y-14802034D02*
X13427316Y-14792510D01*
X13427316Y-14792510D02*
X13455887Y-14792510D01*
X13455887Y-14792510D02*
X13474935Y-14802034D01*
X13551125Y-15002034D02*
X13560649Y-14992510D01*
X13560649Y-14992510D02*
X13579697Y-14963939D01*
X13579697Y-14963939D02*
X13589221Y-14944891D01*
X13589221Y-14944891D02*
X13598744Y-14916320D01*
X13598744Y-14916320D02*
X13608268Y-14868701D01*
X13608268Y-14868701D02*
X13608268Y-14830606D01*
X13608268Y-14830606D02*
X13598744Y-14782987D01*
X13598744Y-14782987D02*
X13589221Y-14754415D01*
X13589221Y-14754415D02*
X13579697Y-14735368D01*
X13579697Y-14735368D02*
X13560649Y-14706796D01*
X13560649Y-14706796D02*
X13551125Y-14697272D01*
D11*
X8364630Y-15067880D02*
X8364630Y-15128840D01*
X8334150Y-15098360D02*
X8395110Y-15098360D01*
D12*
X8693982Y-14989844D02*
X8713030Y-14989844D01*
X8713030Y-14989844D02*
X8732077Y-14999368D01*
X8732077Y-14999368D02*
X8741601Y-15008891D01*
X8741601Y-15008891D02*
X8751125Y-15027939D01*
X8751125Y-15027939D02*
X8760649Y-15066034D01*
X8760649Y-15066034D02*
X8760649Y-15113653D01*
X8760649Y-15113653D02*
X8751125Y-15151748D01*
X8751125Y-15151748D02*
X8741601Y-15170796D01*
X8741601Y-15170796D02*
X8732077Y-15180320D01*
X8732077Y-15180320D02*
X8713030Y-15189844D01*
X8713030Y-15189844D02*
X8693982Y-15189844D01*
X8693982Y-15189844D02*
X8674934Y-15180320D01*
X8674934Y-15180320D02*
X8665411Y-15170796D01*
X8665411Y-15170796D02*
X8655887Y-15151748D01*
X8655887Y-15151748D02*
X8646363Y-15113653D01*
X8646363Y-15113653D02*
X8646363Y-15066034D01*
X8646363Y-15066034D02*
X8655887Y-15027939D01*
X8655887Y-15027939D02*
X8665411Y-15008891D01*
X8665411Y-15008891D02*
X8674934Y-14999368D01*
X8674934Y-14999368D02*
X8693982Y-14989844D01*
X8846363Y-15170796D02*
X8855887Y-15180320D01*
X8855887Y-15180320D02*
X8846363Y-15189844D01*
X8846363Y-15189844D02*
X8836839Y-15180320D01*
X8836839Y-15180320D02*
X8846363Y-15170796D01*
X8846363Y-15170796D02*
X8846363Y-15189844D01*
X9027315Y-14989844D02*
X8989220Y-14989844D01*
X8989220Y-14989844D02*
X8970173Y-14999368D01*
X8970173Y-14999368D02*
X8960649Y-15008891D01*
X8960649Y-15008891D02*
X8941601Y-15037463D01*
X8941601Y-15037463D02*
X8932077Y-15075558D01*
X8932077Y-15075558D02*
X8932077Y-15151748D01*
X8932077Y-15151748D02*
X8941601Y-15170796D01*
X8941601Y-15170796D02*
X8951125Y-15180320D01*
X8951125Y-15180320D02*
X8970173Y-15189844D01*
X8970173Y-15189844D02*
X9008268Y-15189844D01*
X9008268Y-15189844D02*
X9027315Y-15180320D01*
X9027315Y-15180320D02*
X9036839Y-15170796D01*
X9036839Y-15170796D02*
X9046363Y-15151748D01*
X9046363Y-15151748D02*
X9046363Y-15104129D01*
X9046363Y-15104129D02*
X9036839Y-15085082D01*
X9036839Y-15085082D02*
X9027315Y-15075558D01*
X9027315Y-15075558D02*
X9008268Y-15066034D01*
X9008268Y-15066034D02*
X8970173Y-15066034D01*
X8970173Y-15066034D02*
X8951125Y-15075558D01*
X8951125Y-15075558D02*
X8941601Y-15085082D01*
X8941601Y-15085082D02*
X8932077Y-15104129D01*
X9236839Y-15189844D02*
X9122554Y-15189844D01*
X9179696Y-15189844D02*
X9179696Y-14989844D01*
X9179696Y-14989844D02*
X9160649Y-15018415D01*
X9160649Y-15018415D02*
X9141601Y-15037463D01*
X9141601Y-15037463D02*
X9122554Y-15046987D01*
X9360649Y-14989844D02*
X9379696Y-14989844D01*
X9379696Y-14989844D02*
X9398744Y-14999368D01*
X9398744Y-14999368D02*
X9408268Y-15008891D01*
X9408268Y-15008891D02*
X9417792Y-15027939D01*
X9417792Y-15027939D02*
X9427315Y-15066034D01*
X9427315Y-15066034D02*
X9427315Y-15113653D01*
X9427315Y-15113653D02*
X9417792Y-15151748D01*
X9417792Y-15151748D02*
X9408268Y-15170796D01*
X9408268Y-15170796D02*
X9398744Y-15180320D01*
X9398744Y-15180320D02*
X9379696Y-15189844D01*
X9379696Y-15189844D02*
X9360649Y-15189844D01*
X9360649Y-15189844D02*
X9341601Y-15180320D01*
X9341601Y-15180320D02*
X9332077Y-15170796D01*
X9332077Y-15170796D02*
X9322554Y-15151748D01*
X9322554Y-15151748D02*
X9313030Y-15113653D01*
X9313030Y-15113653D02*
X9313030Y-15066034D01*
X9313030Y-15066034D02*
X9322554Y-15027939D01*
X9322554Y-15027939D02*
X9332077Y-15008891D01*
X9332077Y-15008891D02*
X9341601Y-14999368D01*
X9341601Y-14999368D02*
X9360649Y-14989844D01*
X9513030Y-15189844D02*
X9513030Y-15056510D01*
X9513030Y-15075558D02*
X9522554Y-15066034D01*
X9522554Y-15066034D02*
X9541601Y-15056510D01*
X9541601Y-15056510D02*
X9570173Y-15056510D01*
X9570173Y-15056510D02*
X9589220Y-15066034D01*
X9589220Y-15066034D02*
X9598744Y-15085082D01*
X9598744Y-15085082D02*
X9598744Y-15189844D01*
X9598744Y-15085082D02*
X9608268Y-15066034D01*
X9608268Y-15066034D02*
X9627315Y-15056510D01*
X9627315Y-15056510D02*
X9655887Y-15056510D01*
X9655887Y-15056510D02*
X9674935Y-15066034D01*
X9674935Y-15066034D02*
X9684458Y-15085082D01*
X9684458Y-15085082D02*
X9684458Y-15189844D01*
X9779696Y-15189844D02*
X9779696Y-15056510D01*
X9779696Y-15075558D02*
X9789220Y-15066034D01*
X9789220Y-15066034D02*
X9808268Y-15056510D01*
X9808268Y-15056510D02*
X9836839Y-15056510D01*
X9836839Y-15056510D02*
X9855887Y-15066034D01*
X9855887Y-15066034D02*
X9865411Y-15085082D01*
X9865411Y-15085082D02*
X9865411Y-15189844D01*
X9865411Y-15085082D02*
X9874935Y-15066034D01*
X9874935Y-15066034D02*
X9893982Y-15056510D01*
X9893982Y-15056510D02*
X9922554Y-15056510D01*
X9922554Y-15056510D02*
X9941601Y-15066034D01*
X9941601Y-15066034D02*
X9951125Y-15085082D01*
X9951125Y-15085082D02*
X9951125Y-15189844D01*
X10341601Y-14980320D02*
X10170173Y-15237463D01*
X10598744Y-14989844D02*
X10617792Y-14989844D01*
X10617792Y-14989844D02*
X10636839Y-14999368D01*
X10636839Y-14999368D02*
X10646363Y-15008891D01*
X10646363Y-15008891D02*
X10655887Y-15027939D01*
X10655887Y-15027939D02*
X10665411Y-15066034D01*
X10665411Y-15066034D02*
X10665411Y-15113653D01*
X10665411Y-15113653D02*
X10655887Y-15151748D01*
X10655887Y-15151748D02*
X10646363Y-15170796D01*
X10646363Y-15170796D02*
X10636839Y-15180320D01*
X10636839Y-15180320D02*
X10617792Y-15189844D01*
X10617792Y-15189844D02*
X10598744Y-15189844D01*
X10598744Y-15189844D02*
X10579697Y-15180320D01*
X10579697Y-15180320D02*
X10570173Y-15170796D01*
X10570173Y-15170796D02*
X10560649Y-15151748D01*
X10560649Y-15151748D02*
X10551125Y-15113653D01*
X10551125Y-15113653D02*
X10551125Y-15066034D01*
X10551125Y-15066034D02*
X10560649Y-15027939D01*
X10560649Y-15027939D02*
X10570173Y-15008891D01*
X10570173Y-15008891D02*
X10579697Y-14999368D01*
X10579697Y-14999368D02*
X10598744Y-14989844D01*
X10751125Y-15170796D02*
X10760649Y-15180320D01*
X10760649Y-15180320D02*
X10751125Y-15189844D01*
X10751125Y-15189844D02*
X10741601Y-15180320D01*
X10741601Y-15180320D02*
X10751125Y-15170796D01*
X10751125Y-15170796D02*
X10751125Y-15189844D01*
X10884458Y-14989844D02*
X10903506Y-14989844D01*
X10903506Y-14989844D02*
X10922554Y-14999368D01*
X10922554Y-14999368D02*
X10932078Y-15008891D01*
X10932078Y-15008891D02*
X10941601Y-15027939D01*
X10941601Y-15027939D02*
X10951125Y-15066034D01*
X10951125Y-15066034D02*
X10951125Y-15113653D01*
X10951125Y-15113653D02*
X10941601Y-15151748D01*
X10941601Y-15151748D02*
X10932078Y-15170796D01*
X10932078Y-15170796D02*
X10922554Y-15180320D01*
X10922554Y-15180320D02*
X10903506Y-15189844D01*
X10903506Y-15189844D02*
X10884458Y-15189844D01*
X10884458Y-15189844D02*
X10865411Y-15180320D01*
X10865411Y-15180320D02*
X10855887Y-15170796D01*
X10855887Y-15170796D02*
X10846363Y-15151748D01*
X10846363Y-15151748D02*
X10836839Y-15113653D01*
X10836839Y-15113653D02*
X10836839Y-15066034D01*
X10836839Y-15066034D02*
X10846363Y-15027939D01*
X10846363Y-15027939D02*
X10855887Y-15008891D01*
X10855887Y-15008891D02*
X10865411Y-14999368D01*
X10865411Y-14999368D02*
X10884458Y-14989844D01*
X11027316Y-15008891D02*
X11036839Y-14999368D01*
X11036839Y-14999368D02*
X11055887Y-14989844D01*
X11055887Y-14989844D02*
X11103506Y-14989844D01*
X11103506Y-14989844D02*
X11122554Y-14999368D01*
X11122554Y-14999368D02*
X11132078Y-15008891D01*
X11132078Y-15008891D02*
X11141601Y-15027939D01*
X11141601Y-15027939D02*
X11141601Y-15046987D01*
X11141601Y-15046987D02*
X11132078Y-15075558D01*
X11132078Y-15075558D02*
X11017792Y-15189844D01*
X11017792Y-15189844D02*
X11141601Y-15189844D01*
X11313030Y-15056510D02*
X11313030Y-15189844D01*
X11265411Y-14980320D02*
X11217792Y-15123177D01*
X11217792Y-15123177D02*
X11341601Y-15123177D01*
X11455887Y-14989844D02*
X11474935Y-14989844D01*
X11474935Y-14989844D02*
X11493982Y-14999368D01*
X11493982Y-14999368D02*
X11503506Y-15008891D01*
X11503506Y-15008891D02*
X11513030Y-15027939D01*
X11513030Y-15027939D02*
X11522554Y-15066034D01*
X11522554Y-15066034D02*
X11522554Y-15113653D01*
X11522554Y-15113653D02*
X11513030Y-15151748D01*
X11513030Y-15151748D02*
X11503506Y-15170796D01*
X11503506Y-15170796D02*
X11493982Y-15180320D01*
X11493982Y-15180320D02*
X11474935Y-15189844D01*
X11474935Y-15189844D02*
X11455887Y-15189844D01*
X11455887Y-15189844D02*
X11436839Y-15180320D01*
X11436839Y-15180320D02*
X11427316Y-15170796D01*
X11427316Y-15170796D02*
X11417792Y-15151748D01*
X11417792Y-15151748D02*
X11408268Y-15113653D01*
X11408268Y-15113653D02*
X11408268Y-15066034D01*
X11408268Y-15066034D02*
X11417792Y-15027939D01*
X11417792Y-15027939D02*
X11427316Y-15008891D01*
X11427316Y-15008891D02*
X11436839Y-14999368D01*
X11436839Y-14999368D02*
X11455887Y-14989844D01*
X11598744Y-14989844D02*
X11598744Y-15027939D01*
X11674935Y-14989844D02*
X11674935Y-15027939D01*
X11970173Y-15266034D02*
X11960649Y-15256510D01*
X11960649Y-15256510D02*
X11941601Y-15227939D01*
X11941601Y-15227939D02*
X11932078Y-15208891D01*
X11932078Y-15208891D02*
X11922554Y-15180320D01*
X11922554Y-15180320D02*
X11913030Y-15132701D01*
X11913030Y-15132701D02*
X11913030Y-15094606D01*
X11913030Y-15094606D02*
X11922554Y-15046987D01*
X11922554Y-15046987D02*
X11932078Y-15018415D01*
X11932078Y-15018415D02*
X11941601Y-14999368D01*
X11941601Y-14999368D02*
X11960649Y-14970796D01*
X11960649Y-14970796D02*
X11970173Y-14961272D01*
X12027316Y-14989844D02*
X12160649Y-14989844D01*
X12160649Y-14989844D02*
X12074935Y-15189844D01*
X12389220Y-15189844D02*
X12389220Y-14989844D01*
X12474935Y-15189844D02*
X12474935Y-15085082D01*
X12474935Y-15085082D02*
X12465411Y-15066034D01*
X12465411Y-15066034D02*
X12446363Y-15056510D01*
X12446363Y-15056510D02*
X12417792Y-15056510D01*
X12417792Y-15056510D02*
X12398744Y-15066034D01*
X12398744Y-15066034D02*
X12389220Y-15075558D01*
X12598744Y-15189844D02*
X12579697Y-15180320D01*
X12579697Y-15180320D02*
X12570173Y-15170796D01*
X12570173Y-15170796D02*
X12560649Y-15151748D01*
X12560649Y-15151748D02*
X12560649Y-15094606D01*
X12560649Y-15094606D02*
X12570173Y-15075558D01*
X12570173Y-15075558D02*
X12579697Y-15066034D01*
X12579697Y-15066034D02*
X12598744Y-15056510D01*
X12598744Y-15056510D02*
X12627316Y-15056510D01*
X12627316Y-15056510D02*
X12646363Y-15066034D01*
X12646363Y-15066034D02*
X12655887Y-15075558D01*
X12655887Y-15075558D02*
X12665411Y-15094606D01*
X12665411Y-15094606D02*
X12665411Y-15151748D01*
X12665411Y-15151748D02*
X12655887Y-15170796D01*
X12655887Y-15170796D02*
X12646363Y-15180320D01*
X12646363Y-15180320D02*
X12627316Y-15189844D01*
X12627316Y-15189844D02*
X12598744Y-15189844D01*
X12779697Y-15189844D02*
X12760649Y-15180320D01*
X12760649Y-15180320D02*
X12751125Y-15161272D01*
X12751125Y-15161272D02*
X12751125Y-14989844D01*
X12932078Y-15180320D02*
X12913030Y-15189844D01*
X12913030Y-15189844D02*
X12874935Y-15189844D01*
X12874935Y-15189844D02*
X12855887Y-15180320D01*
X12855887Y-15180320D02*
X12846363Y-15161272D01*
X12846363Y-15161272D02*
X12846363Y-15085082D01*
X12846363Y-15085082D02*
X12855887Y-15066034D01*
X12855887Y-15066034D02*
X12874935Y-15056510D01*
X12874935Y-15056510D02*
X12913030Y-15056510D01*
X12913030Y-15056510D02*
X12932078Y-15066034D01*
X12932078Y-15066034D02*
X12941601Y-15085082D01*
X12941601Y-15085082D02*
X12941601Y-15104129D01*
X12941601Y-15104129D02*
X12846363Y-15123177D01*
X13017792Y-15180320D02*
X13036840Y-15189844D01*
X13036840Y-15189844D02*
X13074935Y-15189844D01*
X13074935Y-15189844D02*
X13093982Y-15180320D01*
X13093982Y-15180320D02*
X13103506Y-15161272D01*
X13103506Y-15161272D02*
X13103506Y-15151748D01*
X13103506Y-15151748D02*
X13093982Y-15132701D01*
X13093982Y-15132701D02*
X13074935Y-15123177D01*
X13074935Y-15123177D02*
X13046363Y-15123177D01*
X13046363Y-15123177D02*
X13027316Y-15113653D01*
X13027316Y-15113653D02*
X13017792Y-15094606D01*
X13017792Y-15094606D02*
X13017792Y-15085082D01*
X13017792Y-15085082D02*
X13027316Y-15066034D01*
X13027316Y-15066034D02*
X13046363Y-15056510D01*
X13046363Y-15056510D02*
X13074935Y-15056510D01*
X13074935Y-15056510D02*
X13093982Y-15066034D01*
X13170173Y-15266034D02*
X13179697Y-15256510D01*
X13179697Y-15256510D02*
X13198744Y-15227939D01*
X13198744Y-15227939D02*
X13208268Y-15208891D01*
X13208268Y-15208891D02*
X13217792Y-15180320D01*
X13217792Y-15180320D02*
X13227316Y-15132701D01*
X13227316Y-15132701D02*
X13227316Y-15094606D01*
X13227316Y-15094606D02*
X13217792Y-15046987D01*
X13217792Y-15046987D02*
X13208268Y-15018415D01*
X13208268Y-15018415D02*
X13198744Y-14999368D01*
X13198744Y-14999368D02*
X13179697Y-14970796D01*
X13179697Y-14970796D02*
X13170173Y-14961272D01*
D11*
X8383394Y-15390644D02*
X8383394Y-15334075D01*
X8326825Y-15334075D01*
X8326825Y-15390644D01*
X8383394Y-15390644D01*
D12*
X8693982Y-15253844D02*
X8713030Y-15253844D01*
X8713030Y-15253844D02*
X8732077Y-15263368D01*
X8732077Y-15263368D02*
X8741601Y-15272891D01*
X8741601Y-15272891D02*
X8751125Y-15291939D01*
X8751125Y-15291939D02*
X8760649Y-15330034D01*
X8760649Y-15330034D02*
X8760649Y-15377653D01*
X8760649Y-15377653D02*
X8751125Y-15415748D01*
X8751125Y-15415748D02*
X8741601Y-15434796D01*
X8741601Y-15434796D02*
X8732077Y-15444320D01*
X8732077Y-15444320D02*
X8713030Y-15453844D01*
X8713030Y-15453844D02*
X8693982Y-15453844D01*
X8693982Y-15453844D02*
X8674934Y-15444320D01*
X8674934Y-15444320D02*
X8665411Y-15434796D01*
X8665411Y-15434796D02*
X8655887Y-15415748D01*
X8655887Y-15415748D02*
X8646363Y-15377653D01*
X8646363Y-15377653D02*
X8646363Y-15330034D01*
X8646363Y-15330034D02*
X8655887Y-15291939D01*
X8655887Y-15291939D02*
X8665411Y-15272891D01*
X8665411Y-15272891D02*
X8674934Y-15263368D01*
X8674934Y-15263368D02*
X8693982Y-15253844D01*
X8846363Y-15434796D02*
X8855887Y-15444320D01*
X8855887Y-15444320D02*
X8846363Y-15453844D01*
X8846363Y-15453844D02*
X8836839Y-15444320D01*
X8836839Y-15444320D02*
X8846363Y-15434796D01*
X8846363Y-15434796D02*
X8846363Y-15453844D01*
X8970173Y-15339558D02*
X8951125Y-15330034D01*
X8951125Y-15330034D02*
X8941601Y-15320510D01*
X8941601Y-15320510D02*
X8932077Y-15301463D01*
X8932077Y-15301463D02*
X8932077Y-15291939D01*
X8932077Y-15291939D02*
X8941601Y-15272891D01*
X8941601Y-15272891D02*
X8951125Y-15263368D01*
X8951125Y-15263368D02*
X8970173Y-15253844D01*
X8970173Y-15253844D02*
X9008268Y-15253844D01*
X9008268Y-15253844D02*
X9027315Y-15263368D01*
X9027315Y-15263368D02*
X9036839Y-15272891D01*
X9036839Y-15272891D02*
X9046363Y-15291939D01*
X9046363Y-15291939D02*
X9046363Y-15301463D01*
X9046363Y-15301463D02*
X9036839Y-15320510D01*
X9036839Y-15320510D02*
X9027315Y-15330034D01*
X9027315Y-15330034D02*
X9008268Y-15339558D01*
X9008268Y-15339558D02*
X8970173Y-15339558D01*
X8970173Y-15339558D02*
X8951125Y-15349082D01*
X8951125Y-15349082D02*
X8941601Y-15358606D01*
X8941601Y-15358606D02*
X8932077Y-15377653D01*
X8932077Y-15377653D02*
X8932077Y-15415748D01*
X8932077Y-15415748D02*
X8941601Y-15434796D01*
X8941601Y-15434796D02*
X8951125Y-15444320D01*
X8951125Y-15444320D02*
X8970173Y-15453844D01*
X8970173Y-15453844D02*
X9008268Y-15453844D01*
X9008268Y-15453844D02*
X9027315Y-15444320D01*
X9027315Y-15444320D02*
X9036839Y-15434796D01*
X9036839Y-15434796D02*
X9046363Y-15415748D01*
X9046363Y-15415748D02*
X9046363Y-15377653D01*
X9046363Y-15377653D02*
X9036839Y-15358606D01*
X9036839Y-15358606D02*
X9027315Y-15349082D01*
X9027315Y-15349082D02*
X9008268Y-15339558D01*
X9170173Y-15253844D02*
X9189220Y-15253844D01*
X9189220Y-15253844D02*
X9208268Y-15263368D01*
X9208268Y-15263368D02*
X9217792Y-15272891D01*
X9217792Y-15272891D02*
X9227315Y-15291939D01*
X9227315Y-15291939D02*
X9236839Y-15330034D01*
X9236839Y-15330034D02*
X9236839Y-15377653D01*
X9236839Y-15377653D02*
X9227315Y-15415748D01*
X9227315Y-15415748D02*
X9217792Y-15434796D01*
X9217792Y-15434796D02*
X9208268Y-15444320D01*
X9208268Y-15444320D02*
X9189220Y-15453844D01*
X9189220Y-15453844D02*
X9170173Y-15453844D01*
X9170173Y-15453844D02*
X9151125Y-15444320D01*
X9151125Y-15444320D02*
X9141601Y-15434796D01*
X9141601Y-15434796D02*
X9132077Y-15415748D01*
X9132077Y-15415748D02*
X9122554Y-15377653D01*
X9122554Y-15377653D02*
X9122554Y-15330034D01*
X9122554Y-15330034D02*
X9132077Y-15291939D01*
X9132077Y-15291939D02*
X9141601Y-15272891D01*
X9141601Y-15272891D02*
X9151125Y-15263368D01*
X9151125Y-15263368D02*
X9170173Y-15253844D01*
X9360649Y-15253844D02*
X9379696Y-15253844D01*
X9379696Y-15253844D02*
X9398744Y-15263368D01*
X9398744Y-15263368D02*
X9408268Y-15272891D01*
X9408268Y-15272891D02*
X9417792Y-15291939D01*
X9417792Y-15291939D02*
X9427315Y-15330034D01*
X9427315Y-15330034D02*
X9427315Y-15377653D01*
X9427315Y-15377653D02*
X9417792Y-15415748D01*
X9417792Y-15415748D02*
X9408268Y-15434796D01*
X9408268Y-15434796D02*
X9398744Y-15444320D01*
X9398744Y-15444320D02*
X9379696Y-15453844D01*
X9379696Y-15453844D02*
X9360649Y-15453844D01*
X9360649Y-15453844D02*
X9341601Y-15444320D01*
X9341601Y-15444320D02*
X9332077Y-15434796D01*
X9332077Y-15434796D02*
X9322554Y-15415748D01*
X9322554Y-15415748D02*
X9313030Y-15377653D01*
X9313030Y-15377653D02*
X9313030Y-15330034D01*
X9313030Y-15330034D02*
X9322554Y-15291939D01*
X9322554Y-15291939D02*
X9332077Y-15272891D01*
X9332077Y-15272891D02*
X9341601Y-15263368D01*
X9341601Y-15263368D02*
X9360649Y-15253844D01*
X9513030Y-15453844D02*
X9513030Y-15320510D01*
X9513030Y-15339558D02*
X9522554Y-15330034D01*
X9522554Y-15330034D02*
X9541601Y-15320510D01*
X9541601Y-15320510D02*
X9570173Y-15320510D01*
X9570173Y-15320510D02*
X9589220Y-15330034D01*
X9589220Y-15330034D02*
X9598744Y-15349082D01*
X9598744Y-15349082D02*
X9598744Y-15453844D01*
X9598744Y-15349082D02*
X9608268Y-15330034D01*
X9608268Y-15330034D02*
X9627315Y-15320510D01*
X9627315Y-15320510D02*
X9655887Y-15320510D01*
X9655887Y-15320510D02*
X9674935Y-15330034D01*
X9674935Y-15330034D02*
X9684458Y-15349082D01*
X9684458Y-15349082D02*
X9684458Y-15453844D01*
X9779696Y-15453844D02*
X9779696Y-15320510D01*
X9779696Y-15339558D02*
X9789220Y-15330034D01*
X9789220Y-15330034D02*
X9808268Y-15320510D01*
X9808268Y-15320510D02*
X9836839Y-15320510D01*
X9836839Y-15320510D02*
X9855887Y-15330034D01*
X9855887Y-15330034D02*
X9865411Y-15349082D01*
X9865411Y-15349082D02*
X9865411Y-15453844D01*
X9865411Y-15349082D02*
X9874935Y-15330034D01*
X9874935Y-15330034D02*
X9893982Y-15320510D01*
X9893982Y-15320510D02*
X9922554Y-15320510D01*
X9922554Y-15320510D02*
X9941601Y-15330034D01*
X9941601Y-15330034D02*
X9951125Y-15349082D01*
X9951125Y-15349082D02*
X9951125Y-15453844D01*
X10341601Y-15244320D02*
X10170173Y-15501463D01*
X10598744Y-15253844D02*
X10617792Y-15253844D01*
X10617792Y-15253844D02*
X10636839Y-15263368D01*
X10636839Y-15263368D02*
X10646363Y-15272891D01*
X10646363Y-15272891D02*
X10655887Y-15291939D01*
X10655887Y-15291939D02*
X10665411Y-15330034D01*
X10665411Y-15330034D02*
X10665411Y-15377653D01*
X10665411Y-15377653D02*
X10655887Y-15415748D01*
X10655887Y-15415748D02*
X10646363Y-15434796D01*
X10646363Y-15434796D02*
X10636839Y-15444320D01*
X10636839Y-15444320D02*
X10617792Y-15453844D01*
X10617792Y-15453844D02*
X10598744Y-15453844D01*
X10598744Y-15453844D02*
X10579697Y-15444320D01*
X10579697Y-15444320D02*
X10570173Y-15434796D01*
X10570173Y-15434796D02*
X10560649Y-15415748D01*
X10560649Y-15415748D02*
X10551125Y-15377653D01*
X10551125Y-15377653D02*
X10551125Y-15330034D01*
X10551125Y-15330034D02*
X10560649Y-15291939D01*
X10560649Y-15291939D02*
X10570173Y-15272891D01*
X10570173Y-15272891D02*
X10579697Y-15263368D01*
X10579697Y-15263368D02*
X10598744Y-15253844D01*
X10751125Y-15434796D02*
X10760649Y-15444320D01*
X10760649Y-15444320D02*
X10751125Y-15453844D01*
X10751125Y-15453844D02*
X10741601Y-15444320D01*
X10741601Y-15444320D02*
X10751125Y-15434796D01*
X10751125Y-15434796D02*
X10751125Y-15453844D01*
X10884458Y-15253844D02*
X10903506Y-15253844D01*
X10903506Y-15253844D02*
X10922554Y-15263368D01*
X10922554Y-15263368D02*
X10932078Y-15272891D01*
X10932078Y-15272891D02*
X10941601Y-15291939D01*
X10941601Y-15291939D02*
X10951125Y-15330034D01*
X10951125Y-15330034D02*
X10951125Y-15377653D01*
X10951125Y-15377653D02*
X10941601Y-15415748D01*
X10941601Y-15415748D02*
X10932078Y-15434796D01*
X10932078Y-15434796D02*
X10922554Y-15444320D01*
X10922554Y-15444320D02*
X10903506Y-15453844D01*
X10903506Y-15453844D02*
X10884458Y-15453844D01*
X10884458Y-15453844D02*
X10865411Y-15444320D01*
X10865411Y-15444320D02*
X10855887Y-15434796D01*
X10855887Y-15434796D02*
X10846363Y-15415748D01*
X10846363Y-15415748D02*
X10836839Y-15377653D01*
X10836839Y-15377653D02*
X10836839Y-15330034D01*
X10836839Y-15330034D02*
X10846363Y-15291939D01*
X10846363Y-15291939D02*
X10855887Y-15272891D01*
X10855887Y-15272891D02*
X10865411Y-15263368D01*
X10865411Y-15263368D02*
X10884458Y-15253844D01*
X11017792Y-15253844D02*
X11141601Y-15253844D01*
X11141601Y-15253844D02*
X11074935Y-15330034D01*
X11074935Y-15330034D02*
X11103506Y-15330034D01*
X11103506Y-15330034D02*
X11122554Y-15339558D01*
X11122554Y-15339558D02*
X11132078Y-15349082D01*
X11132078Y-15349082D02*
X11141601Y-15368129D01*
X11141601Y-15368129D02*
X11141601Y-15415748D01*
X11141601Y-15415748D02*
X11132078Y-15434796D01*
X11132078Y-15434796D02*
X11122554Y-15444320D01*
X11122554Y-15444320D02*
X11103506Y-15453844D01*
X11103506Y-15453844D02*
X11046363Y-15453844D01*
X11046363Y-15453844D02*
X11027316Y-15444320D01*
X11027316Y-15444320D02*
X11017792Y-15434796D01*
X11332077Y-15453844D02*
X11217792Y-15453844D01*
X11274935Y-15453844D02*
X11274935Y-15253844D01*
X11274935Y-15253844D02*
X11255887Y-15282415D01*
X11255887Y-15282415D02*
X11236839Y-15301463D01*
X11236839Y-15301463D02*
X11217792Y-15310987D01*
X11513030Y-15253844D02*
X11417792Y-15253844D01*
X11417792Y-15253844D02*
X11408268Y-15349082D01*
X11408268Y-15349082D02*
X11417792Y-15339558D01*
X11417792Y-15339558D02*
X11436839Y-15330034D01*
X11436839Y-15330034D02*
X11484458Y-15330034D01*
X11484458Y-15330034D02*
X11503506Y-15339558D01*
X11503506Y-15339558D02*
X11513030Y-15349082D01*
X11513030Y-15349082D02*
X11522554Y-15368129D01*
X11522554Y-15368129D02*
X11522554Y-15415748D01*
X11522554Y-15415748D02*
X11513030Y-15434796D01*
X11513030Y-15434796D02*
X11503506Y-15444320D01*
X11503506Y-15444320D02*
X11484458Y-15453844D01*
X11484458Y-15453844D02*
X11436839Y-15453844D01*
X11436839Y-15453844D02*
X11417792Y-15444320D01*
X11417792Y-15444320D02*
X11408268Y-15434796D01*
X11598744Y-15253844D02*
X11598744Y-15291939D01*
X11674935Y-15253844D02*
X11674935Y-15291939D01*
X11970173Y-15530034D02*
X11960649Y-15520510D01*
X11960649Y-15520510D02*
X11941601Y-15491939D01*
X11941601Y-15491939D02*
X11932078Y-15472891D01*
X11932078Y-15472891D02*
X11922554Y-15444320D01*
X11922554Y-15444320D02*
X11913030Y-15396701D01*
X11913030Y-15396701D02*
X11913030Y-15358606D01*
X11913030Y-15358606D02*
X11922554Y-15310987D01*
X11922554Y-15310987D02*
X11932078Y-15282415D01*
X11932078Y-15282415D02*
X11941601Y-15263368D01*
X11941601Y-15263368D02*
X11960649Y-15234796D01*
X11960649Y-15234796D02*
X11970173Y-15225272D01*
X12132078Y-15320510D02*
X12132078Y-15453844D01*
X12084458Y-15244320D02*
X12036839Y-15387177D01*
X12036839Y-15387177D02*
X12160649Y-15387177D01*
X12389220Y-15453844D02*
X12389220Y-15253844D01*
X12474935Y-15453844D02*
X12474935Y-15349082D01*
X12474935Y-15349082D02*
X12465411Y-15330034D01*
X12465411Y-15330034D02*
X12446363Y-15320510D01*
X12446363Y-15320510D02*
X12417792Y-15320510D01*
X12417792Y-15320510D02*
X12398744Y-15330034D01*
X12398744Y-15330034D02*
X12389220Y-15339558D01*
X12598744Y-15453844D02*
X12579697Y-15444320D01*
X12579697Y-15444320D02*
X12570173Y-15434796D01*
X12570173Y-15434796D02*
X12560649Y-15415748D01*
X12560649Y-15415748D02*
X12560649Y-15358606D01*
X12560649Y-15358606D02*
X12570173Y-15339558D01*
X12570173Y-15339558D02*
X12579697Y-15330034D01*
X12579697Y-15330034D02*
X12598744Y-15320510D01*
X12598744Y-15320510D02*
X12627316Y-15320510D01*
X12627316Y-15320510D02*
X12646363Y-15330034D01*
X12646363Y-15330034D02*
X12655887Y-15339558D01*
X12655887Y-15339558D02*
X12665411Y-15358606D01*
X12665411Y-15358606D02*
X12665411Y-15415748D01*
X12665411Y-15415748D02*
X12655887Y-15434796D01*
X12655887Y-15434796D02*
X12646363Y-15444320D01*
X12646363Y-15444320D02*
X12627316Y-15453844D01*
X12627316Y-15453844D02*
X12598744Y-15453844D01*
X12779697Y-15453844D02*
X12760649Y-15444320D01*
X12760649Y-15444320D02*
X12751125Y-15425272D01*
X12751125Y-15425272D02*
X12751125Y-15253844D01*
X12932078Y-15444320D02*
X12913030Y-15453844D01*
X12913030Y-15453844D02*
X12874935Y-15453844D01*
X12874935Y-15453844D02*
X12855887Y-15444320D01*
X12855887Y-15444320D02*
X12846363Y-15425272D01*
X12846363Y-15425272D02*
X12846363Y-15349082D01*
X12846363Y-15349082D02*
X12855887Y-15330034D01*
X12855887Y-15330034D02*
X12874935Y-15320510D01*
X12874935Y-15320510D02*
X12913030Y-15320510D01*
X12913030Y-15320510D02*
X12932078Y-15330034D01*
X12932078Y-15330034D02*
X12941601Y-15349082D01*
X12941601Y-15349082D02*
X12941601Y-15368129D01*
X12941601Y-15368129D02*
X12846363Y-15387177D01*
X13017792Y-15444320D02*
X13036840Y-15453844D01*
X13036840Y-15453844D02*
X13074935Y-15453844D01*
X13074935Y-15453844D02*
X13093982Y-15444320D01*
X13093982Y-15444320D02*
X13103506Y-15425272D01*
X13103506Y-15425272D02*
X13103506Y-15415748D01*
X13103506Y-15415748D02*
X13093982Y-15396701D01*
X13093982Y-15396701D02*
X13074935Y-15387177D01*
X13074935Y-15387177D02*
X13046363Y-15387177D01*
X13046363Y-15387177D02*
X13027316Y-15377653D01*
X13027316Y-15377653D02*
X13017792Y-15358606D01*
X13017792Y-15358606D02*
X13017792Y-15349082D01*
X13017792Y-15349082D02*
X13027316Y-15330034D01*
X13027316Y-15330034D02*
X13046363Y-15320510D01*
X13046363Y-15320510D02*
X13074935Y-15320510D01*
X13074935Y-15320510D02*
X13093982Y-15330034D01*
X13170173Y-15530034D02*
X13179697Y-15520510D01*
X13179697Y-15520510D02*
X13198744Y-15491939D01*
X13198744Y-15491939D02*
X13208268Y-15472891D01*
X13208268Y-15472891D02*
X13217792Y-15444320D01*
X13217792Y-15444320D02*
X13227316Y-15396701D01*
X13227316Y-15396701D02*
X13227316Y-15358606D01*
X13227316Y-15358606D02*
X13217792Y-15310987D01*
X13217792Y-15310987D02*
X13208268Y-15282415D01*
X13208268Y-15282415D02*
X13198744Y-15263368D01*
X13198744Y-15263368D02*
X13179697Y-15234796D01*
X13179697Y-15234796D02*
X13170173Y-15225272D01*
D11*
X8345110Y-15676360D02*
X8395110Y-15626360D01*
X8345110Y-15576360D01*
X8295110Y-15626360D01*
X8345110Y-15676360D01*
D12*
X8760649Y-15717844D02*
X8646363Y-15717844D01*
X8703506Y-15717844D02*
X8703506Y-15517844D01*
X8703506Y-15517844D02*
X8684458Y-15546415D01*
X8684458Y-15546415D02*
X8665411Y-15565463D01*
X8665411Y-15565463D02*
X8646363Y-15574987D01*
X8846363Y-15698796D02*
X8855887Y-15708320D01*
X8855887Y-15708320D02*
X8846363Y-15717844D01*
X8846363Y-15717844D02*
X8836839Y-15708320D01*
X8836839Y-15708320D02*
X8846363Y-15698796D01*
X8846363Y-15698796D02*
X8846363Y-15717844D01*
X8979696Y-15517844D02*
X8998744Y-15517844D01*
X8998744Y-15517844D02*
X9017792Y-15527368D01*
X9017792Y-15527368D02*
X9027315Y-15536891D01*
X9027315Y-15536891D02*
X9036839Y-15555939D01*
X9036839Y-15555939D02*
X9046363Y-15594034D01*
X9046363Y-15594034D02*
X9046363Y-15641653D01*
X9046363Y-15641653D02*
X9036839Y-15679748D01*
X9036839Y-15679748D02*
X9027315Y-15698796D01*
X9027315Y-15698796D02*
X9017792Y-15708320D01*
X9017792Y-15708320D02*
X8998744Y-15717844D01*
X8998744Y-15717844D02*
X8979696Y-15717844D01*
X8979696Y-15717844D02*
X8960649Y-15708320D01*
X8960649Y-15708320D02*
X8951125Y-15698796D01*
X8951125Y-15698796D02*
X8941601Y-15679748D01*
X8941601Y-15679748D02*
X8932077Y-15641653D01*
X8932077Y-15641653D02*
X8932077Y-15594034D01*
X8932077Y-15594034D02*
X8941601Y-15555939D01*
X8941601Y-15555939D02*
X8951125Y-15536891D01*
X8951125Y-15536891D02*
X8960649Y-15527368D01*
X8960649Y-15527368D02*
X8979696Y-15517844D01*
X9170173Y-15517844D02*
X9189220Y-15517844D01*
X9189220Y-15517844D02*
X9208268Y-15527368D01*
X9208268Y-15527368D02*
X9217792Y-15536891D01*
X9217792Y-15536891D02*
X9227315Y-15555939D01*
X9227315Y-15555939D02*
X9236839Y-15594034D01*
X9236839Y-15594034D02*
X9236839Y-15641653D01*
X9236839Y-15641653D02*
X9227315Y-15679748D01*
X9227315Y-15679748D02*
X9217792Y-15698796D01*
X9217792Y-15698796D02*
X9208268Y-15708320D01*
X9208268Y-15708320D02*
X9189220Y-15717844D01*
X9189220Y-15717844D02*
X9170173Y-15717844D01*
X9170173Y-15717844D02*
X9151125Y-15708320D01*
X9151125Y-15708320D02*
X9141601Y-15698796D01*
X9141601Y-15698796D02*
X9132077Y-15679748D01*
X9132077Y-15679748D02*
X9122554Y-15641653D01*
X9122554Y-15641653D02*
X9122554Y-15594034D01*
X9122554Y-15594034D02*
X9132077Y-15555939D01*
X9132077Y-15555939D02*
X9141601Y-15536891D01*
X9141601Y-15536891D02*
X9151125Y-15527368D01*
X9151125Y-15527368D02*
X9170173Y-15517844D01*
X9360649Y-15517844D02*
X9379696Y-15517844D01*
X9379696Y-15517844D02*
X9398744Y-15527368D01*
X9398744Y-15527368D02*
X9408268Y-15536891D01*
X9408268Y-15536891D02*
X9417792Y-15555939D01*
X9417792Y-15555939D02*
X9427315Y-15594034D01*
X9427315Y-15594034D02*
X9427315Y-15641653D01*
X9427315Y-15641653D02*
X9417792Y-15679748D01*
X9417792Y-15679748D02*
X9408268Y-15698796D01*
X9408268Y-15698796D02*
X9398744Y-15708320D01*
X9398744Y-15708320D02*
X9379696Y-15717844D01*
X9379696Y-15717844D02*
X9360649Y-15717844D01*
X9360649Y-15717844D02*
X9341601Y-15708320D01*
X9341601Y-15708320D02*
X9332077Y-15698796D01*
X9332077Y-15698796D02*
X9322554Y-15679748D01*
X9322554Y-15679748D02*
X9313030Y-15641653D01*
X9313030Y-15641653D02*
X9313030Y-15594034D01*
X9313030Y-15594034D02*
X9322554Y-15555939D01*
X9322554Y-15555939D02*
X9332077Y-15536891D01*
X9332077Y-15536891D02*
X9341601Y-15527368D01*
X9341601Y-15527368D02*
X9360649Y-15517844D01*
X9513030Y-15717844D02*
X9513030Y-15584510D01*
X9513030Y-15603558D02*
X9522554Y-15594034D01*
X9522554Y-15594034D02*
X9541601Y-15584510D01*
X9541601Y-15584510D02*
X9570173Y-15584510D01*
X9570173Y-15584510D02*
X9589220Y-15594034D01*
X9589220Y-15594034D02*
X9598744Y-15613082D01*
X9598744Y-15613082D02*
X9598744Y-15717844D01*
X9598744Y-15613082D02*
X9608268Y-15594034D01*
X9608268Y-15594034D02*
X9627315Y-15584510D01*
X9627315Y-15584510D02*
X9655887Y-15584510D01*
X9655887Y-15584510D02*
X9674935Y-15594034D01*
X9674935Y-15594034D02*
X9684458Y-15613082D01*
X9684458Y-15613082D02*
X9684458Y-15717844D01*
X9779696Y-15717844D02*
X9779696Y-15584510D01*
X9779696Y-15603558D02*
X9789220Y-15594034D01*
X9789220Y-15594034D02*
X9808268Y-15584510D01*
X9808268Y-15584510D02*
X9836839Y-15584510D01*
X9836839Y-15584510D02*
X9855887Y-15594034D01*
X9855887Y-15594034D02*
X9865411Y-15613082D01*
X9865411Y-15613082D02*
X9865411Y-15717844D01*
X9865411Y-15613082D02*
X9874935Y-15594034D01*
X9874935Y-15594034D02*
X9893982Y-15584510D01*
X9893982Y-15584510D02*
X9922554Y-15584510D01*
X9922554Y-15584510D02*
X9941601Y-15594034D01*
X9941601Y-15594034D02*
X9951125Y-15613082D01*
X9951125Y-15613082D02*
X9951125Y-15717844D01*
X10341601Y-15508320D02*
X10170173Y-15765463D01*
X10598744Y-15517844D02*
X10617792Y-15517844D01*
X10617792Y-15517844D02*
X10636839Y-15527368D01*
X10636839Y-15527368D02*
X10646363Y-15536891D01*
X10646363Y-15536891D02*
X10655887Y-15555939D01*
X10655887Y-15555939D02*
X10665411Y-15594034D01*
X10665411Y-15594034D02*
X10665411Y-15641653D01*
X10665411Y-15641653D02*
X10655887Y-15679748D01*
X10655887Y-15679748D02*
X10646363Y-15698796D01*
X10646363Y-15698796D02*
X10636839Y-15708320D01*
X10636839Y-15708320D02*
X10617792Y-15717844D01*
X10617792Y-15717844D02*
X10598744Y-15717844D01*
X10598744Y-15717844D02*
X10579697Y-15708320D01*
X10579697Y-15708320D02*
X10570173Y-15698796D01*
X10570173Y-15698796D02*
X10560649Y-15679748D01*
X10560649Y-15679748D02*
X10551125Y-15641653D01*
X10551125Y-15641653D02*
X10551125Y-15594034D01*
X10551125Y-15594034D02*
X10560649Y-15555939D01*
X10560649Y-15555939D02*
X10570173Y-15536891D01*
X10570173Y-15536891D02*
X10579697Y-15527368D01*
X10579697Y-15527368D02*
X10598744Y-15517844D01*
X10751125Y-15698796D02*
X10760649Y-15708320D01*
X10760649Y-15708320D02*
X10751125Y-15717844D01*
X10751125Y-15717844D02*
X10741601Y-15708320D01*
X10741601Y-15708320D02*
X10751125Y-15698796D01*
X10751125Y-15698796D02*
X10751125Y-15717844D01*
X10884458Y-15517844D02*
X10903506Y-15517844D01*
X10903506Y-15517844D02*
X10922554Y-15527368D01*
X10922554Y-15527368D02*
X10932078Y-15536891D01*
X10932078Y-15536891D02*
X10941601Y-15555939D01*
X10941601Y-15555939D02*
X10951125Y-15594034D01*
X10951125Y-15594034D02*
X10951125Y-15641653D01*
X10951125Y-15641653D02*
X10941601Y-15679748D01*
X10941601Y-15679748D02*
X10932078Y-15698796D01*
X10932078Y-15698796D02*
X10922554Y-15708320D01*
X10922554Y-15708320D02*
X10903506Y-15717844D01*
X10903506Y-15717844D02*
X10884458Y-15717844D01*
X10884458Y-15717844D02*
X10865411Y-15708320D01*
X10865411Y-15708320D02*
X10855887Y-15698796D01*
X10855887Y-15698796D02*
X10846363Y-15679748D01*
X10846363Y-15679748D02*
X10836839Y-15641653D01*
X10836839Y-15641653D02*
X10836839Y-15594034D01*
X10836839Y-15594034D02*
X10846363Y-15555939D01*
X10846363Y-15555939D02*
X10855887Y-15536891D01*
X10855887Y-15536891D02*
X10865411Y-15527368D01*
X10865411Y-15527368D02*
X10884458Y-15517844D01*
X11017792Y-15517844D02*
X11141601Y-15517844D01*
X11141601Y-15517844D02*
X11074935Y-15594034D01*
X11074935Y-15594034D02*
X11103506Y-15594034D01*
X11103506Y-15594034D02*
X11122554Y-15603558D01*
X11122554Y-15603558D02*
X11132078Y-15613082D01*
X11132078Y-15613082D02*
X11141601Y-15632129D01*
X11141601Y-15632129D02*
X11141601Y-15679748D01*
X11141601Y-15679748D02*
X11132078Y-15698796D01*
X11132078Y-15698796D02*
X11122554Y-15708320D01*
X11122554Y-15708320D02*
X11103506Y-15717844D01*
X11103506Y-15717844D02*
X11046363Y-15717844D01*
X11046363Y-15717844D02*
X11027316Y-15708320D01*
X11027316Y-15708320D02*
X11017792Y-15698796D01*
X11236839Y-15717844D02*
X11274935Y-15717844D01*
X11274935Y-15717844D02*
X11293982Y-15708320D01*
X11293982Y-15708320D02*
X11303506Y-15698796D01*
X11303506Y-15698796D02*
X11322554Y-15670225D01*
X11322554Y-15670225D02*
X11332077Y-15632129D01*
X11332077Y-15632129D02*
X11332077Y-15555939D01*
X11332077Y-15555939D02*
X11322554Y-15536891D01*
X11322554Y-15536891D02*
X11313030Y-15527368D01*
X11313030Y-15527368D02*
X11293982Y-15517844D01*
X11293982Y-15517844D02*
X11255887Y-15517844D01*
X11255887Y-15517844D02*
X11236839Y-15527368D01*
X11236839Y-15527368D02*
X11227316Y-15536891D01*
X11227316Y-15536891D02*
X11217792Y-15555939D01*
X11217792Y-15555939D02*
X11217792Y-15603558D01*
X11217792Y-15603558D02*
X11227316Y-15622606D01*
X11227316Y-15622606D02*
X11236839Y-15632129D01*
X11236839Y-15632129D02*
X11255887Y-15641653D01*
X11255887Y-15641653D02*
X11293982Y-15641653D01*
X11293982Y-15641653D02*
X11313030Y-15632129D01*
X11313030Y-15632129D02*
X11322554Y-15622606D01*
X11322554Y-15622606D02*
X11332077Y-15603558D01*
X11503506Y-15584510D02*
X11503506Y-15717844D01*
X11455887Y-15508320D02*
X11408268Y-15651177D01*
X11408268Y-15651177D02*
X11532077Y-15651177D01*
X11598744Y-15517844D02*
X11598744Y-15555939D01*
X11674935Y-15517844D02*
X11674935Y-15555939D01*
X11970173Y-15794034D02*
X11960649Y-15784510D01*
X11960649Y-15784510D02*
X11941601Y-15755939D01*
X11941601Y-15755939D02*
X11932078Y-15736891D01*
X11932078Y-15736891D02*
X11922554Y-15708320D01*
X11922554Y-15708320D02*
X11913030Y-15660701D01*
X11913030Y-15660701D02*
X11913030Y-15622606D01*
X11913030Y-15622606D02*
X11922554Y-15574987D01*
X11922554Y-15574987D02*
X11932078Y-15546415D01*
X11932078Y-15546415D02*
X11941601Y-15527368D01*
X11941601Y-15527368D02*
X11960649Y-15498796D01*
X11960649Y-15498796D02*
X11970173Y-15489272D01*
X12141601Y-15517844D02*
X12046363Y-15517844D01*
X12046363Y-15517844D02*
X12036839Y-15613082D01*
X12036839Y-15613082D02*
X12046363Y-15603558D01*
X12046363Y-15603558D02*
X12065411Y-15594034D01*
X12065411Y-15594034D02*
X12113030Y-15594034D01*
X12113030Y-15594034D02*
X12132078Y-15603558D01*
X12132078Y-15603558D02*
X12141601Y-15613082D01*
X12141601Y-15613082D02*
X12151125Y-15632129D01*
X12151125Y-15632129D02*
X12151125Y-15679748D01*
X12151125Y-15679748D02*
X12141601Y-15698796D01*
X12141601Y-15698796D02*
X12132078Y-15708320D01*
X12132078Y-15708320D02*
X12113030Y-15717844D01*
X12113030Y-15717844D02*
X12065411Y-15717844D01*
X12065411Y-15717844D02*
X12046363Y-15708320D01*
X12046363Y-15708320D02*
X12036839Y-15698796D01*
X12322554Y-15517844D02*
X12284458Y-15517844D01*
X12284458Y-15517844D02*
X12265411Y-15527368D01*
X12265411Y-15527368D02*
X12255887Y-15536891D01*
X12255887Y-15536891D02*
X12236839Y-15565463D01*
X12236839Y-15565463D02*
X12227316Y-15603558D01*
X12227316Y-15603558D02*
X12227316Y-15679748D01*
X12227316Y-15679748D02*
X12236839Y-15698796D01*
X12236839Y-15698796D02*
X12246363Y-15708320D01*
X12246363Y-15708320D02*
X12265411Y-15717844D01*
X12265411Y-15717844D02*
X12303506Y-15717844D01*
X12303506Y-15717844D02*
X12322554Y-15708320D01*
X12322554Y-15708320D02*
X12332078Y-15698796D01*
X12332078Y-15698796D02*
X12341601Y-15679748D01*
X12341601Y-15679748D02*
X12341601Y-15632129D01*
X12341601Y-15632129D02*
X12332078Y-15613082D01*
X12332078Y-15613082D02*
X12322554Y-15603558D01*
X12322554Y-15603558D02*
X12303506Y-15594034D01*
X12303506Y-15594034D02*
X12265411Y-15594034D01*
X12265411Y-15594034D02*
X12246363Y-15603558D01*
X12246363Y-15603558D02*
X12236839Y-15613082D01*
X12236839Y-15613082D02*
X12227316Y-15632129D01*
X12579697Y-15717844D02*
X12579697Y-15517844D01*
X12665411Y-15717844D02*
X12665411Y-15613082D01*
X12665411Y-15613082D02*
X12655887Y-15594034D01*
X12655887Y-15594034D02*
X12636840Y-15584510D01*
X12636840Y-15584510D02*
X12608268Y-15584510D01*
X12608268Y-15584510D02*
X12589220Y-15594034D01*
X12589220Y-15594034D02*
X12579697Y-15603558D01*
X12789220Y-15717844D02*
X12770173Y-15708320D01*
X12770173Y-15708320D02*
X12760649Y-15698796D01*
X12760649Y-15698796D02*
X12751125Y-15679748D01*
X12751125Y-15679748D02*
X12751125Y-15622606D01*
X12751125Y-15622606D02*
X12760649Y-15603558D01*
X12760649Y-15603558D02*
X12770173Y-15594034D01*
X12770173Y-15594034D02*
X12789220Y-15584510D01*
X12789220Y-15584510D02*
X12817792Y-15584510D01*
X12817792Y-15584510D02*
X12836840Y-15594034D01*
X12836840Y-15594034D02*
X12846363Y-15603558D01*
X12846363Y-15603558D02*
X12855887Y-15622606D01*
X12855887Y-15622606D02*
X12855887Y-15679748D01*
X12855887Y-15679748D02*
X12846363Y-15698796D01*
X12846363Y-15698796D02*
X12836840Y-15708320D01*
X12836840Y-15708320D02*
X12817792Y-15717844D01*
X12817792Y-15717844D02*
X12789220Y-15717844D01*
X12970173Y-15717844D02*
X12951125Y-15708320D01*
X12951125Y-15708320D02*
X12941601Y-15689272D01*
X12941601Y-15689272D02*
X12941601Y-15517844D01*
X13122554Y-15708320D02*
X13103506Y-15717844D01*
X13103506Y-15717844D02*
X13065411Y-15717844D01*
X13065411Y-15717844D02*
X13046363Y-15708320D01*
X13046363Y-15708320D02*
X13036840Y-15689272D01*
X13036840Y-15689272D02*
X13036840Y-15613082D01*
X13036840Y-15613082D02*
X13046363Y-15594034D01*
X13046363Y-15594034D02*
X13065411Y-15584510D01*
X13065411Y-15584510D02*
X13103506Y-15584510D01*
X13103506Y-15584510D02*
X13122554Y-15594034D01*
X13122554Y-15594034D02*
X13132078Y-15613082D01*
X13132078Y-15613082D02*
X13132078Y-15632129D01*
X13132078Y-15632129D02*
X13036840Y-15651177D01*
X13208268Y-15708320D02*
X13227316Y-15717844D01*
X13227316Y-15717844D02*
X13265411Y-15717844D01*
X13265411Y-15717844D02*
X13284459Y-15708320D01*
X13284459Y-15708320D02*
X13293982Y-15689272D01*
X13293982Y-15689272D02*
X13293982Y-15679748D01*
X13293982Y-15679748D02*
X13284459Y-15660701D01*
X13284459Y-15660701D02*
X13265411Y-15651177D01*
X13265411Y-15651177D02*
X13236840Y-15651177D01*
X13236840Y-15651177D02*
X13217792Y-15641653D01*
X13217792Y-15641653D02*
X13208268Y-15622606D01*
X13208268Y-15622606D02*
X13208268Y-15613082D01*
X13208268Y-15613082D02*
X13217792Y-15594034D01*
X13217792Y-15594034D02*
X13236840Y-15584510D01*
X13236840Y-15584510D02*
X13265411Y-15584510D01*
X13265411Y-15584510D02*
X13284459Y-15594034D01*
X13360649Y-15794034D02*
X13370173Y-15784510D01*
X13370173Y-15784510D02*
X13389221Y-15755939D01*
X13389221Y-15755939D02*
X13398744Y-15736891D01*
X13398744Y-15736891D02*
X13408268Y-15708320D01*
X13408268Y-15708320D02*
X13417792Y-15660701D01*
X13417792Y-15660701D02*
X13417792Y-15622606D01*
X13417792Y-15622606D02*
X13408268Y-15574987D01*
X13408268Y-15574987D02*
X13398744Y-15546415D01*
X13398744Y-15546415D02*
X13389221Y-15527368D01*
X13389221Y-15527368D02*
X13370173Y-15498796D01*
X13370173Y-15498796D02*
X13360649Y-15489272D01*
D13*
X8265110Y-15825360D02*
X8395110Y-15955360D01*
X8395110Y-15825360D02*
X8265110Y-15955360D01*
X8395110Y-15890360D02*
G75*
G03*
X8265110Y-15890360I-65000J0D01*
G01*
X8265110Y-15890360D02*
G75*
G03*
X8395110Y-15890360I65000J0D01*
G01*
D12*
X8760649Y-15981844D02*
X8646363Y-15981844D01*
X8703506Y-15981844D02*
X8703506Y-15781844D01*
X8703506Y-15781844D02*
X8684458Y-15810415D01*
X8684458Y-15810415D02*
X8665411Y-15829463D01*
X8665411Y-15829463D02*
X8646363Y-15838987D01*
X8846363Y-15962796D02*
X8855887Y-15972320D01*
X8855887Y-15972320D02*
X8846363Y-15981844D01*
X8846363Y-15981844D02*
X8836839Y-15972320D01*
X8836839Y-15972320D02*
X8846363Y-15962796D01*
X8846363Y-15962796D02*
X8846363Y-15981844D01*
X8922554Y-15781844D02*
X9046363Y-15781844D01*
X9046363Y-15781844D02*
X8979696Y-15858034D01*
X8979696Y-15858034D02*
X9008268Y-15858034D01*
X9008268Y-15858034D02*
X9027315Y-15867558D01*
X9027315Y-15867558D02*
X9036839Y-15877082D01*
X9036839Y-15877082D02*
X9046363Y-15896129D01*
X9046363Y-15896129D02*
X9046363Y-15943748D01*
X9046363Y-15943748D02*
X9036839Y-15962796D01*
X9036839Y-15962796D02*
X9027315Y-15972320D01*
X9027315Y-15972320D02*
X9008268Y-15981844D01*
X9008268Y-15981844D02*
X8951125Y-15981844D01*
X8951125Y-15981844D02*
X8932077Y-15972320D01*
X8932077Y-15972320D02*
X8922554Y-15962796D01*
X9170173Y-15781844D02*
X9189220Y-15781844D01*
X9189220Y-15781844D02*
X9208268Y-15791368D01*
X9208268Y-15791368D02*
X9217792Y-15800891D01*
X9217792Y-15800891D02*
X9227315Y-15819939D01*
X9227315Y-15819939D02*
X9236839Y-15858034D01*
X9236839Y-15858034D02*
X9236839Y-15905653D01*
X9236839Y-15905653D02*
X9227315Y-15943748D01*
X9227315Y-15943748D02*
X9217792Y-15962796D01*
X9217792Y-15962796D02*
X9208268Y-15972320D01*
X9208268Y-15972320D02*
X9189220Y-15981844D01*
X9189220Y-15981844D02*
X9170173Y-15981844D01*
X9170173Y-15981844D02*
X9151125Y-15972320D01*
X9151125Y-15972320D02*
X9141601Y-15962796D01*
X9141601Y-15962796D02*
X9132077Y-15943748D01*
X9132077Y-15943748D02*
X9122554Y-15905653D01*
X9122554Y-15905653D02*
X9122554Y-15858034D01*
X9122554Y-15858034D02*
X9132077Y-15819939D01*
X9132077Y-15819939D02*
X9141601Y-15800891D01*
X9141601Y-15800891D02*
X9151125Y-15791368D01*
X9151125Y-15791368D02*
X9170173Y-15781844D01*
X9360649Y-15781844D02*
X9379696Y-15781844D01*
X9379696Y-15781844D02*
X9398744Y-15791368D01*
X9398744Y-15791368D02*
X9408268Y-15800891D01*
X9408268Y-15800891D02*
X9417792Y-15819939D01*
X9417792Y-15819939D02*
X9427315Y-15858034D01*
X9427315Y-15858034D02*
X9427315Y-15905653D01*
X9427315Y-15905653D02*
X9417792Y-15943748D01*
X9417792Y-15943748D02*
X9408268Y-15962796D01*
X9408268Y-15962796D02*
X9398744Y-15972320D01*
X9398744Y-15972320D02*
X9379696Y-15981844D01*
X9379696Y-15981844D02*
X9360649Y-15981844D01*
X9360649Y-15981844D02*
X9341601Y-15972320D01*
X9341601Y-15972320D02*
X9332077Y-15962796D01*
X9332077Y-15962796D02*
X9322554Y-15943748D01*
X9322554Y-15943748D02*
X9313030Y-15905653D01*
X9313030Y-15905653D02*
X9313030Y-15858034D01*
X9313030Y-15858034D02*
X9322554Y-15819939D01*
X9322554Y-15819939D02*
X9332077Y-15800891D01*
X9332077Y-15800891D02*
X9341601Y-15791368D01*
X9341601Y-15791368D02*
X9360649Y-15781844D01*
X9513030Y-15981844D02*
X9513030Y-15848510D01*
X9513030Y-15867558D02*
X9522554Y-15858034D01*
X9522554Y-15858034D02*
X9541601Y-15848510D01*
X9541601Y-15848510D02*
X9570173Y-15848510D01*
X9570173Y-15848510D02*
X9589220Y-15858034D01*
X9589220Y-15858034D02*
X9598744Y-15877082D01*
X9598744Y-15877082D02*
X9598744Y-15981844D01*
X9598744Y-15877082D02*
X9608268Y-15858034D01*
X9608268Y-15858034D02*
X9627315Y-15848510D01*
X9627315Y-15848510D02*
X9655887Y-15848510D01*
X9655887Y-15848510D02*
X9674935Y-15858034D01*
X9674935Y-15858034D02*
X9684458Y-15877082D01*
X9684458Y-15877082D02*
X9684458Y-15981844D01*
X9779696Y-15981844D02*
X9779696Y-15848510D01*
X9779696Y-15867558D02*
X9789220Y-15858034D01*
X9789220Y-15858034D02*
X9808268Y-15848510D01*
X9808268Y-15848510D02*
X9836839Y-15848510D01*
X9836839Y-15848510D02*
X9855887Y-15858034D01*
X9855887Y-15858034D02*
X9865411Y-15877082D01*
X9865411Y-15877082D02*
X9865411Y-15981844D01*
X9865411Y-15877082D02*
X9874935Y-15858034D01*
X9874935Y-15858034D02*
X9893982Y-15848510D01*
X9893982Y-15848510D02*
X9922554Y-15848510D01*
X9922554Y-15848510D02*
X9941601Y-15858034D01*
X9941601Y-15858034D02*
X9951125Y-15877082D01*
X9951125Y-15877082D02*
X9951125Y-15981844D01*
X10341601Y-15772320D02*
X10170173Y-16029463D01*
X10598744Y-15781844D02*
X10617792Y-15781844D01*
X10617792Y-15781844D02*
X10636839Y-15791368D01*
X10636839Y-15791368D02*
X10646363Y-15800891D01*
X10646363Y-15800891D02*
X10655887Y-15819939D01*
X10655887Y-15819939D02*
X10665411Y-15858034D01*
X10665411Y-15858034D02*
X10665411Y-15905653D01*
X10665411Y-15905653D02*
X10655887Y-15943748D01*
X10655887Y-15943748D02*
X10646363Y-15962796D01*
X10646363Y-15962796D02*
X10636839Y-15972320D01*
X10636839Y-15972320D02*
X10617792Y-15981844D01*
X10617792Y-15981844D02*
X10598744Y-15981844D01*
X10598744Y-15981844D02*
X10579697Y-15972320D01*
X10579697Y-15972320D02*
X10570173Y-15962796D01*
X10570173Y-15962796D02*
X10560649Y-15943748D01*
X10560649Y-15943748D02*
X10551125Y-15905653D01*
X10551125Y-15905653D02*
X10551125Y-15858034D01*
X10551125Y-15858034D02*
X10560649Y-15819939D01*
X10560649Y-15819939D02*
X10570173Y-15800891D01*
X10570173Y-15800891D02*
X10579697Y-15791368D01*
X10579697Y-15791368D02*
X10598744Y-15781844D01*
X10751125Y-15962796D02*
X10760649Y-15972320D01*
X10760649Y-15972320D02*
X10751125Y-15981844D01*
X10751125Y-15981844D02*
X10741601Y-15972320D01*
X10741601Y-15972320D02*
X10751125Y-15962796D01*
X10751125Y-15962796D02*
X10751125Y-15981844D01*
X10884458Y-15781844D02*
X10903506Y-15781844D01*
X10903506Y-15781844D02*
X10922554Y-15791368D01*
X10922554Y-15791368D02*
X10932078Y-15800891D01*
X10932078Y-15800891D02*
X10941601Y-15819939D01*
X10941601Y-15819939D02*
X10951125Y-15858034D01*
X10951125Y-15858034D02*
X10951125Y-15905653D01*
X10951125Y-15905653D02*
X10941601Y-15943748D01*
X10941601Y-15943748D02*
X10932078Y-15962796D01*
X10932078Y-15962796D02*
X10922554Y-15972320D01*
X10922554Y-15972320D02*
X10903506Y-15981844D01*
X10903506Y-15981844D02*
X10884458Y-15981844D01*
X10884458Y-15981844D02*
X10865411Y-15972320D01*
X10865411Y-15972320D02*
X10855887Y-15962796D01*
X10855887Y-15962796D02*
X10846363Y-15943748D01*
X10846363Y-15943748D02*
X10836839Y-15905653D01*
X10836839Y-15905653D02*
X10836839Y-15858034D01*
X10836839Y-15858034D02*
X10846363Y-15819939D01*
X10846363Y-15819939D02*
X10855887Y-15800891D01*
X10855887Y-15800891D02*
X10865411Y-15791368D01*
X10865411Y-15791368D02*
X10884458Y-15781844D01*
X11132078Y-15781844D02*
X11036839Y-15781844D01*
X11036839Y-15781844D02*
X11027316Y-15877082D01*
X11027316Y-15877082D02*
X11036839Y-15867558D01*
X11036839Y-15867558D02*
X11055887Y-15858034D01*
X11055887Y-15858034D02*
X11103506Y-15858034D01*
X11103506Y-15858034D02*
X11122554Y-15867558D01*
X11122554Y-15867558D02*
X11132078Y-15877082D01*
X11132078Y-15877082D02*
X11141601Y-15896129D01*
X11141601Y-15896129D02*
X11141601Y-15943748D01*
X11141601Y-15943748D02*
X11132078Y-15962796D01*
X11132078Y-15962796D02*
X11122554Y-15972320D01*
X11122554Y-15972320D02*
X11103506Y-15981844D01*
X11103506Y-15981844D02*
X11055887Y-15981844D01*
X11055887Y-15981844D02*
X11036839Y-15972320D01*
X11036839Y-15972320D02*
X11027316Y-15962796D01*
X11332077Y-15981844D02*
X11217792Y-15981844D01*
X11274935Y-15981844D02*
X11274935Y-15781844D01*
X11274935Y-15781844D02*
X11255887Y-15810415D01*
X11255887Y-15810415D02*
X11236839Y-15829463D01*
X11236839Y-15829463D02*
X11217792Y-15838987D01*
X11408268Y-15800891D02*
X11417792Y-15791368D01*
X11417792Y-15791368D02*
X11436839Y-15781844D01*
X11436839Y-15781844D02*
X11484458Y-15781844D01*
X11484458Y-15781844D02*
X11503506Y-15791368D01*
X11503506Y-15791368D02*
X11513030Y-15800891D01*
X11513030Y-15800891D02*
X11522554Y-15819939D01*
X11522554Y-15819939D02*
X11522554Y-15838987D01*
X11522554Y-15838987D02*
X11513030Y-15867558D01*
X11513030Y-15867558D02*
X11398744Y-15981844D01*
X11398744Y-15981844D02*
X11522554Y-15981844D01*
X11598744Y-15781844D02*
X11598744Y-15819939D01*
X11674935Y-15781844D02*
X11674935Y-15819939D01*
X11970173Y-16058034D02*
X11960649Y-16048510D01*
X11960649Y-16048510D02*
X11941601Y-16019939D01*
X11941601Y-16019939D02*
X11932078Y-16000891D01*
X11932078Y-16000891D02*
X11922554Y-15972320D01*
X11922554Y-15972320D02*
X11913030Y-15924701D01*
X11913030Y-15924701D02*
X11913030Y-15886606D01*
X11913030Y-15886606D02*
X11922554Y-15838987D01*
X11922554Y-15838987D02*
X11932078Y-15810415D01*
X11932078Y-15810415D02*
X11941601Y-15791368D01*
X11941601Y-15791368D02*
X11960649Y-15762796D01*
X11960649Y-15762796D02*
X11970173Y-15753272D01*
X12151125Y-15981844D02*
X12036839Y-15981844D01*
X12093982Y-15981844D02*
X12093982Y-15781844D01*
X12093982Y-15781844D02*
X12074935Y-15810415D01*
X12074935Y-15810415D02*
X12055887Y-15829463D01*
X12055887Y-15829463D02*
X12036839Y-15838987D01*
X12265411Y-15867558D02*
X12246363Y-15858034D01*
X12246363Y-15858034D02*
X12236839Y-15848510D01*
X12236839Y-15848510D02*
X12227316Y-15829463D01*
X12227316Y-15829463D02*
X12227316Y-15819939D01*
X12227316Y-15819939D02*
X12236839Y-15800891D01*
X12236839Y-15800891D02*
X12246363Y-15791368D01*
X12246363Y-15791368D02*
X12265411Y-15781844D01*
X12265411Y-15781844D02*
X12303506Y-15781844D01*
X12303506Y-15781844D02*
X12322554Y-15791368D01*
X12322554Y-15791368D02*
X12332078Y-15800891D01*
X12332078Y-15800891D02*
X12341601Y-15819939D01*
X12341601Y-15819939D02*
X12341601Y-15829463D01*
X12341601Y-15829463D02*
X12332078Y-15848510D01*
X12332078Y-15848510D02*
X12322554Y-15858034D01*
X12322554Y-15858034D02*
X12303506Y-15867558D01*
X12303506Y-15867558D02*
X12265411Y-15867558D01*
X12265411Y-15867558D02*
X12246363Y-15877082D01*
X12246363Y-15877082D02*
X12236839Y-15886606D01*
X12236839Y-15886606D02*
X12227316Y-15905653D01*
X12227316Y-15905653D02*
X12227316Y-15943748D01*
X12227316Y-15943748D02*
X12236839Y-15962796D01*
X12236839Y-15962796D02*
X12246363Y-15972320D01*
X12246363Y-15972320D02*
X12265411Y-15981844D01*
X12265411Y-15981844D02*
X12303506Y-15981844D01*
X12303506Y-15981844D02*
X12322554Y-15972320D01*
X12322554Y-15972320D02*
X12332078Y-15962796D01*
X12332078Y-15962796D02*
X12341601Y-15943748D01*
X12341601Y-15943748D02*
X12341601Y-15905653D01*
X12341601Y-15905653D02*
X12332078Y-15886606D01*
X12332078Y-15886606D02*
X12322554Y-15877082D01*
X12322554Y-15877082D02*
X12303506Y-15867558D01*
X12579697Y-15981844D02*
X12579697Y-15781844D01*
X12665411Y-15981844D02*
X12665411Y-15877082D01*
X12665411Y-15877082D02*
X12655887Y-15858034D01*
X12655887Y-15858034D02*
X12636840Y-15848510D01*
X12636840Y-15848510D02*
X12608268Y-15848510D01*
X12608268Y-15848510D02*
X12589220Y-15858034D01*
X12589220Y-15858034D02*
X12579697Y-15867558D01*
X12789220Y-15981844D02*
X12770173Y-15972320D01*
X12770173Y-15972320D02*
X12760649Y-15962796D01*
X12760649Y-15962796D02*
X12751125Y-15943748D01*
X12751125Y-15943748D02*
X12751125Y-15886606D01*
X12751125Y-15886606D02*
X12760649Y-15867558D01*
X12760649Y-15867558D02*
X12770173Y-15858034D01*
X12770173Y-15858034D02*
X12789220Y-15848510D01*
X12789220Y-15848510D02*
X12817792Y-15848510D01*
X12817792Y-15848510D02*
X12836840Y-15858034D01*
X12836840Y-15858034D02*
X12846363Y-15867558D01*
X12846363Y-15867558D02*
X12855887Y-15886606D01*
X12855887Y-15886606D02*
X12855887Y-15943748D01*
X12855887Y-15943748D02*
X12846363Y-15962796D01*
X12846363Y-15962796D02*
X12836840Y-15972320D01*
X12836840Y-15972320D02*
X12817792Y-15981844D01*
X12817792Y-15981844D02*
X12789220Y-15981844D01*
X12970173Y-15981844D02*
X12951125Y-15972320D01*
X12951125Y-15972320D02*
X12941601Y-15953272D01*
X12941601Y-15953272D02*
X12941601Y-15781844D01*
X13122554Y-15972320D02*
X13103506Y-15981844D01*
X13103506Y-15981844D02*
X13065411Y-15981844D01*
X13065411Y-15981844D02*
X13046363Y-15972320D01*
X13046363Y-15972320D02*
X13036840Y-15953272D01*
X13036840Y-15953272D02*
X13036840Y-15877082D01*
X13036840Y-15877082D02*
X13046363Y-15858034D01*
X13046363Y-15858034D02*
X13065411Y-15848510D01*
X13065411Y-15848510D02*
X13103506Y-15848510D01*
X13103506Y-15848510D02*
X13122554Y-15858034D01*
X13122554Y-15858034D02*
X13132078Y-15877082D01*
X13132078Y-15877082D02*
X13132078Y-15896129D01*
X13132078Y-15896129D02*
X13036840Y-15915177D01*
X13208268Y-15972320D02*
X13227316Y-15981844D01*
X13227316Y-15981844D02*
X13265411Y-15981844D01*
X13265411Y-15981844D02*
X13284459Y-15972320D01*
X13284459Y-15972320D02*
X13293982Y-15953272D01*
X13293982Y-15953272D02*
X13293982Y-15943748D01*
X13293982Y-15943748D02*
X13284459Y-15924701D01*
X13284459Y-15924701D02*
X13265411Y-15915177D01*
X13265411Y-15915177D02*
X13236840Y-15915177D01*
X13236840Y-15915177D02*
X13217792Y-15905653D01*
X13217792Y-15905653D02*
X13208268Y-15886606D01*
X13208268Y-15886606D02*
X13208268Y-15877082D01*
X13208268Y-15877082D02*
X13217792Y-15858034D01*
X13217792Y-15858034D02*
X13236840Y-15848510D01*
X13236840Y-15848510D02*
X13265411Y-15848510D01*
X13265411Y-15848510D02*
X13284459Y-15858034D01*
X13360649Y-16058034D02*
X13370173Y-16048510D01*
X13370173Y-16048510D02*
X13389221Y-16019939D01*
X13389221Y-16019939D02*
X13398744Y-16000891D01*
X13398744Y-16000891D02*
X13408268Y-15972320D01*
X13408268Y-15972320D02*
X13417792Y-15924701D01*
X13417792Y-15924701D02*
X13417792Y-15886606D01*
X13417792Y-15886606D02*
X13408268Y-15838987D01*
X13408268Y-15838987D02*
X13398744Y-15810415D01*
X13398744Y-15810415D02*
X13389221Y-15791368D01*
X13389221Y-15791368D02*
X13370173Y-15762796D01*
X13370173Y-15762796D02*
X13360649Y-15753272D01*
D14*
X8255110Y-16084360D02*
X8395110Y-16224360D01*
X8395110Y-16084360D02*
X8255110Y-16224360D01*
X8325110Y-16084360D02*
X8325110Y-16224360D01*
X8255110Y-16154360D02*
X8395110Y-16154360D01*
D12*
X8760649Y-16245844D02*
X8646363Y-16245844D01*
X8703506Y-16245844D02*
X8703506Y-16045844D01*
X8703506Y-16045844D02*
X8684458Y-16074415D01*
X8684458Y-16074415D02*
X8665411Y-16093463D01*
X8665411Y-16093463D02*
X8646363Y-16102987D01*
X8846363Y-16226796D02*
X8855887Y-16236320D01*
X8855887Y-16236320D02*
X8846363Y-16245844D01*
X8846363Y-16245844D02*
X8836839Y-16236320D01*
X8836839Y-16236320D02*
X8846363Y-16226796D01*
X8846363Y-16226796D02*
X8846363Y-16245844D01*
X9027315Y-16112510D02*
X9027315Y-16245844D01*
X8979696Y-16036320D02*
X8932077Y-16179177D01*
X8932077Y-16179177D02*
X9055887Y-16179177D01*
X9170173Y-16045844D02*
X9189220Y-16045844D01*
X9189220Y-16045844D02*
X9208268Y-16055368D01*
X9208268Y-16055368D02*
X9217792Y-16064891D01*
X9217792Y-16064891D02*
X9227315Y-16083939D01*
X9227315Y-16083939D02*
X9236839Y-16122034D01*
X9236839Y-16122034D02*
X9236839Y-16169653D01*
X9236839Y-16169653D02*
X9227315Y-16207748D01*
X9227315Y-16207748D02*
X9217792Y-16226796D01*
X9217792Y-16226796D02*
X9208268Y-16236320D01*
X9208268Y-16236320D02*
X9189220Y-16245844D01*
X9189220Y-16245844D02*
X9170173Y-16245844D01*
X9170173Y-16245844D02*
X9151125Y-16236320D01*
X9151125Y-16236320D02*
X9141601Y-16226796D01*
X9141601Y-16226796D02*
X9132077Y-16207748D01*
X9132077Y-16207748D02*
X9122554Y-16169653D01*
X9122554Y-16169653D02*
X9122554Y-16122034D01*
X9122554Y-16122034D02*
X9132077Y-16083939D01*
X9132077Y-16083939D02*
X9141601Y-16064891D01*
X9141601Y-16064891D02*
X9151125Y-16055368D01*
X9151125Y-16055368D02*
X9170173Y-16045844D01*
X9360649Y-16045844D02*
X9379696Y-16045844D01*
X9379696Y-16045844D02*
X9398744Y-16055368D01*
X9398744Y-16055368D02*
X9408268Y-16064891D01*
X9408268Y-16064891D02*
X9417792Y-16083939D01*
X9417792Y-16083939D02*
X9427315Y-16122034D01*
X9427315Y-16122034D02*
X9427315Y-16169653D01*
X9427315Y-16169653D02*
X9417792Y-16207748D01*
X9417792Y-16207748D02*
X9408268Y-16226796D01*
X9408268Y-16226796D02*
X9398744Y-16236320D01*
X9398744Y-16236320D02*
X9379696Y-16245844D01*
X9379696Y-16245844D02*
X9360649Y-16245844D01*
X9360649Y-16245844D02*
X9341601Y-16236320D01*
X9341601Y-16236320D02*
X9332077Y-16226796D01*
X9332077Y-16226796D02*
X9322554Y-16207748D01*
X9322554Y-16207748D02*
X9313030Y-16169653D01*
X9313030Y-16169653D02*
X9313030Y-16122034D01*
X9313030Y-16122034D02*
X9322554Y-16083939D01*
X9322554Y-16083939D02*
X9332077Y-16064891D01*
X9332077Y-16064891D02*
X9341601Y-16055368D01*
X9341601Y-16055368D02*
X9360649Y-16045844D01*
X9513030Y-16245844D02*
X9513030Y-16112510D01*
X9513030Y-16131558D02*
X9522554Y-16122034D01*
X9522554Y-16122034D02*
X9541601Y-16112510D01*
X9541601Y-16112510D02*
X9570173Y-16112510D01*
X9570173Y-16112510D02*
X9589220Y-16122034D01*
X9589220Y-16122034D02*
X9598744Y-16141082D01*
X9598744Y-16141082D02*
X9598744Y-16245844D01*
X9598744Y-16141082D02*
X9608268Y-16122034D01*
X9608268Y-16122034D02*
X9627315Y-16112510D01*
X9627315Y-16112510D02*
X9655887Y-16112510D01*
X9655887Y-16112510D02*
X9674935Y-16122034D01*
X9674935Y-16122034D02*
X9684458Y-16141082D01*
X9684458Y-16141082D02*
X9684458Y-16245844D01*
X9779696Y-16245844D02*
X9779696Y-16112510D01*
X9779696Y-16131558D02*
X9789220Y-16122034D01*
X9789220Y-16122034D02*
X9808268Y-16112510D01*
X9808268Y-16112510D02*
X9836839Y-16112510D01*
X9836839Y-16112510D02*
X9855887Y-16122034D01*
X9855887Y-16122034D02*
X9865411Y-16141082D01*
X9865411Y-16141082D02*
X9865411Y-16245844D01*
X9865411Y-16141082D02*
X9874935Y-16122034D01*
X9874935Y-16122034D02*
X9893982Y-16112510D01*
X9893982Y-16112510D02*
X9922554Y-16112510D01*
X9922554Y-16112510D02*
X9941601Y-16122034D01*
X9941601Y-16122034D02*
X9951125Y-16141082D01*
X9951125Y-16141082D02*
X9951125Y-16245844D01*
X10341601Y-16036320D02*
X10170173Y-16293463D01*
X10598744Y-16045844D02*
X10617792Y-16045844D01*
X10617792Y-16045844D02*
X10636839Y-16055368D01*
X10636839Y-16055368D02*
X10646363Y-16064891D01*
X10646363Y-16064891D02*
X10655887Y-16083939D01*
X10655887Y-16083939D02*
X10665411Y-16122034D01*
X10665411Y-16122034D02*
X10665411Y-16169653D01*
X10665411Y-16169653D02*
X10655887Y-16207748D01*
X10655887Y-16207748D02*
X10646363Y-16226796D01*
X10646363Y-16226796D02*
X10636839Y-16236320D01*
X10636839Y-16236320D02*
X10617792Y-16245844D01*
X10617792Y-16245844D02*
X10598744Y-16245844D01*
X10598744Y-16245844D02*
X10579697Y-16236320D01*
X10579697Y-16236320D02*
X10570173Y-16226796D01*
X10570173Y-16226796D02*
X10560649Y-16207748D01*
X10560649Y-16207748D02*
X10551125Y-16169653D01*
X10551125Y-16169653D02*
X10551125Y-16122034D01*
X10551125Y-16122034D02*
X10560649Y-16083939D01*
X10560649Y-16083939D02*
X10570173Y-16064891D01*
X10570173Y-16064891D02*
X10579697Y-16055368D01*
X10579697Y-16055368D02*
X10598744Y-16045844D01*
X10751125Y-16226796D02*
X10760649Y-16236320D01*
X10760649Y-16236320D02*
X10751125Y-16245844D01*
X10751125Y-16245844D02*
X10741601Y-16236320D01*
X10741601Y-16236320D02*
X10751125Y-16226796D01*
X10751125Y-16226796D02*
X10751125Y-16245844D01*
X10884458Y-16045844D02*
X10903506Y-16045844D01*
X10903506Y-16045844D02*
X10922554Y-16055368D01*
X10922554Y-16055368D02*
X10932078Y-16064891D01*
X10932078Y-16064891D02*
X10941601Y-16083939D01*
X10941601Y-16083939D02*
X10951125Y-16122034D01*
X10951125Y-16122034D02*
X10951125Y-16169653D01*
X10951125Y-16169653D02*
X10941601Y-16207748D01*
X10941601Y-16207748D02*
X10932078Y-16226796D01*
X10932078Y-16226796D02*
X10922554Y-16236320D01*
X10922554Y-16236320D02*
X10903506Y-16245844D01*
X10903506Y-16245844D02*
X10884458Y-16245844D01*
X10884458Y-16245844D02*
X10865411Y-16236320D01*
X10865411Y-16236320D02*
X10855887Y-16226796D01*
X10855887Y-16226796D02*
X10846363Y-16207748D01*
X10846363Y-16207748D02*
X10836839Y-16169653D01*
X10836839Y-16169653D02*
X10836839Y-16122034D01*
X10836839Y-16122034D02*
X10846363Y-16083939D01*
X10846363Y-16083939D02*
X10855887Y-16064891D01*
X10855887Y-16064891D02*
X10865411Y-16055368D01*
X10865411Y-16055368D02*
X10884458Y-16045844D01*
X11132078Y-16045844D02*
X11036839Y-16045844D01*
X11036839Y-16045844D02*
X11027316Y-16141082D01*
X11027316Y-16141082D02*
X11036839Y-16131558D01*
X11036839Y-16131558D02*
X11055887Y-16122034D01*
X11055887Y-16122034D02*
X11103506Y-16122034D01*
X11103506Y-16122034D02*
X11122554Y-16131558D01*
X11122554Y-16131558D02*
X11132078Y-16141082D01*
X11132078Y-16141082D02*
X11141601Y-16160129D01*
X11141601Y-16160129D02*
X11141601Y-16207748D01*
X11141601Y-16207748D02*
X11132078Y-16226796D01*
X11132078Y-16226796D02*
X11122554Y-16236320D01*
X11122554Y-16236320D02*
X11103506Y-16245844D01*
X11103506Y-16245844D02*
X11055887Y-16245844D01*
X11055887Y-16245844D02*
X11036839Y-16236320D01*
X11036839Y-16236320D02*
X11027316Y-16226796D01*
X11322554Y-16045844D02*
X11227316Y-16045844D01*
X11227316Y-16045844D02*
X11217792Y-16141082D01*
X11217792Y-16141082D02*
X11227316Y-16131558D01*
X11227316Y-16131558D02*
X11246363Y-16122034D01*
X11246363Y-16122034D02*
X11293982Y-16122034D01*
X11293982Y-16122034D02*
X11313030Y-16131558D01*
X11313030Y-16131558D02*
X11322554Y-16141082D01*
X11322554Y-16141082D02*
X11332077Y-16160129D01*
X11332077Y-16160129D02*
X11332077Y-16207748D01*
X11332077Y-16207748D02*
X11322554Y-16226796D01*
X11322554Y-16226796D02*
X11313030Y-16236320D01*
X11313030Y-16236320D02*
X11293982Y-16245844D01*
X11293982Y-16245844D02*
X11246363Y-16245844D01*
X11246363Y-16245844D02*
X11227316Y-16236320D01*
X11227316Y-16236320D02*
X11217792Y-16226796D01*
X11522554Y-16245844D02*
X11408268Y-16245844D01*
X11465411Y-16245844D02*
X11465411Y-16045844D01*
X11465411Y-16045844D02*
X11446363Y-16074415D01*
X11446363Y-16074415D02*
X11427316Y-16093463D01*
X11427316Y-16093463D02*
X11408268Y-16102987D01*
X11598744Y-16045844D02*
X11598744Y-16083939D01*
X11674935Y-16045844D02*
X11674935Y-16083939D01*
X11970173Y-16322034D02*
X11960649Y-16312510D01*
X11960649Y-16312510D02*
X11941601Y-16283939D01*
X11941601Y-16283939D02*
X11932078Y-16264891D01*
X11932078Y-16264891D02*
X11922554Y-16236320D01*
X11922554Y-16236320D02*
X11913030Y-16188701D01*
X11913030Y-16188701D02*
X11913030Y-16150606D01*
X11913030Y-16150606D02*
X11922554Y-16102987D01*
X11922554Y-16102987D02*
X11932078Y-16074415D01*
X11932078Y-16074415D02*
X11941601Y-16055368D01*
X11941601Y-16055368D02*
X11960649Y-16026796D01*
X11960649Y-16026796D02*
X11970173Y-16017272D01*
X12074935Y-16131558D02*
X12055887Y-16122034D01*
X12055887Y-16122034D02*
X12046363Y-16112510D01*
X12046363Y-16112510D02*
X12036839Y-16093463D01*
X12036839Y-16093463D02*
X12036839Y-16083939D01*
X12036839Y-16083939D02*
X12046363Y-16064891D01*
X12046363Y-16064891D02*
X12055887Y-16055368D01*
X12055887Y-16055368D02*
X12074935Y-16045844D01*
X12074935Y-16045844D02*
X12113030Y-16045844D01*
X12113030Y-16045844D02*
X12132078Y-16055368D01*
X12132078Y-16055368D02*
X12141601Y-16064891D01*
X12141601Y-16064891D02*
X12151125Y-16083939D01*
X12151125Y-16083939D02*
X12151125Y-16093463D01*
X12151125Y-16093463D02*
X12141601Y-16112510D01*
X12141601Y-16112510D02*
X12132078Y-16122034D01*
X12132078Y-16122034D02*
X12113030Y-16131558D01*
X12113030Y-16131558D02*
X12074935Y-16131558D01*
X12074935Y-16131558D02*
X12055887Y-16141082D01*
X12055887Y-16141082D02*
X12046363Y-16150606D01*
X12046363Y-16150606D02*
X12036839Y-16169653D01*
X12036839Y-16169653D02*
X12036839Y-16207748D01*
X12036839Y-16207748D02*
X12046363Y-16226796D01*
X12046363Y-16226796D02*
X12055887Y-16236320D01*
X12055887Y-16236320D02*
X12074935Y-16245844D01*
X12074935Y-16245844D02*
X12113030Y-16245844D01*
X12113030Y-16245844D02*
X12132078Y-16236320D01*
X12132078Y-16236320D02*
X12141601Y-16226796D01*
X12141601Y-16226796D02*
X12151125Y-16207748D01*
X12151125Y-16207748D02*
X12151125Y-16169653D01*
X12151125Y-16169653D02*
X12141601Y-16150606D01*
X12141601Y-16150606D02*
X12132078Y-16141082D01*
X12132078Y-16141082D02*
X12113030Y-16131558D01*
X12389220Y-16245844D02*
X12389220Y-16045844D01*
X12474935Y-16245844D02*
X12474935Y-16141082D01*
X12474935Y-16141082D02*
X12465411Y-16122034D01*
X12465411Y-16122034D02*
X12446363Y-16112510D01*
X12446363Y-16112510D02*
X12417792Y-16112510D01*
X12417792Y-16112510D02*
X12398744Y-16122034D01*
X12398744Y-16122034D02*
X12389220Y-16131558D01*
X12598744Y-16245844D02*
X12579697Y-16236320D01*
X12579697Y-16236320D02*
X12570173Y-16226796D01*
X12570173Y-16226796D02*
X12560649Y-16207748D01*
X12560649Y-16207748D02*
X12560649Y-16150606D01*
X12560649Y-16150606D02*
X12570173Y-16131558D01*
X12570173Y-16131558D02*
X12579697Y-16122034D01*
X12579697Y-16122034D02*
X12598744Y-16112510D01*
X12598744Y-16112510D02*
X12627316Y-16112510D01*
X12627316Y-16112510D02*
X12646363Y-16122034D01*
X12646363Y-16122034D02*
X12655887Y-16131558D01*
X12655887Y-16131558D02*
X12665411Y-16150606D01*
X12665411Y-16150606D02*
X12665411Y-16207748D01*
X12665411Y-16207748D02*
X12655887Y-16226796D01*
X12655887Y-16226796D02*
X12646363Y-16236320D01*
X12646363Y-16236320D02*
X12627316Y-16245844D01*
X12627316Y-16245844D02*
X12598744Y-16245844D01*
X12779697Y-16245844D02*
X12760649Y-16236320D01*
X12760649Y-16236320D02*
X12751125Y-16217272D01*
X12751125Y-16217272D02*
X12751125Y-16045844D01*
X12932078Y-16236320D02*
X12913030Y-16245844D01*
X12913030Y-16245844D02*
X12874935Y-16245844D01*
X12874935Y-16245844D02*
X12855887Y-16236320D01*
X12855887Y-16236320D02*
X12846363Y-16217272D01*
X12846363Y-16217272D02*
X12846363Y-16141082D01*
X12846363Y-16141082D02*
X12855887Y-16122034D01*
X12855887Y-16122034D02*
X12874935Y-16112510D01*
X12874935Y-16112510D02*
X12913030Y-16112510D01*
X12913030Y-16112510D02*
X12932078Y-16122034D01*
X12932078Y-16122034D02*
X12941601Y-16141082D01*
X12941601Y-16141082D02*
X12941601Y-16160129D01*
X12941601Y-16160129D02*
X12846363Y-16179177D01*
X13017792Y-16236320D02*
X13036840Y-16245844D01*
X13036840Y-16245844D02*
X13074935Y-16245844D01*
X13074935Y-16245844D02*
X13093982Y-16236320D01*
X13093982Y-16236320D02*
X13103506Y-16217272D01*
X13103506Y-16217272D02*
X13103506Y-16207748D01*
X13103506Y-16207748D02*
X13093982Y-16188701D01*
X13093982Y-16188701D02*
X13074935Y-16179177D01*
X13074935Y-16179177D02*
X13046363Y-16179177D01*
X13046363Y-16179177D02*
X13027316Y-16169653D01*
X13027316Y-16169653D02*
X13017792Y-16150606D01*
X13017792Y-16150606D02*
X13017792Y-16141082D01*
X13017792Y-16141082D02*
X13027316Y-16122034D01*
X13027316Y-16122034D02*
X13046363Y-16112510D01*
X13046363Y-16112510D02*
X13074935Y-16112510D01*
X13074935Y-16112510D02*
X13093982Y-16122034D01*
X13170173Y-16322034D02*
X13179697Y-16312510D01*
X13179697Y-16312510D02*
X13198744Y-16283939D01*
X13198744Y-16283939D02*
X13208268Y-16264891D01*
X13208268Y-16264891D02*
X13217792Y-16236320D01*
X13217792Y-16236320D02*
X13227316Y-16188701D01*
X13227316Y-16188701D02*
X13227316Y-16150606D01*
X13227316Y-16150606D02*
X13217792Y-16102987D01*
X13217792Y-16102987D02*
X13208268Y-16074415D01*
X13208268Y-16074415D02*
X13198744Y-16055368D01*
X13198744Y-16055368D02*
X13179697Y-16026796D01*
X13179697Y-16026796D02*
X13170173Y-16017272D01*
D15*
X8245110Y-16343360D02*
X8395110Y-16493360D01*
X8395110Y-16343360D02*
X8245110Y-16493360D01*
X8373143Y-16471393D02*
X8373143Y-16365326D01*
X8267076Y-16365326D01*
X8267076Y-16471393D01*
X8373143Y-16471393D01*
D12*
X8760649Y-16509844D02*
X8646363Y-16509844D01*
X8703506Y-16509844D02*
X8703506Y-16309844D01*
X8703506Y-16309844D02*
X8684458Y-16338415D01*
X8684458Y-16338415D02*
X8665411Y-16357463D01*
X8665411Y-16357463D02*
X8646363Y-16366987D01*
X8846363Y-16490796D02*
X8855887Y-16500320D01*
X8855887Y-16500320D02*
X8846363Y-16509844D01*
X8846363Y-16509844D02*
X8836839Y-16500320D01*
X8836839Y-16500320D02*
X8846363Y-16490796D01*
X8846363Y-16490796D02*
X8846363Y-16509844D01*
X9036839Y-16309844D02*
X8941601Y-16309844D01*
X8941601Y-16309844D02*
X8932077Y-16405082D01*
X8932077Y-16405082D02*
X8941601Y-16395558D01*
X8941601Y-16395558D02*
X8960649Y-16386034D01*
X8960649Y-16386034D02*
X9008268Y-16386034D01*
X9008268Y-16386034D02*
X9027315Y-16395558D01*
X9027315Y-16395558D02*
X9036839Y-16405082D01*
X9036839Y-16405082D02*
X9046363Y-16424129D01*
X9046363Y-16424129D02*
X9046363Y-16471748D01*
X9046363Y-16471748D02*
X9036839Y-16490796D01*
X9036839Y-16490796D02*
X9027315Y-16500320D01*
X9027315Y-16500320D02*
X9008268Y-16509844D01*
X9008268Y-16509844D02*
X8960649Y-16509844D01*
X8960649Y-16509844D02*
X8941601Y-16500320D01*
X8941601Y-16500320D02*
X8932077Y-16490796D01*
X9170173Y-16309844D02*
X9189220Y-16309844D01*
X9189220Y-16309844D02*
X9208268Y-16319368D01*
X9208268Y-16319368D02*
X9217792Y-16328891D01*
X9217792Y-16328891D02*
X9227315Y-16347939D01*
X9227315Y-16347939D02*
X9236839Y-16386034D01*
X9236839Y-16386034D02*
X9236839Y-16433653D01*
X9236839Y-16433653D02*
X9227315Y-16471748D01*
X9227315Y-16471748D02*
X9217792Y-16490796D01*
X9217792Y-16490796D02*
X9208268Y-16500320D01*
X9208268Y-16500320D02*
X9189220Y-16509844D01*
X9189220Y-16509844D02*
X9170173Y-16509844D01*
X9170173Y-16509844D02*
X9151125Y-16500320D01*
X9151125Y-16500320D02*
X9141601Y-16490796D01*
X9141601Y-16490796D02*
X9132077Y-16471748D01*
X9132077Y-16471748D02*
X9122554Y-16433653D01*
X9122554Y-16433653D02*
X9122554Y-16386034D01*
X9122554Y-16386034D02*
X9132077Y-16347939D01*
X9132077Y-16347939D02*
X9141601Y-16328891D01*
X9141601Y-16328891D02*
X9151125Y-16319368D01*
X9151125Y-16319368D02*
X9170173Y-16309844D01*
X9360649Y-16309844D02*
X9379696Y-16309844D01*
X9379696Y-16309844D02*
X9398744Y-16319368D01*
X9398744Y-16319368D02*
X9408268Y-16328891D01*
X9408268Y-16328891D02*
X9417792Y-16347939D01*
X9417792Y-16347939D02*
X9427315Y-16386034D01*
X9427315Y-16386034D02*
X9427315Y-16433653D01*
X9427315Y-16433653D02*
X9417792Y-16471748D01*
X9417792Y-16471748D02*
X9408268Y-16490796D01*
X9408268Y-16490796D02*
X9398744Y-16500320D01*
X9398744Y-16500320D02*
X9379696Y-16509844D01*
X9379696Y-16509844D02*
X9360649Y-16509844D01*
X9360649Y-16509844D02*
X9341601Y-16500320D01*
X9341601Y-16500320D02*
X9332077Y-16490796D01*
X9332077Y-16490796D02*
X9322554Y-16471748D01*
X9322554Y-16471748D02*
X9313030Y-16433653D01*
X9313030Y-16433653D02*
X9313030Y-16386034D01*
X9313030Y-16386034D02*
X9322554Y-16347939D01*
X9322554Y-16347939D02*
X9332077Y-16328891D01*
X9332077Y-16328891D02*
X9341601Y-16319368D01*
X9341601Y-16319368D02*
X9360649Y-16309844D01*
X9513030Y-16509844D02*
X9513030Y-16376510D01*
X9513030Y-16395558D02*
X9522554Y-16386034D01*
X9522554Y-16386034D02*
X9541601Y-16376510D01*
X9541601Y-16376510D02*
X9570173Y-16376510D01*
X9570173Y-16376510D02*
X9589220Y-16386034D01*
X9589220Y-16386034D02*
X9598744Y-16405082D01*
X9598744Y-16405082D02*
X9598744Y-16509844D01*
X9598744Y-16405082D02*
X9608268Y-16386034D01*
X9608268Y-16386034D02*
X9627315Y-16376510D01*
X9627315Y-16376510D02*
X9655887Y-16376510D01*
X9655887Y-16376510D02*
X9674935Y-16386034D01*
X9674935Y-16386034D02*
X9684458Y-16405082D01*
X9684458Y-16405082D02*
X9684458Y-16509844D01*
X9779696Y-16509844D02*
X9779696Y-16376510D01*
X9779696Y-16395558D02*
X9789220Y-16386034D01*
X9789220Y-16386034D02*
X9808268Y-16376510D01*
X9808268Y-16376510D02*
X9836839Y-16376510D01*
X9836839Y-16376510D02*
X9855887Y-16386034D01*
X9855887Y-16386034D02*
X9865411Y-16405082D01*
X9865411Y-16405082D02*
X9865411Y-16509844D01*
X9865411Y-16405082D02*
X9874935Y-16386034D01*
X9874935Y-16386034D02*
X9893982Y-16376510D01*
X9893982Y-16376510D02*
X9922554Y-16376510D01*
X9922554Y-16376510D02*
X9941601Y-16386034D01*
X9941601Y-16386034D02*
X9951125Y-16405082D01*
X9951125Y-16405082D02*
X9951125Y-16509844D01*
X10341601Y-16300320D02*
X10170173Y-16557463D01*
X10598744Y-16309844D02*
X10617792Y-16309844D01*
X10617792Y-16309844D02*
X10636839Y-16319368D01*
X10636839Y-16319368D02*
X10646363Y-16328891D01*
X10646363Y-16328891D02*
X10655887Y-16347939D01*
X10655887Y-16347939D02*
X10665411Y-16386034D01*
X10665411Y-16386034D02*
X10665411Y-16433653D01*
X10665411Y-16433653D02*
X10655887Y-16471748D01*
X10655887Y-16471748D02*
X10646363Y-16490796D01*
X10646363Y-16490796D02*
X10636839Y-16500320D01*
X10636839Y-16500320D02*
X10617792Y-16509844D01*
X10617792Y-16509844D02*
X10598744Y-16509844D01*
X10598744Y-16509844D02*
X10579697Y-16500320D01*
X10579697Y-16500320D02*
X10570173Y-16490796D01*
X10570173Y-16490796D02*
X10560649Y-16471748D01*
X10560649Y-16471748D02*
X10551125Y-16433653D01*
X10551125Y-16433653D02*
X10551125Y-16386034D01*
X10551125Y-16386034D02*
X10560649Y-16347939D01*
X10560649Y-16347939D02*
X10570173Y-16328891D01*
X10570173Y-16328891D02*
X10579697Y-16319368D01*
X10579697Y-16319368D02*
X10598744Y-16309844D01*
X10751125Y-16490796D02*
X10760649Y-16500320D01*
X10760649Y-16500320D02*
X10751125Y-16509844D01*
X10751125Y-16509844D02*
X10741601Y-16500320D01*
X10741601Y-16500320D02*
X10751125Y-16490796D01*
X10751125Y-16490796D02*
X10751125Y-16509844D01*
X10884458Y-16309844D02*
X10903506Y-16309844D01*
X10903506Y-16309844D02*
X10922554Y-16319368D01*
X10922554Y-16319368D02*
X10932078Y-16328891D01*
X10932078Y-16328891D02*
X10941601Y-16347939D01*
X10941601Y-16347939D02*
X10951125Y-16386034D01*
X10951125Y-16386034D02*
X10951125Y-16433653D01*
X10951125Y-16433653D02*
X10941601Y-16471748D01*
X10941601Y-16471748D02*
X10932078Y-16490796D01*
X10932078Y-16490796D02*
X10922554Y-16500320D01*
X10922554Y-16500320D02*
X10903506Y-16509844D01*
X10903506Y-16509844D02*
X10884458Y-16509844D01*
X10884458Y-16509844D02*
X10865411Y-16500320D01*
X10865411Y-16500320D02*
X10855887Y-16490796D01*
X10855887Y-16490796D02*
X10846363Y-16471748D01*
X10846363Y-16471748D02*
X10836839Y-16433653D01*
X10836839Y-16433653D02*
X10836839Y-16386034D01*
X10836839Y-16386034D02*
X10846363Y-16347939D01*
X10846363Y-16347939D02*
X10855887Y-16328891D01*
X10855887Y-16328891D02*
X10865411Y-16319368D01*
X10865411Y-16319368D02*
X10884458Y-16309844D01*
X11132078Y-16309844D02*
X11036839Y-16309844D01*
X11036839Y-16309844D02*
X11027316Y-16405082D01*
X11027316Y-16405082D02*
X11036839Y-16395558D01*
X11036839Y-16395558D02*
X11055887Y-16386034D01*
X11055887Y-16386034D02*
X11103506Y-16386034D01*
X11103506Y-16386034D02*
X11122554Y-16395558D01*
X11122554Y-16395558D02*
X11132078Y-16405082D01*
X11132078Y-16405082D02*
X11141601Y-16424129D01*
X11141601Y-16424129D02*
X11141601Y-16471748D01*
X11141601Y-16471748D02*
X11132078Y-16490796D01*
X11132078Y-16490796D02*
X11122554Y-16500320D01*
X11122554Y-16500320D02*
X11103506Y-16509844D01*
X11103506Y-16509844D02*
X11055887Y-16509844D01*
X11055887Y-16509844D02*
X11036839Y-16500320D01*
X11036839Y-16500320D02*
X11027316Y-16490796D01*
X11236839Y-16509844D02*
X11274935Y-16509844D01*
X11274935Y-16509844D02*
X11293982Y-16500320D01*
X11293982Y-16500320D02*
X11303506Y-16490796D01*
X11303506Y-16490796D02*
X11322554Y-16462225D01*
X11322554Y-16462225D02*
X11332077Y-16424129D01*
X11332077Y-16424129D02*
X11332077Y-16347939D01*
X11332077Y-16347939D02*
X11322554Y-16328891D01*
X11322554Y-16328891D02*
X11313030Y-16319368D01*
X11313030Y-16319368D02*
X11293982Y-16309844D01*
X11293982Y-16309844D02*
X11255887Y-16309844D01*
X11255887Y-16309844D02*
X11236839Y-16319368D01*
X11236839Y-16319368D02*
X11227316Y-16328891D01*
X11227316Y-16328891D02*
X11217792Y-16347939D01*
X11217792Y-16347939D02*
X11217792Y-16395558D01*
X11217792Y-16395558D02*
X11227316Y-16414606D01*
X11227316Y-16414606D02*
X11236839Y-16424129D01*
X11236839Y-16424129D02*
X11255887Y-16433653D01*
X11255887Y-16433653D02*
X11293982Y-16433653D01*
X11293982Y-16433653D02*
X11313030Y-16424129D01*
X11313030Y-16424129D02*
X11322554Y-16414606D01*
X11322554Y-16414606D02*
X11332077Y-16395558D01*
X11522554Y-16509844D02*
X11408268Y-16509844D01*
X11465411Y-16509844D02*
X11465411Y-16309844D01*
X11465411Y-16309844D02*
X11446363Y-16338415D01*
X11446363Y-16338415D02*
X11427316Y-16357463D01*
X11427316Y-16357463D02*
X11408268Y-16366987D01*
X11598744Y-16309844D02*
X11598744Y-16347939D01*
X11674935Y-16309844D02*
X11674935Y-16347939D01*
X11970173Y-16586034D02*
X11960649Y-16576510D01*
X11960649Y-16576510D02*
X11941601Y-16547939D01*
X11941601Y-16547939D02*
X11932078Y-16528891D01*
X11932078Y-16528891D02*
X11922554Y-16500320D01*
X11922554Y-16500320D02*
X11913030Y-16452701D01*
X11913030Y-16452701D02*
X11913030Y-16414606D01*
X11913030Y-16414606D02*
X11922554Y-16366987D01*
X11922554Y-16366987D02*
X11932078Y-16338415D01*
X11932078Y-16338415D02*
X11941601Y-16319368D01*
X11941601Y-16319368D02*
X11960649Y-16290796D01*
X11960649Y-16290796D02*
X11970173Y-16281272D01*
X12074935Y-16395558D02*
X12055887Y-16386034D01*
X12055887Y-16386034D02*
X12046363Y-16376510D01*
X12046363Y-16376510D02*
X12036839Y-16357463D01*
X12036839Y-16357463D02*
X12036839Y-16347939D01*
X12036839Y-16347939D02*
X12046363Y-16328891D01*
X12046363Y-16328891D02*
X12055887Y-16319368D01*
X12055887Y-16319368D02*
X12074935Y-16309844D01*
X12074935Y-16309844D02*
X12113030Y-16309844D01*
X12113030Y-16309844D02*
X12132078Y-16319368D01*
X12132078Y-16319368D02*
X12141601Y-16328891D01*
X12141601Y-16328891D02*
X12151125Y-16347939D01*
X12151125Y-16347939D02*
X12151125Y-16357463D01*
X12151125Y-16357463D02*
X12141601Y-16376510D01*
X12141601Y-16376510D02*
X12132078Y-16386034D01*
X12132078Y-16386034D02*
X12113030Y-16395558D01*
X12113030Y-16395558D02*
X12074935Y-16395558D01*
X12074935Y-16395558D02*
X12055887Y-16405082D01*
X12055887Y-16405082D02*
X12046363Y-16414606D01*
X12046363Y-16414606D02*
X12036839Y-16433653D01*
X12036839Y-16433653D02*
X12036839Y-16471748D01*
X12036839Y-16471748D02*
X12046363Y-16490796D01*
X12046363Y-16490796D02*
X12055887Y-16500320D01*
X12055887Y-16500320D02*
X12074935Y-16509844D01*
X12074935Y-16509844D02*
X12113030Y-16509844D01*
X12113030Y-16509844D02*
X12132078Y-16500320D01*
X12132078Y-16500320D02*
X12141601Y-16490796D01*
X12141601Y-16490796D02*
X12151125Y-16471748D01*
X12151125Y-16471748D02*
X12151125Y-16433653D01*
X12151125Y-16433653D02*
X12141601Y-16414606D01*
X12141601Y-16414606D02*
X12132078Y-16405082D01*
X12132078Y-16405082D02*
X12113030Y-16395558D01*
X12389220Y-16509844D02*
X12389220Y-16309844D01*
X12474935Y-16509844D02*
X12474935Y-16405082D01*
X12474935Y-16405082D02*
X12465411Y-16386034D01*
X12465411Y-16386034D02*
X12446363Y-16376510D01*
X12446363Y-16376510D02*
X12417792Y-16376510D01*
X12417792Y-16376510D02*
X12398744Y-16386034D01*
X12398744Y-16386034D02*
X12389220Y-16395558D01*
X12598744Y-16509844D02*
X12579697Y-16500320D01*
X12579697Y-16500320D02*
X12570173Y-16490796D01*
X12570173Y-16490796D02*
X12560649Y-16471748D01*
X12560649Y-16471748D02*
X12560649Y-16414606D01*
X12560649Y-16414606D02*
X12570173Y-16395558D01*
X12570173Y-16395558D02*
X12579697Y-16386034D01*
X12579697Y-16386034D02*
X12598744Y-16376510D01*
X12598744Y-16376510D02*
X12627316Y-16376510D01*
X12627316Y-16376510D02*
X12646363Y-16386034D01*
X12646363Y-16386034D02*
X12655887Y-16395558D01*
X12655887Y-16395558D02*
X12665411Y-16414606D01*
X12665411Y-16414606D02*
X12665411Y-16471748D01*
X12665411Y-16471748D02*
X12655887Y-16490796D01*
X12655887Y-16490796D02*
X12646363Y-16500320D01*
X12646363Y-16500320D02*
X12627316Y-16509844D01*
X12627316Y-16509844D02*
X12598744Y-16509844D01*
X12779697Y-16509844D02*
X12760649Y-16500320D01*
X12760649Y-16500320D02*
X12751125Y-16481272D01*
X12751125Y-16481272D02*
X12751125Y-16309844D01*
X12932078Y-16500320D02*
X12913030Y-16509844D01*
X12913030Y-16509844D02*
X12874935Y-16509844D01*
X12874935Y-16509844D02*
X12855887Y-16500320D01*
X12855887Y-16500320D02*
X12846363Y-16481272D01*
X12846363Y-16481272D02*
X12846363Y-16405082D01*
X12846363Y-16405082D02*
X12855887Y-16386034D01*
X12855887Y-16386034D02*
X12874935Y-16376510D01*
X12874935Y-16376510D02*
X12913030Y-16376510D01*
X12913030Y-16376510D02*
X12932078Y-16386034D01*
X12932078Y-16386034D02*
X12941601Y-16405082D01*
X12941601Y-16405082D02*
X12941601Y-16424129D01*
X12941601Y-16424129D02*
X12846363Y-16443177D01*
X13017792Y-16500320D02*
X13036840Y-16509844D01*
X13036840Y-16509844D02*
X13074935Y-16509844D01*
X13074935Y-16509844D02*
X13093982Y-16500320D01*
X13093982Y-16500320D02*
X13103506Y-16481272D01*
X13103506Y-16481272D02*
X13103506Y-16471748D01*
X13103506Y-16471748D02*
X13093982Y-16452701D01*
X13093982Y-16452701D02*
X13074935Y-16443177D01*
X13074935Y-16443177D02*
X13046363Y-16443177D01*
X13046363Y-16443177D02*
X13027316Y-16433653D01*
X13027316Y-16433653D02*
X13017792Y-16414606D01*
X13017792Y-16414606D02*
X13017792Y-16405082D01*
X13017792Y-16405082D02*
X13027316Y-16386034D01*
X13027316Y-16386034D02*
X13046363Y-16376510D01*
X13046363Y-16376510D02*
X13074935Y-16376510D01*
X13074935Y-16376510D02*
X13093982Y-16386034D01*
X13170173Y-16586034D02*
X13179697Y-16576510D01*
X13179697Y-16576510D02*
X13198744Y-16547939D01*
X13198744Y-16547939D02*
X13208268Y-16528891D01*
X13208268Y-16528891D02*
X13217792Y-16500320D01*
X13217792Y-16500320D02*
X13227316Y-16452701D01*
X13227316Y-16452701D02*
X13227316Y-16414606D01*
X13227316Y-16414606D02*
X13217792Y-16366987D01*
X13217792Y-16366987D02*
X13208268Y-16338415D01*
X13208268Y-16338415D02*
X13198744Y-16319368D01*
X13198744Y-16319368D02*
X13179697Y-16290796D01*
X13179697Y-16290796D02*
X13170173Y-16281272D01*
M02*
