%TF.GenerationSoftware,KiCad,Pcbnew,7.0.10-7.0.10~ubuntu22.04.1*%
%TF.CreationDate,2024-01-07T19:36:59+01:00*%
%TF.ProjectId,EEZ DIB AFE3,45455a20-4449-4422-9041-4645332e6b69,rev?*%
%TF.SameCoordinates,Original*%
%TF.FileFunction,Copper,L3,Inr*%
%TF.FilePolarity,Positive*%
%FSLAX46Y46*%
G04 Gerber Fmt 4.6, Leading zero omitted, Abs format (unit mm)*
G04 Created by KiCad (PCBNEW 7.0.10-7.0.10~ubuntu22.04.1) date 2024-01-07 19:36:59*
%MOMM*%
%LPD*%
G01*
G04 APERTURE LIST*
G04 Aperture macros list*
%AMOutline5P*
0 Free polygon, 5 corners , with rotation*
0 The origin of the aperture is its center*
0 number of corners: always 5*
0 $1 to $10 corner X, Y*
0 $11 Rotation angle, in degrees counterclockwise*
0 create outline with 5 corners*
4,1,5,$1,$2,$3,$4,$5,$6,$7,$8,$9,$10,$1,$2,$11*%
%AMOutline6P*
0 Free polygon, 6 corners , with rotation*
0 The origin of the aperture is its center*
0 number of corners: always 6*
0 $1 to $12 corner X, Y*
0 $13 Rotation angle, in degrees counterclockwise*
0 create outline with 6 corners*
4,1,6,$1,$2,$3,$4,$5,$6,$7,$8,$9,$10,$11,$12,$1,$2,$13*%
%AMOutline7P*
0 Free polygon, 7 corners , with rotation*
0 The origin of the aperture is its center*
0 number of corners: always 7*
0 $1 to $14 corner X, Y*
0 $15 Rotation angle, in degrees counterclockwise*
0 create outline with 7 corners*
4,1,7,$1,$2,$3,$4,$5,$6,$7,$8,$9,$10,$11,$12,$13,$14,$1,$2,$15*%
%AMOutline8P*
0 Free polygon, 8 corners , with rotation*
0 The origin of the aperture is its center*
0 number of corners: always 8*
0 $1 to $16 corner X, Y*
0 $17 Rotation angle, in degrees counterclockwise*
0 create outline with 8 corners*
4,1,8,$1,$2,$3,$4,$5,$6,$7,$8,$9,$10,$11,$12,$13,$14,$15,$16,$1,$2,$17*%
G04 Aperture macros list end*
%TA.AperFunction,ComponentPad*%
%ADD10C,1.270000*%
%TD*%
%TA.AperFunction,ComponentPad*%
%ADD11C,3.000000*%
%TD*%
%TA.AperFunction,ComponentPad*%
%ADD12C,1.950000*%
%TD*%
%TA.AperFunction,ComponentPad*%
%ADD13Outline8P,-1.270000X0.526051X-0.526051X1.270000X0.526051X1.270000X1.270000X0.526051X1.270000X-0.526051X0.526051X-1.270000X-0.526051X-1.270000X-1.270000X-0.526051X270.000000*%
%TD*%
%TA.AperFunction,ComponentPad*%
%ADD14C,2.100000*%
%TD*%
%TA.AperFunction,ComponentPad*%
%ADD15Outline8P,-1.270000X0.526051X-0.526051X1.270000X0.526051X1.270000X1.270000X0.526051X1.270000X-0.526051X0.526051X-1.270000X-0.526051X-1.270000X-1.270000X-0.526051X0.000000*%
%TD*%
%TA.AperFunction,ComponentPad*%
%ADD16Outline8P,-1.270000X0.526051X-0.526051X1.270000X0.526051X1.270000X1.270000X0.526051X1.270000X-0.526051X0.526051X-1.270000X-0.526051X-1.270000X-1.270000X-0.526051X180.000000*%
%TD*%
%TA.AperFunction,ComponentPad*%
%ADD17R,1.500000X1.500000*%
%TD*%
%TA.AperFunction,ComponentPad*%
%ADD18Outline8P,-0.750000X0.310660X-0.310660X0.750000X0.310660X0.750000X0.750000X0.310660X0.750000X-0.310660X0.310660X-0.750000X-0.310660X-0.750000X-0.750000X-0.310660X180.000000*%
%TD*%
%TA.AperFunction,ViaPad*%
%ADD19C,0.806400*%
%TD*%
%TA.AperFunction,ViaPad*%
%ADD20C,0.600000*%
%TD*%
%TA.AperFunction,Conductor*%
%ADD21C,0.203200*%
%TD*%
%TA.AperFunction,Conductor*%
%ADD22C,0.254000*%
%TD*%
%TA.AperFunction,Conductor*%
%ADD23C,0.609600*%
%TD*%
%TA.AperFunction,Conductor*%
%ADD24C,0.812800*%
%TD*%
%TA.AperFunction,Conductor*%
%ADD25C,0.304800*%
%TD*%
%TA.AperFunction,Conductor*%
%ADD26C,1.930400*%
%TD*%
G04 APERTURE END LIST*
D10*
%TO.N,GND*%
%TO.C,JP6*%
X178362100Y-92206700D03*
%TO.N,AIN4N*%
X178362100Y-94206700D03*
%TD*%
%TO.N,-2V5_ISO*%
%TO.C,TP2*%
X180340000Y-129540000D03*
%TD*%
%TO.N,+2V5_ISO*%
%TO.C,TP1*%
X193040000Y-121920000D03*
%TD*%
D11*
%TO.N,Net-(ISEL10A_1-Pad11)*%
%TO.C,ISEL10A_1*%
X112422300Y-96135800D03*
%TO.N,Net-(ISEL10A_1-Pad12)*%
X117462300Y-96135800D03*
%TO.N,Net-(ISEL10A_1-Pad14)*%
X107382300Y-96135800D03*
%TO.N,Net-(F1-Pad1)*%
X112422300Y-88575800D03*
%TO.N,Net-(ISEL10A_1-Pad22)*%
X117462300Y-88575800D03*
%TO.N,unconnected-(ISEL10A_1-Pad24)*%
X107382300Y-88575800D03*
D12*
%TO.N,/Isolated Ch#1\u002C Ch#2/ISEL_R2_OUT*%
X132752300Y-88575800D03*
%TO.N,/Isolated Ch#1\u002C Ch#2/ISEL_S2_OUT*%
X132752300Y-96135800D03*
%TO.N,+5V_ISO*%
X132752300Y-92355800D03*
%TD*%
D11*
%TO.N,Net-(F4-Pad1)*%
%TO.C,ISEL10A_2*%
X178475000Y-83600900D03*
%TO.N,Net-(ISEL10A_2-Pad12)*%
X183515000Y-83600900D03*
%TO.N,unconnected-(ISEL10A_2-Pad14)*%
X173435000Y-83600900D03*
%TO.N,Net-(F4-Pad1)*%
X178475000Y-76040900D03*
%TO.N,Net-(ISEL10A_2-Pad12)*%
X183515000Y-76040900D03*
%TO.N,unconnected-(ISEL10A_2-Pad24)*%
X173435000Y-76040900D03*
D12*
%TO.N,ISEL10A_R4_OUT*%
X198805000Y-76040900D03*
%TO.N,ISEL10A_S4_OUT*%
X198805000Y-83600900D03*
%TO.N,+5V_ISO*%
X198805000Y-79820900D03*
%TD*%
D10*
%TO.N,GND*%
%TO.C,JP5*%
X169357800Y-122705500D03*
%TO.N,IN3N*%
X169357800Y-120705500D03*
%TD*%
D13*
%TO.N,Net-(ISEL1A_1B-COM)*%
%TO.C,F3*%
X160465600Y-91313000D03*
%TO.N,AIN4P*%
X137965600Y-91313000D03*
%TD*%
D14*
%TO.N,AIN1P*%
%TO.C,X3*%
X89600000Y-133085000D03*
%TO.N,AIN1N*%
X89600000Y-129275000D03*
%TO.N,AIN2P*%
X89600000Y-125465000D03*
%TO.N,AIN2N*%
X89600000Y-121655000D03*
%TO.N,AIN3P*%
X89600000Y-117845000D03*
%TO.N,IN3N*%
X89600000Y-114035000D03*
%TO.N,AIN4P*%
X89600000Y-110225000D03*
%TO.N,AIN4N*%
X89600000Y-106415000D03*
%TD*%
D10*
%TO.N,GND*%
%TO.C,GND1*%
X185420000Y-129540000D03*
%TD*%
D15*
%TO.N,Net-(F1-Pad1)*%
%TO.C,F1*%
X96139000Y-106807000D03*
%TO.N,AIN2P*%
X96139000Y-129307000D03*
%TD*%
D13*
%TO.N,Net-(F4-Pad1)*%
%TO.C,F4*%
X160452900Y-81916400D03*
%TO.N,AIN4P*%
X137952900Y-81916400D03*
%TD*%
D16*
%TO.N,Net-(F1-Pad1)*%
%TO.C,F2*%
X105578400Y-129323300D03*
%TO.N,Net-(F2-Pad2)*%
X105578400Y-106823300D03*
%TD*%
D10*
%TO.N,IN1N*%
%TO.C,IN1N1*%
X142240000Y-129540000D03*
%TD*%
D17*
%TO.N,GND*%
%TO.C,X2*%
X169020000Y-72713600D03*
D18*
%TO.N,unconnected-(X2-Pin_2-Pad2)*%
X169020000Y-75253600D03*
%TO.N,/Isolated Ch#1\u002C Ch#2/DIAG#1*%
X166480000Y-72713600D03*
%TO.N,/Isolated Ch#1\u002C Ch#2/DIAG#2*%
X166480000Y-75253600D03*
%TO.N,/Isolated Ch#1\u002C Ch#2/USEL#1*%
X163940000Y-72713600D03*
%TO.N,/Isolated Ch#1\u002C Ch#2/ISEL_S#2*%
X163940000Y-75253600D03*
%TO.N,unconnected-(X2-Pin_7-Pad7)*%
X161400000Y-72713600D03*
%TO.N,/Isolated Ch#1\u002C Ch#2/ISEL_R#2*%
X161400000Y-75253600D03*
%TO.N,USEL100#3*%
X158860000Y-72713600D03*
%TO.N,unconnected-(X2-Pin_10-Pad10)*%
X158860000Y-75253600D03*
%TO.N,USEL1#3*%
X156320000Y-72713600D03*
%TO.N,unconnected-(X2-Pin_12-Pad12)*%
X156320000Y-75253600D03*
%TO.N,USEL20#3*%
X153780000Y-72713600D03*
%TO.N,unconnected-(X2-Pin_14-Pad14)*%
X153780000Y-75253600D03*
%TO.N,unconnected-(X2-Pin_15-Pad15)*%
X151240000Y-72713600D03*
%TO.N,/Isolated Ch#1\u002C Ch#2/ISEL_S#4*%
X151240000Y-75253600D03*
%TO.N,unconnected-(X2-Pin_17-Pad17)*%
X148700000Y-72713600D03*
%TO.N,/Isolated Ch#1\u002C Ch#2/ISEL_R#4*%
X148700000Y-75253600D03*
%TO.N,unconnected-(X2-Pin_19-Pad19)*%
X146160000Y-72713600D03*
%TO.N,/Isolated Ch#1\u002C Ch#2/ISEL10_S#4*%
X146160000Y-75253600D03*
%TO.N,unconnected-(X2-Pin_21-Pad21)*%
X143620000Y-72713600D03*
%TO.N,/Isolated Ch#1\u002C Ch#2/ISEL10_R#4*%
X143620000Y-75253600D03*
%TO.N,ISEL_LOW#4*%
X141080000Y-72713600D03*
%TO.N,ISEL_MID#4*%
X141080000Y-75253600D03*
%TO.N,unconnected-(X2-Pin_25-Pad25)*%
X138540000Y-72713600D03*
%TO.N,unconnected-(X2-Pin_26-Pad26)*%
X138540000Y-75253600D03*
%TO.N,GND*%
X136000000Y-72713600D03*
X136000000Y-75253600D03*
%TD*%
D10*
%TO.N,IN1P*%
%TO.C,IN1P1*%
X142240000Y-121920000D03*
%TD*%
%TO.N,IN2N*%
%TO.C,IN2N1*%
X144780000Y-106680000D03*
%TD*%
%TO.N,IN2P*%
%TO.C,IN2P1*%
X144780000Y-111760000D03*
%TD*%
D17*
%TO.N,GND*%
%TO.C,X1*%
X169020000Y-134753600D03*
D18*
X169020000Y-137293600D03*
%TO.N,ADC_MOSI*%
X166480000Y-134753600D03*
%TO.N,unconnected-(X1-Pin_4-Pad4)*%
X166480000Y-137293600D03*
%TO.N,~{ADC_CS}*%
X163940000Y-134753600D03*
%TO.N,ADC_SCK*%
X163940000Y-137293600D03*
%TO.N,~{ADC_DRDY}*%
X161400000Y-134753600D03*
%TO.N,ADC_MISO*%
X161400000Y-137293600D03*
%TO.N,~{RESET}*%
X158860000Y-134753600D03*
%TO.N,ADC_START*%
X158860000Y-137293600D03*
%TO.N,GND*%
X156320000Y-134753600D03*
X156320000Y-137293600D03*
%TO.N,+3V3_ISO*%
X153780000Y-134753600D03*
%TO.N,AFE_CLK*%
X153780000Y-137293600D03*
%TO.N,-5V_ISO*%
X151240000Y-134753600D03*
%TO.N,+5V_ISO*%
X151240000Y-137293600D03*
%TO.N,unconnected-(X1-Pin_17-Pad17)*%
X148700000Y-134753600D03*
%TO.N,unconnected-(X1-Pin_18-Pad18)*%
X148700000Y-137293600D03*
%TO.N,-15V_ISO*%
X146160000Y-134753600D03*
%TO.N,+15V_ISO*%
X146160000Y-137293600D03*
%TO.N,GND*%
X143620000Y-134753600D03*
X143620000Y-137293600D03*
%TO.N,Net-(X1-Pin_23)*%
X141080000Y-134753600D03*
%TO.N,Net-(X1-Pin_24)*%
X141080000Y-137293600D03*
%TO.N,Net-(X1-Pin_25)*%
X138540000Y-134753600D03*
%TO.N,Net-(X1-Pin_26)*%
X138540000Y-137293600D03*
%TO.N,GND*%
X136000000Y-134753600D03*
X136000000Y-137293600D03*
%TD*%
D19*
%TO.N,Net-(IC2-DCDC_HGND)*%
X121402600Y-108586400D03*
X123333000Y-103112700D03*
X118811800Y-111113700D03*
%TO.N,Net-(IC8-AVDD)*%
X203361101Y-102904099D03*
X198275700Y-102719000D03*
X198374000Y-123952000D03*
X196840600Y-119292500D03*
X200307700Y-107405300D03*
%TO.N,/Voltage/current  ADC/AVSS*%
X201577700Y-107506900D03*
X200803000Y-100331400D03*
X199317100Y-115838100D03*
X202809600Y-98997900D03*
X202565000Y-100647500D03*
X197805800Y-115850800D03*
X205359000Y-129540000D03*
X200815700Y-103747700D03*
X195964300Y-103569900D03*
X204308200Y-117730400D03*
X200180700Y-120930800D03*
X198374000Y-125539500D03*
%TO.N,Net-(IC8-VREFP)*%
X200320400Y-98426400D03*
X196065900Y-122150000D03*
%TO.N,Net-(D3-A)*%
X179886100Y-120067200D03*
X187569600Y-119965600D03*
%TO.N,Net-(IC6B-S)*%
X151082500Y-103620700D03*
X174641000Y-96419800D03*
X166551100Y-102503100D03*
X174272700Y-100382200D03*
X183543700Y-106719500D03*
%TO.N,Net-(D10-A)*%
X179873400Y-114377600D03*
X185207400Y-115469800D03*
%TO.N,Net-(F2-Pad2)*%
X112042700Y-99213800D03*
X113681000Y-99213800D03*
X112855500Y-99213800D03*
X111217200Y-99213800D03*
%TO.N,Net-(ISEL1A_1B-COM)*%
X153686000Y-99213800D03*
X152873200Y-99213800D03*
%TO.N,/Isolated Ch#1\u002C Ch#2/DIAG#1*%
X143183100Y-96013400D03*
X140652500Y-120015000D03*
X136045700Y-120016400D03*
%TO.N,/Isolated Ch#1\u002C Ch#2/ISEL_S2_OUT*%
X130851400Y-86653500D03*
%TO.N,/Isolated Ch#1\u002C Ch#2/DIAG#2*%
X144211800Y-102376100D03*
X138179300Y-103214300D03*
%TO.N,Net-(IC4A-S)*%
X170069000Y-124651900D03*
X160290000Y-117222400D03*
D20*
%TO.N,Net-(IC6C-D)*%
X168402000Y-92900500D03*
D19*
X170970700Y-101957000D03*
%TO.N,Net-(IC4B-S)*%
X167478200Y-117311300D03*
X175517300Y-123623200D03*
%TO.N,Net-(IC8-~{PWDN})*%
X207534000Y-115126900D03*
X207838800Y-119737000D03*
%TO.N,Net-(IC8-CLK)*%
X204346300Y-113387000D03*
X208359500Y-111037500D03*
%TO.N,Net-(X1-Pin_23)*%
X145164300Y-97118300D03*
%TO.N,/Isolated Ch#1\u002C Ch#2/USEL#1*%
X136947400Y-128804800D03*
%TO.N,Net-(X1-Pin_24)*%
X162652200Y-102147500D03*
X146576200Y-102592000D03*
%TO.N,GND*%
X139246100Y-103100000D03*
X180022500Y-121602500D03*
X169078400Y-110707300D03*
X175047400Y-105640000D03*
X195037200Y-119343300D03*
X202606400Y-110783500D03*
X210074000Y-105119300D03*
X203419200Y-112409100D03*
X185067700Y-112383700D03*
X132870700Y-72658100D03*
X170411900Y-126074300D03*
X207899000Y-104408100D03*
X138430000Y-109728000D03*
X203419200Y-110783500D03*
X194516500Y-130595500D03*
X182181500Y-125730000D03*
X135486900Y-129681100D03*
X202936600Y-77724000D03*
X155883100Y-119533800D03*
X202606400Y-111596300D03*
X141224000Y-109537500D03*
X202606400Y-112409100D03*
X178244500Y-130619500D03*
X195100700Y-128385700D03*
X196548500Y-101017200D03*
X203419200Y-111596300D03*
X136398000Y-118644800D03*
X210201000Y-107316400D03*
X194818000Y-101219000D03*
X133670800Y-72658100D03*
X138725400Y-125807600D03*
X176761900Y-110326300D03*
X132070600Y-72658100D03*
X174844200Y-107570400D03*
X202580996Y-131967104D03*
X197412100Y-100026600D03*
X200088500Y-129349500D03*
%TO.N,+15V_ISO*%
X175225200Y-125261500D03*
X167808400Y-105932100D03*
%TO.N,-15V_ISO*%
X167808400Y-108522900D03*
X173383700Y-125261500D03*
%TO.N,+3V3_ISO*%
X147320002Y-105410000D03*
X154105100Y-128893700D03*
X208461100Y-107303700D03*
X207800700Y-123902600D03*
X205400400Y-105309800D03*
X139893800Y-121756300D03*
%TO.N,+5V_ISO*%
X175707800Y-128106300D03*
X169078400Y-100915600D03*
X157661100Y-100915600D03*
X191570100Y-129135000D03*
X210645500Y-96901000D03*
X157661100Y-133021200D03*
X175707800Y-133021200D03*
X147780500Y-100915600D03*
X191570100Y-97105600D03*
X157661100Y-128703200D03*
%TO.N,+2V5_ISO*%
X195215000Y-125807600D03*
X175441100Y-102160200D03*
X181422800Y-124639200D03*
%TO.N,-2V5_ISO*%
X177790600Y-108383200D03*
X182565800Y-111558200D03*
X188801500Y-130976500D03*
X210239100Y-93879800D03*
%TO.N,-5V_ISO*%
X190554100Y-131217800D03*
%TO.N,IN1P*%
X180051200Y-126493400D03*
X142395700Y-124220100D03*
%TO.N,IN1N*%
X180063900Y-127509400D03*
X142383000Y-125236100D03*
%TO.N,IN2P*%
X192624200Y-115126900D03*
X138065000Y-107049700D03*
%TO.N,IN2N*%
X192636900Y-114098200D03*
X138814300Y-108040300D03*
%TO.N,IN3P*%
X180864000Y-118530500D03*
X176114200Y-122721500D03*
X183594500Y-118530500D03*
%TO.N,IN4N*%
X162664900Y-94768800D03*
X169040300Y-94768800D03*
X173561500Y-106554400D03*
%TO.N,ISEL10A_S4_OUT*%
X128603500Y-75350500D03*
X166373300Y-78779500D03*
X143348200Y-79846300D03*
%TO.N,ISEL10A_R4_OUT*%
X165751000Y-77954000D03*
X142573500Y-79135100D03*
X129403600Y-74537700D03*
%TO.N,ISEL_S4_OUT*%
X148313900Y-94565600D03*
X155044900Y-106325800D03*
%TO.N,ISEL_R4_OUT*%
X146789900Y-92000200D03*
X148517100Y-104330500D03*
%TO.N,IN4P*%
X180864000Y-115774600D03*
X170723050Y-106725850D03*
X183645300Y-115774600D03*
%TO.N,ISEL_MID#4*%
X146091400Y-81700500D03*
X158258000Y-92139900D03*
X171974000Y-98934400D03*
X165966900Y-95899100D03*
%TO.N,~{RESET}*%
X208550000Y-117146200D03*
D20*
%TO.N,~{ADC_CS}*%
X210390999Y-118379499D03*
%TO.N,ADC_MOSI*%
X211201000Y-119570500D03*
D19*
%TO.N,ADC_MISO*%
X210696300Y-115190400D03*
%TO.N,~{ADC_DRDY}*%
X210582000Y-114174400D03*
%TO.N,ADC_START*%
X209261200Y-116422300D03*
%TO.N,ADC_SCK*%
X211102700Y-116206400D03*
%TO.N,USEL1#3*%
X159299400Y-120968900D03*
X159299400Y-128804800D03*
X154511500Y-83351500D03*
%TO.N,USEL20#3*%
X171770800Y-119190900D03*
X155159200Y-82386300D03*
%TO.N,USEL100#3*%
X156187900Y-83529300D03*
X162715700Y-110859700D03*
%TO.N,ISEL_LOW#4*%
X153038300Y-89790400D03*
X155108400Y-104878000D03*
X146891500Y-80735300D03*
%TO.N,Net-(ISEL10A_1-Pad11)*%
X115903500Y-100280600D03*
%TO.N,Net-(ISEL10A_1-Pad22)*%
X110518700Y-109208700D03*
X110518700Y-108408600D03*
X109705900Y-108408600D03*
X109705900Y-109208700D03*
X112093500Y-105081200D03*
X111293400Y-104281100D03*
X112093500Y-104281100D03*
X108905800Y-109208700D03*
X111293400Y-105081200D03*
X112893600Y-104281100D03*
X112893600Y-105081200D03*
X113693700Y-104281100D03*
X113693700Y-105081200D03*
X108905800Y-108408600D03*
%TO.N,Net-(ISEL10A_2-Pad12)*%
X173990000Y-88799800D03*
X173990000Y-87174200D03*
X173990000Y-89612600D03*
X173990000Y-87987000D03*
%TO.N,AIN1N*%
X121088100Y-126369400D03*
X120488200Y-132487800D03*
X121466100Y-119724300D03*
%TO.N,AIN4N*%
X159997900Y-87313900D03*
X165484300Y-88355300D03*
X163884100Y-87567900D03*
X159197800Y-85802600D03*
X159997900Y-86539200D03*
X165484300Y-89155400D03*
X159197800Y-86551900D03*
X159197800Y-88050500D03*
X163884100Y-89168100D03*
X164684200Y-88355300D03*
X159997900Y-85053300D03*
X164684200Y-87567900D03*
X163884100Y-88368000D03*
X163884100Y-89955500D03*
X165484300Y-89955500D03*
X159997900Y-88050500D03*
X159197800Y-87301200D03*
X165484300Y-87567900D03*
X159997900Y-85802600D03*
X164684200Y-89955500D03*
X164684200Y-89155400D03*
X159197800Y-85053300D03*
%TO.N,AIN4P*%
X85309200Y-110097700D03*
X85309200Y-108472100D03*
X85309200Y-109284900D03*
X86122000Y-110097700D03*
X86122000Y-109284900D03*
X86122000Y-108472100D03*
%TO.N,AIN2N*%
X114608100Y-115076100D03*
X114608100Y-114314100D03*
X109617000Y-115888900D03*
X115370100Y-114314100D03*
X109617000Y-115088800D03*
X110417100Y-114301400D03*
X110417100Y-115888900D03*
X110417100Y-115088800D03*
X115370100Y-115838100D03*
X109617000Y-114301400D03*
X115370100Y-115076100D03*
X114608100Y-115838100D03*
%TO.N,IN3N*%
X171681900Y-116943000D03*
X143449800Y-120410100D03*
X128501900Y-112891700D03*
X184432700Y-117730400D03*
%TO.N,AIN3P*%
X140224000Y-114504600D03*
%TD*%
D21*
%TO.N,/Isolated Ch#1\u002C Ch#2/DIAG#1*%
X155692600Y-78652500D02*
X143487900Y-90857200D01*
X140652500Y-120015000D02*
X140843000Y-120015000D01*
X165141400Y-74053300D02*
X165141400Y-75883900D01*
X143487900Y-117370100D02*
X143487900Y-96013400D01*
X166481100Y-72713600D02*
X165141400Y-74053300D01*
X165141400Y-75883900D02*
X162372800Y-78652500D01*
X140843000Y-120015000D02*
X143487900Y-117370100D01*
X143487900Y-96013400D02*
X143487900Y-90857200D01*
X143183100Y-96013400D02*
X143487900Y-96013400D01*
X162372800Y-78652500D02*
X155692600Y-78652500D01*
%TO.N,/Isolated Ch#1\u002C Ch#2/DIAG#2*%
X144211800Y-102376100D02*
X143907000Y-102071300D01*
X166481100Y-75253600D02*
X166355900Y-75253600D01*
X162550600Y-79058900D02*
X155870400Y-79058900D01*
X143907000Y-91022300D02*
X155870400Y-79058900D01*
X166355900Y-75253600D02*
X162550600Y-79058900D01*
X143907000Y-102071300D02*
X143907000Y-91022300D01*
%TO.N,Net-(IC6C-D)*%
X168402000Y-92900500D02*
X169470700Y-92900500D01*
X168465500Y-92900500D02*
X168402000Y-92900500D01*
X170970700Y-94400500D02*
X170970700Y-101957000D01*
X169470700Y-92900500D02*
X170970700Y-94400500D01*
D22*
%TO.N,Net-(X1-Pin_23)*%
X145796000Y-129671700D02*
X141081100Y-134386600D01*
X141081100Y-134386600D02*
X141081100Y-134753600D01*
X145164300Y-97118300D02*
X145796000Y-97750000D01*
X145796000Y-97750000D02*
X145796000Y-129671700D01*
D21*
%TO.N,/Isolated Ch#1\u002C Ch#2/USEL#1*%
X155514800Y-78246100D02*
X143081500Y-90679400D01*
X142395700Y-95695900D02*
X142395700Y-96330900D01*
X143081500Y-97016700D02*
X143081500Y-116443000D01*
X162664900Y-76798300D02*
X161217100Y-78246100D01*
X163941100Y-72713600D02*
X162664900Y-73989800D01*
X136947400Y-122577100D02*
X136947400Y-128804800D01*
X143081500Y-95010100D02*
X142395700Y-95695900D01*
X142395700Y-96330900D02*
X143081500Y-97016700D01*
X161217100Y-78246100D02*
X155514800Y-78246100D01*
X143081500Y-116443000D02*
X136947400Y-122577100D01*
X143081500Y-90679400D02*
X143081500Y-95010100D01*
X162664900Y-73989800D02*
X162664900Y-76798300D01*
D22*
%TO.N,Net-(X1-Pin_24)*%
X146253200Y-129900300D02*
X146253200Y-102915000D01*
X141081100Y-137293600D02*
X142357600Y-136017100D01*
X146253200Y-102915000D02*
X146576200Y-102592000D01*
X142357600Y-133795900D02*
X146253200Y-129900300D01*
X142357600Y-136017100D02*
X142357600Y-133795900D01*
D23*
%TO.N,+15V_ISO*%
X147424900Y-136029800D02*
X147424900Y-134100700D01*
D24*
X167998900Y-105932100D02*
X174463200Y-112396400D01*
X174463200Y-128995300D02*
X172469300Y-130989200D01*
X174463200Y-125210700D02*
X174463200Y-112396400D01*
X174463200Y-125210700D02*
X174463200Y-128995300D01*
X147424900Y-134100700D02*
X150536400Y-130989200D01*
X174514000Y-125261500D02*
X174463200Y-125210700D01*
X150536400Y-130989200D02*
X172469300Y-130989200D01*
X175225200Y-125261500D02*
X174514000Y-125261500D01*
X167998900Y-105932100D02*
X167808400Y-105932100D01*
D23*
X146161100Y-137293600D02*
X147424900Y-136029800D01*
D24*
%TO.N,-15V_ISO*%
X150117300Y-129960500D02*
X171948600Y-129960500D01*
X146161100Y-133916700D02*
X150117300Y-129960500D01*
X173383700Y-112764700D02*
X169141900Y-108522900D01*
X169141900Y-108522900D02*
X167808400Y-108522900D01*
X173383700Y-128525400D02*
X171948600Y-129960500D01*
X173383700Y-125261500D02*
X173383700Y-128525400D01*
X173383700Y-125261500D02*
X173383700Y-112764700D01*
X146161100Y-134753600D02*
X146161100Y-133916700D01*
%TO.N,+3V3_ISO*%
X154105100Y-112195100D02*
X147320002Y-105410000D01*
X154105100Y-128893700D02*
X154105100Y-112195100D01*
%TO.N,+5V_ISO*%
X191570100Y-97105600D02*
X210440900Y-97105600D01*
D23*
X152517600Y-136017100D02*
X152517600Y-134100700D01*
D24*
X191570100Y-132081400D02*
X190630300Y-133021200D01*
X191570100Y-132081400D02*
X191570100Y-129135000D01*
X191570100Y-97105600D02*
X191570100Y-129135000D01*
X157661100Y-133021200D02*
X175707800Y-133021200D01*
X152517600Y-134057900D02*
X153554300Y-133021200D01*
X157661100Y-128703200D02*
X157661100Y-100915600D01*
X153554300Y-133021200D02*
X157661100Y-133021200D01*
D23*
X151241100Y-137293600D02*
X152517600Y-136017100D01*
D24*
X190630300Y-133021200D02*
X175707800Y-133021200D01*
X210440900Y-97105600D02*
X210645500Y-96901000D01*
%TO.N,+2V5_ISO*%
X178806600Y-123940700D02*
X179505100Y-124639200D01*
X178806600Y-105525700D02*
X178806600Y-123940700D01*
X178806600Y-105525700D02*
X175441100Y-102160200D01*
X179505100Y-124639200D02*
X181422800Y-124639200D01*
D25*
%TO.N,-2V5_ISO*%
X180340000Y-129540000D02*
X179775800Y-130104200D01*
D24*
X192471800Y-93879800D02*
X189550800Y-96800800D01*
X188801500Y-130976500D02*
X180648100Y-130976500D01*
X210239100Y-93879800D02*
X192471800Y-93879800D01*
X177790600Y-128119000D02*
X179775800Y-130104200D01*
X179775800Y-130104200D02*
X180648100Y-130976500D01*
X177790600Y-108383200D02*
X177790600Y-128119000D01*
X189550800Y-96800800D02*
X189550800Y-130227200D01*
X189550800Y-130227200D02*
X188801500Y-130976500D01*
%TO.N,-5V_ISO*%
X153080400Y-132005200D02*
X189766700Y-132005200D01*
X151241100Y-133844500D02*
X153080400Y-132005200D01*
X151241100Y-134753600D02*
X151241100Y-133844500D01*
X189766700Y-132005200D02*
X190554100Y-131217800D01*
D21*
%TO.N,IN4N*%
X170081700Y-95810200D02*
X169040300Y-94768800D01*
X173561500Y-106503600D02*
X170081700Y-103023800D01*
X169040300Y-94768800D02*
X162664900Y-94768800D01*
X170081700Y-103023800D02*
X170081700Y-95810200D01*
X173561500Y-106554400D02*
X173561500Y-106503600D01*
%TO.N,ISEL10A_S4_OUT*%
X128603500Y-75350500D02*
X131638800Y-75350500D01*
X135055100Y-78766800D02*
X141176500Y-78766800D01*
X141176500Y-78766800D02*
X142256000Y-79846300D01*
X193966900Y-78779500D02*
X198758300Y-83570900D01*
X166373300Y-78779500D02*
X193966900Y-78779500D01*
X142256000Y-79846300D02*
X143348200Y-79846300D01*
X131638800Y-75350500D02*
X135055100Y-78766800D01*
%TO.N,ISEL10A_R4_OUT*%
X129403600Y-74537700D02*
X131410200Y-74537700D01*
X196481500Y-78347700D02*
X198758300Y-76070900D01*
X135232900Y-78360400D02*
X141798800Y-78360400D01*
X131410200Y-74537700D02*
X135232900Y-78360400D01*
X141798800Y-78360400D02*
X142573500Y-79135100D01*
X167109900Y-78347700D02*
X196481500Y-78347700D01*
X166716200Y-77954000D02*
X167109900Y-78347700D01*
X165751000Y-77954000D02*
X166716200Y-77954000D01*
%TO.N,ISEL_S4_OUT*%
X152416000Y-100991800D02*
X148313900Y-96889700D01*
X155044900Y-106325800D02*
X154206700Y-106325800D01*
X154206700Y-106325800D02*
X152416000Y-104535100D01*
X152416000Y-104535100D02*
X152416000Y-100991800D01*
X148313900Y-94565600D02*
X148313900Y-96889700D01*
%TO.N,ISEL_R4_OUT*%
X148517100Y-103465451D02*
X148517100Y-104330500D01*
X146789900Y-92000200D02*
X146789900Y-101738251D01*
X146789900Y-101738251D02*
X148517100Y-103465451D01*
%TO.N,ISEL_MID#4*%
X146091400Y-79599600D02*
X146091400Y-81700500D01*
X158258000Y-92139900D02*
X158258000Y-92152600D01*
X143620300Y-77128500D02*
X146091400Y-79599600D01*
X142956000Y-77128500D02*
X143620300Y-77128500D01*
X158258000Y-92152600D02*
X162004500Y-95899100D01*
X162004500Y-95899100D02*
X165966900Y-95899100D01*
X141081100Y-75253600D02*
X142956000Y-77128500D01*
%TO.N,USEL1#3*%
X158893000Y-120613300D02*
X158893000Y-98655000D01*
X159248600Y-120968900D02*
X158893000Y-120613300D01*
X158893000Y-98655000D02*
X154803600Y-94565600D01*
X154803600Y-83643600D02*
X154511500Y-83351500D01*
X154803600Y-94565600D02*
X154803600Y-83643600D01*
X159299400Y-120968900D02*
X159299400Y-128804800D01*
X159299400Y-120968900D02*
X159248600Y-120968900D01*
%TO.N,USEL20#3*%
X159350200Y-98464500D02*
X159350200Y-112879000D01*
X159350200Y-112879000D02*
X162144200Y-115673000D01*
X155260800Y-82487900D02*
X155260800Y-94375100D01*
X168367200Y-115673000D02*
X171770800Y-119076600D01*
X168367200Y-115673000D02*
X162144200Y-115673000D01*
X155260800Y-94375100D02*
X159350200Y-98464500D01*
X171770800Y-119076600D02*
X171770800Y-119190900D01*
X155159200Y-82386300D02*
X155260800Y-82487900D01*
%TO.N,USEL100#3*%
X160556700Y-108700700D02*
X160556700Y-99010600D01*
X162715700Y-110859700D02*
X160556700Y-108700700D01*
X160556700Y-99010600D02*
X156187900Y-94641800D01*
X156187900Y-83529300D02*
X156187900Y-94641800D01*
%TO.N,ISEL_LOW#4*%
X153343100Y-90095200D02*
X153038300Y-89790400D01*
X142357600Y-73990100D02*
X142357600Y-75909300D01*
X155108400Y-96064200D02*
X153343100Y-94298900D01*
X153343100Y-94298900D02*
X153343100Y-90095200D01*
X155108400Y-104878000D02*
X155108400Y-96064200D01*
X141081100Y-72713600D02*
X142357600Y-73990100D01*
X143856200Y-76722100D02*
X146891500Y-79757400D01*
X142357600Y-75909300D02*
X143170400Y-76722100D01*
X143170400Y-76722100D02*
X143856200Y-76722100D01*
X146891500Y-80735300D02*
X146891500Y-79757400D01*
D26*
%TO.N,AIN4P*%
X137952900Y-81916400D02*
X137952900Y-91187400D01*
X137952900Y-91187400D02*
X137965600Y-91200100D01*
D25*
%TO.N,IN3N*%
X128260600Y-113133000D02*
X128501900Y-112891700D01*
X103648000Y-114047400D02*
X107407200Y-117806600D01*
X121974100Y-113133000D02*
X128260600Y-113133000D01*
X107407200Y-117806600D02*
X117300500Y-117806600D01*
X117300500Y-117806600D02*
X121974100Y-113133000D01*
X89609900Y-114047400D02*
X103648000Y-114047400D01*
%TO.N,AIN3P*%
X139665200Y-113945800D02*
X140224000Y-114504600D01*
X117491000Y-119825900D02*
X122825000Y-114491900D01*
X104600500Y-117857400D02*
X106569000Y-119825900D01*
X106569000Y-119825900D02*
X117491000Y-119825900D01*
X89609900Y-117857400D02*
X104600500Y-117857400D01*
X122825000Y-114491900D02*
X129644900Y-114491900D01*
X129644900Y-114491900D02*
X130191000Y-113945800D01*
X130191000Y-113945800D02*
X139665200Y-113945800D01*
%TD*%
%TA.AperFunction,Conductor*%
%TO.N,GND*%
G36*
X104772139Y-80361285D02*
G01*
X104817894Y-80414089D01*
X104829100Y-80465600D01*
X104829100Y-85297600D01*
X104809415Y-85364639D01*
X104756611Y-85410394D01*
X104705100Y-85421600D01*
X102413100Y-85421600D01*
X102346061Y-85401915D01*
X102300306Y-85349111D01*
X102289100Y-85297600D01*
X102289100Y-80465600D01*
X102308785Y-80398561D01*
X102361589Y-80352806D01*
X102413100Y-80341600D01*
X104705100Y-80341600D01*
X104772139Y-80361285D01*
G37*
%TD.AperFunction*%
%TD*%
%TA.AperFunction,Conductor*%
%TO.N,GND*%
G36*
X104772139Y-95601285D02*
G01*
X104817894Y-95654089D01*
X104829100Y-95705600D01*
X104829100Y-100537600D01*
X104809415Y-100604639D01*
X104756611Y-100650394D01*
X104705100Y-100661600D01*
X102413100Y-100661600D01*
X102346061Y-100641915D01*
X102300306Y-100589111D01*
X102289100Y-100537600D01*
X102289100Y-95705600D01*
X102308785Y-95638561D01*
X102361589Y-95592806D01*
X102413100Y-95581600D01*
X104705100Y-95581600D01*
X104772139Y-95601285D01*
G37*
%TD.AperFunction*%
%TD*%
%TA.AperFunction,Conductor*%
%TO.N,GND*%
G36*
X114932139Y-72741285D02*
G01*
X114977894Y-72794089D01*
X114989100Y-72845600D01*
X114989100Y-77677600D01*
X114969415Y-77744639D01*
X114916611Y-77790394D01*
X114865100Y-77801600D01*
X112573100Y-77801600D01*
X112506061Y-77781915D01*
X112460306Y-77729111D01*
X112449100Y-77677600D01*
X112449100Y-72845600D01*
X112468785Y-72778561D01*
X112521589Y-72732806D01*
X112573100Y-72721600D01*
X114865100Y-72721600D01*
X114932139Y-72741285D01*
G37*
%TD.AperFunction*%
%TD*%
%TA.AperFunction,Conductor*%
%TO.N,GND*%
G36*
X89532139Y-80361285D02*
G01*
X89577894Y-80414089D01*
X89589100Y-80465600D01*
X89589100Y-85297600D01*
X89569415Y-85364639D01*
X89516611Y-85410394D01*
X89465100Y-85421600D01*
X87173100Y-85421600D01*
X87106061Y-85401915D01*
X87060306Y-85349111D01*
X87049100Y-85297600D01*
X87049100Y-80465600D01*
X87068785Y-80398561D01*
X87121589Y-80352806D01*
X87173100Y-80341600D01*
X89465100Y-80341600D01*
X89532139Y-80361285D01*
G37*
%TD.AperFunction*%
%TD*%
%TA.AperFunction,Conductor*%
%TO.N,GND*%
G36*
X99692139Y-87981285D02*
G01*
X99737894Y-88034089D01*
X99749100Y-88085600D01*
X99749100Y-92917600D01*
X99729415Y-92984639D01*
X99676611Y-93030394D01*
X99625100Y-93041600D01*
X97333100Y-93041600D01*
X97266061Y-93021915D01*
X97220306Y-92969111D01*
X97209100Y-92917600D01*
X97209100Y-88085600D01*
X97228785Y-88018561D01*
X97281589Y-87972806D01*
X97333100Y-87961600D01*
X99625100Y-87961600D01*
X99692139Y-87981285D01*
G37*
%TD.AperFunction*%
%TD*%
%TA.AperFunction,Conductor*%
%TO.N,GND*%
G36*
X200530139Y-86139785D02*
G01*
X200575894Y-86192589D01*
X200587100Y-86244100D01*
X200587100Y-91076100D01*
X200567415Y-91143139D01*
X200514611Y-91188894D01*
X200463100Y-91200100D01*
X198171100Y-91200100D01*
X198104061Y-91180415D01*
X198058306Y-91127611D01*
X198047100Y-91076100D01*
X198047100Y-86244100D01*
X198066785Y-86177061D01*
X198119589Y-86131306D01*
X198171100Y-86120100D01*
X200463100Y-86120100D01*
X200530139Y-86139785D01*
G37*
%TD.AperFunction*%
%TD*%
%TA.AperFunction,Conductor*%
%TO.N,GND*%
G36*
X208150139Y-86139785D02*
G01*
X208195894Y-86192589D01*
X208207100Y-86244100D01*
X208207100Y-91076100D01*
X208187415Y-91143139D01*
X208134611Y-91188894D01*
X208083100Y-91200100D01*
X205791100Y-91200100D01*
X205724061Y-91180415D01*
X205678306Y-91127611D01*
X205667100Y-91076100D01*
X205667100Y-86244100D01*
X205686785Y-86177061D01*
X205739589Y-86131306D01*
X205791100Y-86120100D01*
X208083100Y-86120100D01*
X208150139Y-86139785D01*
G37*
%TD.AperFunction*%
%TD*%
%TA.AperFunction,Conductor*%
%TO.N,GND*%
G36*
X97152139Y-80361285D02*
G01*
X97197894Y-80414089D01*
X97209100Y-80465600D01*
X97209100Y-85297600D01*
X97189415Y-85364639D01*
X97136611Y-85410394D01*
X97085100Y-85421600D01*
X94793100Y-85421600D01*
X94726061Y-85401915D01*
X94680306Y-85349111D01*
X94669100Y-85297600D01*
X94669100Y-80465600D01*
X94688785Y-80398561D01*
X94741589Y-80352806D01*
X94793100Y-80341600D01*
X97085100Y-80341600D01*
X97152139Y-80361285D01*
G37*
%TD.AperFunction*%
%TD*%
%TA.AperFunction,Conductor*%
%TO.N,GND*%
G36*
X192910139Y-86139785D02*
G01*
X192955894Y-86192589D01*
X192967100Y-86244100D01*
X192967100Y-91076100D01*
X192947415Y-91143139D01*
X192894611Y-91188894D01*
X192843100Y-91200100D01*
X190551100Y-91200100D01*
X190484061Y-91180415D01*
X190438306Y-91127611D01*
X190427100Y-91076100D01*
X190427100Y-86244100D01*
X190446785Y-86177061D01*
X190499589Y-86131306D01*
X190551100Y-86120100D01*
X192843100Y-86120100D01*
X192910139Y-86139785D01*
G37*
%TD.AperFunction*%
%TD*%
%TA.AperFunction,Conductor*%
%TO.N,GND*%
G36*
X97152139Y-95601285D02*
G01*
X97197894Y-95654089D01*
X97209100Y-95705600D01*
X97209100Y-100537600D01*
X97189415Y-100604639D01*
X97136611Y-100650394D01*
X97085100Y-100661600D01*
X94793100Y-100661600D01*
X94726061Y-100641915D01*
X94680306Y-100589111D01*
X94669100Y-100537600D01*
X94669100Y-95705600D01*
X94688785Y-95638561D01*
X94741589Y-95592806D01*
X94793100Y-95581600D01*
X97085100Y-95581600D01*
X97152139Y-95601285D01*
G37*
%TD.AperFunction*%
%TD*%
%TA.AperFunction,Conductor*%
%TO.N,GND*%
G36*
X107312139Y-72741285D02*
G01*
X107357894Y-72794089D01*
X107369100Y-72845600D01*
X107369100Y-77677600D01*
X107349415Y-77744639D01*
X107296611Y-77790394D01*
X107245100Y-77801600D01*
X104953100Y-77801600D01*
X104886061Y-77781915D01*
X104840306Y-77729111D01*
X104829100Y-77677600D01*
X104829100Y-72845600D01*
X104848785Y-72778561D01*
X104901589Y-72732806D01*
X104953100Y-72721600D01*
X107245100Y-72721600D01*
X107312139Y-72741285D01*
G37*
%TD.AperFunction*%
%TD*%
%TA.AperFunction,Conductor*%
%TO.N,GND*%
G36*
X92072139Y-72741285D02*
G01*
X92117894Y-72794089D01*
X92129100Y-72845600D01*
X92129100Y-77677600D01*
X92109415Y-77744639D01*
X92056611Y-77790394D01*
X92005100Y-77801600D01*
X89713100Y-77801600D01*
X89646061Y-77781915D01*
X89600306Y-77729111D01*
X89589100Y-77677600D01*
X89589100Y-72845600D01*
X89608785Y-72778561D01*
X89661589Y-72732806D01*
X89713100Y-72721600D01*
X92005100Y-72721600D01*
X92072139Y-72741285D01*
G37*
%TD.AperFunction*%
%TD*%
%TA.AperFunction,Conductor*%
%TO.N,GND*%
G36*
X99692139Y-72741285D02*
G01*
X99737894Y-72794089D01*
X99749100Y-72845600D01*
X99749100Y-77677600D01*
X99729415Y-77744639D01*
X99676611Y-77790394D01*
X99625100Y-77801600D01*
X97333100Y-77801600D01*
X97266061Y-77781915D01*
X97220306Y-77729111D01*
X97209100Y-77677600D01*
X97209100Y-72845600D01*
X97228785Y-72778561D01*
X97281589Y-72732806D01*
X97333100Y-72721600D01*
X99625100Y-72721600D01*
X99692139Y-72741285D01*
G37*
%TD.AperFunction*%
%TD*%
%TA.AperFunction,Conductor*%
%TO.N,GND*%
G36*
X89532139Y-95601285D02*
G01*
X89577894Y-95654089D01*
X89589100Y-95705600D01*
X89589100Y-100537600D01*
X89569415Y-100604639D01*
X89516611Y-100650394D01*
X89465100Y-100661600D01*
X87173100Y-100661600D01*
X87106061Y-100641915D01*
X87060306Y-100589111D01*
X87049100Y-100537600D01*
X87049100Y-95705600D01*
X87068785Y-95638561D01*
X87121589Y-95592806D01*
X87173100Y-95581600D01*
X89465100Y-95581600D01*
X89532139Y-95601285D01*
G37*
%TD.AperFunction*%
%TD*%
%TA.AperFunction,Conductor*%
%TO.N,+3V3_ISO*%
G36*
X207585012Y-103813086D02*
G01*
X207599598Y-103848300D01*
X207585012Y-103883514D01*
X207580114Y-103887809D01*
X207466155Y-103975252D01*
X207466152Y-103975255D01*
X207368874Y-104102030D01*
X207307722Y-104249665D01*
X207307720Y-104249671D01*
X207286863Y-104408100D01*
X207302650Y-104528020D01*
X207307721Y-104566533D01*
X207335371Y-104633286D01*
X207368874Y-104714170D01*
X207466152Y-104840944D01*
X207466155Y-104840947D01*
X207592929Y-104938225D01*
X207592930Y-104938225D01*
X207592931Y-104938226D01*
X207740567Y-104999379D01*
X207899000Y-105020237D01*
X208057433Y-104999379D01*
X208205069Y-104938226D01*
X208331846Y-104840946D01*
X208429126Y-104714169D01*
X208490279Y-104566533D01*
X208511137Y-104408100D01*
X208490279Y-104249667D01*
X208429126Y-104102032D01*
X208429125Y-104102031D01*
X208429125Y-104102030D01*
X208331847Y-103975255D01*
X208331844Y-103975252D01*
X208217887Y-103887809D01*
X208198829Y-103854800D01*
X208208694Y-103817984D01*
X208241703Y-103798926D01*
X208248203Y-103798500D01*
X212290436Y-103798500D01*
X212296935Y-103798925D01*
X212418683Y-103814954D01*
X212431236Y-103818318D01*
X212541642Y-103864050D01*
X212552899Y-103870548D01*
X212577585Y-103889491D01*
X212647708Y-103943298D01*
X212656901Y-103952491D01*
X212729650Y-104047299D01*
X212736150Y-104058558D01*
X212781880Y-104168961D01*
X212785245Y-104181517D01*
X212801274Y-104303263D01*
X212801700Y-104309764D01*
X212801700Y-138081999D01*
X212801274Y-138088500D01*
X212785245Y-138210246D01*
X212781880Y-138222802D01*
X212736150Y-138333205D01*
X212729650Y-138344464D01*
X212654898Y-138441882D01*
X212650603Y-138446780D01*
X212321780Y-138775603D01*
X212316882Y-138779898D01*
X212219464Y-138854650D01*
X212208205Y-138861150D01*
X212097802Y-138906880D01*
X212085246Y-138910245D01*
X211994283Y-138922221D01*
X211963498Y-138926274D01*
X211957000Y-138926700D01*
X152757905Y-138926700D01*
X152748190Y-138925743D01*
X152730417Y-138922207D01*
X152682352Y-138912647D01*
X152664401Y-138905211D01*
X152612744Y-138870695D01*
X152599004Y-138856955D01*
X152564488Y-138805298D01*
X152557052Y-138787346D01*
X152543957Y-138721510D01*
X152543000Y-138711795D01*
X152543000Y-137624325D01*
X152826299Y-137624325D01*
X152838118Y-137683740D01*
X152871771Y-137734107D01*
X152871773Y-137734109D01*
X153339491Y-138201826D01*
X153339494Y-138201829D01*
X153389858Y-138235481D01*
X153389860Y-138235482D01*
X153449275Y-138247300D01*
X154110725Y-138247301D01*
X154170140Y-138235482D01*
X154208087Y-138210125D01*
X154220507Y-138201828D01*
X154220507Y-138201827D01*
X154220511Y-138201825D01*
X154688226Y-137734109D01*
X154721882Y-137683740D01*
X154733700Y-137624325D01*
X155366299Y-137624325D01*
X155378118Y-137683740D01*
X155411771Y-137734107D01*
X155411773Y-137734109D01*
X155879491Y-138201826D01*
X155879494Y-138201829D01*
X155929858Y-138235481D01*
X155929860Y-138235482D01*
X155989275Y-138247300D01*
X156650725Y-138247301D01*
X156710140Y-138235482D01*
X156748087Y-138210125D01*
X156760507Y-138201828D01*
X156760507Y-138201827D01*
X156760511Y-138201825D01*
X157228226Y-137734109D01*
X157261882Y-137683740D01*
X157273700Y-137624325D01*
X157906299Y-137624325D01*
X157918118Y-137683740D01*
X157951771Y-137734107D01*
X157951773Y-137734109D01*
X158419491Y-138201826D01*
X158419494Y-138201829D01*
X158469858Y-138235481D01*
X158469860Y-138235482D01*
X158529275Y-138247300D01*
X159190725Y-138247301D01*
X159250140Y-138235482D01*
X159288087Y-138210125D01*
X159300507Y-138201828D01*
X159300507Y-138201827D01*
X159300511Y-138201825D01*
X159768226Y-137734109D01*
X159801882Y-137683740D01*
X159813700Y-137624325D01*
X160446299Y-137624325D01*
X160458118Y-137683740D01*
X160491771Y-137734107D01*
X160491773Y-137734109D01*
X160959491Y-138201826D01*
X160959494Y-138201829D01*
X161009858Y-138235481D01*
X161009860Y-138235482D01*
X161069275Y-138247300D01*
X161730725Y-138247301D01*
X161790140Y-138235482D01*
X161828087Y-138210125D01*
X161840507Y-138201828D01*
X161840507Y-138201827D01*
X161840511Y-138201825D01*
X162308226Y-137734109D01*
X162341882Y-137683740D01*
X162353700Y-137624325D01*
X162986299Y-137624325D01*
X162998118Y-137683740D01*
X163031771Y-137734107D01*
X163031773Y-137734109D01*
X163499491Y-138201826D01*
X163499494Y-138201829D01*
X163549858Y-138235481D01*
X163549860Y-138235482D01*
X163609275Y-138247300D01*
X164270725Y-138247301D01*
X164330140Y-138235482D01*
X164368087Y-138210125D01*
X164380507Y-138201828D01*
X164380507Y-138201827D01*
X164380511Y-138201825D01*
X164848226Y-137734109D01*
X164881882Y-137683740D01*
X164893700Y-137624325D01*
X165526299Y-137624325D01*
X165538118Y-137683740D01*
X165571771Y-137734107D01*
X165571773Y-137734109D01*
X166039491Y-138201826D01*
X166039494Y-138201829D01*
X166089858Y-138235481D01*
X166089860Y-138235482D01*
X166149275Y-138247300D01*
X166810725Y-138247301D01*
X166870140Y-138235482D01*
X166908087Y-138210125D01*
X166920507Y-138201828D01*
X166920507Y-138201827D01*
X166920511Y-138201825D01*
X167388226Y-137734109D01*
X167421882Y-137683740D01*
X167433700Y-137624325D01*
X168066299Y-137624325D01*
X168078118Y-137683740D01*
X168111771Y-137734107D01*
X168111773Y-137734109D01*
X168579491Y-138201826D01*
X168579494Y-138201829D01*
X168629858Y-138235481D01*
X168629860Y-138235482D01*
X168689275Y-138247300D01*
X169350725Y-138247301D01*
X169410140Y-138235482D01*
X169448087Y-138210125D01*
X169460507Y-138201828D01*
X169460507Y-138201827D01*
X169460511Y-138201825D01*
X169928226Y-137734109D01*
X169961882Y-137683740D01*
X169973700Y-137624325D01*
X169973701Y-136962875D01*
X169961882Y-136903460D01*
X169953467Y-136890867D01*
X169928228Y-136853092D01*
X169928226Y-136853090D01*
X169460508Y-136385373D01*
X169460505Y-136385370D01*
X169410141Y-136351718D01*
X169410139Y-136351717D01*
X169350727Y-136339900D01*
X169350720Y-136339899D01*
X168689274Y-136339899D01*
X168629859Y-136351718D01*
X168579492Y-136385371D01*
X168579490Y-136385373D01*
X168111773Y-136853091D01*
X168111770Y-136853094D01*
X168078118Y-136903458D01*
X168078117Y-136903460D01*
X168066300Y-136962872D01*
X168066299Y-136962879D01*
X168066299Y-137624325D01*
X167433700Y-137624325D01*
X167433701Y-136962875D01*
X167421882Y-136903460D01*
X167413467Y-136890867D01*
X167388228Y-136853092D01*
X167388226Y-136853090D01*
X166920508Y-136385373D01*
X166920505Y-136385370D01*
X166870141Y-136351718D01*
X166870139Y-136351717D01*
X166810727Y-136339900D01*
X166810720Y-136339899D01*
X166149274Y-136339899D01*
X166089859Y-136351718D01*
X166039492Y-136385371D01*
X166039490Y-136385373D01*
X165571773Y-136853091D01*
X165571770Y-136853094D01*
X165538118Y-136903458D01*
X165538117Y-136903460D01*
X165526300Y-136962872D01*
X165526299Y-136962879D01*
X165526299Y-137624325D01*
X164893700Y-137624325D01*
X164893701Y-136962875D01*
X164881882Y-136903460D01*
X164873467Y-136890867D01*
X164848228Y-136853092D01*
X164848226Y-136853090D01*
X164380508Y-136385373D01*
X164380505Y-136385370D01*
X164330141Y-136351718D01*
X164330139Y-136351717D01*
X164270727Y-136339900D01*
X164270720Y-136339899D01*
X163609274Y-136339899D01*
X163549859Y-136351718D01*
X163499492Y-136385371D01*
X163499490Y-136385373D01*
X163031773Y-136853091D01*
X163031770Y-136853094D01*
X162998118Y-136903458D01*
X162998117Y-136903460D01*
X162986300Y-136962872D01*
X162986299Y-136962879D01*
X162986299Y-137624325D01*
X162353700Y-137624325D01*
X162353701Y-136962875D01*
X162341882Y-136903460D01*
X162333467Y-136890867D01*
X162308228Y-136853092D01*
X162308226Y-136853090D01*
X161840508Y-136385373D01*
X161840505Y-136385370D01*
X161790141Y-136351718D01*
X161790139Y-136351717D01*
X161730727Y-136339900D01*
X161730720Y-136339899D01*
X161069274Y-136339899D01*
X161009859Y-136351718D01*
X160959492Y-136385371D01*
X160959490Y-136385373D01*
X160491773Y-136853091D01*
X160491770Y-136853094D01*
X160458118Y-136903458D01*
X160458117Y-136903460D01*
X160446300Y-136962872D01*
X160446299Y-136962879D01*
X160446299Y-137624325D01*
X159813700Y-137624325D01*
X159813701Y-136962875D01*
X159801882Y-136903460D01*
X159793467Y-136890867D01*
X159768228Y-136853092D01*
X159768226Y-136853090D01*
X159300508Y-136385373D01*
X159300505Y-136385370D01*
X159250141Y-136351718D01*
X159250139Y-136351717D01*
X159190727Y-136339900D01*
X159190720Y-136339899D01*
X158529274Y-136339899D01*
X158469859Y-136351718D01*
X158419492Y-136385371D01*
X158419490Y-136385373D01*
X157951773Y-136853091D01*
X157951770Y-136853094D01*
X157918118Y-136903458D01*
X157918117Y-136903460D01*
X157906300Y-136962872D01*
X157906299Y-136962879D01*
X157906299Y-137624325D01*
X157273700Y-137624325D01*
X157273701Y-136962875D01*
X157261882Y-136903460D01*
X157253467Y-136890867D01*
X157228228Y-136853092D01*
X157228226Y-136853090D01*
X156760508Y-136385373D01*
X156760505Y-136385370D01*
X156710141Y-136351718D01*
X156710139Y-136351717D01*
X156650727Y-136339900D01*
X156650720Y-136339899D01*
X155989274Y-136339899D01*
X155929859Y-136351718D01*
X155879492Y-136385371D01*
X155879490Y-136385373D01*
X155411773Y-136853091D01*
X155411770Y-136853094D01*
X155378118Y-136903458D01*
X155378117Y-136903460D01*
X155366300Y-136962872D01*
X155366299Y-136962879D01*
X155366299Y-137624325D01*
X154733700Y-137624325D01*
X154733701Y-136962875D01*
X154721882Y-136903460D01*
X154713467Y-136890867D01*
X154688228Y-136853092D01*
X154688226Y-136853090D01*
X154220508Y-136385373D01*
X154220505Y-136385370D01*
X154170141Y-136351718D01*
X154170139Y-136351717D01*
X154110727Y-136339900D01*
X154110720Y-136339899D01*
X153449274Y-136339899D01*
X153389859Y-136351718D01*
X153339492Y-136385371D01*
X153339490Y-136385373D01*
X152871773Y-136853091D01*
X152871770Y-136853094D01*
X152838118Y-136903458D01*
X152838117Y-136903460D01*
X152826300Y-136962872D01*
X152826299Y-136962879D01*
X152826299Y-137624325D01*
X152543000Y-137624325D01*
X152543000Y-136731454D01*
X152557586Y-136696240D01*
X152834723Y-136419102D01*
X152843011Y-136412425D01*
X152854021Y-136405350D01*
X152888845Y-136365159D01*
X152891254Y-136362571D01*
X152902880Y-136350947D01*
X152912732Y-136337784D01*
X152914945Y-136335038D01*
X152949776Y-136294843D01*
X152955215Y-136282930D01*
X152960640Y-136273787D01*
X152968489Y-136263304D01*
X152987074Y-136213473D01*
X152988420Y-136210221D01*
X153010519Y-136161834D01*
X153012380Y-136148882D01*
X153015014Y-136138565D01*
X153019589Y-136126300D01*
X153023383Y-136073238D01*
X153023756Y-136069762D01*
X153026100Y-136053468D01*
X153026100Y-136037038D01*
X153026227Y-136033485D01*
X153030020Y-135980451D01*
X153027238Y-135967661D01*
X153026100Y-135957076D01*
X153026100Y-135539798D01*
X153040686Y-135504584D01*
X153075900Y-135489998D01*
X153111114Y-135504584D01*
X153307424Y-135700895D01*
X153307426Y-135700896D01*
X153370232Y-135742862D01*
X153370234Y-135742863D01*
X153444320Y-135757599D01*
X153444327Y-135757600D01*
X153653000Y-135757600D01*
X153653000Y-135240481D01*
X153744237Y-135253600D01*
X153815763Y-135253600D01*
X153907000Y-135240481D01*
X153907000Y-135757600D01*
X154115673Y-135757600D01*
X154115680Y-135757599D01*
X154189765Y-135742863D01*
X154189767Y-135742862D01*
X154252570Y-135700899D01*
X154252573Y-135700896D01*
X154727295Y-135226175D01*
X154727296Y-135226173D01*
X154769262Y-135163367D01*
X154769263Y-135163365D01*
X154783999Y-135089279D01*
X154784000Y-135089273D01*
X154784000Y-135084325D01*
X155366299Y-135084325D01*
X155378118Y-135143740D01*
X155411771Y-135194107D01*
X155411773Y-135194109D01*
X155879491Y-135661826D01*
X155879494Y-135661829D01*
X155929858Y-135695481D01*
X155929860Y-135695482D01*
X155989275Y-135707300D01*
X156650725Y-135707301D01*
X156710140Y-135695482D01*
X156748087Y-135670125D01*
X156760507Y-135661828D01*
X156760507Y-135661827D01*
X156760511Y-135661825D01*
X157228226Y-135194109D01*
X157261882Y-135143740D01*
X157273700Y-135084325D01*
X157906299Y-135084325D01*
X157918118Y-135143740D01*
X157951771Y-135194107D01*
X157951773Y-135194109D01*
X158419491Y-135661826D01*
X158419494Y-135661829D01*
X158469858Y-135695481D01*
X158469860Y-135695482D01*
X158529275Y-135707300D01*
X159190725Y-135707301D01*
X159250140Y-135695482D01*
X159288087Y-135670125D01*
X159300507Y-135661828D01*
X159300507Y-135661827D01*
X159300511Y-135661825D01*
X159768226Y-135194109D01*
X159801882Y-135143740D01*
X159813700Y-135084325D01*
X160446299Y-135084325D01*
X160458118Y-135143740D01*
X160491771Y-135194107D01*
X160491773Y-135194109D01*
X160959491Y-135661826D01*
X160959494Y-135661829D01*
X161009858Y-135695481D01*
X161009860Y-135695482D01*
X161069275Y-135707300D01*
X161730725Y-135707301D01*
X161790140Y-135695482D01*
X161828087Y-135670125D01*
X161840507Y-135661828D01*
X161840507Y-135661827D01*
X161840511Y-135661825D01*
X162308226Y-135194109D01*
X162341882Y-135143740D01*
X162353700Y-135084325D01*
X162986299Y-135084325D01*
X162998118Y-135143740D01*
X163031771Y-135194107D01*
X163031773Y-135194109D01*
X163499491Y-135661826D01*
X163499494Y-135661829D01*
X163549858Y-135695481D01*
X163549860Y-135695482D01*
X163609275Y-135707300D01*
X164270725Y-135707301D01*
X164330140Y-135695482D01*
X164368087Y-135670125D01*
X164380507Y-135661828D01*
X164380507Y-135661827D01*
X164380511Y-135661825D01*
X164848226Y-135194109D01*
X164881882Y-135143740D01*
X164893700Y-135084325D01*
X165526299Y-135084325D01*
X165538118Y-135143740D01*
X165571771Y-135194107D01*
X165571773Y-135194109D01*
X166039491Y-135661826D01*
X166039494Y-135661829D01*
X166089858Y-135695481D01*
X166089860Y-135695482D01*
X166149275Y-135707300D01*
X166810725Y-135707301D01*
X166870140Y-135695482D01*
X166908087Y-135670125D01*
X166920507Y-135661828D01*
X166920507Y-135661827D01*
X166920511Y-135661825D01*
X167058672Y-135523664D01*
X168066300Y-135523664D01*
X168078119Y-135583080D01*
X168078119Y-135583081D01*
X168122837Y-135650006D01*
X168123140Y-135650460D01*
X168190520Y-135695481D01*
X168249936Y-135707300D01*
X168249941Y-135707300D01*
X169790059Y-135707300D01*
X169790064Y-135707300D01*
X169849480Y-135695481D01*
X169916860Y-135650460D01*
X169961881Y-135583080D01*
X169973700Y-135523664D01*
X169973700Y-133983536D01*
X169961881Y-133924120D01*
X169916860Y-133856740D01*
X169849480Y-133811719D01*
X169790064Y-133799900D01*
X168249936Y-133799900D01*
X168249935Y-133799900D01*
X168190519Y-133811719D01*
X168190518Y-133811719D01*
X168123142Y-133856738D01*
X168123138Y-133856742D01*
X168078119Y-133924118D01*
X168078119Y-133924119D01*
X168066300Y-133983535D01*
X168066300Y-135523664D01*
X167058672Y-135523664D01*
X167388226Y-135194109D01*
X167421882Y-135143740D01*
X167433700Y-135084325D01*
X167433701Y-134422875D01*
X167421882Y-134363460D01*
X167404256Y-134337081D01*
X167388228Y-134313092D01*
X167388226Y-134313090D01*
X166920508Y-133845373D01*
X166920505Y-133845370D01*
X166870141Y-133811718D01*
X166870139Y-133811717D01*
X166810727Y-133799900D01*
X166810720Y-133799899D01*
X166149274Y-133799899D01*
X166089859Y-133811718D01*
X166039492Y-133845371D01*
X166039490Y-133845373D01*
X165571773Y-134313091D01*
X165571770Y-134313094D01*
X165538118Y-134363458D01*
X165538117Y-134363460D01*
X165526300Y-134422872D01*
X165526299Y-134422879D01*
X165526299Y-135084325D01*
X164893700Y-135084325D01*
X164893701Y-134422875D01*
X164881882Y-134363460D01*
X164864256Y-134337081D01*
X164848228Y-134313092D01*
X164848226Y-134313090D01*
X164380508Y-133845373D01*
X164380505Y-133845370D01*
X164330141Y-133811718D01*
X164330139Y-133811717D01*
X164270727Y-133799900D01*
X164270720Y-133799899D01*
X163609274Y-133799899D01*
X163549859Y-133811718D01*
X163499492Y-133845371D01*
X163499490Y-133845373D01*
X163031773Y-134313091D01*
X163031770Y-134313094D01*
X162998118Y-134363458D01*
X162998117Y-134363460D01*
X162986300Y-134422872D01*
X162986299Y-134422879D01*
X162986299Y-135084325D01*
X162353700Y-135084325D01*
X162353701Y-134422875D01*
X162341882Y-134363460D01*
X162324256Y-134337081D01*
X162308228Y-134313092D01*
X162308226Y-134313090D01*
X161840508Y-133845373D01*
X161840505Y-133845370D01*
X161790141Y-133811718D01*
X161790139Y-133811717D01*
X161730727Y-133799900D01*
X161730720Y-133799899D01*
X161069274Y-133799899D01*
X161009859Y-133811718D01*
X160959492Y-133845371D01*
X160959490Y-133845373D01*
X160491773Y-134313091D01*
X160491770Y-134313094D01*
X160458118Y-134363458D01*
X160458117Y-134363460D01*
X160446300Y-134422872D01*
X160446299Y-134422879D01*
X160446299Y-135084325D01*
X159813700Y-135084325D01*
X159813701Y-134422875D01*
X159801882Y-134363460D01*
X159784256Y-134337081D01*
X159768228Y-134313092D01*
X159768226Y-134313090D01*
X159300508Y-133845373D01*
X159300505Y-133845370D01*
X159250141Y-133811718D01*
X159250139Y-133811717D01*
X159190727Y-133799900D01*
X159190720Y-133799899D01*
X158529274Y-133799899D01*
X158469859Y-133811718D01*
X158419492Y-133845371D01*
X158419490Y-133845373D01*
X157951773Y-134313091D01*
X157951770Y-134313094D01*
X157918118Y-134363458D01*
X157918117Y-134363460D01*
X157906300Y-134422872D01*
X157906299Y-134422879D01*
X157906299Y-135084325D01*
X157273700Y-135084325D01*
X157273701Y-134422875D01*
X157261882Y-134363460D01*
X157244256Y-134337081D01*
X157228228Y-134313092D01*
X157228226Y-134313090D01*
X156760508Y-133845373D01*
X156760505Y-133845370D01*
X156710141Y-133811718D01*
X156710139Y-133811717D01*
X156650727Y-133799900D01*
X156650720Y-133799899D01*
X155989274Y-133799899D01*
X155929859Y-133811718D01*
X155879492Y-133845371D01*
X155879490Y-133845373D01*
X155411773Y-134313091D01*
X155411770Y-134313094D01*
X155378118Y-134363458D01*
X155378117Y-134363460D01*
X155366300Y-134422872D01*
X155366299Y-134422879D01*
X155366299Y-135084325D01*
X154784000Y-135084325D01*
X154784000Y-134880600D01*
X154263818Y-134880600D01*
X154280000Y-134825489D01*
X154280000Y-134681711D01*
X154263818Y-134626600D01*
X154784000Y-134626600D01*
X154784000Y-134417926D01*
X154783999Y-134417919D01*
X154769263Y-134343834D01*
X154769262Y-134343832D01*
X154727299Y-134281029D01*
X154727296Y-134281026D01*
X154252575Y-133806304D01*
X154252573Y-133806303D01*
X154189767Y-133764337D01*
X154189765Y-133764336D01*
X154115679Y-133749600D01*
X153907000Y-133749600D01*
X153907000Y-134266718D01*
X153815763Y-134253600D01*
X153744237Y-134253600D01*
X153653000Y-134266718D01*
X153653000Y-133805939D01*
X153667585Y-133770726D01*
X153792426Y-133645886D01*
X153827640Y-133631300D01*
X157584026Y-133631300D01*
X157642363Y-133631300D01*
X157648862Y-133631725D01*
X157661100Y-133633337D01*
X157673337Y-133631725D01*
X157679837Y-133631300D01*
X175630726Y-133631300D01*
X175689063Y-133631300D01*
X175695562Y-133631725D01*
X175707800Y-133633337D01*
X175720037Y-133631725D01*
X175726537Y-133631300D01*
X190557450Y-133631300D01*
X190568311Y-133632498D01*
X190572428Y-133633419D01*
X190572432Y-133633418D01*
X190572433Y-133633419D01*
X190639073Y-133631325D01*
X190640637Y-133631300D01*
X190668680Y-133631300D01*
X190668683Y-133631300D01*
X190675899Y-133630387D01*
X190680577Y-133630020D01*
X190726499Y-133628578D01*
X190750640Y-133621563D01*
X190758279Y-133619980D01*
X190783232Y-133616829D01*
X190825981Y-133599902D01*
X190830380Y-133598396D01*
X190874525Y-133585572D01*
X190896168Y-133572772D01*
X190903168Y-133569342D01*
X190926554Y-133560084D01*
X190963743Y-133533063D01*
X190967644Y-133530500D01*
X191007206Y-133507105D01*
X191024980Y-133489329D01*
X191030919Y-133484258D01*
X191051262Y-133469479D01*
X191080567Y-133434053D01*
X191083704Y-133430605D01*
X191237224Y-133277085D01*
X191272438Y-133262500D01*
X195597465Y-133262500D01*
X195632679Y-133277086D01*
X195636968Y-133281977D01*
X195678829Y-133336531D01*
X195687485Y-133347080D01*
X195689921Y-133349858D01*
X195691791Y-133351991D01*
X195701116Y-133361946D01*
X195852152Y-133512982D01*
X195862107Y-133522307D01*
X195862121Y-133522319D01*
X195867019Y-133526614D01*
X195877568Y-133535270D01*
X195974986Y-133610022D01*
X195974990Y-133610024D01*
X195974997Y-133610030D01*
X195985172Y-133616828D01*
X195997690Y-133625192D01*
X195997694Y-133625194D01*
X195997695Y-133625195D01*
X196008944Y-133631689D01*
X196008953Y-133631694D01*
X196033409Y-133643755D01*
X196033416Y-133643758D01*
X196033429Y-133643764D01*
X196143832Y-133689494D01*
X196169672Y-133698266D01*
X196169677Y-133698267D01*
X196169682Y-133698269D01*
X196182207Y-133701626D01*
X196182222Y-133701629D01*
X196182228Y-133701631D01*
X196209011Y-133706959D01*
X196209013Y-133706959D01*
X196209017Y-133706960D01*
X196228076Y-133709469D01*
X196330759Y-133722988D01*
X196344350Y-133724327D01*
X196350849Y-133724753D01*
X196353774Y-133724848D01*
X196364489Y-133725200D01*
X196364500Y-133725200D01*
X205914612Y-133725200D01*
X205924237Y-133724884D01*
X205928253Y-133724753D01*
X205931755Y-133724523D01*
X205934740Y-133724328D01*
X205934748Y-133724327D01*
X205934751Y-133724327D01*
X205948340Y-133722988D01*
X206061230Y-133708125D01*
X206070081Y-133706960D01*
X206070082Y-133706959D01*
X206070088Y-133706959D01*
X206096871Y-133701631D01*
X206096882Y-133701628D01*
X206096891Y-133701626D01*
X206109416Y-133698269D01*
X206109416Y-133698268D01*
X206109427Y-133698266D01*
X206135267Y-133689494D01*
X206245670Y-133643764D01*
X206245685Y-133643756D01*
X206245689Y-133643755D01*
X206256510Y-133638418D01*
X206270150Y-133631692D01*
X206281409Y-133625192D01*
X206304113Y-133610022D01*
X206401531Y-133535270D01*
X206412080Y-133526614D01*
X206416978Y-133522319D01*
X206426953Y-133512976D01*
X207136776Y-132803153D01*
X207146119Y-132793178D01*
X207150414Y-132788280D01*
X207159070Y-132777731D01*
X207233822Y-132680313D01*
X207248992Y-132657609D01*
X207255492Y-132646350D01*
X207267564Y-132621870D01*
X207313294Y-132511467D01*
X207322066Y-132485627D01*
X207325431Y-132473071D01*
X207330759Y-132446288D01*
X207330839Y-132445675D01*
X207343500Y-132433016D01*
X207343500Y-132349515D01*
X207346788Y-132324542D01*
X207348127Y-132310947D01*
X207348553Y-132304446D01*
X207349000Y-132290799D01*
X207349000Y-120962700D01*
X207348553Y-120949053D01*
X207348127Y-120942552D01*
X207346788Y-120928957D01*
X207343926Y-120907219D01*
X207343500Y-120900719D01*
X207343500Y-120853107D01*
X207343500Y-120642684D01*
X206437816Y-119737000D01*
X207226663Y-119737000D01*
X207244623Y-119873426D01*
X207247521Y-119895433D01*
X207280546Y-119975163D01*
X207308674Y-120043070D01*
X207405952Y-120169844D01*
X207405955Y-120169847D01*
X207532729Y-120267125D01*
X207532730Y-120267125D01*
X207532731Y-120267126D01*
X207680367Y-120328279D01*
X207838800Y-120349137D01*
X207997233Y-120328279D01*
X208144869Y-120267126D01*
X208271646Y-120169846D01*
X208368926Y-120043069D01*
X208430079Y-119895433D01*
X208450937Y-119737000D01*
X208430079Y-119578567D01*
X208426738Y-119570501D01*
X210692120Y-119570501D01*
X210703459Y-119649369D01*
X210712733Y-119713868D01*
X210772903Y-119845621D01*
X210867754Y-119955086D01*
X210989604Y-120033394D01*
X211128579Y-120074200D01*
X211128580Y-120074200D01*
X211273420Y-120074200D01*
X211273421Y-120074200D01*
X211412396Y-120033394D01*
X211534246Y-119955086D01*
X211629097Y-119845621D01*
X211689267Y-119713868D01*
X211708720Y-119578567D01*
X211709880Y-119570501D01*
X211709880Y-119570498D01*
X211699308Y-119496969D01*
X211689267Y-119427132D01*
X211629097Y-119295379D01*
X211534246Y-119185914D01*
X211412396Y-119107606D01*
X211412395Y-119107605D01*
X211412394Y-119107605D01*
X211331187Y-119083761D01*
X211273421Y-119066800D01*
X211128579Y-119066800D01*
X210989605Y-119107605D01*
X210867753Y-119185914D01*
X210772903Y-119295379D01*
X210712733Y-119427132D01*
X210712732Y-119427136D01*
X210692120Y-119570498D01*
X210692120Y-119570501D01*
X208426738Y-119570501D01*
X208368926Y-119430932D01*
X208368925Y-119430931D01*
X208368925Y-119430930D01*
X208271647Y-119304155D01*
X208271644Y-119304152D01*
X208144870Y-119206874D01*
X208083717Y-119181543D01*
X207997233Y-119145721D01*
X207997229Y-119145720D01*
X207997228Y-119145720D01*
X207838800Y-119124863D01*
X207680371Y-119145720D01*
X207680368Y-119145720D01*
X207680367Y-119145721D01*
X207680365Y-119145722D01*
X207532730Y-119206874D01*
X207405955Y-119304152D01*
X207405952Y-119304155D01*
X207308674Y-119430930D01*
X207266064Y-119533800D01*
X207250863Y-119570500D01*
X207247522Y-119578565D01*
X207247520Y-119578571D01*
X207226663Y-119737000D01*
X206437816Y-119737000D01*
X205081596Y-118380780D01*
X205080473Y-118379499D01*
X209882119Y-118379499D01*
X209902732Y-118522867D01*
X209962902Y-118654620D01*
X210057753Y-118764085D01*
X210179603Y-118842393D01*
X210318578Y-118883199D01*
X210318579Y-118883199D01*
X210463419Y-118883199D01*
X210463420Y-118883199D01*
X210602395Y-118842393D01*
X210724245Y-118764085D01*
X210819096Y-118654620D01*
X210879266Y-118522867D01*
X210899879Y-118379499D01*
X210898810Y-118372067D01*
X210891566Y-118321679D01*
X210879266Y-118236131D01*
X210819096Y-118104378D01*
X210724245Y-117994913D01*
X210602395Y-117916605D01*
X210602394Y-117916604D01*
X210602393Y-117916604D01*
X210521186Y-117892760D01*
X210463420Y-117875799D01*
X210318578Y-117875799D01*
X210179604Y-117916604D01*
X210057752Y-117994913D01*
X209962902Y-118104378D01*
X209902732Y-118236131D01*
X209902731Y-118236135D01*
X209882639Y-118375882D01*
X209882119Y-118379499D01*
X205080473Y-118379499D01*
X205077301Y-118375882D01*
X205002549Y-118278464D01*
X204996049Y-118267205D01*
X204950319Y-118156802D01*
X204946954Y-118144245D01*
X204941705Y-118104378D01*
X204930926Y-118022499D01*
X204930500Y-118015999D01*
X204930500Y-117678107D01*
X204930500Y-117678104D01*
X204930500Y-117467684D01*
X204609016Y-117146200D01*
X207937863Y-117146200D01*
X207958721Y-117304633D01*
X207990284Y-117380833D01*
X208019874Y-117452270D01*
X208117152Y-117579044D01*
X208117155Y-117579047D01*
X208243929Y-117676325D01*
X208243930Y-117676325D01*
X208243931Y-117676326D01*
X208391567Y-117737479D01*
X208550000Y-117758337D01*
X208708433Y-117737479D01*
X208856069Y-117676326D01*
X208982846Y-117579046D01*
X209080126Y-117452269D01*
X209141279Y-117304633D01*
X209162137Y-117146200D01*
X209153887Y-117083537D01*
X209163752Y-117046722D01*
X209196761Y-117027664D01*
X209209756Y-117027664D01*
X209261200Y-117034437D01*
X209419633Y-117013579D01*
X209567269Y-116952426D01*
X209694046Y-116855146D01*
X209791326Y-116728369D01*
X209852479Y-116580733D01*
X209873337Y-116422300D01*
X209852479Y-116263867D01*
X209791326Y-116116232D01*
X209791325Y-116116231D01*
X209791325Y-116116230D01*
X209694047Y-115989455D01*
X209694044Y-115989452D01*
X209567270Y-115892174D01*
X209467381Y-115850799D01*
X209419633Y-115831021D01*
X209419629Y-115831020D01*
X209419628Y-115831020D01*
X209261200Y-115810163D01*
X209102771Y-115831020D01*
X209102768Y-115831020D01*
X209102767Y-115831021D01*
X209102765Y-115831022D01*
X208955130Y-115892174D01*
X208828355Y-115989452D01*
X208828352Y-115989455D01*
X208731074Y-116116230D01*
X208669922Y-116263865D01*
X208669920Y-116263871D01*
X208649063Y-116422300D01*
X208657312Y-116484960D01*
X208647447Y-116521777D01*
X208614438Y-116540834D01*
X208601439Y-116540834D01*
X208550001Y-116534063D01*
X208550000Y-116534063D01*
X208391571Y-116554920D01*
X208391568Y-116554920D01*
X208391567Y-116554921D01*
X208391565Y-116554922D01*
X208243930Y-116616074D01*
X208117155Y-116713352D01*
X208117152Y-116713355D01*
X208019874Y-116840130D01*
X207958722Y-116987765D01*
X207958720Y-116987771D01*
X207944204Y-117098036D01*
X207937863Y-117146200D01*
X204609016Y-117146200D01*
X203656516Y-116193700D01*
X203446103Y-116193700D01*
X202630068Y-116193700D01*
X202623569Y-116193274D01*
X202602704Y-116190527D01*
X202522838Y-116180012D01*
X202510281Y-116176647D01*
X202419458Y-116139027D01*
X202408200Y-116132527D01*
X202330209Y-116072683D01*
X202321016Y-116063490D01*
X202309103Y-116047965D01*
X202277424Y-116006680D01*
X202261172Y-115985499D01*
X202254672Y-115974241D01*
X202217052Y-115883418D01*
X202213687Y-115870860D01*
X202205926Y-115811907D01*
X202205500Y-115805407D01*
X202205500Y-115126900D01*
X206921863Y-115126900D01*
X206942721Y-115285333D01*
X206969022Y-115348828D01*
X207003874Y-115432970D01*
X207101152Y-115559744D01*
X207101155Y-115559747D01*
X207227929Y-115657025D01*
X207227930Y-115657025D01*
X207227931Y-115657026D01*
X207375567Y-115718179D01*
X207534000Y-115739037D01*
X207692433Y-115718179D01*
X207840069Y-115657026D01*
X207966846Y-115559746D01*
X208064126Y-115432969D01*
X208125279Y-115285333D01*
X208146137Y-115126900D01*
X208125279Y-114968467D01*
X208064126Y-114820832D01*
X208064125Y-114820831D01*
X208064125Y-114820830D01*
X207966847Y-114694055D01*
X207966844Y-114694052D01*
X207840070Y-114596774D01*
X207778917Y-114571443D01*
X207692433Y-114535621D01*
X207692429Y-114535620D01*
X207692428Y-114535620D01*
X207534000Y-114514763D01*
X207375571Y-114535620D01*
X207375568Y-114535620D01*
X207375567Y-114535621D01*
X207350236Y-114546113D01*
X207227930Y-114596774D01*
X207101155Y-114694052D01*
X207101152Y-114694055D01*
X207003874Y-114820830D01*
X206942722Y-114968465D01*
X206942720Y-114968471D01*
X206921863Y-115126900D01*
X202205500Y-115126900D01*
X202205500Y-114174400D01*
X209969863Y-114174400D01*
X209990721Y-114332833D01*
X210009264Y-114377600D01*
X210051874Y-114480470D01*
X210149071Y-114607138D01*
X210149154Y-114607246D01*
X210149716Y-114607677D01*
X210254179Y-114687835D01*
X210273236Y-114720844D01*
X210263371Y-114757660D01*
X210166174Y-114884330D01*
X210105022Y-115031965D01*
X210105020Y-115031971D01*
X210084163Y-115190400D01*
X210100088Y-115311367D01*
X210105021Y-115348833D01*
X210129915Y-115408933D01*
X210166174Y-115496470D01*
X210263452Y-115623244D01*
X210263455Y-115623247D01*
X210390229Y-115720525D01*
X210390230Y-115720525D01*
X210390231Y-115720526D01*
X210537867Y-115781679D01*
X210566562Y-115785456D01*
X210599570Y-115804513D01*
X210609436Y-115841329D01*
X210599572Y-115865145D01*
X210572574Y-115900330D01*
X210511422Y-116047965D01*
X210511420Y-116047971D01*
X210490563Y-116206400D01*
X210509694Y-116351721D01*
X210511421Y-116364833D01*
X210535225Y-116422300D01*
X210572574Y-116512470D01*
X210669852Y-116639244D01*
X210669855Y-116639247D01*
X210796629Y-116736525D01*
X210796630Y-116736525D01*
X210796631Y-116736526D01*
X210944267Y-116797679D01*
X211102700Y-116818537D01*
X211261133Y-116797679D01*
X211408769Y-116736526D01*
X211535546Y-116639246D01*
X211632826Y-116512469D01*
X211693979Y-116364833D01*
X211714837Y-116206400D01*
X211693979Y-116047967D01*
X211632826Y-115900332D01*
X211632825Y-115900331D01*
X211632825Y-115900330D01*
X211535547Y-115773555D01*
X211535544Y-115773552D01*
X211408770Y-115676274D01*
X211347617Y-115650943D01*
X211261133Y-115615121D01*
X211261129Y-115615120D01*
X211261128Y-115615120D01*
X211232437Y-115611343D01*
X211199428Y-115592285D01*
X211189563Y-115555469D01*
X211199427Y-115531653D01*
X211226426Y-115496469D01*
X211287579Y-115348833D01*
X211308437Y-115190400D01*
X211287579Y-115031967D01*
X211226426Y-114884332D01*
X211226425Y-114884331D01*
X211226425Y-114884330D01*
X211129147Y-114757555D01*
X211024120Y-114676964D01*
X211005063Y-114643955D01*
X211014927Y-114607139D01*
X211112126Y-114480469D01*
X211173279Y-114332833D01*
X211194137Y-114174400D01*
X211173279Y-114015967D01*
X211112126Y-113868332D01*
X211112125Y-113868331D01*
X211112125Y-113868330D01*
X211014847Y-113741555D01*
X211014844Y-113741552D01*
X210888070Y-113644274D01*
X210826917Y-113618943D01*
X210740433Y-113583121D01*
X210740429Y-113583120D01*
X210740428Y-113583120D01*
X210582000Y-113562263D01*
X210423571Y-113583120D01*
X210423568Y-113583120D01*
X210423567Y-113583121D01*
X210423565Y-113583122D01*
X210275930Y-113644274D01*
X210149155Y-113741552D01*
X210149152Y-113741555D01*
X210051874Y-113868330D01*
X209990722Y-114015965D01*
X209990720Y-114015971D01*
X209979895Y-114098200D01*
X209969863Y-114174400D01*
X202205500Y-114174400D01*
X202205500Y-113387000D01*
X203734163Y-113387000D01*
X203755021Y-113545433D01*
X203790843Y-113631917D01*
X203816174Y-113693070D01*
X203913452Y-113819844D01*
X203913455Y-113819847D01*
X204040229Y-113917125D01*
X204040230Y-113917125D01*
X204040231Y-113917126D01*
X204187867Y-113978279D01*
X204346300Y-113999137D01*
X204504733Y-113978279D01*
X204652369Y-113917126D01*
X204779146Y-113819846D01*
X204876426Y-113693069D01*
X204937579Y-113545433D01*
X204958437Y-113387000D01*
X204937579Y-113228567D01*
X204876426Y-113080932D01*
X204876425Y-113080931D01*
X204876425Y-113080930D01*
X204779147Y-112954155D01*
X204779144Y-112954152D01*
X204652370Y-112856874D01*
X204591217Y-112831543D01*
X204504733Y-112795721D01*
X204504729Y-112795720D01*
X204504728Y-112795720D01*
X204346300Y-112774863D01*
X204187871Y-112795720D01*
X204187868Y-112795720D01*
X204187867Y-112795721D01*
X204187865Y-112795722D01*
X204040230Y-112856874D01*
X203913455Y-112954152D01*
X203913452Y-112954155D01*
X203816174Y-113080930D01*
X203783895Y-113158859D01*
X203755021Y-113228567D01*
X203734163Y-113387000D01*
X202205500Y-113387000D01*
X202205500Y-112967443D01*
X202220086Y-112932229D01*
X202255300Y-112917643D01*
X202285615Y-112927934D01*
X202300331Y-112939226D01*
X202447967Y-113000379D01*
X202606400Y-113021237D01*
X202764833Y-113000379D01*
X202912469Y-112939226D01*
X202982483Y-112885500D01*
X203019300Y-112875636D01*
X203043115Y-112885500D01*
X203113131Y-112939226D01*
X203260767Y-113000379D01*
X203419200Y-113021237D01*
X203577633Y-113000379D01*
X203725269Y-112939226D01*
X203852046Y-112841946D01*
X203949326Y-112715169D01*
X204010479Y-112567533D01*
X204031337Y-112409100D01*
X204010479Y-112250667D01*
X203949326Y-112103032D01*
X203895599Y-112033014D01*
X203885735Y-111996200D01*
X203895601Y-111972383D01*
X203949326Y-111902369D01*
X204010479Y-111754733D01*
X204031337Y-111596300D01*
X204010479Y-111437867D01*
X203949326Y-111290232D01*
X203895599Y-111220214D01*
X203885735Y-111183400D01*
X203895601Y-111159583D01*
X203910516Y-111140146D01*
X203949326Y-111089569D01*
X203970894Y-111037500D01*
X207747363Y-111037500D01*
X207767426Y-111189900D01*
X207768221Y-111195933D01*
X207804043Y-111282417D01*
X207829374Y-111343570D01*
X207926652Y-111470344D01*
X207926655Y-111470347D01*
X208053429Y-111567625D01*
X208053430Y-111567625D01*
X208053431Y-111567626D01*
X208201067Y-111628779D01*
X208359500Y-111649637D01*
X208517933Y-111628779D01*
X208665569Y-111567626D01*
X208792346Y-111470346D01*
X208889626Y-111343569D01*
X208950779Y-111195933D01*
X208971637Y-111037500D01*
X208950779Y-110879067D01*
X208889626Y-110731432D01*
X208889625Y-110731431D01*
X208889625Y-110731430D01*
X208792347Y-110604655D01*
X208792344Y-110604652D01*
X208665570Y-110507374D01*
X208593278Y-110477430D01*
X208517933Y-110446221D01*
X208517929Y-110446220D01*
X208517928Y-110446220D01*
X208359500Y-110425363D01*
X208201071Y-110446220D01*
X208201068Y-110446220D01*
X208201067Y-110446221D01*
X208201065Y-110446222D01*
X208053430Y-110507374D01*
X207926655Y-110604652D01*
X207926652Y-110604655D01*
X207829374Y-110731430D01*
X207768222Y-110879065D01*
X207768220Y-110879071D01*
X207747363Y-111037500D01*
X203970894Y-111037500D01*
X204010479Y-110941933D01*
X204031337Y-110783500D01*
X204010479Y-110625067D01*
X203949326Y-110477432D01*
X203949325Y-110477431D01*
X203949325Y-110477430D01*
X203852047Y-110350655D01*
X203852044Y-110350652D01*
X203725270Y-110253374D01*
X203657145Y-110225156D01*
X203577633Y-110192221D01*
X203577629Y-110192220D01*
X203577628Y-110192220D01*
X203419200Y-110171363D01*
X203260771Y-110192220D01*
X203260768Y-110192220D01*
X203260767Y-110192221D01*
X203260765Y-110192222D01*
X203113130Y-110253374D01*
X203043116Y-110307098D01*
X203006299Y-110316963D01*
X202982484Y-110307098D01*
X202912470Y-110253374D01*
X202844345Y-110225156D01*
X202764833Y-110192221D01*
X202764829Y-110192220D01*
X202764828Y-110192220D01*
X202606400Y-110171363D01*
X202447971Y-110192220D01*
X202447968Y-110192220D01*
X202447967Y-110192221D01*
X202447965Y-110192222D01*
X202300330Y-110253374D01*
X202285615Y-110264666D01*
X202248799Y-110274530D01*
X202215790Y-110255471D01*
X202205500Y-110225156D01*
X202205500Y-108051282D01*
X202205499Y-108051273D01*
X202200665Y-108021991D01*
X202200000Y-108013879D01*
X202200000Y-107316400D01*
X209588863Y-107316400D01*
X209601444Y-107411967D01*
X209609721Y-107474833D01*
X209623004Y-107506900D01*
X209670874Y-107622470D01*
X209768152Y-107749244D01*
X209768155Y-107749247D01*
X209894929Y-107846525D01*
X209894930Y-107846525D01*
X209894931Y-107846526D01*
X210042567Y-107907679D01*
X210201000Y-107928537D01*
X210359433Y-107907679D01*
X210507069Y-107846526D01*
X210633846Y-107749246D01*
X210731126Y-107622469D01*
X210792279Y-107474833D01*
X210813137Y-107316400D01*
X210792279Y-107157967D01*
X210731126Y-107010332D01*
X210731125Y-107010331D01*
X210731125Y-107010330D01*
X210633847Y-106883555D01*
X210633844Y-106883552D01*
X210507070Y-106786274D01*
X210440369Y-106758646D01*
X210359433Y-106725121D01*
X210359429Y-106725120D01*
X210359428Y-106725120D01*
X210201000Y-106704263D01*
X210042571Y-106725120D01*
X210042568Y-106725120D01*
X210042567Y-106725121D01*
X210042565Y-106725122D01*
X209894930Y-106786274D01*
X209768155Y-106883552D01*
X209768152Y-106883555D01*
X209670874Y-107010330D01*
X209620213Y-107132636D01*
X209611634Y-107153350D01*
X209609722Y-107157965D01*
X209609720Y-107157971D01*
X209588863Y-107316400D01*
X202200000Y-107316400D01*
X202200000Y-106995075D01*
X202200957Y-106985360D01*
X202202198Y-106979121D01*
X202205500Y-106962521D01*
X202205500Y-105119300D01*
X209461863Y-105119300D01*
X209479920Y-105256461D01*
X209482721Y-105277733D01*
X209516936Y-105360335D01*
X209543874Y-105425370D01*
X209641152Y-105552144D01*
X209641155Y-105552147D01*
X209767929Y-105649425D01*
X209767930Y-105649425D01*
X209767931Y-105649426D01*
X209915567Y-105710579D01*
X210074000Y-105731437D01*
X210232433Y-105710579D01*
X210380069Y-105649426D01*
X210506846Y-105552146D01*
X210604126Y-105425369D01*
X210665279Y-105277733D01*
X210686137Y-105119300D01*
X210665279Y-104960867D01*
X210604126Y-104813232D01*
X210604125Y-104813231D01*
X210604125Y-104813230D01*
X210506847Y-104686455D01*
X210506844Y-104686452D01*
X210380070Y-104589174D01*
X210317819Y-104563389D01*
X210232433Y-104528021D01*
X210232429Y-104528020D01*
X210232428Y-104528020D01*
X210074000Y-104507163D01*
X209915571Y-104528020D01*
X209915568Y-104528020D01*
X209915567Y-104528021D01*
X209915565Y-104528022D01*
X209767930Y-104589174D01*
X209641155Y-104686452D01*
X209641152Y-104686455D01*
X209543874Y-104813230D01*
X209482722Y-104960865D01*
X209482720Y-104960871D01*
X209461863Y-105119300D01*
X202205500Y-105119300D01*
X202205500Y-104186791D01*
X202205926Y-104180291D01*
X202213687Y-104121339D01*
X202217052Y-104108781D01*
X202254673Y-104017954D01*
X202261168Y-104006705D01*
X202286710Y-103973418D01*
X202290976Y-103968553D01*
X202370053Y-103889476D01*
X202374918Y-103885210D01*
X202408205Y-103859668D01*
X202419454Y-103853173D01*
X202510283Y-103815551D01*
X202522837Y-103812187D01*
X202581792Y-103804425D01*
X202588291Y-103804000D01*
X204047712Y-103804000D01*
X204057337Y-103803684D01*
X204061353Y-103803553D01*
X204064855Y-103803323D01*
X204067840Y-103803128D01*
X204067848Y-103803127D01*
X204067851Y-103803127D01*
X204081440Y-103801788D01*
X204103178Y-103798925D01*
X204109678Y-103798500D01*
X207549798Y-103798500D01*
X207585012Y-103813086D01*
G37*
%TD.AperFunction*%
%TD*%
%TA.AperFunction,Conductor*%
%TO.N,GND*%
G36*
X122552139Y-72741285D02*
G01*
X122597894Y-72794089D01*
X122609100Y-72845600D01*
X122609100Y-77677600D01*
X122589415Y-77744639D01*
X122536611Y-77790394D01*
X122485100Y-77801600D01*
X120193100Y-77801600D01*
X120126061Y-77781915D01*
X120080306Y-77729111D01*
X120069100Y-77677600D01*
X120069100Y-72845600D01*
X120088785Y-72778561D01*
X120141589Y-72732806D01*
X120193100Y-72721600D01*
X122485100Y-72721600D01*
X122552139Y-72741285D01*
G37*
%TD.AperFunction*%
%TD*%
%TA.AperFunction,Conductor*%
%TO.N,Net-(IC8-AVDD)*%
G36*
X197144073Y-99406186D02*
G01*
X197158659Y-99441400D01*
X197144073Y-99476614D01*
X197127917Y-99487409D01*
X197106030Y-99496474D01*
X196979255Y-99593752D01*
X196979252Y-99593755D01*
X196881974Y-99720530D01*
X196820822Y-99868165D01*
X196820820Y-99868171D01*
X196799963Y-100026600D01*
X196811913Y-100117374D01*
X196820821Y-100185033D01*
X196833091Y-100214655D01*
X196881974Y-100332670D01*
X196979063Y-100459198D01*
X196988928Y-100496014D01*
X196969870Y-100529023D01*
X196933054Y-100538888D01*
X196909238Y-100529023D01*
X196854570Y-100487074D01*
X196787864Y-100459444D01*
X196706933Y-100425921D01*
X196706929Y-100425920D01*
X196706928Y-100425920D01*
X196548500Y-100405063D01*
X196390071Y-100425920D01*
X196390068Y-100425920D01*
X196390067Y-100425921D01*
X196390065Y-100425922D01*
X196242430Y-100487074D01*
X196115655Y-100584352D01*
X196115652Y-100584355D01*
X196018374Y-100711130D01*
X195957222Y-100858765D01*
X195957220Y-100858771D01*
X195950090Y-100912930D01*
X195936363Y-101017200D01*
X195957221Y-101175633D01*
X195983376Y-101238777D01*
X196018374Y-101323270D01*
X196115652Y-101450044D01*
X196115655Y-101450047D01*
X196242429Y-101547325D01*
X196242430Y-101547325D01*
X196242431Y-101547326D01*
X196390067Y-101608479D01*
X196548500Y-101629337D01*
X196706933Y-101608479D01*
X196854569Y-101547326D01*
X196981346Y-101450046D01*
X197078626Y-101323269D01*
X197139779Y-101175633D01*
X197160637Y-101017200D01*
X197139779Y-100858767D01*
X197078626Y-100711132D01*
X197078625Y-100711131D01*
X197078625Y-100711130D01*
X196981536Y-100584601D01*
X196971671Y-100547785D01*
X196990729Y-100514776D01*
X197027545Y-100504911D01*
X197051359Y-100514775D01*
X197106031Y-100556726D01*
X197253667Y-100617879D01*
X197412100Y-100638737D01*
X197570533Y-100617879D01*
X197718169Y-100556726D01*
X197844946Y-100459446D01*
X197942226Y-100332669D01*
X197942752Y-100331400D01*
X200190863Y-100331400D01*
X200211620Y-100489071D01*
X200211721Y-100489833D01*
X200235726Y-100547785D01*
X200272874Y-100637470D01*
X200370152Y-100764244D01*
X200370155Y-100764247D01*
X200496929Y-100861525D01*
X200496930Y-100861525D01*
X200496931Y-100861526D01*
X200644567Y-100922679D01*
X200803000Y-100943537D01*
X200961433Y-100922679D01*
X201109069Y-100861526D01*
X201235846Y-100764246D01*
X201325429Y-100647500D01*
X201952863Y-100647500D01*
X201971116Y-100786152D01*
X201973721Y-100805933D01*
X202009543Y-100892417D01*
X202034874Y-100953570D01*
X202132152Y-101080344D01*
X202132155Y-101080347D01*
X202258929Y-101177625D01*
X202258930Y-101177625D01*
X202258931Y-101177626D01*
X202406567Y-101238779D01*
X202565000Y-101259637D01*
X202723433Y-101238779D01*
X202871069Y-101177626D01*
X202997846Y-101080346D01*
X203095126Y-100953569D01*
X203156279Y-100805933D01*
X203177137Y-100647500D01*
X203156279Y-100489067D01*
X203095126Y-100341432D01*
X203095125Y-100341431D01*
X203095125Y-100341430D01*
X202997847Y-100214655D01*
X202997844Y-100214652D01*
X202871070Y-100117374D01*
X202759595Y-100071200D01*
X202723433Y-100056221D01*
X202723429Y-100056220D01*
X202723428Y-100056220D01*
X202565000Y-100035363D01*
X202406571Y-100056220D01*
X202406568Y-100056220D01*
X202406567Y-100056221D01*
X202381236Y-100066713D01*
X202258930Y-100117374D01*
X202132155Y-100214652D01*
X202132152Y-100214655D01*
X202034874Y-100341430D01*
X201973722Y-100489065D01*
X201973720Y-100489071D01*
X201952863Y-100647500D01*
X201325429Y-100647500D01*
X201333126Y-100637469D01*
X201394279Y-100489833D01*
X201415137Y-100331400D01*
X201394279Y-100172967D01*
X201333126Y-100025332D01*
X201333125Y-100025331D01*
X201333125Y-100025330D01*
X201235847Y-99898555D01*
X201235844Y-99898552D01*
X201109070Y-99801274D01*
X201047917Y-99775943D01*
X200961433Y-99740121D01*
X200961429Y-99740120D01*
X200961428Y-99740120D01*
X200803000Y-99719263D01*
X200644571Y-99740120D01*
X200644568Y-99740120D01*
X200644567Y-99740121D01*
X200644565Y-99740122D01*
X200496930Y-99801274D01*
X200370155Y-99898552D01*
X200370152Y-99898555D01*
X200272874Y-100025330D01*
X200211722Y-100172965D01*
X200211720Y-100172971D01*
X200190863Y-100331400D01*
X197942752Y-100331400D01*
X198003379Y-100185033D01*
X198024237Y-100026600D01*
X198003379Y-99868167D01*
X197942226Y-99720532D01*
X197942225Y-99720531D01*
X197942225Y-99720530D01*
X197844947Y-99593755D01*
X197844944Y-99593752D01*
X197718170Y-99496474D01*
X197696284Y-99487409D01*
X197669333Y-99460458D01*
X197669333Y-99422342D01*
X197696284Y-99395391D01*
X197715342Y-99391600D01*
X202322158Y-99391600D01*
X202357372Y-99406186D01*
X202361664Y-99411081D01*
X202361923Y-99411418D01*
X202376752Y-99430744D01*
X202376755Y-99430747D01*
X202503529Y-99528025D01*
X202503530Y-99528025D01*
X202503531Y-99528026D01*
X202651167Y-99589179D01*
X202809600Y-99610037D01*
X202968033Y-99589179D01*
X203115669Y-99528026D01*
X203242446Y-99430746D01*
X203257533Y-99411083D01*
X203290541Y-99392026D01*
X203297042Y-99391600D01*
X204085800Y-99391600D01*
X204092299Y-99392025D01*
X204214047Y-99408054D01*
X204226600Y-99411418D01*
X204337006Y-99457150D01*
X204348264Y-99463649D01*
X204445682Y-99538401D01*
X204450580Y-99542696D01*
X204614303Y-99706419D01*
X204618598Y-99711317D01*
X204693350Y-99808735D01*
X204699850Y-99819994D01*
X204745580Y-99930397D01*
X204748945Y-99942953D01*
X204764974Y-100064699D01*
X204765400Y-100071200D01*
X204765400Y-102877599D01*
X204764974Y-102884100D01*
X204748945Y-103005846D01*
X204745580Y-103018402D01*
X204699850Y-103128805D01*
X204693350Y-103140064D01*
X204618598Y-103237482D01*
X204614303Y-103242380D01*
X204412480Y-103444203D01*
X204407582Y-103448498D01*
X204310164Y-103523250D01*
X204298905Y-103529750D01*
X204188502Y-103575480D01*
X204175946Y-103578845D01*
X204084983Y-103590821D01*
X204054198Y-103594874D01*
X204047700Y-103595300D01*
X202369084Y-103595300D01*
X202220294Y-103744089D01*
X202220290Y-103744093D01*
X202145593Y-103818790D01*
X202145589Y-103818794D01*
X201996800Y-103967584D01*
X201996800Y-104177996D01*
X201996800Y-106962521D01*
X201982214Y-106997735D01*
X201947000Y-107012321D01*
X201916684Y-107002030D01*
X201883770Y-106976774D01*
X201822617Y-106951443D01*
X201736133Y-106915621D01*
X201736129Y-106915620D01*
X201736128Y-106915620D01*
X201577700Y-106894763D01*
X201419271Y-106915620D01*
X201419268Y-106915620D01*
X201419267Y-106915621D01*
X201419265Y-106915622D01*
X201271630Y-106976774D01*
X201144855Y-107074052D01*
X201144852Y-107074055D01*
X201047574Y-107200830D01*
X201021364Y-107264107D01*
X200986421Y-107348467D01*
X200965563Y-107506900D01*
X200986421Y-107665333D01*
X201022243Y-107751817D01*
X201047574Y-107812970D01*
X201144852Y-107939744D01*
X201144855Y-107939747D01*
X201271629Y-108037025D01*
X201271630Y-108037025D01*
X201271631Y-108037026D01*
X201419267Y-108098179D01*
X201577700Y-108119037D01*
X201736133Y-108098179D01*
X201883769Y-108037026D01*
X201916685Y-108011768D01*
X201953499Y-108001904D01*
X201986509Y-108020961D01*
X201996800Y-108051278D01*
X201996800Y-110760964D01*
X201996374Y-110767464D01*
X201994263Y-110783499D01*
X201996374Y-110799534D01*
X201996800Y-110806034D01*
X201996800Y-111573764D01*
X201996374Y-111580264D01*
X201994263Y-111596299D01*
X201996374Y-111612334D01*
X201996800Y-111618834D01*
X201996800Y-112386564D01*
X201996374Y-112393064D01*
X201994263Y-112409099D01*
X201996374Y-112425134D01*
X201996800Y-112431634D01*
X201996800Y-116037316D01*
X202369084Y-116409600D01*
X203349200Y-116409600D01*
X203355699Y-116410025D01*
X203477447Y-116426054D01*
X203490000Y-116429418D01*
X203600406Y-116475150D01*
X203611664Y-116481649D01*
X203709082Y-116556401D01*
X203713980Y-116560696D01*
X204204404Y-117051120D01*
X204218990Y-117086334D01*
X204204404Y-117121548D01*
X204175690Y-117135708D01*
X204149771Y-117139120D01*
X204149768Y-117139120D01*
X204149767Y-117139121D01*
X204149765Y-117139122D01*
X204002130Y-117200274D01*
X203875355Y-117297552D01*
X203875352Y-117297555D01*
X203778074Y-117424330D01*
X203727413Y-117546636D01*
X203716921Y-117571967D01*
X203696063Y-117730400D01*
X203716921Y-117888833D01*
X203752743Y-117975317D01*
X203778074Y-118036470D01*
X203875352Y-118163244D01*
X203875355Y-118163247D01*
X204002129Y-118260525D01*
X204002130Y-118260525D01*
X204002131Y-118260526D01*
X204149767Y-118321679D01*
X204308200Y-118342537D01*
X204466633Y-118321679D01*
X204614269Y-118260526D01*
X204657124Y-118227641D01*
X204693939Y-118217776D01*
X204714600Y-118229704D01*
X204714600Y-118323316D01*
X204863390Y-118472106D01*
X204863393Y-118472109D01*
X206989203Y-120597919D01*
X206993498Y-120602817D01*
X207068250Y-120700235D01*
X207074750Y-120711494D01*
X207120480Y-120821897D01*
X207123845Y-120834453D01*
X207139874Y-120956199D01*
X207140300Y-120962700D01*
X207140300Y-132290799D01*
X207139874Y-132297300D01*
X207123845Y-132419046D01*
X207120480Y-132431602D01*
X207074750Y-132542005D01*
X207068250Y-132553264D01*
X206993498Y-132650682D01*
X206989203Y-132655580D01*
X206279380Y-133365403D01*
X206274482Y-133369698D01*
X206177064Y-133444450D01*
X206165805Y-133450950D01*
X206055402Y-133496680D01*
X206042846Y-133500045D01*
X205951883Y-133512021D01*
X205921098Y-133516074D01*
X205914600Y-133516500D01*
X196364500Y-133516500D01*
X196358001Y-133516074D01*
X196319566Y-133511014D01*
X196236253Y-133500045D01*
X196223697Y-133496680D01*
X196113294Y-133450950D01*
X196102035Y-133444450D01*
X196004617Y-133369698D01*
X195999719Y-133365403D01*
X195848696Y-133214380D01*
X195844401Y-133209482D01*
X195769649Y-133112064D01*
X195763149Y-133100805D01*
X195717419Y-132990402D01*
X195714054Y-132977845D01*
X195698026Y-132856099D01*
X195697600Y-132849599D01*
X195697600Y-131967104D01*
X201968859Y-131967104D01*
X201989717Y-132125537D01*
X202025539Y-132212021D01*
X202050870Y-132273174D01*
X202148148Y-132399948D01*
X202148151Y-132399951D01*
X202274925Y-132497229D01*
X202274926Y-132497229D01*
X202274927Y-132497230D01*
X202422563Y-132558383D01*
X202580996Y-132579241D01*
X202739429Y-132558383D01*
X202887065Y-132497230D01*
X203013842Y-132399950D01*
X203111122Y-132273173D01*
X203172275Y-132125537D01*
X203193133Y-131967104D01*
X203172275Y-131808671D01*
X203111122Y-131661036D01*
X203111121Y-131661035D01*
X203111121Y-131661034D01*
X203013843Y-131534259D01*
X203013840Y-131534256D01*
X202887066Y-131436978D01*
X202825913Y-131411647D01*
X202739429Y-131375825D01*
X202739425Y-131375824D01*
X202739424Y-131375824D01*
X202580996Y-131354967D01*
X202422567Y-131375824D01*
X202422564Y-131375824D01*
X202422563Y-131375825D01*
X202422561Y-131375826D01*
X202274926Y-131436978D01*
X202148151Y-131534256D01*
X202148148Y-131534259D01*
X202050870Y-131661034D01*
X202000209Y-131783340D01*
X201989717Y-131808671D01*
X201968859Y-131967104D01*
X195697600Y-131967104D01*
X195697600Y-129349500D01*
X199476363Y-129349500D01*
X199497221Y-129507933D01*
X199510504Y-129540000D01*
X199558374Y-129655570D01*
X199655652Y-129782344D01*
X199655655Y-129782347D01*
X199782429Y-129879625D01*
X199782430Y-129879625D01*
X199782431Y-129879626D01*
X199930067Y-129940779D01*
X200088500Y-129961637D01*
X200246933Y-129940779D01*
X200394569Y-129879626D01*
X200521346Y-129782346D01*
X200618626Y-129655569D01*
X200666496Y-129540000D01*
X204746863Y-129540000D01*
X204767721Y-129698433D01*
X204802478Y-129782344D01*
X204828874Y-129846070D01*
X204926152Y-129972844D01*
X204926155Y-129972847D01*
X205052929Y-130070125D01*
X205052930Y-130070125D01*
X205052931Y-130070126D01*
X205200567Y-130131279D01*
X205359000Y-130152137D01*
X205517433Y-130131279D01*
X205665069Y-130070126D01*
X205791846Y-129972846D01*
X205889126Y-129846069D01*
X205950279Y-129698433D01*
X205971137Y-129540000D01*
X205950279Y-129381567D01*
X205889126Y-129233932D01*
X205889125Y-129233931D01*
X205889125Y-129233930D01*
X205791847Y-129107155D01*
X205791844Y-129107152D01*
X205665070Y-129009874D01*
X205603917Y-128984543D01*
X205517433Y-128948721D01*
X205517429Y-128948720D01*
X205517428Y-128948720D01*
X205359000Y-128927863D01*
X205200571Y-128948720D01*
X205200568Y-128948720D01*
X205200567Y-128948721D01*
X205200565Y-128948722D01*
X205052930Y-129009874D01*
X204926155Y-129107152D01*
X204926152Y-129107155D01*
X204828874Y-129233930D01*
X204767722Y-129381565D01*
X204767720Y-129381571D01*
X204746863Y-129540000D01*
X200666496Y-129540000D01*
X200679779Y-129507933D01*
X200700637Y-129349500D01*
X200679779Y-129191067D01*
X200618626Y-129043432D01*
X200618625Y-129043431D01*
X200618625Y-129043430D01*
X200521347Y-128916655D01*
X200521344Y-128916652D01*
X200394570Y-128819374D01*
X200333417Y-128794043D01*
X200246933Y-128758221D01*
X200246929Y-128758220D01*
X200246928Y-128758220D01*
X200088500Y-128737363D01*
X199930071Y-128758220D01*
X199930068Y-128758220D01*
X199930067Y-128758221D01*
X199930065Y-128758222D01*
X199782430Y-128819374D01*
X199655655Y-128916652D01*
X199655652Y-128916655D01*
X199558374Y-129043430D01*
X199497222Y-129191065D01*
X199497220Y-129191071D01*
X199476363Y-129349500D01*
X195697600Y-129349500D01*
X195697600Y-128504701D01*
X195698026Y-128498201D01*
X195712837Y-128385700D01*
X195698026Y-128273197D01*
X195697600Y-128266697D01*
X195697600Y-126192510D01*
X195707890Y-126162195D01*
X195745126Y-126113669D01*
X195806279Y-125966033D01*
X195827137Y-125807600D01*
X195806279Y-125649167D01*
X195760853Y-125539500D01*
X197761863Y-125539500D01*
X197776300Y-125649165D01*
X197782721Y-125697933D01*
X197818543Y-125784417D01*
X197843874Y-125845570D01*
X197941152Y-125972344D01*
X197941155Y-125972347D01*
X198067929Y-126069625D01*
X198067930Y-126069625D01*
X198067931Y-126069626D01*
X198215567Y-126130779D01*
X198374000Y-126151637D01*
X198532433Y-126130779D01*
X198680069Y-126069626D01*
X198806846Y-125972346D01*
X198904126Y-125845569D01*
X198965279Y-125697933D01*
X198986137Y-125539500D01*
X198965279Y-125381067D01*
X198904126Y-125233432D01*
X198904125Y-125233431D01*
X198904125Y-125233430D01*
X198806847Y-125106655D01*
X198806844Y-125106652D01*
X198680070Y-125009374D01*
X198618917Y-124984043D01*
X198532433Y-124948221D01*
X198532429Y-124948220D01*
X198532428Y-124948220D01*
X198374000Y-124927363D01*
X198215571Y-124948220D01*
X198215568Y-124948220D01*
X198215567Y-124948221D01*
X198215565Y-124948222D01*
X198067930Y-125009374D01*
X197941155Y-125106652D01*
X197941152Y-125106655D01*
X197843874Y-125233430D01*
X197782722Y-125381065D01*
X197782720Y-125381071D01*
X197761863Y-125539500D01*
X195760853Y-125539500D01*
X195745126Y-125501532D01*
X195745125Y-125501531D01*
X195745125Y-125501530D01*
X195707891Y-125453005D01*
X195697600Y-125422689D01*
X195697600Y-122728879D01*
X195712186Y-122693665D01*
X195747400Y-122679079D01*
X195766453Y-122682869D01*
X195907467Y-122741279D01*
X196065900Y-122762137D01*
X196224333Y-122741279D01*
X196371969Y-122680126D01*
X196498746Y-122582846D01*
X196596026Y-122456069D01*
X196657179Y-122308433D01*
X196678037Y-122150000D01*
X196657179Y-121991567D01*
X196596026Y-121843932D01*
X196596025Y-121843931D01*
X196596025Y-121843930D01*
X196498747Y-121717155D01*
X196498744Y-121717152D01*
X196371970Y-121619874D01*
X196300277Y-121590178D01*
X196224333Y-121558721D01*
X196224329Y-121558720D01*
X196224328Y-121558720D01*
X196065900Y-121537863D01*
X195907471Y-121558720D01*
X195907468Y-121558720D01*
X195907467Y-121558721D01*
X195864756Y-121576412D01*
X195766458Y-121617129D01*
X195728342Y-121617129D01*
X195701391Y-121590178D01*
X195697600Y-121571120D01*
X195697600Y-120930800D01*
X199568563Y-120930800D01*
X199588376Y-121081300D01*
X199589421Y-121089233D01*
X199601318Y-121117955D01*
X199650574Y-121236870D01*
X199747852Y-121363644D01*
X199747855Y-121363647D01*
X199874629Y-121460925D01*
X199874630Y-121460925D01*
X199874631Y-121460926D01*
X200022267Y-121522079D01*
X200180700Y-121542937D01*
X200339133Y-121522079D01*
X200486769Y-121460926D01*
X200613546Y-121363646D01*
X200710826Y-121236869D01*
X200771979Y-121089233D01*
X200792837Y-120930800D01*
X200771979Y-120772367D01*
X200710826Y-120624732D01*
X200710825Y-120624731D01*
X200710825Y-120624730D01*
X200613547Y-120497955D01*
X200613544Y-120497952D01*
X200486770Y-120400674D01*
X200425617Y-120375343D01*
X200339133Y-120339521D01*
X200339129Y-120339520D01*
X200339128Y-120339520D01*
X200180700Y-120318663D01*
X200022271Y-120339520D01*
X200022268Y-120339520D01*
X200022267Y-120339521D01*
X200022265Y-120339522D01*
X199874630Y-120400674D01*
X199747855Y-120497952D01*
X199747852Y-120497955D01*
X199650574Y-120624730D01*
X199589422Y-120772365D01*
X199589420Y-120772371D01*
X199568563Y-120930800D01*
X195697600Y-120930800D01*
X195697600Y-115850800D01*
X197193663Y-115850800D01*
X197214521Y-116009233D01*
X197250343Y-116095717D01*
X197275674Y-116156870D01*
X197372952Y-116283644D01*
X197372955Y-116283647D01*
X197499729Y-116380925D01*
X197499730Y-116380925D01*
X197499731Y-116380926D01*
X197647367Y-116442079D01*
X197805800Y-116462937D01*
X197964233Y-116442079D01*
X198111869Y-116380926D01*
X198238646Y-116283646D01*
X198335926Y-116156869D01*
X198397079Y-116009233D01*
X198417937Y-115850800D01*
X198416265Y-115838100D01*
X198704963Y-115838100D01*
X198725821Y-115996533D01*
X198731082Y-116009233D01*
X198786974Y-116144170D01*
X198884252Y-116270944D01*
X198884255Y-116270947D01*
X199011029Y-116368225D01*
X199011030Y-116368225D01*
X199011031Y-116368226D01*
X199158667Y-116429379D01*
X199317100Y-116450237D01*
X199475533Y-116429379D01*
X199623169Y-116368226D01*
X199749946Y-116270946D01*
X199847226Y-116144169D01*
X199908379Y-115996533D01*
X199929237Y-115838100D01*
X199908379Y-115679667D01*
X199847226Y-115532032D01*
X199847225Y-115532031D01*
X199847225Y-115532030D01*
X199749947Y-115405255D01*
X199749944Y-115405252D01*
X199623170Y-115307974D01*
X199562017Y-115282643D01*
X199475533Y-115246821D01*
X199475529Y-115246820D01*
X199475528Y-115246820D01*
X199317100Y-115225963D01*
X199158671Y-115246820D01*
X199158668Y-115246820D01*
X199158667Y-115246821D01*
X199158665Y-115246822D01*
X199011030Y-115307974D01*
X198884255Y-115405252D01*
X198884252Y-115405255D01*
X198786974Y-115532030D01*
X198725822Y-115679665D01*
X198725820Y-115679671D01*
X198718005Y-115739037D01*
X198704963Y-115838100D01*
X198416265Y-115838100D01*
X198397079Y-115692367D01*
X198335926Y-115544732D01*
X198335925Y-115544731D01*
X198335925Y-115544730D01*
X198238647Y-115417955D01*
X198238644Y-115417952D01*
X198111870Y-115320674D01*
X198050717Y-115295343D01*
X197964233Y-115259521D01*
X197964229Y-115259520D01*
X197964228Y-115259520D01*
X197805800Y-115238663D01*
X197647371Y-115259520D01*
X197647368Y-115259520D01*
X197647367Y-115259521D01*
X197647365Y-115259522D01*
X197499730Y-115320674D01*
X197372955Y-115417952D01*
X197372952Y-115417955D01*
X197275674Y-115544730D01*
X197214522Y-115692365D01*
X197214520Y-115692371D01*
X197195335Y-115838100D01*
X197193663Y-115850800D01*
X195697600Y-115850800D01*
X195697600Y-107264107D01*
X195697600Y-107264104D01*
X195697600Y-107053684D01*
X193486496Y-104842580D01*
X193482201Y-104837682D01*
X193407449Y-104740264D01*
X193400949Y-104729005D01*
X193355219Y-104618602D01*
X193351854Y-104606045D01*
X193335826Y-104484299D01*
X193335400Y-104477799D01*
X193335400Y-103569900D01*
X195352163Y-103569900D01*
X195373021Y-103728333D01*
X195401034Y-103795963D01*
X195434174Y-103875970D01*
X195531452Y-104002744D01*
X195531455Y-104002747D01*
X195658229Y-104100025D01*
X195658230Y-104100025D01*
X195658231Y-104100026D01*
X195805867Y-104161179D01*
X195964300Y-104182037D01*
X196122733Y-104161179D01*
X196270369Y-104100026D01*
X196397146Y-104002746D01*
X196494426Y-103875969D01*
X196547557Y-103747700D01*
X200203563Y-103747700D01*
X200224421Y-103906133D01*
X200249875Y-103967584D01*
X200285574Y-104053770D01*
X200382852Y-104180544D01*
X200382855Y-104180547D01*
X200509629Y-104277825D01*
X200509630Y-104277825D01*
X200509631Y-104277826D01*
X200657267Y-104338979D01*
X200815700Y-104359837D01*
X200974133Y-104338979D01*
X201121769Y-104277826D01*
X201248546Y-104180546D01*
X201345826Y-104053769D01*
X201406979Y-103906133D01*
X201427837Y-103747700D01*
X201406979Y-103589267D01*
X201345826Y-103441632D01*
X201345825Y-103441631D01*
X201345825Y-103441630D01*
X201248547Y-103314855D01*
X201248544Y-103314852D01*
X201121770Y-103217574D01*
X201060617Y-103192243D01*
X200974133Y-103156421D01*
X200974129Y-103156420D01*
X200974128Y-103156420D01*
X200815700Y-103135563D01*
X200657271Y-103156420D01*
X200657268Y-103156420D01*
X200657267Y-103156421D01*
X200657265Y-103156422D01*
X200509630Y-103217574D01*
X200382855Y-103314852D01*
X200382852Y-103314855D01*
X200285574Y-103441630D01*
X200224422Y-103589265D01*
X200224420Y-103589271D01*
X200206113Y-103728328D01*
X200203563Y-103747700D01*
X196547557Y-103747700D01*
X196555579Y-103728333D01*
X196576437Y-103569900D01*
X196555579Y-103411467D01*
X196494426Y-103263832D01*
X196494425Y-103263831D01*
X196494425Y-103263830D01*
X196397147Y-103137055D01*
X196397144Y-103137052D01*
X196270370Y-103039774D01*
X196209217Y-103014443D01*
X196122733Y-102978621D01*
X196122729Y-102978620D01*
X196122728Y-102978620D01*
X195964300Y-102957763D01*
X195805871Y-102978620D01*
X195805868Y-102978620D01*
X195805867Y-102978621D01*
X195805865Y-102978622D01*
X195658230Y-103039774D01*
X195531455Y-103137052D01*
X195531452Y-103137055D01*
X195434174Y-103263830D01*
X195373022Y-103411465D01*
X195373020Y-103411471D01*
X195357449Y-103529750D01*
X195352163Y-103569900D01*
X193335400Y-103569900D01*
X193335400Y-101219000D01*
X194205863Y-101219000D01*
X194226721Y-101377433D01*
X194256798Y-101450044D01*
X194287874Y-101525070D01*
X194385152Y-101651844D01*
X194385155Y-101651847D01*
X194511929Y-101749125D01*
X194511930Y-101749125D01*
X194511931Y-101749126D01*
X194659567Y-101810279D01*
X194818000Y-101831137D01*
X194976433Y-101810279D01*
X195124069Y-101749126D01*
X195250846Y-101651846D01*
X195348126Y-101525069D01*
X195409279Y-101377433D01*
X195430137Y-101219000D01*
X195409279Y-101060567D01*
X195348126Y-100912932D01*
X195348125Y-100912931D01*
X195348125Y-100912930D01*
X195250847Y-100786155D01*
X195250844Y-100786152D01*
X195124070Y-100688874D01*
X195062917Y-100663543D01*
X194976433Y-100627721D01*
X194976429Y-100627720D01*
X194976428Y-100627720D01*
X194818000Y-100606863D01*
X194659571Y-100627720D01*
X194659568Y-100627720D01*
X194659567Y-100627721D01*
X194659565Y-100627722D01*
X194511930Y-100688874D01*
X194385155Y-100786152D01*
X194385152Y-100786155D01*
X194287874Y-100912930D01*
X194244684Y-101017200D01*
X194226721Y-101060567D01*
X194205863Y-101219000D01*
X193335400Y-101219000D01*
X193335400Y-99944200D01*
X193335826Y-99937700D01*
X193335990Y-99936456D01*
X193351854Y-99815950D01*
X193355217Y-99803401D01*
X193400951Y-99692989D01*
X193407446Y-99681739D01*
X193482207Y-99584309D01*
X193486488Y-99579427D01*
X193523227Y-99542688D01*
X193528109Y-99538407D01*
X193625539Y-99463646D01*
X193636789Y-99457151D01*
X193747201Y-99411417D01*
X193759750Y-99408054D01*
X193881500Y-99392025D01*
X193888000Y-99391600D01*
X197108859Y-99391600D01*
X197144073Y-99406186D01*
G37*
%TD.AperFunction*%
%TD*%
%TA.AperFunction,Conductor*%
%TO.N,GND*%
G36*
X92072139Y-87981285D02*
G01*
X92117894Y-88034089D01*
X92129100Y-88085600D01*
X92129100Y-92917600D01*
X92109415Y-92984639D01*
X92056611Y-93030394D01*
X92005100Y-93041600D01*
X89713100Y-93041600D01*
X89646061Y-93021915D01*
X89600306Y-92969111D01*
X89589100Y-92917600D01*
X89589100Y-88085600D01*
X89608785Y-88018561D01*
X89661589Y-87972806D01*
X89713100Y-87961600D01*
X92005100Y-87961600D01*
X92072139Y-87981285D01*
G37*
%TD.AperFunction*%
%TD*%
M02*
